# https://github.com/mikedh/trimesh
v 8.48788105 -5.72833699 0.28182015
v 8.47695186 -6.30034285 0.27639555
v 8.48788105 -5.72833699 0.06017986
v 7.19231497 -5.88302901 0.28094194
v 8.42649276 -6.32176727 0.26831495
v 8.47695186 -6.30034285 0.06560446
v 7.19231497 -5.88302901 0.06105807
v 7.17964603 -6.47586779 0.32552523
v 8.34860962 -6.35998133 0.26849439
v 8.42649276 -6.32176727 0.07368506
v 7.17964603 -6.47586779 0.01647478
v 7.13155396 -6.42336597 0.32300273
v 8.28750579 -6.38817269 0.26892387
v 8.34860962 -6.35998133 0.07350562
v 7.13155396 -6.42336597 0.01899728
v 7.27699960 -6.43787542 0.27156013
v 8.23585573 -6.40799145 0.26906353
v 8.28750579 -6.38817269 0.07307614
v 7.27699960 -6.43787542 0.07043988
v 7.39513202 -6.45746949 0.26897284
v 8.18456413 -6.42299160 0.26907407
v 8.23585573 -6.40799145 0.07293648
v 7.39513202 -6.45746949 0.07302717
v 7.52687430 -6.46635855 0.26872643
v 8.12609714 -6.43429152 0.26868683
v 8.18456413 -6.42299160 0.07292594
v 7.52687430 -6.46635855 0.07327358
v 7.67793970 -6.46740932 0.26858064
v 8.05501048 -6.44389647 0.26853874
v 8.12609714 -6.43429152 0.07331318
v 7.67793970 -6.46740932 0.07341937
v 7.84670339 -6.46068579 0.26845505
v 7.96303557 -6.45201450 0.26821568
v 8.05501048 -6.44389647 0.07346127
v 7.84670339 -6.46068579 0.07354496
v 7.96303557 -6.45201450 0.07378433
f 1 2 6
f 1 6 3
f 1 3 7
f 1 7 4
f 1 4 8
f 1 8 12
f 1 12 16
f 1 16 20
f 1 20 24
f 1 24 28
f 1 28 32
f 1 32 33
f 1 33 29
f 1 29 25
f 1 25 21
f 1 21 17
f 1 17 13
f 1 13 9
f 1 9 5
f 1 5 2
f 2 5 10
f 2 10 6
f 3 6 10
f 3 10 14
f 3 14 18
f 3 18 22
f 3 22 26
f 3 26 30
f 3 30 34
f 3 34 36
f 3 36 35
f 3 35 31
f 3 31 27
f 3 27 23
f 3 23 19
f 3 19 15
f 3 15 11
f 3 11 7
f 4 7 11
f 4 11 8
f 5 9 14
f 5 14 10
f 8 11 15
f 8 15 12
f 9 13 18
f 9 18 14
f 12 15 19
f 12 19 16
f 13 17 22
f 13 22 18
f 16 19 23
f 16 23 20
f 17 21 26
f 17 26 22
f 20 23 27
f 20 27 24
f 21 25 30
f 21 30 26
f 24 27 31
f 24 31 28
f 25 29 34
f 25 34 30
f 28 31 35
f 28 35 32
f 29 33 36
f 29 36 34
f 32 35 36
f 32 36 33

