# https://github.com/mikedh/trimesh
v 8.59527573 -6.27413982 0.05900317
v 8.77026076 -6.21017953 0.04201499
v 8.59527573 -6.27413982 0.28299684
v 8.62078938 -5.69538132 0.06623015
v 8.76825125 -6.18892901 0.06700455
v 8.77026076 -6.21017953 0.29998502
v 8.62078938 -5.69538132 0.27576986
v 9.43265793 -4.84606118 0.06587518
v 8.77966609 -6.18238219 0.06920398
v 8.76825125 -6.18892901 0.27499546
v 9.43265793 -4.84606118 0.27612483
v 9.95090127 -4.81621424 0.05861489
v 8.77966609 -6.18238219 0.27279603
v 9.02938106 -6.01247673 0.07093740
v 9.95090127 -4.81621424 0.28338512
v 9.90106910 -4.86186182 0.06361461
v 9.02938106 -6.01247673 0.27106261
v 9.11626112 -5.94963370 0.07176376
v 9.90106910 -4.86186182 0.27838540
v 9.84710541 -5.00325223 0.07269509
v 9.11626112 -5.94963370 0.27023625
v 9.21162115 -5.86744588 0.07233618
v 9.84710541 -5.00325223 0.26930492
v 9.78991329 -5.12504656 0.07336535
v 9.21162115 -5.86744588 0.26966383
v 9.31406687 -5.76821967 0.07265183
v 9.78991329 -5.12504656 0.26863466
v 9.73337016 -5.23279577 0.07324187
v 9.31406687 -5.76821967 0.26934818
v 9.41681054 -5.65992600 0.07280694
v 9.73337016 -5.23279577 0.26875814
v 9.68167627 -5.31897862 0.07308870
v 9.41681054 -5.65992600 0.26919307
v 9.51555875 -5.54471004 0.07294970
v 9.68167627 -5.31897862 0.26891131
v 9.60513291 -5.43000928 0.07297881
v 9.51555875 -5.54471004 0.26905031
v 9.60513291 -5.43000928 0.26902120
f 1 2 6
f 1 6 3
f 1 3 7
f 1 7 4
f 1 4 8
f 1 8 12
f 1 12 16
f 1 16 20
f 1 20 24
f 1 24 28
f 1 28 32
f 1 32 36
f 1 36 34
f 1 34 30
f 1 30 26
f 1 26 22
f 1 22 18
f 1 18 14
f 1 14 9
f 1 9 5
f 1 5 2
f 2 5 10
f 2 10 6
f 3 6 10
f 3 10 13
f 3 13 17
f 3 17 21
f 3 21 25
f 3 25 29
f 3 29 33
f 3 33 37
f 3 37 38
f 3 38 35
f 3 35 31
f 3 31 27
f 3 27 23
f 3 23 19
f 3 19 15
f 3 15 11
f 3 11 7
f 4 7 11
f 4 11 8
f 5 9 13
f 5 13 10
f 8 11 15
f 8 15 12
f 9 14 17
f 9 17 13
f 12 15 19
f 12 19 16
f 14 18 21
f 14 21 17
f 16 19 23
f 16 23 20
f 18 22 25
f 18 25 21
f 20 23 27
f 20 27 24
f 22 26 29
f 22 29 25
f 24 27 31
f 24 31 28
f 26 30 33
f 26 33 29
f 28 31 35
f 28 35 32
f 30 34 37
f 30 37 33
f 32 35 38
f 32 38 36
f 34 36 38
f 34 38 37

