# https://github.com/mikedh/trimesh
v -1.28955730 -0.75491863 0.06690673
v -1.28955730 -0.75491863 0.27509328
v -1.30458468 0.10708953 0.06067869
v -0.71426732 -1.43729972 0.06563744
v -1.30458468 0.10708953 0.28132132
v -0.71426732 -1.43729972 0.27636257
v 0.22769818 0.10692543 0.06066313
v -0.19126616 -1.43460731 0.06950271
v 0.22769818 0.10692543 0.28133688
v -0.19126616 -1.43460731 0.27249730
v 0.21848563 -1.26153205 0.06328344
v 0.21848563 -1.26153205 0.27871657
f 1 2 5
f 1 5 3
f 1 3 7
f 1 7 11
f 1 11 8
f 1 8 4
f 1 4 6
f 1 6 2
f 2 6 10
f 2 10 12
f 2 12 9
f 2 9 5
f 3 5 9
f 3 9 7
f 4 8 10
f 4 10 6
f 7 9 12
f 7 12 11
f 8 11 12
f 8 12 10

