# https://github.com/mikedh/trimesh
v 2.06613318 -10.84306586 0.00773702
v 1.96903918 -10.80273648 -0.05808111
v 2.06613318 -10.84306586 0.33426299
v 2.09465028 -9.97502729 0.05402169
v 1.96903918 -10.80273648 0.40008112
v 2.02974517 -10.74768717 -0.07742375
v 2.09465028 -9.97502729 0.28797832
v 2.08737395 -9.69967196 0.06932740
v 2.02974517 -10.74768717 0.41942376
v 2.43648023 -10.42156482 0.04864512
v 2.08737395 -9.69967196 0.27267261
v 2.10131172 -9.68795315 0.07270091
v 2.43648023 -10.42156482 0.29335489
v 2.42010213 -10.40471025 0.06557023
v 2.10131172 -9.68795315 0.26929910
v 2.64843579 -8.50248453 0.06250498
v 2.42010213 -10.40471025 0.27642978
v 2.77446513 -9.96088765 0.03916346
v 2.64843579 -8.50248453 0.27949503
v 3.31650743 -8.46730385 -0.00699838
v 2.77446513 -9.96088765 0.30283655
v 2.78233563 -9.96001847 0.07147035
v 3.31650743 -8.46730385 0.34899839
v 3.23768382 -8.40829727 -0.00628398
v 2.78233563 -9.96001847 0.27052966
v 2.78184621 -9.95366745 0.07414516
v 3.23768382 -8.40829727 0.34828399
v 3.20659459 -8.58268016 0.06335888
v 2.78184621 -9.95366745 0.26785485
v 2.78250467 -9.94476579 0.07186851
v 3.20659459 -8.58268016 0.27864113
v 3.19562863 -8.72308182 0.07207848
v 2.78250467 -9.94476579 0.27013150
v 2.97517557 -9.51891058 0.07198527
v 3.19562863 -8.72308182 0.26992153
v 3.16890087 -8.87165587 0.07279083
v 2.97517557 -9.51891058 0.27001474
v 3.00385817 -9.45179569 0.07204774
v 3.16890087 -8.87165587 0.26920918
v 3.13148178 -9.04203605 0.07274774
v 3.00385817 -9.45179569 0.26995227
v 3.03019799 -9.38955161 0.07216384
v 3.13148178 -9.04203605 0.26925227
v 3.07996985 -9.24163482 0.07290347
v 3.03019799 -9.38955161 0.26983617
v 3.05148721 -9.33286486 0.07238080
v 3.07996985 -9.24163482 0.26909654
v 3.06846257 -9.28469832 0.07261192
v 3.05148721 -9.33286486 0.26961921
v 3.06846257 -9.28469832 0.26938809
f 1 2 5
f 1 5 3
f 1 3 7
f 1 7 4
f 1 4 8
f 1 8 12
f 1 12 16
f 1 16 20
f 1 20 24
f 1 24 28
f 1 28 32
f 1 32 36
f 1 36 40
f 1 40 44
f 1 44 48
f 1 48 46
f 1 46 42
f 1 42 38
f 1 38 34
f 1 34 30
f 1 30 26
f 1 26 22
f 1 22 18
f 1 18 14
f 1 14 10
f 1 10 6
f 1 6 2
f 2 6 9
f 2 9 5
f 3 5 9
f 3 9 13
f 3 13 17
f 3 17 21
f 3 21 25
f 3 25 29
f 3 29 33
f 3 33 37
f 3 37 41
f 3 41 45
f 3 45 49
f 3 49 50
f 3 50 47
f 3 47 43
f 3 43 39
f 3 39 35
f 3 35 31
f 3 31 27
f 3 27 23
f 3 23 19
f 3 19 15
f 3 15 11
f 3 11 7
f 4 7 11
f 4 11 8
f 6 10 13
f 6 13 9
f 8 11 15
f 8 15 12
f 10 14 17
f 10 17 13
f 12 15 19
f 12 19 16
f 14 18 21
f 14 21 17
f 16 19 23
f 16 23 20
f 18 22 25
f 18 25 21
f 20 23 27
f 20 27 24
f 22 26 29
f 22 29 25
f 24 27 31
f 24 31 28
f 26 30 33
f 26 33 29
f 28 31 35
f 28 35 32
f 30 34 37
f 30 37 33
f 32 35 39
f 32 39 36
f 34 38 41
f 34 41 37
f 36 39 43
f 36 43 40
f 38 42 45
f 38 45 41
f 40 43 47
f 40 47 44
f 42 46 49
f 42 49 45
f 44 47 50
f 44 50 48
f 46 48 50
f 46 50 49

