# https://github.com/mikedh/trimesh
v 7.66187355 -1.03196269 0.32911340
v 7.63065993 -1.09195557 0.33274328
v 7.66187355 -1.03196269 0.01288661
v 7.69065196 -1.61590385 0.27847261
v 7.63065993 -1.09195557 0.00925673
v 7.65112258 -1.11110177 0.33335348
v 7.69065196 -1.61590385 0.06352740
v 9.15060910 -2.48803128 0.27398505
v 7.65112258 -1.11110177 0.00864653
v 7.70837978 -1.14449788 0.36280995
v 9.15060910 -2.48803128 0.06801496
v 9.80725825 -2.53470659 0.30109514
v 7.70837978 -1.14449788 -0.02080994
v 7.74953719 -1.15329403 0.36211328
v 9.80725825 -2.53470659 0.04090487
v 9.75956901 -2.55151894 0.31885799
v 7.74953719 -1.15329403 -0.02011327
v 8.26311482 -1.26494053 0.30077958
v 9.75956901 -2.55151894 0.02314202
v 9.70353858 -2.45048157 0.27224258
v 8.26311482 -1.26494053 0.04122043
v 8.30626410 -1.28424105 0.32485865
v 9.70353858 -2.45048157 0.06975743
v 9.66743511 -2.38968855 0.26950044
v 8.30626410 -1.28424105 0.01714136
v 8.35047258 -1.30508519 0.30235878
v 9.66743511 -2.38968855 0.07249957
v 9.43514334 -2.10081651 0.26888877
v 8.35047258 -1.30508519 0.03964123
v 8.38586388 -1.32052979 0.27501045
v 9.43514334 -2.10081651 0.07311124
v 9.36694780 -2.02193745 0.26893206
v 8.38586388 -1.32052979 0.06698956
v 8.41767853 -1.33302636 0.27345537
v 9.36694780 -2.02193745 0.07306795
v 9.29406618 -1.94427049 0.26906344
v 8.41767853 -1.33302636 0.06854464
v 8.44243130 -1.34315975 0.27220418
v 9.29406618 -1.94427049 0.07293657
v 9.21941909 -1.87173023 0.26917675
v 8.44243130 -1.34315975 0.06979583
v 8.66931656 -1.45704939 0.27095196
v 9.21941909 -1.87173023 0.07282326
v 9.14504065 -1.80539793 0.26939753
v 8.66931656 -1.45704939 0.07104805
v 8.68861055 -1.46685470 0.27034741
v 9.14504065 -1.80539793 0.07260248
v 9.07268150 -1.74778399 0.26955849
v 8.68861055 -1.46685470 0.07165260
v 8.70658947 -1.47783164 0.27008907
v 9.07268150 -1.74778399 0.07244152
v 8.72502783 -1.48990718 0.26990548
v 8.70658947 -1.47783164 0.07191094
v 8.72502783 -1.48990718 0.07209453
f 1 2 5
f 1 5 3
f 1 3 7
f 1 7 4
f 1 4 8
f 1 8 12
f 1 12 16
f 1 16 20
f 1 20 24
f 1 24 28
f 1 28 32
f 1 32 36
f 1 36 40
f 1 40 44
f 1 44 48
f 1 48 52
f 1 52 50
f 1 50 46
f 1 46 42
f 1 42 38
f 1 38 34
f 1 34 30
f 1 30 26
f 1 26 22
f 1 22 18
f 1 18 14
f 1 14 10
f 1 10 6
f 1 6 2
f 2 6 9
f 2 9 5
f 3 5 9
f 3 9 13
f 3 13 17
f 3 17 21
f 3 21 25
f 3 25 29
f 3 29 33
f 3 33 37
f 3 37 41
f 3 41 45
f 3 45 49
f 3 49 53
f 3 53 54
f 3 54 51
f 3 51 47
f 3 47 43
f 3 43 39
f 3 39 35
f 3 35 31
f 3 31 27
f 3 27 23
f 3 23 19
f 3 19 15
f 3 15 11
f 3 11 7
f 4 7 11
f 4 11 8
f 6 10 13
f 6 13 9
f 8 11 15
f 8 15 12
f 10 14 17
f 10 17 13
f 12 15 19
f 12 19 16
f 14 18 21
f 14 21 17
f 16 19 23
f 16 23 20
f 18 22 25
f 18 25 21
f 20 23 27
f 20 27 24
f 22 26 29
f 22 29 25
f 24 27 31
f 24 31 28
f 26 30 33
f 26 33 29
f 28 31 35
f 28 35 32
f 30 34 37
f 30 37 33
f 32 35 39
f 32 39 36
f 34 38 41
f 34 41 37
f 36 39 43
f 36 43 40
f 38 42 45
f 38 45 41
f 40 43 47
f 40 47 44
f 42 46 49
f 42 49 45
f 44 47 51
f 44 51 48
f 46 50 53
f 46 53 49
f 48 51 54
f 48 54 52
f 50 52 54
f 50 54 53

