# https://github.com/mikedh/trimesh
v -4.20016987 2.91881034 0.28419729
v -4.20016987 2.91881034 0.05780272
v -4.21534046 2.93139022 0.30555003
v -4.19768945 2.40437986 0.27992439
v -4.19768945 2.40437986 0.06207562
v -4.21534046 2.93139022 0.03644998
v -4.33477062 2.91020209 0.32410180
v -5.69967676 2.00498121 0.28265191
v -5.69967676 2.00498121 0.05934810
v -4.33477062 2.91020209 0.01789821
v -4.48769591 2.87284185 0.30409261
v -5.68425015 2.53971966 0.27917590
v -5.68425015 2.53971966 0.06282411
v -4.48769591 2.87284185 0.03790740
v -4.61363649 2.85673263 0.27252518
v -5.45574324 2.61892675 0.27285047
v -5.45574324 2.61892675 0.06914954
v -4.61363649 2.85673263 0.06947483
v -4.71680526 2.83821045 0.27096454
v -5.36802012 2.65084066 0.27105832
v -5.36802012 2.65084066 0.07094169
v -4.71680526 2.83821045 0.07103547
v -5.26257367 2.68260026 0.27044670
v -5.31691805 2.66658424 0.27067331
v -5.31691805 2.66658424 0.07132670
v -5.26257367 2.68260026 0.07155331
f 1 2 6
f 1 6 3
f 1 3 7
f 1 7 11
f 1 11 15
f 1 15 19
f 1 19 23
f 1 23 24
f 1 24 20
f 1 20 16
f 1 16 12
f 1 12 8
f 1 8 4
f 1 4 5
f 1 5 2
f 2 5 9
f 2 9 13
f 2 13 17
f 2 17 21
f 2 21 25
f 2 25 26
f 2 26 22
f 2 22 18
f 2 18 14
f 2 14 10
f 2 10 6
f 3 6 10
f 3 10 7
f 4 8 9
f 4 9 5
f 7 10 14
f 7 14 11
f 8 12 13
f 8 13 9
f 11 14 18
f 11 18 15
f 12 16 17
f 12 17 13
f 15 18 22
f 15 22 19
f 16 20 21
f 16 21 17
f 19 22 26
f 19 26 23
f 20 24 25
f 20 25 21
f 23 26 25
f 23 25 24

