# https://github.com/mikedh/trimesh
v -1.89924719 -9.05220491 0.07318384
v -1.89924719 -9.05220491 0.26881617
v -1.90873603 -9.03092188 0.06338363
v -1.89555834 -9.21498884 0.07317308
v -1.90873603 -9.03092188 0.27861638
v -1.89555834 -9.21498884 0.26882693
v -1.37654494 -9.04850458 0.06567106
v -1.88108868 -9.35452571 0.07292332
v -1.37654494 -9.04850458 0.27632895
v -1.88108868 -9.35452571 0.26907669
v -0.16860273 -10.54238007 0.06708796
v -1.85883676 -9.46681200 0.07265749
v -0.16860273 -10.54238007 0.27491205
v -1.85883676 -9.46681200 0.26934252
v -0.14326932 -11.17742671 0.06027250
v -1.71331836 -9.85107530 0.07378520
v -0.14326932 -11.17742671 0.28172751
v -1.71331836 -9.85107530 0.26821481
v -0.15288448 -11.16020936 0.06708349
v -1.70106751 -9.88035705 0.07375430
v -0.15288448 -11.16020936 0.27491652
v -1.70106751 -9.88035705 0.26824571
v -0.21329237 -11.15347999 0.07318210
v -1.68848176 -9.90911932 0.07369694
v -0.21329237 -11.15347999 0.26881791
v -1.68848176 -9.90911932 0.26830307
v -0.25821654 -11.14533399 0.07394775
v -1.67790967 -9.93208265 0.07364792
v -0.25821654 -11.14533399 0.26805226
v -1.67790967 -9.93208265 0.26835209
v -0.30030288 -11.13667957 0.07377741
v -1.66772017 -9.95081224 0.07366933
v -0.30030288 -11.13667957 0.26822260
v -1.66772017 -9.95081224 0.26833068
v -0.33432043 -11.12771617 0.07349453
v -1.58192205 -10.09546335 0.07341467
v -0.33432043 -11.12771617 0.26850548
v -1.58192205 -10.09546335 0.26858534
v -0.36417486 -11.11724072 0.07367657
v -1.52507512 -10.17543234 0.07366930
v -0.36417486 -11.11724072 0.26832344
v -1.52507512 -10.17543234 0.26833071
v -0.38970884 -11.10760633 0.07337621
v -1.44017316 -10.28194659 0.07386982
v -0.38970884 -11.10760633 0.26862380
v -1.44017316 -10.28194659 0.26813019
v -0.40787270 -11.09814660 0.07356265
v -1.34055526 -10.39843089 0.07395909
v -0.40787270 -11.09814660 0.26843736
v -1.34055526 -10.39843089 0.26804092
v -0.81360781 -10.88482690 0.07397904
v -1.23880169 -10.51292850 0.07377658
v -0.81360781 -10.88482690 0.26802097
v -1.23880169 -10.51292850 0.26822343
v -0.83330201 -10.87392195 0.07385674
v -1.14664616 -10.60962748 0.07361118
v -0.83330201 -10.87392195 0.26814327
v -1.14664616 -10.60962748 0.26838883
v -0.85288293 -10.86161984 0.07362924
v -1.07681084 -10.67652594 0.07343994
v -0.85288293 -10.86161984 0.26837077
v -1.07681084 -10.67652594 0.26856007
v -0.87238998 -10.84680807 0.07358436
v -0.87238998 -10.84680807 0.26841565
f 1 2 5
f 1 5 3
f 1 3 7
f 1 7 11
f 1 11 15
f 1 15 19
f 1 19 23
f 1 23 27
f 1 27 31
f 1 31 35
f 1 35 39
f 1 39 43
f 1 43 47
f 1 47 51
f 1 51 55
f 1 55 59
f 1 59 63
f 1 63 60
f 1 60 56
f 1 56 52
f 1 52 48
f 1 48 44
f 1 44 40
f 1 40 36
f 1 36 32
f 1 32 28
f 1 28 24
f 1 24 20
f 1 20 16
f 1 16 12
f 1 12 8
f 1 8 4
f 1 4 6
f 1 6 2
f 2 6 10
f 2 10 14
f 2 14 18
f 2 18 22
f 2 22 26
f 2 26 30
f 2 30 34
f 2 34 38
f 2 38 42
f 2 42 46
f 2 46 50
f 2 50 54
f 2 54 58
f 2 58 62
f 2 62 64
f 2 64 61
f 2 61 57
f 2 57 53
f 2 53 49
f 2 49 45
f 2 45 41
f 2 41 37
f 2 37 33
f 2 33 29
f 2 29 25
f 2 25 21
f 2 21 17
f 2 17 13
f 2 13 9
f 2 9 5
f 3 5 9
f 3 9 7
f 4 8 10
f 4 10 6
f 7 9 13
f 7 13 11
f 8 12 14
f 8 14 10
f 11 13 17
f 11 17 15
f 12 16 18
f 12 18 14
f 15 17 21
f 15 21 19
f 16 20 22
f 16 22 18
f 19 21 25
f 19 25 23
f 20 24 26
f 20 26 22
f 23 25 29
f 23 29 27
f 24 28 30
f 24 30 26
f 27 29 33
f 27 33 31
f 28 32 34
f 28 34 30
f 31 33 37
f 31 37 35
f 32 36 38
f 32 38 34
f 35 37 41
f 35 41 39
f 36 40 42
f 36 42 38
f 39 41 45
f 39 45 43
f 40 44 46
f 40 46 42
f 43 45 49
f 43 49 47
f 44 48 50
f 44 50 46
f 47 49 53
f 47 53 51
f 48 52 54
f 48 54 50
f 51 53 57
f 51 57 55
f 52 56 58
f 52 58 54
f 55 57 61
f 55 61 59
f 56 60 62
f 56 62 58
f 59 61 64
f 59 64 63
f 60 63 64
f 60 64 62

