# https://github.com/mikedh/trimesh
v 7.76866252 6.79495110 0.28265440
v 7.76866252 6.79495110 0.05934561
v 7.78760550 6.30939653 0.27727678
v 7.84873247 6.78671721 0.33269909
v 7.78760550 6.30939653 0.06472323
v 7.84873247 6.78671721 0.00930092
v 9.12175448 5.36814025 0.27449451
v 8.00954924 6.71494130 0.27674507
v 9.12175448 5.36814025 0.06750550
v 8.00954924 6.71494130 0.06525494
v 9.70661953 5.33854611 0.28311539
v 8.16608455 6.66735473 0.27177383
v 9.70661953 5.33854611 0.05888462
v 8.16608455 6.66735473 0.07022618
v 9.62447228 5.47036870 0.26970648
v 8.24766914 6.63444777 0.27093064
v 9.62447228 5.47036870 0.07229353
v 8.24766914 6.63444777 0.07106937
v 9.62120914 5.47885923 0.26936656
v 8.34191944 6.59274063 0.27038124
v 9.62120914 5.47885923 0.07263345
v 8.34191944 6.59274063 0.07161877
v 9.60959848 5.49948701 0.26881128
v 8.43979411 6.54616835 0.26996194
v 9.60959848 5.49948701 0.07318873
v 8.43979411 6.54616835 0.07203807
v 9.46440663 5.73285313 0.26870701
v 8.53574510 6.49593216 0.26973055
v 9.46440663 5.73285313 0.07329300
v 8.53574510 6.49593216 0.07226946
v 9.44405062 5.76138044 0.26867078
v 8.62294168 6.45027802 0.26946322
v 9.44405062 5.76138044 0.07332923
v 8.62294168 6.45027802 0.07253679
v 9.41563398 5.79743472 0.26850140
v 8.69442762 6.40786570 0.26925486
v 9.41563398 5.79743472 0.07349861
v 8.69442762 6.40786570 0.07274515
v 9.38074128 5.84016408 0.26844532
v 8.99077249 6.21903556 0.26914943
v 9.38074128 5.84016408 0.07355469
v 8.99077249 6.21903556 0.07285058
v 9.34088137 5.88597065 0.26836006
v 9.01949283 6.20007030 0.26907339
v 9.34088137 5.88597065 0.07363995
v 9.01949283 6.20007030 0.07292662
v 9.29807771 5.93372796 0.26843104
v 9.04630412 6.18135682 0.26898508
v 9.29807771 5.93372796 0.07356897
v 9.04630412 6.18135682 0.07301493
v 9.23204316 6.00270749 0.26830662
v 9.09811058 6.13924093 0.26866992
v 9.23204316 6.00270749 0.07369339
v 9.09811058 6.13924093 0.07333009
v 9.18127153 6.05548122 0.26825770
v 9.11927461 6.11915276 0.26848254
v 9.18127153 6.05548122 0.07374231
v 9.11927461 6.11915276 0.07351747
f 1 2 5
f 1 5 3
f 1 3 7
f 1 7 11
f 1 11 15
f 1 15 19
f 1 19 23
f 1 23 27
f 1 27 31
f 1 31 35
f 1 35 39
f 1 39 43
f 1 43 47
f 1 47 51
f 1 51 55
f 1 55 56
f 1 56 52
f 1 52 48
f 1 48 44
f 1 44 40
f 1 40 36
f 1 36 32
f 1 32 28
f 1 28 24
f 1 24 20
f 1 20 16
f 1 16 12
f 1 12 8
f 1 8 4
f 1 4 6
f 1 6 2
f 2 6 10
f 2 10 14
f 2 14 18
f 2 18 22
f 2 22 26
f 2 26 30
f 2 30 34
f 2 34 38
f 2 38 42
f 2 42 46
f 2 46 50
f 2 50 54
f 2 54 58
f 2 58 57
f 2 57 53
f 2 53 49
f 2 49 45
f 2 45 41
f 2 41 37
f 2 37 33
f 2 33 29
f 2 29 25
f 2 25 21
f 2 21 17
f 2 17 13
f 2 13 9
f 2 9 5
f 3 5 9
f 3 9 7
f 4 8 10
f 4 10 6
f 7 9 13
f 7 13 11
f 8 12 14
f 8 14 10
f 11 13 17
f 11 17 15
f 12 16 18
f 12 18 14
f 15 17 21
f 15 21 19
f 16 20 22
f 16 22 18
f 19 21 25
f 19 25 23
f 20 24 26
f 20 26 22
f 23 25 29
f 23 29 27
f 24 28 30
f 24 30 26
f 27 29 33
f 27 33 31
f 28 32 34
f 28 34 30
f 31 33 37
f 31 37 35
f 32 36 38
f 32 38 34
f 35 37 41
f 35 41 39
f 36 40 42
f 36 42 38
f 39 41 45
f 39 45 43
f 40 44 46
f 40 46 42
f 43 45 49
f 43 49 47
f 44 48 50
f 44 50 46
f 47 49 53
f 47 53 51
f 48 52 54
f 48 54 50
f 51 53 57
f 51 57 55
f 52 56 58
f 52 58 54
f 55 57 58
f 55 58 56

