# https://github.com/mikedh/trimesh
v 1.81578765 8.48839426 0.05988861
v 2.35457176 8.49989685 0.06374054
v 1.81578765 8.48839426 0.28211140
v 1.96902979 9.31077250 0.06164552
v 2.35457176 8.49989685 0.27825947
v 2.38562403 8.60398907 0.07238450
v 1.96902979 9.31077250 0.28035449
v 2.44050601 9.31480865 0.06197308
v 2.38562403 8.60398907 0.26961551
v 2.43282767 8.82427834 0.07236431
v 2.44050601 9.31480865 0.28002693
v 2.43411092 9.29959693 0.06855731
v 2.43282767 8.82427834 0.26963570
v 2.45001817 9.05522674 0.07238972
v 2.43411092 9.29959693 0.27344270
v 2.45001817 9.05522674 0.26961029
f 1 2 5
f 1 5 3
f 1 3 7
f 1 7 4
f 1 4 8
f 1 8 12
f 1 12 14
f 1 14 10
f 1 10 6
f 1 6 2
f 2 6 9
f 2 9 5
f 3 5 9
f 3 9 13
f 3 13 16
f 3 16 15
f 3 15 11
f 3 11 7
f 4 7 11
f 4 11 8
f 6 10 13
f 6 13 9
f 8 11 15
f 8 15 12
f 10 14 16
f 10 16 13
f 12 15 16
f 12 16 14

