# https://github.com/mikedh/trimesh
v -0.75286195 0.22806916 0.06066627
v 0.84491306 0.22785297 0.06078084
v -0.75286195 0.22806916 0.28133374
v -0.74023109 1.36532222 0.06485581
v 0.84491306 0.22785297 0.28121917
v 0.83008722 1.01975254 0.07263500
v -0.74023109 1.36532222 0.27714420
v -0.05264134 1.85768833 0.06752650
v 0.83008722 1.01975254 0.26936501
v 0.73122636 1.87012186 0.06140349
v -0.05264134 1.85768833 0.27447351
v 0.73122636 1.87012186 0.28059652
f 1 2 5
f 1 5 3
f 1 3 7
f 1 7 4
f 1 4 8
f 1 8 10
f 1 10 6
f 1 6 2
f 2 6 9
f 2 9 5
f 3 5 9
f 3 9 12
f 3 12 11
f 3 11 7
f 4 7 11
f 4 11 8
f 6 10 12
f 6 12 9
f 8 11 12
f 8 12 10

