# https://github.com/mikedh/trimesh
v 0.00686147 4.52815344 0.07180713
v 0.01191753 4.51033359 0.06962069
v 0.00686147 4.52815344 0.27019288
v -0.04269492 5.40717806 0.01458821
v 0.01191753 4.51033359 0.27237932
v 0.34469469 3.47437353 0.06267037
v -0.04269492 5.40717806 0.32741180
v -0.10550502 5.36687745 0.01386035
v 0.34469469 3.47437353 0.27932964
v 0.77418820 3.44506232 0.06276933
v -0.10550502 5.36687745 0.32813966
v -0.05122725 5.29050386 0.06806200
v 0.77418820 3.44506232 0.27923068
v 0.75848919 3.44152611 0.03028467
v -0.05122725 5.29050386 0.27393801
v 0.22821541 4.91805303 0.07372729
v 0.75848919 3.44152611 0.31171534
v 0.73534267 3.58974612 0.07209152
v 0.22821541 4.91805303 0.26827272
v 0.25941445 4.87243796 0.07361605
v 0.73534267 3.58974612 0.26990849
v 0.71405581 3.70612135 0.07380768
v 0.25941445 4.87243796 0.26838396
v 0.28466475 4.83139158 0.07363024
v 0.71405581 3.70612135 0.26819233
v 0.69047125 3.81105260 0.07380802
v 0.28466475 4.83139158 0.26836977
v 0.30543048 4.79400094 0.07339782
v 0.69047125 3.81105260 0.26819199
v 0.66510220 3.90905696 0.07388741
v 0.30543048 4.79400094 0.26860219
v 0.45525953 4.47526087 0.07390912
v 0.66510220 3.90905696 0.26811260
v 0.63856523 4.00276697 0.07372137
v 0.45525953 4.47526087 0.26809089
v 0.49541895 4.38521513 0.07379749
v 0.63856523 4.00276697 0.26827864
v 0.60850215 4.09438994 0.07384053
v 0.49541895 4.38521513 0.26820252
v 0.53806380 4.28065620 0.07402709
v 0.60850215 4.09438994 0.26815948
v 0.57617204 4.18518427 0.07373149
v 0.53806380 4.28065620 0.26797292
v 0.57617204 4.18518427 0.26826852
f 1 2 5
f 1 5 3
f 1 3 7
f 1 7 4
f 1 4 8
f 1 8 12
f 1 12 16
f 1 16 20
f 1 20 24
f 1 24 28
f 1 28 32
f 1 32 36
f 1 36 40
f 1 40 42
f 1 42 38
f 1 38 34
f 1 34 30
f 1 30 26
f 1 26 22
f 1 22 18
f 1 18 14
f 1 14 10
f 1 10 6
f 1 6 2
f 2 6 9
f 2 9 5
f 3 5 9
f 3 9 13
f 3 13 17
f 3 17 21
f 3 21 25
f 3 25 29
f 3 29 33
f 3 33 37
f 3 37 41
f 3 41 44
f 3 44 43
f 3 43 39
f 3 39 35
f 3 35 31
f 3 31 27
f 3 27 23
f 3 23 19
f 3 19 15
f 3 15 11
f 3 11 7
f 4 7 11
f 4 11 8
f 6 10 13
f 6 13 9
f 8 11 15
f 8 15 12
f 10 14 17
f 10 17 13
f 12 15 19
f 12 19 16
f 14 18 21
f 14 21 17
f 16 19 23
f 16 23 20
f 18 22 25
f 18 25 21
f 20 23 27
f 20 27 24
f 22 26 29
f 22 29 25
f 24 27 31
f 24 31 28
f 26 30 33
f 26 33 29
f 28 31 35
f 28 35 32
f 30 34 37
f 30 37 33
f 32 35 39
f 32 39 36
f 34 38 41
f 34 41 37
f 36 39 43
f 36 43 40
f 38 42 44
f 38 44 41
f 40 43 44
f 40 44 42

