# https://github.com/mikedh/trimesh
v 8.01369876 -3.10186126 0.26996052
v 8.01374192 -3.10181938 0.07208579
v 7.98327198 -3.10346916 0.26975959
v 8.06149824 -3.10836953 0.27018867
v 7.98326743 -3.10343850 0.07227337
v 8.06150267 -3.10835304 0.07182946
v 7.94983299 -3.10846020 0.26934960
v 8.10473622 -3.12702003 0.27011615
v 7.94982835 -3.10844348 0.07266852
v 8.10474135 -3.12701323 0.07189283
v 7.91663493 -3.11810719 0.26907791
v 8.14663469 -3.15817091 0.26997933
v 7.91663043 -3.11809596 0.07293463
v 8.14663861 -3.15816762 0.07202605
v 7.88581919 -3.12989935 0.26889526
v 8.18389808 -3.19958963 0.27000221
v 7.88581511 -3.12989160 0.07311381
v 8.18390105 -3.19958795 0.07200140
v 7.85372484 -3.14718425 0.26860357
v 8.21190783 -3.24496610 0.27032296
v 7.85372085 -3.14717736 0.07340467
v 8.21191007 -3.24496540 0.07167954
v 7.51520265 -3.34196539 0.26834094
v 8.22787745 -3.29038041 0.27062607
v 7.51519945 -3.34196034 0.07366518
v 8.22787913 -3.29038029 0.07137575
v 7.46723518 -3.37123598 0.26830416
v 8.23181245 -3.33186321 0.27082458
v 7.46723217 -3.37123116 0.07370168
v 8.23181374 -3.33186342 0.07117683
v 6.72628565 -3.83195873 0.26839686
v 8.22465294 -3.37069384 0.27041846
v 6.72628347 -3.83195544 0.07360721
v 8.22465398 -3.37069427 0.07158274
v 6.64872041 -3.88169470 0.26848513
v 8.21336608 -3.39317081 0.26927450
v 6.64871853 -3.88169185 0.07351838
v 8.21336697 -3.39317138 0.07272662
v 6.57464748 -3.92936499 0.26860183
v 8.18997328 -3.42749651 0.26874053
v 6.57464597 -3.92936283 0.07340091
v 8.18997411 -3.42749718 0.07326057
v 6.43234296 -4.02639601 0.26894171
v 8.15965976 -3.46489032 0.26869212
v 6.43234183 -4.02639454 0.07306025
v 8.15966158 -3.46489131 0.07330994
v 6.29525698 -4.12430141 0.26949303
v 8.12414948 -3.50224313 0.26862687
v 6.29525639 -4.12430085 0.07250783
v 8.12416398 -3.50225027 0.07338881
v 6.23276601 -4.18235928 0.26963013
v 8.08806407 -3.53534301 0.26893195
v 6.23276562 -4.18235902 0.07237039
v 8.08832509 -3.53527076 0.07318628
v 6.17500217 -4.25855127 0.26933590
v 6.52576748 -4.95625345 0.30023945
v 6.49186377 -4.85857646 0.44384971
v 6.17500185 -4.25855109 0.07266448
v 6.46733949 -4.79286818 0.06776460
v 6.12236082 -4.35416426 0.26896848
v 5.98124779 -4.91488954 0.30903895
v 6.12236053 -4.35416415 0.07303183
v 5.87649228 -4.82806172 -0.03750698
v 6.07586908 -4.46527995 0.26883300
v 5.87742915 -4.82776815 0.37972606
v 6.07586889 -4.46527994 0.07316720
v 5.94785391 -4.92843465 -0.01925805
v 6.03749924 -4.58797188 0.26922617
v 5.94636772 -4.92924039 0.36006303
v 6.03750223 -4.58797568 0.07276973
v 6.01200004 -4.73044910 0.06617903
v 6.01193957 -4.73041677 0.27572433
f 1 2 5
f 1 5 3
f 1 3 7
f 1 7 11
f 1 11 15
f 1 15 19
f 1 19 23
f 1 23 27
f 1 27 31
f 1 31 35
f 1 35 39
f 1 39 43
f 1 43 47
f 1 47 51
f 1 51 55
f 1 55 60
f 1 60 64
f 1 64 68
f 1 68 72
f 1 72 69
f 1 69 65
f 1 65 61
f 1 61 56
f 1 56 52
f 1 52 48
f 1 48 44
f 1 44 40
f 1 40 36
f 1 36 32
f 1 32 28
f 1 28 24
f 1 24 20
f 1 20 16
f 1 16 12
f 1 12 8
f 1 8 4
f 1 4 6
f 1 6 2
f 2 6 10
f 2 10 14
f 2 14 18
f 2 18 22
f 2 22 26
f 2 26 30
f 2 30 34
f 2 34 38
f 2 38 42
f 2 42 46
f 2 46 50
f 2 50 54
f 2 54 59
f 2 59 63
f 2 63 67
f 2 67 71
f 2 71 70
f 2 70 66
f 2 66 62
f 2 62 58
f 2 58 53
f 2 53 49
f 2 49 45
f 2 45 41
f 2 41 37
f 2 37 33
f 2 33 29
f 2 29 25
f 2 25 21
f 2 21 17
f 2 17 13
f 2 13 9
f 2 9 5
f 3 5 9
f 3 9 7
f 4 8 10
f 4 10 6
f 7 9 13
f 7 13 11
f 8 12 14
f 8 14 10
f 11 13 17
f 11 17 15
f 12 16 18
f 12 18 14
f 15 17 21
f 15 21 19
f 16 20 22
f 16 22 18
f 19 21 25
f 19 25 23
f 20 24 26
f 20 26 22
f 23 25 29
f 23 29 27
f 24 28 30
f 24 30 26
f 27 29 33
f 27 33 31
f 28 32 34
f 28 34 30
f 31 33 37
f 31 37 35
f 32 36 38
f 32 38 34
f 35 37 41
f 35 41 39
f 36 40 42
f 36 42 38
f 39 41 45
f 39 45 43
f 40 44 46
f 40 46 42
f 43 45 49
f 43 49 47
f 44 48 50
f 44 50 46
f 47 49 53
f 47 53 51
f 48 52 54
f 48 54 50
f 51 53 58
f 51 58 55
f 52 56 57
f 52 57 59
f 52 59 54
f 55 58 62
f 55 62 60
f 56 61 57
f 57 61 65
f 57 65 63
f 57 63 59
f 60 62 66
f 60 66 64
f 63 65 69
f 63 69 67
f 64 66 70
f 64 70 68
f 67 69 72
f 67 72 71
f 68 70 71
f 68 71 72

