# https://github.com/mikedh/trimesh
v 5.04632155 4.71582221 0.05730987
v 5.04632155 4.71582221 0.28469014
v 5.09095475 5.80996662 0.06745985
v 6.17355599 6.13003298 0.06622003
v 6.17355599 6.13003298 0.27577998
v 5.09095475 5.80996662 0.27454016
v 5.21669649 5.95576181 0.07267240
v 6.21532853 6.69781650 0.01336597
v 6.21532853 6.69781650 0.32863404
v 5.21669649 5.95576181 0.26932761
v 5.43567781 6.16015686 0.07272121
v 6.26388497 6.64580360 0.01760148
v 6.26388497 6.64580360 0.32439853
v 5.43567781 6.16015686 0.26927880
v 5.67334142 6.33696597 0.07315922
v 6.15092955 6.59350172 0.06971684
v 6.15092955 6.59350172 0.27228317
v 5.67334142 6.33696597 0.26884079
v 5.76573548 6.39432854 0.07380871
v 6.08510328 6.56678978 0.07321916
v 6.08510328 6.56678978 0.26878085
v 5.76573548 6.39432854 0.26819130
v 5.80876780 6.41985419 0.07382236
v 5.88124459 6.46038712 0.07382204
v 5.88124459 6.46038712 0.26817797
v 5.80876780 6.41985419 0.26817765
v 5.84743976 6.44206995 0.07378059
v 5.84743976 6.44206995 0.26821942
f 1 2 6
f 1 6 3
f 1 3 7
f 1 7 11
f 1 11 15
f 1 15 19
f 1 19 23
f 1 23 27
f 1 27 24
f 1 24 20
f 1 20 16
f 1 16 12
f 1 12 8
f 1 8 4
f 1 4 5
f 1 5 2
f 2 5 9
f 2 9 13
f 2 13 17
f 2 17 21
f 2 21 25
f 2 25 28
f 2 28 26
f 2 26 22
f 2 22 18
f 2 18 14
f 2 14 10
f 2 10 6
f 3 6 10
f 3 10 7
f 4 8 9
f 4 9 5
f 7 10 14
f 7 14 11
f 8 12 13
f 8 13 9
f 11 14 18
f 11 18 15
f 12 16 17
f 12 17 13
f 15 18 22
f 15 22 19
f 16 20 21
f 16 21 17
f 19 22 26
f 19 26 23
f 20 24 25
f 20 25 21
f 23 26 28
f 23 28 27
f 24 27 28
f 24 28 25

