# https://github.com/mikedh/trimesh
v -5.28114611 -7.30742143 0.05796130
v -5.06855022 -7.16730791 0.03794306
v -5.28114611 -7.30742143 0.28403871
v -5.24613102 -6.61607247 0.06773600
v -5.05820052 -7.11983443 0.03760761
v -5.06855022 -7.16730791 0.30405695
v -5.24613102 -6.61607247 0.27426401
v -4.63331678 -5.67328038 0.06440400
v -5.05820052 -7.11983443 0.30439240
v -5.01984706 -7.07221029 0.06476515
v -4.63331678 -5.67328038 0.27759601
v -4.11623465 -5.63930085 0.06209730
v -5.01984706 -7.07221029 0.27723486
v -4.98690707 -7.04698160 0.06906623
v -4.11623465 -5.63930085 0.27990271
v -4.13464272 -5.64226670 0.02052284
v -4.98690707 -7.04698160 0.27293378
v -4.95683226 -7.01997853 0.07006004
v -4.13464272 -5.64226670 0.32147717
v -4.18358928 -5.80557694 0.07013688
v -4.95683226 -7.01997853 0.27193997
v -4.83915106 -6.89703078 0.07065584
v -4.18358928 -5.80557694 0.27186313
v -4.22559505 -5.93393342 0.07329752
v -4.83915106 -6.89703078 0.27134417
v -4.77435443 -6.82876769 0.07105492
v -4.22559505 -5.93393342 0.26870249
v -4.27066776 -6.05292388 0.07341057
v -4.77435443 -6.82876769 0.27094509
v -4.69029732 -6.73854057 0.07175621
v -4.27066776 -6.05292388 0.26858944
v -4.31572162 -6.16064997 0.07336587
v -4.69029732 -6.73854057 0.27024380
v -4.66876763 -6.71557643 0.07204655
v -4.31572162 -6.16064997 0.26863414
v -4.35955460 -6.25635187 0.07309932
v -4.66876763 -6.71557643 0.26995346
v -4.64899545 -6.69326080 0.07227777
v -4.35955460 -6.25635187 0.26890069
v -4.40369167 -6.33865496 0.07302471
v -4.64899545 -6.69326080 0.26972224
v -4.63153217 -6.67220584 0.07243167
v -4.40369167 -6.33865496 0.26897530
v -4.44458366 -6.40772387 0.07276329
v -4.63153217 -6.67220584 0.26956834
v -4.61719257 -6.65359593 0.07251248
v -4.44458366 -6.40772387 0.26923672
v -4.61719257 -6.65359593 0.26948753
f 1 2 6
f 1 6 3
f 1 3 7
f 1 7 4
f 1 4 8
f 1 8 12
f 1 12 16
f 1 16 20
f 1 20 24
f 1 24 28
f 1 28 32
f 1 32 36
f 1 36 40
f 1 40 44
f 1 44 46
f 1 46 42
f 1 42 38
f 1 38 34
f 1 34 30
f 1 30 26
f 1 26 22
f 1 22 18
f 1 18 14
f 1 14 10
f 1 10 5
f 1 5 2
f 2 5 9
f 2 9 6
f 3 6 9
f 3 9 13
f 3 13 17
f 3 17 21
f 3 21 25
f 3 25 29
f 3 29 33
f 3 33 37
f 3 37 41
f 3 41 45
f 3 45 48
f 3 48 47
f 3 47 43
f 3 43 39
f 3 39 35
f 3 35 31
f 3 31 27
f 3 27 23
f 3 23 19
f 3 19 15
f 3 15 11
f 3 11 7
f 4 7 11
f 4 11 8
f 5 10 13
f 5 13 9
f 8 11 15
f 8 15 12
f 10 14 17
f 10 17 13
f 12 15 19
f 12 19 16
f 14 18 21
f 14 21 17
f 16 19 23
f 16 23 20
f 18 22 25
f 18 25 21
f 20 23 27
f 20 27 24
f 22 26 29
f 22 29 25
f 24 27 31
f 24 31 28
f 26 30 33
f 26 33 29
f 28 31 35
f 28 35 32
f 30 34 37
f 30 37 33
f 32 35 39
f 32 39 36
f 34 38 41
f 34 41 37
f 36 39 43
f 36 43 40
f 38 42 45
f 38 45 41
f 40 43 47
f 40 47 44
f 42 46 48
f 42 48 45
f 44 47 48
f 44 48 46

