# https://github.com/mikedh/trimesh
v 7.29897457 6.82794813 0.26910568
v 7.48011244 6.81564778 0.34392333
v 7.29897457 6.82794813 0.07289433
v 7.12559298 6.82825269 0.26876395
v 7.48011244 6.81564778 -0.00192332
v 7.64752594 6.83012728 0.29479123
v 7.12559298 6.82825269 0.07323606
v 6.96576830 6.81775032 0.26864100
v 7.64752594 6.83012728 0.04720878
v 7.64246952 6.82423969 0.28267200
v 6.96576830 6.81775032 0.07335901
v 6.82465004 6.79494071 0.26840880
v 7.64246952 6.82423969 0.05932801
v 7.65073358 6.32729882 0.28050427
v 6.82465004 6.79494071 0.07359121
v 6.69294061 6.76463251 0.26844368
v 7.65073358 6.32729882 0.06149574
v 6.30721058 6.16548706 0.28187384
v 6.69294061 6.76463251 0.07355633
v 6.56440927 6.72965121 0.27014567
v 6.30721058 6.16548706 0.06012617
v 6.31320876 6.65830258 0.27962529
v 6.56440927 6.72965121 0.07185434
v 6.44271864 6.68640412 0.28314517
v 6.31320876 6.65830258 0.06237472
v 6.33859334 6.67521895 0.32491143
v 6.44271864 6.68640412 0.05885484
v 6.33859334 6.67521895 0.01708858
f 1 2 5
f 1 5 3
f 1 3 7
f 1 7 4
f 1 4 8
f 1 8 12
f 1 12 16
f 1 16 20
f 1 20 24
f 1 24 26
f 1 26 22
f 1 22 18
f 1 18 14
f 1 14 10
f 1 10 6
f 1 6 2
f 2 6 9
f 2 9 5
f 3 5 9
f 3 9 13
f 3 13 17
f 3 17 21
f 3 21 25
f 3 25 28
f 3 28 27
f 3 27 23
f 3 23 19
f 3 19 15
f 3 15 11
f 3 11 7
f 4 7 11
f 4 11 8
f 6 10 13
f 6 13 9
f 8 11 15
f 8 15 12
f 10 14 17
f 10 17 13
f 12 15 19
f 12 19 16
f 14 18 21
f 14 21 17
f 16 19 23
f 16 23 20
f 18 22 25
f 18 25 21
f 20 23 27
f 20 27 24
f 22 26 28
f 22 28 25
f 24 27 28
f 24 28 26

