# https://github.com/mikedh/trimesh
v -2.38025529 7.13137596 0.05756922
v -2.35914324 7.07151504 0.03840793
v -2.38025529 7.13137596 0.28443079
v -1.85298736 7.10479031 0.06587103
v -2.35914324 7.07151504 0.30359208
v -2.30177127 6.99250060 0.03760369
v -1.85298736 7.10479031 0.27612898
v -0.13942346 5.41139649 0.03441890
v -2.30177127 6.99250060 0.30439632
v -2.22730273 6.90803873 0.01654109
v -0.13942346 5.41139649 0.30758111
v -0.14459664 5.40130064 0.06306517
v -2.22730273 6.90803873 0.32545892
v -2.11045631 6.73447153 0.06817519
v -0.14459664 5.40130064 0.27893484
v -0.09936840 4.50121077 -0.00700091
v -2.11045631 6.73447153 0.27382482
v -2.04351326 6.63585597 0.07056643
v -0.09936840 4.50121077 0.34900092
v -0.03522307 4.57076025 -0.00921280
v -2.04351326 6.63585597 0.27143358
v -1.94617194 6.51112188 0.07150675
v -0.03522307 4.57076025 0.35121281
v -0.06170741 4.61025385 0.04317962
v -1.94617194 6.51112188 0.27049326
v -1.83005364 6.37329799 0.07201006
v -0.06170741 4.61025385 0.29882039
v -0.07376237 4.61557828 0.05404617
v -1.83005364 6.37329799 0.26998995
v -1.71070223 6.23792938 0.07238948
v -0.07376237 4.61557828 0.28795384
v -1.60141738 6.12336693 0.07236701
v -1.71070223 6.23792938 0.26961053
v -1.60141738 6.12336693 0.26963300
f 1 2 5
f 1 5 3
f 1 3 7
f 1 7 4
f 1 4 8
f 1 8 12
f 1 12 16
f 1 16 20
f 1 20 24
f 1 24 28
f 1 28 32
f 1 32 30
f 1 30 26
f 1 26 22
f 1 22 18
f 1 18 14
f 1 14 10
f 1 10 6
f 1 6 2
f 2 6 9
f 2 9 5
f 3 5 9
f 3 9 13
f 3 13 17
f 3 17 21
f 3 21 25
f 3 25 29
f 3 29 33
f 3 33 34
f 3 34 31
f 3 31 27
f 3 27 23
f 3 23 19
f 3 19 15
f 3 15 11
f 3 11 7
f 4 7 11
f 4 11 8
f 6 10 13
f 6 13 9
f 8 11 15
f 8 15 12
f 10 14 17
f 10 17 13
f 12 15 19
f 12 19 16
f 14 18 21
f 14 21 17
f 16 19 23
f 16 23 20
f 18 22 25
f 18 25 21
f 20 23 27
f 20 27 24
f 22 26 29
f 22 29 25
f 24 27 31
f 24 31 28
f 26 30 33
f 26 33 29
f 28 31 34
f 28 34 32
f 30 32 34
f 30 34 33

