# https://github.com/mikedh/trimesh
v -3.22827446 0.18930569 0.01280290
v -3.22827446 0.18930569 0.32919711
v -3.13888886 0.12792290 -0.06283759
v -2.56840721 0.23728649 0.06253486
v -2.56840721 0.23728649 0.27946515
v -3.13888886 0.12792290 0.40483760
v -3.08337321 0.30375277 -0.04823527
v -2.06659547 1.40869876 0.06893696
v -2.06659547 1.40869876 0.27306305
v -3.08337321 0.30375277 0.39023528
v -3.06560529 0.42702699 -0.02720474
v -2.05019501 1.87368838 0.06042909
v -2.05019501 1.87368838 0.28157092
v -3.06560529 0.42702699 0.36920475
v -3.04605808 0.53550720 -0.01527055
v -2.67038305 1.86508303 0.06247384
v -2.67038305 1.86508303 0.27952617
v -3.04605808 0.53550720 0.35727056
v -3.00044316 0.93349201 -0.01469148
v -2.96131894 1.03696685 0.06517555
v -2.96131894 1.03696685 0.27682446
v -3.00044316 0.93349201 0.35669149
v -3.00042809 0.97966294 0.02278095
v -2.97039566 1.01551561 0.04106341
v -2.97039566 1.01551561 0.30093660
v -3.00042809 0.97966294 0.31921906
v -2.99657411 0.98721685 0.03688248
v -2.99657411 0.98721685 0.30511753
f 1 2 6
f 1 6 3
f 1 3 7
f 1 7 11
f 1 11 15
f 1 15 19
f 1 19 23
f 1 23 27
f 1 27 24
f 1 24 20
f 1 20 16
f 1 16 12
f 1 12 8
f 1 8 4
f 1 4 5
f 1 5 2
f 2 5 9
f 2 9 13
f 2 13 17
f 2 17 21
f 2 21 25
f 2 25 28
f 2 28 26
f 2 26 22
f 2 22 18
f 2 18 14
f 2 14 10
f 2 10 6
f 3 6 10
f 3 10 7
f 4 8 9
f 4 9 5
f 7 10 14
f 7 14 11
f 8 12 13
f 8 13 9
f 11 14 18
f 11 18 15
f 12 16 17
f 12 17 13
f 15 18 22
f 15 22 19
f 16 20 21
f 16 21 17
f 19 22 26
f 19 26 23
f 20 24 25
f 20 25 21
f 23 26 28
f 23 28 27
f 24 27 28
f 24 28 25

