# https://github.com/mikedh/trimesh
v -4.05255263 2.89620214 0.26860477
v -4.05255263 2.89620214 0.07339524
v -4.07554795 2.90691578 0.27886591
v -3.89107449 2.89165683 0.26832105
v -4.07554795 2.90691578 0.06313410
v -3.89107449 2.89165683 0.07367896
v -4.06354968 2.40306322 0.27920631
v -3.74380002 2.88290083 0.26822398
v -4.06354968 2.40306322 0.06279370
v -3.74380002 2.88290083 0.07377603
v -2.70730807 2.01081004 0.27127154
v -3.66785429 2.87510160 0.26820739
v -2.70730807 2.01081004 0.07072847
v -3.66785429 2.87510160 0.07379262
v -2.17338011 1.99487684 0.28131709
v -3.52415124 2.85825990 0.26825881
v -2.17338011 1.99487684 0.06068292
v -3.52415124 2.85825990 0.07374120
v -2.18201413 2.43621177 0.27899688
v -3.40887629 2.84241672 0.26830295
v -2.18201413 2.43621177 0.06300313
v -3.40887629 2.84241672 0.07369706
v -2.72286173 2.64158904 0.26925554
v -3.36901301 2.83595238 0.26831701
v -2.72286173 2.64158904 0.07274447
v -3.36901301 2.83595238 0.07368300
v -2.76371134 2.65775764 0.26874520
v -3.34204843 2.82987837 0.26829449
v -2.76371134 2.65775764 0.07325481
v -3.34204843 2.82987837 0.07370552
v -2.80820551 2.67363690 0.26836490
v -2.95933297 2.72299359 0.26808548
v -2.80820551 2.67363690 0.07363511
v -2.95933297 2.72299359 0.07391453
v -2.85715225 2.69046883 0.26813722
v -2.85715225 2.69046883 0.07386279
f 1 2 5
f 1 5 3
f 1 3 7
f 1 7 11
f 1 11 15
f 1 15 19
f 1 19 23
f 1 23 27
f 1 27 31
f 1 31 35
f 1 35 32
f 1 32 28
f 1 28 24
f 1 24 20
f 1 20 16
f 1 16 12
f 1 12 8
f 1 8 4
f 1 4 6
f 1 6 2
f 2 6 10
f 2 10 14
f 2 14 18
f 2 18 22
f 2 22 26
f 2 26 30
f 2 30 34
f 2 34 36
f 2 36 33
f 2 33 29
f 2 29 25
f 2 25 21
f 2 21 17
f 2 17 13
f 2 13 9
f 2 9 5
f 3 5 9
f 3 9 7
f 4 8 10
f 4 10 6
f 7 9 13
f 7 13 11
f 8 12 14
f 8 14 10
f 11 13 17
f 11 17 15
f 12 16 18
f 12 18 14
f 15 17 21
f 15 21 19
f 16 20 22
f 16 22 18
f 19 21 25
f 19 25 23
f 20 24 26
f 20 26 22
f 23 25 29
f 23 29 27
f 24 28 30
f 24 30 26
f 27 29 33
f 27 33 31
f 28 32 34
f 28 34 30
f 31 33 36
f 31 36 35
f 32 35 36
f 32 36 34

