# https://github.com/mikedh/trimesh
v -3.36885408 -2.08133865 0.05734631
v -3.36885408 -2.08133865 0.28465370
v -3.32275995 -1.16738471 0.07006416
v -2.93934678 -1.54928251 0.06640320
v -2.93934678 -1.54928251 0.27559681
v -3.32275995 -1.16738471 0.27193585
v -3.09712607 0.10238534 0.06164669
v -2.92367521 0.10663078 0.06059405
v -2.92367521 0.10663078 0.28140596
v -3.09712607 0.10238534 0.28035332
f 1 2 6
f 1 6 3
f 1 3 7
f 1 7 8
f 1 8 4
f 1 4 5
f 1 5 2
f 2 5 9
f 2 9 10
f 2 10 6
f 3 6 10
f 3 10 7
f 4 8 9
f 4 9 5
f 7 10 9
f 7 9 8

