# https://github.com/mikedh/trimesh
v -4.60964186 -5.54316100 0.06028349
v -4.09777991 -5.53824666 0.06446754
v -4.60964186 -5.54316100 0.28171652
v -4.39467391 -3.51896079 0.04902867
v -4.09702335 -5.50639661 0.07336369
v -4.09777991 -5.53824666 0.27753247
v -4.39467391 -3.51896079 0.29297134
v -4.35301180 -3.38947964 0.07279205
v -4.09702335 -5.50639661 0.26863632
v -4.06140163 -5.33088739 0.07363345
v -4.35301180 -3.38947964 0.26920796
v -4.33444498 -3.27193479 0.07293953
v -4.06140163 -5.33088739 0.26836656
v -3.47974039 -2.15417831 0.06820449
v -4.33444498 -3.27193479 0.26906048
v -4.31204730 -3.15507029 0.07316359
v -3.47974039 -2.15417831 0.27379552
v -3.42523438 -1.11704192 -0.03168832
v -4.31204730 -3.15507029 0.26883642
v -4.28354196 -3.02688775 0.07329208
v -3.42523438 -1.11704192 0.37368833
v -3.33726926 -1.19306528 -0.02901245
v -4.28354196 -3.02688775 0.26870793
v -4.23797842 -2.84141317 0.07334869
v -3.33726926 -1.19306528 0.37101246
v -3.45430798 -1.34089708 0.06124836
v -4.23797842 -2.84141317 0.26865132
v -4.19458282 -2.67836395 0.07335426
v -3.45430798 -1.34089708 0.28075165
v -3.54501489 -1.43071366 0.07252867
v -4.19458282 -2.67836395 0.26864575
v -4.14950487 -2.53239920 0.07341543
v -3.54501489 -1.43071366 0.26947134
v -3.61172476 -1.51067339 0.07350530
v -4.14950487 -2.53239920 0.26858458
v -4.10258359 -2.39842206 0.07341961
v -3.61172476 -1.51067339 0.26849471
v -3.66865247 -1.58780039 0.07359715
v -4.10258359 -2.39842206 0.26858040
v -4.05192868 -2.27268676 0.07347622
v -3.66865247 -1.58780039 0.26840286
v -3.72481449 -1.67111353 0.07355889
v -4.05192868 -2.27268676 0.26852379
v -3.99444239 -2.14858485 0.07361171
v -3.72481449 -1.67111353 0.26844112
v -3.78382866 -1.76822578 0.07383760
v -3.99444239 -2.14858485 0.26838830
v -3.92987192 -2.02120444 0.07362651
v -3.78382866 -1.76822578 0.26816241
v -3.85524330 -1.88811832 0.07380479
v -3.92987192 -2.02120444 0.26837350
v -3.85524330 -1.88811832 0.26819522
f 1 2 6
f 1 6 3
f 1 3 7
f 1 7 4
f 1 4 8
f 1 8 12
f 1 12 16
f 1 16 20
f 1 20 24
f 1 24 28
f 1 28 32
f 1 32 36
f 1 36 40
f 1 40 44
f 1 44 48
f 1 48 50
f 1 50 46
f 1 46 42
f 1 42 38
f 1 38 34
f 1 34 30
f 1 30 26
f 1 26 22
f 1 22 18
f 1 18 14
f 1 14 10
f 1 10 5
f 1 5 2
f 2 5 9
f 2 9 6
f 3 6 9
f 3 9 13
f 3 13 17
f 3 17 21
f 3 21 25
f 3 25 29
f 3 29 33
f 3 33 37
f 3 37 41
f 3 41 45
f 3 45 49
f 3 49 52
f 3 52 51
f 3 51 47
f 3 47 43
f 3 43 39
f 3 39 35
f 3 35 31
f 3 31 27
f 3 27 23
f 3 23 19
f 3 19 15
f 3 15 11
f 3 11 7
f 4 7 11
f 4 11 8
f 5 10 13
f 5 13 9
f 8 11 15
f 8 15 12
f 10 14 17
f 10 17 13
f 12 15 19
f 12 19 16
f 14 18 21
f 14 21 17
f 16 19 23
f 16 23 20
f 18 22 25
f 18 25 21
f 20 23 27
f 20 27 24
f 22 26 29
f 22 29 25
f 24 27 31
f 24 31 28
f 26 30 33
f 26 33 29
f 28 31 35
f 28 35 32
f 30 34 37
f 30 37 33
f 32 35 39
f 32 39 36
f 34 38 41
f 34 41 37
f 36 39 43
f 36 43 40
f 38 42 45
f 38 45 41
f 40 43 47
f 40 47 44
f 42 46 49
f 42 49 45
f 44 47 51
f 44 51 48
f 46 50 52
f 46 52 49
f 48 51 52
f 48 52 50

