# https://github.com/mikedh/trimesh
v -9.45733360 3.24434036 0.27450983
v -9.45733360 3.24434036 0.06749018
v -10.01240048 3.28819386 0.28036893
v -8.36004141 2.34777451 0.27672262
v -10.01240048 3.28819386 0.06163108
v -8.36004141 2.34777451 0.06527739
v -9.99972385 3.30460444 0.27825972
v -8.32517938 1.80885993 0.30131706
v -9.99972385 3.30460444 0.06374029
v -8.32517938 1.80885993 0.04068295
v -9.94489394 3.20589745 0.26846924
v -8.29316890 1.84014188 0.32422858
v -9.94489394 3.20589745 0.07353077
v -8.29316890 1.84014188 0.01777143
v -9.90742857 3.14350635 0.26850385
v -8.44829811 1.89639645 0.27046367
v -9.90742857 3.14350635 0.07349616
v -8.44829811 1.89639645 0.07153634
v -9.75300147 2.91233171 0.26826536
v -8.57234586 1.94025124 0.26815994
v -9.75300147 2.91233171 0.07373465
v -8.57234586 1.94025124 0.07384007
v -9.72360105 2.87040700 0.26865136
v -8.68028778 1.98255334 0.26832539
v -9.72360105 2.87040700 0.07334865
v -8.68028778 1.98255334 0.07367462
v -9.68809666 2.82599370 0.26834941
v -8.76490994 2.02016861 0.26874418
v -9.68809666 2.82599370 0.07365060
v -8.76490994 2.02016861 0.07325583
v -9.65100266 2.78249043 0.26851847
v -8.81705899 2.04891224 0.26952049
v -9.65100266 2.78249043 0.07348154
v -8.81705899 2.04891224 0.07247952
v -9.61427478 2.74364773 0.26829591
v -9.21637256 2.36829370 0.26826388
v -9.61427478 2.74364773 0.07370410
v -9.21637256 2.36829370 0.07373613
v -9.41943030 2.54984178 0.26817232
v -9.29562933 2.43492391 0.26831887
v -9.41943030 2.54984178 0.07382769
v -9.29562933 2.43492391 0.07368114
v -9.36469412 2.49717341 0.26832825
v -9.36469412 2.49717341 0.07367176
f 1 2 5
f 1 5 3
f 1 3 7
f 1 7 11
f 1 11 15
f 1 15 19
f 1 19 23
f 1 23 27
f 1 27 31
f 1 31 35
f 1 35 39
f 1 39 43
f 1 43 40
f 1 40 36
f 1 36 32
f 1 32 28
f 1 28 24
f 1 24 20
f 1 20 16
f 1 16 12
f 1 12 8
f 1 8 4
f 1 4 6
f 1 6 2
f 2 6 10
f 2 10 14
f 2 14 18
f 2 18 22
f 2 22 26
f 2 26 30
f 2 30 34
f 2 34 38
f 2 38 42
f 2 42 44
f 2 44 41
f 2 41 37
f 2 37 33
f 2 33 29
f 2 29 25
f 2 25 21
f 2 21 17
f 2 17 13
f 2 13 9
f 2 9 5
f 3 5 9
f 3 9 7
f 4 8 10
f 4 10 6
f 7 9 13
f 7 13 11
f 8 12 14
f 8 14 10
f 11 13 17
f 11 17 15
f 12 16 18
f 12 18 14
f 15 17 21
f 15 21 19
f 16 20 22
f 16 22 18
f 19 21 25
f 19 25 23
f 20 24 26
f 20 26 22
f 23 25 29
f 23 29 27
f 24 28 30
f 24 30 26
f 27 29 33
f 27 33 31
f 28 32 34
f 28 34 30
f 31 33 37
f 31 37 35
f 32 36 38
f 32 38 34
f 35 37 41
f 35 41 39
f 36 40 42
f 36 42 38
f 39 41 44
f 39 44 43
f 40 43 44
f 40 44 42

