# https://github.com/mikedh/trimesh
v -7.71296494 4.15623545 0.07143090
v -7.70917447 4.11230533 0.07180526
v -7.71296494 4.15623545 0.27056911
v -7.70664274 4.19450619 0.07172745
v -7.70917447 4.11230533 0.27019475
v -7.69435530 4.05263427 0.07210920
v -7.70664274 4.19450619 0.27027256
v -7.68493955 4.24129225 0.07229869
v -7.69435530 4.05263427 0.26989081
v -7.67938254 4.00612515 0.07213674
v -7.68493955 4.24129225 0.26970132
v -7.63599639 4.31078261 0.07282276
v -7.67938254 4.00612515 0.26986327
v -7.66037195 3.96935073 0.07221825
v -7.63599639 4.31078261 0.26917725
v -6.33612039 6.12597032 0.06482855
v -7.66037195 3.96935073 0.26978176
v -7.63667352 3.93797304 0.07227664
v -6.33612039 6.12597032 0.27717146
v -5.84282329 6.14345548 0.06138720
v -7.63667352 3.93797304 0.26972337
v -7.60911401 3.91127234 0.07222337
v -5.84282329 6.14345548 0.28061281
v -5.85313236 6.14312846 0.06531708
v -7.60911401 3.91127234 0.26977664
v -7.58013279 3.89084798 0.07213989
v -5.85313236 6.14312846 0.27668293
v -5.84509235 6.02795576 0.07342923
v -7.58013279 3.89084798 0.26986012
v -7.54808273 3.87638249 0.07229539
v -5.84509235 6.02795576 0.26857078
v -5.84472936 5.92163286 0.07380182
v -7.54808273 3.87638249 0.26970462
v -7.51185480 3.86654516 0.07227171
v -5.84472936 5.92163286 0.26819819
v -5.85103662 5.74221692 0.07318847
v -7.51185480 3.86654516 0.26972830
v -7.47197272 3.86333949 0.07254829
v -5.85103662 5.74221692 0.26881154
v -5.87028850 5.59416840 0.07264611
v -7.47197272 3.86333949 0.26945172
v -7.45045284 3.86430964 0.07227809
v -5.87028850 5.59416840 0.26935390
v -5.90625823 5.46496673 0.07228157
v -7.45045284 3.86430964 0.26972192
v -7.43455456 3.86736662 0.07212924
v -5.90625823 5.46496673 0.26971844
v -5.96479093 5.34236835 0.07238216
v -7.43455456 3.86736662 0.26987077
v -7.41665979 3.87487795 0.07258472
v -5.96479093 5.34236835 0.26961785
v -6.05455869 5.21194939 0.07278779
v -7.41665979 3.87487795 0.26941529
v -7.39189169 3.88960658 0.07290195
v -6.05455869 5.21194939 0.26921222
v -6.18484010 5.06257788 0.07332288
v -7.39189169 3.88960658 0.26909806
v -7.35852653 3.91533679 0.07352340
v -6.18484010 5.06257788 0.26867713
v -6.36046648 4.88540384 0.07393767
v -7.35852653 3.91533679 0.26847661
v -7.31526541 3.95275582 0.07354980
v -6.36046648 4.88540384 0.26806234
v -6.85186021 4.39975537 0.07402117
v -7.31526541 3.95275582 0.26845021
v -6.85186021 4.39975537 0.26797884
f 1 2 5
f 1 5 3
f 1 3 7
f 1 7 4
f 1 4 8
f 1 8 12
f 1 12 16
f 1 16 20
f 1 20 24
f 1 24 28
f 1 28 32
f 1 32 36
f 1 36 40
f 1 40 44
f 1 44 48
f 1 48 52
f 1 52 56
f 1 56 60
f 1 60 64
f 1 64 62
f 1 62 58
f 1 58 54
f 1 54 50
f 1 50 46
f 1 46 42
f 1 42 38
f 1 38 34
f 1 34 30
f 1 30 26
f 1 26 22
f 1 22 18
f 1 18 14
f 1 14 10
f 1 10 6
f 1 6 2
f 2 6 9
f 2 9 5
f 3 5 9
f 3 9 13
f 3 13 17
f 3 17 21
f 3 21 25
f 3 25 29
f 3 29 33
f 3 33 37
f 3 37 41
f 3 41 45
f 3 45 49
f 3 49 53
f 3 53 57
f 3 57 61
f 3 61 65
f 3 65 66
f 3 66 63
f 3 63 59
f 3 59 55
f 3 55 51
f 3 51 47
f 3 47 43
f 3 43 39
f 3 39 35
f 3 35 31
f 3 31 27
f 3 27 23
f 3 23 19
f 3 19 15
f 3 15 11
f 3 11 7
f 4 7 11
f 4 11 8
f 6 10 13
f 6 13 9
f 8 11 15
f 8 15 12
f 10 14 17
f 10 17 13
f 12 15 19
f 12 19 16
f 14 18 21
f 14 21 17
f 16 19 23
f 16 23 20
f 18 22 25
f 18 25 21
f 20 23 27
f 20 27 24
f 22 26 29
f 22 29 25
f 24 27 31
f 24 31 28
f 26 30 33
f 26 33 29
f 28 31 35
f 28 35 32
f 30 34 37
f 30 37 33
f 32 35 39
f 32 39 36
f 34 38 41
f 34 41 37
f 36 39 43
f 36 43 40
f 38 42 45
f 38 45 41
f 40 43 47
f 40 47 44
f 42 46 49
f 42 49 45
f 44 47 51
f 44 51 48
f 46 50 53
f 46 53 49
f 48 51 55
f 48 55 52
f 50 54 57
f 50 57 53
f 52 55 59
f 52 59 56
f 54 58 61
f 54 61 57
f 56 59 63
f 56 63 60
f 58 62 65
f 58 65 61
f 60 63 66
f 60 66 64
f 62 64 66
f 62 66 65

