# https://github.com/mikedh/trimesh
v 2.32266304 1.85757482 0.27403334
v 2.95606072 1.44042669 0.27748235
v 2.32266304 1.85757482 0.06796667
v 1.62626229 1.88240889 0.28277660
v 2.96778875 1.08673752 0.28132681
v 2.95606072 1.44042669 0.06451766
v 1.62626229 1.88240889 0.05922341
v 1.88983132 1.09453534 0.27941158
v 2.96778875 1.08673752 0.06067320
v 1.88983132 1.09453534 0.06258843
f 1 2 6
f 1 6 3
f 1 3 7
f 1 7 4
f 1 4 8
f 1 8 5
f 1 5 2
f 2 5 9
f 2 9 6
f 3 6 9
f 3 9 10
f 3 10 7
f 4 7 10
f 4 10 8
f 5 8 10
f 5 10 9

