# https://github.com/mikedh/trimesh
v -1.35545382 1.85909757 0.27594897
v -0.88911699 1.37239643 0.27579445
v -1.35545382 1.85909757 0.06605104
v -1.92856535 1.87352268 0.28123768
v -0.87418929 0.85538246 0.28131601
v -0.88911699 1.37239643 0.06620556
v -1.92856535 1.87352268 0.06076233
v -1.91477334 1.42620010 0.27626198
v -0.87418929 0.85538246 0.06068400
v -1.28610802 0.87023369 0.27529993
v -1.91477334 1.42620010 0.06573803
v -1.28610802 0.87023369 0.06670008
f 1 2 6
f 1 6 3
f 1 3 7
f 1 7 4
f 1 4 8
f 1 8 10
f 1 10 5
f 1 5 2
f 2 5 9
f 2 9 6
f 3 6 9
f 3 9 12
f 3 12 11
f 3 11 7
f 4 7 11
f 4 11 8
f 5 10 12
f 5 12 9
f 8 11 12
f 8 12 10

