# https://github.com/mikedh/trimesh
v -1.09734549 -2.79542537 0.06773307
v -0.75423662 -3.28954237 0.06489567
v -1.09734549 -2.79542537 0.27426694
v -1.09711989 -2.17829963 0.06788131
v -0.26549708 -3.28638255 0.06753114
v -0.75423662 -3.28954237 0.27710434
v -1.09711989 -2.17829963 0.27411870
v -0.70922723 -1.58455936 0.06453085
v -0.26549708 -3.28638255 0.27446887
v 0.21477891 -2.93777810 0.06496914
v -0.70922723 -1.58455936 0.27746916
v -0.21868495 -1.58304432 0.06380103
v 0.21477891 -2.93777810 0.27703087
v 0.21151264 -2.41214224 0.06894342
v -0.21868495 -1.58304432 0.27819898
v 0.21151264 -2.41214224 0.27305659
f 1 2 6
f 1 6 3
f 1 3 7
f 1 7 4
f 1 4 8
f 1 8 12
f 1 12 14
f 1 14 10
f 1 10 5
f 1 5 2
f 2 5 9
f 2 9 6
f 3 6 9
f 3 9 13
f 3 13 16
f 3 16 15
f 3 15 11
f 3 11 7
f 4 7 11
f 4 11 8
f 5 10 13
f 5 13 9
f 8 11 15
f 8 15 12
f 10 14 16
f 10 16 13
f 12 15 16
f 12 16 14

