# https://github.com/mikedh/trimesh
v -7.77030991 -3.59091415 0.06917472
v -7.77030991 -3.59091415 0.27282529
v -7.80056489 -2.85055984 -0.05726522
v -7.13964477 -4.79371882 0.07476753
v -7.80056489 -2.85055984 0.39926523
v -7.13964477 -4.79371882 0.26723248
v -7.93154797 -2.89612274 -0.04031248
v -7.12719925 -4.80231692 0.07505138
v -7.93154797 -2.89612274 0.38231249
v -7.12719925 -4.80231692 0.26694863
v -7.61172407 -3.12329988 0.07228971
v -6.92282807 -5.12675442 0.07255528
v -7.61172407 -3.12329988 0.26971030
v -6.92282807 -5.12675442 0.26944473
v -7.57755369 -3.14272477 0.07285777
v -6.89544524 -5.16162828 0.07250874
v -7.57755369 -3.14272477 0.26914224
v -6.89544524 -5.16162828 0.26949127
v -7.54666646 -3.16576662 0.07313227
v -6.86754103 -5.18879609 0.07246609
v -7.54666646 -3.16576662 0.26886774
v -6.86754103 -5.18879609 0.26953392
v -7.51103656 -3.19735620 0.07349055
v -6.83590473 -5.21072796 0.07246053
v -7.51103656 -3.19735620 0.26850946
v -6.83590473 -5.21072796 0.26953948
v -7.47527603 -3.23249057 0.07330353
v -6.80213677 -5.22851817 0.07192758
v -7.47527603 -3.23249057 0.26869648
v -6.80213677 -5.22851817 0.27007243
v -7.44265376 -3.26948958 0.07335334
v -6.76806128 -5.23984187 0.07123536
v -7.44265376 -3.26948958 0.26864667
v -6.76806128 -5.23984187 0.27076465
v -7.41480052 -3.30550487 0.07330577
v -6.67902969 -5.24675657 0.06993863
v -7.41480052 -3.30550487 0.26869424
v -6.67902969 -5.24675657 0.27206138
v -7.18876835 -3.64413009 0.07370505
v -6.60875727 -5.22395329 0.07005449
v -7.18876835 -3.64413009 0.26829496
v -6.60875727 -5.22395329 0.27194552
v -7.13931931 -3.72394471 0.07361494
v -6.55154290 -5.17636645 0.07062287
v -7.13931931 -3.72394471 0.26838507
v -6.55154290 -5.17636645 0.27137714
v -6.51741890 -4.82579818 0.07156577
v -6.50812258 -5.10688378 0.07080845
v -6.51741890 -4.82579818 0.27043424
v -6.50812258 -5.10688378 0.27119156
v -6.48728336 -4.92460258 0.07108892
v -6.48558140 -5.02029602 0.07110675
v -6.48728336 -4.92460258 0.27091109
v -6.48558140 -5.02029602 0.27089326
f 1 2 5
f 1 5 3
f 1 3 7
f 1 7 11
f 1 11 15
f 1 15 19
f 1 19 23
f 1 23 27
f 1 27 31
f 1 31 35
f 1 35 39
f 1 39 43
f 1 43 47
f 1 47 51
f 1 51 52
f 1 52 48
f 1 48 44
f 1 44 40
f 1 40 36
f 1 36 32
f 1 32 28
f 1 28 24
f 1 24 20
f 1 20 16
f 1 16 12
f 1 12 8
f 1 8 4
f 1 4 6
f 1 6 2
f 2 6 10
f 2 10 14
f 2 14 18
f 2 18 22
f 2 22 26
f 2 26 30
f 2 30 34
f 2 34 38
f 2 38 42
f 2 42 46
f 2 46 50
f 2 50 54
f 2 54 53
f 2 53 49
f 2 49 45
f 2 45 41
f 2 41 37
f 2 37 33
f 2 33 29
f 2 29 25
f 2 25 21
f 2 21 17
f 2 17 13
f 2 13 9
f 2 9 5
f 3 5 9
f 3 9 7
f 4 8 10
f 4 10 6
f 7 9 13
f 7 13 11
f 8 12 14
f 8 14 10
f 11 13 17
f 11 17 15
f 12 16 18
f 12 18 14
f 15 17 21
f 15 21 19
f 16 20 22
f 16 22 18
f 19 21 25
f 19 25 23
f 20 24 26
f 20 26 22
f 23 25 29
f 23 29 27
f 24 28 30
f 24 30 26
f 27 29 33
f 27 33 31
f 28 32 34
f 28 34 30
f 31 33 37
f 31 37 35
f 32 36 38
f 32 38 34
f 35 37 41
f 35 41 39
f 36 40 42
f 36 42 38
f 39 41 45
f 39 45 43
f 40 44 46
f 40 46 42
f 43 45 49
f 43 49 47
f 44 48 50
f 44 50 46
f 47 49 53
f 47 53 51
f 48 52 54
f 48 54 50
f 51 53 54
f 51 54 52

