# https://github.com/mikedh/trimesh
v -5.81180091 2.52513848 0.28158334
v -5.81314338 1.98849340 0.27386810
v -5.81180091 2.52513848 0.06041667
v -8.22331034 2.32610907 0.28090280
v -5.81218219 1.99232355 0.26956617
v -5.81314338 1.98849340 0.06813191
v -8.22331034 2.32610907 0.06109721
v -8.22068856 1.81692115 0.27956347
v -5.84699576 1.98241253 0.26839829
v -5.81218219 1.99232355 0.07243384
v -8.22068856 1.81692115 0.06243654
v -8.19188892 1.81690608 0.27308939
v -5.84699576 1.98241253 0.07360172
v -6.40408821 1.82232704 0.26926412
v -8.19188892 1.81690608 0.06891062
v -8.06204837 1.77876739 0.26944240
v -6.40408821 1.82232704 0.07273589
v -6.59814923 1.78811345 0.26886638
v -8.06204837 1.77876739 0.07255761
v -7.89900367 1.75362132 0.26906640
v -6.59814923 1.78811345 0.07313363
v -6.84500258 1.76314712 0.26845471
v -7.89900367 1.75362132 0.07293361
v -7.67223076 1.74055025 0.26857491
v -6.84500258 1.76314712 0.07354530
v -7.12127982 1.74536710 0.26844361
v -7.67223076 1.74055025 0.07342510
v -7.40434304 1.73740722 0.26847137
v -7.12127982 1.74536710 0.07355640
v -7.40434304 1.73740722 0.07352864
f 1 2 6
f 1 6 3
f 1 3 7
f 1 7 4
f 1 4 8
f 1 8 12
f 1 12 16
f 1 16 20
f 1 20 24
f 1 24 28
f 1 28 26
f 1 26 22
f 1 22 18
f 1 18 14
f 1 14 9
f 1 9 5
f 1 5 2
f 2 5 10
f 2 10 6
f 3 6 10
f 3 10 13
f 3 13 17
f 3 17 21
f 3 21 25
f 3 25 29
f 3 29 30
f 3 30 27
f 3 27 23
f 3 23 19
f 3 19 15
f 3 15 11
f 3 11 7
f 4 7 11
f 4 11 8
f 5 9 13
f 5 13 10
f 8 11 15
f 8 15 12
f 9 14 17
f 9 17 13
f 12 15 19
f 12 19 16
f 14 18 21
f 14 21 17
f 16 19 23
f 16 23 20
f 18 22 25
f 18 25 21
f 20 23 27
f 20 27 24
f 22 26 29
f 22 29 25
f 24 27 30
f 24 30 28
f 26 28 30
f 26 30 29

