# https://github.com/mikedh/trimesh
v -10.00794883 -4.90902866 0.07407249
v -10.00794883 -4.90902866 0.26792752
v -10.06092093 -4.75242972 -0.03522882
v -10.00226378 -5.07093133 0.07387233
v -10.06092093 -4.75242972 0.37722883
v -10.00226378 -5.07093133 0.26812768
v -10.09752643 -4.79220999 0.03979734
v -9.99432293 -5.18774070 0.07382027
v -10.09752643 -4.79220999 0.30220267
v -9.99432293 -5.18774070 0.26817974
v -9.50936260 -4.80857418 0.06313400
v -9.98454391 -5.29478580 0.07375122
v -9.50936260 -4.80857418 0.27886601
v -9.98454391 -5.29478580 0.26824879
v -8.89112514 -6.41877914 0.05898428
v -9.97004194 -5.39271662 0.07375659
v -8.89112514 -6.41877914 0.28301573
v -9.97004194 -5.39271662 0.26824342
v -9.56707782 -6.39711390 0.06420967
v -9.95350529 -5.48560547 0.07369950
v -9.56707782 -6.39711390 0.27779034
v -9.95350529 -5.48560547 0.26830051
v -9.60801511 -6.31888578 0.06975022
v -9.93333459 -5.57202089 0.07372895
v -9.60801511 -6.31888578 0.27224979
v -9.93333459 -5.57202089 0.26827106
v -9.68767654 -6.18524077 0.07313551
v -9.91048416 -5.65411186 0.07373254
v -9.68767654 -6.18524077 0.26886450
v -9.91048416 -5.65411186 0.26826747
v -9.75054689 -6.06744998 0.07357405
v -9.88255982 -5.73417023 0.07386011
v -9.75054689 -6.06744998 0.26842596
v -9.88255982 -5.73417023 0.26813990
v -9.79149987 -5.97772486 0.07352955
v -9.79149987 -5.97772486 0.26847046
f 1 2 5
f 1 5 3
f 1 3 7
f 1 7 11
f 1 11 15
f 1 15 19
f 1 19 23
f 1 23 27
f 1 27 31
f 1 31 35
f 1 35 32
f 1 32 28
f 1 28 24
f 1 24 20
f 1 20 16
f 1 16 12
f 1 12 8
f 1 8 4
f 1 4 6
f 1 6 2
f 2 6 10
f 2 10 14
f 2 14 18
f 2 18 22
f 2 22 26
f 2 26 30
f 2 30 34
f 2 34 36
f 2 36 33
f 2 33 29
f 2 29 25
f 2 25 21
f 2 21 17
f 2 17 13
f 2 13 9
f 2 9 5
f 3 5 9
f 3 9 7
f 4 8 10
f 4 10 6
f 7 9 13
f 7 13 11
f 8 12 14
f 8 14 10
f 11 13 17
f 11 17 15
f 12 16 18
f 12 18 14
f 15 17 21
f 15 21 19
f 16 20 22
f 16 22 18
f 19 21 25
f 19 25 23
f 20 24 26
f 20 26 22
f 23 25 29
f 23 29 27
f 24 28 30
f 24 30 26
f 27 29 33
f 27 33 31
f 28 32 34
f 28 34 30
f 31 33 36
f 31 36 35
f 32 35 36
f 32 36 34

