# https://github.com/mikedh/trimesh
v 7.21593101 -1.11682395 0.26880620
v 7.21593101 -1.11682395 0.07319381
v 7.07208292 -1.12044280 0.26850521
v 7.36197418 -1.13359893 0.29181986
v 7.36197418 -1.13359893 0.05018015
v 7.07208292 -1.12044280 0.07349480
v 6.92839337 -1.13210188 0.26838977
v 7.43393525 -1.14119169 0.30624265
v 7.43393525 -1.14119169 0.03575736
v 6.92839337 -1.13210188 0.07361024
v 6.78599409 -1.14961826 0.26835779
v 7.51120437 -1.13787494 0.35646874
v 7.51120437 -1.13787494 -0.01446873
v 6.78599409 -1.14961826 0.07364222
v 6.64447332 -1.17509928 0.26835759
v 7.61803389 -1.07255973 0.34351013
v 7.61803389 -1.07255973 -0.00151012
v 6.64447332 -1.17509928 0.07364242
v 6.50149525 -1.20582468 0.26859244
v 7.55477164 -1.06329172 0.29152270
v 7.55477164 -1.06329172 0.05047731
v 6.50149525 -1.20582468 0.07340757
v 3.37428029 -1.95721010 0.27991712
v 7.55071711 -1.60625634 0.27953721
v 7.55071711 -1.60625634 0.06246280
v 3.37428029 -1.95721010 0.06208289
v 3.36387429 -2.48855926 0.28186807
v 4.57655821 -2.41501180 0.26829930
v 4.57655821 -2.41501180 0.07370071
v 3.36387429 -2.48855926 0.06013194
v 3.37077629 -2.47378177 0.29962055
v 4.53937882 -2.42395996 0.26829481
v 4.53937882 -2.42395996 0.07370520
v 3.37077629 -2.47378177 0.04237946
v 3.51593269 -2.48541139 0.26974318
v 4.48761734 -2.43177610 0.26799087
v 4.48761734 -2.43177610 0.07400914
v 3.51593269 -2.48541139 0.07225683
v 3.66809821 -2.48586794 0.26816019
v 4.42109201 -2.44138183 0.26810653
v 4.42109201 -2.44138183 0.07389348
v 3.66809821 -2.48586794 0.07383982
v 3.84054414 -2.48103490 0.26797083
v 4.34424624 -2.44937366 0.26792541
v 4.34424624 -2.44937366 0.07407460
v 3.84054414 -2.48103490 0.07402918
v 4.03934218 -2.47217469 0.26795749
v 4.25313625 -2.45735624 0.26790002
v 4.25313625 -2.45735624 0.07409999
v 4.03934218 -2.47217469 0.07404252
v 4.15200876 -2.46525737 0.26795871
v 4.15200876 -2.46525737 0.07404130
f 1 2 6
f 1 6 3
f 1 3 7
f 1 7 11
f 1 11 15
f 1 15 19
f 1 19 23
f 1 23 27
f 1 27 31
f 1 31 35
f 1 35 39
f 1 39 43
f 1 43 47
f 1 47 51
f 1 51 48
f 1 48 44
f 1 44 40
f 1 40 36
f 1 36 32
f 1 32 28
f 1 28 24
f 1 24 20
f 1 20 16
f 1 16 12
f 1 12 8
f 1 8 4
f 1 4 5
f 1 5 2
f 2 5 9
f 2 9 13
f 2 13 17
f 2 17 21
f 2 21 25
f 2 25 29
f 2 29 33
f 2 33 37
f 2 37 41
f 2 41 45
f 2 45 49
f 2 49 52
f 2 52 50
f 2 50 46
f 2 46 42
f 2 42 38
f 2 38 34
f 2 34 30
f 2 30 26
f 2 26 22
f 2 22 18
f 2 18 14
f 2 14 10
f 2 10 6
f 3 6 10
f 3 10 7
f 4 8 9
f 4 9 5
f 7 10 14
f 7 14 11
f 8 12 13
f 8 13 9
f 11 14 18
f 11 18 15
f 12 16 17
f 12 17 13
f 15 18 22
f 15 22 19
f 16 20 21
f 16 21 17
f 19 22 26
f 19 26 23
f 20 24 25
f 20 25 21
f 23 26 30
f 23 30 27
f 24 28 29
f 24 29 25
f 27 30 34
f 27 34 31
f 28 32 33
f 28 33 29
f 31 34 38
f 31 38 35
f 32 36 37
f 32 37 33
f 35 38 42
f 35 42 39
f 36 40 41
f 36 41 37
f 39 42 46
f 39 46 43
f 40 44 45
f 40 45 41
f 43 46 50
f 43 50 47
f 44 48 49
f 44 49 45
f 47 50 52
f 47 52 51
f 48 51 52
f 48 52 49

