# https://github.com/mikedh/trimesh
v -0.21207182 11.32378935 0.26920607
v -0.16597922 11.32194218 0.26907713
v -0.21207182 11.32378935 0.07279394
v -0.23417473 11.32248402 0.26920131
v -0.16597922 11.32194218 0.07292288
v -0.09135584 11.31647326 0.26964919
v -0.23417473 11.32248402 0.07279870
v -0.53026823 11.25678738 0.26771240
v -0.09135584 11.31647326 0.07235082
v 0.01495085 11.30825043 0.26998877
v -0.53026823 11.25678738 0.07428761
v -0.54617055 11.25101463 0.26833476
v 0.01495085 11.30825043 0.07201124
v 0.15698474 11.29513117 0.27141013
v -0.54617055 11.25101463 0.07366525
v -0.90300296 11.13716711 0.26835460
v 0.15698474 11.29513117 0.07058988
v 0.30545203 11.27697088 0.27643219
v -0.90300296 11.13716711 0.07364541
v -0.95136376 11.12167904 0.26831335
v 0.30545203 11.27697088 0.06556782
v 0.45336533 11.24817131 0.29772491
v -0.95136376 11.12167904 0.07368666
v -0.99840337 11.10433846 0.26832032
v 0.45336533 11.24817131 0.04427510
v 0.60074275 11.25866269 0.33694307
v -0.99840337 11.10433846 0.07367969
v -1.04334963 11.08698312 0.26844024
v 0.60074275 11.25866269 0.00505694
v 0.59916305 11.24703565 0.28258481
v -1.04334963 11.08698312 0.07355977
v -1.08610817 11.06820488 0.26870942
v 0.59916305 11.24703565 0.05941520
v 0.59969336 10.77285321 0.27996357
v -1.08610817 11.06820488 0.07329059
v -1.12569781 11.04777456 0.26931737
v 0.59969336 10.77285321 0.06203644
v -1.30417852 10.35074149 0.28237310
v -1.12569781 11.04777456 0.07268264
v -1.15991945 11.02905759 0.27036702
v -1.30417852 10.35074149 0.05962691
v -1.28708454 10.95731469 0.27775790
v -1.15991945 11.02905759 0.07163299
v -1.18954147 11.01029316 0.27190429
v -1.28708454 10.95731469 0.06424211
v -1.18954147 11.01029316 0.07009572
f 1 2 5
f 1 5 3
f 1 3 7
f 1 7 4
f 1 4 8
f 1 8 12
f 1 12 16
f 1 16 20
f 1 20 24
f 1 24 28
f 1 28 32
f 1 32 36
f 1 36 40
f 1 40 44
f 1 44 42
f 1 42 38
f 1 38 34
f 1 34 30
f 1 30 26
f 1 26 22
f 1 22 18
f 1 18 14
f 1 14 10
f 1 10 6
f 1 6 2
f 2 6 9
f 2 9 5
f 3 5 9
f 3 9 13
f 3 13 17
f 3 17 21
f 3 21 25
f 3 25 29
f 3 29 33
f 3 33 37
f 3 37 41
f 3 41 45
f 3 45 46
f 3 46 43
f 3 43 39
f 3 39 35
f 3 35 31
f 3 31 27
f 3 27 23
f 3 23 19
f 3 19 15
f 3 15 11
f 3 11 7
f 4 7 11
f 4 11 8
f 6 10 13
f 6 13 9
f 8 11 15
f 8 15 12
f 10 14 17
f 10 17 13
f 12 15 19
f 12 19 16
f 14 18 21
f 14 21 17
f 16 19 23
f 16 23 20
f 18 22 25
f 18 25 21
f 20 23 27
f 20 27 24
f 22 26 29
f 22 29 25
f 24 27 31
f 24 31 28
f 26 30 33
f 26 33 29
f 28 31 35
f 28 35 32
f 30 34 37
f 30 37 33
f 32 35 39
f 32 39 36
f 34 38 41
f 34 41 37
f 36 39 43
f 36 43 40
f 38 42 45
f 38 45 41
f 40 43 46
f 40 46 44
f 42 44 46
f 42 46 45

