# https://github.com/mikedh/trimesh
v -0.42397862 -7.59105888 0.26907567
v -0.33238440 -7.59729900 0.26875974
v -0.42397862 -7.59105888 0.07292434
v -0.52502957 -7.59708194 0.27402505
v -0.33238440 -7.59729900 0.07324027
v -0.24367854 -7.61137311 0.26854428
v -0.52502957 -7.59708194 0.06797496
v -0.63277624 -7.61137086 0.28865272
v -0.24367854 -7.61137311 0.07345573
v -0.14053829 -7.63360853 0.26834722
v -0.63277624 -7.61137086 0.05334729
v -0.74440613 -7.60415568 0.34999401
v -0.14053829 -7.63360853 0.07365279
v -0.02648841 -7.66181219 0.26890455
v -0.74440613 -7.60415568 -0.00799400
v -0.77066520 -7.61579905 0.28022126
v -0.02648841 -7.66181219 0.07309546
v 1.02725004 -7.90873281 0.30673280
v -0.77066520 -7.61579905 0.06177875
v -0.76508519 -8.18869614 0.27933098
v 1.02725004 -7.90873281 0.03526721
v 1.02511020 -7.91882216 0.26928575
v -0.76508519 -8.18869614 0.06266903
v 1.17815098 -8.77658712 0.26963734
v 1.02511020 -7.91882216 0.07271426
v 1.03315626 -7.92661076 0.26829954
v 1.17815098 -8.77658712 0.07236267
v 1.25740732 -8.79044932 0.27080150
v 1.03315626 -7.92661076 0.07370047
v 1.40756704 -8.23551194 0.26879724
v 1.25740732 -8.79044932 0.07119851
v 1.32502201 -8.78425960 0.27100854
v 1.40756704 -8.23551194 0.07320277
v 1.43092573 -8.25857725 0.26877590
v 1.32502201 -8.78425960 0.07099147
v 1.38619999 -8.75967877 0.27097081
v 1.43092573 -8.25857725 0.07322411
v 1.45530700 -8.28725496 0.26873990
v 1.38619999 -8.75967877 0.07102920
v 1.44107309 -8.71623368 0.27080585
v 1.45530700 -8.28725496 0.07326011
v 1.47906735 -8.32123787 0.26859539
v 1.44107309 -8.71623368 0.07119416
v 1.48923240 -8.64990970 0.27022559
v 1.47906735 -8.32123787 0.07340462
v 1.50336185 -8.36192116 0.26862616
v 1.48923240 -8.64990970 0.07177442
v 1.53060011 -8.55471229 0.26881800
v 1.50336185 -8.36192116 0.07337385
v 1.52426991 -8.40290740 0.26875618
v 1.53060011 -8.55471229 0.07318201
v 1.53841165 -8.53151782 0.26890595
v 1.52426991 -8.40290740 0.07324383
v 1.53357776 -8.42718893 0.26861467
v 1.53841165 -8.53151782 0.07309406
v 1.54319645 -8.50970695 0.26869120
v 1.53357776 -8.42718893 0.07338534
v 1.54022575 -8.44732810 0.26896466
v 1.54319645 -8.50970695 0.07330881
v 1.54583207 -8.49177954 0.26903838
v 1.54022575 -8.44732810 0.07303535
v 1.54395923 -8.46572167 0.26898957
v 1.54583207 -8.49177954 0.07296163
v 1.54616086 -8.47970450 0.26941109
v 1.54395923 -8.46572167 0.07301044
v 1.54616086 -8.47970450 0.07258892
f 1 2 5
f 1 5 3
f 1 3 7
f 1 7 4
f 1 4 8
f 1 8 12
f 1 12 16
f 1 16 20
f 1 20 24
f 1 24 28
f 1 28 32
f 1 32 36
f 1 36 40
f 1 40 44
f 1 44 48
f 1 48 52
f 1 52 56
f 1 56 60
f 1 60 64
f 1 64 62
f 1 62 58
f 1 58 54
f 1 54 50
f 1 50 46
f 1 46 42
f 1 42 38
f 1 38 34
f 1 34 30
f 1 30 26
f 1 26 22
f 1 22 18
f 1 18 14
f 1 14 10
f 1 10 6
f 1 6 2
f 2 6 9
f 2 9 5
f 3 5 9
f 3 9 13
f 3 13 17
f 3 17 21
f 3 21 25
f 3 25 29
f 3 29 33
f 3 33 37
f 3 37 41
f 3 41 45
f 3 45 49
f 3 49 53
f 3 53 57
f 3 57 61
f 3 61 65
f 3 65 66
f 3 66 63
f 3 63 59
f 3 59 55
f 3 55 51
f 3 51 47
f 3 47 43
f 3 43 39
f 3 39 35
f 3 35 31
f 3 31 27
f 3 27 23
f 3 23 19
f 3 19 15
f 3 15 11
f 3 11 7
f 4 7 11
f 4 11 8
f 6 10 13
f 6 13 9
f 8 11 15
f 8 15 12
f 10 14 17
f 10 17 13
f 12 15 19
f 12 19 16
f 14 18 21
f 14 21 17
f 16 19 23
f 16 23 20
f 18 22 25
f 18 25 21
f 20 23 27
f 20 27 24
f 22 26 29
f 22 29 25
f 24 27 31
f 24 31 28
f 26 30 33
f 26 33 29
f 28 31 35
f 28 35 32
f 30 34 37
f 30 37 33
f 32 35 39
f 32 39 36
f 34 38 41
f 34 41 37
f 36 39 43
f 36 43 40
f 38 42 45
f 38 45 41
f 40 43 47
f 40 47 44
f 42 46 49
f 42 49 45
f 44 47 51
f 44 51 48
f 46 50 53
f 46 53 49
f 48 51 55
f 48 55 52
f 50 54 57
f 50 57 53
f 52 55 59
f 52 59 56
f 54 58 61
f 54 61 57
f 56 59 63
f 56 63 60
f 58 62 65
f 58 65 61
f 60 63 66
f 60 66 64
f 62 64 66
f 62 66 65

