# https://github.com/mikedh/trimesh
v 0.81475809 3.33113538 0.27577739
v 0.81475809 3.33113538 0.06622262
v 0.30097049 3.32915731 0.27141527
v 1.90862361 2.24062746 0.32704223
v 0.30097049 3.32915731 0.07058474
v 1.90862361 2.24062746 0.01495778
v 0.21659341 3.31572621 0.27187875
v 2.15937379 2.07355100 0.39530978
v 0.21659341 3.31572621 0.07012126
v 2.15937379 2.07355100 -0.05330977
v -0.16445901 3.13636065 0.27826859
v 2.26451346 1.96640218 0.28446230
v -0.16445901 3.13636065 0.06373142
v 2.26451346 1.96640218 0.05753771
v -0.15895669 2.65934463 0.27036316
v -0.02400004 1.99977444 0.28001078
v -0.15895669 2.65934463 0.07163685
v -0.02400004 1.99977444 0.06198923
f 1 2 5
f 1 5 3
f 1 3 7
f 1 7 11
f 1 11 15
f 1 15 16
f 1 16 12
f 1 12 8
f 1 8 4
f 1 4 6
f 1 6 2
f 2 6 10
f 2 10 14
f 2 14 18
f 2 18 17
f 2 17 13
f 2 13 9
f 2 9 5
f 3 5 9
f 3 9 7
f 4 8 10
f 4 10 6
f 7 9 13
f 7 13 11
f 8 12 14
f 8 14 10
f 11 13 17
f 11 17 15
f 12 16 18
f 12 18 14
f 15 17 18
f 15 18 16

