# https://github.com/mikedh/trimesh
v 3.08935438 1.08717471 0.06068291
v 3.41077076 1.10106581 0.06814527
v 3.08935438 1.08717471 0.28131710
v 3.10532816 1.45377086 0.06690961
v 3.47850276 1.15743927 0.07298786
v 3.41077076 1.10106581 0.27385474
v 3.10532816 1.45377086 0.27509040
v 3.90945036 2.56439136 0.05728536
v 3.54760958 1.21938356 0.07324067
v 3.47850276 1.15743927 0.26901215
v 3.90945036 2.56439136 0.28471465
v 3.86406327 1.93565403 0.07381877
v 3.61150766 1.27766064 0.07309152
v 3.54760958 1.21938356 0.26875934
v 3.86406327 1.93565403 0.26818124
v 3.86304037 1.54710409 0.06696749
v 3.66267730 1.32685839 0.07300657
v 3.61150766 1.27766064 0.26890849
v 3.86304037 1.54710409 0.27503252
v 3.84156179 1.52655070 0.06909418
v 3.75237190 1.42099060 0.07254010
v 3.66267730 1.32685839 0.26899344
v 3.84156179 1.52655070 0.27290583
v 3.75237190 1.42099060 0.26945991
f 1 2 6
f 1 6 3
f 1 3 7
f 1 7 4
f 1 4 8
f 1 8 12
f 1 12 16
f 1 16 20
f 1 20 21
f 1 21 17
f 1 17 13
f 1 13 9
f 1 9 5
f 1 5 2
f 2 5 10
f 2 10 6
f 3 6 10
f 3 10 14
f 3 14 18
f 3 18 22
f 3 22 24
f 3 24 23
f 3 23 19
f 3 19 15
f 3 15 11
f 3 11 7
f 4 7 11
f 4 11 8
f 5 9 14
f 5 14 10
f 8 11 15
f 8 15 12
f 9 13 18
f 9 18 14
f 12 15 19
f 12 19 16
f 13 17 22
f 13 22 18
f 16 19 23
f 16 23 20
f 17 21 24
f 17 24 22
f 20 23 24
f 20 24 21

