# https://github.com/mikedh/trimesh
v -2.78767732 -1.54704996 0.06624598
v -2.40750939 -1.93795816 0.06904388
v -2.78767732 -1.54704996 0.27575403
v -2.80332300 0.10628326 0.06086638
v -2.11636351 -2.21468321 0.06490733
v -2.40750939 -1.93795816 0.27295613
v -2.80332300 0.10628326 0.28113363
v -2.54448391 0.09113176 0.06811780
v -2.09979557 -2.22173929 0.05399274
v -2.11636351 -2.21468321 0.27709268
v -2.54448391 0.09113176 0.27388221
v -2.05644500 -0.22148235 0.06455593
v -2.09979557 -2.22173929 0.28800727
v -2.02254866 -2.31743836 0.05794857
v -2.05644500 -0.22148235 0.27744408
v -2.02254866 -2.31743836 0.28405144
f 1 2 6
f 1 6 3
f 1 3 7
f 1 7 4
f 1 4 8
f 1 8 12
f 1 12 14
f 1 14 9
f 1 9 5
f 1 5 2
f 2 5 10
f 2 10 6
f 3 6 10
f 3 10 13
f 3 13 16
f 3 16 15
f 3 15 11
f 3 11 7
f 4 7 11
f 4 11 8
f 5 9 13
f 5 13 10
f 8 11 15
f 8 15 12
f 9 14 16
f 9 16 13
f 12 15 16
f 12 16 14

