# https://github.com/mikedh/trimesh
v -7.98175299 7.41884941 0.29813435
v -7.98175299 7.41884941 0.04386566
v -7.94987331 7.41590308 0.33880741
v -7.98357073 6.89056576 0.27700138
v -7.98357073 6.89056576 0.06499863
v -7.94987331 7.41590308 0.00319260
v -8.00205168 7.35477762 0.33328093
v -9.64477247 5.55030360 0.27508781
v -9.64477247 5.55030360 0.06691220
v -8.00205168 7.35477762 0.00871908
v -8.12127516 7.32172252 0.32003519
v -10.16232685 5.52062666 0.28287039
v -10.16232685 5.52062666 0.05912962
v -8.12127516 7.32172252 0.02196482
v -8.25158067 7.28086392 0.30453477
v -10.12992233 5.54561078 0.27553334
v -10.12992233 5.54561078 0.06646667
v -8.25158067 7.28086392 0.03746524
v -8.39271705 7.23205368 0.28792935
v -10.09334898 5.66178450 0.26892474
v -10.09334898 5.66178450 0.07307527
v -8.39271705 7.23205368 0.05407066
v -8.53649325 7.18295441 0.27731175
v -10.05067284 5.76937009 0.26844627
v -10.05067284 5.76937009 0.07355374
v -8.53649325 7.18295441 0.06468826
v -8.67386922 7.13224955 0.27408363
v -10.00400676 5.87396600 0.26837101
v -10.00400676 5.87396600 0.07362900
v -8.67386922 7.13224955 0.06791638
v -8.79503210 7.08640843 0.27101679
v -9.95496961 5.97476176 0.26836711
v -9.95496961 5.97476176 0.07363290
v -8.79503210 7.08640843 0.07098322
v -8.88717614 7.04414050 0.27008793
v -9.90533052 6.06871645 0.26859976
v -9.90533052 6.06871645 0.07340025
v -8.88717614 7.04414050 0.07191208
v -8.94434721 7.01319362 0.26959670
v -9.85552397 6.15116501 0.26863319
v -9.85552397 6.15116501 0.07336682
v -8.94434721 7.01319362 0.07240331
v -9.03450093 6.94931562 0.26891045
v -9.80878095 6.22021928 0.26881104
v -9.80878095 6.22021928 0.07318897
v -9.03450093 6.94931562 0.07308956
v -9.13014507 6.87841067 0.26885834
v -9.76674026 6.27366210 0.26874122
v -9.76674026 6.27366210 0.07325879
v -9.13014507 6.87841067 0.07314167
v -9.22561830 6.80370968 0.26876192
v -9.69223163 6.36044740 0.26843485
v -9.69223163 6.36044740 0.07356516
v -9.22561830 6.80370968 0.07323809
v -9.31741648 6.72774888 0.26867489
v -9.59532484 6.47092725 0.26857227
v -9.59532484 6.47092725 0.07342774
v -9.31741648 6.72774888 0.07332512
v -9.40410663 6.65385457 0.26872202
v -9.54650820 6.52230640 0.26871830
v -9.54650820 6.52230640 0.07328171
v -9.40410663 6.65385457 0.07327799
v -9.48154915 6.58424440 0.26872928
v -9.48154915 6.58424440 0.07327073
f 1 2 6
f 1 6 3
f 1 3 7
f 1 7 11
f 1 11 15
f 1 15 19
f 1 19 23
f 1 23 27
f 1 27 31
f 1 31 35
f 1 35 39
f 1 39 43
f 1 43 47
f 1 47 51
f 1 51 55
f 1 55 59
f 1 59 63
f 1 63 60
f 1 60 56
f 1 56 52
f 1 52 48
f 1 48 44
f 1 44 40
f 1 40 36
f 1 36 32
f 1 32 28
f 1 28 24
f 1 24 20
f 1 20 16
f 1 16 12
f 1 12 8
f 1 8 4
f 1 4 5
f 1 5 2
f 2 5 9
f 2 9 13
f 2 13 17
f 2 17 21
f 2 21 25
f 2 25 29
f 2 29 33
f 2 33 37
f 2 37 41
f 2 41 45
f 2 45 49
f 2 49 53
f 2 53 57
f 2 57 61
f 2 61 64
f 2 64 62
f 2 62 58
f 2 58 54
f 2 54 50
f 2 50 46
f 2 46 42
f 2 42 38
f 2 38 34
f 2 34 30
f 2 30 26
f 2 26 22
f 2 22 18
f 2 18 14
f 2 14 10
f 2 10 6
f 3 6 10
f 3 10 7
f 4 8 9
f 4 9 5
f 7 10 14
f 7 14 11
f 8 12 13
f 8 13 9
f 11 14 18
f 11 18 15
f 12 16 17
f 12 17 13
f 15 18 22
f 15 22 19
f 16 20 21
f 16 21 17
f 19 22 26
f 19 26 23
f 20 24 25
f 20 25 21
f 23 26 30
f 23 30 27
f 24 28 29
f 24 29 25
f 27 30 34
f 27 34 31
f 28 32 33
f 28 33 29
f 31 34 38
f 31 38 35
f 32 36 37
f 32 37 33
f 35 38 42
f 35 42 39
f 36 40 41
f 36 41 37
f 39 42 46
f 39 46 43
f 40 44 45
f 40 45 41
f 43 46 50
f 43 50 47
f 44 48 49
f 44 49 45
f 47 50 54
f 47 54 51
f 48 52 53
f 48 53 49
f 51 54 58
f 51 58 55
f 52 56 57
f 52 57 53
f 55 58 62
f 55 62 59
f 56 60 61
f 56 61 57
f 59 62 64
f 59 64 63
f 60 63 64
f 60 64 61

