# https://github.com/mikedh/trimesh
v -2.68251272 8.47747150 0.07312523
v -2.67894198 8.26997792 0.07352163
v -2.68251272 8.47747150 0.26887478
v -2.66068777 8.69194923 0.03854967
v -2.67894198 8.26997792 0.26847838
v -2.66439627 8.07946941 0.07367595
v -2.66068777 8.69194923 0.30345034
v -2.68134934 8.91122720 0.00676818
v -2.66439627 8.07946941 0.26832406
v -2.65686721 8.02404181 0.07381041
v -2.68134934 8.91122720 0.33523183
v -2.66334394 8.93852363 0.06081723
v -2.65686721 8.02404181 0.26818960
v -2.64904991 7.97110860 0.07380698
v -2.66334394 8.93852363 0.28118278
v -2.19614216 8.93697149 0.06185580
v -2.64904991 7.97110860 0.26819303
v -2.63333898 7.87720578 0.07379504
v -2.19614216 8.93697149 0.28014421
v -1.88872241 7.23370940 0.06002400
v -2.63333898 7.87720578 0.26820497
v -2.62575115 7.83986829 0.07384523
v -1.88872241 7.23370940 0.28197601
v -2.48839006 7.12596570 0.05450164
v -2.62575115 7.83986829 0.26815478
v -2.61973345 7.81202188 0.07382024
v -2.48839006 7.12596570 0.28749837
v -2.40856449 7.15421700 -0.07050221
v -2.61973345 7.81202188 0.26817977
v -2.61377923 7.79351527 0.07385525
v -2.40856449 7.15421700 0.41250222
v -2.42510353 7.34723307 0.03159544
v -2.61377923 7.79351527 0.26814476
v -2.53918182 7.57411240 0.07226677
v -2.42510353 7.34723307 0.31040457
v -2.49423181 7.47243621 0.06570703
v -2.53918182 7.57411240 0.26973324
v -2.49423181 7.47243621 0.27629298
f 1 2 5
f 1 5 3
f 1 3 7
f 1 7 4
f 1 4 8
f 1 8 12
f 1 12 16
f 1 16 20
f 1 20 24
f 1 24 28
f 1 28 32
f 1 32 36
f 1 36 34
f 1 34 30
f 1 30 26
f 1 26 22
f 1 22 18
f 1 18 14
f 1 14 10
f 1 10 6
f 1 6 2
f 2 6 9
f 2 9 5
f 3 5 9
f 3 9 13
f 3 13 17
f 3 17 21
f 3 21 25
f 3 25 29
f 3 29 33
f 3 33 37
f 3 37 38
f 3 38 35
f 3 35 31
f 3 31 27
f 3 27 23
f 3 23 19
f 3 19 15
f 3 15 11
f 3 11 7
f 4 7 11
f 4 11 8
f 6 10 13
f 6 13 9
f 8 11 15
f 8 15 12
f 10 14 17
f 10 17 13
f 12 15 19
f 12 19 16
f 14 18 21
f 14 21 17
f 16 19 23
f 16 23 20
f 18 22 25
f 18 25 21
f 20 23 27
f 20 27 24
f 22 26 29
f 22 29 25
f 24 27 31
f 24 31 28
f 26 30 33
f 26 33 29
f 28 31 35
f 28 35 32
f 30 34 37
f 30 37 33
f 32 35 38
f 32 38 36
f 34 36 38
f 34 38 37

