# https://github.com/mikedh/trimesh
v 1.89252067 -1.63091627 0.06067720
v 2.46860220 -1.62262022 0.06318878
v 1.89252067 -1.63091627 0.28132281
v 1.90951236 -1.23337743 0.06947856
v 2.46860220 -1.62262022 0.27881123
v 2.62060428 -1.20420134 0.07363286
v 1.90951236 -1.23337743 0.27252145
v 2.26922588 0.10031856 0.06222563
v 2.62060428 -1.20420134 0.26836715
v 2.72463215 -0.90623967 0.07336913
v 2.26922588 0.10031856 0.27977438
v 2.85334569 0.10910470 0.06060533
v 2.72463215 -0.90623967 0.26863088
v 2.75347445 -0.80990336 0.07327215
v 2.85334569 0.10910470 0.28139468
v 2.83849036 0.04588785 0.07010369
v 2.75347445 -0.80990336 0.26872786
v 2.77939498 -0.70070660 0.07328856
v 2.83849036 0.04588785 0.27189632
v 2.83906452 -0.13020204 0.07337878
v 2.77939498 -0.70070660 0.26871145
v 2.80090997 -0.57558547 0.07351044
v 2.83906452 -0.13020204 0.26862123
v 2.83133841 -0.28963093 0.07359491
v 2.80090997 -0.57558547 0.26848957
v 2.81856982 -0.43863043 0.07352378
v 2.83133841 -0.28963093 0.26840510
v 2.81856982 -0.43863043 0.26847623
f 1 2 5
f 1 5 3
f 1 3 7
f 1 7 4
f 1 4 8
f 1 8 12
f 1 12 16
f 1 16 20
f 1 20 24
f 1 24 26
f 1 26 22
f 1 22 18
f 1 18 14
f 1 14 10
f 1 10 6
f 1 6 2
f 2 6 9
f 2 9 5
f 3 5 9
f 3 9 13
f 3 13 17
f 3 17 21
f 3 21 25
f 3 25 28
f 3 28 27
f 3 27 23
f 3 23 19
f 3 19 15
f 3 15 11
f 3 11 7
f 4 7 11
f 4 11 8
f 6 10 13
f 6 13 9
f 8 11 15
f 8 15 12
f 10 14 17
f 10 17 13
f 12 15 19
f 12 19 16
f 14 18 21
f 14 21 17
f 16 19 23
f 16 23 20
f 18 22 25
f 18 25 21
f 20 23 27
f 20 27 24
f 22 26 28
f 22 28 25
f 24 27 28
f 24 28 26

