# https://github.com/mikedh/trimesh
v 1.97742437 -1.75184799 0.28128484
v 1.96671908 -2.28400151 0.27739428
v 1.97742437 -1.75184799 0.06071517
v 1.17430617 -1.76743710 0.27509628
v 1.96671908 -2.28400151 0.06460573
v 1.73958271 -2.41349107 0.26844950
v 1.17430617 -1.76743710 0.06690373
v 0.36229404 -2.42916077 0.27673148
v 1.73958271 -2.41349107 0.07355051
v 1.73788087 -2.41423333 0.26855582
v 0.36229404 -2.42916077 0.06526853
v 0.32458642 -2.93606902 0.29432852
v 1.73788087 -2.41423333 0.07344419
v 1.20393905 -2.66729968 0.26863300
v 0.32458642 -2.93606902 0.04767149
v 0.31437975 -2.89696783 0.32941385
v 1.20393905 -2.66729968 0.07336701
v 1.18643004 -2.67396874 0.26849414
v 0.31437975 -2.89696783 0.01258616
v 0.40164388 -2.87504116 0.27409554
v 1.18643004 -2.67396874 0.07350587
v 1.16292182 -2.68212097 0.26852211
v 0.40164388 -2.87504116 0.06790447
v 0.47272409 -2.86586947 0.26854669
v 1.16292182 -2.68212097 0.07347790
v 0.87307747 -2.76931744 0.26843484
v 0.47272409 -2.86586947 0.07345332
v 0.53623852 -2.85343720 0.26813854
v 0.87307747 -2.76931744 0.07356517
v 0.64106444 -2.83000370 0.26826699
v 0.53623852 -2.85343720 0.07386147
v 0.59290909 -2.84153421 0.26823687
v 0.64106444 -2.83000370 0.07373302
v 0.59290909 -2.84153421 0.07376314
f 1 2 5
f 1 5 3
f 1 3 7
f 1 7 4
f 1 4 8
f 1 8 12
f 1 12 16
f 1 16 20
f 1 20 24
f 1 24 28
f 1 28 32
f 1 32 30
f 1 30 26
f 1 26 22
f 1 22 18
f 1 18 14
f 1 14 10
f 1 10 6
f 1 6 2
f 2 6 9
f 2 9 5
f 3 5 9
f 3 9 13
f 3 13 17
f 3 17 21
f 3 21 25
f 3 25 29
f 3 29 33
f 3 33 34
f 3 34 31
f 3 31 27
f 3 27 23
f 3 23 19
f 3 19 15
f 3 15 11
f 3 11 7
f 4 7 11
f 4 11 8
f 6 10 13
f 6 13 9
f 8 11 15
f 8 15 12
f 10 14 17
f 10 17 13
f 12 15 19
f 12 19 16
f 14 18 21
f 14 21 17
f 16 19 23
f 16 23 20
f 18 22 25
f 18 25 21
f 20 23 27
f 20 27 24
f 22 26 29
f 22 29 25
f 24 27 31
f 24 31 28
f 26 30 33
f 26 33 29
f 28 31 34
f 28 34 32
f 30 32 34
f 30 34 33

