# https://github.com/mikedh/trimesh
v -1.93310891 -2.43099292 0.04485104
v -1.97777881 -2.39316002 0.01089918
v -1.93310891 -2.43099292 0.29714897
v -1.90023347 -1.63569825 0.05936831
v -1.97777881 -2.39316002 0.33110083
v -1.91541011 -2.36415774 -0.00768943
v -1.90023347 -1.63569825 0.28263170
v -1.84306643 -1.54246477 0.01556554
v -1.91541011 -2.36415774 0.34968944
v -1.89095256 -2.38022280 0.00869224
v -1.84306643 -1.54246477 0.32643447
v -1.86773886 -1.47111506 -0.03609396
v -1.89095256 -2.38022280 0.33330777
v -1.42317003 -2.67167888 0.06903428
v -1.86773886 -1.47111506 0.37809397
v -1.93622004 -1.46663012 -0.05859958
v -1.42317003 -2.67167888 0.27296573
v -1.41141522 -2.67879828 0.07110098
v -1.93622004 -1.46663012 0.40059959
v -2.01135795 -1.50237193 -0.02554227
v -1.41141522 -2.67879828 0.27089903
v -1.39322698 -2.68416870 0.07054170
v -2.01135795 -1.50237193 0.36754228
v -1.56927720 -1.89812931 0.07276998
v -1.39322698 -2.68416870 0.27145831
v -1.36276927 -2.69010750 0.06725430
v -1.56927720 -1.89812931 0.26923003
v -1.52588318 -1.93616667 0.07371162
v -1.36276927 -2.69010750 0.27474571
v -1.22583813 -2.75023429 0.05932905
v -1.52588318 -1.93616667 0.26828839
v -1.24827379 -2.18919479 0.06587953
v -1.22583813 -2.75023429 0.28267096
v -1.24827379 -2.18919479 0.27612048
f 1 2 5
f 1 5 3
f 1 3 7
f 1 7 4
f 1 4 8
f 1 8 12
f 1 12 16
f 1 16 20
f 1 20 24
f 1 24 28
f 1 28 32
f 1 32 30
f 1 30 26
f 1 26 22
f 1 22 18
f 1 18 14
f 1 14 10
f 1 10 6
f 1 6 2
f 2 6 9
f 2 9 5
f 3 5 9
f 3 9 13
f 3 13 17
f 3 17 21
f 3 21 25
f 3 25 29
f 3 29 33
f 3 33 34
f 3 34 31
f 3 31 27
f 3 27 23
f 3 23 19
f 3 19 15
f 3 15 11
f 3 11 7
f 4 7 11
f 4 11 8
f 6 10 13
f 6 13 9
f 8 11 15
f 8 15 12
f 10 14 17
f 10 17 13
f 12 15 19
f 12 19 16
f 14 18 21
f 14 21 17
f 16 19 23
f 16 23 20
f 18 22 25
f 18 25 21
f 20 23 27
f 20 27 24
f 22 26 29
f 22 29 25
f 24 27 31
f 24 31 28
f 26 30 33
f 26 33 29
f 28 31 34
f 28 34 32
f 30 32 34
f 30 34 33

