# https://github.com/mikedh/trimesh
v -8.53516904 -2.86451171 0.26886823
v -8.53516904 -2.86451171 0.07313178
v -8.71365277 -2.82325373 0.40696354
v -8.38539292 -2.86575531 0.26877063
v -8.71365277 -2.82325373 -0.06496353
v -8.38539292 -2.86575531 0.07322938
v -8.66400745 -2.72648191 0.33078277
v -8.24450166 -2.87860958 0.26913979
v -8.66400745 -2.72648191 0.01121724
v -8.24450166 -2.87860958 0.07286022
v -8.61429484 -3.37740192 0.27972906
v -8.10829264 -2.90256323 0.27039163
v -8.61429484 -3.37740192 0.06227095
v -8.10829264 -2.90256323 0.07160838
v -7.90122959 -3.54363270 0.28233068
v -7.98231659 -2.94083070 0.27472652
v -7.90122959 -3.54363270 0.05966933
v -7.98231659 -2.94083070 0.06727349
v -7.91496349 -2.95717844 0.27901650
v -7.91496349 -2.95717844 0.06298351
f 1 2 5
f 1 5 3
f 1 3 7
f 1 7 11
f 1 11 15
f 1 15 19
f 1 19 16
f 1 16 12
f 1 12 8
f 1 8 4
f 1 4 6
f 1 6 2
f 2 6 10
f 2 10 14
f 2 14 18
f 2 18 20
f 2 20 17
f 2 17 13
f 2 13 9
f 2 9 5
f 3 5 9
f 3 9 7
f 4 8 10
f 4 10 6
f 7 9 13
f 7 13 11
f 8 12 14
f 8 14 10
f 11 13 17
f 11 17 15
f 12 16 18
f 12 18 14
f 15 17 20
f 15 20 19
f 16 19 20
f 16 20 18

