# https://github.com/mikedh/trimesh
v 9.05362258 3.16229323 0.03233853
v 9.05362258 3.16229323 0.30966148
v 9.08531979 3.13422189 0.00803381
v 9.68216583 3.18677036 0.06499953
v 9.68216583 3.18677036 0.27700048
v 9.08531979 3.13422189 0.33396620
v 9.11885649 3.14090954 -0.01502831
v 9.71135231 3.25094670 0.07289204
v 9.71135231 3.25094670 0.26910797
v 9.11885649 3.14090954 0.35702832
v 9.47133794 4.02162249 0.06267148
v 9.76005010 3.36004468 0.07280811
v 9.76005010 3.36004468 0.26919190
v 9.47133794 4.02162249 0.27932853
v 9.94882008 4.04671179 0.04153513
v 9.79668273 3.45998863 0.07264291
v 9.79668273 3.45998863 0.26935710
v 9.94882008 4.04671179 0.30046488
v 9.91333284 4.07203236 0.02827996
v 9.82073968 3.55147296 0.07315850
v 9.82073968 3.55147296 0.26884151
v 9.91333284 4.07203236 0.31372005
v 9.89702065 3.97003928 0.07122403
v 9.84770454 3.68030429 0.07357234
v 9.84770454 3.68030429 0.26842767
v 9.89702065 3.97003928 0.27077598
v 9.88680105 3.88550728 0.07322877
v 9.86945121 3.79055374 0.07350482
v 9.86945121 3.79055374 0.26849519
v 9.88680105 3.88550728 0.26877124
f 1 2 6
f 1 6 3
f 1 3 7
f 1 7 11
f 1 11 15
f 1 15 19
f 1 19 23
f 1 23 27
f 1 27 28
f 1 28 24
f 1 24 20
f 1 20 16
f 1 16 12
f 1 12 8
f 1 8 4
f 1 4 5
f 1 5 2
f 2 5 9
f 2 9 13
f 2 13 17
f 2 17 21
f 2 21 25
f 2 25 29
f 2 29 30
f 2 30 26
f 2 26 22
f 2 22 18
f 2 18 14
f 2 14 10
f 2 10 6
f 3 6 10
f 3 10 7
f 4 8 9
f 4 9 5
f 7 10 14
f 7 14 11
f 8 12 13
f 8 13 9
f 11 14 18
f 11 18 15
f 12 16 17
f 12 17 13
f 15 18 22
f 15 22 19
f 16 20 21
f 16 21 17
f 19 22 26
f 19 26 23
f 20 24 25
f 20 25 21
f 23 26 30
f 23 30 27
f 24 28 29
f 24 29 25
f 27 30 29
f 27 29 28

