# https://github.com/mikedh/trimesh
v -0.27341679 -3.43766155 0.27563554
v -0.27341679 -3.43766155 0.06636447
v -0.80292270 -3.39929987 0.35581584
v 2.22100822 -6.08302938 0.28390138
v -0.80292270 -3.39929987 -0.01381583
v 2.22100822 -6.08302938 0.05809863
v -0.75923650 -3.31980701 0.32350403
v 2.25504697 -6.09308042 0.28565272
v -0.75923650 -3.31980701 0.01849598
v 2.25504697 -6.09308042 0.05634729
v -0.68731944 -3.49391738 0.26891054
v 2.32020929 -6.19561372 0.26847244
v -0.68731944 -3.49391738 0.07308947
v 2.32020929 -6.19561372 0.07352757
v -0.65450349 -3.62456676 0.26849490
v 2.42276139 -6.30857809 0.27046953
v -0.65450349 -3.62456676 0.07350511
v 2.42276139 -6.30857809 0.07153048
v -0.61632627 -3.75236942 0.26828746
v 2.48212252 -6.37104577 0.26894452
v -0.61632627 -3.75236942 0.07371255
v 2.48212252 -6.37104577 0.07305549
v -0.57597930 -3.87653991 0.26840069
v 2.52281541 -6.41584646 0.26846114
v -0.57597930 -3.87653991 0.07359932
v 2.52281541 -6.41584646 0.07353887
v -0.53480491 -3.98988949 0.26842006
v 2.57551747 -6.48101994 0.26838276
v -0.53480491 -3.98988949 0.07357995
v 2.57551747 -6.48101994 0.07361725
v -0.49569073 -4.08698903 0.26864991
v 2.64218573 -6.57201271 0.26844387
v -0.49569073 -4.08698903 0.07335010
v 2.64218573 -6.57201271 0.07355614
v -0.46081610 -4.16143155 0.26876782
v 2.71552508 -6.67930865 0.27036741
v -0.46081610 -4.16143155 0.07323219
v 2.71552508 -6.67930865 0.07163260
v -0.17975207 -4.66509801 0.26813089
v 2.78461783 -6.80106220 0.28478256
v -0.17975207 -4.66509801 0.07386912
v 2.78461783 -6.80106220 0.05721745
v -0.15382017 -4.71037602 0.26825548
v 2.87681209 -6.90971177 0.35873665
v -0.15382017 -4.71037602 0.07374453
v 2.87681209 -6.90971177 -0.01673664
v -0.13068505 -4.74964879 0.26844867
v 2.90198225 -6.92160813 0.27551279
v -0.13068505 -4.74964879 0.07355134
v 2.90198225 -6.92160813 0.06648722
v -0.11117823 -4.78010262 0.26853527
v 2.25806190 -6.86947653 0.27495628
v -0.11117823 -4.78010262 0.07346474
v 2.25806190 -6.86947653 0.06704373
v -0.09532594 -4.80278026 0.26861710
v 0.25166612 -5.22966316 0.26866152
v -0.09532594 -4.80278026 0.07338291
v 0.25166612 -5.22966316 0.07333849
v 0.20512630 -5.18137477 0.26869667
v 0.22919798 -5.20875315 0.26881315
v 0.20512630 -5.18137477 0.07330334
v 0.22919798 -5.20875315 0.07318686
f 1 2 5
f 1 5 3
f 1 3 7
f 1 7 11
f 1 11 15
f 1 15 19
f 1 19 23
f 1 23 27
f 1 27 31
f 1 31 35
f 1 35 39
f 1 39 43
f 1 43 47
f 1 47 51
f 1 51 55
f 1 55 59
f 1 59 60
f 1 60 56
f 1 56 52
f 1 52 48
f 1 48 44
f 1 44 40
f 1 40 36
f 1 36 32
f 1 32 28
f 1 28 24
f 1 24 20
f 1 20 16
f 1 16 12
f 1 12 8
f 1 8 4
f 1 4 6
f 1 6 2
f 2 6 10
f 2 10 14
f 2 14 18
f 2 18 22
f 2 22 26
f 2 26 30
f 2 30 34
f 2 34 38
f 2 38 42
f 2 42 46
f 2 46 50
f 2 50 54
f 2 54 58
f 2 58 62
f 2 62 61
f 2 61 57
f 2 57 53
f 2 53 49
f 2 49 45
f 2 45 41
f 2 41 37
f 2 37 33
f 2 33 29
f 2 29 25
f 2 25 21
f 2 21 17
f 2 17 13
f 2 13 9
f 2 9 5
f 3 5 9
f 3 9 7
f 4 8 10
f 4 10 6
f 7 9 13
f 7 13 11
f 8 12 14
f 8 14 10
f 11 13 17
f 11 17 15
f 12 16 18
f 12 18 14
f 15 17 21
f 15 21 19
f 16 20 22
f 16 22 18
f 19 21 25
f 19 25 23
f 20 24 26
f 20 26 22
f 23 25 29
f 23 29 27
f 24 28 30
f 24 30 26
f 27 29 33
f 27 33 31
f 28 32 34
f 28 34 30
f 31 33 37
f 31 37 35
f 32 36 38
f 32 38 34
f 35 37 41
f 35 41 39
f 36 40 42
f 36 42 38
f 39 41 45
f 39 45 43
f 40 44 46
f 40 46 42
f 43 45 49
f 43 49 47
f 44 48 50
f 44 50 46
f 47 49 53
f 47 53 51
f 48 52 54
f 48 54 50
f 51 53 57
f 51 57 55
f 52 56 58
f 52 58 54
f 55 57 61
f 55 61 59
f 56 60 62
f 56 62 58
f 59 61 62
f 59 62 60

