# https://github.com/mikedh/trimesh
v 2.33296575 8.40468826 0.27427265
v 2.34333681 8.40803273 0.37596152
v 2.33296575 8.40468826 0.06772736
v 1.76096209 8.35482191 0.27233958
v 2.34333681 8.40803273 -0.03396151
v 2.20925872 8.22321984 0.27274098
v 1.76096209 8.35482191 0.06966043
v 0.95920026 8.14889547 0.28204286
v 2.20925872 8.22321984 0.06925903
v 2.08443001 8.06695492 0.27085529
v 0.95920026 8.14889547 0.05995715
v 0.92670406 7.49550901 0.39365905
v 2.08443001 8.06695492 0.07114472
v 1.97131175 7.96611155 0.26992650
v 0.92670406 7.49550901 -0.05165904
v 0.81545369 7.59643621 0.38792301
v 1.97131175 7.96611155 0.07207351
v 1.84361549 7.87326156 0.26960620
v 0.81545369 7.59643621 -0.04592300
v 0.94863142 7.64204452 0.29250523
v 1.84361549 7.87326156 0.07239381
v 1.70557149 7.79247086 0.26933893
v 0.94863142 7.64204452 0.04949478
v 1.02275563 7.62334908 0.27305297
v 1.70557149 7.79247086 0.07266108
v 1.56395402 7.72442777 0.26936124
v 1.02275563 7.62334908 0.06894704
v 1.14572169 7.61861387 0.26986072
v 1.56395402 7.72442777 0.07263877
v 1.41897152 7.67191174 0.26928885
v 1.14572169 7.61861387 0.07213929
v 1.27868996 7.63605886 0.26946210
v 1.41897152 7.67191174 0.07271116
v 1.27868996 7.63605886 0.07253791
f 1 2 5
f 1 5 3
f 1 3 7
f 1 7 4
f 1 4 8
f 1 8 12
f 1 12 16
f 1 16 20
f 1 20 24
f 1 24 28
f 1 28 32
f 1 32 30
f 1 30 26
f 1 26 22
f 1 22 18
f 1 18 14
f 1 14 10
f 1 10 6
f 1 6 2
f 2 6 9
f 2 9 5
f 3 5 9
f 3 9 13
f 3 13 17
f 3 17 21
f 3 21 25
f 3 25 29
f 3 29 33
f 3 33 34
f 3 34 31
f 3 31 27
f 3 27 23
f 3 23 19
f 3 19 15
f 3 15 11
f 3 11 7
f 4 7 11
f 4 11 8
f 6 10 13
f 6 13 9
f 8 11 15
f 8 15 12
f 10 14 17
f 10 17 13
f 12 15 19
f 12 19 16
f 14 18 21
f 14 21 17
f 16 19 23
f 16 23 20
f 18 22 25
f 18 25 21
f 20 23 27
f 20 27 24
f 22 26 29
f 22 29 25
f 24 27 31
f 24 31 28
f 26 30 33
f 26 33 29
f 28 31 34
f 28 34 32
f 30 32 34
f 30 34 33

