# https://github.com/mikedh/trimesh
v -5.37491845 -6.66166743 0.28274836
v -5.39325155 -7.35429191 0.27039144
v -5.37491845 -6.66166743 0.05925165
v -7.38813581 -7.28463751 0.28132480
v -5.39956570 -7.35927209 0.26843676
v -5.39325155 -7.35429191 0.07160857
v -7.38813581 -7.28463751 0.06067521
v -7.39587531 -7.91840125 0.38563212
v -5.41923387 -7.38167206 0.26870730
v -5.39956570 -7.35927209 0.07356325
v -7.39587531 -7.91840125 -0.04363211
v -7.51513014 -7.90340987 0.34675626
v -5.43475533 -7.39866361 0.26883157
v -5.41923387 -7.38167206 0.07329271
v -7.51513014 -7.90340987 -0.00475625
v -7.33101051 -7.85797194 0.27767094
v -5.45107971 -7.41415925 0.26878225
v -5.43475533 -7.39866361 0.07316844
v -7.33101051 -7.85797194 0.06432907
v -7.16625383 -7.87022776 0.26880346
v -5.45107971 -7.41415925 0.07321776
v -5.46712175 -7.42823596 0.26897732
v -7.16625383 -7.87022776 0.07319655
v -6.99103071 -7.87187441 0.26818301
v -5.46712175 -7.42823596 0.07302269
v -5.47858896 -7.43750883 0.26915492
v -6.99103071 -7.87187441 0.07381700
v -6.81574511 -7.86967165 0.26829459
v -5.47858896 -7.43750883 0.07284509
v -5.65715933 -7.55552282 0.26871907
v -6.81574511 -7.86967165 0.07370542
v -6.66065970 -7.86274239 0.26846537
v -5.65715933 -7.55552282 0.07328094
v -5.67554967 -7.56712980 0.26895377
v -6.66065970 -7.86274239 0.07353464
v -6.55141357 -7.85251755 0.26954550
v -5.67554967 -7.56712980 0.07304624
v -5.69450597 -7.57709369 0.26883643
v -6.55141357 -7.85251755 0.07245451
v -6.50193174 -7.83997100 0.26907659
v -5.69450597 -7.57709369 0.07316358
v -5.71671179 -7.58641029 0.26854604
v -6.50193174 -7.83997100 0.07292342
v -5.74200210 -7.59551254 0.26841879
v -5.71671179 -7.58641029 0.07345397
v -5.74200210 -7.59551254 0.07358122
f 1 2 6
f 1 6 3
f 1 3 7
f 1 7 4
f 1 4 8
f 1 8 12
f 1 12 16
f 1 16 20
f 1 20 24
f 1 24 28
f 1 28 32
f 1 32 36
f 1 36 40
f 1 40 44
f 1 44 42
f 1 42 38
f 1 38 34
f 1 34 30
f 1 30 26
f 1 26 22
f 1 22 17
f 1 17 13
f 1 13 9
f 1 9 5
f 1 5 2
f 2 5 10
f 2 10 6
f 3 6 10
f 3 10 14
f 3 14 18
f 3 18 21
f 3 21 25
f 3 25 29
f 3 29 33
f 3 33 37
f 3 37 41
f 3 41 45
f 3 45 46
f 3 46 43
f 3 43 39
f 3 39 35
f 3 35 31
f 3 31 27
f 3 27 23
f 3 23 19
f 3 19 15
f 3 15 11
f 3 11 7
f 4 7 11
f 4 11 8
f 5 9 14
f 5 14 10
f 8 11 15
f 8 15 12
f 9 13 18
f 9 18 14
f 12 15 19
f 12 19 16
f 13 17 21
f 13 21 18
f 16 19 23
f 16 23 20
f 17 22 25
f 17 25 21
f 20 23 27
f 20 27 24
f 22 26 29
f 22 29 25
f 24 27 31
f 24 31 28
f 26 30 33
f 26 33 29
f 28 31 35
f 28 35 32
f 30 34 37
f 30 37 33
f 32 35 39
f 32 39 36
f 34 38 41
f 34 41 37
f 36 39 43
f 36 43 40
f 38 42 45
f 38 45 41
f 40 43 46
f 40 46 44
f 42 44 46
f 42 46 45

