# https://github.com/mikedh/trimesh
v 5.98331644 -4.99717418 0.07329083
v 5.98829173 -5.15116176 0.07314973
v 5.98238918 -4.99845039 0.26769769
v 5.97475725 -4.92714455 0.06201499
v 5.98794328 -5.15120402 0.26849209
v 6.00362002 -5.28410017 0.07296461
v 5.97054251 -4.92872573 0.27766782
v 6.45666637 -4.93982668 0.06521198
v 6.00348120 -5.28413656 0.26888812
v 6.03065310 -5.40385746 0.07283239
v 6.00266847 -4.94017309 0.26645865
v 7.05236547 -5.84997298 0.06803867
v 6.44672154 -4.91786598 0.27059233
v 6.03058729 -5.40388569 0.26909406
v 6.07318968 -5.51698810 0.07296814
v 6.53558467 -4.91188633 0.26801428
v 7.05241852 -5.85006416 0.27393465
v 7.09429950 -6.43596249 0.04208071
v 6.07314967 -5.51701090 0.26898457
v 6.13209124 -5.63127989 0.07307926
v 7.09430503 -6.43596543 0.29991161
v 7.11406377 -6.39478873 0.02014978
v 6.13206452 -5.63129908 0.26888707
v 6.21207277 -5.75144888 0.07341093
v 7.11405201 -6.39478944 0.32186638
v 6.59026705 -6.14190699 0.07272927
v 6.21205230 -5.75146573 0.26856205
v 6.31397420 -5.88176833 0.07357862
v 6.59026381 -6.14191527 0.26926140
v 6.54715566 -6.11701657 0.07343538
v 6.31395743 -5.88178355 0.26839834
v 6.44179772 -6.02885090 0.07332686
v 6.54715033 -6.11702608 0.26855342
v 6.50914959 -6.09165239 0.07302060
v 6.44178596 -6.02886387 0.26865524
v 6.47570752 -6.06168721 0.07331481
v 6.50914280 -6.09166276 0.26896670
v 6.47569767 -6.06169885 0.26866955
f 1 2 5
f 1 5 3
f 1 3 7
f 1 7 4
f 1 4 8
f 1 8 12
f 1 12 18
f 1 18 22
f 1 22 26
f 1 26 30
f 1 30 34
f 1 34 36
f 1 36 32
f 1 32 28
f 1 28 24
f 1 24 20
f 1 20 15
f 1 15 10
f 1 10 6
f 1 6 2
f 2 6 9
f 2 9 5
f 3 5 9
f 3 9 14
f 3 14 19
f 3 19 23
f 3 23 27
f 3 27 31
f 3 31 35
f 3 35 38
f 3 38 37
f 3 37 33
f 3 33 29
f 3 29 25
f 3 25 21
f 3 21 17
f 3 17 16
f 3 16 11
f 3 11 7
f 4 7 11
f 4 11 13
f 4 13 8
f 6 10 14
f 6 14 9
f 8 13 17
f 8 17 12
f 10 15 19
f 10 19 14
f 11 16 13
f 12 17 21
f 12 21 18
f 13 16 17
f 15 20 23
f 15 23 19
f 18 21 25
f 18 25 22
f 20 24 27
f 20 27 23
f 22 25 29
f 22 29 26
f 24 28 31
f 24 31 27
f 26 29 33
f 26 33 30
f 28 32 35
f 28 35 31
f 30 33 37
f 30 37 34
f 32 36 38
f 32 38 35
f 34 37 38
f 34 38 36

