# https://github.com/mikedh/trimesh
v -7.57382085 7.37133429 0.26866089
v -7.43506232 7.36950045 0.26842507
v -7.57382085 7.37133429 0.07333912
v -7.71331856 7.36517965 0.35163233
v -7.43506232 7.36950045 0.07357494
v -7.30416480 7.36362279 0.26841457
v -7.71331856 7.36517965 -0.00963232
v -7.88018357 7.41430553 0.32431011
v -7.30416480 7.36362279 0.07358544
v -7.19676648 7.35587525 0.26839785
v -7.88018357 7.41430553 0.01768990
v -7.84161995 7.41852739 0.28933676
v -7.19676648 7.35587525 0.07360216
v -7.12448293 7.34578560 0.26833322
v -7.84161995 7.41852739 0.05266325
v -7.83972838 6.90105333 0.27855767
v -7.12448293 7.34578560 0.07366679
v -7.02009115 7.32192195 0.26806477
v -7.83972838 6.90105333 0.06344234
v -6.35609273 6.27697519 0.27377214
v -7.02009115 7.32192195 0.07393524
v -6.92453312 7.29816443 0.26812283
v -6.35609273 6.27697519 0.06822787
v -5.77451754 6.23961867 0.36190926
v -6.92453312 7.29816443 0.07387718
v -6.84151215 7.27562773 0.26821270
v -5.77451754 6.23961867 -0.01990925
v -5.82369981 6.16271615 0.33084280
v -6.84151215 7.27562773 0.07378731
v -6.77023126 7.25394697 0.26830588
v -5.82369981 6.16271615 0.01115721
v -5.86888691 6.29460756 0.27266882
v -6.77023126 7.25394697 0.07369413
v -6.70791152 7.23371565 0.26844817
v -5.86888691 6.29460756 0.06933119
v -5.88119928 6.37093237 0.26882614
v -6.70791152 7.23371565 0.07355184
v -6.65507395 7.21331195 0.26846448
v -5.88119928 6.37093237 0.07317387
v -5.89740809 6.42930134 0.26868196
v -6.65507395 7.21331195 0.07353553
v -6.60921811 7.19233118 0.26842172
v -5.89740809 6.42930134 0.07331805
v -5.96334285 6.60733309 0.26845536
v -6.60921811 7.19233118 0.07357829
v -6.56909872 7.17094799 0.26832740
v -5.96334285 6.60733309 0.07354465
v -5.96894357 6.62008864 0.26837752
v -6.56909872 7.17094799 0.07367261
v -6.52061975 7.13998224 0.26800632
v -5.96894357 6.62008864 0.07362249
v -5.97684998 6.63642904 0.26860455
v -6.52061975 7.13998224 0.07399369
v -6.46604214 7.10380109 0.26806076
v -5.97684998 6.63642904 0.07339546
v -5.98763453 6.65340754 0.26844240
v -6.46604214 7.10380109 0.07393925
v -6.41058566 7.06495717 0.26804680
v -5.98763453 6.65340754 0.07355761
v -6.00206851 6.67510799 0.26842766
v -6.41058566 7.06495717 0.07395321
v -6.35679875 7.02490643 0.26802203
v -6.00206851 6.67510799 0.07357235
v -6.01887413 6.69734144 0.26828480
v -6.35679875 7.02490643 0.07397798
v -6.30573850 6.98547946 0.26815926
v -6.01887413 6.69734144 0.07371521
v -6.03667732 6.71950936 0.26839305
v -6.30573850 6.98547946 0.07384075
v -6.26126510 6.95020065 0.26837318
v -6.03667732 6.71950936 0.07360696
v -6.19146167 6.88430264 0.26819271
v -6.26126510 6.95020065 0.07362683
v -6.22642525 6.91904559 0.26827995
v -6.19146167 6.88430264 0.07380730
v -6.22642525 6.91904559 0.07372006
f 1 2 5
f 1 5 3
f 1 3 7
f 1 7 4
f 1 4 8
f 1 8 12
f 1 12 16
f 1 16 20
f 1 20 24
f 1 24 28
f 1 28 32
f 1 32 36
f 1 36 40
f 1 40 44
f 1 44 48
f 1 48 52
f 1 52 56
f 1 56 60
f 1 60 64
f 1 64 68
f 1 68 72
f 1 72 74
f 1 74 70
f 1 70 66
f 1 66 62
f 1 62 58
f 1 58 54
f 1 54 50
f 1 50 46
f 1 46 42
f 1 42 38
f 1 38 34
f 1 34 30
f 1 30 26
f 1 26 22
f 1 22 18
f 1 18 14
f 1 14 10
f 1 10 6
f 1 6 2
f 2 6 9
f 2 9 5
f 3 5 9
f 3 9 13
f 3 13 17
f 3 17 21
f 3 21 25
f 3 25 29
f 3 29 33
f 3 33 37
f 3 37 41
f 3 41 45
f 3 45 49
f 3 49 53
f 3 53 57
f 3 57 61
f 3 61 65
f 3 65 69
f 3 69 73
f 3 73 76
f 3 76 75
f 3 75 71
f 3 71 67
f 3 67 63
f 3 63 59
f 3 59 55
f 3 55 51
f 3 51 47
f 3 47 43
f 3 43 39
f 3 39 35
f 3 35 31
f 3 31 27
f 3 27 23
f 3 23 19
f 3 19 15
f 3 15 11
f 3 11 7
f 4 7 11
f 4 11 8
f 6 10 13
f 6 13 9
f 8 11 15
f 8 15 12
f 10 14 17
f 10 17 13
f 12 15 19
f 12 19 16
f 14 18 21
f 14 21 17
f 16 19 23
f 16 23 20
f 18 22 25
f 18 25 21
f 20 23 27
f 20 27 24
f 22 26 29
f 22 29 25
f 24 27 31
f 24 31 28
f 26 30 33
f 26 33 29
f 28 31 35
f 28 35 32
f 30 34 37
f 30 37 33
f 32 35 39
f 32 39 36
f 34 38 41
f 34 41 37
f 36 39 43
f 36 43 40
f 38 42 45
f 38 45 41
f 40 43 47
f 40 47 44
f 42 46 49
f 42 49 45
f 44 47 51
f 44 51 48
f 46 50 53
f 46 53 49
f 48 51 55
f 48 55 52
f 50 54 57
f 50 57 53
f 52 55 59
f 52 59 56
f 54 58 61
f 54 61 57
f 56 59 63
f 56 63 60
f 58 62 65
f 58 65 61
f 60 63 67
f 60 67 64
f 62 66 69
f 62 69 65
f 64 67 71
f 64 71 68
f 66 70 73
f 66 73 69
f 68 71 75
f 68 75 72
f 70 74 76
f 70 76 73
f 72 75 76
f 72 76 74

