# https://github.com/mikedh/trimesh
v 9.19258348 -2.62249214 0.06013340
v 9.19258348 -2.62249214 0.28186661
v 9.80105980 -2.62135989 0.07022709
v 9.45724629 -4.70741619 0.06030502
v 9.80105980 -2.62135989 0.27177292
v 9.45724629 -4.70741619 0.28169499
v 9.79795899 -2.61242423 0.07161808
v 10.03917797 -4.72364528 -0.01038498
v 9.79795899 -2.61242423 0.27038193
v 10.03917797 -4.72364528 0.35238499
v 9.85142172 -2.74444302 0.07365314
v 9.98722496 -4.79574100 -0.00799363
v 9.85142172 -2.74444302 0.26834687
v 9.98722496 -4.79574100 0.34999364
v 9.90038996 -2.86034605 0.07341616
v 9.99731733 -4.61653620 0.06648154
v 9.90038996 -2.86034605 0.26858385
v 9.99731733 -4.61653620 0.27551847
v 9.94237697 -2.97255932 0.07349030
v 10.04265725 -4.48770923 0.07313991
v 9.94237697 -2.97255932 0.26850971
v 10.04265725 -4.48770923 0.26886010
v 9.98475004 -3.10028144 0.07362838
v 10.07008794 -4.38324045 0.07294660
v 9.98475004 -3.10028144 0.26837163
v 10.07008794 -4.38324045 0.26905341
v 10.03434593 -3.26421508 0.07359624
v 10.08424286 -4.28909123 0.07315651
v 10.03434593 -3.26421508 0.26840377
v 10.08424286 -4.28909123 0.26884350
v 10.05299910 -3.32909674 0.07306043
v 10.09423348 -4.15934829 0.07348190
v 10.05299910 -3.32909674 0.26893958
v 10.09423348 -4.15934829 0.26851811
v 10.07052905 -3.41246023 0.07298033
v 10.09930284 -4.00534908 0.07363406
v 10.07052905 -3.41246023 0.26901968
v 10.09930284 -4.00534908 0.26836595
v 10.08439076 -3.53332355 0.07348152
v 10.09932656 -3.84268951 0.07365901
v 10.08439076 -3.53332355 0.26851849
v 10.09932656 -3.84268951 0.26834100
v 10.09433005 -3.68104210 0.07359868
v 10.09433005 -3.68104210 0.26840133
f 1 2 5
f 1 5 3
f 1 3 7
f 1 7 11
f 1 11 15
f 1 15 19
f 1 19 23
f 1 23 27
f 1 27 31
f 1 31 35
f 1 35 39
f 1 39 43
f 1 43 40
f 1 40 36
f 1 36 32
f 1 32 28
f 1 28 24
f 1 24 20
f 1 20 16
f 1 16 12
f 1 12 8
f 1 8 4
f 1 4 6
f 1 6 2
f 2 6 10
f 2 10 14
f 2 14 18
f 2 18 22
f 2 22 26
f 2 26 30
f 2 30 34
f 2 34 38
f 2 38 42
f 2 42 44
f 2 44 41
f 2 41 37
f 2 37 33
f 2 33 29
f 2 29 25
f 2 25 21
f 2 21 17
f 2 17 13
f 2 13 9
f 2 9 5
f 3 5 9
f 3 9 7
f 4 8 10
f 4 10 6
f 7 9 13
f 7 13 11
f 8 12 14
f 8 14 10
f 11 13 17
f 11 17 15
f 12 16 18
f 12 18 14
f 15 17 21
f 15 21 19
f 16 20 22
f 16 22 18
f 19 21 25
f 19 25 23
f 20 24 26
f 20 26 22
f 23 25 29
f 23 29 27
f 24 28 30
f 24 30 26
f 27 29 33
f 27 33 31
f 28 32 34
f 28 34 30
f 31 33 37
f 31 37 35
f 32 36 38
f 32 38 34
f 35 37 41
f 35 41 39
f 36 40 42
f 36 42 38
f 39 41 44
f 39 44 43
f 40 43 44
f 40 44 42

