# https://github.com/mikedh/trimesh
v -2.65413201 9.05761055 0.05937558
v -2.65413201 9.05761055 0.28262443
v -2.65621697 9.11383012 0.00068714
v -2.18277841 9.07404444 0.06422255
v -2.18277841 9.07404444 0.27777746
v -2.65621697 9.11383012 0.34131287
v -2.58903233 9.28684063 0.06486059
v -1.43542542 10.30629068 0.06813741
v -1.43542542 10.30629068 0.27386260
v -2.58903233 9.28684063 0.27713942
v -2.55229674 9.43723018 0.07059479
v -1.39799167 10.92130231 0.05835979
v -1.39799167 10.92130231 0.28364022
v -2.55229674 9.43723018 0.27140522
v -2.50767856 9.54718010 0.07161417
v -1.41096513 10.88133550 0.06060562
v -1.41096513 10.88133550 0.28139439
v -2.50767856 9.54718010 0.27038584
v -2.37617445 9.82239035 0.07226984
v -1.47899725 10.84506835 0.07153946
v -1.47899725 10.84506835 0.27046055
v -2.37617445 9.82239035 0.26973017
v -2.35677110 9.86261472 0.07244569
v -1.57325271 10.77081168 0.07308462
v -1.57325271 10.77081168 0.26891539
v -2.35677110 9.86261472 0.26955432
v -2.33663153 9.90225459 0.07259903
v -1.69256355 10.66588901 0.07348354
v -1.69256355 10.66588901 0.26851647
v -2.33663153 9.90225459 0.26940098
v -2.31547833 9.94198613 0.07271887
v -1.82040923 10.54708172 0.07358645
v -1.82040923 10.54708172 0.26841356
v -2.31547833 9.94198613 0.26928114
v -2.29462908 9.97904772 0.07280490
v -1.94310311 10.42819738 0.07353153
v -1.94310311 10.42819738 0.26846848
v -2.29462908 9.97904772 0.26919511
v -2.27368330 10.01337316 0.07284838
v -2.04698730 10.32200426 0.07333239
v -2.04698730 10.32200426 0.26866762
v -2.27368330 10.01337316 0.26915163
v -2.25373763 10.04465552 0.07283588
v -2.11633015 10.24425851 0.07265444
v -2.11633015 10.24425851 0.26934557
v -2.25373763 10.04465552 0.26916413
f 1 2 6
f 1 6 3
f 1 3 7
f 1 7 11
f 1 11 15
f 1 15 19
f 1 19 23
f 1 23 27
f 1 27 31
f 1 31 35
f 1 35 39
f 1 39 43
f 1 43 44
f 1 44 40
f 1 40 36
f 1 36 32
f 1 32 28
f 1 28 24
f 1 24 20
f 1 20 16
f 1 16 12
f 1 12 8
f 1 8 4
f 1 4 5
f 1 5 2
f 2 5 9
f 2 9 13
f 2 13 17
f 2 17 21
f 2 21 25
f 2 25 29
f 2 29 33
f 2 33 37
f 2 37 41
f 2 41 45
f 2 45 46
f 2 46 42
f 2 42 38
f 2 38 34
f 2 34 30
f 2 30 26
f 2 26 22
f 2 22 18
f 2 18 14
f 2 14 10
f 2 10 6
f 3 6 10
f 3 10 7
f 4 8 9
f 4 9 5
f 7 10 14
f 7 14 11
f 8 12 13
f 8 13 9
f 11 14 18
f 11 18 15
f 12 16 17
f 12 17 13
f 15 18 22
f 15 22 19
f 16 20 21
f 16 21 17
f 19 22 26
f 19 26 23
f 20 24 25
f 20 25 21
f 23 26 30
f 23 30 27
f 24 28 29
f 24 29 25
f 27 30 34
f 27 34 31
f 28 32 33
f 28 33 29
f 31 34 38
f 31 38 35
f 32 36 37
f 32 37 33
f 35 38 42
f 35 42 39
f 36 40 41
f 36 41 37
f 39 42 46
f 39 46 43
f 40 44 45
f 40 45 41
f 43 46 45
f 43 45 44

