# https://github.com/mikedh/trimesh
v 2.00395921 -10.02576323 0.31495680
v 1.96333099 -9.98652479 0.32343834
v 2.00395921 -10.02576323 0.02704321
v -0.02567676 -10.56658115 0.27986783
v 1.96333099 -9.98652479 0.01856167
v 1.93496944 -10.75756132 0.27633172
v -0.02567676 -10.56658115 0.06213218
v -0.02694603 -11.19310308 0.28000305
v 1.93496944 -10.75756132 0.06566829
v 1.76440883 -10.89073121 0.26892120
v -0.02694603 -11.19310308 0.06199696
v 0.25117942 -11.24700159 0.26912981
v 1.76440883 -10.89073121 0.07307881
v 1.76381250 -10.89073921 0.26903224
v 0.25117942 -11.24700159 0.07287020
v 0.31133129 -11.25676092 0.26881738
v 1.76381250 -10.89073921 0.07296777
v 1.24719767 -11.11109912 0.26911530
v 0.31133129 -11.25676092 0.07318263
v 0.37547471 -11.26213608 0.26887044
v 1.24719767 -11.11109912 0.07288471
v 1.20627848 -11.12300703 0.26841074
v 0.37547471 -11.26213608 0.07312957
v 0.44181533 -11.26221568 0.26875921
v 1.20627848 -11.12300703 0.07358927
v 1.17912299 -11.12965366 0.26828148
v 0.44181533 -11.26221568 0.07324080
v 0.51409924 -11.25761100 0.26869725
v 1.17912299 -11.12965366 0.07371853
v 1.14950598 -11.13627412 0.26830863
v 0.51409924 -11.25761100 0.07330276
v 0.58914991 -11.24821503 0.26881041
v 1.14950598 -11.13627412 0.07369138
v 0.58914991 -11.24821503 0.07318960
f 1 2 5
f 1 5 3
f 1 3 7
f 1 7 4
f 1 4 8
f 1 8 12
f 1 12 16
f 1 16 20
f 1 20 24
f 1 24 28
f 1 28 32
f 1 32 30
f 1 30 26
f 1 26 22
f 1 22 18
f 1 18 14
f 1 14 10
f 1 10 6
f 1 6 2
f 2 6 9
f 2 9 5
f 3 5 9
f 3 9 13
f 3 13 17
f 3 17 21
f 3 21 25
f 3 25 29
f 3 29 33
f 3 33 34
f 3 34 31
f 3 31 27
f 3 27 23
f 3 23 19
f 3 19 15
f 3 15 11
f 3 11 7
f 4 7 11
f 4 11 8
f 6 10 13
f 6 13 9
f 8 11 15
f 8 15 12
f 10 14 17
f 10 17 13
f 12 15 19
f 12 19 16
f 14 18 21
f 14 21 17
f 16 19 23
f 16 23 20
f 18 22 25
f 18 25 21
f 20 23 27
f 20 27 24
f 22 26 29
f 22 29 25
f 24 27 31
f 24 31 28
f 26 30 33
f 26 33 29
f 28 31 34
f 28 34 32
f 30 32 34
f 30 34 33

