# https://github.com/mikedh/trimesh
v 9.16520434 5.23890408 0.05942721
v 9.16520434 5.23890408 0.28257280
v 9.73233705 5.22448305 0.06492241
v 9.47536781 4.15799752 0.06146317
v 9.73233705 5.22448305 0.27707760
v 9.47536781 4.15799752 0.28053684
v 9.75035289 5.16992966 0.07324227
v 10.00973063 4.13385529 0.00219752
v 9.75035289 5.16992966 0.26875774
v 10.00973063 4.13385529 0.33980249
v 9.79357074 5.05092985 0.07315978
v 9.94105203 4.05773186 -0.01671982
v 9.79357074 5.05092985 0.26884023
v 9.94105203 4.05773186 0.35871983
v 9.82942208 4.92913506 0.07327408
v 9.90893900 4.17759931 0.06226192
v 9.82942208 4.92913506 0.26872593
v 9.90893900 4.17759931 0.27973809
v 9.85956600 4.80184755 0.07335239
v 9.91639102 4.26159981 0.07267035
v 9.85956600 4.80184755 0.26864762
v 9.91639102 4.26159981 0.26932966
v 9.88396617 4.67146814 0.07334289
v 9.91311203 4.40154494 0.07337224
v 9.88396617 4.67146814 0.26865712
v 9.91311203 4.40154494 0.26862777
v 9.90231280 4.53740771 0.07329007
v 9.90231280 4.53740771 0.26870994
f 1 2 5
f 1 5 3
f 1 3 7
f 1 7 11
f 1 11 15
f 1 15 19
f 1 19 23
f 1 23 27
f 1 27 24
f 1 24 20
f 1 20 16
f 1 16 12
f 1 12 8
f 1 8 4
f 1 4 6
f 1 6 2
f 2 6 10
f 2 10 14
f 2 14 18
f 2 18 22
f 2 22 26
f 2 26 28
f 2 28 25
f 2 25 21
f 2 21 17
f 2 17 13
f 2 13 9
f 2 9 5
f 3 5 9
f 3 9 7
f 4 8 10
f 4 10 6
f 7 9 13
f 7 13 11
f 8 12 14
f 8 14 10
f 11 13 17
f 11 17 15
f 12 16 18
f 12 18 14
f 15 17 21
f 15 21 19
f 16 20 22
f 16 22 18
f 19 21 25
f 19 25 23
f 20 24 26
f 20 26 22
f 23 25 28
f 23 28 27
f 24 27 28
f 24 28 26

