# https://github.com/mikedh/trimesh
v 2.29811561 -6.99871678 0.05957070
v 2.29811561 -6.99871678 0.28242931
v 2.94605858 -7.00041665 0.04597766
v 2.65425823 -8.36527933 0.06208744
v 2.94605858 -7.00041665 0.29602235
v 2.65425823 -8.36527933 0.27991257
v 2.94475995 -6.98201034 0.07176655
v 3.23151725 -8.37509171 0.06054238
v 2.94475995 -6.98201034 0.27023346
v 3.23151725 -8.37509171 0.28145763
v 2.96154611 -7.08126719 0.07295939
v 3.21607005 -8.33670265 0.06891665
v 2.96154611 -7.08126719 0.26904062
v 3.21607005 -8.33670265 0.27308336
v 2.98035685 -7.12694009 0.07361808
v 3.20910449 -8.18820417 0.07323173
v 2.98035685 -7.12694009 0.26838193
v 3.20910449 -8.18820417 0.26876828
v 3.07491340 -7.37395928 0.07351621
v 3.19273705 -8.03023488 0.07365816
v 3.07491340 -7.37395928 0.26848380
v 3.19273705 -8.03023488 0.26834185
v 3.09232224 -7.42250353 0.07313758
v 3.15501308 -7.74116007 0.07366485
v 3.09232224 -7.42250353 0.26886243
v 3.15501308 -7.74116007 0.26833516
v 3.10813530 -7.47879698 0.07331488
v 3.13834143 -7.63473045 0.07378051
v 3.10813530 -7.47879698 0.26868513
v 3.13834143 -7.63473045 0.26821950
v 3.12339302 -7.54783415 0.07346674
v 3.12339302 -7.54783415 0.26853327
f 1 2 5
f 1 5 3
f 1 3 7
f 1 7 11
f 1 11 15
f 1 15 19
f 1 19 23
f 1 23 27
f 1 27 31
f 1 31 28
f 1 28 24
f 1 24 20
f 1 20 16
f 1 16 12
f 1 12 8
f 1 8 4
f 1 4 6
f 1 6 2
f 2 6 10
f 2 10 14
f 2 14 18
f 2 18 22
f 2 22 26
f 2 26 30
f 2 30 32
f 2 32 29
f 2 29 25
f 2 25 21
f 2 21 17
f 2 17 13
f 2 13 9
f 2 9 5
f 3 5 9
f 3 9 7
f 4 8 10
f 4 10 6
f 7 9 13
f 7 13 11
f 8 12 14
f 8 14 10
f 11 13 17
f 11 17 15
f 12 16 18
f 12 18 14
f 15 17 21
f 15 21 19
f 16 20 22
f 16 22 18
f 19 21 25
f 19 25 23
f 20 24 26
f 20 26 22
f 23 25 29
f 23 29 27
f 24 28 30
f 24 30 26
f 27 29 32
f 27 32 31
f 28 31 32
f 28 32 30

