# https://github.com/mikedh/trimesh
v 6.81324617 3.43676067 0.07330563
v 6.81324617 3.43676067 0.26869438
v 6.81638269 3.59842694 0.07323662
v 6.78856319 3.31591851 -0.06223138
v 6.81638269 3.59842694 0.26876339
v 6.78856319 3.31591851 0.40423139
v 6.86660104 4.94674608 0.07292733
v 6.77048769 3.14100195 -0.06010083
v 6.86660104 4.94674608 0.26907268
v 6.77048769 3.14100195 0.40210084
v 6.87224698 5.01066038 0.07278610
v 6.67262670 3.18375595 0.01457653
v 6.87224698 5.01066038 0.26921391
v 6.67262670 3.18375595 0.32742348
v 6.88214267 5.06725599 0.07252773
v 7.30695199 3.23735934 0.06112367
v 6.88214267 5.06725599 0.26947228
v 7.30695199 3.23735934 0.28087634
v 6.89576735 5.11308825 0.07216506
v 7.34933924 5.02103100 0.07258041
v 6.89576735 5.11308825 0.26983495
v 7.34933924 5.02103100 0.26941960
v 6.91219704 5.14894678 0.07169761
v 7.34796396 5.03471964 0.07267658
v 6.91219704 5.14894678 0.27030240
v 7.34796396 5.03471964 0.26932343
v 6.92652634 5.16986745 0.07138284
v 7.34412705 5.04810526 0.07297242
v 6.92652634 5.16986745 0.27061717
v 7.34412705 5.04810526 0.26902759
v 6.93646278 5.17877667 0.07150643
v 7.33441153 5.06813140 0.07352584
v 6.93646278 5.17877667 0.27049358
v 7.33441153 5.06813140 0.26847417
v 6.96196498 5.19027035 0.07276720
v 7.31925512 5.09618134 0.07320537
v 6.96196498 5.19027035 0.26923281
v 7.31925512 5.09618134 0.26879464
v 6.99972238 5.20188160 0.07297822
v 7.31036077 5.10989513 0.07317153
v 6.99972238 5.20188160 0.26902179
v 7.31036077 5.10989513 0.26882848
v 7.04348386 5.20996369 0.07331582
v 7.28227242 5.14460767 0.07359106
v 7.04348386 5.20996369 0.26868419
v 7.28227242 5.14460767 0.26840895
v 7.08827444 5.21448717 0.07340967
v 7.26668344 5.16186924 0.07351325
v 7.08827444 5.21448717 0.26859034
v 7.26668344 5.16186924 0.26848676
v 7.13215975 5.21584086 0.07306247
v 7.25360520 5.17478579 0.07336597
v 7.13215975 5.21584086 0.26893754
v 7.25360520 5.17478579 0.26863404
v 7.16941690 5.21324320 0.07273690
v 7.23776516 5.18775792 0.07330034
v 7.16941690 5.21324320 0.26926311
v 7.23776516 5.18775792 0.26869967
v 7.19976963 5.20711221 0.07251388
v 7.22636155 5.19661952 0.07251006
v 7.19976963 5.20711221 0.26948613
v 7.22636155 5.19661952 0.26948995
v 7.22169825 5.19911348 0.07248591
v 7.22169825 5.19911348 0.26951410
f 1 2 5
f 1 5 3
f 1 3 7
f 1 7 11
f 1 11 15
f 1 15 19
f 1 19 23
f 1 23 27
f 1 27 31
f 1 31 35
f 1 35 39
f 1 39 43
f 1 43 47
f 1 47 51
f 1 51 55
f 1 55 59
f 1 59 63
f 1 63 60
f 1 60 56
f 1 56 52
f 1 52 48
f 1 48 44
f 1 44 40
f 1 40 36
f 1 36 32
f 1 32 28
f 1 28 24
f 1 24 20
f 1 20 16
f 1 16 12
f 1 12 8
f 1 8 4
f 1 4 6
f 1 6 2
f 2 6 10
f 2 10 14
f 2 14 18
f 2 18 22
f 2 22 26
f 2 26 30
f 2 30 34
f 2 34 38
f 2 38 42
f 2 42 46
f 2 46 50
f 2 50 54
f 2 54 58
f 2 58 62
f 2 62 64
f 2 64 61
f 2 61 57
f 2 57 53
f 2 53 49
f 2 49 45
f 2 45 41
f 2 41 37
f 2 37 33
f 2 33 29
f 2 29 25
f 2 25 21
f 2 21 17
f 2 17 13
f 2 13 9
f 2 9 5
f 3 5 9
f 3 9 7
f 4 8 10
f 4 10 6
f 7 9 13
f 7 13 11
f 8 12 14
f 8 14 10
f 11 13 17
f 11 17 15
f 12 16 18
f 12 18 14
f 15 17 21
f 15 21 19
f 16 20 22
f 16 22 18
f 19 21 25
f 19 25 23
f 20 24 26
f 20 26 22
f 23 25 29
f 23 29 27
f 24 28 30
f 24 30 26
f 27 29 33
f 27 33 31
f 28 32 34
f 28 34 30
f 31 33 37
f 31 37 35
f 32 36 38
f 32 38 34
f 35 37 41
f 35 41 39
f 36 40 42
f 36 42 38
f 39 41 45
f 39 45 43
f 40 44 46
f 40 46 42
f 43 45 49
f 43 49 47
f 44 48 50
f 44 50 46
f 47 49 53
f 47 53 51
f 48 52 54
f 48 54 50
f 51 53 57
f 51 57 55
f 52 56 58
f 52 58 54
f 55 57 61
f 55 61 59
f 56 60 62
f 56 62 58
f 59 61 64
f 59 64 63
f 60 63 64
f 60 64 62

