# https://github.com/mikedh/trimesh
v 2.50622133 -1.76751743 0.27068133
v 2.50622133 -1.76751743 0.07131868
v 2.09813234 -1.75212086 0.28112023
v 3.24128522 -1.95669695 0.27962951
v 2.09813234 -1.75212086 0.06087978
v 3.24128522 -1.95669695 0.06237050
v 2.10399564 -2.27291043 0.27971564
v 3.26202315 -2.51389246 0.30065754
v 2.10399564 -2.27291043 0.06228437
v 3.26202315 -2.51389246 0.04134247
v 2.67556100 -2.39935695 0.26887736
v 3.29227758 -2.48211453 0.31449294
v 2.67556100 -2.39935695 0.07312265
v 3.29227758 -2.48211453 0.02750707
v 3.15198775 -2.46403369 0.26977295
v 3.15198775 -2.46403369 0.07222706
f 1 2 5
f 1 5 3
f 1 3 7
f 1 7 11
f 1 11 15
f 1 15 12
f 1 12 8
f 1 8 4
f 1 4 6
f 1 6 2
f 2 6 10
f 2 10 14
f 2 14 16
f 2 16 13
f 2 13 9
f 2 9 5
f 3 5 9
f 3 9 7
f 4 8 10
f 4 10 6
f 7 9 13
f 7 13 11
f 8 12 14
f 8 14 10
f 11 13 16
f 11 16 15
f 12 15 16
f 12 16 14

