# https://github.com/mikedh/trimesh
v -1.91426748 -8.90913919 0.05718760
v -1.38009459 -8.90171891 0.06464281
v -1.91426748 -8.90913919 0.28481241
v -1.92832582 -8.89673506 0.01667987
v -1.38009459 -8.90171891 0.27735720
v -0.90969106 -8.21365669 0.06696966
v -1.92832582 -8.89673506 0.32532014
v -1.86985528 -8.76807422 0.04526355
v -0.90969106 -8.21365669 0.27503035
v -0.87736482 -7.54262403 0.00062167
v -1.86985528 -8.76807422 0.29673646
v -1.85044931 -8.65212253 0.06951182
v -0.87736482 -7.54262403 0.34137834
v -0.79185711 -7.59676827 -0.02029708
v -1.85044931 -8.65212253 0.27248819
v -1.74357364 -8.37200935 0.07177511
v -0.79185711 -7.59676827 0.36229709
v -0.91401847 -7.66360637 0.06186555
v -1.74357364 -8.37200935 0.27022490
v -1.71447224 -8.31013291 0.07227371
v -0.91401847 -7.66360637 0.28013446
v -0.98816209 -7.68622874 0.07182178
v -1.71447224 -8.31013291 0.26972630
v -1.67285590 -8.23779673 0.07261965
v -0.98816209 -7.68622874 0.27017823
v -1.17402987 -7.77803571 0.07342579
v -1.67285590 -8.23779673 0.26938036
v -1.62570928 -8.16255315 0.07267202
v -1.17402987 -7.77803571 0.26857422
v -1.21455818 -7.80027081 0.07326925
v -1.62570928 -8.16255315 0.26932799
v -1.57576032 -8.09161096 0.07264907
v -1.21455818 -7.80027081 0.26873076
v -1.25945179 -7.82919431 0.07343689
v -1.57576032 -8.09161096 0.26935094
v -1.52799390 -8.02994312 0.07248170
v -1.25945179 -7.82919431 0.26856312
v -1.45947412 -7.96464168 0.07307386
v -1.52799390 -8.02994312 0.26951831
v -1.48884184 -7.98787452 0.07260174
v -1.45947412 -7.96464168 0.26892615
v -1.48884184 -7.98787452 0.26939827
f 1 2 5
f 1 5 3
f 1 3 7
f 1 7 4
f 1 4 8
f 1 8 12
f 1 12 16
f 1 16 20
f 1 20 24
f 1 24 28
f 1 28 32
f 1 32 36
f 1 36 40
f 1 40 38
f 1 38 34
f 1 34 30
f 1 30 26
f 1 26 22
f 1 22 18
f 1 18 14
f 1 14 10
f 1 10 6
f 1 6 2
f 2 6 9
f 2 9 5
f 3 5 9
f 3 9 13
f 3 13 17
f 3 17 21
f 3 21 25
f 3 25 29
f 3 29 33
f 3 33 37
f 3 37 41
f 3 41 42
f 3 42 39
f 3 39 35
f 3 35 31
f 3 31 27
f 3 27 23
f 3 23 19
f 3 19 15
f 3 15 11
f 3 11 7
f 4 7 11
f 4 11 8
f 6 10 13
f 6 13 9
f 8 11 15
f 8 15 12
f 10 14 17
f 10 17 13
f 12 15 19
f 12 19 16
f 14 18 21
f 14 21 17
f 16 19 23
f 16 23 20
f 18 22 25
f 18 25 21
f 20 23 27
f 20 27 24
f 22 26 29
f 22 29 25
f 24 27 31
f 24 31 28
f 26 30 33
f 26 33 29
f 28 31 35
f 28 35 32
f 30 34 37
f 30 37 33
f 32 35 39
f 32 39 36
f 34 38 41
f 34 41 37
f 36 39 42
f 36 42 40
f 38 40 42
f 38 42 41

