# https://github.com/mikedh/trimesh
v 9.78584922 3.06772904 0.34262944
v 9.72935644 3.15440041 0.40532894
v 9.78584922 3.06772904 -0.00062943
v 9.08401477 3.04150290 0.27228861
v 9.72935644 3.15440041 -0.06332893
v 9.59953153 3.02940547 0.38881038
v 9.08401477 3.04150290 0.06971140
v 9.06313340 3.03103981 0.27104516
v 9.59953153 3.02940547 -0.04681037
v 9.52809003 2.93025807 0.36415910
v 9.06313340 3.03103981 0.07095485
v 9.05159331 3.02519305 0.27114358
v 9.52809003 2.93025807 -0.02215909
v 9.46072191 2.84215339 0.34691319
v 9.05159331 3.02519305 0.07085643
v 8.22342630 2.60526092 0.28229989
v 9.46072191 2.84215339 -0.00491318
v 9.38811355 2.78973031 0.31357952
v 8.22342630 2.60526092 0.05970012
v 8.21204652 2.04524187 0.42152295
v 9.38811355 2.78973031 0.02842049
v 9.28595322 2.68592987 0.31641533
v 8.21204652 2.04524187 -0.07952294
v 8.06018172 2.04351929 0.38052149
v 9.28595322 2.68592987 0.02558468
v 9.20235304 2.60732063 0.30785789
v 8.06018172 2.04351929 -0.03852148
v 8.20286368 2.15855627 0.30668139
v 9.20235304 2.60732063 0.03414212
v 9.14581714 2.54179921 0.31517154
v 8.20286368 2.15855627 0.03531862
v 8.73696198 2.23001781 0.27048421
v 9.14581714 2.54179921 0.02682847
v 9.10221373 2.49567252 0.31093921
v 8.73696198 2.23001781 0.07151580
v 8.75010524 2.23227089 0.27030394
v 9.10221373 2.49567252 0.03106080
v 9.07194408 2.47748355 0.27697505
v 8.75010524 2.23227089 0.07169607
v 8.75374048 2.23364922 0.27043011
v 9.07194408 2.47748355 0.06502496
v 8.75915722 2.23889363 0.27157959
v 8.75374048 2.23364922 0.07156990
v 8.75915722 2.23889363 0.07042042
f 1 2 5
f 1 5 3
f 1 3 7
f 1 7 4
f 1 4 8
f 1 8 12
f 1 12 16
f 1 16 20
f 1 20 24
f 1 24 28
f 1 28 32
f 1 32 36
f 1 36 40
f 1 40 42
f 1 42 38
f 1 38 34
f 1 34 30
f 1 30 26
f 1 26 22
f 1 22 18
f 1 18 14
f 1 14 10
f 1 10 6
f 1 6 2
f 2 6 9
f 2 9 5
f 3 5 9
f 3 9 13
f 3 13 17
f 3 17 21
f 3 21 25
f 3 25 29
f 3 29 33
f 3 33 37
f 3 37 41
f 3 41 44
f 3 44 43
f 3 43 39
f 3 39 35
f 3 35 31
f 3 31 27
f 3 27 23
f 3 23 19
f 3 19 15
f 3 15 11
f 3 11 7
f 4 7 11
f 4 11 8
f 6 10 13
f 6 13 9
f 8 11 15
f 8 15 12
f 10 14 17
f 10 17 13
f 12 15 19
f 12 19 16
f 14 18 21
f 14 21 17
f 16 19 23
f 16 23 20
f 18 22 25
f 18 25 21
f 20 23 27
f 20 27 24
f 22 26 29
f 22 29 25
f 24 27 31
f 24 31 28
f 26 30 33
f 26 33 29
f 28 31 35
f 28 35 32
f 30 34 37
f 30 37 33
f 32 35 39
f 32 39 36
f 34 38 41
f 34 41 37
f 36 39 43
f 36 43 40
f 38 42 44
f 38 44 41
f 40 43 44
f 40 44 42

