# https://github.com/mikedh/trimesh
v -0.74866680 8.96350810 0.26954737
v -0.70679813 8.95867088 0.26940589
v -0.74866680 8.96350810 0.07245264
v -0.78809984 8.96185115 0.26963836
v -0.70679813 8.95867088 0.07259412
v -0.66518186 8.94904361 0.26932262
v -0.78809984 8.96185115 0.07236165
v -0.82229865 8.95527108 0.26972154
v -0.66518186 8.94904361 0.07267739
v -0.62499540 8.93346319 0.26924115
v -0.82229865 8.95527108 0.07227847
v -0.85357813 8.94282415 0.26967700
v -0.62499540 8.93346319 0.07275886
v -0.23230309 8.72708086 0.26978341
v -0.85357813 8.94282415 0.07232301
v -0.87622462 8.92814609 0.26951874
v -0.23230309 8.72708086 0.07221660
v 0.82115617 8.15994077 0.27809346
v -0.87622462 8.92814609 0.07248127
v -0.90213339 8.90317660 0.26917888
v 0.82115617 8.15994077 0.06390655
v 0.85849874 7.60686564 0.29538284
v -0.90213339 8.90317660 0.07282113
v -0.92743437 8.87227765 0.26913340
v 0.85849874 7.60686564 0.04661717
v 0.86994830 7.64768575 0.32796210
v -0.92743437 8.87227765 0.07286661
v -0.95079179 8.83539470 0.26906163
v 0.86994830 7.64768575 0.01403791
v 0.79210739 7.67841953 0.27513497
v -0.95079179 8.83539470 0.07293838
v -0.97053594 8.79503321 0.26915164
v 0.79210739 7.67841953 0.06686504
v 0.72987026 7.69725460 0.26901114
v -0.97053594 8.79503321 0.07284837
v -0.98507623 8.75647795 0.26956456
v 0.72987026 7.69725460 0.07298887
v 0.67212313 7.72220572 0.26844847
v -0.98507623 8.75647795 0.07243545
v -0.99342055 8.71729483 0.26993116
v 0.67212313 7.72220572 0.07355154
v 0.13752859 7.99093300 0.26786674
v -0.99342055 8.71729483 0.07206885
v -0.99592249 8.68775833 0.27067377
v 0.13752859 7.99093300 0.07413327
v 0.07083307 8.02469901 0.26786751
v -0.99592249 8.68775833 0.07132624
v -0.99235509 8.66905352 0.27041226
v 0.07083307 8.02469901 0.07413250
v -0.83874154 8.49304152 0.26954887
v -0.99235509 8.66905352 0.07158775
v -0.97637739 8.63667415 0.26928466
v -0.83874154 8.49304152 0.07245114
v -0.87597709 8.52027009 0.26926977
v -0.97637739 8.63667415 0.07271535
v -0.94987444 8.59677582 0.26925813
v -0.87597709 8.52027009 0.07273024
v -0.91453884 8.55672569 0.26887307
v -0.94987444 8.59677582 0.07274188
v -0.91453884 8.55672569 0.07312694
f 1 2 5
f 1 5 3
f 1 3 7
f 1 7 4
f 1 4 8
f 1 8 12
f 1 12 16
f 1 16 20
f 1 20 24
f 1 24 28
f 1 28 32
f 1 32 36
f 1 36 40
f 1 40 44
f 1 44 48
f 1 48 52
f 1 52 56
f 1 56 58
f 1 58 54
f 1 54 50
f 1 50 46
f 1 46 42
f 1 42 38
f 1 38 34
f 1 34 30
f 1 30 26
f 1 26 22
f 1 22 18
f 1 18 14
f 1 14 10
f 1 10 6
f 1 6 2
f 2 6 9
f 2 9 5
f 3 5 9
f 3 9 13
f 3 13 17
f 3 17 21
f 3 21 25
f 3 25 29
f 3 29 33
f 3 33 37
f 3 37 41
f 3 41 45
f 3 45 49
f 3 49 53
f 3 53 57
f 3 57 60
f 3 60 59
f 3 59 55
f 3 55 51
f 3 51 47
f 3 47 43
f 3 43 39
f 3 39 35
f 3 35 31
f 3 31 27
f 3 27 23
f 3 23 19
f 3 19 15
f 3 15 11
f 3 11 7
f 4 7 11
f 4 11 8
f 6 10 13
f 6 13 9
f 8 11 15
f 8 15 12
f 10 14 17
f 10 17 13
f 12 15 19
f 12 19 16
f 14 18 21
f 14 21 17
f 16 19 23
f 16 23 20
f 18 22 25
f 18 25 21
f 20 23 27
f 20 27 24
f 22 26 29
f 22 29 25
f 24 27 31
f 24 31 28
f 26 30 33
f 26 33 29
f 28 31 35
f 28 35 32
f 30 34 37
f 30 37 33
f 32 35 39
f 32 39 36
f 34 38 41
f 34 41 37
f 36 39 43
f 36 43 40
f 38 42 45
f 38 45 41
f 40 43 47
f 40 47 44
f 42 46 49
f 42 49 45
f 44 47 51
f 44 51 48
f 46 50 53
f 46 53 49
f 48 51 55
f 48 55 52
f 50 54 57
f 50 57 53
f 52 55 59
f 52 59 56
f 54 58 60
f 54 60 57
f 56 59 60
f 56 60 58

