# https://github.com/mikedh/trimesh
v -10.30789198 4.42064614 0.07360791
v -10.30789198 4.42064614 0.26839210
v -10.30861108 4.53276547 0.07431013
v -10.30501166 4.32724999 0.07362791
v -10.30861108 4.53276547 0.26768988
v -10.30501166 4.32724999 0.26837210
v -10.30605352 4.66381330 0.07369578
v -10.29938495 4.24608834 0.07368131
v -10.30605352 4.66381330 0.26830423
v -10.29938495 4.24608834 0.26831870
v -10.29924340 4.78938947 0.07369880
v -10.28911611 4.16930855 0.07373193
v -10.29924340 4.78938947 0.26830121
v -10.28911611 4.16930855 0.26826808
v -10.28660608 4.91194365 0.07366541
v -10.27195909 4.08692539 0.07385820
v -10.28660608 4.91194365 0.26833460
v -10.27195909 4.08692539 0.26814181
v -10.26776620 5.03436631 0.07332848
v -10.24856584 3.98934626 0.07386906
v -10.26776620 5.03436631 0.26867153
v -10.24856584 3.98934626 0.26813095
v -10.24076881 5.15704980 0.07022648
v -10.21503626 3.86877874 0.07388697
v -10.24076881 5.15704980 0.27177353
v -10.21503626 3.86877874 0.26811304
v -10.20095734 5.28406013 0.05126461
v -10.17226405 3.72048737 0.07365013
v -10.20095734 5.28406013 0.29073540
v -10.17226405 3.72048737 0.26834988
v -10.20079290 5.40170701 0.01921888
v -10.14646905 3.64392055 0.07276408
v -10.20079290 5.40170701 0.32278113
v -10.14646905 3.64392055 0.26923593
v -10.18171448 5.41559132 0.06339150
v -10.10987339 3.55964616 0.06787087
v -10.18171448 5.41559132 0.27860851
v -10.10987339 3.55964616 0.27412914
v -9.67468630 5.41150549 0.06127983
v -10.05976964 3.46631182 0.04458132
v -9.67468630 5.41150549 0.28072018
v -10.05976964 3.46631182 0.29741869
v -9.49346786 3.37726906 0.06043692
v -10.04540098 3.33290100 -0.03908519
v -9.49346786 3.37726906 0.28156309
v -10.04540098 3.33290100 0.38108520
v -10.05882126 3.31584740 0.07312963
v -10.05882126 3.31584740 0.26887038
f 1 2 5
f 1 5 3
f 1 3 7
f 1 7 11
f 1 11 15
f 1 15 19
f 1 19 23
f 1 23 27
f 1 27 31
f 1 31 35
f 1 35 39
f 1 39 43
f 1 43 47
f 1 47 44
f 1 44 40
f 1 40 36
f 1 36 32
f 1 32 28
f 1 28 24
f 1 24 20
f 1 20 16
f 1 16 12
f 1 12 8
f 1 8 4
f 1 4 6
f 1 6 2
f 2 6 10
f 2 10 14
f 2 14 18
f 2 18 22
f 2 22 26
f 2 26 30
f 2 30 34
f 2 34 38
f 2 38 42
f 2 42 46
f 2 46 48
f 2 48 45
f 2 45 41
f 2 41 37
f 2 37 33
f 2 33 29
f 2 29 25
f 2 25 21
f 2 21 17
f 2 17 13
f 2 13 9
f 2 9 5
f 3 5 9
f 3 9 7
f 4 8 10
f 4 10 6
f 7 9 13
f 7 13 11
f 8 12 14
f 8 14 10
f 11 13 17
f 11 17 15
f 12 16 18
f 12 18 14
f 15 17 21
f 15 21 19
f 16 20 22
f 16 22 18
f 19 21 25
f 19 25 23
f 20 24 26
f 20 26 22
f 23 25 29
f 23 29 27
f 24 28 30
f 24 30 26
f 27 29 33
f 27 33 31
f 28 32 34
f 28 34 30
f 31 33 37
f 31 37 35
f 32 36 38
f 32 38 34
f 35 37 41
f 35 41 39
f 36 40 42
f 36 42 38
f 39 41 45
f 39 45 43
f 40 44 46
f 40 46 42
f 43 45 48
f 43 48 47
f 44 47 48
f 44 48 46

