# https://github.com/mikedh/trimesh
v 7.34381572 3.10086768 0.27374823
v 7.34381572 3.10086768 0.06825178
v 6.81589983 3.12641993 0.27993701
v 8.07822716 2.61291476 0.27740826
v 6.81589983 3.12641993 0.06206300
v 8.07822716 2.61291476 0.06459175
v 6.83395972 3.10385738 0.26908681
v 8.09386049 2.12391340 0.28016206
v 6.83395972 3.10385738 0.07291320
v 8.09386049 2.12391340 0.06183795
v 6.85512412 3.01040803 0.26908577
v 8.07883434 2.13344145 0.27170209
v 6.85512412 3.01040803 0.07291424
v 8.07883434 2.13344145 0.07029792
v 6.88041049 2.93482120 0.26935397
v 7.99358233 2.13257996 0.26859204
v 6.88041049 2.93482120 0.07264604
v 7.99358233 2.13257996 0.07340797
v 6.93023669 2.83165041 0.26934101
v 7.92361928 2.13644806 0.26885476
v 6.93023669 2.83165041 0.07265900
v 7.92361928 2.13644806 0.07314525
v 7.00256623 2.72033608 0.26891559
v 7.86447537 2.14538115 0.26880106
v 7.00256623 2.72033608 0.07308442
v 7.86447537 2.14538115 0.07319895
v 7.09248856 2.60546703 0.26886333
v 7.81021335 2.15804767 0.26852045
v 7.09248856 2.60546703 0.07313668
v 7.81021335 2.15804767 0.07347956
v 7.19354311 2.49659924 0.26871741
v 7.58599680 2.22299908 0.26887113
v 7.19354311 2.49659924 0.07328260
v 7.58599680 2.22299908 0.07312888
v 7.30029189 2.39669941 0.26894330
v 7.50174650 2.25592611 0.26976358
v 7.30029189 2.39669941 0.07305671
v 7.50174650 2.25592611 0.07223643
v 7.40551288 2.31463082 0.26925694
v 7.40551288 2.31463082 0.07274307
f 1 2 5
f 1 5 3
f 1 3 7
f 1 7 11
f 1 11 15
f 1 15 19
f 1 19 23
f 1 23 27
f 1 27 31
f 1 31 35
f 1 35 39
f 1 39 36
f 1 36 32
f 1 32 28
f 1 28 24
f 1 24 20
f 1 20 16
f 1 16 12
f 1 12 8
f 1 8 4
f 1 4 6
f 1 6 2
f 2 6 10
f 2 10 14
f 2 14 18
f 2 18 22
f 2 22 26
f 2 26 30
f 2 30 34
f 2 34 38
f 2 38 40
f 2 40 37
f 2 37 33
f 2 33 29
f 2 29 25
f 2 25 21
f 2 21 17
f 2 17 13
f 2 13 9
f 2 9 5
f 3 5 9
f 3 9 7
f 4 8 10
f 4 10 6
f 7 9 13
f 7 13 11
f 8 12 14
f 8 14 10
f 11 13 17
f 11 17 15
f 12 16 18
f 12 18 14
f 15 17 21
f 15 21 19
f 16 20 22
f 16 22 18
f 19 21 25
f 19 25 23
f 20 24 26
f 20 26 22
f 23 25 29
f 23 29 27
f 24 28 30
f 24 30 26
f 27 29 33
f 27 33 31
f 28 32 34
f 28 34 30
f 31 33 37
f 31 37 35
f 32 36 38
f 32 38 34
f 35 37 40
f 35 40 39
f 36 39 40
f 36 40 38

