# https://github.com/mikedh/trimesh
v 0.74069400 10.74976926 0.06686441
v 0.74069400 10.74976926 0.27513560
v 0.71297938 11.22681023 0.06174171
v 1.94777165 9.45065361 0.06575420
v 0.71297938 11.22681023 0.28025830
v 1.94777165 9.45065361 0.27624581
v 0.73068502 11.20608268 0.07292153
v 2.43114010 9.42905916 0.05990650
v 0.73068502 11.20608268 0.26907848
v 2.43114010 9.42905916 0.28209351
v 0.87029413 11.16660498 0.07343084
v 2.39472857 9.51977391 0.07128361
v 0.87029413 11.16660498 0.26856917
v 2.39472857 9.51977391 0.27071640
v 0.98609378 11.12779207 0.07323398
v 2.31848075 9.75559073 0.07330803
v 0.98609378 11.12779207 0.26876603
v 2.31848075 9.75559073 0.26869198
v 1.08256382 11.08797762 0.07308255
v 2.29820417 9.80647773 0.07368983
v 1.08256382 11.08797762 0.26891746
v 2.29820417 9.80647773 0.26831018
v 1.31175372 10.97007733 0.07369435
v 2.27487501 9.86060576 0.07397008
v 1.31175372 10.97007733 0.26830566
v 2.27487501 9.86060576 0.26802993
v 1.32825723 10.96126563 0.07359019
v 2.25213100 9.91216038 0.07403831
v 1.32825723 10.96126563 0.26840982
v 2.25213100 9.91216038 0.26796170
v 1.37658731 10.93251592 0.07386856
v 2.23041599 9.96015850 0.07391592
v 1.37658731 10.93251592 0.26813145
v 2.23041599 9.96015850 0.26808409
v 1.40706463 10.91379020 0.07379806
v 2.19217386 10.03951701 0.07390048
v 1.40706463 10.91379020 0.26820195
v 2.19217386 10.03951701 0.26809953
v 1.43683277 10.89505995 0.07363529
v 2.17806821 10.06730230 0.07370925
v 1.43683277 10.89505995 0.26836472
v 2.17806821 10.06730230 0.26829076
v 1.46834437 10.87318511 0.07382258
v 2.06079513 10.27215968 0.07366259
v 1.46834437 10.87318511 0.26817743
v 2.06079513 10.27215968 0.26833742
v 1.54748894 10.81663527 0.07332812
v 2.02208995 10.33371430 0.07321432
v 1.54748894 10.81663527 0.26867189
v 2.02208995 10.33371430 0.26878569
v 1.63211777 10.74752758 0.07351128
v 1.96562453 10.40803161 0.07335561
v 1.63211777 10.74752758 0.26848873
v 1.96562453 10.40803161 0.26864440
v 1.72254700 10.66586460 0.07359333
v 1.89341281 10.49202670 0.07348928
v 1.72254700 10.66586460 0.26840668
v 1.89341281 10.49202670 0.26851073
v 1.81076217 10.57889424 0.07369161
v 1.81076217 10.57889424 0.26830840
f 1 2 5
f 1 5 3
f 1 3 7
f 1 7 11
f 1 11 15
f 1 15 19
f 1 19 23
f 1 23 27
f 1 27 31
f 1 31 35
f 1 35 39
f 1 39 43
f 1 43 47
f 1 47 51
f 1 51 55
f 1 55 59
f 1 59 56
f 1 56 52
f 1 52 48
f 1 48 44
f 1 44 40
f 1 40 36
f 1 36 32
f 1 32 28
f 1 28 24
f 1 24 20
f 1 20 16
f 1 16 12
f 1 12 8
f 1 8 4
f 1 4 6
f 1 6 2
f 2 6 10
f 2 10 14
f 2 14 18
f 2 18 22
f 2 22 26
f 2 26 30
f 2 30 34
f 2 34 38
f 2 38 42
f 2 42 46
f 2 46 50
f 2 50 54
f 2 54 58
f 2 58 60
f 2 60 57
f 2 57 53
f 2 53 49
f 2 49 45
f 2 45 41
f 2 41 37
f 2 37 33
f 2 33 29
f 2 29 25
f 2 25 21
f 2 21 17
f 2 17 13
f 2 13 9
f 2 9 5
f 3 5 9
f 3 9 7
f 4 8 10
f 4 10 6
f 7 9 13
f 7 13 11
f 8 12 14
f 8 14 10
f 11 13 17
f 11 17 15
f 12 16 18
f 12 18 14
f 15 17 21
f 15 21 19
f 16 20 22
f 16 22 18
f 19 21 25
f 19 25 23
f 20 24 26
f 20 26 22
f 23 25 29
f 23 29 27
f 24 28 30
f 24 30 26
f 27 29 33
f 27 33 31
f 28 32 34
f 28 34 30
f 31 33 37
f 31 37 35
f 32 36 38
f 32 38 34
f 35 37 41
f 35 41 39
f 36 40 42
f 36 42 38
f 39 41 45
f 39 45 43
f 40 44 46
f 40 46 42
f 43 45 49
f 43 49 47
f 44 48 50
f 44 50 46
f 47 49 53
f 47 53 51
f 48 52 54
f 48 54 50
f 51 53 57
f 51 57 55
f 52 56 58
f 52 58 54
f 55 57 60
f 55 60 59
f 56 59 60
f 56 60 58

