# https://github.com/mikedh/trimesh
v 3.36264255 0.98427353 0.28381582
v 2.87564906 0.24011276 0.27780790
v 3.36264255 0.98427353 0.05818419
v 1.84071264 0.98679423 0.28251850
v 2.87564906 0.24011276 0.06419211
v 0.96630902 0.22814451 0.28140097
v 1.84071264 0.98679423 0.05948151
v 0.96676931 0.96438887 0.28131572
v 0.96630902 0.22814451 0.06059904
v 0.96676931 0.96438887 0.06068429
f 1 2 5
f 1 5 3
f 1 3 7
f 1 7 4
f 1 4 8
f 1 8 6
f 1 6 2
f 2 6 9
f 2 9 5
f 3 5 9
f 3 9 10
f 3 10 7
f 4 7 10
f 4 10 8
f 6 8 10
f 6 10 9

