# https://github.com/mikedh/trimesh
v -10.01874793 -4.67810791 0.05914467
v -10.01874793 -4.67810791 0.28285534
v -10.03282220 -4.63223182 0.01751384
v -9.50301499 -4.66746416 0.06414542
v -9.50301499 -4.66746416 0.27785459
v -10.03282220 -4.63223182 0.32448617
v -9.97720308 -4.51516872 0.03868024
v -8.75631749 -3.40927284 0.06819715
v -8.75631749 -3.40927284 0.27380286
v -9.97720308 -4.51516872 0.30331977
v -9.95220918 -4.38976641 0.06823645
v -8.73107869 -2.87275233 0.05992017
v -8.73107869 -2.87275233 0.28207984
v -9.95220918 -4.38976641 0.27376356
v -9.92104982 -4.26667525 0.07032623
v -8.78003706 -2.90158106 0.07037560
v -8.78003706 -2.90158106 0.27162441
v -9.92104982 -4.26667525 0.27167378
v -9.88014643 -4.13796634 0.07129935
v -8.88617961 -2.93591177 0.07253081
v -8.88617961 -2.93591177 0.26946920
v -9.88014643 -4.13796634 0.27070066
v -9.68734741 -3.63074105 0.06879390
v -8.99455267 -2.98726522 0.07300947
v -8.99455267 -2.98726522 0.26899054
v -9.68734741 -3.63074105 0.27320611
v -9.68794331 -3.62522097 0.07266472
v -9.10944777 -3.05426462 0.07310637
v -9.10944777 -3.05426462 0.26889364
v -9.68794331 -3.62522097 0.26933529
v -9.68158944 -3.61533583 0.07234987
v -9.22265335 -3.13280959 0.07310178
v -9.22265335 -3.13280959 0.26889823
v -9.68158944 -3.61533583 0.26965014
v -9.51056293 -3.40262955 0.07308461
v -9.33032527 -3.22051289 0.07316136
v -9.33032527 -3.22051289 0.26883865
v -9.51056293 -3.40262955 0.26891540
v -9.42714346 -3.31079631 0.07299325
v -9.42714346 -3.31079631 0.26900676
f 1 2 6
f 1 6 3
f 1 3 7
f 1 7 11
f 1 11 15
f 1 15 19
f 1 19 23
f 1 23 27
f 1 27 31
f 1 31 35
f 1 35 39
f 1 39 36
f 1 36 32
f 1 32 28
f 1 28 24
f 1 24 20
f 1 20 16
f 1 16 12
f 1 12 8
f 1 8 4
f 1 4 5
f 1 5 2
f 2 5 9
f 2 9 13
f 2 13 17
f 2 17 21
f 2 21 25
f 2 25 29
f 2 29 33
f 2 33 37
f 2 37 40
f 2 40 38
f 2 38 34
f 2 34 30
f 2 30 26
f 2 26 22
f 2 22 18
f 2 18 14
f 2 14 10
f 2 10 6
f 3 6 10
f 3 10 7
f 4 8 9
f 4 9 5
f 7 10 14
f 7 14 11
f 8 12 13
f 8 13 9
f 11 14 18
f 11 18 15
f 12 16 17
f 12 17 13
f 15 18 22
f 15 22 19
f 16 20 21
f 16 21 17
f 19 22 26
f 19 26 23
f 20 24 25
f 20 25 21
f 23 26 30
f 23 30 27
f 24 28 29
f 24 29 25
f 27 30 34
f 27 34 31
f 28 32 33
f 28 33 29
f 31 34 38
f 31 38 35
f 32 36 37
f 32 37 33
f 35 38 40
f 35 40 39
f 36 39 40
f 36 40 37

