# https://github.com/mikedh/trimesh
v -1.96500942 -1.40912517 0.04450344
v -1.97194386 -1.34214431 -0.05487496
v -1.96500942 -1.40912517 0.29749657
v -1.93929502 -0.15098020 -0.00258464
v -1.97194386 -1.34214431 0.39687497
v -1.90296729 -1.32394851 0.01675778
v -1.93929502 -0.15098020 0.34458465
v -2.01088654 -0.20950254 0.00800401
v -1.90296729 -1.32394851 0.32524223
v -1.96327895 -1.36025142 0.01547234
v -2.01088654 -0.20950254 0.33399600
v -1.92144424 -0.22138802 0.07360592
v -1.96327895 -1.36025142 0.32652767
v -1.44128427 -0.75276358 0.06601462
v -1.92144424 -0.22138802 0.26839409
v -1.89606014 -0.20718994 0.07328421
v -1.44128427 -0.75276358 0.27598539
v -1.41755518 0.10073796 0.06140901
v -1.89606014 -0.20718994 0.26871580
v -1.41018960 0.09435056 0.06459050
v -1.41755518 0.10073796 0.28059100
v -1.41018960 0.09435056 0.27740951
f 1 2 5
f 1 5 3
f 1 3 7
f 1 7 4
f 1 4 8
f 1 8 12
f 1 12 16
f 1 16 20
f 1 20 18
f 1 18 14
f 1 14 10
f 1 10 6
f 1 6 2
f 2 6 9
f 2 9 5
f 3 5 9
f 3 9 13
f 3 13 17
f 3 17 21
f 3 21 22
f 3 22 19
f 3 19 15
f 3 15 11
f 3 11 7
f 4 7 11
f 4 11 8
f 6 10 13
f 6 13 9
f 8 11 15
f 8 15 12
f 10 14 17
f 10 17 13
f 12 15 19
f 12 19 16
f 14 18 21
f 14 21 17
f 16 19 22
f 16 22 20
f 18 20 22
f 18 22 21

