# https://github.com/mikedh/trimesh
v 0.35850706 -1.26186442 0.06331132
v 1.16356521 -1.61382799 0.06892537
v 0.35850706 -1.26186442 0.27868869
v 0.34902689 0.10684604 0.06063772
v 1.77075196 -1.63090686 0.06078876
v 1.16356521 -1.61382799 0.27307464
v 0.34902689 0.10684604 0.28136229
v 1.44269907 0.10105548 0.06207548
v 1.77075196 -1.63090686 0.28121125
v 1.75524818 -1.23186147 0.07148183
v 1.44269907 0.10105548 0.27992453
v 1.75524818 -1.23186147 0.27051818
f 1 2 6
f 1 6 3
f 1 3 7
f 1 7 4
f 1 4 8
f 1 8 10
f 1 10 5
f 1 5 2
f 2 5 9
f 2 9 6
f 3 6 9
f 3 9 12
f 3 12 11
f 3 11 7
f 4 7 11
f 4 11 8
f 5 10 12
f 5 12 9
f 8 11 12
f 8 12 10

