# https://github.com/mikedh/trimesh
v -0.27394274 3.14644954 0.28609483
v -0.27394274 3.14644954 0.05590518
v -0.27233554 3.11637238 0.31849817
v -0.30822669 2.69102023 0.27754956
v -0.30822669 2.69102023 0.06445045
v -0.27233554 3.11637238 0.02350184
v -0.40543266 3.11337028 0.31919037
v -1.34636639 2.01078440 0.27419854
v -1.34636639 2.01078440 0.06780147
v -0.40543266 3.11337028 0.02280964
v -0.53513525 3.07804062 0.32065997
v -2.05229802 1.99471308 0.28139623
v -2.05229802 1.99471308 0.06060378
v -0.53513525 3.07804062 0.02134004
v -0.67064547 3.04452326 0.32981458
v -2.04067620 2.44318766 0.27779044
v -2.04067620 2.44318766 0.06420957
v -0.67064547 3.04452326 0.01218543
v -0.81480419 2.99648181 0.27424223
v -1.66364601 2.67312413 0.26968709
v -1.66364601 2.67312413 0.07231292
v -0.81480419 2.99648181 0.06775778
v -0.93921860 2.96694845 0.27297144
v -1.62039837 2.69956975 0.26921060
v -1.62039837 2.69956975 0.07278941
v -0.93921860 2.96694845 0.06902857
v -1.27721499 2.89349380 0.26499377
v -1.58135126 2.72074477 0.26895829
v -1.58135126 2.72074477 0.07304172
v -1.27721499 2.89349380 0.07700624
v -1.28467678 2.87605638 0.27042244
v -1.29217716 2.87388144 0.26942634
v -1.29217716 2.87388144 0.07257367
v -1.28467678 2.87605638 0.07157757
f 1 2 6
f 1 6 3
f 1 3 7
f 1 7 11
f 1 11 15
f 1 15 19
f 1 19 23
f 1 23 27
f 1 27 31
f 1 31 32
f 1 32 28
f 1 28 24
f 1 24 20
f 1 20 16
f 1 16 12
f 1 12 8
f 1 8 4
f 1 4 5
f 1 5 2
f 2 5 9
f 2 9 13
f 2 13 17
f 2 17 21
f 2 21 25
f 2 25 29
f 2 29 33
f 2 33 34
f 2 34 30
f 2 30 26
f 2 26 22
f 2 22 18
f 2 18 14
f 2 14 10
f 2 10 6
f 3 6 10
f 3 10 7
f 4 8 9
f 4 9 5
f 7 10 14
f 7 14 11
f 8 12 13
f 8 13 9
f 11 14 18
f 11 18 15
f 12 16 17
f 12 17 13
f 15 18 22
f 15 22 19
f 16 20 21
f 16 21 17
f 19 22 26
f 19 26 23
f 20 24 25
f 20 25 21
f 23 26 30
f 23 30 27
f 24 28 29
f 24 29 25
f 27 30 34
f 27 34 31
f 28 32 33
f 28 33 29
f 31 34 33
f 31 33 32

