# https://github.com/mikedh/trimesh
v 3.97025602 1.60126542 0.05590832
v 3.96083761 1.61298667 0.04609627
v 3.97025602 1.60126542 0.28609169
v 4.01559326 2.63802588 0.07087270
v 3.96083761 1.61298667 0.29590374
v 4.03481097 1.70500982 0.03275426
v 4.01559326 2.63802588 0.27112731
v 4.38205469 4.26743298 0.07274259
v 4.03481097 1.70500982 0.30924575
v 4.09766333 1.79084862 0.01574270
v 4.38205469 4.26743298 0.26925742
v 4.45814044 4.59575834 0.07269091
v 4.09766333 1.79084862 0.32625731
v 4.14792134 1.90647064 0.03169791
v 4.45814044 4.59575834 0.26930910
v 4.56072738 4.90604266 0.07285146
v 4.14792134 1.90647064 0.31030210
v 4.19163872 1.98201925 0.06824716
v 4.56072738 4.90604266 0.26914855
v 4.68880926 5.19975837 0.07283395
v 4.19163872 1.98201925 0.27375285
v 4.22361708 2.03947174 0.06924570
v 4.68880926 5.19975837 0.26916606
v 4.84414395 5.47377537 0.07069249
v 4.22361708 2.03947174 0.27275431
v 4.33700753 2.25382469 0.07107767
v 4.84414395 5.47377537 0.27130752
v 5.03630862 5.74107987 0.01640296
v 4.33700753 2.25382469 0.27092234
v 4.37527660 2.33284723 0.07177193
v 5.03630862 5.74107987 0.32559705
v 4.99868355 5.81914432 0.01244024
v 4.37527660 2.33284723 0.27022808
v 4.41429334 2.42412394 0.07222253
v 4.99868355 5.81914432 0.32955977
v 4.93851453 4.64269745 0.07052875
v 4.41429334 2.42412394 0.26977748
v 4.45153920 2.52178043 0.07253889
v 4.93851453 4.64269745 0.27147126
v 4.54360735 2.83775067 0.07301853
v 4.45153920 2.52178043 0.26946112
v 4.48582790 2.62505396 0.07278028
v 4.54360735 2.83775067 0.26898148
v 4.51714467 2.73231200 0.07293720
v 4.48582790 2.62505396 0.26921973
v 4.51714467 2.73231200 0.26906281
f 1 2 5
f 1 5 3
f 1 3 7
f 1 7 4
f 1 4 8
f 1 8 12
f 1 12 16
f 1 16 20
f 1 20 24
f 1 24 28
f 1 28 32
f 1 32 36
f 1 36 40
f 1 40 44
f 1 44 42
f 1 42 38
f 1 38 34
f 1 34 30
f 1 30 26
f 1 26 22
f 1 22 18
f 1 18 14
f 1 14 10
f 1 10 6
f 1 6 2
f 2 6 9
f 2 9 5
f 3 5 9
f 3 9 13
f 3 13 17
f 3 17 21
f 3 21 25
f 3 25 29
f 3 29 33
f 3 33 37
f 3 37 41
f 3 41 45
f 3 45 46
f 3 46 43
f 3 43 39
f 3 39 35
f 3 35 31
f 3 31 27
f 3 27 23
f 3 23 19
f 3 19 15
f 3 15 11
f 3 11 7
f 4 7 11
f 4 11 8
f 6 10 13
f 6 13 9
f 8 11 15
f 8 15 12
f 10 14 17
f 10 17 13
f 12 15 19
f 12 19 16
f 14 18 21
f 14 21 17
f 16 19 23
f 16 23 20
f 18 22 25
f 18 25 21
f 20 23 27
f 20 27 24
f 22 26 29
f 22 29 25
f 24 27 31
f 24 31 28
f 26 30 33
f 26 33 29
f 28 31 35
f 28 35 32
f 30 34 37
f 30 37 33
f 32 35 39
f 32 39 36
f 34 38 41
f 34 41 37
f 36 39 43
f 36 43 40
f 38 42 45
f 38 45 41
f 40 43 46
f 40 46 44
f 42 44 46
f 42 46 45

