# https://github.com/mikedh/trimesh
v -0.18805858 -0.44488385 -0.07498777
v -0.19053072 -0.44488385 -0.07854709
v -0.18869246 -0.44488385 -0.07149390
v -0.02542577 -0.48256697 -0.07477583
v -0.19613000 -0.44488385 -0.08229964
v -0.19038281 -0.44488385 -0.06465889
v -0.02542577 -0.48346736 -0.06478044
v -0.02542577 -0.48629637 -0.08295728
v -0.20052491 -0.44488385 -0.08349647
v -0.02542577 -0.48644158 -0.08325648
v -0.19536935 -0.44488385 -0.06114320
v -0.02542577 -0.48734200 -0.05776465
v -0.20318723 -0.44488385 -0.05679223
v -0.21514644 -0.44488385 -0.08602727
v -0.02542577 -0.49469042 -0.08591195
v -0.02542577 -0.49500408 -0.05698236
v -0.21288561 -0.44488385 -0.05528996
v -0.21504081 -0.44488385 -0.05495959
v -0.21504081 -0.44501163 -0.05491595
v -0.21504081 -0.44501163 -0.08605220
v -0.22516177 -0.44488385 -0.08498939
v -0.02542577 -0.49500408 -0.08599922
v -0.05509141 -0.49455680 -0.05715689
v -0.02542577 -0.50070857 -0.05899888
v -0.08507400 -0.48500094 -0.05602863
v -0.09508933 -0.48500094 -0.05590084
v -0.22913409 -0.44488385 -0.05670808
v -0.22573226 -0.44583072 -0.05645563
v -0.19505241 -0.45500896 -0.05498452
v -0.08507400 -0.48500094 -0.08672230
v -0.09508933 -0.48500094 -0.08675347
v -0.13506611 -0.47500361 -0.08659139
v -0.19505241 -0.45500896 -0.08617064
v -0.22505612 -0.44501163 -0.08497380
v -0.23443757 -0.44488385 -0.08250535
v -0.02542577 -0.50187038 -0.08264560
v -0.03508189 -0.49500408 -0.08601792
v -0.06508561 -0.49387714 -0.05716936
v -0.04292089 -0.50016831 -0.05958172
v -0.02542577 -0.50282884 -0.06478044
v -0.07507980 -0.49323234 -0.05726598
v -0.13506611 -0.47500361 -0.05549878
v -0.12507191 -0.48331633 -0.05700728
v -0.08507400 -0.49250622 -0.05751532
v -0.14506029 -0.47500361 -0.05593201
v -0.23483903 -0.44488385 -0.05982171
v -0.22283754 -0.45134929 -0.05835995
v -0.21504081 -0.45309778 -0.05711637
v -0.20536355 -0.45567699 -0.05660835
v -0.19505241 -0.46239805 -0.05743428
v -0.17504288 -0.46501210 -0.05589461
v -0.04509721 -0.49500408 -0.08587767
v -0.05509141 -0.49500408 -0.08543509
v -0.10508352 -0.48500094 -0.08629219
v -0.14506029 -0.47500361 -0.08604285
v -0.20504661 -0.45500896 -0.08489901
v -0.17504288 -0.46501210 -0.08577169
v -0.21415336 -0.45506706 -0.08244301
v -0.23422627 -0.44505811 -0.08248042
v -0.23469112 -0.44488385 -0.08243366
v -0.02542577 -0.50210853 -0.08251782
v -0.04959777 -0.49994756 -0.05987781
v -0.03508189 -0.50225956 -0.06478044
v -0.03508189 -0.50377574 -0.07477583
v -0.02542577 -0.50288111 -0.06512640
v -0.13506611 -0.48223003 -0.05758700
v -0.09508933 -0.49155933 -0.05820412
v -0.16504869 -0.47270905 -0.05733142
v -0.24010024 -0.44488385 -0.06489576
v -0.22951442 -0.44970533 -0.06110580
v -0.20223639 -0.46095741 -0.05867474
v -0.18053652 -0.47017632 -0.05955990
v -0.17504288 -0.47108252 -0.05863423
v -0.03508189 -0.50191103 -0.08237133
v -0.04509721 -0.50157412 -0.08201914
v -0.06508561 -0.49500408 -0.08456863
v -0.08507400 -0.49391200 -0.08352452
v -0.09508933 -0.49299997 -0.08309753
v -0.11507771 -0.48500094 -0.08515458
v -0.13506611 -0.48346736 -0.08327830
v -0.16504869 -0.47377210 -0.08325025
v -0.19505241 -0.46325198 -0.08285754
v -0.22505612 -0.45144804 -0.08128359
v -0.20504661 -0.46119556 -0.08113710
v -0.23942411 -0.44488385 -0.07805464
v -0.23033846 -0.45016423 -0.07998079
v -0.02542577 -0.50415914 -0.07504075
v -0.05509141 -0.49955838 -0.06082218
v -0.05509141 -0.50106872 -0.06582144
v -0.04579448 -0.50131850 -0.06383919
v -0.11017570 -0.49001996 -0.05975937
v -0.02542577 -0.50422303 -0.07477583
v -0.04509721 -0.50309608 -0.07477583
v -0.05509141 -0.50109775 -0.08143007
v -0.14506029 -0.48096950 -0.05868098
v -0.10508352 -0.49051951 -0.05921394
v -0.15074410 -0.48022592 -0.05950068
v -0.23447983 -0.44779416 -0.06457473
v -0.24128349 -0.44488385 -0.07511556
v -0.23076105 -0.45037918 -0.06777252
v -0.22573226 -0.45224967 -0.06457473
v -0.21434353 -0.45769854 -0.06513575
v -0.20891327 -0.45945869 -0.06204083
v -0.18220574 -0.47076304 -0.06478044
v -0.15279364 -0.48091720 -0.06478044
v -0.19505241 -0.46587764 -0.06478044
v -0.18719228 -0.46893319 -0.06478044
v -0.10508352 -0.49200083 -0.08235263
v -0.06508561 -0.50047620 -0.08052622
v -0.14506029 -0.48211388 -0.08225601
v -0.17504288 -0.47194225 -0.08206589
v -0.18207897 -0.47068172 -0.08074439
v -0.21024442 -0.46009767 -0.07990287
v -0.22505612 -0.45323722 -0.07477583
v -0.23080332 -0.45039661 -0.07477583
v -0.23581097 -0.44781159 -0.07477583
v -0.06508561 -0.49887291 -0.06295715
v -0.06508561 -0.50047620 -0.06795640
v -0.08507400 -0.49643891 -0.06478044
v -0.12448028 -0.48832951 -0.06541314
v -0.11412689 -0.49063570 -0.06541314
v -0.10508352 -0.49243649 -0.06478044
v -0.09508933 -0.49455098 -0.06478044
v -0.13506611 -0.48577936 -0.06478044
v -0.05509141 -0.50217242 -0.07477583
v -0.07064263 -0.50008118 -0.07991222
v -0.14506029 -0.48317693 -0.06478044
v -0.21054023 -0.46023126 -0.06870753
v -0.20536355 -0.46169515 -0.06513575
v -0.15934376 -0.47974380 -0.07477583
v -0.18835440 -0.46938048 -0.07477583
v -0.15433610 -0.48142260 -0.07477583
v -0.14506029 -0.48432128 -0.07477583
v -0.11507771 -0.49087970 -0.08108100
v -0.15281477 -0.48089977 -0.08097814
v -0.12088829 -0.49018841 -0.08009922
v -0.19505241 -0.46673157 -0.07477583
v -0.20504661 -0.46259556 -0.07477583
v -0.21056136 -0.46024288 -0.07477583
v -0.21554790 -0.45784956 -0.07477583
v -0.07444592 -0.49832684 -0.06554404
v -0.07068489 -0.50009280 -0.06938698
v -0.12076152 -0.49014193 -0.06916882
v -0.06508561 -0.50094672 -0.07477583
v -0.07093844 -0.50012766 -0.07477583
v -0.07594611 -0.49934344 -0.07477583
v -0.08507400 -0.49784469 -0.07477583
v -0.09508933 -0.49599744 -0.07477583
v -0.13506611 -0.48702249 -0.07477583
v -0.10508352 -0.49391781 -0.07477583
v -0.11507771 -0.49166389 -0.07477583
v -0.12619176 -0.48912536 -0.07477583
f 1 2 5
f 1 5 9
f 1 9 14
f 1 14 21
f 1 21 35
f 1 35 60
f 1 60 85
f 1 85 99
f 1 99 69
f 1 69 46
f 1 46 27
f 1 27 18
f 1 18 17
f 1 17 13
f 1 13 11
f 1 11 6
f 1 6 3
f 1 3 4
f 1 4 2
f 2 4 5
f 3 6 4
f 4 7 12
f 4 12 16
f 4 16 24
f 4 24 40
f 4 40 65
f 4 65 92
f 4 92 87
f 4 87 61
f 4 61 36
f 4 36 22
f 4 22 15
f 4 15 10
f 4 10 8
f 4 8 5
f 4 6 7
f 5 8 10
f 5 10 9
f 6 11 7
f 7 11 13
f 7 13 12
f 9 10 14
f 10 15 14
f 12 13 17
f 12 17 18
f 12 18 19
f 12 19 16
f 14 20 21
f 14 15 22
f 14 22 20
f 16 23 24
f 16 19 25
f 16 25 26
f 16 26 23
f 18 27 19
f 19 27 28
f 19 28 29
f 19 29 25
f 20 22 30
f 20 30 31
f 20 31 32
f 20 32 33
f 20 33 21
f 21 33 34
f 21 34 35
f 22 36 37
f 22 37 31
f 22 31 30
f 23 38 24
f 23 26 38
f 24 39 40
f 24 38 41
f 24 41 39
f 25 29 42
f 25 42 26
f 26 43 44
f 26 44 41
f 26 41 38
f 26 42 45
f 26 45 43
f 27 46 47
f 27 47 48
f 27 48 28
f 28 48 29
f 29 48 49
f 29 49 50
f 29 50 51
f 29 51 45
f 29 45 42
f 31 37 52
f 31 52 53
f 31 53 54
f 31 54 32
f 32 55 33
f 32 54 55
f 33 56 34
f 33 55 57
f 33 57 56
f 34 58 59
f 34 59 35
f 34 56 58
f 35 59 60
f 36 61 52
f 36 52 37
f 39 62 40
f 39 41 62
f 40 62 63
f 40 63 64
f 40 64 65
f 41 44 62
f 43 45 66
f 43 66 44
f 44 66 67
f 44 67 62
f 45 51 68
f 45 68 66
f 46 69 70
f 46 70 47
f 47 70 71
f 47 71 48
f 48 71 50
f 48 50 49
f 50 71 72
f 50 72 73
f 50 73 68
f 50 68 51
f 52 61 74
f 52 74 53
f 53 74 75
f 53 75 76
f 53 76 77
f 53 77 54
f 54 77 78
f 54 78 79
f 54 79 55
f 55 79 80
f 55 80 81
f 55 81 57
f 56 57 82
f 56 82 58
f 57 81 82
f 58 83 59
f 58 82 84
f 58 84 83
f 59 83 60
f 60 83 86
f 60 86 85
f 61 87 74
f 62 88 89
f 62 89 90
f 62 90 63
f 62 67 91
f 62 91 88
f 63 90 89
f 63 89 64
f 64 75 92
f 64 92 65
f 64 89 93
f 64 93 94
f 64 94 75
f 66 68 95
f 66 95 91
f 66 91 96
f 66 96 67
f 67 96 91
f 68 73 97
f 68 97 95
f 69 98 70
f 69 99 100
f 69 100 98
f 70 98 100
f 70 100 101
f 70 101 102
f 70 102 103
f 70 103 71
f 71 103 72
f 72 104 105
f 72 105 97
f 72 97 73
f 72 103 106
f 72 106 107
f 72 107 104
f 74 87 75
f 75 87 92
f 75 94 77
f 75 77 76
f 77 94 78
f 78 108 79
f 78 94 109
f 78 109 108
f 79 108 80
f 80 110 81
f 80 108 110
f 81 110 111
f 81 111 82
f 82 111 112
f 82 112 84
f 83 84 113
f 83 113 86
f 84 112 113
f 85 86 99
f 86 114 115
f 86 115 116
f 86 116 99
f 86 113 114
f 88 117 118
f 88 118 89
f 88 91 119
f 88 119 117
f 89 118 93
f 91 120 121
f 91 121 122
f 91 122 123
f 91 123 119
f 91 95 97
f 91 97 124
f 91 124 120
f 93 118 125
f 93 125 126
f 93 126 109
f 93 109 94
f 97 105 127
f 97 127 124
f 99 116 100
f 100 116 115
f 100 115 114
f 100 114 128
f 100 128 101
f 101 128 102
f 102 128 103
f 103 128 129
f 103 129 106
f 104 130 105
f 104 107 131
f 104 131 130
f 105 132 133
f 105 133 127
f 105 130 132
f 106 129 128
f 106 128 107
f 107 128 131
f 108 109 126
f 108 126 134
f 108 134 110
f 110 135 111
f 110 134 136
f 110 136 135
f 111 135 112
f 112 135 130
f 112 130 131
f 112 131 113
f 113 131 137
f 113 137 138
f 113 138 139
f 113 139 140
f 113 140 114
f 114 140 128
f 117 119 141
f 117 141 118
f 118 141 142
f 118 142 125
f 119 123 142
f 119 142 141
f 120 143 121
f 120 124 143
f 121 143 122
f 122 143 123
f 123 143 142
f 124 127 143
f 125 142 144
f 125 144 126
f 126 144 145
f 126 145 146
f 126 146 147
f 126 147 148
f 126 148 136
f 126 136 134
f 127 133 149
f 127 149 143
f 128 139 138
f 128 138 137
f 128 137 131
f 128 140 139
f 130 135 132
f 132 135 133
f 133 135 136
f 133 136 149
f 136 148 150
f 136 150 151
f 136 151 152
f 136 152 149
f 142 143 148
f 142 148 147
f 142 147 146
f 142 146 145
f 142 145 144
f 143 149 152
f 143 152 151
f 143 151 150
f 143 150 148

