# https://github.com/mikedh/trimesh
v -0.47278740 0.17825879 -0.07477557
v -0.47135382 0.17825879 -0.08146554
v -0.47185752 0.17825879 -0.06478173
v -0.46945528 0.18831395 -0.07477557
v -0.47071451 0.18216511 -0.08076682
v -0.46527076 0.17825879 -0.08501286
v -0.46337223 0.19494504 -0.08291356
v -0.46577446 0.18527570 -0.08343205
v -0.47116010 0.17825879 -0.06156637
v -0.47011397 0.18018783 -0.05967257
v -0.47065640 0.18185164 -0.06478173
v -0.46889348 0.18684304 -0.06478173
v -0.46581320 0.19494504 -0.06478173
v -0.46021447 0.21035331 -0.06881910
v -0.46682059 0.19494504 -0.07477557
v -0.46013699 0.21018451 -0.07994480
v -0.46126060 0.20492786 -0.08118731
v -0.45469322 0.17825879 -0.08386520
v -0.45502256 0.20492786 -0.08500021
v -0.45502256 0.19494504 -0.08624589
v -0.45502256 0.18493812 -0.08551872
v -0.45511943 0.21409082 -0.08257526
v -0.47042394 0.17825879 -0.05934376
v -0.46236484 0.19494504 -0.05756378
v -0.46095063 0.20208251 -0.05872409
v -0.45943957 0.20873771 -0.06215443
v -0.46166742 0.20521721 -0.06520538
v -0.46261670 0.20492786 -0.07477557
v -0.45754103 0.21418727 -0.06520538
v -0.45203915 0.22539985 -0.06504414
v -0.45025686 0.23039126 -0.06855353
v -0.45314342 0.22494170 -0.07477557
v -0.45785098 0.21541705 -0.07477557
v -0.46025321 0.21042563 -0.07477557
v -0.45017935 0.23024659 -0.07999223
v -0.45151609 0.22494170 -0.08138966
v -0.45033434 0.17825879 -0.08082373
v -0.27506876 0.40489758 -0.08543652
v -0.27489441 0.40489758 -0.08537961
v -0.44502621 0.22494170 -0.08525631
v -0.43502984 0.23492452 -0.08644191
v -0.29506148 0.39489066 -0.08660947
v -0.28506511 0.40489758 -0.08656522
v -0.44510369 0.23410469 -0.08261320
v -0.46893222 0.17825879 -0.05826565
v -0.46534827 0.18409416 -0.05733614
v -0.46513515 0.17825879 -0.05647618
v -0.45502256 0.19494504 -0.05508507
v -0.45566187 0.20521721 -0.05665007
v -0.45298840 0.21493478 -0.05724761
v -0.45122548 0.22238571 -0.05849961
v -0.44952067 0.22904093 -0.06188569
v -0.44754466 0.23420112 -0.06504414
v -0.44190719 0.24519669 -0.06548044
v -0.44012490 0.25011576 -0.06928070
v -0.44779652 0.23550324 -0.07477557
v -0.44002802 0.24994698 -0.07978989
v -0.44138412 0.24493145 -0.08121577
v -0.44957881 0.17878928 -0.08041272
v -0.44938509 0.17825879 -0.07697921
v -0.27489441 0.39800125 -0.08149083
v -0.27489441 0.41488040 -0.08576532
v -0.43502984 0.24493145 -0.08504764
v -0.42503349 0.25493837 -0.08636920
v -0.40502140 0.28493503 -0.08645140
v -0.39502505 0.29491785 -0.08653043
v -0.34506264 0.35488707 -0.08645456
v -0.27506876 0.41488040 -0.08575584
v -0.33504689 0.36489400 -0.08638500
v -0.32505055 0.37490092 -0.08614156
v -0.31505417 0.38488374 -0.08560725
v -0.46110561 0.17825879 -0.05622958
v -0.44502621 0.21493478 -0.05487325
v -0.45548751 0.17825879 -0.05686506
v -0.28506511 0.40489758 -0.05460451
v -0.44572363 0.22539985 -0.05653309
v -0.44299206 0.23492452 -0.05732982
v -0.44115163 0.24203789 -0.05859762
v -0.43929186 0.24869309 -0.06261603
v -0.42456853 0.27492811 -0.07477557
v -0.42888867 0.26812823 -0.07477557
v -0.43200769 0.26313681 -0.07477557
v -0.43700588 0.25508304 -0.07477557
v -0.44010550 0.25006754 -0.07477557
v -0.44289518 0.24493145 -0.07477557
v -0.43683152 0.25404618 -0.06548044
v -0.43156213 0.26241344 -0.06478173
v -0.42055837 0.28071526 -0.06728888
v -0.43127153 0.26195527 -0.08118415
v -0.42040338 0.28047413 -0.08027361
v -0.43477800 0.25394972 -0.08214528
v -0.27489441 0.39578285 -0.07477557
v -0.44911385 0.17825879 -0.07477557
v -0.27489441 0.42209020 -0.08188919
v -0.42551782 0.26513821 -0.08355852
v -0.41503711 0.27492811 -0.08566099
v -0.38502868 0.31490759 -0.08564202
v -0.37503233 0.32489041 -0.08619846
v -0.36505536 0.33489733 -0.08636920
v -0.35505898 0.34490426 -0.08642610
v -0.35484589 0.35467004 -0.08289458
v -0.28434832 0.41468748 -0.08254997
v -0.27506876 0.42204198 -0.08186074
v -0.29515833 0.40518696 -0.08356485
v -0.34473330 0.36465286 -0.08280606
v -0.33454320 0.37451511 -0.08252784
v -0.32419814 0.38432914 -0.08195875
v -0.30575525 0.39566228 -0.08405805
v -0.40502140 0.28493503 -0.05486060
v -0.43502984 0.23492452 -0.05493964
v -0.29506148 0.39489066 -0.05458554
v -0.34506264 0.35488707 -0.05431048
v -0.35505898 0.34490426 -0.05434842
v -0.36505536 0.33489733 -0.05448437
v -0.45252348 0.17825879 -0.05907503
v -0.27489441 0.40383661 -0.05654890
v -0.27489441 0.40410186 -0.05640979
v -0.27489441 0.40434299 -0.05635604
v -0.27489441 0.41570024 -0.05612208
v -0.27489441 0.41666478 -0.05629913
v -0.27594054 0.41579670 -0.05624222
v -0.29480962 0.40494583 -0.05687138
v -0.30544528 0.39539704 -0.05631494
v -0.32505055 0.37490092 -0.05479737
v -0.33504689 0.36489400 -0.05445275
v -0.42503349 0.25493837 -0.05505030
v -0.43559167 0.24519669 -0.05662162
v -0.43247265 0.25493837 -0.05773766
v -0.43067096 0.26099076 -0.05906238
v -0.41980284 0.27960605 -0.06062421
v -0.42071335 0.28093226 -0.07477557
v -0.42842374 0.26740483 -0.06478173
v -0.41730376 0.28440455 -0.06428536
v -0.41178251 0.29238599 -0.06478173
v -0.40815979 0.29740149 -0.06478173
v -0.40860538 0.29802844 -0.07477557
v -0.41224743 0.29301291 -0.07477557
v -0.41724562 0.28592368 -0.07477557
v -0.42305748 0.27572384 -0.06428536
v -0.42218570 0.27492811 -0.08181648
v -0.39029807 0.32021247 -0.08010921
v -0.41141443 0.29185548 -0.08128216
v -0.27489441 0.39578285 -0.07459853
v -0.44948193 0.17825879 -0.06723830
v -0.27489441 0.42457387 -0.07477557
v -0.41486279 0.28425987 -0.08253416
v -0.40538948 0.29508663 -0.08352691
v -0.38450561 0.32409468 -0.08205675
v -0.37464489 0.33441506 -0.08257526
v -0.39581932 0.30564818 -0.08402960
v -0.36480350 0.34456666 -0.08279657
v -0.36129703 0.35119775 -0.08103240
v -0.35135879 0.36115646 -0.08105453
v -0.29190369 0.41123933 -0.08128849
v -0.28055125 0.42023350 -0.08023883
v -0.30290743 0.40207635 -0.08185441
v -0.34116869 0.37092225 -0.08088697
v -0.33086237 0.38061572 -0.08061506
v -0.31505417 0.39223824 -0.08177221
v -0.39550935 0.30523826 -0.05639398
v -0.40504077 0.29458026 -0.05705792
v -0.41588955 0.27572384 -0.05640346
v -0.37503233 0.32489041 -0.05481318
v -0.35451655 0.35435659 -0.05747209
v -0.36449352 0.34422910 -0.05760172
v -0.45066368 0.17825879 -0.06184459
v -0.27489441 0.39925514 -0.05983381
v -0.27489441 0.41806331 -0.05691881
v -0.28506511 0.41295135 -0.05744679
v -0.29130315 0.41078117 -0.05884107
v -0.30236502 0.40166643 -0.05818029
v -0.31319441 0.39238291 -0.05780722
v -0.31594532 0.38580003 -0.05603988
v -0.32505055 0.38240009 -0.05799376
v -0.34440396 0.36433940 -0.05758274
v -0.42514974 0.26455948 -0.05708321
v -0.42187573 0.27292674 -0.05815500
v -0.41081386 0.29103564 -0.05895804
v -0.40316160 0.30396026 -0.06478173
v -0.38989125 0.31973020 -0.06038709
v -0.40358782 0.30446664 -0.07477557
v -0.39056930 0.32052593 -0.06705176
v -0.39246784 0.31490759 -0.08181648
v -0.40228983 0.30280283 -0.08185125
v -0.39967450 0.30945804 -0.07477557
v -0.39527689 0.31490759 -0.07477557
v -0.39062741 0.32059828 -0.07477557
v -0.38634604 0.32558968 -0.07477557
v -0.38134785 0.33135272 -0.07477557
v -0.38082479 0.33077399 -0.08069411
v -0.27489441 0.39689206 -0.06505679
v -0.44952067 0.17825879 -0.06693162
v -0.27489441 0.42380225 -0.06562271
v -0.28097743 0.42052288 -0.07477557
v -0.28080311 0.42037817 -0.06708338
v -0.37106091 0.34099794 -0.08087747
v -0.36209129 0.35201762 -0.07477557
v -0.35718998 0.35700901 -0.07477557
v -0.35219182 0.36195219 -0.07477557
v -0.32028482 0.39009216 -0.08002701
v -0.29804486 0.40836988 -0.07477557
v -0.29304670 0.41205916 -0.07477557
v -0.28597562 0.41705059 -0.07477557
v -0.34690304 0.36694361 -0.07477557
v -0.33140481 0.38107388 -0.07477557
v -0.34190485 0.37159744 -0.07477557
v -0.33640299 0.37658884 -0.07477557
v -0.38593919 0.31579978 -0.05605885
v -0.39248721 0.31305089 -0.05781986
v -0.40172802 0.30212767 -0.05826565
v -0.41294485 0.28493503 -0.05759539
v -0.38256834 0.32489041 -0.05797795
v -0.36079333 0.35064316 -0.05905289
v -0.35081635 0.36062598 -0.05904657
v -0.37057658 0.34046746 -0.05923943
v -0.37433491 0.33402925 -0.05794317
v -0.45012125 0.17825879 -0.06413992
v -0.27489441 0.42131860 -0.05865453
v -0.27985383 0.41972712 -0.06041871
v -0.29759930 0.40805639 -0.06478173
v -0.31985864 0.38973046 -0.06057995
v -0.33024246 0.38006113 -0.05959353
v -0.34062625 0.37041590 -0.05922678
v -0.33417512 0.37420165 -0.05794633
v -0.39928705 0.30895166 -0.06478173
v -0.39374643 0.31579978 -0.06414309
v -0.38022425 0.33012294 -0.05956507
v -0.38090227 0.33087045 -0.06478173
v -0.37137088 0.34133554 -0.06478173
v -0.37671775 0.33636822 -0.07477557
v -0.37173896 0.34174545 -0.07477557
v -0.36708948 0.34673685 -0.07477557
v -0.27489441 0.42368168 -0.06424110
v -0.27594054 0.42300652 -0.06416205
v -0.29260111 0.41172160 -0.06478173
v -0.28450330 0.41726761 -0.06416205
v -0.36672140 0.34632693 -0.06478173
v -0.36170384 0.35160770 -0.06478173
v -0.35678316 0.35662320 -0.06478173
v -0.35178498 0.36156638 -0.06478173
v -0.32563172 0.38608938 -0.07477557
v -0.32063353 0.39038151 -0.07477557
v -0.31505417 0.39496301 -0.07477557
v -0.30953292 0.39947214 -0.07477557
v -0.30453476 0.40335434 -0.07477557
v -0.30414731 0.40306499 -0.06478173
v -0.34649622 0.36655780 -0.06478173
v -0.32057543 0.39033329 -0.06724778
v -0.34149803 0.37121163 -0.06478173
v -0.30914547 0.39913457 -0.06478173
v -0.31594532 0.39356445 -0.06426006
v -0.33093988 0.38066396 -0.06478173
v -0.33593804 0.37620303 -0.06478173
f 1 2 6
f 1 6 18
f 1 18 37
f 1 37 60
f 1 60 93
f 1 93 144
f 1 144 192
f 1 192 217
f 1 217 166
f 1 166 115
f 1 115 74
f 1 74 72
f 1 72 47
f 1 47 45
f 1 45 23
f 1 23 9
f 1 9 3
f 1 3 4
f 1 4 5
f 1 5 2
f 2 5 7
f 2 7 8
f 2 8 6
f 3 9 10
f 3 10 11
f 3 11 4
f 4 11 12
f 4 12 13
f 4 13 14
f 4 14 15
f 4 15 16
f 4 16 5
f 5 16 17
f 5 17 7
f 6 8 7
f 6 7 19
f 6 19 20
f 6 20 21
f 6 21 18
f 7 17 22
f 7 22 19
f 9 23 10
f 10 23 24
f 10 24 25
f 10 25 26
f 10 26 13
f 10 13 12
f 10 12 11
f 13 26 27
f 13 27 14
f 14 28 15
f 14 27 26
f 14 26 29
f 14 29 30
f 14 30 31
f 14 31 32
f 14 32 33
f 14 33 34
f 14 34 28
f 15 28 16
f 16 28 34
f 16 34 33
f 16 33 32
f 16 32 35
f 16 35 36
f 16 36 17
f 17 36 22
f 18 21 38
f 18 38 39
f 18 39 37
f 19 22 40
f 19 40 20
f 20 40 41
f 20 41 42
f 20 42 43
f 20 43 21
f 21 43 38
f 22 36 44
f 22 44 40
f 23 45 24
f 24 46 47
f 24 47 48
f 24 48 49
f 24 49 50
f 24 50 25
f 24 45 46
f 25 50 51
f 25 51 26
f 26 51 52
f 26 52 29
f 29 52 30
f 30 52 31
f 31 53 54
f 31 54 55
f 31 55 56
f 31 56 32
f 31 52 53
f 32 56 35
f 35 56 57
f 35 57 58
f 35 58 36
f 36 58 44
f 37 59 60
f 37 39 61
f 37 61 59
f 38 43 62
f 38 62 39
f 39 62 94
f 39 94 145
f 39 145 193
f 39 193 233
f 39 233 218
f 39 218 168
f 39 168 120
f 39 120 119
f 39 119 118
f 39 118 117
f 39 117 116
f 39 116 167
f 39 167 191
f 39 191 143
f 39 143 92
f 39 92 61
f 40 44 63
f 40 63 64
f 40 64 41
f 41 64 65
f 41 65 66
f 41 66 42
f 42 67 43
f 42 66 67
f 43 68 62
f 43 67 69
f 43 69 70
f 43 70 71
f 43 71 68
f 44 58 63
f 45 47 46
f 47 72 48
f 48 73 49
f 48 72 74
f 48 74 75
f 48 75 73
f 49 73 76
f 49 76 50
f 50 76 77
f 50 77 51
f 51 77 78
f 51 78 52
f 52 78 79
f 52 79 54
f 52 54 53
f 54 79 55
f 55 80 81
f 55 81 82
f 55 82 83
f 55 83 84
f 55 84 85
f 55 85 56
f 55 79 86
f 55 86 87
f 55 87 88
f 55 88 80
f 56 85 57
f 57 89 58
f 57 85 84
f 57 84 83
f 57 83 82
f 57 82 81
f 57 81 80
f 57 80 90
f 57 90 89
f 58 89 91
f 58 91 63
f 59 61 92
f 59 92 60
f 60 92 93
f 62 68 94
f 63 91 95
f 63 95 96
f 63 96 64
f 64 96 65
f 65 96 97
f 65 97 98
f 65 98 99
f 65 99 66
f 66 99 100
f 66 100 67
f 67 100 101
f 67 101 69
f 68 102 103
f 68 103 94
f 68 71 104
f 68 104 102
f 69 101 105
f 69 105 70
f 70 106 71
f 70 105 106
f 71 106 107
f 71 107 108
f 71 108 104
f 73 109 110
f 73 110 76
f 73 75 111
f 73 111 112
f 73 112 113
f 73 113 114
f 73 114 109
f 74 115 116
f 74 116 117
f 74 117 118
f 74 118 75
f 75 118 119
f 75 119 120
f 75 120 121
f 75 121 122
f 75 122 123
f 75 123 124
f 75 124 125
f 75 125 112
f 75 112 111
f 76 110 126
f 76 126 127
f 76 127 77
f 77 127 128
f 77 128 78
f 78 128 129
f 78 129 79
f 79 129 130
f 79 130 87
f 79 87 86
f 80 88 131
f 80 131 90
f 87 132 88
f 87 130 132
f 88 133 134
f 88 134 135
f 88 135 136
f 88 136 137
f 88 137 138
f 88 138 131
f 88 132 139
f 88 139 130
f 88 130 133
f 89 140 91
f 89 90 140
f 90 131 138
f 90 138 137
f 90 137 136
f 90 136 141
f 90 141 142
f 90 142 140
f 91 140 95
f 92 143 93
f 93 143 144
f 94 103 145
f 95 140 146
f 95 146 96
f 96 146 147
f 96 147 97
f 97 148 149
f 97 149 98
f 97 147 150
f 97 150 148
f 98 149 151
f 98 151 99
f 99 151 101
f 99 101 100
f 101 151 152
f 101 152 153
f 101 153 105
f 102 104 154
f 102 154 103
f 103 155 145
f 103 154 155
f 104 156 154
f 104 108 156
f 105 157 106
f 105 153 157
f 106 158 107
f 106 157 158
f 107 158 159
f 107 159 108
f 108 159 156
f 109 160 161
f 109 161 162
f 109 162 126
f 109 126 110
f 109 114 163
f 109 163 160
f 112 125 164
f 112 164 113
f 113 164 114
f 114 164 165
f 114 165 163
f 115 166 167
f 115 167 116
f 120 168 169
f 120 169 122
f 120 122 121
f 122 169 170
f 122 170 171
f 122 171 172
f 122 172 123
f 123 172 173
f 123 173 124
f 124 173 172
f 124 172 174
f 124 174 175
f 124 175 125
f 125 175 164
f 126 162 176
f 126 176 127
f 127 176 128
f 128 176 177
f 128 177 129
f 129 177 178
f 129 178 130
f 130 178 135
f 130 135 134
f 130 134 133
f 130 139 132
f 135 179 136
f 135 178 180
f 135 180 179
f 136 181 141
f 136 179 182
f 136 182 181
f 140 142 146
f 141 183 184
f 141 184 142
f 141 181 185
f 141 185 186
f 141 186 187
f 141 187 188
f 141 188 189
f 141 189 190
f 141 190 183
f 142 184 147
f 142 147 146
f 143 191 144
f 144 191 192
f 145 155 194
f 145 194 195
f 145 195 193
f 147 184 150
f 148 150 183
f 148 183 190
f 148 190 149
f 149 190 196
f 149 196 152
f 149 152 151
f 150 184 183
f 152 197 198
f 152 198 153
f 152 196 197
f 153 198 199
f 153 199 157
f 154 156 200
f 154 200 155
f 155 200 201
f 155 201 202
f 155 202 203
f 155 203 194
f 156 159 200
f 157 199 204
f 157 204 158
f 158 205 200
f 158 200 159
f 158 204 206
f 158 206 207
f 158 207 205
f 160 163 208
f 160 208 209
f 160 209 161
f 161 209 210
f 161 210 211
f 161 211 162
f 162 211 176
f 163 165 212
f 163 212 208
f 164 213 165
f 164 175 214
f 164 214 213
f 165 213 215
f 165 215 216
f 165 216 212
f 166 217 191
f 166 191 167
f 168 218 169
f 169 218 170
f 170 218 219
f 170 219 220
f 170 220 221
f 170 221 171
f 171 221 172
f 172 221 222
f 172 222 174
f 174 222 223
f 174 223 224
f 174 224 175
f 175 224 223
f 175 223 214
f 176 211 177
f 177 211 178
f 178 211 210
f 178 210 180
f 179 225 182
f 179 180 225
f 180 182 226
f 180 226 225
f 180 210 209
f 180 209 227
f 180 227 228
f 180 228 182
f 181 182 185
f 182 187 186
f 182 186 185
f 182 225 226
f 182 228 229
f 182 229 189
f 182 189 188
f 182 188 187
f 189 229 230
f 189 230 190
f 190 230 231
f 190 231 232
f 190 232 197
f 190 197 196
f 191 217 192
f 193 195 233
f 194 203 195
f 195 219 234
f 195 234 233
f 195 203 202
f 195 202 235
f 195 235 236
f 195 236 219
f 197 232 237
f 197 237 238
f 197 238 239
f 197 239 198
f 198 239 240
f 198 240 199
f 199 240 247
f 199 247 204
f 200 241 242
f 200 242 243
f 200 243 244
f 200 244 245
f 200 245 201
f 200 205 241
f 201 245 246
f 201 246 220
f 201 220 202
f 202 220 235
f 204 247 249
f 204 249 206
f 205 207 248
f 205 248 241
f 206 249 207
f 207 249 248
f 208 212 209
f 209 212 227
f 212 216 215
f 212 215 227
f 213 214 239
f 213 239 238
f 213 238 215
f 214 223 240
f 214 240 239
f 215 229 227
f 215 238 237
f 215 237 229
f 218 233 219
f 219 233 234
f 219 236 235
f 219 235 220
f 220 246 221
f 221 246 250
f 221 250 251
f 221 251 248
f 221 248 252
f 221 252 253
f 221 253 249
f 221 249 222
f 222 249 223
f 223 247 240
f 223 249 247
f 227 229 228
f 229 237 232
f 229 232 231
f 229 231 230
f 241 248 242
f 242 248 243
f 243 248 244
f 244 246 245
f 244 248 246
f 246 248 250
f 248 251 250
f 248 249 253
f 248 253 252

