# https://github.com/mikedh/trimesh
v -0.02412842 0.02094860 0.01421200
v -0.02412842 0.02093191 0.01521321
v -0.02412842 -0.02167229 0.01421200
v -0.06447940 0.01251704 0.01421200
v -0.02412842 0.02050220 0.02159493
v -0.02412842 -0.02165978 0.01521321
v -0.06507049 -0.01261911 0.01421607
v -0.06507049 -0.01261911 0.01421200
v -0.06507049 0.01236268 0.01421200
v -0.02412842 0.01955933 0.03083172
v -0.02412842 -0.02076697 0.02521109
v -0.07262801 -0.01092529 0.01421200
v -0.07481745 0.00918780 0.01421200
v -0.02412842 0.01855806 0.03500140
v -0.02412842 -0.01907732 0.03500140
v -0.08010108 -0.00790895 0.01421200
v -0.08507106 0.00499080 0.01421200
v -0.02804892 0.01376446 0.03500140
v -0.08517360 0.00494491 0.01421200
v -0.02795844 -0.01457993 0.03500140
v -0.08574057 -0.00508452 0.01421200
v -0.08534852 -0.00528478 0.01421200
v -0.03408045 0.00464035 0.03500140
v -0.07048681 0.00032236 0.02033730
v -0.03422521 0.00438169 0.03500140
v -0.03094406 -0.01046220 0.03500140
v -0.03432775 -0.00467150 0.03500140
v -0.03433378 -0.00459640 0.03500140
f 1 2 5
f 1 5 10
f 1 10 14
f 1 14 15
f 1 15 11
f 1 11 6
f 1 6 3
f 1 3 8
f 1 8 12
f 1 12 16
f 1 16 22
f 1 22 21
f 1 21 19
f 1 19 17
f 1 17 13
f 1 13 9
f 1 9 4
f 1 4 2
f 2 4 5
f 3 6 7
f 3 7 8
f 4 9 10
f 4 10 5
f 6 11 7
f 7 11 12
f 7 12 8
f 9 13 14
f 9 14 10
f 11 15 12
f 12 15 16
f 13 17 14
f 14 18 23
f 14 23 25
f 14 25 28
f 14 28 27
f 14 27 26
f 14 26 20
f 14 20 15
f 14 17 19
f 14 19 18
f 15 20 21
f 15 21 22
f 15 22 16
f 18 19 23
f 19 21 24
f 19 24 25
f 19 25 23
f 20 26 21
f 21 26 27
f 21 27 28
f 21 28 25
f 21 25 24

