# https://github.com/mikedh/trimesh
v -0.30034050 0.03474760 -0.07426910
v -0.30034050 0.03474760 -0.07432907
v -0.30115333 0.03474760 -0.07199572
v -0.20433426 0.01194266 -0.03237247
v -0.19506781 0.00954965 -0.03237247
v -0.30402540 0.03474760 -0.08361884
v -0.30377253 0.03474760 -0.06477762
v -0.20507486 0.01201119 -0.03237247
v -0.30386282 0.03474760 -0.06465223
v -0.30848703 0.03474760 -0.05883522
v -0.18507883 0.00624285 -0.03237247
v -0.30411573 0.03474760 -0.08370061
v -0.18204420 0.00503207 -0.03237247
v -0.21506384 0.01259945 -0.03237247
v -0.30861347 0.03474760 -0.05881341
v -0.30528984 0.02493570 -0.08438208
v -0.31504398 0.01494105 -0.08778942
v -0.31504398 0.02493570 -0.08739144
v -0.31504398 0.03474760 -0.08697711
v -0.18191774 0.00149682 -0.03237247
v -0.23507793 0.01350753 -0.03237247
v -0.31504398 0.03474760 -0.05853538
v -0.18168293 -0.00516248 -0.03237247
v -0.30534402 0.00494640 -0.08446930
v -0.31504398 0.00494640 -0.08805655
v -0.36619917 0.00494640 -0.07266084
v -0.32156482 0.03474760 -0.08232132
v -0.36619917 0.01078899 -0.07054011
v -0.24506691 0.01379881 -0.03237247
v -0.32035458 0.03474760 -0.05948398
v -0.36619917 0.01109168 -0.04862411
v -0.27270372 0.01123446 -0.03237247
v -0.26506294 0.01225106 -0.03237247
v -0.25505590 0.01335904 -0.03237247
v -0.18383245 -0.00616765 -0.03237247
v -0.30534402 -0.02359833 -0.08442024
v -0.30536208 -0.00505396 -0.08446930
v -0.31504398 -0.00505396 -0.08806201
v -0.36619917 -0.00353478 -0.07200663
v -0.31504398 -0.01505433 -0.08788210
v -0.31504398 -0.02359833 -0.08766948
v -0.32320860 0.03474760 -0.07477611
v -0.36619917 0.01377025 -0.06477762
v -0.32039073 0.03474760 -0.05959846
v -0.36619917 0.01407294 -0.05478458
v -0.36619917 0.00494640 -0.04561475
v -0.27579252 0.01000655 -0.03237247
v -0.18939594 -0.00824083 -0.03237247
v -0.30675295 -0.02359833 -0.08492725
v -0.19694638 -0.01011983 -0.03237247
v -0.20538194 -0.01177608 -0.03237247
v -0.30088240 -0.02359833 -0.07477611
v -0.36619917 -0.00480838 -0.07184853
v -0.31610972 -0.02359833 -0.08698801
v -0.36619917 -0.00969719 -0.06944976
v -0.32199834 0.03474760 -0.06477762
v -0.36619917 0.00376989 -0.04564746
v -0.28699174 -0.00503683 -0.03237247
v -0.28682919 0.00310167 -0.03237247
v -0.28677498 0.00488929 -0.03237247
v -0.20679086 -0.01198740 -0.03237247
v -0.30360994 -0.02359833 -0.06487575
v -0.32214286 -0.02359833 -0.08301914
v -0.36619917 -0.01194171 -0.06528463
v -0.36619917 -0.00505396 -0.04603998
v -0.27982063 -0.00942305 -0.03237247
v -0.21399810 -0.01250141 -0.03237247
v -0.30780063 -0.02359833 -0.05771761
v -0.32273894 -0.02359833 -0.08176524
v -0.36619917 -0.01230723 -0.06456500
v -0.36619917 -0.00571647 -0.04637799
v -0.27326368 -0.01153050 -0.03237247
v -0.36619917 -0.01071379 -0.04904935
v -0.23265746 -0.01379214 -0.03237247
v -0.31504398 -0.02359833 -0.05655094
v -0.32468977 -0.02359833 -0.07465073
v -0.36619917 -0.01302113 -0.05478458
v -0.27142122 -0.01188459 -0.03237247
v -0.36619917 -0.01098793 -0.04971991
v -0.32158291 -0.02359833 -0.05822463
v -0.31975851 -0.02359833 -0.05771216
v -0.24291738 -0.01398062 -0.03237247
v -0.25232835 -0.01391208 -0.03237247
v -0.26182961 -0.01319818 -0.03237247
v -0.32479815 -0.02359833 -0.07308062
v -0.32382273 -0.02359833 -0.06477762
v -0.32344342 -0.02359833 -0.06310394
f 1 2 6
f 1 6 12
f 1 12 19
f 1 19 27
f 1 27 42
f 1 42 56
f 1 56 44
f 1 44 30
f 1 30 22
f 1 22 15
f 1 15 10
f 1 10 9
f 1 9 7
f 1 7 3
f 1 3 4
f 1 4 2
f 2 4 5
f 2 5 6
f 3 7 4
f 4 8 14
f 4 14 21
f 4 21 29
f 4 29 34
f 4 34 33
f 4 33 32
f 4 32 47
f 4 47 60
f 4 60 59
f 4 59 58
f 4 58 66
f 4 66 72
f 4 72 78
f 4 78 84
f 4 84 83
f 4 83 82
f 4 82 74
f 4 74 67
f 4 67 61
f 4 61 51
f 4 51 50
f 4 50 48
f 4 48 35
f 4 35 23
f 4 23 20
f 4 20 13
f 4 13 11
f 4 11 5
f 4 7 9
f 4 9 10
f 4 10 8
f 5 11 6
f 6 11 13
f 6 13 12
f 8 10 15
f 8 15 14
f 12 16 17
f 12 17 18
f 12 18 19
f 12 13 16
f 13 20 16
f 14 15 21
f 15 22 21
f 16 20 23
f 16 23 24
f 16 24 25
f 16 25 17
f 17 25 26
f 17 26 18
f 18 26 19
f 19 26 28
f 19 28 27
f 21 22 29
f 22 30 31
f 22 31 32
f 22 32 33
f 22 33 34
f 22 34 29
f 23 35 36
f 23 36 37
f 23 37 24
f 24 37 38
f 24 38 25
f 25 38 26
f 26 39 53
f 26 53 55
f 26 55 64
f 26 64 70
f 26 70 77
f 26 77 79
f 26 79 73
f 26 73 71
f 26 71 65
f 26 65 57
f 26 57 46
f 26 46 31
f 26 31 45
f 26 45 43
f 26 43 28
f 26 38 40
f 26 40 41
f 26 41 39
f 27 28 43
f 27 43 42
f 30 44 45
f 30 45 31
f 31 46 32
f 32 46 47
f 35 48 36
f 36 49 38
f 36 38 37
f 36 48 50
f 36 50 51
f 36 51 52
f 36 52 62
f 36 62 68
f 36 68 75
f 36 75 81
f 36 81 80
f 36 80 87
f 36 87 86
f 36 86 85
f 36 85 76
f 36 76 69
f 36 69 63
f 36 63 54
f 36 54 41
f 36 41 49
f 38 49 40
f 39 41 53
f 40 49 41
f 41 54 55
f 41 55 53
f 42 43 45
f 42 45 56
f 44 56 45
f 46 57 58
f 46 58 59
f 46 59 60
f 46 60 47
f 51 61 52
f 52 61 62
f 54 63 55
f 55 63 64
f 57 65 58
f 58 65 66
f 61 67 68
f 61 68 62
f 63 69 70
f 63 70 64
f 65 71 66
f 66 71 73
f 66 73 72
f 67 74 68
f 68 74 75
f 69 76 70
f 70 76 77
f 72 73 78
f 73 79 80
f 73 80 81
f 73 81 75
f 73 75 78
f 74 82 75
f 75 82 83
f 75 83 84
f 75 84 78
f 76 85 77
f 77 85 86
f 77 86 87
f 77 87 80
f 77 80 79

