# https://github.com/mikedh/trimesh
v -0.32261315 -0.35722850 -0.07364636
v -0.32267952 -0.35722850 -0.07495821
v -0.32304453 -0.35722850 -0.06711550
v -0.18806375 -0.44488382 -0.07498659
v -0.32291180 -0.35722850 -0.07659487
v -0.32385745 -0.35722850 -0.06460848
v -0.19038642 -0.44488382 -0.06465893
v -0.18871078 -0.44488382 -0.07149253
v -0.19055234 -0.44488382 -0.07854688
v -0.32624651 -0.35722850 -0.08184227
v -0.32712579 -0.35722850 -0.05946829
v -0.19539678 -0.44488382 -0.06114280
v -0.32752397 -0.35764894 -0.05802715
v -0.19614335 -0.44488382 -0.08229952
v -0.32669445 -0.35722850 -0.08219230
v -0.32850281 -0.35722850 -0.05777802
v -0.20321093 -0.44488382 -0.05679414
v -0.20053985 -0.44488382 -0.08349784
v -0.33110753 -0.35722850 -0.08417584
v -0.33474086 -0.35722850 -0.05570934
v -0.21289982 -0.44488382 -0.05528993
v -0.21517273 -0.44488382 -0.08602694
v -0.34282046 -0.35722850 -0.08642428
v -0.34492747 -0.35722850 -0.05472546
v -0.33503950 -0.36501932 -0.05422721
v -0.21507318 -0.44488382 -0.05495881
v -0.22519342 -0.44488382 -0.08498944
v -0.23506480 -0.43500801 -0.08617200
v -0.33503950 -0.36501932 -0.08644004
v -0.35242640 -0.35722850 -0.08290499
v -0.34456246 -0.36464179 -0.05718202
v -0.35328909 -0.35722850 -0.05771495
v -0.32503538 -0.37502383 -0.05464977
v -0.28503555 -0.40501164 -0.05471284
v -0.25505643 -0.42500350 -0.05484844
v -0.22914197 -0.44488382 -0.05670584
v -0.23446754 -0.44488382 -0.08250450
v -0.24601457 -0.43597759 -0.08382896
v -0.25505643 -0.42500350 -0.08614362
v -0.28503555 -0.40501164 -0.08636436
v -0.29503967 -0.39501569 -0.08635806
v -0.32503538 -0.37502383 -0.08628868
v -0.34474495 -0.36478766 -0.08285769
v -0.35139780 -0.36129552 -0.08106020
v -0.35357114 -0.35722850 -0.08223330
v -0.34089597 -0.37081952 -0.05895112
v -0.33430951 -0.37450044 -0.05760459
v -0.31503129 -0.38501976 -0.05508810
v -0.35114891 -0.36105528 -0.05875246
v -0.35718790 -0.35722850 -0.06477876
v -0.27504805 -0.41500757 -0.05534038
v -0.24551685 -0.43567727 -0.05652294
v -0.23506480 -0.44324501 -0.05714418
v -0.23486571 -0.44488382 -0.05982149
v -0.23471640 -0.44488382 -0.08243512
v -0.24331031 -0.44174346 -0.08157422
v -0.25505643 -0.43331771 -0.08257703
v -0.26516006 -0.42543252 -0.08344423
v -0.27504805 -0.41500757 -0.08544354
v -0.31503129 -0.38501976 -0.08568636
v -0.33459153 -0.37467205 -0.08265587
v -0.35237664 -0.36221361 -0.07477531
v -0.35738696 -0.35740011 -0.07477531
v -0.35755288 -0.35722850 -0.07477531
v -0.35748651 -0.35722850 -0.07495191
v -0.34121118 -0.37110267 -0.08092776
v -0.35219412 -0.36203341 -0.06477876
v -0.34681879 -0.36703568 -0.06477876
v -0.34182505 -0.37166040 -0.06477876
v -0.32010800 -0.39007349 -0.05971742
v -0.33051027 -0.38043795 -0.05933269
v -0.32407313 -0.38427329 -0.05814068
v -0.31503129 -0.39208985 -0.05820059
v -0.30559126 -0.39564206 -0.05631166
v -0.29494011 -0.40520039 -0.05674369
v -0.26482824 -0.42523516 -0.05682252
v -0.25505643 -0.43269136 -0.05752890
v -0.24248077 -0.44129728 -0.05843395
v -0.24010833 -0.44488382 -0.06489544
v -0.23944470 -0.44488382 -0.07805493
v -0.24997971 -0.43995021 -0.07916496
v -0.26187514 -0.43113835 -0.08106020
v -0.27504805 -0.42200043 -0.08166882
v -0.28430559 -0.41481879 -0.08244458
v -0.29518896 -0.40536342 -0.08352623
v -0.30582352 -0.39584798 -0.08404655
v -0.32422246 -0.38451353 -0.08210716
v -0.33095821 -0.38084978 -0.08072909
v -0.34705105 -0.36721585 -0.07477531
v -0.34205730 -0.37187489 -0.07477531
v -0.33661561 -0.37687716 -0.07477531
v -0.33162183 -0.38144183 -0.07477531
v -0.33626720 -0.37666267 -0.06477876
v -0.33127345 -0.38113293 -0.06477876
v -0.32563265 -0.38612662 -0.06477876
v -0.32062230 -0.39051109 -0.06477876
v -0.31007071 -0.40005228 -0.06959413
v -0.30929095 -0.39939161 -0.06292767
v -0.29153904 -0.41106067 -0.05866731
v -0.30262154 -0.40199141 -0.05804608
v -0.28405670 -0.41463863 -0.05775911
v -0.27504805 -0.42156283 -0.05839611
v -0.26134424 -0.43080370 -0.05889121
v -0.24915018 -0.43946114 -0.06215506
v -0.24551685 -0.44208666 -0.06520448
v -0.25036130 -0.44019045 -0.06882153
v -0.24128626 -0.44488382 -0.07511588
v -0.24601457 -0.44235265 -0.07540916
v -0.25036130 -0.44019045 -0.07249849
v -0.27504805 -0.42439432 -0.07477531
v -0.28098745 -0.42062761 -0.07477531
v -0.28047314 -0.42029296 -0.08014885
v -0.29195381 -0.41136099 -0.08128095
v -0.30300311 -0.40225739 -0.08182650
v -0.31503129 -0.39250171 -0.08183596
v -0.32035685 -0.39027943 -0.08010470
v -0.32581514 -0.38643549 -0.07477531
v -0.31007071 -0.40005228 -0.07013969
v -0.29822505 -0.40865823 -0.07477531
v -0.29323128 -0.41224474 -0.07477531
v -0.29291606 -0.41202166 -0.06477876
v -0.29790984 -0.40845229 -0.06477876
v -0.30559126 -0.40278937 -0.06566804
v -0.28007497 -0.42002698 -0.05975842
v -0.28068883 -0.42043025 -0.06477876
v -0.28598122 -0.41724701 -0.07477531
v -0.30967253 -0.39973480 -0.07680300
v -0.32082139 -0.39066554 -0.07477531
v -0.31406901 -0.39636279 -0.07399324
v -0.30582352 -0.40294379 -0.07399324
v -0.28568258 -0.41702390 -0.06477876
f 1 2 5
f 1 5 10
f 1 10 15
f 1 15 19
f 1 19 23
f 1 23 30
f 1 30 45
f 1 45 65
f 1 65 64
f 1 64 50
f 1 50 32
f 1 32 24
f 1 24 20
f 1 20 16
f 1 16 11
f 1 11 6
f 1 6 3
f 1 3 4
f 1 4 2
f 2 4 5
f 3 6 7
f 3 7 8
f 3 8 4
f 4 8 7
f 4 7 12
f 4 12 17
f 4 17 21
f 4 21 26
f 4 26 36
f 4 36 54
f 4 54 79
f 4 79 107
f 4 107 80
f 4 80 55
f 4 55 37
f 4 37 27
f 4 27 22
f 4 22 18
f 4 18 14
f 4 14 9
f 4 9 10
f 4 10 5
f 6 11 7
f 7 11 13
f 7 13 12
f 9 14 15
f 9 15 10
f 11 16 13
f 12 13 16
f 12 16 17
f 14 18 19
f 14 19 15
f 16 20 17
f 17 20 21
f 18 22 23
f 18 23 19
f 20 24 25
f 20 25 26
f 20 26 21
f 22 27 28
f 22 28 23
f 23 29 30
f 23 28 29
f 24 31 25
f 24 32 31
f 25 31 33
f 25 33 34
f 25 34 35
f 25 35 26
f 26 35 36
f 27 37 38
f 27 38 39
f 27 39 28
f 28 39 40
f 28 40 41
f 28 41 29
f 29 42 43
f 29 43 30
f 29 41 40
f 29 40 42
f 30 44 45
f 30 43 44
f 31 46 47
f 31 47 48
f 31 48 33
f 31 32 49
f 31 49 46
f 32 50 49
f 33 48 34
f 34 48 51
f 34 51 35
f 35 51 52
f 35 52 36
f 36 53 54
f 36 52 53
f 37 55 38
f 38 56 57
f 38 57 58
f 38 58 59
f 38 59 39
f 38 55 56
f 39 59 40
f 40 60 42
f 40 59 60
f 42 61 43
f 42 60 61
f 43 61 44
f 44 62 63
f 44 63 64
f 44 64 65
f 44 65 45
f 44 61 66
f 44 66 62
f 46 49 67
f 46 67 68
f 46 68 69
f 46 69 70
f 46 70 71
f 46 71 72
f 46 72 47
f 47 72 73
f 47 73 48
f 48 73 74
f 48 74 75
f 48 75 51
f 49 50 67
f 50 64 63
f 50 63 67
f 51 76 52
f 51 75 76
f 52 76 77
f 52 77 53
f 53 77 78
f 53 78 54
f 54 78 79
f 55 80 56
f 56 81 82
f 56 82 57
f 56 80 81
f 57 82 83
f 57 83 84
f 57 84 58
f 58 84 59
f 59 84 85
f 59 85 60
f 60 85 86
f 60 86 87
f 60 87 61
f 61 87 88
f 61 88 66
f 62 66 88
f 62 88 89
f 62 89 67
f 62 67 63
f 67 89 90
f 67 90 68
f 68 90 69
f 69 90 91
f 69 91 92
f 69 92 93
f 69 93 70
f 70 72 71
f 70 93 94
f 70 94 95
f 70 95 96
f 70 96 97
f 70 97 98
f 70 98 99
f 70 99 100
f 70 100 73
f 70 73 72
f 73 100 74
f 74 100 75
f 75 100 99
f 75 99 101
f 75 101 76
f 76 101 102
f 76 102 77
f 77 102 103
f 77 103 78
f 78 103 104
f 78 104 79
f 79 104 105
f 79 105 106
f 79 106 107
f 80 107 81
f 81 107 108
f 81 108 109
f 81 109 110
f 81 110 111
f 81 111 112
f 81 112 82
f 82 112 83
f 83 112 113
f 83 113 84
f 84 113 85
f 85 113 114
f 85 114 86
f 86 114 115
f 86 115 87
f 87 115 88
f 88 115 116
f 88 116 92
f 88 92 91
f 88 91 90
f 88 90 89
f 92 97 95
f 92 95 94
f 92 94 93
f 92 116 117
f 92 117 118
f 92 118 97
f 95 97 96
f 97 118 119
f 97 119 120
f 97 120 121
f 97 121 122
f 97 122 123
f 97 123 98
f 98 123 122
f 98 122 124
f 98 124 99
f 99 124 102
f 99 102 101
f 102 124 103
f 103 124 104
f 104 106 105
f 104 124 106
f 106 109 107
f 106 124 125
f 106 125 111
f 106 111 109
f 107 109 108
f 109 111 110
f 111 125 126
f 111 126 112
f 112 126 120
f 112 120 119
f 112 119 127
f 112 127 113
f 113 127 116
f 113 116 114
f 114 116 115
f 116 128 117
f 116 127 128
f 117 128 118
f 118 128 129
f 118 129 127
f 118 127 130
f 118 130 119
f 119 130 127
f 120 126 131
f 120 131 121
f 121 131 124
f 121 124 122
f 124 131 125
f 125 131 126
f 127 129 128

