# https://github.com/mikedh/trimesh
v -0.50469160 -0.02538761 -0.07477741
v -0.50461978 -0.02538761 -0.07503271
v -0.50432876 -0.03505592 -0.07477741
v -0.50334241 -0.02538761 -0.06511410
v -0.50215569 -0.03505592 -0.08243645
v -0.50235224 -0.02538761 -0.08263600
v -0.50288511 -0.03505592 -0.06477957
v -0.50181181 -0.04505477 -0.08209899
v -0.50370143 -0.04505477 -0.07477741
v -0.50232578 -0.04505477 -0.06477957
v -0.50329324 -0.02538761 -0.06477957
v -0.49502805 -0.04505477 -0.08604002
v -0.49502805 -0.05505362 -0.08551768
v -0.50211415 -0.02538761 -0.08276218
v -0.50019806 -0.05155540 -0.05958257
v -0.50043616 -0.04505477 -0.05932140
v -0.50129783 -0.05505362 -0.08152969
v -0.50058354 -0.06505246 -0.08058771
v -0.50270370 -0.05505362 -0.07477741
v -0.50073093 -0.06505246 -0.06716238
v -0.50125623 -0.05495262 -0.06419560
v -0.50071204 -0.03505592 -0.05904848
v -0.50095013 -0.02538761 -0.05880199
v -0.49502805 -0.03505592 -0.08624543
v -0.48503194 -0.09503983 -0.08614566
v -0.49502805 -0.06505246 -0.08450234
v -0.48503194 -0.10503869 -0.08555289
v -0.49372043 -0.08504098 -0.08318182
v -0.49502805 -0.02538761 -0.08632466
v -0.49968030 -0.05822130 -0.06047466
v -0.49065547 -0.10304626 -0.05912478
v -0.49146800 -0.09503983 -0.05839116
v -0.49239392 -0.08504098 -0.05779546
v -0.49324046 -0.07504214 -0.05750494
v -0.49408324 -0.06505246 -0.05734355
v -0.49271894 -0.09503983 -0.08268001
v -0.50012249 -0.07060738 -0.07992745
v -0.49164185 -0.10503869 -0.08182021
v -0.50128651 -0.06505246 -0.07477741
v -0.50023209 -0.07121338 -0.06892895
v -0.49908318 -0.06505246 -0.06216199
v -0.49502805 -0.04505477 -0.05700901
v -0.49502805 -0.02538761 -0.05671556
v -0.48503194 -0.08504098 -0.08623076
v -0.47503205 -0.11918765 -0.08564093
v -0.48215215 -0.11918765 -0.08442017
v -0.48543632 -0.11918765 -0.08347820
v -0.49470682 -0.02538761 -0.08623370
v -0.48992229 -0.10971216 -0.06000807
v -0.48378479 -0.11918765 -0.05712052
v -0.48425341 -0.11503754 -0.05703836
v -0.48503194 -0.09503983 -0.05634874
v -0.50025474 -0.07134192 -0.07477741
v -0.49073861 -0.11331138 -0.08079020
v -0.49009614 -0.11918765 -0.07935229
v -0.49020195 -0.11918765 -0.07841032
v -0.49559117 -0.09503983 -0.07477741
v -0.49762818 -0.08504098 -0.07477741
v -0.49931750 -0.07632758 -0.07477741
v -0.49021706 -0.11918765 -0.06902872
v -0.49434023 -0.09503983 -0.06477957
v -0.49630167 -0.08504098 -0.06477957
v -0.49836136 -0.07473914 -0.06526963
v -0.48715967 -0.02538761 -0.05769275
v -0.47457854 -0.11918765 -0.05660698
v -0.47195195 -0.11918765 -0.08410032
v -0.48579156 -0.02538761 -0.08346353
v -0.49069325 -0.11503754 -0.06725041
v -0.48872806 -0.11918765 -0.06377303
v -0.49183838 -0.10584667 -0.06391682
v -0.49032288 -0.11918765 -0.07325440
v -0.49098424 -0.11600161 -0.07540539
v -0.49343320 -0.10503869 -0.07477741
v -0.48185359 -0.02538761 -0.06507595
v -0.46928757 -0.11918765 -0.05898100
v -0.46945388 -0.11762677 -0.05913653
v -0.46827851 -0.11918765 -0.08184075
v -0.48152857 -0.02538761 -0.07600403
v -0.47980144 -0.04777255 -0.08013287
v -0.46951056 -0.10749938 -0.08049968
v -0.48180445 -0.02538761 -0.06517572
v -0.46719767 -0.11918765 -0.06445384
v -0.46708050 -0.11918765 -0.07866269
v -0.48079918 -0.02538761 -0.07472752
v -0.48073872 -0.02538761 -0.07461307
v -0.48073872 -0.02538761 -0.07456319
v -0.46652117 -0.11918765 -0.07063683
v -0.46608658 -0.11918765 -0.07477741
f 1 2 3
f 1 3 4
f 1 4 11
f 1 11 23
f 1 23 43
f 1 43 64
f 1 64 74
f 1 74 81
f 1 81 86
f 1 86 85
f 1 85 84
f 1 84 78
f 1 78 67
f 1 67 48
f 1 48 29
f 1 29 14
f 1 14 6
f 1 6 2
f 2 5 3
f 2 6 5
f 3 7 4
f 3 5 8
f 3 8 9
f 3 9 10
f 3 10 7
f 4 7 11
f 5 6 12
f 5 12 13
f 5 13 8
f 6 14 12
f 7 10 15
f 7 15 16
f 7 16 11
f 8 13 17
f 8 17 9
f 9 17 18
f 9 18 19
f 9 19 20
f 9 20 10
f 10 20 21
f 10 21 15
f 11 16 22
f 11 22 23
f 12 14 24
f 12 24 25
f 12 25 13
f 13 26 17
f 13 25 27
f 13 27 28
f 13 28 26
f 14 29 24
f 15 21 30
f 15 30 31
f 15 31 32
f 15 32 33
f 15 33 34
f 15 34 16
f 16 34 35
f 16 35 22
f 17 26 28
f 17 28 36
f 17 36 18
f 18 37 19
f 18 36 38
f 18 38 37
f 19 37 39
f 19 39 40
f 19 40 20
f 20 40 41
f 20 41 30
f 20 30 21
f 22 35 42
f 22 42 23
f 23 42 43
f 24 29 44
f 24 44 25
f 25 44 45
f 25 45 27
f 27 36 28
f 27 45 46
f 27 46 47
f 27 47 36
f 29 48 45
f 29 45 44
f 30 41 49
f 30 49 31
f 31 49 50
f 31 50 32
f 32 50 33
f 33 50 34
f 34 50 51
f 34 51 52
f 34 52 35
f 35 52 42
f 36 47 38
f 37 53 39
f 37 38 54
f 37 54 55
f 37 55 56
f 37 56 57
f 37 57 58
f 37 58 59
f 37 59 53
f 38 47 54
f 39 53 40
f 40 53 59
f 40 59 58
f 40 58 57
f 40 57 60
f 40 60 61
f 40 61 62
f 40 62 63
f 40 63 41
f 41 63 62
f 41 62 49
f 42 52 43
f 43 52 65
f 43 65 64
f 45 66 77
f 45 77 83
f 45 83 88
f 45 88 87
f 45 87 82
f 45 82 75
f 45 75 65
f 45 65 50
f 45 50 69
f 45 69 60
f 45 60 71
f 45 71 56
f 45 56 55
f 45 55 47
f 45 47 46
f 45 48 67
f 45 67 66
f 47 55 54
f 49 68 60
f 49 60 69
f 49 69 50
f 49 62 61
f 49 61 70
f 49 70 68
f 50 65 52
f 50 52 51
f 56 71 72
f 56 72 73
f 56 73 57
f 57 73 60
f 60 73 71
f 60 68 61
f 61 68 70
f 64 65 75
f 64 75 76
f 64 76 74
f 66 67 77
f 67 78 79
f 67 79 80
f 67 80 77
f 71 73 72
f 74 76 81
f 75 82 76
f 76 82 81
f 77 80 83
f 78 84 79
f 79 84 80
f 80 84 85
f 80 85 83
f 81 82 86
f 82 87 86
f 83 85 88
f 85 86 88
f 86 87 88

