# https://github.com/mikedh/trimesh
v -0.00408504 0.29395534 -0.03237247
v -0.00429228 0.29361971 -0.03237247
v 0.00388380 0.29392178 -0.03237247
v 0.00491507 0.49486380 -0.04646141
v -0.00507683 0.49486380 -0.04665702
v -0.00824957 0.28492687 -0.03237247
v 0.00395288 0.29382109 -0.03237247
v 0.01103849 0.49486380 -0.04879236
v 0.01040197 0.50030096 -0.04937374
v 0.00491507 0.50103938 -0.04855872
v -0.00507683 0.50097227 -0.04862936
v 0.00419466 0.29341833 -0.03237247
v 0.00776707 0.28673929 -0.03237247
v 0.01021941 0.28053012 -0.03237247
v -0.01047492 0.50020030 -0.04946068
v -0.01101769 0.49486380 -0.04899340
v -0.01176770 0.27364970 -0.03237247
v -0.01100782 0.27640186 -0.03237247
v 0.02498274 0.49486380 -0.05641006
v 0.01157140 0.27358256 -0.03237247
v 0.01189212 0.27170303 -0.03237247
v 0.02491366 0.50110649 -0.05844761
v 0.00491507 0.50342236 -0.05478003
v -0.00507683 0.50335526 -0.05478003
v -0.02542576 0.50124077 -0.05831720
v -0.02542576 0.49486380 -0.05623076
v -0.01286311 0.26492330 -0.03237247
v 0.02498274 0.50110649 -0.05849107
v 0.01310595 0.26160054 -0.03237247
v 0.01394971 0.25206865 -0.03237247
v 0.01437406 0.24250318 -0.03237247
v 0.01459610 0.23253495 -0.03237247
v 0.02498274 0.31493226 -0.05715988
v 0.02498274 0.50348947 -0.06477758
v 0.01491683 0.50432856 -0.06477758
v 0.00491507 0.50496626 -0.06477758
v -0.00507683 0.50489915 -0.06477758
v -0.02507543 0.50362375 -0.06477758
v -0.02542576 0.50359019 -0.06477758
v -0.02542576 0.50352303 -0.06456024
v -0.02542576 0.31493226 -0.05701861
v -0.01437300 0.22494971 -0.03237247
v -0.01429898 0.24491972 -0.03237247
v -0.01382529 0.25492150 -0.03237247
v 0.01455170 0.22253316 -0.03237247
v 0.01405333 0.21253137 -0.03237247
v 0.02498274 0.30882379 -0.05858888
v 0.02498274 0.50442922 -0.07482403
v 0.02491366 0.50446283 -0.07477513
v 0.01491683 0.50476488 -0.07477513
v 0.00491507 0.50486560 -0.07477513
v -0.00507683 0.50469777 -0.07477513
v -0.02507543 0.50432856 -0.07477513
v -0.02542576 0.50429500 -0.07477513
v -0.02542576 0.31473088 -0.05704578
v -0.01391411 0.21494792 -0.03237247
v 0.01279016 0.19376963 -0.03237247
v 0.02498274 0.30597090 -0.06477758
v 0.01209936 0.18490899 -0.03237247
v 0.02498274 0.50201274 -0.08242543
v 0.02491366 0.50204624 -0.08240369
v 0.01491683 0.50214696 -0.08252866
v 0.00491507 0.50218051 -0.08254496
v -0.02542576 0.50194558 -0.08225699
v -0.02542576 0.30895803 -0.05859974
v -0.01270521 0.19494434 -0.03237247
v 0.02498274 0.30392358 -0.07470993
v 0.01208949 0.18480830 -0.03237247
v 0.02498274 0.49486380 -0.08606041
v 0.01491683 0.49486380 -0.08617451
v 0.00491507 0.49486380 -0.08626688
v -0.02507543 0.50194558 -0.08226242
v -0.00507683 0.49486380 -0.08617451
v -0.02542576 0.49513229 -0.08577787
v -0.02542576 0.30882379 -0.05880078
v -0.01213284 0.18702345 -0.03237247
v 0.02498274 0.30392358 -0.07477513
v 0.01028849 0.17661891 -0.03237247
v 0.02498274 0.30677644 -0.08387073
v 0.02498274 0.30674285 -0.08380553
v 0.02498274 0.31493226 -0.08755461
v 0.00491507 0.31493226 -0.08779911
v -0.00507683 0.31493226 -0.08787518
v -0.02542576 0.49486380 -0.08590827
v -0.01507860 0.31493226 -0.08777738
v -0.02542576 0.30610518 -0.06477758
v -0.01173810 0.18497611 -0.03237247
v -0.02542576 0.30600449 -0.06512532
v -0.02542576 0.30368862 -0.07477513
v -0.02542576 0.30654150 -0.08406633
v 0.00816182 0.16916791 -0.03237247
v 0.02498274 0.31486513 -0.08753287
v 0.00594633 0.16386495 -0.03237247
v 0.00489039 0.16208610 -0.03237247
v -0.02542576 0.31493226 -0.08756004
v -0.00955221 0.17494076 -0.03237247
v -0.00603901 0.16426770 -0.03237247
f 1 2 6
f 1 6 18
f 1 18 17
f 1 17 27
f 1 27 44
f 1 44 43
f 1 43 42
f 1 42 56
f 1 56 66
f 1 66 76
f 1 76 87
f 1 87 96
f 1 96 97
f 1 97 94
f 1 94 93
f 1 93 91
f 1 91 78
f 1 78 68
f 1 68 59
f 1 59 57
f 1 57 46
f 1 46 45
f 1 45 32
f 1 32 31
f 1 31 30
f 1 30 29
f 1 29 21
f 1 21 20
f 1 20 14
f 1 14 13
f 1 13 12
f 1 12 7
f 1 7 3
f 1 3 4
f 1 4 5
f 1 5 2
f 2 5 6
f 3 7 4
f 4 8 9
f 4 9 10
f 4 10 11
f 4 11 5
f 4 7 12
f 4 12 13
f 4 13 14
f 4 14 8
f 5 11 15
f 5 15 16
f 5 16 17
f 5 17 18
f 5 18 6
f 8 19 9
f 8 14 20
f 8 20 21
f 8 21 19
f 9 19 22
f 9 22 10
f 10 22 23
f 10 23 24
f 10 24 11
f 11 24 25
f 11 25 15
f 15 26 16
f 15 25 26
f 16 26 17
f 17 26 27
f 19 28 22
f 19 21 29
f 19 29 30
f 19 30 31
f 19 31 32
f 19 32 33
f 19 33 47
f 19 47 58
f 19 58 67
f 19 67 77
f 19 77 80
f 19 80 79
f 19 79 92
f 19 92 81
f 19 81 69
f 19 69 60
f 19 60 48
f 19 48 34
f 19 34 28
f 22 34 23
f 22 28 34
f 23 34 35
f 23 35 36
f 23 36 37
f 23 37 24
f 24 37 38
f 24 38 39
f 24 39 40
f 24 40 25
f 25 40 39
f 25 39 54
f 25 54 64
f 25 64 74
f 25 74 84
f 25 84 95
f 25 95 90
f 25 90 89
f 25 89 88
f 25 88 86
f 25 86 75
f 25 75 65
f 25 65 55
f 25 55 41
f 25 41 26
f 26 41 42
f 26 42 43
f 26 43 44
f 26 44 27
f 32 45 33
f 33 45 46
f 33 46 47
f 34 48 49
f 34 49 35
f 35 49 36
f 36 49 50
f 36 50 51
f 36 51 37
f 37 51 52
f 37 52 53
f 37 53 38
f 38 53 54
f 38 54 39
f 41 55 42
f 42 55 56
f 46 57 47
f 47 57 59
f 47 59 58
f 48 60 61
f 48 61 49
f 49 61 50
f 50 61 62
f 50 62 51
f 51 62 63
f 51 63 64
f 51 64 52
f 52 64 53
f 53 64 54
f 55 65 56
f 56 65 66
f 58 59 68
f 58 68 67
f 60 62 61
f 60 69 62
f 62 69 70
f 62 70 71
f 62 71 63
f 63 72 64
f 63 71 73
f 63 73 74
f 63 74 72
f 64 72 74
f 65 75 76
f 65 76 66
f 67 68 77
f 68 78 79
f 68 79 80
f 68 80 77
f 69 81 82
f 69 82 70
f 70 82 71
f 71 82 83
f 71 83 73
f 73 84 74
f 73 83 85
f 73 85 84
f 75 86 76
f 76 86 88
f 76 88 89
f 76 89 90
f 76 90 87
f 78 91 79
f 79 91 93
f 79 93 94
f 79 94 92
f 81 92 82
f 82 92 94
f 82 94 83
f 83 94 85
f 84 85 95
f 85 94 95
f 87 90 96
f 90 95 97
f 90 97 96
f 94 97 95

