# https://github.com/mikedh/trimesh
v 0.01620474 0.03841253 0.00521066
v 0.01285503 0.03841253 -0.00421476
v 0.01617221 0.03841253 0.01174051
v 0.04524640 0.01603598 0.00521066
v 0.01129400 0.03149180 -0.01179340
v 0.01018827 0.03841253 -0.00588827
v 0.04524640 0.01592388 0.00494162
v 0.04524640 0.01242614 -0.00246374
v 0.01607465 0.03841253 0.01421200
v 0.04524640 0.01580429 0.01421200
v 0.00039932 0.03007177 -0.01989188
v 0.00420432 0.03279224 -0.01498537
v 0.02153826 0.02164133 -0.01257772
v 0.00488728 0.03841253 -0.00863336
v 0.04524640 0.01215708 -0.00263702
v -0.01586141 0.03841253 0.01421200
v 0.04524640 -0.01555576 0.01421200
v 0.00039932 0.02957103 -0.01989188
v -0.18165578 -0.00515971 -0.03237247
v -0.18188343 0.00149197 -0.03237247
v -0.18201352 0.00502708 -0.03237247
v -0.18503800 0.00624531 -0.03237247
v -0.19505461 0.00954872 -0.03237247
v -0.20432323 0.01194034 -0.03237247
v -0.20503871 0.01200760 -0.03237247
v -0.21505532 0.01259803 -0.03237247
v -0.23505599 0.01350236 -0.03237247
v -0.24504009 0.01379384 -0.03237247
v -0.00070641 0.03007177 -0.01989188
v 0.02488797 0.01454122 -0.01384082
v 0.02488797 0.00493739 -0.01557817
v 0.02488797 -0.00505508 -0.01573320
v 0.04524640 0.00491497 -0.00689602
v -0.00509681 0.03841253 -0.00846920
v -0.01592646 0.03841253 0.00521066
v -0.25502419 0.01335289 -0.03237247
v -0.26504077 0.01225424 -0.03237247
v -0.27268334 0.01123780 -0.03237247
v -0.27043934 0.01004200 -0.02967753
v -0.23183637 0.01036337 -0.01934925
v -0.19749373 0.00898072 -0.01037070
v -0.16185021 0.00102860 0.00058686
v -0.08519714 0.00494487 0.01421200
v 0.04524640 -0.01589956 0.00521066
v 0.01552179 -0.03793978 0.01421200
v -0.18380220 -0.00616867 -0.03237247
v 0.00488728 -0.02504748 -0.01490785
v 0.03253051 0.00493739 -0.01272363
v 0.03256303 -0.00505508 -0.01277836
v 0.02482293 -0.01463648 -0.01387274
v 0.01441606 -0.02494285 -0.01361283
v 0.04524640 0.00463844 -0.00689602
v -0.01273935 0.03841253 -0.00404149
v -0.01397517 0.03841253 -0.00126904
v -0.27577286 0.01000463 -0.03237247
v -0.27710625 0.00815860 -0.03065793
v -0.23850328 0.00916009 -0.02028403
v -0.22503939 0.00493739 -0.01508113
v -0.20503871 0.00694784 -0.01125077
v -0.20503871 0.00194787 -0.00904375
v -0.19450175 0.00536340 -0.00820928
v -0.21046979 0.00025132 -0.00968671
v -0.16185021 -0.00118365 0.00058686
v -0.11066145 0.00028869 0.01033604
v -0.08575001 -0.00508497 0.01421200
v 0.04524640 -0.01243171 -0.00245006
v 0.01561935 -0.03793978 0.00521066
v 0.01350545 -0.03793978 -0.00160647
v 0.01239973 -0.03793978 -0.00409621
v -0.01621914 -0.03793978 0.01421200
v -0.18936335 -0.00823891 -0.03237247
v 0.00488728 -0.03279781 -0.01254124
v -0.19694087 -0.01012231 -0.03237247
v 0.04524640 -0.00503265 -0.00688234
v 0.02140817 -0.02153480 -0.01242268
v 0.01077366 -0.03098168 -0.01095893
v -0.28676512 0.00488508 -0.03237247
v -0.28504148 0.00487013 -0.03180247
v -0.28169178 0.00149197 -0.02925802
v -0.25053622 0.00031859 -0.01965476
v -0.24504009 0.00214219 -0.01892517
v -0.23512105 0.00547551 -0.01775782
v -0.21046979 -0.00035406 -0.00968671
v -0.08012380 -0.00790259 0.01421200
v -0.08535976 -0.00528676 0.01421200
v -0.11066145 -0.00042132 0.01033604
v -0.20503871 -0.00209545 -0.00904375
v -0.19482698 -0.00551098 -0.00813176
v -0.18503800 -0.00505508 -0.00589739
v -0.17505392 -0.00505508 -0.00382717
v 0.00488728 -0.03793978 -0.00825032
v -0.01628419 -0.03793978 0.01232418
v -0.19798155 -0.00914324 -0.01037070
v -0.19131465 -0.01030916 -0.00951799
v -0.23899110 -0.00950946 -0.02011988
v -0.27108977 -0.01035400 -0.02948146
v -0.27323620 -0.01152738 -0.03237247
v -0.27141499 -0.01188613 -0.03237247
v -0.26178864 -0.01320152 -0.03237247
v -0.00509681 -0.03304445 -0.01289235
v -0.20676234 -0.01199076 -0.03237247
v -0.20536391 -0.01177402 -0.03237247
v -0.28683014 0.00309884 -0.03237247
v -0.28699276 -0.00503265 -0.03237247
v -0.28169178 -0.00168439 -0.02925802
v -0.25053622 -0.00046616 -0.01965476
v -0.24504009 -0.00245419 -0.01892517
v -0.23541373 -0.00572772 -0.01771678
v -0.00509681 -0.03793978 -0.00843728
v -0.01621914 -0.03793978 0.00521066
v -0.26504077 -0.00505508 -0.02557358
v -0.27775668 -0.00835102 -0.03061233
v -0.27980552 -0.00941977 -0.03237247
v -0.25229238 -0.01391153 -0.03237247
v -0.00519438 -0.03793978 -0.00838712
v -0.01056041 -0.03793978 -0.00559187
v -0.01283691 -0.03793978 -0.00416461
v -0.24289367 -0.01397879 -0.03237247
v -0.23261690 -0.01379195 -0.03237247
v -0.21398210 -0.01249898 -0.03237247
v -0.27466713 -0.00503265 -0.02837339
f 1 2 6
f 1 6 14
f 1 14 34
f 1 34 53
f 1 53 54
f 1 54 35
f 1 35 16
f 1 16 9
f 1 9 3
f 1 3 4
f 1 4 2
f 2 5 6
f 2 4 7
f 2 7 8
f 2 8 5
f 3 9 10
f 3 10 4
f 4 10 17
f 4 17 44
f 4 44 66
f 4 66 74
f 4 74 52
f 4 52 33
f 4 33 15
f 4 15 8
f 4 8 7
f 5 11 12
f 5 12 6
f 5 8 13
f 5 13 11
f 6 12 11
f 6 11 14
f 8 15 13
f 9 16 43
f 9 43 65
f 9 65 85
f 9 85 84
f 9 84 70
f 9 70 45
f 9 45 17
f 9 17 10
f 11 18 19
f 11 19 20
f 11 20 21
f 11 21 22
f 11 22 23
f 11 23 24
f 11 24 25
f 11 25 26
f 11 26 27
f 11 27 28
f 11 28 29
f 11 29 14
f 11 13 30
f 11 30 31
f 11 31 32
f 11 32 18
f 13 15 33
f 13 33 30
f 14 29 34
f 16 35 36
f 16 36 37
f 16 37 38
f 16 38 39
f 16 39 40
f 16 40 41
f 16 41 42
f 16 42 43
f 17 45 44
f 18 32 19
f 19 46 71
f 19 71 73
f 19 73 102
f 19 102 101
f 19 101 120
f 19 120 119
f 19 119 118
f 19 118 114
f 19 114 99
f 19 99 98
f 19 98 97
f 19 97 113
f 19 113 104
f 19 104 103
f 19 103 77
f 19 77 55
f 19 55 38
f 19 38 37
f 19 37 36
f 19 36 28
f 19 28 27
f 19 27 26
f 19 26 25
f 19 25 24
f 19 24 23
f 19 23 22
f 19 22 21
f 19 21 20
f 19 32 47
f 19 47 46
f 28 36 34
f 28 34 29
f 30 48 31
f 30 33 48
f 31 48 32
f 32 48 49
f 32 49 50
f 32 50 51
f 32 51 47
f 33 52 49
f 33 49 48
f 34 36 53
f 35 54 36
f 36 54 53
f 38 55 56
f 38 56 39
f 39 56 57
f 39 57 40
f 40 57 41
f 41 57 58
f 41 58 59
f 41 59 60
f 41 60 61
f 41 61 42
f 42 61 60
f 42 60 62
f 42 62 83
f 42 83 63
f 42 63 86
f 42 86 64
f 42 64 43
f 43 64 65
f 44 45 67
f 44 67 68
f 44 68 69
f 44 69 66
f 45 70 92
f 45 92 110
f 45 110 117
f 45 117 116
f 45 116 115
f 45 115 109
f 45 109 91
f 45 91 69
f 45 69 68
f 45 68 67
f 46 47 71
f 47 51 72
f 47 72 73
f 47 73 71
f 49 52 74
f 49 74 50
f 50 75 51
f 50 74 75
f 51 76 72
f 51 75 76
f 55 77 56
f 56 77 78
f 56 78 79
f 56 79 80
f 56 80 81
f 56 81 57
f 57 81 82
f 57 82 58
f 58 82 62
f 58 62 60
f 58 60 59
f 62 82 81
f 62 81 80
f 62 80 106
f 62 106 83
f 63 84 85
f 63 85 65
f 63 65 86
f 63 83 87
f 63 87 88
f 63 88 89
f 63 89 90
f 63 90 70
f 63 70 84
f 64 86 65
f 66 69 75
f 66 75 74
f 69 91 76
f 69 76 75
f 70 90 93
f 70 93 94
f 70 94 95
f 70 95 96
f 70 96 97
f 70 97 98
f 70 98 99
f 70 99 92
f 72 76 91
f 72 91 100
f 72 100 101
f 72 101 102
f 72 102 73
f 77 103 79
f 77 79 78
f 79 103 104
f 79 104 105
f 79 105 106
f 79 106 80
f 83 106 107
f 83 107 108
f 83 108 87
f 87 108 95
f 87 95 93
f 87 93 88
f 88 93 89
f 89 93 90
f 91 109 100
f 92 99 110
f 93 95 94
f 95 108 107
f 95 107 111
f 95 111 96
f 96 111 112
f 96 112 113
f 96 113 97
f 99 114 109
f 99 109 115
f 99 115 116
f 99 116 117
f 99 117 110
f 100 109 118
f 100 118 119
f 100 119 120
f 100 120 101
f 104 113 112
f 104 112 105
f 105 112 121
f 105 121 106
f 106 121 111
f 106 111 107
f 109 114 118
f 111 121 112

