# https://github.com/mikedh/trimesh
v -0.02542576 0.50430740 -0.07477555
v -0.02542576 0.50428618 -0.07442929
v -0.02542576 0.50194915 -0.08225925
v -0.03509584 0.50183228 -0.08215631
v -0.03509584 0.50402061 -0.07477555
v -0.02542576 0.50360628 -0.06478065
v -0.02542576 0.49488499 -0.08590595
v -0.03509584 0.49488499 -0.08585916
v -0.04508338 0.49488499 -0.08572814
v -0.04508338 0.50155610 -0.08190675
v -0.04508338 0.50339382 -0.07477555
v -0.03509584 0.50321323 -0.06478065
v -0.02542576 0.50353191 -0.06456229
v -0.08508236 0.48488894 -0.08628341
v -0.02542576 0.48616369 -0.08342282
v -0.27489438 0.40491001 -0.08537875
v -0.26502894 0.41490606 -0.08647682
v -0.09509432 0.48488894 -0.08620854
v -0.05509533 0.49488499 -0.08518223
v -0.08508236 0.49339780 -0.08324189
v -0.05509533 0.50098247 -0.08128596
v -0.06322699 0.50035573 -0.08048113
v -0.06989349 0.49985644 -0.07920837
v -0.05509533 0.50227843 -0.07477555
v -0.07082143 0.50001578 -0.06921035
v -0.04508338 0.50243780 -0.06478065
v -0.04508338 0.50060002 -0.05895341
v -0.03509584 0.50102496 -0.05851980
v -0.02542576 0.50124804 -0.05831703
v -0.13506888 0.47489292 -0.08653609
v -0.02542576 0.48237135 -0.07477555
v -0.27489438 0.39802646 -0.08149184
v -0.27489438 0.41490606 -0.08576557
v -0.25504141 0.42490211 -0.08652673
v -0.23504191 0.43489815 -0.08654857
v -0.10508185 0.48488894 -0.08561584
v -0.09509432 0.49246300 -0.08269286
v -0.10508185 0.49145382 -0.08182563
v -0.11340887 0.49056151 -0.08075876
v -0.09509432 0.49524615 -0.07477555
v -0.08508236 0.49722199 -0.07477555
v -0.07453318 0.49919785 -0.07543689
v -0.07082143 0.50001578 -0.07254199
v -0.06596196 0.50064252 -0.07543689
v -0.12007536 0.48988167 -0.07975428
v -0.12034398 0.48994538 -0.06950982
v -0.09509432 0.49406703 -0.06478065
v -0.08508236 0.49606411 -0.06478065
v -0.05878266 0.49959087 -0.06047573
v -0.06508286 0.50047260 -0.06737296
v -0.05211617 0.50017515 -0.05943070
v -0.05529069 0.50109934 -0.06419731
v -0.08508236 0.49223992 -0.05766506
v -0.07509482 0.49311098 -0.05733439
v -0.04508338 0.49488499 -0.05644844
v -0.02542576 0.50103557 -0.05823905
v -0.14508083 0.47489292 -0.08588723
v -0.19504293 0.45489022 -0.08640195
v -0.17504345 0.46488627 -0.08590283
v -0.02542576 0.48348674 -0.06512691
v -0.27489438 0.39580630 -0.07459774
v -0.27489438 0.39579569 -0.07477555
v -0.27489438 0.42211892 -0.08189115
v -0.26529755 0.42542261 -0.08368798
v -0.24505386 0.43489815 -0.08527893
v -0.22505438 0.44490481 -0.08554721
v -0.21504241 0.44490481 -0.08647370
v -0.13506888 0.48313618 -0.08309839
v -0.14508083 0.48175523 -0.08202840
v -0.10508185 0.49314287 -0.07477555
v -0.12034398 0.48994538 -0.07308790
v -0.12422666 0.48903183 -0.07576443
v -0.15233340 0.48061860 -0.08079620
v -0.14508083 0.48370981 -0.07477555
v -0.13506888 0.48648236 -0.07477555
v -0.15255317 0.48069295 -0.06650886
v -0.13506888 0.48523950 -0.06478065
v -0.12422666 0.48801204 -0.06561980
v -0.10979479 0.48980729 -0.05999533
v -0.10591211 0.49159194 -0.06391031
v -0.10312830 0.49048716 -0.05910626
v -0.09509432 0.49128387 -0.05835447
v -0.12508134 0.48305122 -0.05712538
v -0.11506938 0.48416661 -0.05686022
v -0.09509432 0.48488894 -0.05614586
v -0.03509584 0.49488499 -0.05625504
v -0.13506888 0.47489292 -0.05545020
v -0.02542576 0.49488499 -0.05623008
v -0.16505591 0.47345884 -0.08320758
v -0.20505489 0.45489022 -0.08517911
v -0.19504293 0.46327160 -0.08296114
v -0.02542576 0.48352923 -0.06478065
v -0.27489438 0.39692168 -0.06505829
v -0.27489438 0.39687919 -0.06541079
v -0.27489438 0.42458343 -0.07477555
v -0.26214745 0.43124391 -0.08128908
v -0.25413790 0.43470693 -0.08232164
v -0.23443143 0.44507475 -0.08283948
v -0.21428543 0.45506019 -0.08272406
v -0.17504345 0.47178043 -0.08208144
v -0.15863360 0.47939698 -0.07477555
v -0.15362762 0.48104350 -0.07477555
v -0.18227158 0.47060130 -0.08079620
v -0.15001354 0.47986438 -0.05984247
v -0.14603319 0.48201019 -0.06381673
v -0.18222274 0.47064380 -0.06478065
v -0.18056222 0.47007016 -0.05954924
v -0.14334705 0.48082043 -0.05872257
v -0.13506888 0.48190395 -0.05775864
v -0.15504395 0.47401122 -0.05691014
v -0.17504345 0.46488627 -0.05572472
v -0.19504293 0.45489022 -0.05504155
v -0.21504241 0.44490481 -0.05477327
v -0.02542576 0.49461942 -0.05627375
v -0.25504141 0.42490211 -0.05468281
v -0.26502894 0.41490606 -0.05498228
v -0.20505489 0.46121077 -0.08131092
v -0.02542576 0.48717284 -0.05794581
v -0.27489438 0.39925871 -0.05983311
v -0.27489438 0.42381858 -0.06561980
v -0.26778831 0.42841823 -0.06478065
v -0.25042615 0.44013518 -0.06856149
v -0.26839881 0.42884317 -0.07477555
v -0.25020638 0.43999706 -0.07991338
v -0.24505386 0.44144179 -0.08139202
v -0.22505438 0.45159714 -0.08164471
v -0.18349256 0.47104746 -0.07477555
v -0.21042715 0.46006351 -0.08003504
v -0.18849852 0.46932658 -0.07477555
v -0.18722872 0.46879544 -0.06478065
v -0.19504293 0.46575733 -0.06478065
v -0.20896200 0.45936242 -0.06190135
v -0.20229549 0.46083897 -0.05866642
v -0.19504293 0.46226242 -0.05749660
v -0.17504345 0.47088812 -0.05866953
v -0.16505591 0.47239655 -0.05745293
v -0.18434723 0.46521555 -0.05718153
v -0.20539676 0.45557009 -0.05660754
v -0.21504241 0.45297812 -0.05708483
v -0.22573812 0.44573338 -0.05639230
v -0.02542576 0.48732157 -0.05769313
v -0.24556667 0.43562049 -0.05641725
v -0.26480917 0.42509330 -0.05684775
v -0.27489438 0.41668006 -0.05629871
v -0.27489438 0.41573462 -0.05612402
v -0.27489438 0.40435765 -0.05635486
v -0.27489438 0.40385837 -0.05654827
v -0.27489438 0.42370174 -0.06424098
v -0.26280678 0.43166882 -0.06478065
v -0.23618962 0.44793229 -0.07477555
v -0.24505386 0.44318391 -0.07477555
v -0.25045055 0.44014579 -0.07477555
v -0.25545652 0.43705457 -0.07477555
v -0.26341725 0.43205123 -0.07477555
v -0.25428440 0.43702269 -0.06504893
v -0.24922959 0.43942346 -0.06189511
v -0.24556667 0.44211102 -0.06504893
v -0.23091504 0.45032242 -0.06756325
v -0.23069526 0.45021619 -0.08022845
v -0.21074460 0.46020160 -0.07477555
v -0.20505489 0.46263422 -0.07477555
v -0.19504293 0.46675587 -0.07477555
v -0.22505438 0.45345613 -0.07477555
v -0.21575059 0.45788584 -0.07477555
v -0.21059809 0.46013788 -0.06856773
v -0.20539676 0.46160383 -0.06505205
v -0.22954756 0.44963194 -0.06089687
v -0.22288105 0.45120412 -0.05834511
v -0.23504191 0.44321579 -0.05706611
v -0.27489438 0.40412394 -0.05641102
v -0.25504141 0.43266736 -0.05746853
v -0.27316060 0.42188524 -0.05804252
v -0.27489438 0.41809290 -0.05691637
v -0.27489438 0.42133285 -0.05865394
v -0.26134162 0.43073402 -0.05888167
v -0.23118365 0.45046051 -0.07477555
v -0.24256309 0.44126117 -0.05836382
v -0.23455352 0.44780481 -0.06444998
v -0.22573812 0.45217077 -0.06444998
f 1 2 6
f 1 6 13
f 1 13 29
f 1 29 56
f 1 56 88
f 1 88 114
f 1 114 141
f 1 141 118
f 1 118 92
f 1 92 60
f 1 60 31
f 1 31 15
f 1 15 7
f 1 7 3
f 1 3 4
f 1 4 5
f 1 5 2
f 2 5 6
f 3 7 8
f 3 8 9
f 3 9 4
f 4 9 10
f 4 10 5
f 5 10 11
f 5 11 12
f 5 12 6
f 6 12 13
f 7 14 8
f 7 15 16
f 7 16 17
f 7 17 14
f 8 14 18
f 8 18 9
f 9 19 10
f 9 18 19
f 10 19 20
f 10 20 21
f 10 21 11
f 11 21 22
f 11 22 23
f 11 23 24
f 11 24 25
f 11 25 26
f 11 26 12
f 12 26 27
f 12 27 28
f 12 28 13
f 13 28 29
f 14 17 30
f 14 30 18
f 15 31 32
f 15 32 16
f 16 32 62
f 16 62 61
f 16 61 94
f 16 94 93
f 16 93 119
f 16 119 147
f 16 147 170
f 16 170 146
f 16 146 145
f 16 145 144
f 16 144 173
f 16 173 174
f 16 174 148
f 16 148 120
f 16 120 95
f 16 95 63
f 16 63 33
f 16 33 17
f 17 33 34
f 17 34 35
f 17 35 30
f 18 30 36
f 18 36 19
f 19 36 20
f 20 36 37
f 20 37 21
f 21 37 22
f 22 37 38
f 22 38 39
f 22 39 23
f 23 40 41
f 23 41 42
f 23 42 43
f 23 43 44
f 23 44 24
f 23 39 45
f 23 45 40
f 24 44 43
f 24 43 25
f 25 43 41
f 25 41 40
f 25 40 46
f 25 46 47
f 25 47 48
f 25 48 49
f 25 49 50
f 25 50 26
f 26 51 27
f 26 50 52
f 26 52 51
f 27 51 53
f 27 53 54
f 27 54 28
f 28 54 55
f 28 55 29
f 29 55 56
f 30 57 36
f 30 35 58
f 30 58 59
f 30 59 57
f 31 60 61
f 31 61 62
f 31 62 32
f 33 63 64
f 33 64 65
f 33 65 34
f 34 65 66
f 34 66 35
f 35 66 67
f 35 67 58
f 36 57 68
f 36 68 37
f 37 68 38
f 38 68 39
f 39 68 69
f 39 69 45
f 40 45 70
f 40 70 71
f 40 71 46
f 41 43 42
f 45 72 71
f 45 71 70
f 45 69 73
f 45 73 74
f 45 74 75
f 45 75 72
f 46 71 75
f 46 75 76
f 46 76 77
f 46 77 78
f 46 78 79
f 46 79 80
f 46 80 47
f 47 80 79
f 47 79 48
f 48 79 49
f 49 51 52
f 49 52 50
f 49 79 51
f 51 79 81
f 51 81 82
f 51 82 53
f 53 82 83
f 53 83 84
f 53 84 54
f 54 84 85
f 54 85 55
f 55 86 56
f 55 85 87
f 55 87 86
f 56 86 88
f 57 89 68
f 57 59 89
f 58 67 66
f 58 66 90
f 58 90 59
f 59 90 91
f 59 91 89
f 60 92 93
f 60 93 94
f 60 94 61
f 63 95 96
f 63 96 64
f 64 96 97
f 64 97 65
f 65 97 98
f 65 98 66
f 66 99 90
f 66 98 99
f 68 89 69
f 69 89 100
f 69 100 73
f 71 72 75
f 73 101 102
f 73 102 74
f 73 100 103
f 73 103 101
f 74 102 76
f 74 76 75
f 76 104 105
f 76 105 77
f 76 102 101
f 76 101 106
f 76 106 107
f 76 107 104
f 77 105 104
f 77 104 79
f 77 79 78
f 79 104 108
f 79 108 109
f 79 109 81
f 81 109 82
f 82 109 83
f 83 109 110
f 83 110 111
f 83 111 87
f 83 87 84
f 84 87 85
f 86 87 88
f 87 111 112
f 87 112 113
f 87 113 88
f 88 113 115
f 88 115 116
f 88 116 114
f 89 91 100
f 90 99 91
f 91 103 100
f 91 99 117
f 91 117 103
f 92 118 119
f 92 119 93
f 95 120 121
f 95 121 122
f 95 122 123
f 95 123 124
f 95 124 96
f 96 124 125
f 96 125 97
f 97 125 98
f 98 125 126
f 98 126 99
f 99 126 117
f 101 103 127
f 101 127 106
f 103 117 128
f 103 128 129
f 103 129 127
f 104 107 108
f 106 127 129
f 106 129 130
f 106 130 107
f 107 130 131
f 107 131 132
f 107 132 133
f 107 133 134
f 107 134 135
f 107 135 108
f 108 135 136
f 108 136 109
f 109 136 110
f 110 136 111
f 111 137 134
f 111 134 138
f 111 138 112
f 111 136 137
f 112 138 139
f 112 139 140
f 112 140 113
f 113 140 115
f 114 116 141
f 115 142 143
f 115 143 144
f 115 144 145
f 115 145 116
f 115 140 142
f 116 145 146
f 116 146 141
f 117 126 128
f 118 141 119
f 119 141 147
f 120 148 121
f 121 148 149
f 121 149 122
f 122 150 151
f 122 151 152
f 122 152 153
f 122 153 154
f 122 154 123
f 122 149 155
f 122 155 156
f 122 156 157
f 122 157 158
f 122 158 150
f 123 154 124
f 124 154 153
f 124 153 152
f 124 152 151
f 124 151 150
f 124 150 159
f 124 159 125
f 125 159 126
f 126 159 128
f 128 160 161
f 128 161 162
f 128 162 129
f 128 159 163
f 128 163 164
f 128 164 160
f 129 162 165
f 129 165 130
f 130 165 131
f 131 165 166
f 131 166 132
f 132 166 165
f 132 165 167
f 132 167 133
f 133 167 168
f 133 168 139
f 133 139 134
f 134 137 136
f 134 136 135
f 134 139 138
f 139 168 169
f 139 169 140
f 140 169 142
f 141 146 170
f 141 170 147
f 142 171 143
f 142 169 171
f 143 172 173
f 143 173 144
f 143 171 172
f 148 174 175
f 148 175 149
f 149 175 156
f 149 156 155
f 150 158 176
f 150 176 159
f 156 175 177
f 156 177 167
f 156 167 157
f 157 167 178
f 157 178 158
f 158 167 179
f 158 179 165
f 158 165 163
f 158 163 176
f 158 178 167
f 159 176 163
f 160 165 161
f 160 164 165
f 161 165 162
f 163 165 164
f 165 179 167
f 167 177 168
f 168 177 169
f 169 177 171
f 171 177 175
f 171 175 172
f 172 174 173
f 172 175 174

