# https://github.com/mikedh/trimesh
v 0.31488541 0.00494319 -0.08741466
v 0.31488541 0.01493993 -0.08731228
v 0.39651152 0.00494319 -0.07360023
v 0.31488541 -0.00505356 -0.08738232
v 0.30516345 0.02488705 -0.08416578
v 0.31488541 0.02488705 -0.08708599
v 0.39651152 0.01014216 -0.07138582
v 0.39651152 0.00328878 -0.07354635
v 0.31488541 -0.01736648 -0.08717220
v 0.31488541 -0.01505445 -0.08723147
v 0.30543999 -0.01736648 -0.08401493
v 0.30512090 0.02488705 -0.08414962
v 0.32207583 0.02488705 -0.08271646
v 0.39651152 0.01430299 -0.06477494
v 0.39651152 0.01378185 -0.06580941
v 0.39651152 0.01119270 -0.07092785
v 0.39651152 -0.00505356 -0.07327157
v 0.32235237 -0.01736648 -0.08293736
v 0.39651152 -0.01091429 -0.07059920
v 0.39651152 -0.01139821 -0.06961861
v 0.39651152 -0.01377642 -0.06477494
v 0.30207879 -0.01736648 -0.07690836
v 0.20490180 -0.01221300 -0.03237785
v 0.20232772 -0.01197725 -0.03237785
v 0.19490331 -0.01014913 -0.03237785
v 0.18490479 -0.00692718 -0.03237785
v 0.18054374 -0.00522314 -0.03237785
v 0.17920352 0.00526166 -0.03237785
v 0.18250089 0.00684575 -0.03237785
v 0.18805325 0.00904611 -0.03237785
v 0.19569043 0.01120511 -0.03237785
v 0.19951962 0.01200750 -0.03237785
v 0.30056839 0.02488705 -0.07482326
v 0.32460736 0.02488705 -0.07477478
v 0.39651152 0.01430712 -0.05643995
v 0.32639433 -0.01736648 -0.07434914
v 0.39651152 -0.01392945 -0.05478050
v 0.30110022 -0.01736648 -0.07477478
v 0.21490032 -0.01280445 -0.03237785
v 0.20417851 0.01245419 -0.03237785
v 0.30822681 0.02488705 -0.05852505
v 0.30365302 0.02488705 -0.06478033
v 0.30054711 0.02488705 -0.07477478
v 0.32460736 0.02488705 -0.07470474
v 0.39651152 0.01428231 -0.05478050
v 0.32664959 -0.01736648 -0.06477494
v 0.39651152 -0.01106733 -0.04882154
v 0.25489434 -0.01352826 -0.03237785
v 0.25489434 -0.01435960 -0.03478622
v 0.31488541 -0.01736648 -0.05347664
v 0.32403298 -0.01736648 -0.05566949
v 0.30163207 -0.01736648 -0.06761433
v 0.23489733 -0.01395427 -0.03478622
v 0.23489733 -0.01357789 -0.03237785
v 0.22249493 0.01368258 -0.03237785
v 0.31488541 0.02488705 -0.05772226
v 0.23249343 0.01414168 -0.03237785
v 0.32335222 0.02488705 -0.06477494
v 0.39651152 0.01169730 -0.04965127
v 0.32333095 0.02488705 -0.06471568
v 0.32082069 0.02488705 -0.05896685
v 0.32075686 0.02488705 -0.05895069
v 0.39651152 -0.00505356 -0.04578280
v 0.27316822 -0.01153470 -0.03237785
v 0.26489287 -0.01265142 -0.03237785
v 0.24489584 -0.01372679 -0.03237785
v 0.24489584 -0.01430996 -0.03478622
v 0.30543999 -0.01736648 -0.05540010
v 0.30518473 -0.01736648 -0.05576108
v 0.39651152 0.01117616 -0.04863836
v 0.24268341 0.01407551 -0.03237785
v 0.25212880 0.01384802 -0.03237785
v 0.26163802 0.01302082 -0.03237785
v 0.39651152 0.00494319 -0.04559962
v 0.28820852 -0.00516523 -0.03237785
v 0.27612522 -0.01047588 -0.03237785
v 0.39651152 0.00597305 -0.04608991
v 0.27121107 0.01172211 -0.03237785
v 0.27301931 0.01137055 -0.03237785
v 0.27972043 0.00960447 -0.03237785
v 0.28654921 0.00592756 -0.03237785
v 0.28814472 0.00504659 -0.03237785
f 1 2 3
f 1 3 4
f 1 4 5
f 1 5 2
f 2 6 3
f 2 5 6
f 3 7 16
f 3 16 15
f 3 15 14
f 3 14 35
f 3 35 45
f 3 45 59
f 3 59 70
f 3 70 77
f 3 77 74
f 3 74 63
f 3 63 47
f 3 47 37
f 3 37 21
f 3 21 20
f 3 20 19
f 3 19 17
f 3 17 8
f 3 8 9
f 3 9 10
f 3 10 4
f 3 6 7
f 4 10 11
f 4 11 5
f 5 12 33
f 5 33 43
f 5 43 42
f 5 42 41
f 5 41 56
f 5 56 62
f 5 62 61
f 5 61 60
f 5 60 58
f 5 58 44
f 5 44 34
f 5 34 13
f 5 13 6
f 5 11 12
f 6 13 14
f 6 14 15
f 6 15 16
f 6 16 7
f 8 17 9
f 9 18 36
f 9 36 46
f 9 46 51
f 9 51 50
f 9 50 68
f 9 68 69
f 9 69 52
f 9 52 38
f 9 38 22
f 9 22 11
f 9 11 10
f 9 17 19
f 9 19 20
f 9 20 21
f 9 21 18
f 11 22 23
f 11 23 24
f 11 24 25
f 11 25 26
f 11 26 27
f 11 27 28
f 11 28 12
f 12 28 29
f 12 29 30
f 12 30 31
f 12 31 32
f 12 32 33
f 13 34 14
f 14 34 35
f 18 21 36
f 21 37 36
f 22 38 23
f 23 39 54
f 23 54 66
f 23 66 48
f 23 48 65
f 23 65 64
f 23 64 76
f 23 76 75
f 23 75 82
f 23 82 81
f 23 81 80
f 23 80 79
f 23 79 78
f 23 78 73
f 23 73 72
f 23 72 71
f 23 71 57
f 23 57 55
f 23 55 40
f 23 40 32
f 23 32 31
f 23 31 30
f 23 30 29
f 23 29 28
f 23 28 27
f 23 27 26
f 23 26 25
f 23 25 24
f 23 38 39
f 32 40 41
f 32 41 42
f 32 42 43
f 32 43 33
f 34 44 35
f 35 44 45
f 36 37 46
f 37 47 48
f 37 48 49
f 37 49 50
f 37 50 51
f 37 51 46
f 38 52 53
f 38 53 39
f 39 53 54
f 40 55 41
f 41 55 57
f 41 57 56
f 44 58 45
f 45 58 60
f 45 60 61
f 45 61 62
f 45 62 59
f 47 63 64
f 47 64 65
f 47 65 48
f 48 66 49
f 49 66 67
f 49 67 50
f 50 67 68
f 52 69 53
f 53 67 54
f 53 69 68
f 53 68 67
f 54 67 66
f 56 70 62
f 56 57 71
f 56 71 72
f 56 72 73
f 56 73 70
f 59 62 70
f 63 74 75
f 63 75 76
f 63 76 64
f 70 73 78
f 70 78 79
f 70 79 80
f 70 80 77
f 74 77 80
f 74 80 81
f 74 81 82
f 74 82 75

