# https://github.com/mikedh/trimesh
v 0.23152207 -0.19786726 -0.07397282
v 0.23173624 -0.19786726 -0.07717300
v 0.23152207 -0.19786726 -0.07242552
v 0.30110966 -0.01736648 -0.07477452
v 0.23610350 -0.19786726 -0.08241866
v 0.30209670 -0.01736648 -0.07690907
v 0.30543966 -0.01736648 -0.08401546
v 0.23253706 -0.19786726 -0.06757906
v 0.30163112 -0.01736648 -0.06762195
v 0.24489390 -0.19502264 -0.08524603
v 0.24489390 -0.19786726 -0.08515696
v 0.31488189 -0.01736648 -0.08717604
v 0.23366380 -0.19786726 -0.06561607
v 0.30519757 -0.01736648 -0.05576148
v 0.30237607 -0.01736648 -0.06513439
v 0.25489485 -0.18502230 -0.08557266
v 0.26489579 -0.17502196 -0.08563204
v 0.25555601 -0.19558803 -0.08363275
v 0.25470861 -0.19786726 -0.08312468
v 0.32235934 -0.01736648 -0.08293663
v 0.31488189 -0.02506992 -0.08697479
v 0.30488096 -0.08505427 -0.08622918
v 0.29488002 -0.11503761 -0.08605103
v 0.23425975 -0.19786726 -0.06465601
v 0.30544899 -0.01736648 -0.05539858
v 0.28488839 -0.14503862 -0.08500850
v 0.27569757 -0.16572837 -0.08365585
v 0.26509136 -0.18491629 -0.08305210
v 0.26189736 -0.19263741 -0.08163346
v 0.26028642 -0.19786726 -0.07477452
v 0.32640068 -0.01736648 -0.07434893
v 0.32214515 -0.02506992 -0.08274528
v 0.31488189 -0.03505259 -0.08661519
v 0.30488096 -0.09505461 -0.08515036
v 0.31488189 -0.04505292 -0.08611701
v 0.31488189 -0.05505326 -0.08525594
v 0.30283235 -0.11503761 -0.08279147
v 0.23863633 -0.19786726 -0.05915302
v 0.31488189 -0.01736648 -0.05347517
v 0.23933471 -0.19786726 -0.05881320
v 0.24206310 -0.19786726 -0.05805440
v 0.29369741 -0.13503830 -0.08308179
v 0.28489768 -0.15426154 -0.08252753
v 0.27288536 -0.17502196 -0.08241207
v 0.27088334 -0.18150628 -0.08093404
v 0.26308930 -0.19420988 -0.07477452
v 0.25999775 -0.19786726 -0.07244202
v 0.32173544 -0.03505259 -0.08235928
v 0.32664280 -0.01736648 -0.06478138
v 0.32283422 -0.04505292 -0.07477452
v 0.32013379 -0.06146690 -0.08023462
v 0.32060870 -0.05505326 -0.08098023
v 0.32123261 -0.04505292 -0.08181491
v 0.31375516 -0.07505394 -0.08350409
v 0.31255392 -0.08505427 -0.08277497
v 0.31115714 -0.09505461 -0.08145860
v 0.31023528 -0.10115022 -0.08032699
v 0.30124000 -0.12325344 -0.08143552
v 0.30313032 -0.10505494 -0.05804450
v 0.32403546 -0.01736648 -0.05566581
v 0.24495909 -0.19786726 -0.05799832
v 0.25235271 -0.19786726 -0.05801481
v 0.26489579 -0.17502196 -0.05767499
v 0.27517609 -0.16502162 -0.05812698
v 0.28251384 -0.15503896 -0.05832493
v 0.29230993 -0.13503830 -0.05831834
v 0.29138807 -0.14503862 -0.08144871
v 0.28157335 -0.16286609 -0.08156748
v 0.29008441 -0.15040983 -0.08007296
v 0.27959924 -0.16958008 -0.07477452
v 0.27625628 -0.17502196 -0.07477452
v 0.27154446 -0.18247805 -0.07477452
v 0.26808975 -0.18747822 -0.07477452
v 0.26243747 -0.19341481 -0.06478138
v 0.25899206 -0.19786726 -0.06478138
v 0.32152127 -0.05505326 -0.07477452
v 0.31991962 -0.05035345 -0.05974686
v 0.32062732 -0.05424051 -0.06472530
v 0.32023621 -0.06203230 -0.06802115
v 0.32033866 -0.06259768 -0.07477452
v 0.31940747 -0.06759785 -0.07477452
v 0.31782444 -0.07505394 -0.07477452
v 0.31537543 -0.08505427 -0.07477452
v 0.31259117 -0.09505461 -0.07477452
v 0.31050532 -0.10198064 -0.07477452
v 0.30884780 -0.10698081 -0.07477452
v 0.30597045 -0.11503761 -0.07477452
v 0.29982460 -0.12993212 -0.07902383
v 0.30150075 -0.11503761 -0.05855587
v 0.31131547 -0.08505427 -0.05859546
v 0.31044944 -0.09220999 -0.05924210
v 0.25373087 -0.19786726 -0.05831174
v 0.25499727 -0.19496964 -0.05805770
v 0.26457920 -0.18426256 -0.05848989
v 0.27169346 -0.17502196 -0.05872743
v 0.28080047 -0.16169995 -0.05905075
v 0.29083866 -0.14224702 -0.05901116
v 0.30045781 -0.12155727 -0.05925200
v 0.29030788 -0.15081620 -0.07477452
v 0.28757949 -0.15581637 -0.07477452
v 0.28257904 -0.16457993 -0.07477452
v 0.29316663 -0.14503862 -0.07477452
v 0.27100438 -0.18168296 -0.06478138
v 0.29024270 -0.15071019 -0.06819931
v 0.28200171 -0.16371417 -0.06478138
v 0.27894741 -0.16871432 -0.06478138
v 0.26743792 -0.18668314 -0.06478138
v 0.27016631 -0.18042850 -0.05954892
v 0.25875927 -0.19786726 -0.06430300
v 0.31644629 -0.07505394 -0.06478138
v 0.31413694 -0.08505427 -0.06478138
v 0.31036565 -0.10152126 -0.06764504
v 0.30003880 -0.13039148 -0.07235954
v 0.30166837 -0.12597438 -0.07532548
v 0.30003880 -0.13039148 -0.06909997
v 0.29813916 -0.13424321 -0.07532548
v 0.30929478 -0.09887099 -0.06098075
v 0.31137134 -0.09535497 -0.06450095
v 0.26103137 -0.19157730 -0.05897486
v 0.28913459 -0.14892568 -0.06153171
v 0.29881894 -0.12821827 -0.06243568
v 0.30120276 -0.12494961 -0.06537193
v 0.30463884 -0.11503761 -0.06478138
v 0.29188160 -0.14537432 -0.06483087
v 0.28713253 -0.15443824 -0.06483087
f 1 2 5
f 1 5 11
f 1 11 19
f 1 19 30
f 1 30 47
f 1 47 75
f 1 75 109
f 1 109 92
f 1 92 62
f 1 62 61
f 1 61 41
f 1 41 40
f 1 40 38
f 1 38 24
f 1 24 13
f 1 13 8
f 1 8 3
f 1 3 4
f 1 4 2
f 2 4 6
f 2 6 7
f 2 7 5
f 3 8 9
f 3 9 4
f 4 9 15
f 4 15 14
f 4 14 25
f 4 25 39
f 4 39 60
f 4 60 49
f 4 49 31
f 4 31 20
f 4 20 12
f 4 12 7
f 4 7 6
f 5 10 11
f 5 7 10
f 7 12 10
f 8 13 14
f 8 14 15
f 8 15 9
f 10 16 11
f 10 12 16
f 11 16 17
f 11 17 18
f 11 18 19
f 12 20 21
f 12 21 22
f 12 22 23
f 12 23 17
f 12 17 16
f 13 24 14
f 14 24 25
f 17 26 27
f 17 27 28
f 17 28 18
f 17 23 26
f 18 28 29
f 18 29 19
f 19 29 30
f 20 31 32
f 20 32 33
f 20 33 21
f 21 33 22
f 22 34 23
f 22 33 35
f 22 35 36
f 22 36 34
f 23 34 37
f 23 37 26
f 24 38 25
f 25 38 40
f 25 40 41
f 25 41 39
f 26 42 43
f 26 43 27
f 26 37 42
f 27 43 44
f 27 44 28
f 28 44 45
f 28 45 29
f 29 45 30
f 30 45 46
f 30 46 47
f 31 48 32
f 31 49 50
f 31 50 51
f 31 51 52
f 31 52 53
f 31 53 48
f 32 48 35
f 32 35 33
f 34 36 54
f 34 54 55
f 34 55 37
f 35 48 36
f 36 48 53
f 36 53 54
f 37 55 56
f 37 56 57
f 37 57 58
f 37 58 42
f 39 59 60
f 39 41 61
f 39 61 62
f 39 62 63
f 39 63 64
f 39 64 65
f 39 65 66
f 39 66 59
f 42 58 67
f 42 67 43
f 43 68 44
f 43 67 68
f 44 68 45
f 45 68 69
f 45 69 70
f 45 70 71
f 45 71 72
f 45 72 73
f 45 73 46
f 46 74 47
f 46 73 107
f 46 107 74
f 47 74 75
f 49 76 50
f 49 60 77
f 49 77 78
f 49 78 79
f 49 79 76
f 50 76 51
f 51 76 80
f 51 80 81
f 51 81 82
f 51 82 83
f 51 83 57
f 51 57 56
f 51 56 55
f 51 55 52
f 52 55 54
f 52 54 53
f 57 83 84
f 57 84 85
f 57 85 86
f 57 86 87
f 57 87 88
f 57 88 58
f 58 88 69
f 58 69 67
f 59 89 90
f 59 90 60
f 59 66 89
f 60 90 91
f 60 91 77
f 62 92 93
f 62 93 63
f 63 93 64
f 64 93 94
f 64 94 95
f 64 95 65
f 65 95 96
f 65 96 97
f 65 97 66
f 66 97 98
f 66 98 89
f 67 69 68
f 69 99 100
f 69 100 101
f 69 101 70
f 69 88 102
f 69 102 99
f 70 103 71
f 70 101 104
f 70 104 105
f 70 105 106
f 70 106 103
f 71 103 72
f 72 103 73
f 73 103 107
f 74 107 108
f 74 108 75
f 75 108 109
f 76 79 80
f 77 79 78
f 77 91 110
f 77 110 79
f 79 110 111
f 79 111 83
f 79 83 82
f 79 82 81
f 79 81 80
f 83 111 112
f 83 112 84
f 84 112 85
f 85 112 86
f 86 112 87
f 87 113 114
f 87 114 88
f 87 112 115
f 87 115 113
f 88 114 113
f 88 113 116
f 88 116 102
f 89 91 90
f 89 98 91
f 91 98 117
f 91 117 118
f 91 118 111
f 91 111 110
f 92 109 119
f 92 119 93
f 93 119 94
f 94 119 95
f 95 119 108
f 95 108 96
f 96 105 120
f 96 120 97
f 96 108 105
f 97 120 98
f 98 120 121
f 98 121 122
f 98 122 123
f 98 123 117
f 99 104 100
f 99 102 104
f 100 104 101
f 102 116 113
f 102 113 115
f 102 115 104
f 103 108 107
f 103 106 108
f 104 124 120
f 104 120 125
f 104 125 105
f 104 115 124
f 105 125 120
f 105 108 106
f 108 119 109
f 111 118 112
f 112 118 117
f 112 117 123
f 112 123 122
f 112 122 115
f 115 122 121
f 115 121 124
f 120 124 121

