# https://github.com/mikedh/trimesh
v -0.48064473 0.02510270 -0.07454974
v -0.48067191 0.02510270 -0.07483456
v -0.48173216 0.02510270 -0.06517057
v -0.36623079 0.01407648 -0.05478048
v -0.48585092 0.02510270 -0.08336326
v -0.36623079 0.01377006 -0.06478144
v -0.48201764 0.02510270 -0.06468918
v -0.36623079 0.01109134 -0.04862264
v -0.48213996 0.02510270 -0.06451668
v -0.48735977 0.02510270 -0.05795367
v -0.49502632 0.02510270 -0.08622755
v -0.36623079 0.01078987 -0.07053812
v -0.36623079 0.00494315 -0.04560992
v -0.49490400 0.02510270 -0.05710722
v -0.49502632 0.02510270 -0.05709518
v -0.48502172 0.01134834 -0.04856247
v -0.49502632 0.01494138 -0.08641610
v -0.50244820 0.01494138 -0.08279361
v -0.50236667 0.02510270 -0.08264117
v -0.36623079 0.00494315 -0.07266026
v -0.36623079 0.00376689 -0.04565003
v -0.48502172 0.00494315 -0.04581451
v -0.48502172 -0.00505508 -0.04596294
v -0.50070828 0.02510270 -0.05889239
v -0.50032769 0.01033518 -0.04944503
v -0.49502632 0.01105181 -0.04883125
v -0.49502632 0.00494315 -0.08658860
v -0.50252979 0.00494315 -0.08293402
v -0.50507172 0.00494315 -0.07477439
v -0.50470465 0.02510270 -0.07477439
v -0.36623079 -0.00353286 -0.07201038
v -0.49502632 -0.02538761 -0.08632383
v -0.49502632 -0.00505508 -0.08656855
v -0.36623079 -0.00505508 -0.04603916
v -0.49502632 0.00494315 -0.04688963
v -0.49502632 -0.00505508 -0.04717846
v -0.49502632 -0.01084743 -0.04912008
v -0.48502172 -0.01131200 -0.04871090
v -0.50078987 0.02510270 -0.05892448
v -0.50314145 0.02510270 -0.06478144
v -0.50285603 0.00494315 -0.05478048
v -0.50073546 0.00494315 -0.04895962
v -0.50252979 -0.00505508 -0.08291396
v -0.50508531 -0.00505508 -0.07477439
v -0.50467747 0.00494315 -0.06478144
v -0.36623079 -0.00481290 -0.07184992
v -0.36623079 -0.00969588 -0.06945097
v -0.49470008 -0.02538761 -0.08623558
v -0.50210837 -0.02538761 -0.08276151
v -0.50247537 -0.01505330 -0.08279361
v -0.36623079 -0.00571734 -0.04638015
v -0.50053157 -0.00505508 -0.04918026
v -0.50005580 -0.01010608 -0.04973787
v -0.49502632 -0.02538761 -0.05671407
v -0.36623079 -0.01071398 -0.04905188
v -0.50467747 -0.00505508 -0.06478144
v -0.50265208 -0.00505508 -0.05478048
v -0.50492219 -0.01505330 -0.07477439
v -0.36623079 -0.01194461 -0.06529092
v -0.48578294 -0.02538761 -0.08346355
v -0.50233949 -0.02538761 -0.08263315
v -0.50235308 -0.02505153 -0.08264117
v -0.50329098 -0.02538761 -0.06478144
v -0.50102094 -0.02538761 -0.05899669
v -0.50093935 -0.02538761 -0.05880413
v -0.48715585 -0.02538761 -0.05769291
v -0.36623079 -0.01099075 -0.04971781
v -0.50470465 -0.02505153 -0.07477439
v -0.50469106 -0.02538761 -0.07477439
v -0.50401140 -0.01505330 -0.06478144
v -0.36623079 -0.01231034 -0.06456883
v -0.48151469 -0.02538761 -0.07600194
v -0.36623079 -0.01302203 -0.05478048
v -0.48184093 -0.02538761 -0.06507830
v -0.48072629 -0.02538761 -0.07461392
v -0.48180013 -0.02538761 -0.06517459
v -0.48072629 -0.02538761 -0.07456177
f 1 2 5
f 1 5 11
f 1 11 19
f 1 19 30
f 1 30 40
f 1 40 39
f 1 39 24
f 1 24 15
f 1 15 14
f 1 14 10
f 1 10 9
f 1 9 7
f 1 7 3
f 1 3 4
f 1 4 2
f 2 4 6
f 2 6 5
f 3 7 4
f 4 8 13
f 4 13 21
f 4 21 34
f 4 34 51
f 4 51 55
f 4 55 67
f 4 67 73
f 4 73 71
f 4 71 59
f 4 59 47
f 4 47 46
f 4 46 31
f 4 31 20
f 4 20 12
f 4 12 6
f 4 7 9
f 4 9 10
f 4 10 8
f 5 6 12
f 5 12 11
f 8 10 14
f 8 14 15
f 8 15 16
f 8 16 13
f 11 17 18
f 11 18 19
f 11 12 20
f 11 20 17
f 13 16 22
f 13 22 23
f 13 23 21
f 15 24 25
f 15 25 26
f 15 26 16
f 16 26 22
f 17 27 28
f 17 28 18
f 17 20 27
f 18 28 29
f 18 29 19
f 19 29 30
f 20 31 32
f 20 32 33
f 20 33 27
f 21 23 34
f 22 26 35
f 22 35 23
f 23 35 36
f 23 36 37
f 23 37 38
f 23 38 34
f 24 39 25
f 25 39 40
f 25 40 41
f 25 41 42
f 25 42 35
f 25 35 26
f 27 33 43
f 27 43 28
f 28 43 44
f 28 44 29
f 29 44 45
f 29 45 30
f 30 45 40
f 31 46 32
f 32 46 47
f 32 47 48
f 32 48 60
f 32 60 72
f 32 72 75
f 32 75 77
f 32 77 76
f 32 76 74
f 32 74 66
f 32 66 54
f 32 54 65
f 32 65 64
f 32 64 63
f 32 63 69
f 32 69 61
f 32 61 49
f 32 49 50
f 32 50 43
f 32 43 33
f 34 38 51
f 35 42 36
f 36 42 52
f 36 52 53
f 36 53 37
f 37 53 54
f 37 54 38
f 38 54 55
f 38 55 51
f 40 45 41
f 41 45 56
f 41 56 57
f 41 57 42
f 42 57 52
f 43 50 44
f 44 58 56
f 44 56 45
f 44 50 58
f 47 59 60
f 47 60 48
f 49 61 62
f 49 62 50
f 50 62 58
f 52 57 53
f 53 57 63
f 53 63 64
f 53 64 65
f 53 65 54
f 54 66 55
f 55 66 67
f 56 58 68
f 56 68 69
f 56 69 70
f 56 70 57
f 57 70 63
f 58 62 68
f 59 71 60
f 60 71 73
f 60 73 72
f 61 69 62
f 62 69 68
f 63 70 69
f 66 74 73
f 66 73 67
f 72 73 75
f 73 74 76
f 73 76 77
f 73 77 75

