# https://github.com/mikedh/trimesh
v 0.02498274 0.50444108 -0.07482522
v 0.02498274 0.50201244 -0.08242550
v 0.02498274 0.50351772 -0.06484507
v 0.03492666 0.50396775 -0.07477609
v 0.04493000 0.50152362 -0.08188196
v 0.03492666 0.50184176 -0.08217676
v 0.02498274 0.49488955 -0.08605828
v 0.04493000 0.49488955 -0.08568977
v 0.03492666 0.49488955 -0.08589859
v 0.02498274 0.50350997 -0.06478057
v 0.03492666 0.50288151 -0.06478057
v 0.04493000 0.50329274 -0.07477609
v 0.05491353 0.50101930 -0.08135072
v 0.05491353 0.49488955 -0.08519231
v 0.02498274 0.49482747 -0.08604292
v 0.09492689 0.48488799 -0.08636229
v 0.08492356 0.48488799 -0.08638071
v 0.21488775 0.44489724 -0.08626709
v 0.22732755 0.43490343 -0.08534585
v 0.02498274 0.50112795 -0.05848847
v 0.03492666 0.50076326 -0.05879555
v 0.04493000 0.50029768 -0.05929916
v 0.05077354 0.49997954 -0.05967380
v 0.04493000 0.50206680 -0.06478057
v 0.06491688 0.50054597 -0.06733243
v 0.05491353 0.50230734 -0.07477609
v 0.07040386 0.49996405 -0.07990128
v 0.06491688 0.50034423 -0.08047246
v 0.09492689 0.49271698 -0.08287384
v 0.08492356 0.49364808 -0.08334675
v 0.10491043 0.48488799 -0.08573277
v 0.02498274 0.48619927 -0.08343272
v 0.13490064 0.47488643 -0.08644520
v 0.19488108 0.45489880 -0.08621489
v 0.22489109 0.44489724 -0.08498656
v 0.22732755 0.44244533 -0.08531514
v 0.22732755 0.43249810 -0.08452901
v 0.02498274 0.49488955 -0.05640953
v 0.03492666 0.49488955 -0.05649244
v 0.04493000 0.49488955 -0.05679645
v 0.06491688 0.49385757 -0.05733077
v 0.07492021 0.49302733 -0.05746896
v 0.08492356 0.49220488 -0.05777297
v 0.05742922 0.49947522 -0.06063190
v 0.05443813 0.50097275 -0.06429231
v 0.09492689 0.49132810 -0.05835950
v 0.10308804 0.49053666 -0.05907192
v 0.06491688 0.49885448 -0.06233314
v 0.07109716 0.50008819 -0.06899988
v 0.06491688 0.50100374 -0.07477609
v 0.07115658 0.50009594 -0.07477609
v 0.07614835 0.49922694 -0.07477609
v 0.08492356 0.49763629 -0.07477609
v 0.09492689 0.49570426 -0.07477609
v 0.12020267 0.48995471 -0.07988286
v 0.11491377 0.49052113 -0.08067820
v 0.10491043 0.49164620 -0.08199558
v 0.13490064 0.48310337 -0.08304887
v 0.14488417 0.47488643 -0.08581568
v 0.02498274 0.48616825 -0.08337438
v 0.22732755 0.42756326 -0.08161480
v 0.17489420 0.46489261 -0.08576962
v 0.21488775 0.45351767 -0.08304274
v 0.22732755 0.44488171 -0.08427106
v 0.19488108 0.46292953 -0.08280014
v 0.13490064 0.47488643 -0.05576465
v 0.02498274 0.48740196 -0.05774226
v 0.22732755 0.43446890 -0.05622220
v 0.21488775 0.44489724 -0.05507372
v 0.09492689 0.48488799 -0.05624370
v 0.11491377 0.48420517 -0.05693156
v 0.12491711 0.48298698 -0.05724478
v 0.10976354 0.48984609 -0.05988262
v 0.13490064 0.48175329 -0.05796029
v 0.08492356 0.49619308 -0.06478057
v 0.09492689 0.49430763 -0.06478057
v 0.12040075 0.49000903 -0.06926704
v 0.10491043 0.49353169 -0.07477609
v 0.12049979 0.49002456 -0.07477609
v 0.12549156 0.48879084 -0.07477609
v 0.13490064 0.48636221 -0.07477609
v 0.14488417 0.48362325 -0.07477609
v 0.15217374 0.48064372 -0.08082867
v 0.14488417 0.48172999 -0.08203243
v 0.16489085 0.47346649 -0.08317171
v 0.02498274 0.48254473 -0.07477609
v 0.22732755 0.42646922 -0.07928405
v 0.20286392 0.46123804 -0.08136914
v 0.22489109 0.45115888 -0.08116954
v 0.22732755 0.44943634 -0.08149197
v 0.17489420 0.47173620 -0.08199558
v 0.18162911 0.47052576 -0.08069355
v 0.19488108 0.45489880 -0.05532245
v 0.17489420 0.46489261 -0.05626826
v 0.15488752 0.47388547 -0.05705747
v 0.02498274 0.48375514 -0.06478057
v 0.22732755 0.42858746 -0.05922854
v 0.22732755 0.42925475 -0.05838099
v 0.22732755 0.44494379 -0.05686093
v 0.22530708 0.44553348 -0.05671046
v 0.20506269 0.45548075 -0.05679338
v 0.16489085 0.47227932 -0.05761329
v 0.14292313 0.48071354 -0.05886311
v 0.14957881 0.47975141 -0.06007608
v 0.13490064 0.48501213 -0.06478057
v 0.11491377 0.48920207 -0.06197385
v 0.11491377 0.49063753 -0.06697314
v 0.10582162 0.49178587 -0.06384091
v 0.12420400 0.48793734 -0.06547151
v 0.14571613 0.48190071 -0.06395759
v 0.15243125 0.48068252 -0.06674283
v 0.15350092 0.48104720 -0.07477609
v 0.15851249 0.47940225 -0.07477609
v 0.22732755 0.42518118 -0.07477609
v 0.22732755 0.42620540 -0.06482971
v 0.20953943 0.45972502 -0.07710377
v 0.22732755 0.45055366 -0.08050317
v 0.18265917 0.47090597 -0.07477609
v 0.18767075 0.46903601 -0.07477609
v 0.19488108 0.46618062 -0.07477609
v 0.16489085 0.47720641 -0.07477609
v 0.17489420 0.47370703 -0.07477609
v 0.19488108 0.46203722 -0.05770848
v 0.22732755 0.44763623 -0.05974136
v 0.22225655 0.45101921 -0.05859288
v 0.21488775 0.45271848 -0.05736762
v 0.17489420 0.47068870 -0.05893681
v 0.17992558 0.46990501 -0.05975979
v 0.17489420 0.47265953 -0.06478057
v 0.18139142 0.47044042 -0.06478057
v 0.20567676 0.46163374 -0.07417114
v 0.20997523 0.45993451 -0.07044009
v 0.21393694 0.45788608 -0.07417114
v 0.22732755 0.45132183 -0.07722353
v 0.19488108 0.46528832 -0.06478057
v 0.20997523 0.45993451 -0.06957105
v 0.20185370 0.46073369 -0.05880476
v 0.22732755 0.45038297 -0.06347240
v 0.20852920 0.45920514 -0.06290430
v 0.22489109 0.45265641 -0.07477609
v 0.22732755 0.45144597 -0.07477609
v 0.20506269 0.46133116 -0.06565576
v 0.21393694 0.45724984 -0.06565576
v 0.22530708 0.45177185 -0.06518592
v 0.22732755 0.45107354 -0.06667220
f 1 2 7
f 1 7 15
f 1 15 32
f 1 32 60
f 1 60 86
f 1 86 96
f 1 96 67
f 1 67 38
f 1 38 20
f 1 20 10
f 1 10 3
f 1 3 4
f 1 4 5
f 1 5 6
f 1 6 2
f 2 6 8
f 2 8 9
f 2 9 7
f 3 10 11
f 3 11 4
f 4 11 12
f 4 12 13
f 4 13 5
f 5 8 6
f 5 13 14
f 5 14 8
f 7 9 16
f 7 16 17
f 7 17 18
f 7 18 19
f 7 19 15
f 8 14 16
f 8 16 9
f 10 20 21
f 10 21 11
f 11 21 22
f 11 22 23
f 11 23 24
f 11 24 12
f 12 24 25
f 12 25 26
f 12 26 27
f 12 27 28
f 12 28 13
f 13 28 29
f 13 29 30
f 13 30 14
f 14 30 31
f 14 31 16
f 15 19 32
f 16 31 59
f 16 59 33
f 16 33 17
f 17 33 18
f 18 34 35
f 18 35 36
f 18 36 19
f 18 33 34
f 19 36 64
f 19 64 90
f 19 90 117
f 19 117 134
f 19 134 141
f 19 141 145
f 19 145 138
f 19 138 124
f 19 124 99
f 19 99 68
f 19 68 98
f 19 98 97
f 19 97 115
f 19 115 114
f 19 114 87
f 19 87 61
f 19 61 37
f 19 37 32
f 20 38 39
f 20 39 40
f 20 40 21
f 21 40 41
f 21 41 42
f 21 42 22
f 22 42 43
f 22 43 23
f 23 44 45
f 23 45 24
f 23 43 46
f 23 46 47
f 23 47 44
f 24 45 25
f 25 48 49
f 25 49 26
f 25 45 44
f 25 44 48
f 26 49 50
f 26 50 27
f 27 50 51
f 27 51 52
f 27 52 53
f 27 53 54
f 27 54 55
f 27 55 56
f 27 56 57
f 27 57 29
f 27 29 28
f 29 57 58
f 29 58 31
f 29 31 30
f 31 58 59
f 32 37 61
f 32 61 60
f 33 59 62
f 33 62 34
f 34 62 35
f 35 63 64
f 35 64 36
f 35 62 65
f 35 65 63
f 38 66 39
f 38 67 68
f 38 68 69
f 38 69 66
f 39 66 70
f 39 70 40
f 40 70 42
f 40 42 41
f 42 70 71
f 42 71 43
f 43 71 72
f 43 72 46
f 44 47 73
f 44 73 48
f 46 72 47
f 47 72 74
f 47 74 73
f 48 73 75
f 48 75 49
f 49 51 50
f 49 75 76
f 49 76 77
f 49 77 54
f 49 54 53
f 49 53 52
f 49 52 51
f 54 77 78
f 54 78 55
f 55 78 79
f 55 79 80
f 55 80 81
f 55 81 82
f 55 82 83
f 55 83 84
f 55 84 56
f 56 84 57
f 57 84 58
f 58 84 85
f 58 85 59
f 59 85 62
f 60 61 87
f 60 87 86
f 62 85 65
f 63 88 89
f 63 89 90
f 63 90 64
f 63 65 88
f 65 85 91
f 65 91 92
f 65 92 88
f 66 72 71
f 66 71 70
f 66 69 93
f 66 93 94
f 66 94 95
f 66 95 72
f 67 96 97
f 67 97 98
f 67 98 68
f 68 99 69
f 69 99 100
f 69 100 101
f 69 101 93
f 72 95 102
f 72 102 74
f 73 74 103
f 73 103 104
f 73 104 105
f 73 105 106
f 73 106 77
f 73 77 107
f 73 107 108
f 73 108 76
f 73 76 75
f 74 102 103
f 76 108 107
f 76 107 77
f 77 106 109
f 77 109 105
f 77 105 110
f 77 110 111
f 77 111 82
f 77 82 81
f 77 81 80
f 77 80 79
f 77 79 78
f 82 111 112
f 82 112 83
f 83 112 113
f 83 113 92
f 83 92 91
f 83 91 84
f 84 91 85
f 86 114 115
f 86 115 96
f 86 87 114
f 88 116 117
f 88 117 89
f 88 92 116
f 89 117 90
f 92 118 119
f 92 119 120
f 92 120 116
f 92 113 121
f 92 121 122
f 92 122 118
f 93 101 123
f 93 123 94
f 94 123 102
f 94 102 95
f 96 115 97
f 99 124 125
f 99 125 126
f 99 126 100
f 100 126 101
f 101 126 123
f 102 123 127
f 102 127 103
f 103 127 128
f 103 128 104
f 104 111 110
f 104 110 105
f 104 128 111
f 105 109 106
f 111 128 129
f 111 129 130
f 111 130 121
f 111 121 113
f 111 113 112
f 116 120 131
f 116 131 132
f 116 132 133
f 116 133 134
f 116 134 117
f 118 122 130
f 118 130 119
f 119 130 135
f 119 135 136
f 119 136 120
f 120 136 132
f 120 132 131
f 121 130 122
f 123 128 127
f 123 126 137
f 123 137 128
f 124 138 125
f 125 138 139
f 125 139 137
f 125 137 126
f 128 130 129
f 128 137 135
f 128 135 130
f 132 136 140
f 132 140 133
f 133 140 134
f 134 140 141
f 135 137 139
f 135 139 142
f 135 142 136
f 136 142 139
f 136 139 143
f 136 143 144
f 136 144 145
f 136 145 141
f 136 141 140
f 138 145 144
f 138 144 139
f 139 144 143

