# https://github.com/mikedh/trimesh
v 0.02498274 0.32490504 -0.07477484
v 0.02498274 0.32226784 -0.08349188
v 0.02498274 0.32393409 -0.06484510
v 0.03492666 0.32418581 -0.07477484
v 0.04493000 0.32156059 -0.08267541
v 0.03492666 0.32198016 -0.08314968
v 0.04493000 0.31490765 -0.08732209
v 0.03492666 0.31490765 -0.08753221
v 0.02498274 0.31490765 -0.08755923
v 0.02498274 0.32392208 -0.06477905
v 0.04493000 0.32227985 -0.06477905
v 0.04493000 0.32334672 -0.07477484
v 0.05491353 0.32096124 -0.08179890
v 0.05491353 0.31490765 -0.08660167
v 0.09492689 0.30491026 -0.08716300
v 0.08492356 0.30491026 -0.08781738
v 0.02498274 0.31484772 -0.08753522
v 0.17489420 0.26490867 -0.08767030
v 0.22732755 0.22247365 -0.08652963
v 0.22732755 0.21130150 -0.08474961
v 0.02498274 0.32134481 -0.05838535
v 0.05239784 0.32018205 -0.05948699
v 0.05540875 0.32103317 -0.06405263
v 0.06303506 0.32045778 -0.06689828
v 0.05491353 0.32215997 -0.07477484
v 0.06252003 0.32037386 -0.08073328
v 0.08492356 0.31301367 -0.08386110
v 0.07492021 0.31417644 -0.08441941
v 0.11491377 0.30330397 -0.08390912
v 0.12491711 0.29490087 -0.08646660
v 0.11491377 0.29490087 -0.08770932
v 0.02498274 0.30674431 -0.08387010
v 0.16489085 0.27490606 -0.08643958
v 0.18511544 0.26537616 -0.08441041
v 0.20488441 0.24492584 -0.08628650
v 0.21488775 0.23492845 -0.08645159
v 0.22489109 0.22493105 -0.08657166
v 0.14488417 0.28490345 -0.08695588
v 0.22732755 0.22477522 -0.08553907
v 0.22732755 0.20541573 -0.08177488
v 0.02498274 0.31490765 -0.05715464
v 0.07492021 0.31261809 -0.05812420
v 0.08492356 0.31157518 -0.05845740
v 0.09296585 0.31064017 -0.05911778
v 0.05907334 0.31963064 -0.06023142
v 0.07492021 0.31857575 -0.07477484
v 0.06919554 0.31977448 -0.07477484
v 0.06420377 0.32067355 -0.07477484
v 0.08492356 0.31478777 -0.06477905
v 0.08492356 0.31622626 -0.07477484
v 0.10199857 0.31060420 -0.08105147
v 0.09492689 0.31165909 -0.08256134
v 0.12491711 0.30126612 -0.08186794
v 0.13416773 0.29510466 -0.08357893
v 0.02498274 0.30672032 -0.08381006
v 0.22732755 0.20506811 -0.08145370
v 0.22732755 0.20251481 -0.07720024
v 0.15435268 0.28507128 -0.08376204
v 0.17392358 0.27470229 -0.08290054
v 0.18192624 0.27123796 -0.08168183
v 0.19303886 0.26236737 -0.08245028
v 0.19577246 0.25583428 -0.08477362
v 0.20488441 0.25253778 -0.08221014
v 0.21409542 0.24431450 -0.08222815
v 0.22429684 0.23442498 -0.08256734
v 0.22732755 0.23139220 -0.08257034
v 0.14488417 0.29171223 -0.08237523
v 0.11491377 0.29490087 -0.05761391
v 0.10491043 0.30369952 -0.05795911
v 0.02498274 0.30881810 -0.05858947
v 0.22732755 0.21125355 -0.05875457
v 0.22518822 0.21531724 -0.05825928
v 0.22732755 0.21537718 -0.05818424
v 0.22580229 0.22585407 -0.05794110
v 0.21560087 0.23564769 -0.05789307
v 0.17489420 0.26490867 -0.05775499
v 0.11491377 0.30193741 -0.05830131
v 0.12198544 0.30073867 -0.05904574
v 0.09962153 0.30975311 -0.06002130
v 0.09573905 0.31182692 -0.06392657
v 0.10217684 0.31065215 -0.06668816
v 0.09492689 0.31350512 -0.07477484
v 0.10316727 0.31098781 -0.07477484
v 0.10817884 0.30932158 -0.07477484
v 0.11491377 0.30680424 -0.07477484
v 0.13034467 0.30010336 -0.08018397
v 0.02498274 0.30389134 -0.07477484
v 0.22732755 0.20245488 -0.07477484
v 0.16489085 0.28139120 -0.08180490
v 0.18798768 0.26861274 -0.07477484
v 0.19472261 0.26362602 -0.07477484
v 0.21023273 0.25023621 -0.08021398
v 0.16996185 0.27994072 -0.07984777
v 0.22059262 0.24057446 -0.08061322
v 0.22732755 0.23268683 -0.08171786
v 0.15064848 0.29030973 -0.08052616
v 0.14537939 0.28553880 -0.05813021
v 0.13490064 0.29256333 -0.05826829
v 0.02498274 0.30595314 -0.06477905
v 0.22732755 0.20494824 -0.06579064
v 0.22732755 0.20508010 -0.06558652
v 0.22732755 0.20537978 -0.06522031
v 0.22732755 0.22524272 -0.05807618
v 0.22308851 0.23279471 -0.05854445
v 0.20535981 0.24542932 -0.05789908
v 0.19498010 0.25516300 -0.05801614
v 0.16500971 0.27525370 -0.05817523
v 0.15488752 0.28269780 -0.05830731
v 0.14236848 0.29095703 -0.05895869
v 0.14902417 0.28929081 -0.06114395
v 0.12862132 0.29906044 -0.06182534
v 0.12515481 0.30158977 -0.06500719
v 0.11491377 0.30543771 -0.06477905
v 0.13050313 0.30018727 -0.06849220
v 0.12491711 0.30275253 -0.07477484
v 0.13068142 0.30027118 -0.07477484
v 0.13569298 0.29795764 -0.07477484
v 0.14488417 0.29358225 -0.07477484
v 0.02498274 0.30390332 -0.07470880
v 0.18693782 0.26774964 -0.06477905
v 0.19373217 0.26276295 -0.06477905
v 0.18299591 0.27194521 -0.07477484
v 0.17006089 0.28000065 -0.06933869
v 0.18194606 0.27124994 -0.06477905
v 0.19872394 0.25895098 -0.06477905
v 0.19973417 0.25979009 -0.07477484
v 0.21051005 0.25046396 -0.07477484
v 0.21550182 0.24600471 -0.07477484
v 0.22104822 0.24100600 -0.07477484
v 0.15607603 0.28785234 -0.07477484
v 0.16489085 0.28294954 -0.07477484
v 0.17006089 0.28001266 -0.07477484
v 0.17505267 0.27694391 -0.07477484
v 0.22604000 0.23624705 -0.07477484
v 0.22732755 0.23472466 -0.07643179
v 0.15108426 0.29052551 -0.07477484
v 0.22732755 0.22737645 -0.05873956
v 0.22732755 0.23267483 -0.06196042
v 0.21940411 0.23945964 -0.06063066
v 0.21272862 0.24243249 -0.05857747
v 0.20232910 0.25198637 -0.05865251
v 0.19171170 0.26121658 -0.05891667
v 0.18426366 0.26468092 -0.05840637
v 0.17489420 0.27188526 -0.05868853
v 0.16176110 0.28089972 -0.05900671
v 0.18051984 0.27031493 -0.05944197
v 0.16843660 0.27881392 -0.06267183
v 0.16500971 0.28175081 -0.06551448
v 0.15070790 0.29033369 -0.06780780
v 0.14537939 0.29203591 -0.06459895
v 0.20900460 0.24909743 -0.06162123
v 0.20535981 0.25338887 -0.06488412
v 0.21037138 0.25034411 -0.06828809
v 0.22073128 0.24071832 -0.06729751
v 0.22732755 0.23498838 -0.07477484
v 0.22732755 0.23354991 -0.06478506
v 0.21488775 0.24490187 -0.06445787
f 1 2 9
f 1 9 17
f 1 17 32
f 1 32 55
f 1 55 87
f 1 87 119
f 1 119 99
f 1 99 70
f 1 70 41
f 1 41 21
f 1 21 10
f 1 10 3
f 1 3 4
f 1 4 5
f 1 5 6
f 1 6 2
f 2 6 7
f 2 7 8
f 2 8 9
f 3 10 11
f 3 11 4
f 4 11 12
f 4 12 13
f 4 13 5
f 5 14 6
f 5 13 14
f 6 14 7
f 7 14 15
f 7 15 16
f 7 16 8
f 8 16 9
f 9 16 18
f 9 18 19
f 9 19 20
f 9 20 17
f 10 21 22
f 10 22 11
f 11 22 23
f 11 23 12
f 12 23 24
f 12 24 25
f 12 25 26
f 12 26 13
f 13 26 27
f 13 27 28
f 13 28 14
f 14 28 27
f 14 27 15
f 15 27 29
f 15 29 30
f 15 30 31
f 15 31 16
f 16 31 18
f 17 20 32
f 18 33 34
f 18 34 35
f 18 35 36
f 18 36 37
f 18 37 19
f 18 31 38
f 18 38 33
f 19 37 39
f 19 39 66
f 19 66 95
f 19 95 135
f 19 135 155
f 19 155 156
f 19 156 138
f 19 138 137
f 19 137 103
f 19 103 73
f 19 73 71
f 19 71 102
f 19 102 101
f 19 101 100
f 19 100 88
f 19 88 57
f 19 57 56
f 19 56 40
f 19 40 20
f 20 40 32
f 21 41 42
f 21 42 22
f 22 42 43
f 22 43 44
f 22 44 45
f 22 45 23
f 23 45 24
f 24 46 47
f 24 47 48
f 24 48 25
f 24 45 49
f 24 49 50
f 24 50 46
f 25 48 26
f 26 48 47
f 26 47 46
f 26 46 50
f 26 50 51
f 26 51 52
f 26 52 27
f 27 52 29
f 29 52 51
f 29 51 53
f 29 53 54
f 29 54 30
f 30 54 38
f 30 38 31
f 32 40 56
f 32 56 57
f 32 57 55
f 33 58 59
f 33 59 34
f 33 38 58
f 34 59 60
f 34 60 61
f 34 61 62
f 34 62 35
f 35 63 64
f 35 64 65
f 35 65 36
f 35 62 63
f 36 65 37
f 37 65 66
f 37 66 39
f 38 54 67
f 38 67 58
f 41 68 69
f 41 69 42
f 41 70 71
f 41 71 72
f 41 72 73
f 41 73 74
f 41 74 75
f 41 75 76
f 41 76 68
f 42 69 43
f 43 69 77
f 43 77 44
f 44 77 78
f 44 78 79
f 44 79 45
f 45 79 49
f 49 79 80
f 49 80 81
f 49 81 50
f 50 81 82
f 50 82 51
f 51 82 83
f 51 83 84
f 51 84 85
f 51 85 86
f 51 86 53
f 53 86 67
f 53 67 54
f 55 57 87
f 57 88 87
f 58 89 59
f 58 67 89
f 59 89 60
f 60 90 91
f 60 91 92
f 60 92 61
f 60 89 93
f 60 93 90
f 61 92 63
f 61 63 62
f 63 92 94
f 63 94 64
f 64 94 65
f 65 95 66
f 65 94 95
f 67 86 96
f 67 96 89
f 68 97 98
f 68 98 69
f 68 76 97
f 69 98 77
f 70 99 100
f 70 100 101
f 70 101 102
f 70 102 71
f 71 73 72
f 73 103 74
f 74 103 104
f 74 104 75
f 75 104 105
f 75 105 76
f 76 105 106
f 76 106 107
f 76 107 108
f 76 108 97
f 77 98 78
f 78 98 109
f 78 109 110
f 78 110 111
f 78 111 112
f 78 112 79
f 79 113 81
f 79 81 80
f 79 112 113
f 81 113 112
f 81 112 114
f 81 114 85
f 81 85 84
f 81 84 83
f 81 83 82
f 85 114 115
f 85 115 86
f 86 115 116
f 86 116 117
f 86 117 118
f 86 118 96
f 87 88 119
f 88 100 99
f 88 99 119
f 89 96 93
f 90 120 121
f 90 121 91
f 90 93 122
f 90 122 123
f 90 123 124
f 90 124 120
f 91 121 125
f 91 125 126
f 91 126 92
f 92 127 128
f 92 128 129
f 92 129 94
f 92 126 127
f 93 96 130
f 93 130 131
f 93 131 132
f 93 132 133
f 93 133 122
f 94 129 134
f 94 134 135
f 94 135 95
f 96 136 130
f 96 118 136
f 97 108 98
f 98 108 109
f 103 137 104
f 104 137 138
f 104 138 139
f 104 139 140
f 104 140 105
f 105 140 141
f 105 141 106
f 106 142 143
f 106 143 108
f 106 108 107
f 106 141 142
f 108 143 144
f 108 144 145
f 108 145 109
f 109 145 110
f 110 145 146
f 110 146 147
f 110 147 148
f 110 148 149
f 110 149 150
f 110 150 114
f 110 114 111
f 111 114 112
f 114 116 115
f 114 150 149
f 114 149 118
f 114 118 117
f 114 117 116
f 118 149 136
f 120 124 146
f 120 146 121
f 121 146 125
f 122 133 123
f 123 132 131
f 123 131 130
f 123 130 149
f 123 149 148
f 123 148 147
f 123 147 124
f 123 133 132
f 124 147 146
f 125 151 152
f 125 152 153
f 125 153 126
f 125 146 142
f 125 142 151
f 126 153 127
f 127 153 128
f 128 153 129
f 129 153 154
f 129 154 134
f 130 136 149
f 134 155 135
f 134 154 155
f 138 156 154
f 138 154 139
f 139 154 157
f 139 157 151
f 139 151 142
f 139 142 141
f 139 141 140
f 142 146 144
f 142 144 143
f 144 146 145
f 151 157 153
f 151 153 152
f 153 157 154
f 154 156 155

