# https://github.com/mikedh/trimesh
v 0.38594863 0.28764363 -0.07477585
v 0.38594863 0.28814536 -0.07210085
v 0.38594863 0.28941445 -0.07909057
v 0.48067997 0.02488705 -0.07444729
v 0.48040150 0.02488705 -0.06477946
v 0.38594863 0.28959151 -0.06477946
v 0.38594863 0.29254283 -0.08245679
v 0.48093526 0.02488705 -0.07493083
v 0.48087724 0.02488705 -0.06344971
v 0.38594863 0.29481537 -0.05827949
v 0.38594863 0.29390045 -0.08304573
v 0.48591318 0.02488705 -0.08336499
v 0.48493848 0.02488705 -0.05795712
v 0.38594863 0.29575977 -0.05798502
v 0.38594863 0.30384643 -0.08615778
v 0.49485953 0.02488705 -0.08604929
v 0.49478989 0.02488705 -0.05659637
v 0.38594863 0.30493839 -0.05556728
v 0.38594863 0.31399898 -0.08544486
v 0.39488338 0.29490390 -0.08655454
v 0.48485725 0.08494654 -0.08637165
v 0.48485725 0.09495154 -0.08639336
v 0.49485953 0.02494608 -0.08604929
v 0.50212335 0.02488705 -0.08245989
v 0.42487852 0.25491343 -0.08678701
v 0.49485953 0.02488705 -0.05659637
v 0.45486211 0.19491296 -0.05541540
v 0.43488080 0.23490342 -0.05517673
v 0.40488562 0.28489892 -0.05512094
v 0.39488338 0.29490390 -0.05520463
v 0.38594863 0.31594687 -0.05630811
v 0.38594863 0.32241025 -0.08209723
v 0.40528014 0.29514000 -0.08358816
v 0.41487628 0.27489390 -0.08604000
v 0.40488562 0.28489892 -0.08656384
v 0.47486660 0.13494201 -0.08652974
v 0.49485953 0.05496106 -0.08533017
v 0.49485953 0.04495607 -0.08586331
v 0.49485953 0.03495107 -0.08603379
v 0.48485725 0.10495654 -0.08585401
v 0.50212335 0.02494608 -0.08245989
v 0.50446723 0.02488705 -0.07477585
v 0.43488080 0.24490843 -0.08560294
v 0.44488304 0.22489844 -0.08590051
v 0.43488080 0.23490342 -0.08673742
v 0.50077732 0.02488705 -0.05881262
v 0.49294493 0.07494155 -0.05776184
v 0.48485725 0.10495654 -0.05707372
v 0.48485725 0.09495154 -0.05676995
v 0.47486660 0.13494201 -0.05609733
v 0.46252044 0.19491296 -0.05750147
v 0.45570915 0.20559676 -0.05682575
v 0.44576492 0.22572481 -0.05668006
v 0.46486435 0.17493249 -0.05611282
v 0.42487852 0.25491343 -0.05516743
v 0.42507579 0.26471182 -0.05706752
v 0.41582777 0.27580883 -0.05652508
v 0.40493205 0.29463827 -0.05717601
v 0.39538231 0.30526306 -0.05666766
v 0.39238862 0.31320212 -0.05794782
v 0.38987065 0.31987214 -0.05984171
v 0.38594863 0.32447617 -0.06255081
v 0.38594863 0.32314808 -0.08164159
v 0.39021873 0.32031483 -0.08019095
v 0.39242343 0.31488438 -0.08188336
v 0.40221681 0.30287247 -0.08185856
v 0.41141841 0.29198209 -0.08138741
v 0.41479504 0.28439716 -0.08276366
v 0.42552832 0.26536111 -0.08387643
v 0.47486660 0.14494701 -0.08593770
v 0.45486211 0.19491296 -0.08663512
v 0.49372236 0.08494654 -0.08334020
v 0.50111381 0.05496106 -0.08146800
v 0.50164757 0.04495607 -0.08202284
v 0.50196088 0.03495107 -0.08230801
v 0.48485725 0.11493202 -0.08471025
v 0.49278249 0.09495154 -0.08289384
v 0.50446723 0.02494608 -0.07477585
v 0.50446723 0.02488705 -0.07472315
v 0.43478797 0.25414610 -0.08259628
v 0.44511512 0.23449024 -0.08309222
v 0.45515217 0.21442122 -0.08309532
v 0.45486211 0.20491796 -0.08568973
v 0.50312126 0.02488705 -0.06477946
v 0.50042920 0.03495107 -0.05917529
v 0.50008109 0.04495607 -0.05954104
v 0.49219071 0.08494654 -0.05797262
v 0.48308190 0.12493701 -0.05740228
v 0.47486660 0.14494701 -0.05651578
v 0.46102356 0.20273398 -0.05859875
v 0.45326082 0.21489345 -0.05729689
v 0.47256911 0.16492749 -0.05762235
v 0.47107224 0.17493249 -0.05858945
v 0.47016718 0.18083514 -0.05942015
v 0.44327016 0.23490342 -0.05732169
v 0.43555378 0.24538064 -0.05670796
v 0.42188481 0.27309361 -0.05815860
v 0.41296168 0.28489892 -0.05765335
v 0.43260649 0.25491343 -0.05768435
v 0.40163662 0.30219368 -0.05833218
v 0.39053204 0.32066897 -0.06650597
v 0.38594863 0.32539109 -0.06396115
v 0.41075702 0.29112620 -0.05893041
v 0.41978459 0.27976359 -0.06009278
v 0.40815781 0.29758962 -0.06477946
v 0.40315670 0.30411203 -0.06477946
v 0.39925790 0.30912929 -0.06477946
v 0.39376943 0.31588781 -0.06381547
v 0.38594863 0.32624699 -0.07531209
v 0.38594863 0.32639455 -0.07477585
v 0.39062487 0.32078703 -0.07477585
v 0.39966403 0.30963102 -0.07477585
v 0.40359764 0.30464326 -0.07477585
v 0.40859875 0.29823888 -0.07477585
v 0.42044598 0.28070802 -0.08048851
v 0.42237217 0.27489390 -0.08211893
v 0.46486435 0.17493249 -0.08598730
v 0.47365985 0.16492749 -0.08321621
v 0.48188675 0.14494701 -0.08217472
v 0.48316314 0.13494201 -0.08307982
v 0.50042920 0.06496607 -0.08060010
v 0.50342295 0.04495607 -0.07477585
v 0.50406113 0.03495107 -0.07477585
v 0.49999992 0.07080969 -0.07999566
v 0.49171497 0.10495654 -0.08207244
v 0.44161086 0.24490843 -0.08161678
v 0.43139972 0.26235077 -0.08146800
v 0.45184518 0.22489844 -0.08197015
v 0.46155733 0.20491796 -0.08173767
v 0.46358796 0.19491296 -0.08322861
v 0.50252945 0.03495107 -0.06477946
v 0.49988388 0.05015041 -0.05976112
v 0.49130883 0.09495154 -0.05849646
v 0.48192155 0.13494201 -0.05796332
v 0.45959633 0.20940398 -0.06066312
v 0.45132301 0.22295055 -0.05842517
v 0.48072640 0.14494701 -0.05891181
v 0.48003017 0.15049550 -0.05959063
v 0.48078442 0.15285657 -0.06477946
v 0.47084016 0.18287154 -0.06477946
v 0.46907644 0.18785929 -0.06477946
v 0.46640762 0.19491296 -0.06477946
v 0.44122794 0.24237029 -0.05850266
v 0.43071511 0.26125878 -0.05891492
v 0.43933655 0.24904028 -0.06163951
v 0.43175942 0.26288200 -0.06477946
v 0.42056202 0.28091462 -0.06676014
v 0.41738263 0.28451522 -0.06396735
v 0.41182454 0.29260186 -0.06477946
v 0.41232350 0.29322165 -0.07477585
v 0.41732464 0.28625651 -0.07477585
v 0.42081728 0.28126878 -0.07477585
v 0.42504099 0.27489390 -0.07477585
v 0.42910223 0.26869612 -0.07477585
v 0.44011398 0.25030936 -0.08010416
v 0.47193090 0.17493249 -0.08222742
v 0.48078442 0.15276802 -0.08098755
v 0.48998602 0.12048051 -0.07997397
v 0.49058942 0.11493202 -0.08080777
v 0.50186809 0.04495607 -0.06477946
v 0.50244822 0.05496106 -0.07477585
v 0.50015076 0.07160655 -0.06872222
v 0.50061485 0.06496607 -0.06715070
v 0.50018556 0.07184265 -0.07477585
v 0.50118342 0.06496607 -0.07477585
v 0.49590384 0.09495154 -0.07477585
v 0.49783003 0.08494654 -0.07477585
v 0.49930369 0.07685991 -0.07477585
v 0.45034830 0.23086012 -0.08046681
v 0.46026935 0.21079110 -0.08037072
v 0.47068932 0.18263544 -0.08094726
v 0.50093978 0.05407567 -0.06431141
v 0.49935008 0.05682040 -0.06066622
v 0.48989319 0.11012135 -0.05974252
v 0.49036894 0.10495654 -0.05928067
v 0.46204469 0.20559676 -0.06431141
v 0.46038538 0.21102720 -0.06733047
v 0.44969850 0.22962056 -0.06033766
v 0.48905774 0.11679136 -0.06213236
v 0.48547225 0.13494201 -0.06477946
v 0.48296587 0.14494701 -0.06477946
v 0.49009046 0.12095272 -0.06879972
v 0.48413784 0.14494701 -0.07477585
v 0.48134139 0.15453882 -0.07477585
v 0.47970530 0.15952656 -0.07477585
v 0.46962179 0.18921691 -0.07477585
v 0.46747515 0.19491296 -0.07477585
v 0.44220264 0.24538064 -0.06489724
v 0.44020681 0.25045693 -0.06830687
v 0.43705066 0.25423460 -0.06489724
v 0.43227000 0.26370836 -0.07477585
v 0.44029963 0.25060450 -0.07477585
v 0.44349062 0.24490843 -0.07477585
v 0.44806241 0.23649714 -0.07477585
v 0.43727111 0.25562175 -0.07477585
v 0.48671383 0.13494201 -0.07477585
v 0.48891849 0.12608803 -0.07477585
v 0.49012527 0.12110029 -0.07477585
v 0.49373398 0.10495654 -0.07477585
v 0.49870028 0.06496607 -0.06215095
v 0.49238795 0.10495654 -0.06477946
v 0.49443018 0.09495154 -0.06477946
v 0.49630994 0.08494654 -0.06477946
v 0.45067320 0.23147990 -0.07477585
v 0.45399182 0.22489844 -0.07477585
v 0.45819231 0.21639862 -0.07477585
v 0.46055944 0.21141088 -0.07477585
v 0.46341391 0.20491796 -0.07477585
v 0.49060101 0.11404662 -0.06519171
v 0.45046434 0.23106670 -0.06700501
v 0.45246017 0.22572481 -0.06411613
v 0.44788835 0.23460829 -0.06411613
v 0.48811785 0.12455335 -0.06519171
f 1 2 6
f 1 6 10
f 1 10 14
f 1 14 18
f 1 18 31
f 1 31 62
f 1 62 102
f 1 102 110
f 1 110 109
f 1 109 63
f 1 63 32
f 1 32 19
f 1 19 15
f 1 15 11
f 1 11 7
f 1 7 3
f 1 3 4
f 1 4 5
f 1 5 2
f 2 5 6
f 3 7 4
f 4 8 12
f 4 12 16
f 4 16 24
f 4 24 42
f 4 42 79
f 4 79 84
f 4 84 46
f 4 46 26
f 4 26 17
f 4 17 13
f 4 13 9
f 4 9 5
f 4 7 8
f 5 9 10
f 5 10 6
f 7 11 12
f 7 12 8
f 9 13 10
f 10 13 14
f 11 15 12
f 12 15 16
f 13 17 18
f 13 18 14
f 15 19 20
f 15 20 16
f 16 21 22
f 16 22 23
f 16 23 41
f 16 41 24
f 16 20 25
f 16 25 21
f 17 26 27
f 17 27 28
f 17 28 29
f 17 29 30
f 17 30 18
f 18 30 31
f 19 32 33
f 19 33 34
f 19 34 35
f 19 35 20
f 20 35 25
f 21 25 36
f 21 36 22
f 22 37 38
f 22 38 39
f 22 39 23
f 22 36 40
f 22 40 37
f 23 39 41
f 24 41 78
f 24 78 42
f 25 35 34
f 25 34 43
f 25 43 44
f 25 44 45
f 25 45 36
f 26 46 47
f 26 47 48
f 26 48 49
f 26 49 50
f 26 50 27
f 27 51 52
f 27 52 53
f 27 53 28
f 27 50 54
f 27 54 51
f 28 53 55
f 28 55 29
f 29 56 57
f 29 57 58
f 29 58 59
f 29 59 31
f 29 31 30
f 29 55 56
f 31 59 60
f 31 60 61
f 31 61 62
f 32 63 64
f 32 64 65
f 32 65 66
f 32 66 33
f 33 66 67
f 33 67 68
f 33 68 34
f 34 68 69
f 34 69 43
f 36 70 40
f 36 45 71
f 36 71 70
f 37 40 72
f 37 72 73
f 37 73 74
f 37 74 38
f 38 74 75
f 38 75 41
f 38 41 39
f 40 70 76
f 40 76 77
f 40 77 72
f 41 75 78
f 42 78 79
f 43 69 80
f 43 80 81
f 43 81 44
f 44 81 82
f 44 82 83
f 44 83 71
f 44 71 45
f 46 84 85
f 46 85 47
f 47 85 86
f 47 86 87
f 47 87 88
f 47 88 48
f 48 88 50
f 48 50 49
f 50 88 89
f 50 89 54
f 51 90 91
f 51 91 52
f 51 54 92
f 51 92 93
f 51 93 94
f 51 94 90
f 52 91 53
f 53 95 96
f 53 96 55
f 53 91 95
f 54 89 92
f 55 96 56
f 56 97 98
f 56 98 58
f 56 58 57
f 56 96 99
f 56 99 97
f 58 100 60
f 58 60 59
f 58 98 100
f 60 100 61
f 61 101 102
f 61 102 62
f 61 100 103
f 61 103 104
f 61 104 105
f 61 105 106
f 61 106 107
f 61 107 108
f 61 108 101
f 63 109 64
f 64 109 110
f 64 110 111
f 64 111 112
f 64 112 113
f 64 113 114
f 64 114 115
f 64 115 67
f 64 67 66
f 64 66 65
f 67 115 116
f 67 116 68
f 68 116 69
f 69 116 80
f 70 117 118
f 70 118 119
f 70 119 120
f 70 120 76
f 70 71 117
f 71 83 117
f 72 77 73
f 73 77 121
f 73 121 122
f 73 122 74
f 74 122 123
f 74 123 78
f 74 78 75
f 76 120 77
f 77 124 121
f 77 120 125
f 77 125 124
f 78 123 79
f 79 123 84
f 80 126 81
f 80 116 127
f 80 127 126
f 81 128 82
f 81 126 128
f 82 129 130
f 82 130 83
f 82 128 129
f 83 130 117
f 84 123 131
f 84 131 132
f 84 132 86
f 84 86 85
f 86 132 87
f 87 132 133
f 87 133 88
f 88 134 92
f 88 92 89
f 88 133 134
f 90 135 136
f 90 136 91
f 90 94 135
f 91 136 95
f 92 134 137
f 92 137 93
f 93 137 138
f 93 138 94
f 94 138 139
f 94 139 140
f 94 140 141
f 94 141 142
f 94 142 135
f 95 136 143
f 95 143 99
f 95 99 96
f 97 99 144
f 97 144 104
f 97 104 103
f 97 103 98
f 98 103 100
f 99 143 144
f 101 108 107
f 101 107 106
f 101 106 114
f 101 114 113
f 101 113 112
f 101 112 111
f 101 111 110
f 101 110 102
f 104 144 145
f 104 145 146
f 104 146 147
f 104 147 148
f 104 148 149
f 104 149 105
f 105 149 150
f 105 150 114
f 105 114 106
f 114 150 115
f 115 127 116
f 115 150 151
f 115 151 152
f 115 152 153
f 115 153 154
f 115 154 155
f 115 155 127
f 117 130 118
f 118 130 156
f 118 156 119
f 119 156 157
f 119 157 158
f 119 158 159
f 119 159 125
f 119 125 120
f 121 124 122
f 122 160 131
f 122 131 123
f 122 124 161
f 122 161 162
f 122 162 163
f 122 163 160
f 124 164 165
f 124 165 161
f 124 125 159
f 124 159 158
f 124 158 166
f 124 166 167
f 124 167 168
f 124 168 164
f 126 127 155
f 126 155 169
f 126 169 128
f 128 169 170
f 128 170 129
f 129 170 171
f 129 171 130
f 130 171 156
f 131 160 132
f 132 160 172
f 132 172 163
f 132 163 173
f 132 173 174
f 132 174 175
f 132 175 133
f 133 175 134
f 134 175 174
f 134 174 137
f 135 142 176
f 135 176 177
f 135 177 178
f 135 178 136
f 136 178 143
f 137 174 138
f 138 174 179
f 138 179 180
f 138 180 181
f 138 181 139
f 139 181 182
f 139 182 183
f 139 183 184
f 139 184 185
f 139 185 140
f 140 185 186
f 140 186 141
f 141 186 187
f 141 187 142
f 142 187 177
f 142 177 176
f 143 178 144
f 144 178 145
f 145 178 188
f 145 188 189
f 145 189 190
f 145 190 146
f 146 190 189
f 146 189 147
f 147 154 153
f 147 153 152
f 147 152 151
f 147 151 150
f 147 150 149
f 147 149 148
f 147 189 154
f 154 191 155
f 154 189 191
f 155 192 193
f 155 193 194
f 155 194 169
f 155 191 195
f 155 195 192
f 156 171 157
f 157 184 183
f 157 183 158
f 157 171 185
f 157 185 184
f 158 196 197
f 158 197 198
f 158 198 199
f 158 199 166
f 158 183 196
f 160 163 172
f 161 165 162
f 162 200 163
f 162 165 164
f 162 164 168
f 162 168 167
f 162 167 166
f 162 166 182
f 162 182 201
f 162 201 202
f 162 202 174
f 162 174 203
f 162 203 200
f 163 200 173
f 166 199 182
f 169 194 204
f 169 204 205
f 169 205 206
f 169 206 170
f 170 206 207
f 170 207 208
f 170 208 187
f 170 187 186
f 170 186 171
f 171 186 185
f 173 200 174
f 174 200 203
f 174 202 201
f 174 201 209
f 174 209 182
f 174 182 179
f 177 187 208
f 177 208 207
f 177 207 206
f 177 206 210
f 177 210 211
f 177 211 178
f 178 211 210
f 178 210 212
f 178 212 188
f 179 182 213
f 179 213 180
f 180 213 182
f 180 182 181
f 182 198 197
f 182 197 196
f 182 196 183
f 182 209 201
f 182 199 198
f 188 212 189
f 189 212 210
f 189 210 194
f 189 194 193
f 189 193 192
f 189 192 195
f 189 195 191
f 194 210 204
f 204 210 205
f 205 210 206

