# https://github.com/mikedh/trimesh
v -0.32321224 0.03474760 -0.07477690
v -0.32200781 0.03474760 -0.06478086
v -0.32112653 0.04561869 -0.06387004
v -0.32319755 0.03494423 -0.07477690
v -0.32059041 0.05494478 -0.08077510
v -0.32114122 0.04494451 -0.08169746
v -0.32155984 0.03494423 -0.08231429
v -0.32156717 0.03474760 -0.08232293
v -0.32039949 0.03474760 -0.05959838
v -0.32022323 0.04272535 -0.05960414
v -0.31990745 0.04939688 -0.05992985
v -0.32070058 0.05494478 -0.06649011
v -0.32235298 0.04494451 -0.07477690
v -0.32019385 0.06084382 -0.08006604
v -0.31388536 0.07494533 -0.08394282
v -0.31504571 0.05494478 -0.08545894
v -0.31504571 0.04494451 -0.08640724
v -0.31504571 0.03494423 -0.08696642
v -0.31504571 0.03474760 -0.08697507
v -0.32035542 0.03474760 -0.05948020
v -0.31326846 0.06494506 -0.05817161
v -0.31239454 0.07494533 -0.05819178
v -0.31127826 0.08494561 -0.05876825
v -0.31045571 0.09156095 -0.05939372
v -0.31633092 0.07494533 -0.06478086
v -0.32025994 0.06127923 -0.06857694
v -0.32125139 0.05494478 -0.07477690
v -0.32031871 0.06161631 -0.07477690
v -0.31948150 0.06661645 -0.07477690
v -0.31782174 0.07494533 -0.07477690
v -0.31547902 0.08494561 -0.07477690
v -0.31042636 0.10109774 -0.08043498
v -0.31135904 0.09494588 -0.08172052
v -0.31272501 0.08494561 -0.08318476
v -0.30504320 0.09494588 -0.08612765
v -0.30504320 0.08494561 -0.08722295
v -0.30504320 0.04494451 -0.08528600
v -0.30412520 0.03474760 -0.08370070
v -0.30504320 0.07494533 -0.08727771
v -0.26505516 0.17491999 -0.08647641
v -0.25490577 0.17822063 -0.08433482
v -0.31504571 0.03474760 -0.05853478
v -0.30504320 0.08494561 -0.05788337
v -0.30312642 0.10494616 -0.05811684
v -0.30168700 0.11491834 -0.05855207
v -0.30924396 0.09821844 -0.06129609
v -0.31141045 0.09490374 -0.06468863
v -0.31402491 0.08494561 -0.06478086
v -0.30065884 0.12137920 -0.05923808
v -0.31048509 0.10128032 -0.06796299
v -0.31275439 0.09494588 -0.07477690
v -0.31066136 0.10181405 -0.07477690
v -0.30900896 0.10680014 -0.07477690
v -0.30623293 0.11491834 -0.07477690
v -0.30010070 0.13004516 -0.07987580
v -0.30117291 0.12491862 -0.08129969
v -0.30308971 0.11491834 -0.08330870
v -0.29504804 0.12491862 -0.08548777
v -0.29504804 0.11491834 -0.08697795
v -0.30403709 0.03474760 -0.08362287
v -0.24934639 0.17822063 -0.08114981
v -0.27330247 0.17491999 -0.08288499
v -0.26515800 0.17822063 -0.08552524
v -0.28505286 0.14491917 -0.08562323
v -0.30861236 0.03474760 -0.05881437
v -0.30632841 0.06494506 -0.05817161
v -0.26144192 0.17822063 -0.05786607
v -0.26505516 0.17491999 -0.05783148
v -0.29504804 0.11491834 -0.05789490
v -0.29227201 0.13491889 -0.05845984
v -0.29089868 0.14202583 -0.05909972
v -0.30482289 0.11491834 -0.06478086
v -0.30139324 0.12480625 -0.06548128
v -0.28922424 0.14869736 -0.06158144
v -0.30015944 0.13018561 -0.06928312
v -0.30239935 0.12491862 -0.07477690
v -0.30017413 0.13021370 -0.07477690
v -0.29791952 0.13521384 -0.07477690
v -0.29335891 0.14491917 -0.07477690
v -0.29028178 0.15035470 -0.08015251
v -0.29163309 0.14491917 -0.08167152
v -0.29517287 0.13399189 -0.08282735
v -0.29985835 0.03785162 -0.08009487
v -0.30033570 0.03474760 -0.07432726
v -0.24882496 0.17822063 -0.07887851
v -0.28176276 0.16292528 -0.08175799
v -0.27229633 0.17822063 -0.08208658
v -0.28508224 0.15417503 -0.08282735
v -0.30848753 0.03474760 -0.05883455
v -0.25688867 0.17822063 -0.05851173
v -0.26495236 0.17822063 -0.05804190
v -0.28251918 0.15491943 -0.05849443
v -0.28083008 0.16132411 -0.05917467
v -0.29193418 0.14518603 -0.06486157
v -0.29039195 0.15055135 -0.06824835
v -0.27220089 0.17822063 -0.06157855
v -0.28199776 0.16338878 -0.06478086
v -0.29048743 0.15071989 -0.07477690
v -0.28768934 0.15572002 -0.07477690
v -0.28269545 0.16458262 -0.07477690
v -0.27985332 0.16958276 -0.07477690
v -0.27669541 0.17491999 -0.07477690
v -0.24819338 0.17822063 -0.07477690
v -0.30034306 0.03474760 -0.07426961
v -0.27463173 0.17822063 -0.07477690
v -0.30386082 0.03474760 -0.06465692
v -0.25205631 0.17822063 -0.06257586
v -0.25414202 0.17822063 -0.05999614
v -0.26924859 0.17822063 -0.05865584
v -0.27173820 0.17491999 -0.05879131
v -0.27087897 0.17822063 -0.05924672
v -0.27319231 0.17822063 -0.06478086
v -0.27398547 0.17822063 -0.06984229
v -0.24927295 0.17822063 -0.06806099
v -0.30378004 0.03474760 -0.06478086
v -0.24952998 0.17822063 -0.06727988
v -0.25088127 0.17822063 -0.06463098
f 1 2 3
f 1 3 4
f 1 4 5
f 1 5 6
f 1 6 7
f 1 7 8
f 1 8 19
f 1 19 38
f 1 38 60
f 1 60 84
f 1 84 104
f 1 104 115
f 1 115 106
f 1 106 89
f 1 89 65
f 1 65 42
f 1 42 20
f 1 20 9
f 1 9 2
f 2 9 10
f 2 10 11
f 2 11 3
f 3 11 12
f 3 12 4
f 4 12 13
f 4 13 5
f 5 13 14
f 5 14 15
f 5 15 6
f 6 15 16
f 6 16 17
f 6 17 7
f 7 17 8
f 8 17 18
f 8 18 19
f 9 20 10
f 10 20 21
f 10 21 22
f 10 22 11
f 11 22 23
f 11 23 24
f 11 24 25
f 11 25 26
f 11 26 12
f 12 26 13
f 13 26 27
f 13 27 14
f 14 28 29
f 14 29 30
f 14 30 31
f 14 31 32
f 14 32 33
f 14 33 34
f 14 34 15
f 14 27 28
f 15 34 35
f 15 35 36
f 15 36 16
f 16 36 17
f 17 36 18
f 18 36 19
f 19 37 38
f 19 36 39
f 19 39 40
f 19 40 41
f 19 41 37
f 20 42 21
f 21 43 22
f 21 42 43
f 22 43 44
f 22 44 45
f 22 45 23
f 23 45 24
f 24 46 47
f 24 47 48
f 24 48 25
f 24 45 49
f 24 49 46
f 25 48 26
f 26 48 31
f 26 31 30
f 26 30 29
f 26 29 28
f 26 28 27
f 31 48 50
f 31 50 51
f 31 51 32
f 32 51 52
f 32 52 53
f 32 53 54
f 32 54 55
f 32 55 56
f 32 56 57
f 32 57 33
f 33 57 34
f 34 57 35
f 35 57 58
f 35 58 59
f 35 59 36
f 36 59 40
f 36 40 39
f 37 41 38
f 38 41 61
f 38 61 60
f 40 62 63
f 40 63 41
f 40 59 64
f 40 64 62
f 41 63 87
f 41 87 105
f 41 105 113
f 41 113 112
f 41 112 96
f 41 96 111
f 41 111 109
f 41 109 91
f 41 91 67
f 41 67 90
f 41 90 108
f 41 108 107
f 41 107 117
f 41 117 116
f 41 116 114
f 41 114 103
f 41 103 85
f 41 85 61
f 42 65 66
f 42 66 43
f 43 66 67
f 43 67 68
f 43 68 69
f 43 69 44
f 44 69 68
f 44 68 70
f 44 70 45
f 45 70 71
f 45 71 49
f 46 50 47
f 46 49 72
f 46 72 50
f 47 50 48
f 49 73 72
f 49 71 74
f 49 74 73
f 50 52 51
f 50 72 73
f 50 73 75
f 50 75 54
f 50 54 53
f 50 53 52
f 54 75 76
f 54 76 55
f 55 76 77
f 55 77 78
f 55 78 79
f 55 79 80
f 55 80 81
f 55 81 56
f 56 81 82
f 56 82 57
f 57 82 58
f 58 82 64
f 58 64 59
f 60 83 84
f 60 61 83
f 61 85 83
f 62 86 87
f 62 87 63
f 62 64 88
f 62 88 86
f 64 82 88
f 65 89 90
f 65 90 67
f 65 67 66
f 67 91 68
f 68 91 92
f 68 92 70
f 70 92 71
f 71 92 93
f 71 93 74
f 73 74 94
f 73 94 75
f 74 95 94
f 74 93 96
f 74 96 97
f 74 97 95
f 75 94 95
f 75 95 79
f 75 79 78
f 75 78 77
f 75 77 76
f 79 95 98
f 79 98 80
f 80 98 99
f 80 99 100
f 80 100 101
f 80 101 102
f 80 102 87
f 80 87 86
f 80 86 81
f 81 86 88
f 81 88 82
f 83 85 103
f 83 103 84
f 84 103 104
f 87 102 105
f 89 106 107
f 89 107 108
f 89 108 90
f 91 109 92
f 92 109 110
f 92 110 93
f 93 110 111
f 93 111 96
f 95 97 112
f 95 112 113
f 95 113 102
f 95 102 101
f 95 101 100
f 95 100 99
f 95 99 98
f 96 112 97
f 102 113 105
f 103 114 104
f 104 114 116
f 104 116 115
f 106 115 107
f 107 115 117
f 109 111 110
f 115 116 117

