# https://github.com/mikedh/trimesh
v -0.30457249 -0.11918766 -0.07466618
v -0.30421010 -0.11918766 -0.07642636
v -0.29995212 -0.12987827 -0.07762545
v -0.30421010 -0.12009805 -0.07464340
v -0.30008157 -0.13013837 -0.06957361
v -0.30333004 -0.11918766 -0.06515321
v -0.30382185 -0.11918766 -0.07828623
v -0.29811435 -0.13410507 -0.07448390
v -0.30008157 -0.13013837 -0.07096922
v -0.30180286 -0.12593756 -0.07448390
v -0.30145344 -0.12321939 -0.08168413
v -0.29011610 -0.15019300 -0.07991255
v -0.30129812 -0.12488411 -0.06565449
v -0.29284690 -0.14505580 -0.07477726
v -0.29016786 -0.15031005 -0.06910935
v -0.29164328 -0.14510781 -0.06537822
v -0.30096163 -0.11918766 -0.05906092
v -0.30059924 -0.12145063 -0.05928593
v -0.30226877 -0.11918766 -0.08246453
v -0.29376578 -0.13506750 -0.08355824
v -0.29139737 -0.14505580 -0.08149900
v -0.29019376 -0.15034907 -0.07477726
v -0.28161311 -0.16283444 -0.08178666
v -0.27106527 -0.18158851 -0.08118569
v -0.27617741 -0.17504670 -0.07477726
v -0.27960709 -0.16931123 -0.07477726
v -0.28248024 -0.16431708 -0.07477726
v -0.28747592 -0.15534322 -0.07477726
v -0.28902896 -0.14848928 -0.06244458
v -0.29878733 -0.12812250 -0.06290883
v -0.27089702 -0.18135441 -0.06478010
v -0.28179432 -0.16312057 -0.06478010
v -0.29217391 -0.13506750 -0.05855110
v -0.29529296 -0.12488411 -0.05838021
v -0.29513765 -0.11918766 -0.05808400
v -0.29078911 -0.14183041 -0.05917770
v -0.30039217 -0.11918766 -0.08366362
v -0.28502985 -0.14505580 -0.08563457
v -0.28497806 -0.15414671 -0.08277784
v -0.27308426 -0.17504670 -0.08293734
v -0.27159590 -0.18242088 -0.07477726
v -0.26528012 -0.18498298 -0.08363799
v -0.26210930 -0.19274732 -0.08191768
v -0.25016371 -0.21017483 -0.07994958
v -0.26320937 -0.19420395 -0.07477726
v -0.26821799 -0.18737601 -0.07477726
v -0.28070715 -0.16124777 -0.05925745
v -0.27013342 -0.18018391 -0.05970177
v -0.26737676 -0.18633557 -0.06478010
v -0.28228609 -0.15505709 -0.05855110
v -0.28543104 -0.14510781 -0.05833464
v -0.28814891 -0.11918766 -0.05874762
v -0.24545275 -0.20533673 -0.05789886
v -0.23566850 -0.21559816 -0.05772797
v -0.22587129 -0.22582056 -0.05769949
v -0.21564700 -0.23561376 -0.05771942
v -0.19496545 -0.24482173 -0.05801279
v -0.18578946 -0.25205284 -0.05830616
v -0.29539651 -0.11918766 -0.08593364
v -0.26503421 -0.17504670 -0.08678809
v -0.27585385 -0.16572168 -0.08435289
v -0.28502985 -0.13506750 -0.08679664
v -0.25574175 -0.19564757 -0.08416775
v -0.25227328 -0.20501160 -0.08174679
v -0.24599633 -0.21539007 -0.07477726
v -0.25034488 -0.21039592 -0.07477726
v -0.25471934 -0.20501160 -0.07477726
v -0.25940440 -0.19921111 -0.07477726
v -0.24069005 -0.22072237 -0.08053346
v -0.24100066 -0.22107352 -0.07477726
v -0.26236814 -0.19318951 -0.06478010
v -0.25031902 -0.21035690 -0.06876187
v -0.27140176 -0.17504670 -0.05901820
v -0.25856314 -0.19819667 -0.06478010
v -0.24907656 -0.20888726 -0.06209425
v -0.26099628 -0.19136872 -0.05910649
v -0.26460713 -0.18412460 -0.05874762
v -0.25506877 -0.19484122 -0.05820077
v -0.28391683 -0.11918766 -0.06451806
v -0.18765313 -0.24803411 -0.05876471
v -0.18098792 -0.25086934 -0.06069864
v -0.17794651 -0.25205284 -0.06256705
v -0.17595342 -0.25205284 -0.06509910
v -0.25176854 -0.20221539 -0.05875332
v -0.24241136 -0.21264588 -0.05855110
v -0.23274356 -0.22305037 -0.05845141
v -0.22308873 -0.23268751 -0.05845996
v -0.21269619 -0.24235067 -0.05854255
v -0.20537093 -0.24541999 -0.05787892
v -0.19497838 -0.25205284 -0.05804982
v -0.18215273 -0.25205284 -0.05982994
v -0.29027141 -0.11918766 -0.08570578
v -0.18804140 -0.25205284 -0.08655454
v -0.21507753 -0.23501552 -0.08586528
v -0.23507316 -0.21502591 -0.08591085
v -0.24505155 -0.20501160 -0.08553489
v -0.24443033 -0.21410251 -0.08185502
v -0.23451664 -0.22445497 -0.08225662
v -0.23078930 -0.23076268 -0.08057048
v -0.23122933 -0.23117886 -0.07477726
v -0.23622500 -0.22605466 -0.07477726
v -0.23089284 -0.23084071 -0.06707004
v -0.24066416 -0.22070936 -0.06782767
v -0.24488330 -0.21483083 -0.06495953
v -0.25303685 -0.20533673 -0.06517315
v -0.23939583 -0.21930474 -0.06115719
v -0.28138017 -0.11918766 -0.07477726
v -0.17236846 -0.25205284 -0.07477726
v -0.22976688 -0.22970923 -0.06040242
v -0.20222599 -0.25177973 -0.05873908
v -0.20165653 -0.25205284 -0.05868496
v -0.28548283 -0.11918766 -0.08375192
v -0.17810182 -0.25205284 -0.08340444
v -0.19900339 -0.25205284 -0.08470037
v -0.20507326 -0.24502983 -0.08558616
v -0.22448648 -0.23445627 -0.08222244
v -0.22077208 -0.24064694 -0.08051352
v -0.22609131 -0.23617301 -0.07477726
v -0.22075915 -0.24065994 -0.06782767
v -0.28251906 -0.11918766 -0.07761406
v -0.17245905 -0.25205284 -0.07498518
v -0.21936139 -0.23934638 -0.06116289
v -0.20890414 -0.24900954 -0.06211134
v -0.20286015 -0.25205284 -0.06001792
v -0.17843832 -0.24880145 -0.08117430
v -0.17662642 -0.25205284 -0.08253574
v -0.20542270 -0.25205284 -0.08179521
v -0.21418453 -0.24440555 -0.08186641
v -0.20579802 -0.25205284 -0.08154172
v -0.21026306 -0.25019305 -0.07999515
v -0.22109564 -0.24097208 -0.07477726
v -0.21041837 -0.25031010 -0.06877611
v -0.20628983 -0.25205284 -0.06437850
v -0.20820526 -0.25205284 -0.07793021
v -0.21048308 -0.25036213 -0.07477726
v -0.21547875 -0.24596622 -0.07477726
v -0.20846410 -0.25205284 -0.07477726
v -0.20728637 -0.25205284 -0.06654883
f 1 2 3
f 1 3 4
f 1 4 5
f 1 5 6
f 1 6 17
f 1 17 35
f 1 35 52
f 1 52 79
f 1 79 107
f 1 107 120
f 1 120 112
f 1 112 92
f 1 92 59
f 1 59 37
f 1 37 19
f 1 19 7
f 1 7 2
f 2 7 3
f 3 8 9
f 3 9 10
f 3 10 4
f 3 7 11
f 3 11 12
f 3 12 8
f 4 10 9
f 4 9 5
f 5 13 6
f 5 9 14
f 5 14 15
f 5 15 16
f 5 16 13
f 6 13 18
f 6 18 17
f 7 19 11
f 8 12 14
f 8 14 9
f 11 20 21
f 11 21 12
f 11 19 20
f 12 22 14
f 12 21 23
f 12 23 24
f 12 24 25
f 12 25 26
f 12 26 27
f 12 27 28
f 12 28 22
f 13 16 29
f 13 29 30
f 13 30 18
f 14 22 15
f 15 29 16
f 15 22 28
f 15 28 27
f 15 27 26
f 15 26 25
f 15 25 31
f 15 31 32
f 15 32 29
f 17 18 33
f 17 33 34
f 17 34 35
f 18 30 29
f 18 29 36
f 18 36 33
f 19 37 20
f 20 37 38
f 20 38 39
f 20 39 21
f 21 39 23
f 23 39 40
f 23 40 24
f 24 41 25
f 24 40 42
f 24 42 43
f 24 43 44
f 24 44 45
f 24 45 46
f 24 46 41
f 25 41 31
f 29 32 47
f 29 47 36
f 31 48 32
f 31 41 46
f 31 46 49
f 31 49 48
f 32 48 47
f 33 35 34
f 33 36 50
f 33 50 51
f 33 51 35
f 35 51 53
f 35 53 54
f 35 54 55
f 35 55 56
f 35 56 57
f 35 57 58
f 35 58 52
f 36 47 50
f 37 59 38
f 38 60 61
f 38 61 39
f 38 59 62
f 38 62 60
f 39 61 40
f 40 60 42
f 40 61 60
f 42 63 43
f 42 60 63
f 43 63 64
f 43 64 44
f 44 65 66
f 44 66 67
f 44 67 68
f 44 68 45
f 44 64 69
f 44 69 70
f 44 70 65
f 45 71 46
f 45 68 72
f 45 72 71
f 46 71 49
f 47 48 73
f 47 73 50
f 48 49 71
f 48 71 74
f 48 74 75
f 48 75 76
f 48 76 73
f 50 73 77
f 50 77 78
f 50 78 53
f 50 53 51
f 52 58 80
f 52 80 81
f 52 81 82
f 52 82 83
f 52 83 79
f 53 84 85
f 53 85 54
f 53 78 84
f 54 85 86
f 54 86 55
f 55 86 87
f 55 87 56
f 56 87 88
f 56 88 89
f 56 89 57
f 57 89 90
f 57 90 58
f 58 91 80
f 58 90 111
f 58 111 124
f 58 124 133
f 58 133 138
f 58 138 137
f 58 137 134
f 58 134 129
f 58 129 127
f 58 127 114
f 58 114 93
f 58 93 113
f 58 113 126
f 58 126 121
f 58 121 108
f 58 108 83
f 58 83 82
f 58 82 91
f 59 92 62
f 60 62 93
f 60 93 94
f 60 94 95
f 60 95 96
f 60 96 63
f 62 92 93
f 63 96 97
f 63 97 64
f 64 97 69
f 65 72 66
f 65 70 72
f 66 72 67
f 67 72 68
f 69 98 99
f 69 99 100
f 69 100 101
f 69 101 70
f 69 97 98
f 70 101 102
f 70 102 103
f 70 103 72
f 71 72 74
f 72 103 104
f 72 104 75
f 72 75 105
f 72 105 74
f 73 76 77
f 74 105 75
f 75 84 76
f 75 104 106
f 75 106 84
f 76 78 77
f 76 84 78
f 79 83 108
f 79 108 107
f 80 91 81
f 81 91 82
f 84 106 109
f 84 109 85
f 85 109 86
f 86 109 87
f 87 109 88
f 88 110 111
f 88 111 89
f 88 109 110
f 89 111 90
f 92 112 113
f 92 113 93
f 93 114 115
f 93 115 94
f 94 116 98
f 94 98 95
f 94 115 116
f 95 98 96
f 96 98 97
f 98 116 99
f 99 116 117
f 99 117 100
f 100 102 101
f 100 117 118
f 100 118 102
f 102 109 103
f 102 118 119
f 102 119 109
f 103 109 104
f 104 109 106
f 107 108 120
f 108 121 120
f 109 119 122
f 109 122 110
f 110 122 123
f 110 123 124
f 110 124 111
f 112 120 121
f 112 121 125
f 112 125 126
f 112 126 113
f 114 127 128
f 114 128 115
f 115 128 116
f 116 128 117
f 117 128 127
f 117 127 129
f 117 129 130
f 117 130 131
f 117 131 118
f 118 131 119
f 119 131 132
f 119 132 122
f 121 126 125
f 122 132 123
f 123 132 133
f 123 133 124
f 129 134 130
f 130 135 136
f 130 136 131
f 130 134 137
f 130 137 135
f 131 136 132
f 132 136 135
f 132 135 137
f 132 137 138
f 132 138 133

