# https://github.com/mikedh/trimesh
v 0.44063499 -0.19786726 -0.07353553
v 0.44088590 -0.19786726 -0.07684693
v 0.44063499 -0.19786726 -0.07196335
v 0.48116191 -0.02833365 -0.07446929
v 0.44545230 -0.19786726 -0.08311773
v 0.48269243 -0.02833365 -0.07750027
v 0.48591023 -0.02833365 -0.08338025
v 0.44109917 -0.19786726 -0.06738705
v 0.48146929 -0.02833365 -0.06842820
v 0.45487367 -0.18502279 -0.08528357
v 0.45487367 -0.19502952 -0.08601745
v 0.45487367 -0.19786726 -0.08576088
v 0.49486117 -0.02833365 -0.08606518
v 0.44170758 -0.19786726 -0.06539722
v 0.48195853 -0.02833365 -0.06495570
v 0.47486427 -0.13503892 -0.08619942
v 0.47486427 -0.14502905 -0.08582950
v 0.46487213 -0.17503265 -0.08560277
v 0.49486117 -0.03505459 -0.08614572
v 0.48486273 -0.09506178 -0.08626804
v 0.46337296 -0.19502952 -0.08290293
v 0.46281473 -0.19786726 -0.08250318
v 0.50218747 -0.02833365 -0.08246141
v 0.44204631 -0.19786726 -0.06439186
v 0.48677584 -0.02833365 -0.05754531
v 0.44462433 -0.19786726 -0.05981556
v 0.48335105 -0.13503892 -0.08305806
v 0.48209025 -0.14502905 -0.08227346
v 0.47378539 -0.16502593 -0.08315352
v 0.48486273 -0.10505192 -0.08586828
v 0.48486273 -0.11504205 -0.08477939
v 0.50213103 -0.03505459 -0.08242263
v 0.49486117 -0.04506132 -0.08600551
v 0.49486117 -0.05505145 -0.08566243
v 0.47188483 -0.17503265 -0.08207060
v 0.47059268 -0.18233442 -0.08076096
v 0.46602625 -0.19786726 -0.07477656
v 0.50471534 -0.02833365 -0.07477656
v 0.49229569 -0.02833365 -0.05672193
v 0.44655001 -0.19786726 -0.05770342
v 0.45193186 -0.19786726 -0.05620881
v 0.45487367 -0.19502952 -0.05579116
v 0.49312995 -0.09506178 -0.08301630
v 0.49196951 -0.10505192 -0.08227645
v 0.49075892 -0.11504205 -0.08102050
v 0.49007521 -0.12096643 -0.08010763
v 0.48091103 -0.15319375 -0.08108912
v 0.49486117 -0.06505819 -0.08494049
v 0.50455228 -0.03505459 -0.07477656
v 0.50184878 -0.04506132 -0.08218993
v 0.50144732 -0.05505145 -0.08184388
v 0.46715531 -0.19502952 -0.07477656
v 0.47979452 -0.15986491 -0.07858020
v 0.46576283 -0.19786726 -0.07202003
v 0.50348594 -0.02833365 -0.06477969
v 0.49486117 -0.02833365 -0.05641465
v 0.45508068 -0.19786726 -0.05613125
v 0.46487213 -0.17503265 -0.05618197
v 0.47486427 -0.14502905 -0.05622671
v 0.47486427 -0.13503892 -0.05590154
v 0.50026185 -0.07269184 -0.08038805
v 0.50084520 -0.06505819 -0.08116966
v 0.48908415 -0.12677465 -0.07477656
v 0.48709577 -0.13503892 -0.07477656
v 0.48455536 -0.14502905 -0.07477656
v 0.49652965 -0.09506178 -0.07477656
v 0.49419000 -0.10505192 -0.07477656
v 0.50319111 -0.03505459 -0.06477969
v 0.50393752 -0.04506132 -0.07477656
v 0.46619563 -0.19502952 -0.06477969
v 0.46506028 -0.19786726 -0.06469616
v 0.46945736 -0.18887282 -0.07477656
v 0.47996387 -0.16027978 -0.06932914
v 0.48126856 -0.15593190 -0.07505997
v 0.47996387 -0.16027978 -0.07191562
v 0.50268929 -0.02833365 -0.06283162
v 0.50076993 -0.03505459 -0.05884302
v 0.49435309 -0.06505819 -0.05744686
v 0.50096434 -0.02833365 -0.05864911
v 0.48486273 -0.09506178 -0.05651907
v 0.48486273 -0.10505192 -0.05679949
v 0.49350629 -0.07504832 -0.05750354
v 0.46060679 -0.19786726 -0.05752443
v 0.46241328 -0.19502952 -0.05769746
v 0.47270651 -0.16502593 -0.05759304
v 0.48221570 -0.13503892 -0.05772728
v 0.48333222 -0.12503219 -0.05727980
v 0.50055037 -0.07436793 -0.07477656
v 0.49973494 -0.07936299 -0.07477656
v 0.49862468 -0.08505505 -0.07477656
v 0.50307823 -0.05505145 -0.07477656
v 0.50192405 -0.06505819 -0.07477656
v 0.49016931 -0.12141450 -0.06841925
v 0.50037473 -0.07317309 -0.06780172
v 0.50041865 -0.04506132 -0.05919206
v 0.50011756 -0.05297709 -0.05950530
v 0.50250740 -0.04506132 -0.06477969
v 0.46895554 -0.18769457 -0.06477969
v 0.47011595 -0.18075790 -0.05949635
v 0.46426369 -0.19786726 -0.06253926
v 0.48348276 -0.14502905 -0.06477969
v 0.48084831 -0.15470388 -0.06551059
v 0.47899161 -0.15782374 -0.06266456
v 0.47078712 -0.18269950 -0.06477969
v 0.49261559 -0.08505505 -0.05773027
v 0.46187382 -0.19786726 -0.05807036
v 0.47105057 -0.17503265 -0.05864911
v 0.48101766 -0.14502905 -0.05861928
v 0.49003757 -0.11090992 -0.05958585
v 0.49061466 -0.10505192 -0.05904290
v 0.49163707 -0.09506178 -0.05824637
v 0.50093925 -0.06505819 -0.06588051
v 0.48920960 -0.11756448 -0.06175467
v 0.48596042 -0.13503892 -0.06477969
v 0.49504306 -0.09506178 -0.06477969
v 0.49079656 -0.11456080 -0.06496465
v 0.49935232 -0.06505819 -0.06088058
v 0.49875643 -0.07592785 -0.06459174
v 0.49707536 -0.08505505 -0.06477969
v 0.49979138 -0.05963165 -0.05989313
v 0.50132187 -0.05579822 -0.06384593
v 0.48020849 -0.15116918 -0.05940089
f 1 2 5
f 1 5 12
f 1 12 22
f 1 22 37
f 1 37 54
f 1 54 71
f 1 71 100
f 1 100 106
f 1 106 83
f 1 83 57
f 1 57 41
f 1 41 40
f 1 40 26
f 1 26 24
f 1 24 14
f 1 14 8
f 1 8 3
f 1 3 4
f 1 4 2
f 2 4 6
f 2 6 7
f 2 7 5
f 3 8 9
f 3 9 4
f 4 9 15
f 4 15 25
f 4 25 39
f 4 39 56
f 4 56 79
f 4 79 76
f 4 76 55
f 4 55 38
f 4 38 23
f 4 23 13
f 4 13 7
f 4 7 6
f 5 10 11
f 5 11 12
f 5 7 10
f 7 13 11
f 7 11 10
f 8 14 15
f 8 15 9
f 11 16 17
f 11 17 18
f 11 18 12
f 11 13 19
f 11 19 20
f 11 20 16
f 12 18 21
f 12 21 22
f 13 23 19
f 14 24 15
f 15 24 26
f 15 26 25
f 16 20 17
f 17 27 28
f 17 28 29
f 17 29 18
f 17 20 30
f 17 30 31
f 17 31 27
f 18 29 21
f 19 23 32
f 19 32 33
f 19 33 20
f 20 33 34
f 20 34 30
f 21 29 35
f 21 35 22
f 22 35 36
f 22 36 37
f 23 38 32
f 25 26 40
f 25 40 41
f 25 41 42
f 25 42 39
f 27 31 43
f 27 43 44
f 27 44 28
f 28 44 45
f 28 45 46
f 28 46 47
f 28 47 35
f 28 35 29
f 30 34 48
f 30 48 43
f 30 43 31
f 32 38 49
f 32 49 50
f 32 50 34
f 32 34 33
f 34 50 51
f 34 51 48
f 35 47 36
f 36 52 37
f 36 47 53
f 36 53 52
f 37 52 54
f 38 55 49
f 39 42 56
f 41 57 42
f 42 57 58
f 42 58 59
f 42 59 60
f 42 60 56
f 43 61 44
f 43 48 51
f 43 51 62
f 43 62 61
f 44 61 45
f 45 61 46
f 46 63 64
f 46 64 65
f 46 65 53
f 46 53 47
f 46 61 66
f 46 66 67
f 46 67 63
f 49 68 69
f 49 69 51
f 49 51 50
f 49 55 68
f 51 69 62
f 52 70 71
f 52 71 54
f 52 53 72
f 52 72 73
f 52 73 70
f 53 65 74
f 53 74 75
f 53 75 72
f 55 76 77
f 55 77 68
f 56 78 79
f 56 60 80
f 56 80 81
f 56 81 82
f 56 82 78
f 57 83 58
f 58 83 84
f 58 84 85
f 58 85 59
f 59 85 86
f 59 86 87
f 59 87 81
f 59 81 60
f 60 81 80
f 61 88 89
f 61 89 90
f 61 90 66
f 61 62 91
f 61 91 92
f 61 92 88
f 62 69 91
f 63 93 64
f 63 67 93
f 64 93 65
f 65 75 74
f 65 93 73
f 65 73 75
f 66 90 94
f 66 94 93
f 66 93 67
f 68 77 95
f 68 95 96
f 68 96 97
f 68 97 69
f 69 97 91
f 70 73 98
f 70 98 99
f 70 99 71
f 71 99 100
f 72 75 73
f 73 93 101
f 73 101 102
f 73 102 103
f 73 103 99
f 73 99 104
f 73 104 98
f 76 79 77
f 77 79 82
f 77 82 95
f 78 82 79
f 81 87 82
f 82 87 105
f 82 105 96
f 82 96 95
f 83 106 84
f 84 106 99
f 84 99 107
f 84 107 85
f 85 108 86
f 85 107 108
f 86 108 109
f 86 109 110
f 86 110 111
f 86 111 105
f 86 105 87
f 88 92 94
f 88 94 89
f 89 94 90
f 91 97 112
f 91 112 94
f 91 94 92
f 93 113 114
f 93 114 101
f 93 94 115
f 93 115 116
f 93 116 113
f 94 112 117
f 94 117 118
f 94 118 119
f 94 119 115
f 96 120 97
f 96 105 120
f 97 120 121
f 97 121 112
f 98 104 99
f 99 106 100
f 99 103 122
f 99 122 107
f 101 114 122
f 101 122 102
f 102 122 103
f 105 111 120
f 107 122 108
f 108 122 109
f 109 115 119
f 109 119 118
f 109 118 117
f 109 117 120
f 109 120 110
f 109 122 113
f 109 113 115
f 110 120 111
f 112 121 120
f 112 120 117
f 113 122 114
f 113 116 115

