# https://github.com/mikedh/trimesh
v 0.26028496 -0.19786727 -0.07477684
v 0.25998917 -0.19786727 -0.07244272
v 0.25025998 -0.21047824 -0.06837647
v 0.25924199 -0.19922793 -0.07477684
v 0.24997974 -0.21014637 -0.07989088
v 0.25201902 -0.20503561 -0.08152363
v 0.25469648 -0.19786727 -0.08312515
v 0.25897734 -0.19786727 -0.06477875
v 0.25458753 -0.20503561 -0.07477684
v 0.25854147 -0.19843144 -0.06477875
v 0.25303085 -0.20547810 -0.06493776
v 0.24906133 -0.20909545 -0.06170919
v 0.24487386 -0.21501377 -0.06451751
v 0.24068641 -0.22092101 -0.06732583
v 0.24082651 -0.22106482 -0.07477684
v 0.24582344 -0.21545625 -0.07477684
v 0.25022884 -0.21045611 -0.07477684
v 0.24034394 -0.22053383 -0.08028843
v 0.24415779 -0.21410665 -0.08154351
v 0.24488943 -0.20503561 -0.08493394
v 0.24488943 -0.19786727 -0.08515827
v 0.25874386 -0.19786727 -0.06430455
v 0.23940993 -0.21953822 -0.06066139
v 0.25172323 -0.20243598 -0.05870493
v 0.22968070 -0.22983718 -0.06013607
v 0.23086377 -0.23102083 -0.06680052
v 0.23109728 -0.23124207 -0.07477684
v 0.23609422 -0.22606494 -0.07477684
v 0.23052131 -0.23066685 -0.08043892
v 0.23427289 -0.22433924 -0.08191549
v 0.23488000 -0.21503588 -0.08522642
v 0.23609422 -0.19786727 -0.08241809
v 0.17490128 -0.26502619 -0.08653829
v 0.18489513 -0.25502591 -0.08632817
v 0.11490698 -0.29501594 -0.08667459
v 0.10491312 -0.29501594 -0.08612088
v 0.10125493 -0.29475046 -0.08523210
v 0.25371579 -0.19786727 -0.05831023
v 0.24239874 -0.21287874 -0.05854875
v 0.23274735 -0.22316664 -0.05849765
v 0.22301813 -0.23283505 -0.05850900
v 0.21266623 -0.24250346 -0.05856295
v 0.20222095 -0.25185104 -0.05872480
v 0.21932881 -0.23950558 -0.06075793
v 0.22074539 -0.24081092 -0.06742522
v 0.22592912 -0.23624221 -0.07477684
v 0.22041847 -0.24052331 -0.08033669
v 0.22421677 -0.23441694 -0.08194957
v 0.22488615 -0.22503616 -0.08540247
v 0.22992978 -0.20009078 -0.07917815
v 0.23171995 -0.19786727 -0.07717343
v 0.10125493 -0.28875471 -0.08140437
v 0.17490128 -0.27330076 -0.08289514
v 0.16571689 -0.27591144 -0.08416442
v 0.14490412 -0.28501569 -0.08556433
v 0.21489228 -0.23503643 -0.08532296
v 0.20488285 -0.24503671 -0.08519802
v 0.19560507 -0.25578921 -0.08397418
v 0.18497297 -0.26534700 -0.08356243
v 0.11490698 -0.30300289 -0.08307971
v 0.10125493 -0.30539234 -0.08417862
v 0.25234592 -0.19786727 -0.05801208
v 0.24538757 -0.20547810 -0.05789282
v 0.23559608 -0.21574388 -0.05783034
v 0.22575788 -0.22592113 -0.05783887
v 0.21556165 -0.23572229 -0.05783318
v 0.20528760 -0.24552344 -0.05792121
v 0.19481116 -0.25511441 -0.05808875
v 0.19141761 -0.26111016 -0.05900592
v 0.20888351 -0.24917399 -0.06181425
v 0.21030009 -0.25039082 -0.06848153
v 0.22093218 -0.24098793 -0.07477684
v 0.21000432 -0.25013640 -0.07990792
v 0.20488285 -0.25231567 -0.08164290
v 0.21395828 -0.24432871 -0.08163154
v 0.23151758 -0.19786727 -0.07397324
v 0.10125493 -0.28759320 -0.07477684
v 0.18170395 -0.27124319 -0.08127943
v 0.16293044 -0.28173018 -0.08177919
v 0.15418192 -0.28504885 -0.08284687
v 0.13491026 -0.29381017 -0.08338070
v 0.19274078 -0.26222745 -0.08186722
v 0.12306396 -0.30138781 -0.08156907
v 0.10125493 -0.31018229 -0.08055250
v 0.10463292 -0.30559146 -0.08338639
v 0.24495170 -0.19786727 -0.05799788
v 0.11490698 -0.29501594 -0.05766565
v 0.17490128 -0.26502619 -0.05777923
v 0.16481401 -0.27519239 -0.05817678
v 0.15491355 -0.28264835 -0.05831023
v 0.18405453 -0.26467220 -0.05854024
v 0.17490128 -0.27163037 -0.05884407
v 0.18019397 -0.27020332 -0.05962211
v 0.19836039 -0.25875390 -0.06477875
v 0.20528760 -0.25323384 -0.06500024
v 0.21528145 -0.24598805 -0.07477684
v 0.19336345 -0.26260357 -0.06477875
v 0.19435973 -0.26343324 -0.07477684
v 0.19935665 -0.25959463 -0.07477684
v 0.20488285 -0.25493743 -0.07477684
v 0.21028452 -0.25037977 -0.07477684
v 0.23151758 -0.19786727 -0.07242568
v 0.10125493 -0.28799143 -0.07130974
v 0.18268466 -0.27188480 -0.07477684
v 0.17490128 -0.27670791 -0.07477684
v 0.15036805 -0.29027024 -0.08016349
v 0.18768158 -0.26843337 -0.07477684
v 0.14490412 -0.29155348 -0.08162017
v 0.12974210 -0.29993864 -0.07821838
v 0.10125493 -0.31045886 -0.07932582
v 0.24204070 -0.19786727 -0.05805467
v 0.10125493 -0.29587880 -0.05826196
v 0.10125493 -0.30400957 -0.05816541
v 0.10491312 -0.30311351 -0.05809443
v 0.13491026 -0.29241632 -0.05827616
v 0.14526216 -0.28559090 -0.05806603
v 0.14214881 -0.29096718 -0.05899456
v 0.16142047 -0.28090051 -0.05908543
v 0.14881139 -0.28930784 -0.06143374
v 0.16347527 -0.28208419 -0.06477875
v 0.18154828 -0.27111043 -0.06477875
v 0.18654520 -0.26760370 -0.06477875
v 0.23252943 -0.19786727 -0.06757855
v 0.10125493 -0.28899808 -0.06682891
v 0.16959301 -0.27983856 -0.07477684
v 0.15063270 -0.29041405 -0.06809820
v 0.15580086 -0.28770381 -0.07477684
v 0.15080393 -0.29050255 -0.07477684
v 0.14490412 -0.29332343 -0.07477684
v 0.16459608 -0.28270366 -0.07477684
v 0.13403853 -0.29822400 -0.07484215
v 0.13011571 -0.30010460 -0.07155678
v 0.12580371 -0.30178604 -0.07484215
v 0.11490698 -0.30616670 -0.07477684
v 0.10125493 -0.31086815 -0.07477684
v 0.10693680 -0.30902075 -0.07477684
v 0.10193987 -0.31068009 -0.07477684
v 0.23931652 -0.19786727 -0.05881283
v 0.10125493 -0.29228359 -0.06108448
v 0.23863159 -0.19786727 -0.05915074
v 0.10125493 -0.30652069 -0.05979816
v 0.11490698 -0.30160907 -0.05856295
v 0.12138275 -0.30059134 -0.05925864
v 0.12804532 -0.29894305 -0.06270871
v 0.14526216 -0.29199597 -0.06477023
v 0.23365024 -0.19786727 -0.06561642
v 0.10125493 -0.28997156 -0.06488949
v 0.23425734 -0.19786727 -0.06465665
v 0.13011571 -0.30010460 -0.06937599
v 0.10142616 -0.31051417 -0.06782843
v 0.10125493 -0.31056947 -0.06799881
v 0.10125493 -0.29144284 -0.06214932
v 0.10125493 -0.30875527 -0.06272007
v 0.11490698 -0.30477285 -0.06477875
v 0.12479188 -0.30131036 -0.06553691
v 0.10125493 -0.31053628 -0.06774893
f 1 2 3
f 1 3 4
f 1 4 5
f 1 5 6
f 1 6 7
f 1 7 21
f 1 21 32
f 1 32 51
f 1 51 76
f 1 76 102
f 1 102 123
f 1 123 146
f 1 146 148
f 1 148 140
f 1 140 138
f 1 138 111
f 1 111 86
f 1 86 62
f 1 62 38
f 1 38 22
f 1 22 8
f 1 8 2
f 2 8 3
f 3 9 4
f 3 8 10
f 3 10 11
f 3 11 12
f 3 12 13
f 3 13 14
f 3 14 15
f 3 15 16
f 3 16 17
f 3 17 9
f 4 9 5
f 5 17 16
f 5 16 15
f 5 15 18
f 5 18 19
f 5 19 6
f 5 9 17
f 6 19 20
f 6 20 7
f 7 20 21
f 8 22 12
f 8 12 10
f 10 12 11
f 12 23 13
f 12 22 24
f 12 24 23
f 13 23 14
f 14 23 25
f 14 25 26
f 14 26 27
f 14 27 28
f 14 28 15
f 15 28 18
f 18 28 27
f 18 27 29
f 18 29 30
f 18 30 19
f 19 30 20
f 20 30 31
f 20 31 21
f 21 31 33
f 21 33 34
f 21 34 35
f 21 35 36
f 21 36 37
f 21 37 32
f 22 38 24
f 23 24 39
f 23 39 25
f 24 38 39
f 25 39 40
f 25 40 41
f 25 41 42
f 25 42 43
f 25 43 44
f 25 44 45
f 25 45 26
f 26 46 27
f 26 45 46
f 27 46 47
f 27 47 29
f 29 47 48
f 29 48 30
f 30 48 49
f 30 49 31
f 31 49 33
f 32 50 51
f 32 37 52
f 32 52 50
f 33 53 54
f 33 54 55
f 33 55 35
f 33 35 34
f 33 49 56
f 33 56 57
f 33 57 58
f 33 58 59
f 33 59 53
f 35 60 61
f 35 61 36
f 35 55 60
f 36 61 37
f 37 61 84
f 37 84 110
f 37 110 135
f 37 135 151
f 37 151 156
f 37 156 153
f 37 153 141
f 37 141 113
f 37 113 112
f 37 112 139
f 37 139 152
f 37 152 147
f 37 147 124
f 37 124 103
f 37 103 77
f 37 77 52
f 38 62 39
f 39 62 63
f 39 63 40
f 40 64 65
f 40 65 41
f 40 63 64
f 41 66 67
f 41 67 42
f 41 65 66
f 42 67 68
f 42 68 43
f 43 68 69
f 43 69 44
f 44 69 70
f 44 70 45
f 45 70 71
f 45 71 72
f 45 72 46
f 46 72 47
f 47 72 73
f 47 73 74
f 47 74 75
f 47 75 48
f 48 75 57
f 48 57 56
f 48 56 49
f 50 52 51
f 51 52 77
f 51 77 76
f 53 59 78
f 53 78 79
f 53 79 80
f 53 80 55
f 53 55 54
f 55 80 81
f 55 81 60
f 57 75 58
f 58 75 74
f 58 74 82
f 58 82 59
f 59 82 78
f 60 81 83
f 60 83 84
f 60 84 85
f 60 85 61
f 61 85 84
f 62 86 63
f 63 86 87
f 63 87 64
f 64 66 65
f 64 87 88
f 64 88 66
f 66 88 67
f 67 88 68
f 68 88 89
f 68 89 90
f 68 90 91
f 68 91 69
f 69 91 92
f 69 92 93
f 69 93 70
f 70 94 95
f 70 95 71
f 70 93 94
f 71 96 72
f 71 95 94
f 71 94 97
f 71 97 98
f 71 98 99
f 71 99 100
f 71 100 101
f 71 101 96
f 72 96 73
f 73 82 74
f 73 96 101
f 73 101 100
f 73 100 99
f 73 99 98
f 73 98 78
f 73 78 82
f 76 77 102
f 77 103 102
f 78 104 105
f 78 105 106
f 78 106 79
f 78 98 107
f 78 107 104
f 79 106 108
f 79 108 80
f 80 108 81
f 81 108 83
f 83 108 106
f 83 106 109
f 83 109 84
f 84 109 110
f 86 111 87
f 87 112 113
f 87 113 114
f 87 114 115
f 87 115 116
f 87 116 88
f 87 111 112
f 88 116 90
f 88 90 89
f 90 116 115
f 90 115 117
f 90 117 118
f 90 118 92
f 90 92 91
f 92 118 93
f 93 118 119
f 93 119 120
f 93 120 121
f 93 121 122
f 93 122 97
f 93 97 94
f 97 122 107
f 97 107 98
f 102 103 123
f 103 124 123
f 104 107 121
f 104 121 105
f 105 125 106
f 105 121 126
f 105 126 125
f 106 127 128
f 106 128 129
f 106 129 109
f 106 125 130
f 106 130 127
f 107 122 121
f 109 131 132
f 109 132 133
f 109 133 134
f 109 134 110
f 109 129 131
f 110 134 136
f 110 136 137
f 110 137 135
f 111 138 112
f 112 138 140
f 112 140 139
f 113 141 114
f 114 141 142
f 114 142 115
f 115 142 143
f 115 143 117
f 117 119 118
f 117 143 119
f 119 143 144
f 119 144 145
f 119 145 126
f 119 126 120
f 120 126 121
f 123 124 146
f 124 147 148
f 124 148 146
f 125 126 130
f 126 145 149
f 126 149 129
f 126 129 128
f 126 128 127
f 126 127 130
f 129 149 132
f 129 132 131
f 132 149 134
f 132 134 133
f 134 149 150
f 134 150 136
f 135 137 151
f 136 150 137
f 137 150 151
f 139 140 152
f 140 148 152
f 141 153 143
f 141 143 142
f 143 153 150
f 143 150 154
f 143 154 155
f 143 155 144
f 144 155 145
f 145 155 149
f 147 152 148
f 149 155 150
f 150 153 156
f 150 156 151
f 150 155 154

