# https://github.com/mikedh/trimesh
v 0.37449865 -0.33908214 -0.07477713
v 0.37425793 -0.33908214 -0.07003965
v 0.37150303 -0.34185519 -0.06477962
v 0.37174374 -0.34211280 -0.07477713
v 0.37099483 -0.34127938 -0.08093429
v 0.37214496 -0.33908214 -0.08145369
v 0.37393696 -0.33908214 -0.06477962
v 0.37294733 -0.33908214 -0.06123831
v 0.37067389 -0.34093085 -0.05898446
v 0.36695609 -0.34685579 -0.06477962
v 0.36717005 -0.34711341 -0.07477713
v 0.36219519 -0.35247768 -0.07477713
v 0.36125905 -0.35149272 -0.08112002
v 0.36470938 -0.34477980 -0.08280096
v 0.36478963 -0.33908214 -0.08467706
v 0.37169026 -0.33908214 -0.05865394
v 0.36976448 -0.33908214 -0.05758053
v 0.36452215 -0.34456763 -0.05733814
v 0.36096484 -0.35118967 -0.05876412
v 0.36195447 -0.35225040 -0.06477962
v 0.35711333 -0.35723583 -0.06477962
v 0.35732732 -0.35747828 -0.07477713
v 0.35133607 -0.36143332 -0.08111372
v 0.35475964 -0.35490223 -0.08289225
v 0.35486662 -0.34502225 -0.08609045
v 0.35449216 -0.33908214 -0.08479984
v 0.36470938 -0.33908214 -0.05580830
v 0.35457238 -0.35472039 -0.05717131
v 0.35104183 -0.36114540 -0.05873893
v 0.35211171 -0.36214552 -0.06477962
v 0.35232567 -0.36237282 -0.07477713
v 0.34464940 -0.36487309 -0.08281670
v 0.34117234 -0.37120721 -0.08097207
v 0.33448567 -0.37473794 -0.08262153
v 0.32488363 -0.37502586 -0.08598657
v 0.33486013 -0.36502465 -0.08605896
v 0.34486336 -0.35502345 -0.08608100
v 0.29487389 -0.39502823 -0.08663502
v 0.13492896 -0.47499238 -0.08647448
v 0.12492570 -0.47499238 -0.08617859
v 0.10125493 -0.48499358 -0.08593306
v 0.34641468 -0.33908214 -0.08229101
v 0.10125493 -0.47485599 -0.08331721
v 0.36083110 -0.33908214 -0.05461842
v 0.35486662 -0.34502225 -0.05452398
v 0.34486336 -0.35502345 -0.05447677
v 0.33486013 -0.36502465 -0.05462157
v 0.34440868 -0.36469126 -0.05729093
v 0.34079789 -0.37085868 -0.05896243
v 0.34676237 -0.36714612 -0.06477962
v 0.34702985 -0.36737343 -0.07477713
v 0.33090161 -0.38093563 -0.08078635
v 0.32413472 -0.38457244 -0.08214936
v 0.31488037 -0.38502703 -0.08562457
v 0.28487066 -0.40501430 -0.08653429
v 0.19492168 -0.45500514 -0.08635486
v 0.14490546 -0.47499238 -0.08582918
v 0.10491922 -0.48499358 -0.08567493
v 0.10125493 -0.49188834 -0.08209270
v 0.34226895 -0.33908214 -0.07477713
v 0.10125493 -0.47052214 -0.07477713
v 0.35473288 -0.33908214 -0.05575164
v 0.10125493 -0.47670470 -0.05746091
v 0.10125493 -0.47946261 -0.05707058
v 0.12492570 -0.47499238 -0.05609790
v 0.28487066 -0.40501430 -0.05492691
v 0.13492896 -0.47499238 -0.05591847
v 0.23490791 -0.43500274 -0.05519762
v 0.32488363 -0.37502586 -0.05492376
v 0.33416471 -0.37452577 -0.05770644
v 0.32488363 -0.38281465 -0.05788902
v 0.33033992 -0.38045074 -0.05934646
v 0.34176076 -0.37173758 -0.06477962
v 0.34202824 -0.37199516 -0.07477713
v 0.33657192 -0.37699576 -0.07477713
v 0.33157027 -0.38154178 -0.07477713
v 0.32028320 -0.39037616 -0.08021344
v 0.31488037 -0.39257340 -0.08189753
v 0.30287115 -0.40234730 -0.08189753
v 0.29506111 -0.40540827 -0.08357218
v 0.30565279 -0.39584652 -0.08405380
v 0.27486740 -0.41501550 -0.08561512
v 0.25488767 -0.42500153 -0.08624784
v 0.22490467 -0.44500394 -0.08543569
v 0.20489818 -0.45500514 -0.08531293
v 0.16491195 -0.47349220 -0.08304964
v 0.14490546 -0.48188714 -0.08201086
v 0.13492896 -0.48320548 -0.08305908
v 0.19492168 -0.46350613 -0.08304019
v 0.10491922 -0.49152467 -0.08175902
v 0.10125493 -0.49387341 -0.07477713
v 0.34347254 -0.33908214 -0.06477962
v 0.10125493 -0.47185563 -0.06460649
v 0.35048018 -0.33908214 -0.05663933
v 0.10125493 -0.47326489 -0.06222044
v 0.34751129 -0.33908214 -0.05809048
v 0.10125493 -0.48550878 -0.05719649
v 0.25488767 -0.42500153 -0.05518818
v 0.26470367 -0.42524398 -0.05689745
v 0.27580354 -0.41595498 -0.05635288
v 0.29463317 -0.40509005 -0.05702022
v 0.30527833 -0.39552829 -0.05648508
v 0.11492247 -0.48402377 -0.05713039
v 0.12492570 -0.48302365 -0.05728149
v 0.14490546 -0.47499238 -0.05660155
v 0.19492168 -0.45500514 -0.05549352
v 0.22554659 -0.44579189 -0.05669599
v 0.31584327 -0.38601201 -0.05621752
v 0.31316859 -0.39254310 -0.05787328
v 0.33617070 -0.37673818 -0.06477962
v 0.31982850 -0.38999732 -0.05988789
v 0.33116908 -0.38117811 -0.06477962
v 0.32060417 -0.39063378 -0.06655500
v 0.32573952 -0.38654238 -0.07477713
v 0.32073791 -0.39075500 -0.07477713
v 0.30958455 -0.39978639 -0.07477713
v 0.30458294 -0.40368078 -0.07477713
v 0.29808350 -0.40868138 -0.07477713
v 0.28043070 -0.42037977 -0.08026066
v 0.29187826 -0.41143930 -0.08132148
v 0.28420196 -0.41486394 -0.08254598
v 0.26518511 -0.42554704 -0.08359106
v 0.24488441 -0.43500274 -0.08510202
v 0.23442648 -0.44521608 -0.08283559
v 0.21431299 -0.45521728 -0.08277263
v 0.15223404 -0.48078096 -0.08080838
v 0.11307695 -0.49064577 -0.08072339
v 0.20489818 -0.46153623 -0.08149461
v 0.18202979 -0.47061306 -0.08063210
v 0.10125493 -0.49293390 -0.06827687
v 0.10491922 -0.49310060 -0.07477713
v 0.11313044 -0.49069122 -0.06712476
v 0.34593324 -0.33908214 -0.06027193
v 0.10125493 -0.48784241 -0.05799289
v 0.24528561 -0.43560885 -0.05671802
v 0.23490791 -0.44320067 -0.05729722
v 0.25488767 -0.43263883 -0.05767182
v 0.27307536 -0.42207695 -0.05800234
v 0.28487066 -0.41313648 -0.05750183
v 0.30220246 -0.40181693 -0.05824787
v 0.10125493 -0.49049424 -0.05925832
v 0.13492896 -0.48196291 -0.05789216
v 0.19492168 -0.46235448 -0.05762775
v 0.17491518 -0.46500634 -0.05645361
v 0.20527262 -0.45567187 -0.05683449
v 0.21490142 -0.45306551 -0.05729722
v 0.31584327 -0.39387658 -0.06384471
v 0.32432195 -0.38692121 -0.06384471
v 0.29115611 -0.41093924 -0.05884596
v 0.29754854 -0.40828741 -0.06477962
v 0.30407474 -0.40328681 -0.06477962
v 0.30907636 -0.39937724 -0.06477962
v 0.29254693 -0.41192422 -0.06477962
v 0.29308185 -0.41228789 -0.07477713
v 0.27486740 -0.42471361 -0.07477713
v 0.26836796 -0.42901715 -0.07477713
v 0.25010001 -0.44012456 -0.07995217
v 0.26205574 -0.43138109 -0.08129000
v 0.27486740 -0.42221331 -0.08181884
v 0.28588702 -0.41727332 -0.07477713
v 0.28088540 -0.42068283 -0.07477713
v 0.25400502 -0.43482090 -0.08229731
v 0.24488441 -0.44162474 -0.08137499
v 0.22490467 -0.45185322 -0.08170866
v 0.15362485 -0.48125071 -0.07477713
v 0.14490546 -0.48394799 -0.07477713
v 0.13492896 -0.48656951 -0.07477713
v 0.18847574 -0.46952202 -0.07477713
v 0.12492570 -0.48882737 -0.07477713
v 0.11968337 -0.48994871 -0.07477713
v 0.21059522 -0.46030880 -0.08020715
v 0.19492168 -0.46720356 -0.07477713
v 0.10125493 -0.49235809 -0.06441447
v 0.13492896 -0.48532694 -0.06477962
v 0.12492570 -0.48749388 -0.06477962
v 0.10882424 -0.48970626 -0.06045765
v 0.10526693 -0.49150950 -0.06418783
v 0.22265794 -0.45130772 -0.05848081
v 0.24223648 -0.44127621 -0.05850599
v 0.26125337 -0.43083556 -0.05887114
v 0.10125493 -0.49081244 -0.06000436
v 0.10216431 -0.49040330 -0.05933702
v 0.14490546 -0.48070518 -0.05902538
v 0.17491518 -0.47088581 -0.05887744
v 0.18026452 -0.47011300 -0.05963606
v 0.20217002 -0.46096039 -0.05872634
v 0.27973530 -0.41989485 -0.06019953
v 0.28436246 -0.41745516 -0.06403044
v 0.28067141 -0.42054647 -0.06686348
v 0.25036746 -0.44030640 -0.06851610
v 0.26336634 -0.43218421 -0.07477713
v 0.25539583 -0.43718481 -0.07477713
v 0.25039422 -0.44032156 -0.07477713
v 0.24488441 -0.44350376 -0.07477713
v 0.23643247 -0.44818613 -0.07477713
v 0.23078893 -0.45044399 -0.08035824
v 0.18213679 -0.47071915 -0.06477962
v 0.15193983 -0.48069001 -0.06477962
v 0.14490546 -0.48275086 -0.06477962
v 0.18713840 -0.46894618 -0.06477962
v 0.20489818 -0.46323338 -0.07477713
v 0.22490467 -0.45395955 -0.07477713
v 0.21613177 -0.45818734 -0.07477713
v 0.21113014 -0.46055125 -0.07477713
v 0.21083594 -0.46043002 -0.06811317
v 0.19492168 -0.46605191 -0.06477962
v 0.14998733 -0.48002329 -0.05974624
v 0.22931787 -0.44965601 -0.06079761
v 0.24889641 -0.43933658 -0.06184899
v 0.26275117 -0.43179023 -0.06477962
v 0.20882993 -0.45946021 -0.06144607
v 0.26775278 -0.42863835 -0.06477962
v 0.27580354 -0.42324374 -0.06403044
v 0.24528561 -0.44226116 -0.06502201
v 0.23105640 -0.45058035 -0.06746472
v 0.23143085 -0.45076218 -0.07477713
v 0.22554659 -0.45245937 -0.06439244
v 0.21447348 -0.45777819 -0.06477962
v 0.20527262 -0.46193020 -0.06477962
v 0.23458696 -0.44788308 -0.06439244
f 1 2 3
f 1 3 4
f 1 4 5
f 1 5 6
f 1 6 15
f 1 15 26
f 1 26 42
f 1 42 60
f 1 60 92
f 1 92 133
f 1 133 96
f 1 96 94
f 1 94 62
f 1 62 44
f 1 44 27
f 1 27 17
f 1 17 16
f 1 16 8
f 1 8 7
f 1 7 2
f 2 7 3
f 3 7 8
f 3 8 9
f 3 9 10
f 3 10 4
f 4 10 11
f 4 11 5
f 5 11 12
f 5 12 13
f 5 13 14
f 5 14 6
f 6 14 15
f 8 16 9
f 9 16 17
f 9 17 18
f 9 18 19
f 9 19 20
f 9 20 10
f 10 20 11
f 11 20 12
f 12 20 21
f 12 21 22
f 12 22 13
f 13 22 23
f 13 23 24
f 13 24 14
f 14 24 15
f 15 24 25
f 15 25 26
f 17 27 18
f 18 27 28
f 18 28 19
f 19 28 29
f 19 29 21
f 19 21 20
f 21 29 30
f 21 30 22
f 22 30 31
f 22 31 23
f 23 32 24
f 23 31 33
f 23 33 34
f 23 34 32
f 24 32 35
f 24 35 36
f 24 36 37
f 24 37 25
f 25 37 38
f 25 38 39
f 25 39 40
f 25 40 41
f 25 41 26
f 26 41 43
f 26 43 42
f 27 44 28
f 28 45 46
f 28 46 47
f 28 47 48
f 28 48 29
f 28 44 45
f 29 48 49
f 29 49 30
f 30 49 50
f 30 50 51
f 30 51 31
f 31 51 33
f 32 34 35
f 33 52 34
f 33 51 52
f 34 52 53
f 34 53 54
f 34 54 35
f 35 54 55
f 35 55 38
f 35 38 36
f 36 38 37
f 38 55 56
f 38 56 39
f 39 56 57
f 39 57 41
f 39 41 40
f 41 57 58
f 41 58 59
f 41 59 91
f 41 91 130
f 41 130 173
f 41 173 181
f 41 181 141
f 41 141 134
f 41 134 97
f 41 97 64
f 41 64 63
f 41 63 95
f 41 95 93
f 41 93 61
f 41 61 43
f 42 43 61
f 42 61 60
f 44 62 63
f 44 63 64
f 44 64 65
f 44 65 45
f 45 65 46
f 46 66 47
f 46 65 67
f 46 67 68
f 46 68 66
f 47 69 48
f 47 66 69
f 48 69 70
f 48 70 49
f 49 70 71
f 49 71 72
f 49 72 73
f 49 73 50
f 50 73 74
f 50 74 51
f 51 74 52
f 52 74 75
f 52 75 76
f 52 76 77
f 52 77 78
f 52 78 53
f 53 78 79
f 53 79 80
f 53 80 81
f 53 81 54
f 54 81 80
f 54 80 82
f 54 82 55
f 55 82 83
f 55 83 56
f 56 84 85
f 56 85 57
f 56 83 84
f 57 86 87
f 57 87 88
f 57 88 58
f 57 85 89
f 57 89 86
f 58 88 59
f 59 90 91
f 59 88 90
f 60 61 92
f 61 93 92
f 62 94 63
f 63 94 96
f 63 96 95
f 64 97 65
f 65 97 67
f 66 98 99
f 66 99 100
f 66 100 101
f 66 101 102
f 66 102 69
f 66 68 98
f 67 97 103
f 67 103 104
f 67 104 105
f 67 105 106
f 67 106 68
f 68 106 107
f 68 107 98
f 69 108 71
f 69 71 70
f 69 102 108
f 71 108 102
f 71 102 109
f 71 109 72
f 72 110 73
f 72 109 111
f 72 111 110
f 73 110 76
f 73 76 75
f 73 75 74
f 76 110 112
f 76 112 113
f 76 113 114
f 76 114 77
f 77 114 115
f 77 115 116
f 77 116 117
f 77 117 118
f 77 118 119
f 77 119 120
f 77 120 79
f 77 79 78
f 79 120 80
f 80 120 121
f 80 121 82
f 82 122 123
f 82 123 83
f 82 121 122
f 83 123 84
f 84 123 124
f 84 124 125
f 84 125 85
f 85 125 89
f 86 89 87
f 87 89 126
f 87 126 127
f 87 127 88
f 88 127 90
f 89 125 128
f 89 128 129
f 89 129 126
f 90 127 91
f 91 127 131
f 91 131 132
f 91 132 130
f 92 93 133
f 93 95 96
f 93 96 133
f 97 134 103
f 98 135 99
f 98 107 136
f 98 136 135
f 99 135 136
f 99 136 137
f 99 137 138
f 99 138 139
f 99 139 101
f 99 101 100
f 101 139 140
f 101 140 109
f 101 109 102
f 103 134 104
f 104 134 141
f 104 141 142
f 104 142 105
f 105 142 143
f 105 143 144
f 105 144 106
f 106 144 143
f 106 143 145
f 106 145 107
f 107 146 136
f 107 145 146
f 109 140 111
f 110 111 112
f 111 147 113
f 111 113 148
f 111 148 112
f 111 140 149
f 111 149 150
f 111 150 151
f 111 151 152
f 111 152 147
f 112 148 113
f 113 115 114
f 113 147 152
f 113 152 151
f 113 151 117
f 113 117 116
f 113 116 115
f 117 151 118
f 118 151 150
f 118 150 153
f 118 153 154
f 118 154 119
f 119 155 156
f 119 156 157
f 119 157 158
f 119 158 159
f 119 159 120
f 119 154 160
f 119 160 161
f 119 161 155
f 120 159 121
f 121 159 122
f 122 159 158
f 122 158 162
f 122 162 123
f 123 162 124
f 124 162 163
f 124 163 164
f 124 164 125
f 125 164 128
f 126 165 166
f 126 166 167
f 126 167 127
f 126 129 168
f 126 168 165
f 127 169 170
f 127 170 131
f 127 167 169
f 128 171 129
f 128 164 171
f 129 171 172
f 129 172 168
f 130 132 173
f 131 170 132
f 132 170 169
f 132 169 167
f 132 167 174
f 132 174 175
f 132 175 176
f 132 176 177
f 132 177 173
f 136 146 178
f 136 178 179
f 136 179 137
f 137 180 138
f 137 179 180
f 138 180 149
f 138 149 139
f 139 149 140
f 141 181 182
f 141 182 142
f 142 182 183
f 142 183 184
f 142 184 143
f 143 184 185
f 143 185 186
f 143 186 146
f 143 146 145
f 146 186 178
f 149 180 187
f 149 187 150
f 150 187 153
f 153 188 189
f 153 189 154
f 153 187 188
f 154 189 160
f 155 161 189
f 155 189 156
f 156 189 190
f 156 190 191
f 156 191 157
f 157 191 192
f 157 192 193
f 157 193 194
f 157 194 195
f 157 195 196
f 157 196 163
f 157 163 158
f 158 163 162
f 160 189 161
f 163 196 164
f 164 196 171
f 165 168 197
f 165 197 198
f 165 198 166
f 166 198 199
f 166 199 167
f 167 199 174
f 168 172 200
f 168 200 197
f 171 201 172
f 171 196 202
f 171 202 203
f 171 203 204
f 171 204 201
f 172 201 205
f 172 205 206
f 172 206 200
f 173 177 176
f 173 176 181
f 174 199 207
f 174 207 176
f 174 176 175
f 176 182 181
f 176 207 183
f 176 183 182
f 178 208 179
f 178 186 208
f 179 208 209
f 179 209 180
f 180 209 210
f 180 210 187
f 183 207 184
f 184 207 185
f 185 197 200
f 185 200 206
f 185 206 211
f 185 211 186
f 185 207 198
f 185 198 197
f 186 211 208
f 187 210 212
f 187 212 213
f 187 213 189
f 187 189 188
f 189 213 212
f 189 212 190
f 190 209 214
f 190 214 215
f 190 215 195
f 190 195 194
f 190 194 193
f 190 193 192
f 190 192 191
f 190 212 210
f 190 210 209
f 195 215 216
f 195 216 196
f 196 216 202
f 198 207 199
f 201 204 205
f 202 216 215
f 202 215 205
f 202 205 203
f 203 205 204
f 205 215 217
f 205 217 218
f 205 218 211
f 205 211 219
f 205 219 206
f 206 219 211
f 208 211 218
f 208 218 217
f 208 217 215
f 208 215 220
f 208 220 214
f 208 214 209
f 214 220 215

