# https://github.com/mikedh/trimesh
v 0.01551870 -0.03798211 0.01421200
v 0.01597247 -0.05508721 0.00520330
v 0.01562955 -0.03798211 0.00520330
v -0.01621379 -0.03798211 0.01421200
v 0.01536629 -0.04509513 0.01421200
v 0.01496795 -0.47047867 -0.05477823
v 0.01600711 -0.47047867 -0.06477516
v 0.01702202 -0.31500857 -0.05270473
v 0.01350273 -0.03798211 -0.00160837
v -0.01627614 -0.03798211 0.01231497
v -0.01836485 -0.31500857 -0.05270473
v -0.01501529 -0.47047867 -0.05477823
v -0.01575310 -0.04611127 0.01421200
v 0.01429596 -0.05508721 0.01421200
v 0.01137592 -0.47047867 -0.04847832
v 0.01446915 -0.47047867 -0.06789864
v 0.01173962 -0.27851202 -0.05270473
v 0.01242893 -0.03798211 -0.00410539
v 0.01241161 -0.47047867 -0.07204564
v 0.01219339 -0.34049685 -0.06300164
v -0.01619301 -0.03798211 0.00520330
v -0.01280881 -0.03798211 -0.00417598
v -0.01715943 -0.30302652 -0.05270473
v -0.01291272 -0.34049685 -0.06346929
v -0.01242778 -0.47047867 -0.07207211
v -0.01398306 -0.47047867 -0.06892216
v -0.01596785 -0.47047867 -0.06477516
v -0.01570460 -0.47047867 -0.06025757
v -0.01345655 -0.47047867 -0.05193709
v -0.01423246 -0.05610337 0.01421200
v -0.01147176 -0.47047867 -0.04848714
v 0.01218300 -0.06994834 0.01421200
v 0.00491580 -0.47047867 -0.04557541
v 0.01027094 -0.25806212 -0.05015477
v 0.00650918 -0.34049685 -0.06800452
v 0.00491234 -0.03798211 -0.00826122
v 0.00927681 -0.25145719 -0.04936066
v 0.00928028 -0.47047867 -0.07366033
v 0.00972365 -0.39215085 -0.06965450
v 0.00935302 -0.38499553 -0.06943392
v -0.01052612 -0.03798211 -0.00560537
v -0.01002386 -0.25014465 -0.04974889
v -0.01175926 -0.26496343 -0.05160180
v -0.01241046 -0.27258451 -0.05270473
v -0.00961512 -0.34049685 -0.06623101
v -0.00989223 -0.39164278 -0.06966333
v -0.01016588 -0.39833239 -0.06983979
v -0.00822611 -0.47047867 -0.07431326
v -0.01205715 -0.06901687 0.01421200
v -0.00858982 -0.47047867 -0.04714598
v -0.01084133 -0.07303911 0.01421200
v 0.00652650 -0.08510583 0.01421200
v -0.00507745 -0.47047867 -0.04558424
v 0.00515481 -0.08823894 0.01421200
v 0.00786356 -0.26496343 -0.05270473
v 0.00531761 -0.25840081 -0.05270473
v 0.00426460 -0.34049685 -0.06920451
v -0.00507745 -0.03798211 -0.00844651
v 0.00150736 -0.34049685 -0.07040449
v 0.00057558 -0.18913364 -0.03998137
v 0.00491580 -0.47047867 -0.07590147
v -0.00816030 -0.26056012 -0.05270473
v -0.01063696 -0.26665701 -0.05270473
v -0.00689945 -0.34049685 -0.06847216
v -0.00507745 -0.47047867 -0.07592794
v -0.00807024 -0.08036382 0.01421200
v 0.00200269 -0.08777321 0.01421200
v -0.00515366 -0.08658770 0.01421200
v -0.00559357 -0.08569858 0.01421200
v -0.00067488 -0.18913364 -0.03998137
v -0.00582219 -0.25649554 -0.05270473
v -0.00190109 -0.34049685 -0.07040449
v 0.00040238 -0.47047867 -0.07591912
f 1 2 3
f 1 3 9
f 1 9 18
f 1 18 36
f 1 36 58
f 1 58 41
f 1 41 22
f 1 22 21
f 1 21 10
f 1 10 4
f 1 4 13
f 1 13 30
f 1 30 49
f 1 49 51
f 1 51 66
f 1 66 69
f 1 69 68
f 1 68 67
f 1 67 54
f 1 54 52
f 1 52 32
f 1 32 14
f 1 14 5
f 1 5 6
f 1 6 7
f 1 7 2
f 2 7 8
f 2 8 3
f 3 8 9
f 4 10 11
f 4 11 12
f 4 12 13
f 5 14 15
f 5 15 6
f 6 15 33
f 6 33 53
f 6 53 50
f 6 50 31
f 6 31 29
f 6 29 12
f 6 12 28
f 6 28 27
f 6 27 26
f 6 26 25
f 6 25 48
f 6 48 65
f 6 65 73
f 6 73 61
f 6 61 38
f 6 38 19
f 6 19 16
f 6 16 7
f 7 16 8
f 8 17 18
f 8 18 9
f 8 16 19
f 8 19 20
f 8 20 17
f 10 21 11
f 11 21 22
f 11 22 23
f 11 23 24
f 11 24 25
f 11 25 26
f 11 26 27
f 11 27 28
f 11 28 12
f 12 29 13
f 13 29 31
f 13 31 30
f 14 32 15
f 15 32 33
f 17 34 18
f 17 20 35
f 17 35 34
f 18 34 37
f 18 37 36
f 19 38 39
f 19 39 20
f 20 39 40
f 20 40 35
f 22 41 42
f 22 42 43
f 22 43 44
f 22 44 23
f 23 44 24
f 24 45 46
f 24 46 47
f 24 47 25
f 24 44 45
f 25 47 48
f 30 31 49
f 31 50 51
f 31 51 49
f 32 52 33
f 33 52 54
f 33 54 53
f 34 55 56
f 34 56 37
f 34 35 57
f 34 57 55
f 35 40 57
f 36 37 56
f 36 56 59
f 36 59 60
f 36 60 58
f 38 61 39
f 39 61 40
f 40 61 59
f 40 59 57
f 41 58 42
f 42 62 63
f 42 63 43
f 42 58 62
f 43 63 44
f 44 63 64
f 44 64 45
f 45 64 46
f 46 65 48
f 46 48 47
f 46 64 65
f 50 53 51
f 51 53 66
f 53 54 67
f 53 67 68
f 53 68 69
f 53 69 66
f 55 57 56
f 56 57 59
f 58 60 70
f 58 70 71
f 58 71 62
f 59 72 70
f 59 70 60
f 59 61 73
f 59 73 65
f 59 65 72
f 62 71 72
f 62 72 64
f 62 64 63
f 64 72 65
f 70 72 71

