# https://github.com/mikedh/trimesh
v -0.02542576 -0.32385142 -0.07477462
v -0.02542576 -0.32354732 -0.06512676
v -0.02542576 -0.32379387 -0.07503656
v -0.01575662 -0.34053634 -0.05478042
v -0.02542576 -0.32352264 -0.06478088
v -0.02542576 -0.32179661 -0.08253859
v -0.01421330 -0.34053634 -0.05961610
v -0.01514027 -0.34053634 -0.05270846
v -0.02542576 -0.32145964 -0.05826278
v -0.02542576 -0.32152538 -0.05846427
v -0.02507568 -0.32180484 -0.08254866
v -0.00190128 -0.34053634 -0.07040236
v -0.00690104 -0.34053634 -0.06848152
v -0.00961293 -0.34053634 -0.06623830
v -0.01291159 -0.34053634 -0.06348129
v -0.02542576 -0.32156648 -0.08268634
v 0.01396085 -0.34053634 -0.05270846
v -0.01836004 -0.31504868 -0.05270846
v -0.02542576 -0.31501581 -0.05678857
v -0.02542576 -0.31522127 -0.05682551
v -0.01507617 -0.32195279 -0.08274679
v 0.00151078 -0.34053634 -0.07040236
v -0.00507667 -0.32204320 -0.08283074
v -0.02542576 -0.31501581 -0.08667243
v -0.02507568 -0.31501581 -0.08668250
v 0.01451309 -0.34053634 -0.05478042
v 0.02494650 -0.32113087 -0.05863553
v 0.02494650 -0.31501581 -0.05750385
v 0.01697352 -0.31587060 -0.05270846
v -0.01716680 -0.30308979 -0.05270846
v -0.01241358 -0.27263776 -0.05270846
v -0.02542576 -0.30870348 -0.05830979
v -0.01507617 -0.31501581 -0.08689406
v 0.00426705 -0.34053634 -0.06920688
v 0.00491791 -0.32198566 -0.08276358
v 0.01491741 -0.32181306 -0.08255538
v 0.02491198 -0.32159937 -0.08226994
v 0.02494650 -0.32160760 -0.08224643
v -0.00507667 -0.31501581 -0.08701495
v 0.00491791 -0.31501581 -0.08696122
v -0.02542576 -0.31470348 -0.08658511
v 0.01219565 -0.34053634 -0.06300780
v 0.02494650 -0.32353909 -0.07477462
v 0.02494650 -0.32307059 -0.06478088
v 0.02494650 -0.30879389 -0.05866576
v 0.01173709 -0.27858842 -0.05270846
v 0.01701790 -0.31505690 -0.05270846
v -0.01063852 -0.26671172 -0.05270846
v -0.02542576 -0.30546514 -0.06478088
v -0.02542576 -0.30622952 -0.08390870
v 0.00651053 -0.34053634 -0.06800803
v 0.01491741 -0.31501581 -0.08674294
v 0.02494650 -0.31504045 -0.08644407
v 0.02491198 -0.30576102 -0.08396243
v 0.02494650 -0.30484046 -0.06481110
v 0.00786155 -0.26503501 -0.05270846
v 0.01087915 -0.27502953 -0.05270846
v -0.00816330 -0.26061311 -0.05270846
v -0.02542576 -0.30299115 -0.07477462
v -0.02542576 -0.30610621 -0.08358968
v -0.00582614 -0.25656927 -0.05270846
v 0.02491198 -0.31501581 -0.08645751
v 0.02494650 -0.30579389 -0.08396914
v 0.00531729 -0.25845144 -0.05270846
v 0.02494650 -0.30182404 -0.07480485
f 1 2 5
f 1 5 10
f 1 10 9
f 1 9 20
f 1 20 19
f 1 19 32
f 1 32 49
f 1 49 59
f 1 59 60
f 1 60 50
f 1 50 41
f 1 41 24
f 1 24 16
f 1 16 6
f 1 6 3
f 1 3 4
f 1 4 2
f 2 4 5
f 3 6 4
f 4 7 15
f 4 15 14
f 4 14 13
f 4 13 12
f 4 12 22
f 4 22 34
f 4 34 51
f 4 51 42
f 4 42 26
f 4 26 17
f 4 17 8
f 4 8 9
f 4 9 10
f 4 10 5
f 4 6 7
f 6 11 12
f 6 12 13
f 6 13 14
f 6 14 15
f 6 15 7
f 6 16 11
f 8 17 29
f 8 29 47
f 8 47 46
f 8 46 57
f 8 57 56
f 8 56 64
f 8 64 61
f 8 61 58
f 8 58 48
f 8 48 31
f 8 31 30
f 8 30 18
f 8 18 19
f 8 19 20
f 8 20 9
f 11 16 21
f 11 21 12
f 12 21 23
f 12 23 22
f 16 24 25
f 16 25 21
f 17 26 27
f 17 27 28
f 17 28 29
f 18 30 19
f 19 30 31
f 19 31 32
f 21 25 33
f 21 33 23
f 22 23 35
f 22 35 36
f 22 36 37
f 22 37 38
f 22 38 34
f 23 33 39
f 23 39 40
f 23 40 35
f 24 41 25
f 25 41 33
f 26 42 38
f 26 38 43
f 26 43 44
f 26 44 27
f 27 44 43
f 27 43 38
f 27 38 53
f 27 53 63
f 27 63 65
f 27 65 55
f 27 55 45
f 27 45 28
f 28 45 46
f 28 46 47
f 28 47 29
f 31 48 32
f 32 48 49
f 33 41 50
f 33 50 39
f 34 38 51
f 35 40 52
f 35 52 53
f 35 53 36
f 36 53 37
f 37 53 38
f 38 42 51
f 39 50 54
f 39 54 40
f 40 54 52
f 45 55 56
f 45 56 57
f 45 57 46
f 48 58 59
f 48 59 49
f 50 60 58
f 50 58 61
f 50 61 54
f 52 54 62
f 52 62 53
f 53 62 63
f 54 61 64
f 54 64 63
f 54 63 62
f 55 65 64
f 55 64 56
f 58 60 59
f 63 64 65

