# https://github.com/mikedh/trimesh
v -0.32481016 -0.02359832 -0.07308322
v -0.32383698 -0.02359832 -0.06478116
v -0.32470392 -0.02359832 -0.07465224
v -0.32293180 -0.04505352 -0.07477715
v -0.32100665 -0.05505597 -0.06597545
v -0.32344601 -0.02359832 -0.06310552
v -0.32275330 -0.02359832 -0.08176916
v -0.32140614 -0.04505352 -0.08205554
v -0.32086218 -0.05505597 -0.08119639
v -0.32037771 -0.06183967 -0.08037685
v -0.32182261 -0.05505597 -0.07477715
v -0.32046696 -0.06242915 -0.06790396
v -0.31990599 -0.04953544 -0.05991570
v -0.32140188 -0.04574593 -0.06386108
v -0.32158887 -0.02359832 -0.05822482
v -0.32215410 -0.02359832 -0.08302132
v -0.32212010 -0.02505799 -0.08298477
v -0.32180560 -0.03506043 -0.08261612
v -0.31504431 -0.04505352 -0.08678391
v -0.31504431 -0.05505597 -0.08589734
v -0.31398614 -0.07504215 -0.08390790
v -0.32061145 -0.06317769 -0.07477715
v -0.31273672 -0.08504460 -0.08315233
v -0.31139805 -0.09503769 -0.08178440
v -0.31048438 -0.10138161 -0.08053223
v -0.31812960 -0.07504215 -0.07477715
v -0.31968926 -0.06817424 -0.07477715
v -0.31933652 -0.05505597 -0.06097592
v -0.31560951 -0.08504460 -0.07477715
v -0.31056510 -0.10160617 -0.06764804
v -0.31421986 -0.08504460 -0.06478116
v -0.31660397 -0.07504215 -0.06478116
v -0.31863106 -0.06547947 -0.06465625
v -0.31051412 -0.09194058 -0.05936121
v -0.31134706 -0.08504460 -0.05878235
v -0.31246048 -0.07504215 -0.05828270
v -0.31976998 -0.02359832 -0.05771299
v -0.31611100 -0.02359832 -0.08699108
v -0.31504431 -0.03506043 -0.08729879
v -0.30504475 -0.08504460 -0.08707030
v -0.30504475 -0.09503769 -0.08613497
v -0.30311537 -0.11504258 -0.08327419
v -0.30227816 -0.11918765 -0.08246379
v -0.30383356 -0.11918765 -0.07828687
v -0.30628141 -0.11504258 -0.07477715
v -0.30910745 -0.10722027 -0.07477715
v -0.31076485 -0.10221437 -0.07477715
v -0.31288545 -0.09503769 -0.07477715
v -0.30333210 -0.11918765 -0.06514981
v -0.30481100 -0.11504258 -0.06478116
v -0.30933270 -0.09861199 -0.06098202
v -0.31151704 -0.09518739 -0.06450088
v -0.30098201 -0.11918765 -0.05906265
v -0.30164496 -0.11504258 -0.05865135
v -0.30317911 -0.10504013 -0.05824919
v -0.31504431 -0.02359832 -0.05654613
v -0.31504431 -0.02359832 -0.08766743
v -0.31504431 -0.02505799 -0.08763087
v -0.29505364 -0.11504258 -0.08693015
v -0.29541487 -0.11918765 -0.08593390
v -0.30041255 -0.11918765 -0.08366721
v -0.30458152 -0.11918765 -0.07466747
v -0.29515991 -0.11918765 -0.05808163
v -0.29505364 -0.11504258 -0.05786227
v -0.30781130 -0.02359832 -0.05771299
v -0.28816488 -0.11918765 -0.05874884
v -0.30675736 -0.02359832 -0.08492547
v -0.29505364 -0.10504013 -0.08639699
v -0.29028971 -0.11918765 -0.08570845
v -0.30361683 -0.02359832 -0.06487866
v -0.28392791 -0.11918765 -0.06451611
v -0.30534646 -0.02359832 -0.08442277
v -0.28550456 -0.11918765 -0.08375251
v -0.30090126 -0.02359832 -0.07477715
v -0.28139507 -0.11918765 -0.07477715
v -0.29997906 -0.03902773 -0.07990463
v -0.28252973 -0.11918765 -0.07761356
f 1 2 6
f 1 6 15
f 1 15 37
f 1 37 56
f 1 56 65
f 1 65 70
f 1 70 74
f 1 74 72
f 1 72 67
f 1 67 57
f 1 57 38
f 1 38 16
f 1 16 7
f 1 7 3
f 1 3 4
f 1 4 5
f 1 5 2
f 2 5 6
f 3 7 8
f 3 8 9
f 3 9 4
f 4 9 10
f 4 10 11
f 4 11 12
f 4 12 5
f 5 12 13
f 5 13 14
f 5 14 6
f 6 14 13
f 6 13 15
f 7 16 17
f 7 17 18
f 7 18 8
f 8 19 20
f 8 20 9
f 8 18 19
f 9 20 21
f 9 21 10
f 10 22 11
f 10 21 23
f 10 23 24
f 10 24 25
f 10 25 26
f 10 26 27
f 10 27 22
f 11 22 12
f 12 28 13
f 12 22 27
f 12 27 26
f 12 26 29
f 12 29 30
f 12 30 31
f 12 31 32
f 12 32 33
f 12 33 28
f 13 28 34
f 13 34 35
f 13 35 36
f 13 36 15
f 15 36 37
f 16 38 39
f 16 39 17
f 17 39 19
f 17 19 18
f 19 39 40
f 19 40 20
f 20 40 41
f 20 41 21
f 21 41 23
f 23 41 42
f 23 42 24
f 24 42 25
f 25 42 43
f 25 43 44
f 25 44 45
f 25 45 46
f 25 46 47
f 25 47 48
f 25 48 29
f 25 29 26
f 28 33 32
f 28 32 34
f 29 48 30
f 30 48 47
f 30 47 46
f 30 46 45
f 30 45 49
f 30 49 50
f 30 50 51
f 30 51 52
f 30 52 31
f 31 52 34
f 31 34 32
f 34 52 51
f 34 51 53
f 34 53 54
f 34 54 35
f 35 54 55
f 35 55 36
f 36 55 56
f 36 56 37
f 38 57 58
f 38 58 39
f 39 58 40
f 40 59 41
f 40 58 57
f 40 57 59
f 41 59 42
f 42 59 60
f 42 60 61
f 42 61 43
f 43 61 60
f 43 60 69
f 43 69 73
f 43 73 77
f 43 77 75
f 43 75 71
f 43 71 66
f 43 66 63
f 43 63 53
f 43 53 49
f 43 49 62
f 43 62 44
f 44 62 45
f 45 62 49
f 49 53 50
f 50 53 51
f 53 63 54
f 54 63 55
f 55 63 64
f 55 64 56
f 56 64 66
f 56 66 65
f 57 67 68
f 57 68 59
f 59 68 69
f 59 69 60
f 63 66 64
f 65 66 71
f 65 71 70
f 67 72 69
f 67 69 68
f 69 72 73
f 70 71 74
f 71 75 74
f 72 74 76
f 72 76 73
f 73 76 77
f 74 75 77
f 74 77 76

