# https://github.com/mikedh/trimesh
v -0.16281577 0.28323204 -0.07477747
v -0.16281577 0.28179304 -0.06511262
v -0.16281577 0.28159773 -0.08198789
v -0.16292522 0.28155661 -0.08197347
v -0.16435902 0.28237892 -0.07477747
v -0.16307845 0.28159773 -0.06478094
v -0.16281577 0.28174163 -0.06479824
v -0.16281577 0.27551271 -0.08529891
v -0.16578189 0.27573886 -0.08458653
v -0.17506334 0.27297388 -0.08307811
v -0.18164134 0.27094897 -0.08123801
v -0.16936093 0.27949060 -0.07477747
v -0.16281577 0.28145383 -0.06402529
v -0.18125826 0.27070226 -0.06478094
v -0.18011997 0.26994163 -0.05975095
v -0.16281577 0.26432943 -0.08441059
v -0.17506334 0.26491535 -0.08700922
v -0.18501243 0.26518258 -0.08383953
v -0.18240749 0.27145260 -0.07477747
v -0.17506334 0.27603694 -0.07477747
v -0.19290384 0.26203728 -0.08208595
v -0.21030655 0.25012422 -0.08004973
v -0.19433764 0.26309599 -0.07477747
v -0.18739846 0.26809146 -0.07477747
v -0.16281577 0.28006620 -0.06056140
v -0.18626017 0.26721778 -0.06478094
v -0.17506334 0.27128814 -0.05898953
v -0.16281577 0.27801045 -0.05887993
v -0.19323220 0.26221202 -0.06478094
v -0.19822316 0.25844999 -0.06478094
v -0.20896030 0.24897300 -0.06228614
v -0.19142625 0.26086552 -0.05905587
v -0.16414013 0.26395942 -0.08461248
v -0.16281577 0.25870698 -0.07477747
v -0.16685451 0.25782299 -0.08201673
v -0.24933678 0.17823470 -0.08114859
v -0.25489689 0.17823470 -0.08433560
v -0.25505012 0.18492615 -0.08632856
v -0.21506767 0.23491168 -0.08602572
v -0.20506384 0.24491290 -0.08580076
v -0.19577146 0.25567474 -0.08437021
v -0.22504959 0.22492074 -0.08600842
v -0.20506384 0.25227247 -0.08190713
v -0.21420300 0.24423450 -0.08190137
v -0.22063872 0.24045193 -0.08042467
v -0.22096707 0.24076029 -0.07477747
v -0.21543980 0.24575575 -0.07477747
v -0.21043789 0.25023728 -0.07477747
v -0.20506384 0.25465715 -0.07477747
v -0.19933956 0.25933396 -0.07477747
v -0.21032844 0.25013450 -0.06895433
v -0.18409304 0.26448361 -0.05868093
v -0.16281577 0.27640695 -0.05844153
v -0.20540314 0.25287892 -0.06528567
v -0.20229474 0.25167631 -0.05863766
v -0.21943476 0.23934182 -0.06114400
v -0.19488490 0.25496552 -0.05803487
v -0.16281577 0.25964232 -0.07162796
v -0.24926015 0.17823470 -0.06806024
v -0.24818754 0.17823470 -0.07477747
v -0.24881140 0.17823470 -0.07887875
v -0.24897558 0.17845055 -0.08100151
v -0.26515243 0.17823470 -0.08552677
v -0.23505342 0.21492980 -0.08584979
v -0.22440383 0.23431552 -0.08218113
v -0.23442954 0.22422179 -0.08211191
v -0.23068632 0.23058433 -0.08050831
v -0.22596899 0.23593956 -0.07477747
v -0.22069344 0.24050332 -0.06780932
v -0.16475304 0.27499879 -0.05840693
v -0.17506334 0.26491535 -0.05811274
v -0.16281577 0.27487543 -0.05839827
v -0.21278014 0.24231238 -0.05840981
v -0.20540314 0.24535488 -0.05772915
v -0.22974505 0.22962840 -0.06053256
v -0.16281577 0.26174948 -0.06478094
v -0.24952284 0.17823470 -0.06727863
v -0.27228865 0.17823470 -0.08208595
v -0.26536040 0.18498782 -0.08358860
v -0.24504629 0.20492859 -0.08546620
v -0.24432391 0.21399444 -0.08173120
v -0.24051503 0.22042893 -0.08034391
v -0.23104751 0.23094408 -0.07477747
v -0.23074104 0.23063572 -0.06720076
v -0.16281577 0.26776254 -0.05857421
v -0.21569153 0.23556952 -0.05757628
v -0.19506003 0.24483066 -0.05792527
v -0.22307948 0.23268119 -0.05831175
v -0.24058069 0.22050088 -0.06793045
v -0.23946429 0.21928799 -0.06126225
v -0.25191980 0.20219444 -0.05859728
v -0.24246325 0.21262737 -0.05840405
v -0.23279872 0.22295750 -0.05830309
v -0.16281577 0.26179060 -0.06472903
v -0.25413072 0.17823470 -0.05999610
v -0.25205116 0.17823470 -0.06257744
v -0.25086908 0.17823470 -0.06463096
v -0.27463089 0.17823470 -0.07477747
v -0.27123793 0.18168835 -0.08125242
v -0.26223011 0.19272771 -0.08191290
v -0.25578344 0.19560576 -0.08409910
v -0.25229196 0.20492859 -0.08169082
v -0.25014672 0.21003712 -0.07989975
v -0.24079959 0.22072701 -0.07477747
v -0.23603847 0.22573277 -0.07477747
v -0.16281577 0.26655993 -0.05879918
v -0.26143110 0.17823470 -0.05786470
v -0.25687794 0.17823470 -0.05851364
v -0.22587049 0.22574303 -0.05755321
v -0.23569918 0.21554653 -0.05754745
v -0.25019049 0.21008851 -0.06919372
v -0.24484927 0.21469339 -0.06522799
v -0.24912881 0.20885506 -0.06252840
v -0.26124504 0.19152511 -0.05890012
v -0.25517050 0.19488625 -0.05790796
v -0.24549504 0.20528834 -0.05768877
v -0.27397418 0.17823470 -0.06984266
v -0.27120509 0.18163696 -0.06478094
v -0.27188368 0.18264426 -0.07477747
v -0.26839219 0.18763974 -0.07477747
v -0.26339028 0.19421813 -0.07477747
v -0.25946099 0.19922389 -0.07477747
v -0.25464514 0.20492859 -0.07477747
v -0.25022333 0.21012963 -0.07477747
v -0.24579056 0.21513537 -0.07477747
v -0.26494449 0.17823470 -0.05804064
v -0.26265695 0.19331361 -0.06478094
v -0.25869482 0.19831935 -0.06478094
v -0.25304716 0.20528834 -0.06542987
v -0.27032947 0.18035211 -0.05953752
v -0.26476936 0.18418609 -0.05841558
v -0.27318614 0.17823470 -0.06478094
v -0.26764793 0.18663242 -0.06478094
v -0.26923495 0.17823470 -0.05865785
v -0.27219013 0.17823470 -0.06157951
v -0.27087673 0.17823470 -0.05924622
f 1 2 7
f 1 7 13
f 1 13 25
f 1 25 28
f 1 28 53
f 1 53 72
f 1 72 85
f 1 85 106
f 1 106 94
f 1 94 76
f 1 76 58
f 1 58 34
f 1 34 16
f 1 16 8
f 1 8 3
f 1 3 4
f 1 4 5
f 1 5 2
f 2 5 6
f 2 6 7
f 3 8 9
f 3 9 10
f 3 10 4
f 4 10 11
f 4 11 5
f 5 11 12
f 5 12 6
f 6 13 7
f 6 12 14
f 6 14 15
f 6 15 13
f 8 16 17
f 8 17 9
f 9 17 18
f 9 18 10
f 10 18 11
f 11 19 20
f 11 20 12
f 11 18 21
f 11 21 22
f 11 22 23
f 11 23 24
f 11 24 19
f 12 20 14
f 13 15 25
f 14 20 19
f 14 19 24
f 14 24 26
f 14 26 15
f 15 27 28
f 15 28 25
f 15 26 29
f 15 29 30
f 15 30 31
f 15 31 32
f 15 32 27
f 16 33 17
f 16 34 35
f 16 35 36
f 16 36 37
f 16 37 38
f 16 38 33
f 17 39 40
f 17 40 41
f 17 41 18
f 17 33 38
f 17 38 42
f 17 42 39
f 18 41 21
f 21 41 43
f 21 43 22
f 22 43 44
f 22 44 45
f 22 45 46
f 22 46 47
f 22 47 48
f 22 48 49
f 22 49 50
f 22 50 23
f 23 50 51
f 23 51 29
f 23 29 24
f 24 29 26
f 27 32 52
f 27 52 53
f 27 53 28
f 29 51 30
f 30 51 54
f 30 54 31
f 31 55 32
f 31 54 51
f 31 51 56
f 31 56 55
f 32 55 57
f 32 57 52
f 34 58 59
f 34 59 60
f 34 60 61
f 34 61 62
f 34 62 35
f 35 62 36
f 36 62 61
f 36 61 60
f 36 60 59
f 36 59 77
f 36 77 97
f 36 97 96
f 36 96 95
f 36 95 108
f 36 108 107
f 36 107 126
f 36 126 134
f 36 134 136
f 36 136 135
f 36 135 132
f 36 132 117
f 36 117 98
f 36 98 78
f 36 78 63
f 36 63 37
f 37 63 38
f 38 63 64
f 38 64 42
f 39 42 65
f 39 65 40
f 40 65 44
f 40 44 43
f 40 43 41
f 42 64 66
f 42 66 65
f 44 65 45
f 45 65 67
f 45 67 68
f 45 68 46
f 46 68 69
f 46 69 51
f 46 51 47
f 47 51 48
f 48 51 49
f 49 51 50
f 51 69 56
f 52 57 53
f 53 57 70
f 53 70 71
f 53 71 72
f 55 56 73
f 55 73 74
f 55 74 57
f 56 69 75
f 56 75 73
f 57 74 70
f 58 76 59
f 59 76 77
f 63 78 79
f 63 79 80
f 63 80 64
f 64 80 66
f 65 66 67
f 66 80 81
f 66 81 82
f 66 82 67
f 67 83 68
f 67 82 83
f 68 83 84
f 68 84 69
f 69 84 75
f 70 74 71
f 71 85 72
f 71 74 86
f 71 86 87
f 71 87 85
f 73 86 74
f 73 75 88
f 73 88 86
f 75 84 89
f 75 89 90
f 75 90 91
f 75 91 92
f 75 92 93
f 75 93 88
f 76 94 95
f 76 95 96
f 76 96 97
f 76 97 77
f 78 98 99
f 78 99 79
f 79 100 101
f 79 101 80
f 79 99 100
f 80 101 102
f 80 102 81
f 81 102 82
f 82 102 103
f 82 103 104
f 82 104 105
f 82 105 83
f 83 105 89
f 83 89 84
f 85 87 107
f 85 107 108
f 85 108 106
f 86 88 109
f 86 109 110
f 86 110 87
f 87 110 107
f 88 93 109
f 89 105 104
f 89 104 111
f 89 111 112
f 89 112 90
f 90 112 113
f 90 113 114
f 90 114 91
f 91 114 115
f 91 115 92
f 92 110 93
f 92 115 116
f 92 116 110
f 93 110 109
f 94 106 95
f 95 106 108
f 98 117 118
f 98 118 119
f 98 119 99
f 99 119 120
f 99 120 103
f 99 103 100
f 100 103 102
f 100 102 101
f 103 120 121
f 103 121 122
f 103 122 123
f 103 123 124
f 103 124 125
f 103 125 104
f 104 125 111
f 107 110 116
f 107 116 115
f 107 115 126
f 111 124 123
f 111 123 122
f 111 122 121
f 111 121 127
f 111 127 128
f 111 128 129
f 111 129 113
f 111 113 112
f 111 125 124
f 113 129 128
f 113 128 114
f 114 128 127
f 114 127 130
f 114 130 131
f 114 131 115
f 115 131 126
f 117 132 118
f 118 130 133
f 118 133 120
f 118 120 119
f 118 132 130
f 120 133 127
f 120 127 121
f 126 131 134
f 127 133 130
f 130 132 135
f 130 135 136
f 130 136 131
f 131 136 134

