# https://github.com/mikedh/trimesh
v 0.34229848 -0.33906700 -0.07477515
v 0.34719175 -0.33721492 -0.08180022
v 0.34644081 -0.33906700 -0.08229250
v 0.34349757 -0.33906700 -0.06478092
v 0.44109625 -0.19786726 -0.06738784
v 0.44062391 -0.19786726 -0.07196388
v 0.44062391 -0.19786726 -0.07353361
v 0.44087824 -0.19786726 -0.07684645
v 0.43995775 -0.20020306 -0.07876294
v 0.44544449 -0.19786726 -0.08311606
v 0.35419250 -0.33434007 -0.08377553
v 0.35450742 -0.33906700 -0.08480035
v 0.34596843 -0.33906700 -0.06027298
v 0.44204101 -0.19786726 -0.06439080
v 0.44170186 -0.19786726 -0.06539704
v 0.45486762 -0.19786726 -0.08576015
v 0.36488740 -0.33501732 -0.08601093
v 0.36481475 -0.33906700 -0.08467960
v 0.44486311 -0.21504729 -0.08613167
v 0.34751877 -0.33906700 -0.05809022
v 0.34799114 -0.33807186 -0.05833172
v 0.44462087 -0.19786726 -0.05981475
v 0.46280100 -0.19786726 -0.08250303
v 0.45486762 -0.20504057 -0.08510377
v 0.44486311 -0.22504019 -0.08534527
v 0.39488889 -0.29501811 -0.08620289
v 0.40486920 -0.28502519 -0.08616883
v 0.37487984 -0.32501061 -0.08583755
v 0.37456492 -0.33456121 -0.08251852
v 0.37217884 -0.33906700 -0.08145346
v 0.43487070 -0.23503308 -0.08624314
v 0.35051042 -0.33906700 -0.05664125
v 0.44653457 -0.19786726 -0.05770321
v 0.46602282 -0.19786726 -0.07477515
v 0.46138390 -0.20504057 -0.08148752
v 0.45507353 -0.21443915 -0.08273834
v 0.44498421 -0.23442494 -0.08272286
v 0.43322346 -0.25503270 -0.08267023
v 0.42537486 -0.26524673 -0.08348760
v 0.41487374 -0.27501848 -0.08557128
v 0.42486616 -0.25503270 -0.08614715
v 0.38488435 -0.31501772 -0.08533908
v 0.39563983 -0.30571587 -0.08387152
v 0.38436355 -0.32416750 -0.08193026
v 0.38068147 -0.33092619 -0.08067014
v 0.37450434 -0.33906700 -0.07477515
v 0.35476176 -0.33906700 -0.05574956
v 0.45192441 -0.19786726 -0.05620779
v 0.46505384 -0.19786726 -0.06469422
v 0.46033017 -0.21103908 -0.06758599
v 0.46315227 -0.20504057 -0.07477515
v 0.46018481 -0.21070737 -0.08022740
v 0.45162162 -0.22504019 -0.08162684
v 0.44173822 -0.24324301 -0.08167947
v 0.43109174 -0.26206781 -0.08116552
v 0.42208038 -0.27501848 -0.08186833
v 0.41460728 -0.28443088 -0.08240087
v 0.40518412 -0.29499046 -0.08315012
v 0.40205920 -0.30285485 -0.08176926
v 0.39224847 -0.31501772 -0.08171353
v 0.39010463 -0.32028368 -0.08005092
v 0.38123863 -0.33156196 -0.07477515
v 0.37427423 -0.33906700 -0.07004120
v 0.36084198 -0.33906700 -0.05461639
v 0.44486311 -0.21504729 -0.05569693
v 0.45507353 -0.19786726 -0.05613038
v 0.46425445 -0.19786726 -0.06253933
v 0.45949442 -0.20936669 -0.06092007
v 0.46192895 -0.20563489 -0.06446511
v 0.45801677 -0.21629123 -0.07477515
v 0.46045127 -0.21128785 -0.07477515
v 0.44955046 -0.22953215 -0.06079312
v 0.45229988 -0.22574508 -0.06438771
v 0.45034985 -0.23095576 -0.06745904
v 0.45019239 -0.23067933 -0.08023050
v 0.43977606 -0.24990495 -0.07867934
v 0.42031204 -0.28069910 -0.08034195
v 0.39043168 -0.32067068 -0.07477515
v 0.38622880 -0.32567402 -0.07477515
v 0.40337942 -0.30452724 -0.07477515
v 0.39949146 -0.30953061 -0.07477515
v 0.39504635 -0.31501772 -0.07477515
v 0.39039532 -0.32062920 -0.06706893
v 0.37395931 -0.33906700 -0.06478092
v 0.36474207 -0.33906700 -0.05580839
v 0.36488740 -0.33501732 -0.05468141
v 0.40486920 -0.28502519 -0.05516440
v 0.42486616 -0.25503270 -0.05550187
v 0.44567460 -0.22574508 -0.05694776
v 0.46059663 -0.19786726 -0.05752673
v 0.45312350 -0.21504729 -0.05745861
v 0.45564281 -0.20563489 -0.05705612
v 0.46186837 -0.19786726 -0.05807164
v 0.46095997 -0.20270475 -0.05871254
v 0.45123403 -0.22287023 -0.05852987
v 0.45363220 -0.22504019 -0.07477515
v 0.44108415 -0.24228933 -0.05863204
v 0.43057091 -0.26121088 -0.05904692
v 0.43919468 -0.24895127 -0.06237833
v 0.44191987 -0.24538533 -0.06533821
v 0.44763676 -0.23459080 -0.06438771
v 0.44001830 -0.25027812 -0.06904426
v 0.44780631 -0.23620790 -0.07477515
v 0.45047096 -0.23120454 -0.07477515
v 0.44230747 -0.24596584 -0.07511882
v 0.44001830 -0.25027812 -0.07201342
v 0.43742633 -0.25418959 -0.07511882
v 0.43187901 -0.26335320 -0.07477515
v 0.42881467 -0.26834275 -0.07477515
v 0.42069960 -0.28130724 -0.07477515
v 0.41709024 -0.28631058 -0.07477515
v 0.41189418 -0.29259934 -0.06478092
v 0.40300395 -0.30405731 -0.06478092
v 0.39912809 -0.30904685 -0.06478092
v 0.39359289 -0.31591610 -0.06415240
v 0.38974129 -0.31984140 -0.06040301
v 0.38659214 -0.32438864 -0.06415240
v 0.38087529 -0.33114733 -0.06478092
v 0.37651495 -0.33615067 -0.06478092
v 0.37295401 -0.33906700 -0.06123896
v 0.38020913 -0.33038715 -0.05944322
v 0.36976857 -0.33906700 -0.05757936
v 0.37487984 -0.32501061 -0.05506842
v 0.39534914 -0.30534270 -0.05676509
v 0.40488130 -0.29476932 -0.05729762
v 0.41305692 -0.28502519 -0.05770011
v 0.41583057 -0.27597217 -0.05668459
v 0.42503571 -0.26473535 -0.05723260
v 0.43546418 -0.24538533 -0.05692299
v 0.44304631 -0.23503308 -0.05753292
v 0.43239984 -0.25503270 -0.05785182
v 0.42181392 -0.27327698 -0.05820787
v 0.41981543 -0.27995275 -0.05995098
v 0.43150354 -0.26270358 -0.06478092
v 0.43677227 -0.25418959 -0.06533821
v 0.42053005 -0.28105845 -0.06661690
v 0.41745358 -0.28463819 -0.06388304
v 0.41084042 -0.29125868 -0.05888282
v 0.39233325 -0.31316564 -0.05799424
v 0.37170647 -0.33906700 -0.05865371
v 0.38252253 -0.32501061 -0.05800043
v 0.37437114 -0.33422952 -0.05779300
v 0.38579275 -0.31591610 -0.05634092
v 0.40156263 -0.30221906 -0.05842460
f 1 2 3
f 1 3 12
f 1 12 18
f 1 18 30
f 1 30 46
f 1 46 63
f 1 63 84
f 1 84 120
f 1 120 140
f 1 140 122
f 1 122 85
f 1 85 64
f 1 64 47
f 1 47 32
f 1 32 20
f 1 20 13
f 1 13 4
f 1 4 5
f 1 5 6
f 1 6 7
f 1 7 8
f 1 8 9
f 1 9 2
f 2 9 10
f 2 10 3
f 3 11 12
f 3 10 11
f 4 13 14
f 4 14 15
f 4 15 5
f 5 15 14
f 5 14 22
f 5 22 33
f 5 33 48
f 5 48 66
f 5 66 90
f 5 90 93
f 5 93 67
f 5 67 49
f 5 49 34
f 5 34 23
f 5 23 16
f 5 16 10
f 5 10 8
f 5 8 7
f 5 7 6
f 8 10 9
f 10 16 12
f 10 12 11
f 12 17 18
f 12 16 19
f 12 19 17
f 13 20 21
f 13 21 22
f 13 22 14
f 16 23 24
f 16 24 25
f 16 25 19
f 17 26 27
f 17 27 28
f 17 28 18
f 17 19 26
f 18 28 29
f 18 29 30
f 19 25 31
f 19 31 26
f 20 32 33
f 20 33 21
f 21 33 22
f 23 34 35
f 23 35 36
f 23 36 24
f 24 36 25
f 25 36 37
f 25 37 38
f 25 38 39
f 25 39 40
f 25 40 41
f 25 41 31
f 26 31 27
f 27 40 42
f 27 42 28
f 27 31 41
f 27 41 40
f 28 42 29
f 29 42 43
f 29 43 44
f 29 44 45
f 29 45 30
f 30 45 46
f 32 47 48
f 32 48 33
f 34 49 50
f 34 50 51
f 34 51 52
f 34 52 35
f 35 52 53
f 35 53 36
f 36 53 37
f 37 54 38
f 37 53 54
f 38 54 55
f 38 55 56
f 38 56 39
f 39 56 40
f 40 56 57
f 40 57 58
f 40 58 43
f 40 43 42
f 43 59 60
f 43 60 44
f 43 58 59
f 44 60 45
f 45 60 59
f 45 59 61
f 45 61 62
f 45 62 46
f 46 62 63
f 47 64 48
f 48 65 66
f 48 64 65
f 49 67 68
f 49 68 69
f 49 69 50
f 50 70 71
f 50 71 51
f 50 69 68
f 50 68 72
f 50 72 73
f 50 73 74
f 50 74 70
f 51 71 52
f 52 71 70
f 52 70 75
f 52 75 53
f 53 75 54
f 54 75 55
f 55 75 76
f 55 76 77
f 55 77 56
f 56 77 57
f 57 77 59
f 57 59 58
f 59 77 61
f 61 78 79
f 61 79 62
f 61 77 80
f 61 80 81
f 61 81 82
f 61 82 78
f 62 79 83
f 62 83 84
f 62 84 63
f 64 85 86
f 64 86 87
f 64 87 65
f 65 88 89
f 65 89 66
f 65 87 88
f 66 89 91
f 66 91 92
f 66 92 90
f 67 93 94
f 67 94 68
f 68 94 95
f 68 95 72
f 70 96 75
f 70 74 96
f 72 97 98
f 72 98 99
f 72 99 100
f 72 100 101
f 72 101 74
f 72 74 73
f 72 95 97
f 74 101 100
f 74 100 102
f 74 102 103
f 74 103 104
f 74 104 96
f 75 104 103
f 75 103 76
f 75 96 104
f 76 103 105
f 76 105 106
f 76 106 107
f 76 107 108
f 76 108 109
f 76 109 77
f 77 110 111
f 77 111 80
f 77 109 110
f 78 83 79
f 78 82 83
f 80 111 112
f 80 112 83
f 80 83 81
f 81 83 82
f 83 112 113
f 83 113 114
f 83 114 115
f 83 115 116
f 83 116 117
f 83 117 118
f 83 118 119
f 83 119 84
f 84 119 116
f 84 116 121
f 84 121 120
f 85 122 123
f 85 123 86
f 86 123 87
f 87 123 124
f 87 124 125
f 87 125 126
f 87 126 127
f 87 127 128
f 87 128 88
f 88 128 129
f 88 129 89
f 89 129 91
f 90 92 91
f 90 91 93
f 91 129 130
f 91 130 95
f 91 95 94
f 91 94 93
f 95 130 97
f 97 130 131
f 97 131 98
f 98 131 132
f 98 132 133
f 98 133 99
f 99 102 100
f 99 133 134
f 99 134 135
f 99 135 102
f 102 109 106
f 102 106 103
f 102 135 134
f 102 134 136
f 102 136 110
f 102 110 109
f 103 106 105
f 106 109 108
f 106 108 107
f 110 136 111
f 111 136 112
f 112 136 137
f 112 137 133
f 112 133 116
f 112 116 113
f 113 116 114
f 114 116 115
f 116 119 118
f 116 118 117
f 116 133 138
f 116 138 139
f 116 139 121
f 120 121 140
f 121 139 141
f 121 141 140
f 122 140 142
f 122 142 123
f 123 142 143
f 123 143 124
f 124 139 125
f 124 143 139
f 125 138 126
f 125 139 144
f 125 144 138
f 126 138 132
f 126 132 128
f 126 128 127
f 128 132 131
f 128 131 129
f 129 131 130
f 132 138 133
f 133 137 136
f 133 136 134
f 138 144 139
f 139 143 142
f 139 142 141
f 140 141 142

