# https://github.com/mikedh/trimesh
v 0.08489903 -0.48500604 -0.08650514
v 0.10124253 -0.47486976 -0.08331567
v 0.09490600 -0.48500604 -0.08638478
v 0.03492612 -0.49500405 -0.08548210
v -0.00507700 -0.49500405 -0.08594749
v -0.01507158 -0.49500405 -0.08599563
v -0.02506616 -0.49500405 -0.08599964
v -0.02541337 -0.49500405 -0.08599964
v -0.02541337 -0.49469036 -0.08591138
v -0.02541337 -0.48644975 -0.08325549
v 0.10124253 -0.47053525 -0.07477431
v 0.10124253 -0.48500604 -0.08593143
v -0.00507700 -0.47049142 -0.07592573
v 0.00040390 -0.47049142 -0.07592172
v 0.00492998 -0.47049142 -0.07590166
v 0.05490289 -0.49500405 -0.08489636
v 0.04490831 -0.49500405 -0.08532564
v 0.00492998 -0.50205394 -0.08238892
v -0.00507700 -0.50213827 -0.08250125
v -0.01507158 -0.50219221 -0.08256143
v -0.02541337 -0.50186841 -0.08264568
v -0.02541337 -0.48629795 -0.08295460
v -0.01241793 -0.47049142 -0.07207830
v -0.00822666 -0.47049142 -0.07431294
v 0.10124253 -0.47186427 -0.06460812
v 0.00929486 -0.47049142 -0.07366703
v 0.01241972 -0.47049142 -0.07205023
v 0.01447815 -0.47049142 -0.06790592
v 0.01601578 -0.47049142 -0.06478064
v 0.01497416 -0.47049142 -0.05478295
v 0.01137810 -0.47049142 -0.04848426
v 0.00492998 -0.47049142 -0.04558364
v 0.10124253 -0.49190076 -0.08209204
v 0.09490600 -0.49255852 -0.08266975
v 0.08489903 -0.49348951 -0.08321938
v 0.05490289 -0.50080250 -0.08096469
v 0.04490831 -0.50119376 -0.08149025
v 0.03492612 -0.50146702 -0.08181521
v 0.02491914 -0.50167949 -0.08203587
v 0.01492456 -0.50190215 -0.08223647
v 0.00492998 -0.50459724 -0.07477431
v -0.02506616 -0.50211461 -0.08252532
v -0.00507700 -0.50463437 -0.07477431
v -0.02541337 -0.50210788 -0.08251730
v -0.02541337 -0.48257064 -0.07477431
v -0.01398036 -0.47049142 -0.06892895
v 0.10124253 -0.47327425 -0.06222104
v -0.00507700 -0.47049142 -0.04559167
v 0.00492998 -0.48500604 -0.04552347
v 0.10124253 -0.47947745 -0.05706974
v 0.10124253 -0.47670813 -0.05745890
v 0.10124253 -0.49387067 -0.07477431
v 0.09490600 -0.49519968 -0.07477431
v 0.06245462 -0.50037410 -0.08034285
v 0.04490831 -0.50236761 -0.07477431
v 0.01492456 -0.50405418 -0.07477431
v 0.00492998 -0.50494810 -0.06478064
v -0.02541337 -0.50416212 -0.07503910
v -0.01507158 -0.50448931 -0.07477431
v -0.00507700 -0.50489077 -0.06478064
v -0.02541337 -0.48346789 -0.06478064
v -0.01570399 -0.47049142 -0.06026724
v -0.01596440 -0.47049142 -0.06478064
v -0.00858626 -0.47049142 -0.04715230
v -0.01157472 -0.48500604 -0.04849228
v -0.00507700 -0.48500604 -0.04576017
v 0.00492998 -0.49500405 -0.04702793
v 0.10124253 -0.48551203 -0.05719412
v 0.10124253 -0.49293968 -0.06827501
v 0.09490600 -0.49371887 -0.06478064
v 0.06264062 -0.50037071 -0.06837130
v 0.08489903 -0.49708529 -0.07477431
v 0.06386825 -0.50055963 -0.07477431
v 0.05490289 -0.50159515 -0.07477431
v 0.07490445 -0.49882583 -0.07477431
v 0.06886554 -0.49983438 -0.07477431
v 0.00492998 -0.50303213 -0.05478295
v 0.05490289 -0.50079576 -0.06689491
v -0.02506616 -0.50424311 -0.07477431
v -0.02541337 -0.50422624 -0.07477431
v -0.00590781 -0.50226307 -0.05384016
v -0.01507158 -0.50389565 -0.06478064
v -0.02541337 -0.48734700 -0.05776380
v -0.01500958 -0.47049142 -0.05478295
v -0.01146312 -0.47049142 -0.04849228
v -0.02541337 -0.49500405 -0.05698149
v -0.01111591 -0.49314881 -0.04892155
v -0.00590781 -0.49588781 -0.04785439
v -0.00313016 -0.50057984 -0.04921041
v 0.00492998 -0.50062710 -0.04917029
v 0.01024968 -0.50025604 -0.04953939
v 0.10124253 -0.48785299 -0.05799248
v 0.10124253 -0.49236626 -0.06441556
v 0.10124253 -0.49081798 -0.06000647
v 0.08489903 -0.49556061 -0.06478064
v 0.07490445 -0.49721009 -0.06478064
v 0.06554227 -0.49873136 -0.06493710
v 0.05490289 -0.49910242 -0.06190009
v -0.02541337 -0.50288033 -0.06512968
v -0.00980148 -0.49981415 -0.04988040
v -0.02541337 -0.50071143 -0.05899948
v -0.02541337 -0.50282973 -0.06478064
v -0.01345955 -0.47049142 -0.05193851
v 0.10124253 -0.49049415 -0.05926025
f 1 2 3
f 1 3 4
f 1 4 5
f 1 5 6
f 1 6 7
f 1 7 8
f 1 8 9
f 1 9 10
f 1 10 2
f 2 11 25
f 2 25 47
f 2 47 51
f 2 51 50
f 2 50 68
f 2 68 92
f 2 92 104
f 2 104 94
f 2 94 93
f 2 93 69
f 2 69 52
f 2 52 33
f 2 33 12
f 2 12 3
f 2 10 13
f 2 13 14
f 2 14 15
f 2 15 11
f 3 12 16
f 3 16 17
f 3 17 4
f 4 17 18
f 4 18 19
f 4 19 5
f 5 19 20
f 5 20 6
f 6 20 7
f 7 20 8
f 8 20 21
f 8 21 44
f 8 44 58
f 8 58 80
f 8 80 99
f 8 99 102
f 8 102 101
f 8 101 86
f 8 86 83
f 8 83 61
f 8 61 45
f 8 45 22
f 8 22 10
f 8 10 9
f 10 22 23
f 10 23 24
f 10 24 13
f 11 15 26
f 11 26 27
f 11 27 28
f 11 28 29
f 11 29 30
f 11 30 31
f 11 31 32
f 11 32 25
f 12 33 34
f 12 34 35
f 12 35 16
f 13 24 23
f 13 23 46
f 13 46 63
f 13 63 62
f 13 62 84
f 13 84 103
f 13 103 85
f 13 85 64
f 13 64 48
f 13 48 32
f 13 32 31
f 13 31 30
f 13 30 29
f 13 29 28
f 13 28 27
f 13 27 26
f 13 26 15
f 13 15 14
f 16 36 37
f 16 37 38
f 16 38 17
f 16 35 36
f 17 38 39
f 17 39 40
f 17 40 18
f 18 40 41
f 18 41 19
f 19 41 20
f 20 42 21
f 20 41 43
f 20 43 42
f 21 42 44
f 22 45 23
f 23 45 46
f 25 32 47
f 32 48 49
f 32 49 50
f 32 50 51
f 32 51 47
f 33 52 53
f 33 53 54
f 33 54 34
f 34 54 35
f 35 54 36
f 36 54 55
f 36 55 56
f 36 56 41
f 36 41 37
f 37 41 38
f 38 41 40
f 38 40 39
f 41 56 57
f 41 57 43
f 42 58 44
f 42 43 59
f 42 59 58
f 43 57 60
f 43 60 59
f 45 61 62
f 45 62 63
f 45 63 46
f 48 64 65
f 48 65 66
f 48 66 49
f 49 66 67
f 49 67 68
f 49 68 50
f 52 69 53
f 53 69 70
f 53 70 71
f 53 71 72
f 53 72 54
f 54 73 74
f 54 74 55
f 54 72 75
f 54 75 76
f 54 76 73
f 55 74 57
f 55 57 56
f 57 77 60
f 57 74 71
f 57 71 78
f 57 78 77
f 58 59 79
f 58 79 80
f 59 60 79
f 60 81 82
f 60 82 80
f 60 80 79
f 60 77 81
f 61 83 84
f 61 84 62
f 64 85 65
f 65 86 87
f 65 87 66
f 65 85 86
f 66 87 88
f 66 88 67
f 67 88 89
f 67 89 90
f 67 90 91
f 67 91 68
f 68 91 92
f 69 93 70
f 70 93 94
f 70 94 95
f 70 95 71
f 71 74 73
f 71 73 76
f 71 76 75
f 71 75 72
f 71 95 96
f 71 96 97
f 71 97 98
f 71 98 77
f 71 77 78
f 77 91 90
f 77 90 89
f 77 89 81
f 77 98 91
f 80 82 99
f 81 89 100
f 81 100 101
f 81 101 102
f 81 102 82
f 82 102 99
f 83 86 85
f 83 85 103
f 83 103 84
f 86 101 100
f 86 100 87
f 87 100 88
f 88 100 89
f 91 98 104
f 91 104 92
f 94 104 96
f 94 96 95
f 96 104 98
f 96 98 97

