# https://github.com/mikedh/trimesh
v 0.22734735 0.20243149 -0.07477690
v 0.22734735 0.20494052 -0.06579028
v 0.22734735 0.20249317 -0.07719937
v 0.30054023 0.02488705 -0.07477690
v 0.22734735 0.20506391 -0.06558769
v 0.22734735 0.20504334 -0.08145390
v 0.30512016 0.02488705 -0.08414843
v 0.30365380 0.02488705 -0.06478309
v 0.22734735 0.20539296 -0.08177516
v 0.22734735 0.20535184 -0.06522012
v 0.30517728 0.02488705 -0.08416580
v 0.22734735 0.21127479 -0.08475044
v 0.22734735 0.22246256 -0.08652750
v 0.30822422 0.02488705 -0.05852286
v 0.22734735 0.21123365 -0.05875440
v 0.31487984 0.02488705 -0.08708898
v 0.22734735 0.22476593 -0.08554056
v 0.23489802 0.21491492 -0.08640015
v 0.26489120 0.17491446 -0.08714687
v 0.25489348 0.18490943 -0.08723369
v 0.31487984 0.02488705 -0.05772115
v 0.22734735 0.21534680 -0.05818423
v 0.30488212 0.07494418 -0.08728579
v 0.31487984 0.02494875 -0.08708898
v 0.32208772 0.02488705 -0.08271579
v 0.23440289 0.22433404 -0.08257976
v 0.22734735 0.23136754 -0.08257107
v 0.24489575 0.20491995 -0.08610205
v 0.26525302 0.18499170 -0.08396610
v 0.27311789 0.17491446 -0.08311230
v 0.27576492 0.16570098 -0.08443497
v 0.28488666 0.14490899 -0.08567081
v 0.29488437 0.11494463 -0.08701373
v 0.32077373 0.02488705 -0.05894831
v 0.31305169 0.06494920 -0.05827105
v 0.31208047 0.07494418 -0.05834051
v 0.30488212 0.08493915 -0.05782534
v 0.26489120 0.17491446 -0.05777614
v 0.23556454 0.21557302 -0.05789480
v 0.22734735 0.22523895 -0.05807714
v 0.30488212 0.08493915 -0.08710635
v 0.31487984 0.03494372 -0.08677061
v 0.32461094 0.02488705 -0.07477400
v 0.32208772 0.02494875 -0.08271290
v 0.22734735 0.23266320 -0.08172017
v 0.23073705 0.23073002 -0.08077086
v 0.24054435 0.22061164 -0.08062036
v 0.24428636 0.21407172 -0.08215141
v 0.25237023 0.20491995 -0.08205590
v 0.25573137 0.19570647 -0.08453626
v 0.27107074 0.18170118 -0.08135260
v 0.26215849 0.19290952 -0.08219772
v 0.28154456 0.16288347 -0.08186489
v 0.28487712 0.15401963 -0.08284892
v 0.29355134 0.13491402 -0.08348276
v 0.30271116 0.11494463 -0.08308336
v 0.30488212 0.09493412 -0.08576342
v 0.32084039 0.02488705 -0.05896278
v 0.31090930 0.08493915 -0.05894831
v 0.30252074 0.10494966 -0.05823922
v 0.32006913 0.04257363 -0.05960819
v 0.31971681 0.04923694 -0.05996129
v 0.29488437 0.11494463 -0.05785428
v 0.28529607 0.14497067 -0.05828842
v 0.28221108 0.15492453 -0.05846786
v 0.27508887 0.16477554 -0.05829421
v 0.25501724 0.19488383 -0.05805688
v 0.24536230 0.20531069 -0.05792085
v 0.23267947 0.22312068 -0.05854311
v 0.22977537 0.22978398 -0.06000470
v 0.22734735 0.22735723 -0.05873992
v 0.31362297 0.07494418 -0.08381560
v 0.31487984 0.05495423 -0.08524825
v 0.31487984 0.04495926 -0.08624965
v 0.32462048 0.02488705 -0.07470743
v 0.32165924 0.03494372 -0.08232507
v 0.32113555 0.04495926 -0.08175201
v 0.32368734 0.03494372 -0.07477690
v 0.22734735 0.23471977 -0.07643240
v 0.22734735 0.23498713 -0.07477690
v 0.23122266 0.23122358 -0.07477690
v 0.25013264 0.21018479 -0.08011097
v 0.23622152 0.22604101 -0.07477690
v 0.24093474 0.22104352 -0.07477690
v 0.26337725 0.19449309 -0.07477690
v 0.26837612 0.18770639 -0.07477690
v 0.27173726 0.18270890 -0.07477690
v 0.27649807 0.17491446 -0.07477690
v 0.28997120 0.15009156 -0.07992864
v 0.29121854 0.14490899 -0.08145969
v 0.30116867 0.12298586 -0.08154652
v 0.31009996 0.10065141 -0.08016307
v 0.31100451 0.09493412 -0.08142496
v 0.31243276 0.08493915 -0.08302836
v 0.32333506 0.02488705 -0.06471652
v 0.31012854 0.09080040 -0.05955031
v 0.30116867 0.11494463 -0.05880648
v 0.29189459 0.13491402 -0.05856627
v 0.32115459 0.04551454 -0.06388877
v 0.32061186 0.05495423 -0.06645596
v 0.32010721 0.06122680 -0.06849930
v 0.31907887 0.05495423 -0.06145761
v 0.29060914 0.14168016 -0.05919721
v 0.28063047 0.16134105 -0.05917695
v 0.27160397 0.17491446 -0.05878913
v 0.26460554 0.18418964 -0.05848234
v 0.26107303 0.19153162 -0.05897725
v 0.25177038 0.20226697 -0.05871098
v 0.24234394 0.21267325 -0.05858363
v 0.23083228 0.23085340 -0.06667013
v 0.22734735 0.23266320 -0.06196120
v 0.23934462 0.21933657 -0.06080930
v 0.24900909 0.20893027 -0.06183097
v 0.24481957 0.21483266 -0.06465285
v 0.24063958 0.22071448 -0.06747473
v 0.32044999 0.05495423 -0.08075639
v 0.32334456 0.02488705 -0.06478019
v 0.32000247 0.06063039 -0.08000389
v 0.32257333 0.04495926 -0.07477690
v 0.22734735 0.23352695 -0.06478309
v 0.24593361 0.21542906 -0.07477690
v 0.25033260 0.21041101 -0.07477690
v 0.25498869 0.20491995 -0.07477690
v 0.25954954 0.19949058 -0.07477690
v 0.25024692 0.21030819 -0.06849640
v 0.26255840 0.19344423 -0.06478019
v 0.26755727 0.18671923 -0.06478019
v 0.27107074 0.18172174 -0.06478019
v 0.27965926 0.16952623 -0.07477690
v 0.29011403 0.15035892 -0.06877135
v 0.28746703 0.15537697 -0.07477690
v 0.29012357 0.15037948 -0.07477690
v 0.29274202 0.14490899 -0.07477690
v 0.29740762 0.13491402 -0.07477690
v 0.29978801 0.12973143 -0.07477690
v 0.28246816 0.16450818 -0.07477690
v 0.30187327 0.12473394 -0.07477690
v 0.30565335 0.11494463 -0.07477690
v 0.30865267 0.10612191 -0.07477690
v 0.31025232 0.10110386 -0.07477690
v 0.31218522 0.09493412 -0.07477690
v 0.31507025 0.08493915 -0.07477690
v 0.31596530 0.07494418 -0.06478019
v 0.31354680 0.08493915 -0.06478019
v 0.31097596 0.09446111 -0.06515644
v 0.30029266 0.12097041 -0.05940560
v 0.32117363 0.05495423 -0.07477690
v 0.32014529 0.06141189 -0.07477690
v 0.31925027 0.06642994 -0.07477690
v 0.31750780 0.07494418 -0.07477690
v 0.31015708 0.10079537 -0.06874240
v 0.28890478 0.14836403 -0.06210592
v 0.28178260 0.16337706 -0.06478019
v 0.27018523 0.18036440 -0.05953005
v 0.25866403 0.19844172 -0.06478019
v 0.25311292 0.20531069 -0.06500884
v 0.29154228 0.14497067 -0.06517671
v 0.30121628 0.12321208 -0.06478019
v 0.30411086 0.11494463 -0.06478019
f 1 2 5
f 1 5 10
f 1 10 15
f 1 15 22
f 1 22 40
f 1 40 71
f 1 71 111
f 1 111 120
f 1 120 80
f 1 80 79
f 1 79 45
f 1 45 27
f 1 27 17
f 1 17 13
f 1 13 12
f 1 12 9
f 1 9 6
f 1 6 3
f 1 3 4
f 1 4 2
f 2 4 5
f 3 6 4
f 4 7 11
f 4 11 16
f 4 16 25
f 4 25 43
f 4 43 75
f 4 75 117
f 4 117 95
f 4 95 58
f 4 58 34
f 4 34 21
f 4 21 14
f 4 14 8
f 4 8 5
f 4 6 9
f 4 9 7
f 5 8 10
f 7 9 12
f 7 12 13
f 7 13 11
f 8 14 15
f 8 15 10
f 11 13 16
f 13 17 18
f 13 18 19
f 13 19 20
f 13 20 16
f 14 21 22
f 14 22 15
f 16 23 24
f 16 24 25
f 16 20 23
f 17 26 18
f 17 27 26
f 18 26 28
f 18 28 19
f 19 28 29
f 19 29 30
f 19 30 31
f 19 31 32
f 19 32 33
f 19 33 23
f 19 23 20
f 21 34 35
f 21 35 36
f 21 36 37
f 21 37 38
f 21 38 39
f 21 39 22
f 22 39 40
f 23 33 41
f 23 41 24
f 24 42 25
f 24 41 42
f 25 42 44
f 25 44 43
f 26 27 45
f 26 45 46
f 26 46 47
f 26 47 48
f 26 48 28
f 28 48 49
f 28 49 50
f 28 50 29
f 29 51 30
f 29 50 52
f 29 52 51
f 30 51 53
f 30 53 54
f 30 54 32
f 30 32 31
f 32 54 55
f 32 55 33
f 33 56 57
f 33 57 41
f 33 55 56
f 34 58 35
f 35 58 36
f 36 59 60
f 36 60 37
f 36 58 61
f 36 61 62
f 36 62 59
f 37 60 63
f 37 63 38
f 38 64 65
f 38 65 66
f 38 66 67
f 38 67 68
f 38 68 39
f 38 63 64
f 39 68 69
f 39 69 40
f 40 69 70
f 40 70 71
f 41 57 72
f 41 72 73
f 41 73 74
f 41 74 42
f 42 74 44
f 43 44 76
f 43 76 77
f 43 77 78
f 43 78 75
f 44 74 76
f 45 79 46
f 46 79 80
f 46 80 81
f 46 81 47
f 47 82 49
f 47 49 48
f 47 81 83
f 47 83 84
f 47 84 82
f 49 52 50
f 49 82 52
f 51 52 82
f 51 82 85
f 51 85 86
f 51 86 87
f 51 87 88
f 51 88 89
f 51 89 53
f 53 89 90
f 53 90 54
f 54 90 55
f 55 90 91
f 55 91 56
f 56 91 92
f 56 92 93
f 56 93 94
f 56 94 57
f 57 94 72
f 58 95 61
f 59 96 97
f 59 97 60
f 59 62 96
f 60 97 98
f 60 98 64
f 60 64 63
f 61 95 62
f 62 95 99
f 62 99 100
f 62 100 101
f 62 101 102
f 62 102 96
f 64 98 65
f 65 98 103
f 65 103 104
f 65 104 105
f 65 105 106
f 65 106 66
f 66 106 67
f 67 107 108
f 67 108 109
f 67 109 68
f 67 106 107
f 68 109 69
f 69 109 70
f 70 110 111
f 70 111 71
f 70 109 108
f 70 108 112
f 70 112 113
f 70 113 114
f 70 114 115
f 70 115 110
f 72 94 116
f 72 116 77
f 72 77 73
f 73 77 74
f 74 77 76
f 75 78 117
f 77 116 78
f 78 116 118
f 78 118 119
f 78 119 100
f 78 100 117
f 80 120 110
f 80 110 81
f 81 110 83
f 82 84 121
f 82 121 122
f 82 122 123
f 82 123 124
f 82 124 85
f 83 110 115
f 83 115 84
f 84 115 125
f 84 125 121
f 85 124 125
f 85 125 126
f 85 126 127
f 85 127 86
f 86 127 128
f 86 128 87
f 87 128 88
f 88 129 89
f 88 128 130
f 88 130 129
f 89 131 132
f 89 132 133
f 89 133 134
f 89 134 135
f 89 135 91
f 89 91 90
f 89 129 136
f 89 136 131
f 91 135 137
f 91 137 92
f 92 137 138
f 92 138 139
f 92 139 140
f 92 140 141
f 92 141 142
f 92 142 118
f 92 118 93
f 93 118 94
f 94 118 116
f 95 117 100
f 95 100 99
f 96 102 143
f 96 143 144
f 96 144 145
f 96 145 146
f 96 146 97
f 97 146 98
f 98 146 103
f 100 119 101
f 101 119 147
f 101 147 148
f 101 148 149
f 101 149 150
f 101 150 142
f 101 142 151
f 101 151 144
f 101 144 143
f 101 143 102
f 103 152 104
f 103 146 152
f 104 152 153
f 104 153 154
f 104 154 105
f 105 154 106
f 106 154 107
f 107 113 112
f 107 112 108
f 107 154 113
f 110 120 111
f 113 155 156
f 113 156 125
f 113 125 114
f 113 154 155
f 114 125 115
f 118 149 148
f 118 148 147
f 118 147 119
f 118 142 150
f 118 150 149
f 121 125 122
f 122 125 123
f 123 125 124
f 125 156 155
f 125 155 126
f 126 155 154
f 126 154 127
f 127 154 128
f 128 154 153
f 128 153 130
f 129 130 136
f 130 134 133
f 130 133 132
f 130 132 131
f 130 131 136
f 130 153 152
f 130 152 157
f 130 157 158
f 130 158 135
f 130 135 134
f 135 158 137
f 137 158 138
f 138 158 151
f 138 151 139
f 139 151 140
f 140 151 141
f 141 151 142
f 144 151 145
f 145 151 146
f 146 151 159
f 146 159 158
f 146 158 157
f 146 157 152
f 151 158 159

