# https://github.com/mikedh/trimesh
v 0.22736286 0.42518064 -0.07477647
v 0.22736286 0.42619062 -0.06482976
v 0.22736286 0.42644710 -0.07928539
v 0.38593704 0.28767841 -0.07477647
v 0.22736286 0.42857930 -0.05922823
v 0.38593704 0.28815937 -0.07210008
v 0.38593704 0.28960221 -0.06477937
v 0.22736286 0.42755328 -0.08161228
v 0.38593704 0.28942586 -0.07909018
v 0.22767334 0.42867549 -0.05857015
v 0.22736286 0.42925264 -0.05837808
v 0.38593704 0.29484451 -0.05827733
v 0.22736286 0.43249100 -0.08452796
v 0.38593704 0.29255200 -0.08245612
v 0.22736286 0.43446288 -0.05622123
v 0.38593704 0.29579037 -0.05798450
v 0.22736286 0.43489571 -0.08534348
v 0.38593704 0.29391466 -0.08304493
v 0.23490736 0.43489571 -0.05493971
v 0.22736286 0.44493145 -0.05686356
v 0.38486588 0.30491229 -0.05544350
v 0.38593704 0.30496038 -0.05556630
v 0.22736286 0.44243052 -0.08531514
v 0.23490736 0.43489571 -0.08632272
v 0.38593704 0.30385421 -0.08615583
v 0.28489354 0.40490077 -0.05480118
v 0.25490182 0.42489206 -0.05503418
v 0.24510640 0.43539270 -0.05663686
v 0.36487143 0.33492326 -0.05449260
v 0.35487419 0.34491090 -0.05440759
v 0.34487695 0.35491455 -0.05440444
v 0.33487971 0.36491819 -0.05448945
v 0.23490736 0.44275116 -0.05742718
v 0.22736286 0.44762473 -0.05974147
v 0.37486867 0.32491961 -0.05481692
v 0.38593704 0.31597401 -0.05630939
v 0.38585941 0.31590992 -0.05624642
v 0.22736286 0.44486732 -0.08426977
v 0.24560317 0.43571331 -0.08387619
v 0.25490182 0.42489206 -0.08628808
v 0.28489354 0.40490077 -0.08648015
v 0.29489078 0.39489713 -0.08657147
v 0.36487143 0.33492326 -0.08611806
v 0.37486867 0.32491961 -0.08602674
v 0.38486588 0.31491593 -0.08560167
v 0.38593704 0.31401817 -0.08544738
v 0.30530715 0.39542615 -0.05648572
v 0.29467343 0.40496490 -0.05698951
v 0.27576563 0.41580221 -0.05633458
v 0.32488247 0.37488981 -0.05476969
v 0.26452651 0.42502032 -0.05707453
v 0.25490182 0.43225053 -0.05779243
v 0.36454542 0.34449407 -0.05727604
v 0.35457924 0.35460994 -0.05715324
v 0.34448884 0.36459758 -0.05723196
v 0.22894629 0.44927599 -0.06212188
v 0.24192406 0.44100374 -0.05859849
v 0.22736286 0.45036611 -0.06347266
v 0.38269256 0.32491961 -0.05784595
v 0.37438741 0.33421788 -0.05766333
v 0.38593704 0.32450278 -0.06255325
v 0.23392937 0.44481923 -0.08235536
v 0.25490182 0.43298797 -0.08263875
v 0.22736286 0.44942025 -0.08149263
v 0.27489630 0.41488839 -0.08560482
v 0.31488523 0.38489345 -0.08561111
v 0.32488247 0.37488981 -0.08595117
v 0.33487971 0.36491819 -0.08608027
v 0.34487695 0.35491455 -0.08611806
v 0.35487419 0.34491090 -0.08614009
v 0.35473446 0.35478629 -0.08291584
v 0.36471617 0.34468645 -0.08285916
v 0.37458921 0.33453852 -0.08266079
v 0.38444675 0.32416614 -0.08214755
v 0.38593704 0.32245075 -0.08209718
v 0.32488247 0.38277729 -0.05776409
v 0.31316212 0.39242826 -0.05791208
v 0.30226450 0.40167844 -0.05825214
v 0.29118060 0.41081639 -0.05884409
v 0.28489354 0.41296461 -0.05749015
v 0.33425875 0.37445694 -0.05755313
v 0.27300242 0.42178195 -0.05811045
v 0.26095606 0.43051913 -0.05908339
v 0.37073936 0.34088700 -0.05893225
v 0.36099050 0.35108303 -0.05875278
v 0.35105536 0.36105461 -0.05874018
v 0.34088737 0.37081781 -0.05887872
v 0.23023474 0.45006153 -0.06879081
v 0.22736286 0.45105548 -0.06667174
v 0.24377137 0.44202972 -0.06477937
v 0.23410013 0.44723999 -0.06518556
v 0.38031745 0.33041842 -0.05932270
v 0.38593704 0.32541657 -0.06396072
v 0.24273129 0.44143657 -0.08150522
v 0.26167014 0.43096800 -0.08106756
v 0.27489630 0.42191021 -0.08176971
v 0.26496116 0.42530886 -0.08346371
v 0.22736286 0.45054246 -0.08050394
v 0.28419496 0.41472810 -0.08252854
v 0.29506153 0.40525348 -0.08355816
v 0.30569525 0.39574679 -0.08406196
v 0.32412182 0.38441252 -0.08210977
v 0.33446058 0.37460123 -0.08258837
v 0.34464410 0.36474187 -0.08282137
v 0.36126993 0.35137157 -0.08113998
v 0.35131926 0.36131112 -0.08112738
v 0.37106537 0.34120761 -0.08100773
v 0.38082972 0.33096348 -0.08081251
v 0.38593704 0.32318819 -0.08164376
v 0.33050203 0.38043672 -0.05921563
v 0.31982176 0.38984718 -0.05996818
v 0.29754532 0.40812311 -0.06477937
v 0.29254669 0.41177831 -0.06477937
v 0.27967758 0.41972992 -0.06042788
v 0.26227557 0.43132070 -0.06477937
v 0.24876999 0.43919216 -0.06477937
v 0.37163975 0.34186492 -0.06477937
v 0.36702922 0.34686674 -0.06477937
v 0.36203058 0.35215714 -0.06477937
v 0.35712510 0.35715896 -0.06477937
v 0.35212649 0.36206459 -0.06477937
v 0.34684846 0.36706642 -0.06477937
v 0.34184983 0.37169953 -0.06477937
v 0.24939094 0.43959296 -0.07477647
v 0.24439231 0.44236640 -0.07477647
v 0.23518679 0.44736822 -0.07477647
v 0.23018817 0.45002946 -0.07477647
v 0.22736286 0.45144025 -0.07477647
v 0.38104705 0.33125206 -0.06477937
v 0.37663835 0.33625388 -0.06477937
v 0.38593704 0.32641052 -0.07477647
v 0.22993979 0.44990121 -0.07980178
v 0.28040722 0.42022688 -0.08023000
v 0.29183261 0.41128132 -0.08129111
v 0.22736286 0.45131199 -0.07722300
v 0.30290098 0.40217543 -0.08188621
v 0.31488523 0.39247636 -0.08191140
v 0.33084356 0.38074129 -0.08074324
v 0.34115128 0.37105829 -0.08098883
v 0.35732693 0.35736738 -0.07477647
v 0.36223238 0.35236552 -0.07477647
v 0.35232829 0.36225698 -0.07477647
v 0.36723102 0.34710722 -0.07477647
v 0.37188809 0.34210537 -0.07477647
v 0.37688673 0.33665468 -0.07477647
v 0.38143515 0.33165283 -0.07477647
v 0.38593704 0.32628230 -0.07531490
v 0.33126268 0.38109400 -0.06477937
v 0.33626132 0.37670136 -0.06477937
v 0.32427704 0.38683326 -0.06389145
v 0.32053584 0.39045639 -0.06663396
v 0.31584771 0.39372682 -0.06389145
v 0.30911045 0.39927373 -0.06477937
v 0.30412734 0.40312129 -0.06477937
v 0.29802655 0.40849184 -0.07477647
v 0.29302794 0.41213098 -0.07477647
v 0.28067112 0.42040323 -0.06709366
v 0.28436574 0.41730915 -0.06416853
v 0.27576563 0.42288813 -0.06416853
v 0.26728970 0.42825869 -0.06477937
v 0.26281890 0.43165734 -0.07477647
v 0.25490182 0.43635459 -0.07477647
v 0.34705026 0.36725880 -0.07477647
v 0.34205163 0.37187589 -0.07477647
v 0.33652522 0.37687771 -0.07477647
v 0.26781751 0.42861136 -0.07477647
v 0.27489630 0.42423478 -0.07477647
v 0.28085739 0.42053149 -0.07477647
v 0.28585600 0.41713280 -0.07477647
v 0.32028746 0.39024798 -0.08020796
v 0.33152662 0.38133448 -0.07477647
v 0.32568970 0.38633630 -0.07477647
v 0.32069109 0.39058465 -0.07477647
v 0.31488523 0.39536202 -0.07477647
v 0.30959167 0.39967450 -0.07477647
v 0.30460859 0.40349002 -0.07477647
f 1 2 5
f 1 5 11
f 1 11 15
f 1 15 20
f 1 20 34
f 1 34 58
f 1 58 89
f 1 89 128
f 1 128 135
f 1 135 98
f 1 98 64
f 1 64 38
f 1 38 23
f 1 23 17
f 1 17 13
f 1 13 8
f 1 8 3
f 1 3 4
f 1 4 2
f 2 4 6
f 2 6 7
f 2 7 5
f 3 8 9
f 3 9 4
f 4 9 14
f 4 14 18
f 4 18 25
f 4 25 46
f 4 46 75
f 4 75 109
f 4 109 147
f 4 147 131
f 4 131 93
f 4 93 61
f 4 61 36
f 4 36 22
f 4 22 16
f 4 16 12
f 4 12 7
f 4 7 6
f 5 10 11
f 5 7 10
f 7 12 10
f 8 13 14
f 8 14 9
f 10 12 11
f 11 12 15
f 12 16 15
f 13 17 18
f 13 18 14
f 15 19 20
f 15 16 21
f 15 21 19
f 16 22 21
f 17 23 24
f 17 24 25
f 17 25 18
f 19 26 27
f 19 27 28
f 19 28 20
f 19 21 29
f 19 29 30
f 19 30 31
f 19 31 32
f 19 32 26
f 20 33 34
f 20 28 33
f 21 22 35
f 21 35 29
f 22 36 37
f 22 37 35
f 23 38 39
f 23 39 40
f 23 40 24
f 24 40 41
f 24 41 42
f 24 42 25
f 25 43 44
f 25 44 45
f 25 45 46
f 25 42 43
f 26 47 48
f 26 48 49
f 26 49 27
f 26 32 50
f 26 50 47
f 27 49 51
f 27 51 28
f 28 51 52
f 28 52 33
f 29 35 53
f 29 53 54
f 29 54 30
f 30 54 31
f 31 54 32
f 32 54 55
f 32 55 50
f 33 56 34
f 33 52 57
f 33 57 56
f 34 56 58
f 35 37 59
f 35 59 60
f 35 60 53
f 36 61 59
f 36 59 37
f 38 62 63
f 38 63 39
f 38 64 62
f 39 63 65
f 39 65 40
f 40 65 41
f 41 66 67
f 41 67 68
f 41 68 42
f 41 65 66
f 42 68 69
f 42 69 70
f 42 70 43
f 43 70 71
f 43 71 44
f 44 71 72
f 44 72 73
f 44 73 45
f 45 73 74
f 45 74 46
f 46 74 75
f 47 76 77
f 47 77 48
f 47 50 76
f 48 77 78
f 48 78 79
f 48 79 80
f 48 80 49
f 49 80 51
f 50 55 81
f 50 81 76
f 51 80 82
f 51 82 52
f 52 82 83
f 52 83 57
f 53 84 85
f 53 85 54
f 53 60 84
f 54 85 86
f 54 86 55
f 55 86 87
f 55 87 81
f 56 88 89
f 56 89 58
f 56 57 90
f 56 90 91
f 56 91 88
f 57 83 90
f 59 92 84
f 59 84 60
f 59 61 92
f 61 93 92
f 62 64 94
f 62 94 63
f 63 94 95
f 63 95 96
f 63 96 97
f 63 97 65
f 64 98 94
f 65 97 99
f 65 99 100
f 65 100 66
f 66 100 101
f 66 101 102
f 66 102 103
f 66 103 104
f 66 104 67
f 67 104 71
f 67 71 68
f 68 71 69
f 69 71 70
f 71 105 72
f 71 104 106
f 71 106 105
f 72 105 107
f 72 107 73
f 73 108 74
f 73 107 108
f 74 108 75
f 75 108 109
f 76 110 77
f 76 81 110
f 77 110 78
f 78 110 111
f 78 111 79
f 79 112 113
f 79 113 114
f 79 114 83
f 79 83 82
f 79 82 80
f 79 111 112
f 81 87 110
f 83 114 115
f 83 115 116
f 83 116 90
f 84 117 118
f 84 118 119
f 84 119 85
f 84 92 117
f 85 119 120
f 85 120 86
f 86 121 87
f 86 120 121
f 87 121 122
f 87 122 123
f 87 123 110
f 88 91 90
f 88 90 116
f 88 116 124
f 88 124 125
f 88 125 126
f 88 126 127
f 88 127 128
f 88 128 89
f 92 93 129
f 92 129 130
f 92 130 117
f 93 131 129
f 94 98 132
f 94 132 95
f 95 132 133
f 95 133 96
f 96 133 134
f 96 134 99
f 96 99 97
f 98 135 132
f 99 134 100
f 100 134 136
f 100 136 101
f 101 137 102
f 101 136 137
f 102 138 103
f 102 137 138
f 103 139 104
f 103 138 139
f 104 139 106
f 105 106 140
f 105 140 141
f 105 141 107
f 106 139 142
f 106 142 140
f 107 141 143
f 107 143 108
f 108 143 144
f 108 144 145
f 108 145 146
f 108 146 131
f 108 131 147
f 108 147 109
f 110 148 111
f 110 123 149
f 110 149 148
f 111 148 150
f 111 150 151
f 111 151 152
f 111 152 153
f 111 153 154
f 111 154 112
f 112 155 113
f 112 154 176
f 112 176 155
f 113 155 156
f 113 156 157
f 113 157 158
f 113 158 114
f 114 158 157
f 114 157 159
f 114 159 160
f 114 160 115
f 115 161 162
f 115 162 124
f 115 124 116
f 115 160 157
f 115 157 161
f 117 130 146
f 117 146 145
f 117 145 144
f 117 144 118
f 118 144 143
f 118 143 119
f 119 143 141
f 119 141 140
f 119 140 120
f 120 140 121
f 121 140 142
f 121 142 163
f 121 163 122
f 122 163 123
f 123 163 164
f 123 164 165
f 123 165 149
f 124 162 133
f 124 133 132
f 124 132 125
f 125 132 126
f 126 132 127
f 127 132 128
f 128 132 135
f 129 131 146
f 129 146 130
f 133 162 161
f 133 161 166
f 133 166 167
f 133 167 168
f 133 168 169
f 133 169 156
f 133 156 155
f 133 155 170
f 133 170 134
f 134 170 136
f 136 170 137
f 137 170 138
f 138 170 171
f 138 171 165
f 138 165 164
f 138 164 163
f 138 163 139
f 139 163 142
f 148 171 151
f 148 151 150
f 148 149 171
f 149 165 171
f 151 171 172
f 151 172 173
f 151 173 174
f 151 174 175
f 151 175 153
f 151 153 152
f 153 175 154
f 154 175 176
f 155 176 170
f 156 169 157
f 157 168 167
f 157 167 166
f 157 166 161
f 157 160 159
f 157 169 168
f 170 176 175
f 170 175 174
f 170 174 173
f 170 173 172
f 170 172 171

