# https://github.com/mikedh/trimesh
v -0.02542576 0.32459376 -0.07477489
v -0.02542576 0.32390379 -0.06477884
v -0.02542576 0.32216271 -0.08326391
v -0.03508179 0.32184028 -0.08293201
v -0.04508748 0.32145337 -0.08250442
v -0.05507973 0.32091815 -0.08173296
v -0.03508179 0.32390379 -0.07477489
v -0.02542576 0.32383283 -0.06457850
v -0.04508748 0.32312352 -0.07477489
v -0.04508748 0.32213047 -0.06477884
v -0.05197312 0.32017013 -0.05950422
v -0.02542576 0.31490822 -0.08756075
v -0.03508179 0.31490822 -0.08738434
v -0.04508748 0.31490822 -0.08714812
v -0.05507973 0.31490822 -0.08648131
v -0.07507767 0.31399898 -0.08426861
v -0.08508336 0.31271574 -0.08351209
v -0.06242262 0.32036358 -0.08072827
v -0.02542576 0.32147271 -0.05819753
v -0.05507973 0.32203374 -0.07477489
v -0.05521422 0.32095686 -0.06430938
v -0.05864358 0.31933828 -0.06066440
v -0.09199589 0.31038789 -0.05932481
v -0.08508336 0.31121327 -0.05871782
v -0.07507767 0.31229662 -0.05827826
v -0.08508336 0.30490672 -0.08723483
v -0.02542576 0.30650592 -0.08406827
v -0.16281577 0.26433965 -0.08440914
v -0.15505597 0.27491509 -0.08716007
v -0.13505803 0.28491659 -0.08724978
v -0.11506010 0.29491165 -0.08729463
v -0.09506216 0.30490672 -0.08636470
v -0.11506010 0.30295928 -0.08345528
v -0.09506216 0.31132933 -0.08201104
v -0.07507767 0.31811953 -0.07477489
v -0.06874342 0.31964137 -0.07477489
v -0.06375402 0.32062796 -0.07477489
v -0.10145020 0.31038142 -0.08062362
v -0.02542576 0.31490822 -0.05701343
v -0.06262435 0.32041517 -0.06732943
v -0.08508336 0.31401832 -0.06477884
v -0.09521009 0.31132290 -0.06459046
v -0.09863947 0.30917557 -0.06113086
v -0.12128676 0.30040570 -0.05932481
v -0.11506010 0.30143747 -0.05864605
v -0.10506785 0.30301733 -0.05818855
v -0.02542576 0.30366215 -0.07477489
v -0.16281577 0.25871664 -0.07477489
v -0.16281577 0.27552123 -0.08530020
v -0.14506374 0.28491659 -0.08605073
v -0.12506579 0.29491165 -0.08579059
v -0.13408974 0.29497614 -0.08299779
v -0.12506579 0.30097963 -0.08134424
v -0.08508336 0.31552083 -0.07477489
v -0.13010899 0.29993499 -0.07982226
v -0.11506010 0.30604165 -0.07477489
v -0.10713892 0.30891763 -0.07477489
v -0.10213607 0.31060069 -0.07477489
v -0.09506216 0.31273511 -0.07477489
v -0.02542576 0.31470832 -0.05704333
v -0.14507718 0.28526482 -0.05833508
v -0.16281577 0.27488285 -0.05839787
v -0.15469287 0.27438630 -0.05836198
v -0.16281577 0.26777023 -0.05857429
v -0.10143675 0.31036208 -0.06779888
v -0.11506010 0.30451980 -0.06477884
v -0.12479682 0.30108280 -0.06569682
v -0.14507718 0.29153266 -0.06540378
v -0.14842586 0.28883080 -0.06248539
v -0.14176884 0.29066214 -0.05917531
v -0.13505803 0.29200987 -0.05850850
v -0.02542576 0.30597716 -0.06512869
v -0.02542576 0.30608033 -0.06477884
v -0.16281577 0.25965168 -0.07162627
v -0.16281577 0.28160855 -0.08198712
v -0.15418183 0.28490369 -0.08304563
v -0.14506374 0.29132633 -0.08164625
v -0.13515217 0.29760064 -0.07477489
v -0.13014933 0.29995433 -0.07477489
v -0.12506579 0.30207585 -0.07477489
v -0.15025486 0.29002375 -0.07996878
v -0.14506374 0.29278366 -0.07477489
v -0.13013588 0.29994143 -0.06964081
v -0.02542576 0.30893053 -0.05859821
v -0.16281577 0.26657081 -0.05879854
v -0.15505597 0.28205995 -0.05857429
v -0.16281577 0.27641113 -0.05844272
v -0.15030865 0.29005599 -0.06915342
v -0.16281577 0.28175042 -0.06479678
v -0.16281577 0.28146024 -0.06402532
v -0.16120195 0.28053167 -0.05927099
v -0.02542576 0.30882090 -0.05879854
v -0.16281577 0.26175386 -0.06477884
v -0.16281577 0.28324646 -0.07477489
v -0.15540563 0.28738634 -0.07477489
v -0.15040280 0.29010114 -0.07477489
v -0.16281577 0.27802323 -0.05887928
v -0.16281577 0.28180201 -0.06511374
v -0.16281577 0.28007383 -0.06056273
f 1 2 8
f 1 8 19
f 1 19 39
f 1 39 60
f 1 60 84
f 1 84 92
f 1 92 73
f 1 73 72
f 1 72 47
f 1 47 27
f 1 27 12
f 1 12 3
f 1 3 4
f 1 4 5
f 1 5 6
f 1 6 7
f 1 7 2
f 2 7 9
f 2 9 10
f 2 10 11
f 2 11 8
f 3 12 13
f 3 13 14
f 3 14 4
f 4 14 15
f 4 15 5
f 5 15 6
f 6 9 7
f 6 15 16
f 6 16 17
f 6 17 18
f 6 18 9
f 8 11 19
f 9 18 20
f 9 20 10
f 10 20 21
f 10 21 11
f 11 21 22
f 11 22 23
f 11 23 24
f 11 24 25
f 11 25 19
f 12 26 13
f 12 27 28
f 12 28 29
f 12 29 30
f 12 30 31
f 12 31 26
f 13 26 14
f 14 26 15
f 15 26 32
f 15 32 16
f 16 32 17
f 17 32 33
f 17 33 34
f 17 34 18
f 18 35 36
f 18 36 37
f 18 37 20
f 18 34 38
f 18 38 35
f 19 25 39
f 20 37 40
f 20 40 21
f 21 40 22
f 22 40 41
f 22 41 23
f 23 41 42
f 23 42 43
f 23 43 44
f 23 44 45
f 23 45 24
f 24 45 46
f 24 46 25
f 25 46 39
f 26 31 32
f 27 47 48
f 27 48 28
f 28 48 74
f 28 74 93
f 28 93 85
f 28 85 64
f 28 64 62
f 28 62 87
f 28 87 97
f 28 97 99
f 28 99 90
f 28 90 89
f 28 89 98
f 28 98 94
f 28 94 75
f 28 75 49
f 28 49 29
f 29 49 50
f 29 50 30
f 30 50 31
f 31 50 51
f 31 51 32
f 32 51 33
f 33 51 52
f 33 52 53
f 33 53 38
f 33 38 34
f 35 40 36
f 35 38 54
f 35 54 40
f 36 40 37
f 38 53 55
f 38 55 56
f 38 56 57
f 38 57 58
f 38 58 59
f 38 59 54
f 39 46 61
f 39 61 62
f 39 62 63
f 39 63 64
f 39 64 60
f 40 54 65
f 40 65 41
f 41 65 42
f 42 65 43
f 43 65 66
f 43 66 44
f 44 66 67
f 44 67 68
f 44 68 69
f 44 69 70
f 44 70 71
f 44 71 45
f 45 71 46
f 46 71 61
f 47 72 48
f 48 72 73
f 48 73 74
f 49 75 50
f 50 75 76
f 50 76 52
f 50 52 51
f 52 76 77
f 52 77 53
f 53 77 55
f 54 59 65
f 55 78 79
f 55 79 80
f 55 80 56
f 55 77 81
f 55 81 82
f 55 82 78
f 56 80 83
f 56 83 65
f 56 65 57
f 57 65 58
f 58 65 59
f 60 64 85
f 60 85 84
f 61 71 86
f 61 86 87
f 61 87 62
f 62 64 63
f 65 83 67
f 65 67 66
f 67 83 68
f 68 88 69
f 68 83 88
f 69 88 89
f 69 89 90
f 69 90 91
f 69 91 70
f 70 91 86
f 70 86 71
f 73 92 93
f 73 93 74
f 75 94 81
f 75 81 77
f 75 77 76
f 78 83 79
f 78 82 83
f 79 83 80
f 81 95 96
f 81 96 82
f 81 94 95
f 82 96 88
f 82 88 83
f 84 85 93
f 84 93 92
f 86 91 97
f 86 97 87
f 88 96 95
f 88 95 94
f 88 94 98
f 88 98 89
f 90 99 91
f 91 99 97

