# https://github.com/mikedh/trimesh
v -0.50470984 0.02510271 -0.07477664
v -0.50313757 0.02510271 -0.06478060
v -0.50453575 0.03495076 -0.07477664
v -0.50227804 0.03495076 -0.08252145
v -0.50240314 0.02510271 -0.08251541
v -0.50310497 0.02510271 -0.06468995
v -0.50288189 0.03495076 -0.06478060
v -0.50249021 0.04494871 -0.06478060
v -0.50412226 0.04494871 -0.07477664
v -0.50206587 0.04494871 -0.08230086
v -0.49502617 0.05494665 -0.08585447
v -0.49502617 0.04494871 -0.08606901
v -0.50236506 0.02510271 -0.08263930
v -0.50079828 0.02510271 -0.05892439
v -0.50062961 0.03495076 -0.05912987
v -0.50043377 0.04494871 -0.05932024
v -0.50021618 0.05215862 -0.05955897
v -0.50145654 0.05527642 -0.06395867
v -0.50331166 0.05494665 -0.07477664
v -0.50106486 0.06494460 -0.08123417
v -0.50167413 0.05494665 -0.08191709
v -0.49502617 0.06494460 -0.08527127
v -0.48502700 0.10492140 -0.08602671
v -0.48502700 0.09493845 -0.08650717
v -0.49502617 0.03495076 -0.08615967
v -0.49502617 0.02510271 -0.08622917
v -0.50071126 0.02510271 -0.05889418
v -0.49502617 0.04494871 -0.05706600
v -0.49437879 0.06494460 -0.05717176
v -0.49352465 0.07494254 -0.05730774
v -0.49267055 0.08494050 -0.05755855
v -0.49986255 0.05881392 -0.06007569
v -0.50101045 0.06494460 -0.06636099
v -0.50042293 0.07218449 -0.06825866
v -0.50204412 0.06494460 -0.07477664
v -0.50047728 0.07228942 -0.08045757
v -0.49207212 0.10492140 -0.08229481
v -0.49316560 0.09493845 -0.08306235
v -0.48502700 0.11491935 -0.08480592
v -0.48335684 0.13491524 -0.08321948
v -0.47503325 0.14492818 -0.08608110
v -0.47503325 0.13491524 -0.08657365
v -0.48502700 0.08494050 -0.08646789
v -0.48585393 0.02510271 -0.08336453
v -0.46503407 0.16492407 -0.08619895
v -0.49502617 0.02510271 -0.05709622
v -0.48502700 0.09493845 -0.05610205
v -0.48308484 0.12491730 -0.05726543
v -0.49170762 0.09493845 -0.05816895
v -0.49077189 0.10324258 -0.05901505
v -0.49002113 0.10991288 -0.05979165
v -0.49937837 0.06494460 -0.06135995
v -0.49870923 0.07528731 -0.06486823
v -0.49686499 0.08494050 -0.06478060
v -0.49483576 0.09493845 -0.06478060
v -0.49007009 0.12012068 -0.06957313
v -0.49629374 0.09493845 -0.07477664
v -0.49838281 0.08494050 -0.07477664
v -0.49971022 0.07839012 -0.07477664
v -0.50066227 0.07338364 -0.07477664
v -0.49011363 0.12030055 -0.07992574
v -0.49083173 0.11491935 -0.08090782
v -0.48203486 0.14492818 -0.08217999
v -0.47368951 0.16492407 -0.08322250
v -0.46503407 0.17492201 -0.08575778
v -0.48068025 0.02510271 -0.07483707
v -0.45471393 0.17823469 -0.08386311
v -0.45034539 0.17823469 -0.08082321
v -0.49490105 0.02510271 -0.05710528
v -0.48502700 0.08494050 -0.05628638
v -0.46503407 0.16492407 -0.05570620
v -0.47503325 0.13491524 -0.05581498
v -0.47503325 0.14492818 -0.05638610
v -0.47254707 0.16492407 -0.05757970
v -0.48192606 0.13491524 -0.05793627
v -0.48073463 0.14492818 -0.05901505
v -0.48008725 0.15011452 -0.05970703
v -0.48523371 0.13491524 -0.06478060
v -0.49072839 0.11491935 -0.06713154
v -0.49204491 0.10591071 -0.06378643
v -0.48274754 0.14492818 -0.06478060
v -0.48404774 0.14492818 -0.07477664
v -0.48666452 0.13491524 -0.07477664
v -0.49403604 0.10492140 -0.07477664
v -0.48087609 0.15249784 -0.08091084
v -0.47191598 0.17492201 -0.08205609
v -0.46527890 0.17823469 -0.08501441
v -0.48064759 0.02510271 -0.07455000
v -0.44939879 0.17823469 -0.07697951
v -0.44913766 0.17823469 -0.07477664
v -0.48737175 0.02510271 -0.05795138
v -0.45550819 0.17823469 -0.05686656
v -0.46112799 0.17823469 -0.05622897
v -0.46503407 0.17492201 -0.05599025
v -0.46514832 0.17823469 -0.05647675
v -0.46894018 0.17823469 -0.05826564
v -0.47097483 0.17492201 -0.05878841
v -0.47043624 0.17823469 -0.05934442
v -0.47117613 0.17823469 -0.06156543
v -0.48074551 0.15210812 -0.06478060
v -0.48133306 0.15389186 -0.07477664
v -0.47966291 0.15888333 -0.07477664
v -0.47280820 0.17823469 -0.07477664
v -0.47137197 0.17823469 -0.08146383
v -0.48174107 0.02510271 -0.06517041
v -0.44940425 0.17823469 -0.06924074
v -0.44950217 0.17823469 -0.06724032
v -0.44953480 0.17823469 -0.06693210
v -0.48214366 0.02510271 -0.06451770
v -0.45254326 0.17823469 -0.05907548
v -0.47186702 0.17823469 -0.06478060
v -0.48201853 0.02510271 -0.06468995
v -0.45013868 0.17823469 -0.06413998
v -0.45068269 0.17823469 -0.06184343
f 1 2 3
f 1 3 4
f 1 4 5
f 1 5 13
f 1 13 26
f 1 26 44
f 1 44 66
f 1 66 88
f 1 88 105
f 1 105 112
f 1 112 109
f 1 109 91
f 1 91 69
f 1 69 46
f 1 46 27
f 1 27 14
f 1 14 6
f 1 6 2
f 2 6 7
f 2 7 3
f 3 7 8
f 3 8 9
f 3 9 10
f 3 10 4
f 4 10 11
f 4 11 12
f 4 12 13
f 4 13 5
f 6 14 15
f 6 15 7
f 7 15 16
f 7 16 8
f 8 16 17
f 8 17 18
f 8 18 19
f 8 19 9
f 9 19 20
f 9 20 21
f 9 21 10
f 10 21 22
f 10 22 11
f 11 22 23
f 11 23 24
f 11 24 12
f 12 25 13
f 12 24 25
f 13 25 26
f 14 27 28
f 14 28 29
f 14 29 16
f 14 16 15
f 16 29 17
f 17 29 30
f 17 30 31
f 17 31 32
f 17 32 18
f 18 32 33
f 18 33 19
f 19 33 34
f 19 34 35
f 19 35 36
f 19 36 20
f 20 36 37
f 20 37 38
f 20 38 22
f 20 22 21
f 22 38 23
f 23 38 39
f 23 39 40
f 23 40 41
f 23 41 42
f 23 42 24
f 24 43 26
f 24 26 25
f 24 42 43
f 26 43 42
f 26 42 45
f 26 45 44
f 27 46 28
f 28 46 47
f 28 47 29
f 29 47 30
f 30 47 31
f 31 47 48
f 31 48 49
f 31 49 32
f 32 49 50
f 32 50 51
f 32 51 52
f 32 52 33
f 33 52 34
f 34 53 54
f 34 54 55
f 34 55 56
f 34 56 57
f 34 57 58
f 34 58 59
f 34 59 60
f 34 60 35
f 34 52 53
f 35 60 36
f 36 60 59
f 36 59 58
f 36 58 57
f 36 57 61
f 36 61 62
f 36 62 37
f 37 62 63
f 37 63 40
f 37 40 38
f 38 40 39
f 40 63 41
f 41 63 64
f 41 64 65
f 41 65 42
f 42 65 45
f 44 45 67
f 44 67 68
f 44 68 66
f 45 65 67
f 46 69 70
f 46 70 47
f 47 70 71
f 47 71 72
f 47 72 48
f 48 72 73
f 48 73 74
f 48 74 75
f 48 75 49
f 49 75 50
f 50 75 76
f 50 76 51
f 51 76 77
f 51 77 78
f 51 78 79
f 51 79 80
f 51 80 55
f 51 55 54
f 51 54 52
f 52 54 53
f 55 80 79
f 55 79 56
f 56 79 78
f 56 78 81
f 56 81 82
f 56 82 83
f 56 83 84
f 56 84 57
f 57 84 61
f 61 83 82
f 61 82 85
f 61 85 63
f 61 63 62
f 61 84 83
f 63 85 86
f 63 86 64
f 64 86 87
f 64 87 65
f 65 87 67
f 66 68 89
f 66 89 90
f 66 90 88
f 67 87 104
f 67 104 103
f 67 103 111
f 67 111 99
f 67 99 98
f 67 98 96
f 67 96 95
f 67 95 93
f 67 93 92
f 67 92 110
f 67 110 114
f 67 114 113
f 67 113 108
f 67 108 107
f 67 107 106
f 67 106 90
f 67 90 89
f 67 89 68
f 69 91 71
f 69 71 70
f 71 92 93
f 71 93 94
f 71 94 72
f 71 91 92
f 72 94 73
f 73 94 74
f 74 94 95
f 74 95 96
f 74 96 97
f 74 97 77
f 74 77 76
f 74 76 75
f 77 81 78
f 77 97 98
f 77 98 99
f 77 99 100
f 77 100 81
f 81 100 82
f 82 100 101
f 82 101 85
f 85 101 102
f 85 102 103
f 85 103 104
f 85 104 86
f 86 104 87
f 88 90 106
f 88 106 107
f 88 107 108
f 88 108 105
f 91 109 110
f 91 110 92
f 93 95 94
f 96 98 97
f 99 111 100
f 100 111 102
f 100 102 101
f 102 111 103
f 105 108 113
f 105 113 114
f 105 114 112
f 109 112 110
f 110 112 114

