# https://github.com/mikedh/trimesh
v -0.49032526 -0.11918765 -0.07325167
v -0.48999697 -0.11997989 -0.07915379
v -0.49007903 -0.12032940 -0.07249031
v -0.49007903 -0.12032940 -0.06951526
v -0.49021036 -0.11918765 -0.06902901
v -0.49019394 -0.11918765 -0.07840843
v -0.48909414 -0.12422062 -0.07540139
v -0.49009545 -0.11918765 -0.07934893
v -0.48073890 -0.15243789 -0.08075329
v -0.48395622 -0.14505154 -0.07477439
v -0.48654980 -0.13505549 -0.07477439
v -0.48297133 -0.14505154 -0.06478077
v -0.48543358 -0.13505549 -0.06478077
v -0.48871658 -0.11918765 -0.06377628
v -0.48543358 -0.11918765 -0.08347562
v -0.48315188 -0.13505549 -0.08299577
v -0.48185511 -0.14505154 -0.08195290
v -0.47174344 -0.17503965 -0.08182495
v -0.47056155 -0.18170367 -0.08054536
v -0.47965549 -0.15900870 -0.07477439
v -0.48126417 -0.15399904 -0.07477439
v -0.48083738 -0.15262428 -0.06478077
v -0.48016437 -0.15057382 -0.05960161
v -0.48310266 -0.12505946 -0.05723756
v -0.48377567 -0.11918765 -0.05712240
v -0.48085380 -0.14505154 -0.05887544
v -0.48203567 -0.13505549 -0.05784537
v -0.48213415 -0.11918765 -0.08441612
v -0.47501003 -0.13505549 -0.08639949
v -0.48435020 -0.12505946 -0.08349162
v -0.47501003 -0.14505154 -0.08569892
v -0.47358194 -0.16504360 -0.08307255
v -0.46315839 -0.19505502 -0.08283263
v -0.46122141 -0.20507437 -0.08119475
v -0.46017084 -0.21038694 -0.07998553
v -0.46929762 -0.18801818 -0.07477439
v -0.47072571 -0.18205319 -0.06478077
v -0.47315512 -0.17503965 -0.06478077
v -0.47914661 -0.15761066 -0.06478077
v -0.47015118 -0.18042213 -0.05962720
v -0.47107043 -0.17503965 -0.05870590
v -0.47269550 -0.16504360 -0.05750947
v -0.47501003 -0.13505549 -0.05572444
v -0.47501003 -0.14505154 -0.05628106
v -0.47455041 -0.11918765 -0.05661056
v -0.47501003 -0.12505946 -0.05585240
v -0.47501003 -0.11918765 -0.08563813
v -0.47501003 -0.12505946 -0.08615637
v -0.43500659 -0.23506248 -0.08659463
v -0.45501651 -0.19505502 -0.08630672
v -0.34285255 -0.35722850 -0.08642188
v -0.39505238 -0.29501540 -0.08667140
v -0.46501327 -0.17503965 -0.08551977
v -0.45501651 -0.20507437 -0.08504632
v -0.45516425 -0.21425487 -0.08263109
v -0.45170066 -0.22504313 -0.08160422
v -0.45037105 -0.23075183 -0.08024145
v -0.45376896 -0.22504313 -0.07477439
v -0.45808612 -0.21586263 -0.07477439
v -0.46038423 -0.21087625 -0.07477439
v -0.46274799 -0.20507437 -0.07477439
v -0.46667118 -0.19505502 -0.07477439
v -0.46035140 -0.21082966 -0.06809811
v -0.46888722 -0.18706285 -0.06478077
v -0.46588329 -0.19505502 -0.06478077
v -0.46182875 -0.20551708 -0.06477116
v -0.45949783 -0.20915200 -0.06143143
v -0.46100802 -0.20248798 -0.05869629
v -0.46238686 -0.19505502 -0.05761824
v -0.46501327 -0.17503965 -0.05595477
v -0.45501651 -0.19505502 -0.05533416
v -0.42502625 -0.25498464 -0.05486392
v -0.35504891 -0.34501891 -0.05400019
v -0.46928117 -0.11918765 -0.05898421
v -0.34506857 -0.35501493 -0.05399059
v -0.33475993 -0.35722850 -0.05571165
v -0.33466144 -0.35457223 -0.05621389
v -0.32853863 -0.35722850 -0.05778138
v -0.47192400 -0.11918765 -0.08409942
v -0.32671656 -0.35722850 -0.08218963
v -0.33113220 -0.35722850 -0.08417300
v -0.42502625 -0.25498464 -0.08659463
v -0.44501974 -0.22504313 -0.08547179
v -0.35245534 -0.35722850 -0.08290300
v -0.35486836 -0.35482853 -0.08291900
v -0.34506857 -0.35501493 -0.08641869
v -0.35504891 -0.34501891 -0.08636430
v -0.40504914 -0.28499605 -0.08660422
v -0.44518391 -0.23447995 -0.08281343
v -0.44158902 -0.24498862 -0.08140908
v -0.44016090 -0.25025458 -0.07997913
v -0.44812220 -0.23639061 -0.07477439
v -0.45069935 -0.23140426 -0.07477439
v -0.45058444 -0.23114794 -0.06704244
v -0.45248861 -0.22585866 -0.06413777
v -0.44986220 -0.22974990 -0.06037576
v -0.45140520 -0.22310918 -0.05845317
v -0.45314521 -0.21504710 -0.05736872
v -0.45570594 -0.20551708 -0.05685368
v -0.44592257 -0.22585866 -0.05670013
v -0.44346032 -0.23506248 -0.05718957
v -0.43576167 -0.24559444 -0.05654658
v -0.41501307 -0.27502334 -0.05532137
v -0.40504914 -0.28499605 -0.05473916
v -0.36506209 -0.33499956 -0.05423691
v -0.36471738 -0.34457618 -0.05714799
v -0.35473703 -0.35468872 -0.05703603
v -0.46718006 -0.11918765 -0.06445767
v -0.32715976 -0.35722850 -0.05947045
v -0.32387676 -0.35722850 -0.06460802
v -0.34495366 -0.35722850 -0.05472636
v -0.46826347 -0.11918765 -0.08183774
v -0.32625694 -0.35722850 -0.08183774
v -0.43500659 -0.24498862 -0.08531184
v -0.41501307 -0.27502334 -0.08587486
v -0.35360440 -0.35722850 -0.08223121
v -0.36138511 -0.35138002 -0.08108918
v -0.36484870 -0.34473928 -0.08284222
v -0.36506209 -0.33499956 -0.08628433
v -0.37504244 -0.32500351 -0.08612118
v -0.38505562 -0.31500750 -0.08567972
v -0.43485885 -0.25416912 -0.08237517
v -0.43142810 -0.26227781 -0.08131630
v -0.42049567 -0.28073203 -0.08040460
v -0.42924489 -0.26875541 -0.07477439
v -0.43234734 -0.26376905 -0.07477439
v -0.43735393 -0.25563706 -0.07477439
v -0.44039071 -0.25067400 -0.07477439
v -0.44349316 -0.24498862 -0.07477439
v -0.44037429 -0.25060410 -0.06808851
v -0.44808936 -0.23473627 -0.06413777
v -0.43958637 -0.24929925 -0.06142503
v -0.44144128 -0.24263523 -0.05839559
v -0.43292187 -0.25498464 -0.05747109
v -0.42533813 -0.26495738 -0.05681530
v -0.41463551 -0.28411063 -0.05778138
v -0.40518044 -0.29482901 -0.05691766
v -0.38505562 -0.31500750 -0.05518062
v -0.37504244 -0.32500351 -0.05470396
v -0.37456639 -0.33427723 -0.05759585
v -0.37092225 -0.34096455 -0.05889783
v -0.36113891 -0.35114699 -0.05872509
v -0.35332533 -0.35722850 -0.05771741
v -0.46650704 -0.11918765 -0.07063170
v -0.32307242 -0.35722850 -0.06711602
v -0.46706515 -0.11918765 -0.07866115
v -0.32294109 -0.35722850 -0.07659141
v -0.42561717 -0.26537680 -0.08372834
v -0.40542667 -0.29520182 -0.08359718
v -0.41489816 -0.28441354 -0.08267907
v -0.35751116 -0.35722850 -0.07495033
v -0.36232078 -0.35238193 -0.07477439
v -0.37115206 -0.34122086 -0.08091963
v -0.37469772 -0.33455683 -0.08258630
v -0.38454674 -0.32421127 -0.08207127
v -0.39254088 -0.31500750 -0.08185694
v -0.42238342 -0.27502334 -0.08200089
v -0.41151667 -0.29200962 -0.08136429
v -0.39035767 -0.32034337 -0.08014868
v -0.39973064 -0.30957838 -0.07653383
v -0.40870967 -0.29830082 -0.07477439
v -0.41245230 -0.29329113 -0.07477439
v -0.41744248 -0.28637081 -0.07477439
v -0.42095529 -0.28138445 -0.07477439
v -0.42517396 -0.27502334 -0.07477439
v -0.42888378 -0.26826610 -0.06478077
v -0.42069267 -0.28098833 -0.06478077
v -0.42455021 -0.27502334 -0.06478077
v -0.43205188 -0.26325644 -0.06478077
v -0.43737035 -0.25435551 -0.06476797
v -0.44239336 -0.24559444 -0.06476797
v -0.42015095 -0.28019609 -0.05962400
v -0.43101773 -0.26162538 -0.05876028
v -0.42175963 -0.27502334 -0.05832521
v -0.41107347 -0.29140377 -0.05875068
v -0.40191385 -0.30244836 -0.05819725
v -0.39561049 -0.30545414 -0.05640582
v -0.39203199 -0.31500750 -0.05830922
v -0.38428412 -0.32402488 -0.05821965
v -0.37180869 -0.34191988 -0.06478077
v -0.36714681 -0.34690627 -0.06478077
v -0.36215664 -0.35219554 -0.06478077
v -0.39007863 -0.32001716 -0.05977116
v -0.35719928 -0.35722850 -0.06478077
v -0.46608026 -0.11918765 -0.07477439
v -0.32262922 -0.35722850 -0.07364515
v -0.32277693 -0.35722850 -0.07555814
v -0.40232425 -0.30291436 -0.08184094
v -0.35756042 -0.35722850 -0.07477439
v -0.36732737 -0.34709267 -0.07477439
v -0.38086979 -0.33092193 -0.08068291
v -0.38149354 -0.33159766 -0.07477439
v -0.38650013 -0.32586566 -0.07477439
v -0.39078445 -0.32087928 -0.07477439
v -0.40005897 -0.31002111 -0.06987354
v -0.41711418 -0.28597469 -0.06478077
v -0.40005897 -0.31002111 -0.06973599
v -0.41212401 -0.29287174 -0.06478077
v -0.40839780 -0.29788140 -0.06478077
v -0.39057106 -0.32062297 -0.06478077
v -0.37696299 -0.33663062 -0.07477439
v -0.37197282 -0.34208298 -0.07477439
v -0.35723212 -0.35722850 -0.06547174
v -0.39933670 -0.30911238 -0.06306931
v -0.32269486 -0.35722850 -0.07495993
v -0.40275103 -0.30545414 -0.06575326
f 1 2 3
f 1 3 4
f 1 4 5
f 1 5 14
f 1 14 25
f 1 25 45
f 1 45 74
f 1 74 108
f 1 108 144
f 1 144 185
f 1 185 146
f 1 146 112
f 1 112 79
f 1 79 47
f 1 47 28
f 1 28 15
f 1 15 8
f 1 8 6
f 1 6 2
f 2 7 3
f 2 6 8
f 2 8 9
f 2 9 10
f 2 10 11
f 2 11 7
f 3 7 11
f 3 11 4
f 4 11 10
f 4 10 12
f 4 12 13
f 4 13 5
f 5 13 14
f 8 15 16
f 8 16 17
f 8 17 9
f 9 17 18
f 9 18 19
f 9 19 20
f 9 20 21
f 9 21 10
f 10 21 22
f 10 22 12
f 12 22 23
f 12 23 13
f 13 23 14
f 14 24 25
f 14 23 26
f 14 26 27
f 14 27 24
f 15 28 29
f 15 29 30
f 15 30 16
f 16 31 32
f 16 32 17
f 16 30 31
f 17 32 18
f 18 32 33
f 18 33 34
f 18 34 19
f 19 34 35
f 19 35 36
f 19 36 20
f 20 37 38
f 20 38 39
f 20 39 22
f 20 22 21
f 20 36 37
f 22 39 40
f 22 40 23
f 23 40 41
f 23 41 42
f 23 42 26
f 24 43 25
f 24 27 44
f 24 44 43
f 25 43 46
f 25 46 45
f 26 42 27
f 27 42 44
f 28 47 48
f 28 48 29
f 29 49 50
f 29 50 31
f 29 31 30
f 29 48 51
f 29 51 52
f 29 52 49
f 31 53 32
f 31 50 53
f 32 53 33
f 33 54 55
f 33 55 34
f 33 53 54
f 34 55 56
f 34 56 35
f 35 56 57
f 35 57 58
f 35 58 59
f 35 59 60
f 35 60 61
f 35 61 62
f 35 62 36
f 36 62 63
f 36 63 64
f 36 64 37
f 37 64 40
f 37 40 38
f 38 40 39
f 40 64 65
f 40 65 66
f 40 66 67
f 40 67 68
f 40 68 41
f 41 68 69
f 41 69 42
f 42 69 70
f 42 70 44
f 43 44 70
f 43 70 71
f 43 71 72
f 43 72 73
f 43 73 46
f 45 46 75
f 45 75 76
f 45 76 77
f 45 77 78
f 45 78 74
f 46 73 75
f 47 79 80
f 47 80 81
f 47 81 51
f 47 51 48
f 49 82 83
f 49 83 50
f 49 52 82
f 50 83 54
f 50 54 53
f 51 81 80
f 51 80 113
f 51 113 147
f 51 147 187
f 51 187 205
f 51 205 186
f 51 186 145
f 51 145 110
f 51 110 109
f 51 109 78
f 51 78 76
f 51 76 111
f 51 111 143
f 51 143 184
f 51 184 203
f 51 203 189
f 51 189 151
f 51 151 116
f 51 116 84
f 51 84 85
f 51 85 86
f 51 86 52
f 52 86 87
f 52 87 88
f 52 88 82
f 54 83 55
f 55 83 89
f 55 89 56
f 56 89 90
f 56 90 57
f 57 90 91
f 57 91 92
f 57 92 93
f 57 93 58
f 58 63 59
f 58 93 94
f 58 94 63
f 59 63 60
f 60 63 61
f 61 63 62
f 63 94 95
f 63 95 96
f 63 96 67
f 63 67 66
f 63 66 65
f 63 65 64
f 67 96 68
f 68 96 97
f 68 97 98
f 68 98 69
f 69 98 99
f 69 99 71
f 69 71 70
f 71 99 100
f 71 100 72
f 72 100 101
f 72 101 102
f 72 102 103
f 72 103 104
f 72 104 73
f 73 105 106
f 73 106 107
f 73 107 75
f 73 104 105
f 74 78 109
f 74 109 110
f 74 110 108
f 75 107 111
f 75 111 76
f 76 78 77
f 79 112 80
f 80 112 113
f 82 114 83
f 82 88 115
f 82 115 114
f 83 114 89
f 84 116 85
f 85 117 118
f 85 118 119
f 85 119 87
f 85 87 86
f 85 116 117
f 87 119 88
f 88 119 120
f 88 120 121
f 88 121 115
f 89 114 122
f 89 122 90
f 90 122 123
f 90 123 91
f 91 123 124
f 91 124 125
f 91 125 126
f 91 126 127
f 91 127 128
f 91 128 129
f 91 129 92
f 92 129 130
f 92 130 94
f 92 94 93
f 94 130 131
f 94 131 96
f 94 96 95
f 96 131 132
f 96 132 133
f 96 133 97
f 97 133 101
f 97 101 98
f 98 101 99
f 99 101 100
f 101 133 134
f 101 134 102
f 102 134 135
f 102 135 103
f 103 135 136
f 103 136 137
f 103 137 138
f 103 138 104
f 104 138 139
f 104 139 105
f 105 139 138
f 105 138 106
f 106 138 140
f 106 140 141
f 106 141 142
f 106 142 107
f 107 142 143
f 107 143 111
f 108 110 145
f 108 145 144
f 112 146 147
f 112 147 113
f 114 115 148
f 114 148 122
f 115 121 149
f 115 149 150
f 115 150 148
f 116 151 117
f 117 151 152
f 117 152 153
f 117 153 118
f 118 153 154
f 118 154 120
f 118 120 119
f 120 154 121
f 121 154 155
f 121 155 156
f 121 156 149
f 122 148 157
f 122 157 123
f 123 157 124
f 124 157 158
f 124 158 159
f 124 159 160
f 124 160 161
f 124 161 162
f 124 162 163
f 124 163 164
f 124 164 165
f 124 165 125
f 125 166 130
f 125 130 126
f 125 165 167
f 125 167 168
f 125 168 166
f 126 130 127
f 127 130 128
f 128 130 129
f 130 166 169
f 130 169 170
f 130 170 132
f 130 132 171
f 130 171 131
f 131 171 132
f 132 170 169
f 132 169 172
f 132 172 173
f 132 173 133
f 133 173 134
f 134 173 174
f 134 174 135
f 135 174 136
f 136 175 137
f 136 174 175
f 137 175 176
f 137 176 177
f 137 177 138
f 138 177 178
f 138 178 140
f 140 178 179
f 140 179 141
f 141 180 181
f 141 181 182
f 141 182 142
f 141 179 183
f 141 183 180
f 142 182 184
f 142 184 143
f 144 145 185
f 145 186 185
f 146 185 147
f 147 185 187
f 148 150 157
f 149 156 188
f 149 188 158
f 149 158 150
f 150 158 157
f 151 189 152
f 152 182 190
f 152 190 153
f 152 189 182
f 153 190 191
f 153 191 154
f 154 191 155
f 155 191 156
f 156 191 159
f 156 159 188
f 158 188 159
f 159 191 192
f 159 192 193
f 159 193 194
f 159 194 160
f 160 195 161
f 160 194 195
f 161 195 162
f 162 196 163
f 162 195 197
f 162 197 196
f 163 196 167
f 163 167 164
f 164 167 165
f 166 168 172
f 166 172 169
f 167 172 168
f 167 196 172
f 172 174 173
f 172 196 198
f 172 198 199
f 172 199 183
f 172 183 175
f 172 175 174
f 175 183 176
f 176 183 178
f 176 178 177
f 178 183 179
f 180 183 200
f 180 200 192
f 180 192 201
f 180 201 202
f 180 202 190
f 180 190 181
f 181 190 182
f 182 189 203
f 182 203 184
f 183 199 204
f 183 204 197
f 183 197 200
f 185 186 205
f 185 205 187
f 190 202 191
f 191 202 201
f 191 201 192
f 192 200 193
f 193 200 197
f 193 197 194
f 194 197 195
f 196 197 198
f 197 204 206
f 197 206 199
f 197 199 198
f 199 206 204

