# https://github.com/mikedh/trimesh
v 0.17918582 0.00525823 -0.03237247
v 0.16488002 0.00236408 -0.03056546
v 0.04525692 0.00491711 -0.00688964
v 0.17143365 0.00921526 -0.02938496
v 0.18247540 0.00684535 -0.03237247
v 0.18048636 -0.00521962 -0.03237247
v 0.15883639 -0.00058394 -0.02995872
v 0.15883639 0.00056510 -0.02995872
v 0.04525692 0.00463703 -0.00688964
v 0.02771254 0.01876311 0.01420757
v 0.04525692 0.01215610 -0.00263590
v 0.17808930 0.01028890 -0.03011041
v 0.05859371 0.00050765 -0.00994968
v 0.18800901 0.00904649 -0.03237247
v 0.16488002 -0.00215311 -0.03056546
v 0.18487244 -0.00692883 -0.03237247
v 0.17918582 -0.01018206 -0.02989937
v 0.04525692 -0.00502931 -0.00687645
v 0.05859371 -0.00061985 -0.00994968
v 0.02771254 -0.01198463 0.01420757
v 0.04525692 0.01242540 -0.00245784
v 0.02771254 0.01876670 0.01449115
v 0.24263120 0.01407716 -0.03237247
v 0.23245648 0.01414179 -0.03237247
v 0.22246026 0.01368217 -0.03237247
v 0.20412537 0.01245413 -0.03237247
v 0.18487244 0.01092446 -0.03078968
v 0.19565918 0.01120095 -0.03237247
v 0.19489416 -0.01014616 -0.03237247
v 0.18487244 -0.01070272 -0.03047972
v 0.04525692 -0.01243347 -0.00244465
v 0.02771254 -0.01791658 0.01424714
v 0.19948426 0.01200528 -0.03237247
v 0.19489416 0.01175752 -0.03185806
v 0.02771254 0.01875593 0.01521000
v 0.25209191 0.01384735 -0.03237247
v 0.20228932 -0.01197386 -0.03237247
v 0.19489416 -0.01152501 -0.03152832
v 0.04525692 -0.01590216 0.00520548
v 0.20486488 -0.01221085 -0.03237247
v 0.02771254 -0.01791298 0.01521000
v 0.21486111 -0.01280332 -0.03237247
v 0.23485353 -0.01357893 -0.03237247
v 0.24487525 -0.01372615 -0.03237247
v 0.25487146 -0.01352866 -0.03237247
v 0.02771254 0.01775410 0.02516176
v 0.26160360 0.01301429 -0.03237247
v 0.02771254 0.01513643 0.03484313
v 0.02771254 0.01509334 0.03500140
v 0.02771254 -0.01680344 0.02523430
v 0.26486768 -0.01264892 -0.03237247
v 0.02771254 -0.01411754 0.03500140
v 0.25487146 0.01178266 -0.02741967
v 0.27116631 0.01171802 -0.03237247
v 0.02840106 0.01469836 0.03500140
v 0.27746496 0.00852224 -0.03052589
v 0.27080931 0.01017399 -0.02954324
v 0.26486768 0.01086342 -0.02876504
v 0.27312987 -0.01153219 -0.03237247
v 0.25487146 -0.01183382 -0.02746584
v 0.02804405 -0.01381592 0.03500140
v 0.26486768 -0.01101512 -0.02870569
v 0.27096230 -0.01033647 -0.02949048
v 0.27761795 -0.00865240 -0.03051929
v 0.27453240 -0.00521244 -0.02824404
v 0.25007737 -0.00023564 -0.01971679
v 0.27300236 0.01136972 -0.03237247
v 0.03153762 0.01105014 0.03500140
v 0.25007737 0.00013780 -0.01971679
v 0.27443039 0.00508947 -0.02827701
v 0.28210607 0.00185778 -0.02912117
v 0.28814970 0.00504279 -0.03237247
v 0.27970902 0.00960665 -0.03237247
v 0.27608794 -0.01047651 -0.03237247
v 0.03434268 -0.00506522 0.03500140
v 0.28822619 -0.00516576 -0.03237247
v 0.28210607 -0.00198793 -0.02912117
v 0.03515870 0.00509665 0.03500140
v 0.03515870 0.00539468 0.03500140
f 1 2 3
f 1 3 4
f 1 4 5
f 1 5 14
f 1 14 28
f 1 28 33
f 1 33 26
f 1 26 25
f 1 25 24
f 1 24 23
f 1 23 36
f 1 36 47
f 1 47 54
f 1 54 67
f 1 67 73
f 1 73 72
f 1 72 76
f 1 76 74
f 1 74 59
f 1 59 51
f 1 51 45
f 1 45 44
f 1 44 43
f 1 43 42
f 1 42 40
f 1 40 37
f 1 37 29
f 1 29 16
f 1 16 6
f 1 6 7
f 1 7 8
f 1 8 2
f 2 8 3
f 3 9 20
f 3 20 10
f 3 10 11
f 3 11 12
f 3 12 4
f 3 8 13
f 3 13 19
f 3 19 9
f 4 12 5
f 5 12 14
f 6 15 7
f 6 16 17
f 6 17 18
f 6 18 15
f 7 15 18
f 7 18 19
f 7 19 13
f 7 13 8
f 9 18 20
f 9 19 18
f 10 21 11
f 10 20 32
f 10 32 41
f 10 41 50
f 10 50 52
f 10 52 49
f 10 49 48
f 10 48 46
f 10 46 35
f 10 35 22
f 10 22 23
f 10 23 24
f 10 24 25
f 10 25 26
f 10 26 21
f 11 21 12
f 12 27 28
f 12 28 14
f 12 21 27
f 16 29 17
f 17 29 30
f 17 30 31
f 17 31 18
f 18 31 32
f 18 32 20
f 21 26 33
f 21 33 34
f 21 34 27
f 22 35 36
f 22 36 23
f 27 34 28
f 28 34 33
f 29 37 38
f 29 38 30
f 30 38 31
f 31 39 32
f 31 38 37
f 31 37 40
f 31 40 39
f 32 39 42
f 32 42 43
f 32 43 44
f 32 44 45
f 32 45 41
f 35 46 36
f 36 46 48
f 36 48 49
f 36 49 47
f 39 40 42
f 41 45 50
f 45 51 52
f 45 52 50
f 47 53 54
f 47 49 53
f 49 52 61
f 49 61 75
f 49 75 78
f 49 78 79
f 49 79 68
f 49 68 55
f 49 55 56
f 49 56 57
f 49 57 58
f 49 58 53
f 51 59 60
f 51 60 52
f 52 60 62
f 52 62 63
f 52 63 64
f 52 64 65
f 52 65 66
f 52 66 61
f 53 58 54
f 54 58 67
f 55 68 69
f 55 69 70
f 55 70 56
f 56 70 71
f 56 71 72
f 56 72 73
f 56 73 57
f 57 73 67
f 57 67 58
f 59 74 63
f 59 63 62
f 59 62 60
f 61 66 75
f 63 74 64
f 64 74 76
f 64 76 77
f 64 77 65
f 65 77 66
f 66 78 75
f 66 77 71
f 66 71 69
f 66 69 79
f 66 79 78
f 68 79 69
f 69 71 70
f 71 77 76
f 71 76 72

