# https://github.com/mikedh/trimesh
v 0.01461521 0.01463516 0.10481563
v 0.02378989 0.00494188 0.10465161
v 0.02204201 0.01493764 0.10353759
v 0.01491446 0.02205979 0.10359226
v 0.00491684 0.02386096 0.10473362
v -0.00507397 0.02383346 0.10474045
v -0.02387221 0.00494188 0.10475412
v -0.02386541 -0.00505388 0.10474045
v -0.01744517 -0.00505388 0.10474045
v 0.02368787 -0.00505388 0.10468578
v 0.02767332 0.00494188 0.09519952
v 0.02417075 0.01493764 0.09519952
v 0.02039614 0.02040987 0.10147357
v 0.01491446 0.02419094 0.09519952
v 0.00491684 0.02780701 0.09519952
v -0.00507397 0.02775201 0.09519952
v -0.01507839 0.02197042 0.10344190
v -0.01478594 0.01464203 0.10473362
v -0.02209712 0.01493764 0.10342824
v -0.02769443 0.00494188 0.09519952
v -0.02769443 -0.00505388 0.09519952
v -0.02207672 -0.01504964 0.10338723
v -0.01476554 -0.01474028 0.10463794
v -0.00507397 -0.02367734 0.10456275
v 0.00491684 -0.02358109 0.10456275
v 0.02175636 -0.01504964 0.10309334
v 0.02753049 -0.00505388 0.09519952
v 0.03514772 0.00509313 0.03500140
v 0.03513412 0.00539561 0.03500140
v 0.02061378 0.02062986 0.09519952
v 0.01105143 0.03159495 0.03500140
v 0.00552894 0.03532789 0.03500140
v 0.03152274 0.01104658 0.03500140
v 0.00516168 0.03536914 0.03500140
v -0.00520999 0.03463355 0.03500140
v -0.01507839 0.02399157 0.09519952
v -0.02047166 0.02032738 0.10126170
v -0.02408984 0.01493764 0.09519952
v -0.03421668 0.00437816 0.03500140
v -0.03433230 -0.00459328 0.03500140
v -0.03431870 -0.00466890 0.03500140
v -0.02411025 -0.01504964 0.09519952
v -0.02046486 -0.02043937 0.10122753
v -0.01507839 -0.02202055 0.10333255
v -0.00507397 -0.02741716 0.09519952
v 0.00491684 -0.02723841 0.09519952
v 0.01491446 -0.02181430 0.10303183
v 0.02370148 -0.01504964 0.09519952
v 0.02015810 -0.02028813 0.10083797
v 0.03431799 -0.00506763 0.03500140
v 0.02206241 0.02210104 0.03500140
v -0.00530521 0.03456480 0.03500140
v -0.02063489 0.02049237 0.09519952
v -0.02804128 0.01376207 0.03500140
v -0.03407385 0.00463940 0.03500140
v -0.03093855 -0.01046424 0.03500140
v -0.02065529 -0.02063186 0.09519952
v -0.01059646 -0.03134946 0.03500140
v -0.00514878 -0.03484179 0.03500140
v -0.01507839 -0.02404170 0.09519952
v -0.00503997 -0.03484867 0.03500140
v 0.00459039 -0.03428495 0.03500140
v 0.01491446 -0.02364984 0.09519952
v 0.00486243 -0.03410620 0.03500140
v 0.01398271 -0.02752715 0.03500140
v 0.02028732 -0.02041188 0.09519952
v 0.02801337 -0.01381907 0.03500140
v -0.01392900 0.02804075 0.03500140
v -0.02163465 0.02166794 0.03500140
v -0.02183868 0.02146170 0.03500140
v -0.02795287 -0.01458216 0.03500140
v -0.02194750 -0.02191055 0.03500140
v -0.01471793 -0.02796713 0.03500140
v -0.01387459 -0.02866834 0.03500140
v 0.02142311 -0.02171118 0.03500140
v 0.02163394 -0.02149807 0.03500140
f 1 2 3
f 1 3 4
f 1 4 5
f 1 5 6
f 1 6 7
f 1 7 8
f 1 8 9
f 1 9 10
f 1 10 2
f 2 11 3
f 2 10 11
f 3 12 13
f 3 13 4
f 3 11 12
f 4 13 14
f 4 14 15
f 4 15 5
f 5 15 6
f 6 15 16
f 6 16 17
f 6 17 18
f 6 18 7
f 7 18 19
f 7 19 20
f 7 20 21
f 7 21 8
f 8 21 22
f 8 22 23
f 8 23 24
f 8 24 9
f 9 24 25
f 9 25 10
f 10 25 26
f 10 26 27
f 10 27 11
f 11 28 29
f 11 29 12
f 11 27 28
f 12 29 13
f 13 30 31
f 13 31 32
f 13 32 14
f 13 29 33
f 13 33 30
f 14 32 15
f 15 32 34
f 15 34 16
f 16 34 35
f 16 35 36
f 16 36 17
f 17 36 37
f 17 37 19
f 17 19 18
f 19 37 38
f 19 38 20
f 20 38 39
f 20 39 40
f 20 40 21
f 21 40 41
f 21 41 42
f 21 42 22
f 22 42 43
f 22 43 44
f 22 44 23
f 23 44 24
f 24 44 45
f 24 45 25
f 25 45 46
f 25 46 47
f 25 47 26
f 26 48 27
f 26 47 49
f 26 49 48
f 27 48 50
f 27 50 28
f 28 50 67
f 28 67 76
f 28 76 75
f 28 75 65
f 28 65 64
f 28 64 62
f 28 62 61
f 28 61 59
f 28 59 58
f 28 58 74
f 28 74 73
f 28 73 72
f 28 72 71
f 28 71 56
f 28 56 41
f 28 41 40
f 28 40 39
f 28 39 55
f 28 55 54
f 28 54 70
f 28 70 69
f 28 69 68
f 28 68 52
f 28 52 35
f 28 35 34
f 28 34 32
f 28 32 31
f 28 31 51
f 28 51 33
f 28 33 29
f 30 51 31
f 30 33 51
f 35 52 37
f 35 37 36
f 37 53 54
f 37 54 55
f 37 55 38
f 37 52 53
f 38 55 39
f 41 56 42
f 42 56 43
f 43 56 57
f 43 57 58
f 43 58 59
f 43 59 60
f 43 60 44
f 44 60 45
f 45 60 59
f 45 59 61
f 45 61 46
f 46 61 62
f 46 62 63
f 46 63 47
f 47 63 49
f 48 49 50
f 49 63 62
f 49 62 64
f 49 64 65
f 49 65 66
f 49 66 67
f 49 67 50
f 52 68 53
f 53 68 69
f 53 69 70
f 53 70 54
f 56 71 57
f 57 72 73
f 57 73 74
f 57 74 58
f 57 71 72
f 65 75 66
f 66 75 76
f 66 76 67

