# https://github.com/mikedh/trimesh
v -0.02412239 -0.02165848 0.01421200
v -0.01206174 -0.06895156 0.01421200
v -0.02412239 -0.02165848 0.01521321
v -0.02412239 0.02093944 0.01421200
v -0.01083893 -0.07298087 0.01421200
v -0.02412239 -0.01908041 0.03500140
v -0.02412239 -0.02077067 0.02521109
v -0.02412239 0.02092236 0.01521321
v -0.01210233 0.06896667 0.01421200
v -0.00807366 -0.08033946 0.01421200
v -0.00559252 -0.08564927 0.01421200
v -0.00515617 -0.08655415 0.01421200
v -0.02195076 -0.02189751 0.03500140
v -0.02412239 0.01854917 0.03500140
v -0.02412239 0.02049553 0.02159493
v -0.00555701 0.08493022 0.01421200
v -0.02412239 0.01955650 0.03083172
v 0.00200310 -0.08774928 0.01421200
v -0.00515109 -0.03483908 0.03500140
v -0.01059538 -0.03133905 0.03500140
v -0.01387819 -0.02865854 0.03500140
v -0.01471539 -0.02795854 0.03500140
v -0.02183914 0.02145164 0.03500140
v -0.00512573 0.08590340 0.01421200
v 0.00515906 -0.08821026 0.01421200
v -0.00504454 -0.03483908 0.03500140
v -0.02173766 0.02155408 0.03500140
v -0.01393401 0.02804194 0.03500140
v -0.00530839 0.03456394 0.03500140
v -0.00521198 0.03463224 0.03500140
v 0.00516414 0.03536639 0.03500140
v -0.00399425 0.08595462 0.01421200
v -0.02163111 0.02165652 0.03500140
v 0.00652394 -0.08503463 0.01421200
v 0.02771253 -0.01411208 0.03500140
v 0.02163400 -0.02148775 0.03500140
v 0.02152745 -0.02160726 0.03500140
v 0.02142090 -0.02170970 0.03500140
v 0.01398257 -0.02753170 0.03500140
v 0.00485970 -0.03410493 0.03500140
v 0.00459079 -0.03427566 0.03500140
v 0.00552946 0.03531517 0.03500140
v 0.00499162 0.08621072 0.01421200
v 0.01219148 -0.06990767 0.01421200
v 0.02771253 -0.01421452 0.03462900
v 0.02771253 0.01508329 0.03500140
v 0.01105493 0.03159318 0.03500140
v 0.00800044 0.08021798 0.01421200
v 0.02206528 0.02210042 0.03500140
v 0.02743854 -0.01798772 0.01421200
v 0.02771253 -0.01790235 0.01424863
v 0.02771253 -0.01790235 0.01521321
v 0.02771253 -0.01679259 0.02523551
v 0.02771253 0.01513451 0.03484471
v 0.01078601 0.07301305 0.01421200
v 0.02771253 -0.01197791 0.01421200
v 0.02771253 0.01774673 0.02516225
v 0.02771253 0.01875405 0.01421200
v 0.02771253 0.01875405 0.01521321
f 1 2 3
f 1 3 7
f 1 7 6
f 1 6 14
f 1 14 17
f 1 17 15
f 1 15 8
f 1 8 4
f 1 4 9
f 1 9 16
f 1 16 24
f 1 24 32
f 1 32 43
f 1 43 48
f 1 48 55
f 1 55 58
f 1 58 56
f 1 56 50
f 1 50 44
f 1 44 34
f 1 34 25
f 1 25 18
f 1 18 12
f 1 12 11
f 1 11 10
f 1 10 5
f 1 5 2
f 2 5 6
f 2 6 7
f 2 7 3
f 4 8 9
f 5 10 6
f 6 10 11
f 6 11 12
f 6 12 13
f 6 13 22
f 6 22 21
f 6 21 20
f 6 20 19
f 6 19 26
f 6 26 41
f 6 41 40
f 6 40 39
f 6 39 38
f 6 38 37
f 6 37 36
f 6 36 35
f 6 35 46
f 6 46 49
f 6 49 47
f 6 47 42
f 6 42 31
f 6 31 30
f 6 30 29
f 6 29 28
f 6 28 33
f 6 33 27
f 6 27 23
f 6 23 14
f 8 15 9
f 9 15 17
f 9 17 14
f 9 14 16
f 12 18 19
f 12 19 20
f 12 20 21
f 12 21 22
f 12 22 13
f 14 23 24
f 14 24 16
f 18 25 19
f 19 25 26
f 23 27 24
f 24 28 29
f 24 29 30
f 24 30 31
f 24 31 32
f 24 27 33
f 24 33 28
f 25 34 35
f 25 35 36
f 25 36 37
f 25 37 38
f 25 38 39
f 25 39 40
f 25 40 41
f 25 41 26
f 31 42 43
f 31 43 32
f 34 44 35
f 35 44 45
f 35 45 53
f 35 53 52
f 35 52 51
f 35 51 56
f 35 56 58
f 35 58 59
f 35 59 57
f 35 57 54
f 35 54 46
f 42 47 43
f 43 47 49
f 43 49 46
f 43 46 48
f 44 50 51
f 44 51 52
f 44 52 53
f 44 53 45
f 46 54 55
f 46 55 48
f 50 56 51
f 54 57 55
f 55 57 59
f 55 59 58

