# https://github.com/mikedh/trimesh
v 0.00499186 0.08621228 0.01421200
v 0.00221784 0.10494697 0.01100180
v 0.00032131 0.11054987 0.01034516
v -0.00046183 0.11054987 0.01034516
v -0.00399383 0.08598716 0.01421200
v 0.00800176 0.08023418 0.01421200
v 0.00924410 0.09836856 0.00980253
v 0.00963410 0.18914053 -0.00996486
v 0.00312364 0.19491852 -0.00861968
v 0.00114220 0.20167201 -0.00938119
v -0.00512608 0.08593713 0.01421200
v -0.00121981 0.20167201 -0.00938119
v 0.01078836 0.07303046 0.01421200
v 0.01006498 0.23056197 -0.01964564
v 0.00853644 0.23721541 -0.02048923
v 0.01195207 0.06915345 0.01421200
v 0.00186873 0.24269324 -0.01912125
v 0.00006341 0.29009277 -0.02973225
v -0.00919905 0.09789332 0.00965661
v -0.00555697 0.08493662 0.01421200
v -0.00306601 0.19491852 -0.00861968
v -0.00958905 0.18864028 -0.01012446
v -0.00022280 0.29009277 -0.02973225
v -0.00197150 0.24269324 -0.01912125
v -0.00521415 0.23421386 -0.01848742
v -0.01019606 0.23043690 -0.01966844
v 0.01060280 0.22490905 -0.01907565
v 0.01176651 0.25489954 -0.02752980
v 0.01091732 0.26490474 -0.02870627
v 0.01024740 0.27143311 -0.02944954
v 0.00906482 0.27808656 -0.03027033
v 0.00540702 0.27480987 -0.02802227
v 0.01409077 0.05594661 0.01421200
v 0.01146457 0.21490386 -0.01801774
v 0.00188445 0.28489007 -0.02907106
v 0.00395081 0.29379469 -0.03237247
v 0.00388477 0.29389476 -0.03237247
v -0.00408504 0.29394476 -0.03237247
v -0.01034074 0.09123987 0.01047740
v -0.01210517 0.06897836 0.01421200
v -0.00201868 0.28489007 -0.02907106
v -0.00554439 0.27485987 -0.02799948
v -0.00918647 0.27816159 -0.03031137
v -0.01044767 0.27150815 -0.02940850
v -0.01111759 0.26490474 -0.02866067
v 0.01232949 0.24489438 -0.02638525
v 0.01310634 0.26157802 -0.03237247
v 0.01189231 0.27165825 -0.03237247
v 0.01548722 0.04594144 0.01421200
v 0.01157151 0.27355920 -0.03237247
v 0.01022224 0.28048780 -0.03237247
v 0.00776588 0.28671601 -0.03237247
v 0.00419614 0.29339449 -0.03237247
v -0.00429262 0.29359456 -0.03237247
v -0.01434137 0.05494610 0.01421200
v -0.00825236 0.28489007 -0.03237247
v -0.01101065 0.27636068 -0.03237247
v -0.01176864 0.27363426 -0.03237247
v -0.01191960 0.25489954 -0.02757084
v 0.01394924 0.25202309 -0.03237247
v 0.01608479 0.03841254 0.01421200
v -0.01563088 0.04494092 0.01421200
v -0.01286315 0.26490474 -0.03237247
v 0.01488335 0.20489868 -0.02478015
v 0.01437383 0.24249313 -0.03237247
v -0.01585733 0.03841254 0.01421200
v 0.01619802 0.03841254 0.01174051
v 0.01514754 0.19491852 -0.02478015
v -0.01382871 0.25489954 -0.03237247
v -0.01439483 0.21490386 -0.02478015
v -0.01430048 0.24489438 -0.03237247
v -0.01478798 0.20489868 -0.02478015
v 0.01459399 0.23248796 -0.03237247
v -0.01586676 0.04494092 0.00521066
v -0.01590450 0.03841254 0.00521066
v -0.01496096 0.19491852 -0.02478015
v 0.01620116 0.03841254 0.01108387
v 0.01495254 0.18491334 -0.02478015
v 0.01455311 0.22250780 -0.03237247
v 0.01622004 0.03841254 0.00521066
v -0.01437282 0.22490905 -0.03237247
v -0.01396395 0.03841254 -0.00126904
v -0.01477225 0.18491334 -0.02478015
v -0.01431935 0.17490817 -0.02478015
v 0.01405617 0.21250262 -0.03237247
v 0.01287045 0.03841254 -0.00421476
v -0.01391677 0.21490386 -0.03237247
v -0.01273734 0.03841254 -0.00404149
v -0.01270589 0.19491852 -0.03237247
v -0.01213347 0.18698942 -0.03237247
v 0.01279182 0.19374291 -0.03237247
v 0.01021909 0.03841254 -0.00588827
v 0.00998635 0.15965027 -0.02984625
v 0.01053675 0.16492801 -0.03040713
v 0.01143941 0.17490817 -0.03141488
v 0.01209046 0.18478829 -0.03237247
v 0.01209989 0.18488834 -0.03237247
v -0.00507891 0.03841254 -0.00846920
v -0.01204226 0.18491334 -0.03216727
v -0.01144154 0.17490817 -0.03129176
v -0.01076848 0.16662889 -0.03051201
v -0.01005453 0.16000046 -0.02976418
v -0.01173718 0.18493835 -0.03237247
v 0.00490694 0.03841254 -0.00863336
v 0.00594484 0.16387745 -0.03237247
v 0.00816217 0.16913017 -0.03237247
v 0.01028829 0.17660905 -0.03237247
v -0.00150287 0.14784416 -0.03029769
v -0.00603818 0.16425265 -0.03237247
v -0.00362899 0.15494784 -0.03118232
v -0.00955445 0.17490817 -0.03237247
v 0.00143155 0.14784416 -0.03029769
v 0.00488807 0.16210154 -0.03237247
f 1 2 3
f 1 3 4
f 1 4 5
f 1 5 11
f 1 11 20
f 1 20 40
f 1 40 55
f 1 55 62
f 1 62 66
f 1 66 61
f 1 61 49
f 1 49 33
f 1 33 16
f 1 16 13
f 1 13 6
f 1 6 7
f 1 7 8
f 1 8 9
f 1 9 10
f 1 10 2
f 2 10 3
f 3 10 12
f 3 12 4
f 4 11 5
f 4 12 11
f 6 13 7
f 7 13 8
f 8 14 15
f 8 15 9
f 8 13 16
f 8 16 14
f 9 15 10
f 10 15 17
f 10 17 18
f 10 18 23
f 10 23 12
f 11 19 20
f 11 12 21
f 11 21 22
f 11 22 19
f 12 23 24
f 12 24 25
f 12 25 26
f 12 26 21
f 14 27 28
f 14 28 29
f 14 29 30
f 14 30 31
f 14 31 15
f 14 16 27
f 15 31 32
f 15 32 17
f 16 33 34
f 16 34 27
f 17 32 35
f 17 35 18
f 18 35 36
f 18 36 37
f 18 37 38
f 18 38 23
f 19 39 20
f 19 22 39
f 20 39 40
f 21 26 22
f 22 26 40
f 22 40 39
f 23 38 41
f 23 41 24
f 24 41 42
f 24 42 25
f 25 42 26
f 26 42 43
f 26 43 44
f 26 44 45
f 26 45 40
f 27 34 28
f 28 46 47
f 28 47 48
f 28 48 29
f 28 34 33
f 28 33 49
f 28 49 46
f 29 48 30
f 30 48 50
f 30 50 51
f 30 51 31
f 31 51 52
f 31 52 53
f 31 53 36
f 31 36 35
f 31 35 32
f 36 53 52
f 36 52 51
f 36 51 50
f 36 50 48
f 36 48 47
f 36 47 60
f 36 60 65
f 36 65 73
f 36 73 79
f 36 79 85
f 36 85 91
f 36 91 97
f 36 97 96
f 36 96 107
f 36 107 106
f 36 106 105
f 36 105 113
f 36 113 109
f 36 109 111
f 36 111 103
f 36 103 90
f 36 90 89
f 36 89 87
f 36 87 81
f 36 81 71
f 36 71 69
f 36 69 63
f 36 63 58
f 36 58 57
f 36 57 56
f 36 56 54
f 36 54 38
f 36 38 37
f 38 54 43
f 38 43 41
f 40 45 55
f 41 43 42
f 43 54 56
f 43 56 57
f 43 57 58
f 43 58 44
f 44 58 45
f 45 58 59
f 45 59 55
f 46 49 47
f 47 49 60
f 49 61 60
f 55 59 62
f 58 63 59
f 59 63 62
f 60 64 65
f 60 61 64
f 61 66 75
f 61 75 82
f 61 82 88
f 61 88 98
f 61 98 104
f 61 104 92
f 61 92 86
f 61 86 80
f 61 80 77
f 61 77 67
f 61 67 68
f 61 68 64
f 62 63 69
f 62 69 70
f 62 70 71
f 62 71 72
f 62 72 66
f 64 68 65
f 65 68 73
f 66 74 75
f 66 72 76
f 66 76 74
f 67 77 68
f 68 78 79
f 68 79 73
f 68 77 80
f 68 80 78
f 69 71 70
f 71 81 76
f 71 76 72
f 74 76 75
f 75 76 83
f 75 83 84
f 75 84 82
f 76 81 83
f 78 85 79
f 78 80 85
f 80 86 85
f 81 87 84
f 81 84 83
f 82 84 89
f 82 89 90
f 82 90 88
f 84 87 89
f 85 86 91
f 86 92 93
f 86 93 94
f 86 94 95
f 86 95 96
f 86 96 97
f 86 97 91
f 88 90 99
f 88 99 100
f 88 100 101
f 88 101 102
f 88 102 98
f 90 103 100
f 90 100 99
f 92 104 93
f 93 105 106
f 93 106 94
f 93 104 105
f 94 106 107
f 94 107 95
f 95 107 96
f 98 108 104
f 98 102 109
f 98 109 110
f 98 110 108
f 100 103 111
f 100 111 101
f 101 111 109
f 101 109 102
f 104 108 112
f 104 112 113
f 104 113 105
f 108 110 109
f 108 109 113
f 108 113 112

