# https://github.com/mikedh/trimesh
v 0.10125491 -0.28760038 -0.07477684
v 0.10125491 -0.28799790 -0.07131086
v 0.10125491 -0.28875778 -0.08140382
v 0.02494650 -0.30182684 -0.07480535
v 0.10125491 -0.28901107 -0.06683017
v 0.10125491 -0.29475582 -0.08523179
v 0.02494650 -0.30579505 -0.08396910
v 0.02494650 -0.30484874 -0.06480929
v 0.10125491 -0.28998202 -0.06489195
v 0.10125491 -0.30539753 -0.08417718
v 0.09490584 -0.30502465 -0.08567074
v 0.08490418 -0.30502465 -0.08658284
v 0.07490999 -0.30502465 -0.08661990
v 0.06490833 -0.30502465 -0.08608119
v 0.02494650 -0.31504016 -0.08644318
v 0.02494650 -0.30879234 -0.05866687
v 0.10125491 -0.29145249 -0.06214710
v 0.10125491 -0.31018542 -0.08055443
v 0.09490584 -0.31130060 -0.08159479
v 0.08490418 -0.31261632 -0.08289738
v 0.07490999 -0.31372798 -0.08355296
v 0.05491413 -0.31502257 -0.08488976
v 0.04491994 -0.31502257 -0.08574770
v 0.03491828 -0.31502257 -0.08615530
v 0.02494650 -0.32160459 -0.08224751
v 0.02494650 -0.31502257 -0.05750109
v 0.10125491 -0.29588509 -0.05826212
v 0.10125491 -0.29228976 -0.06108678
v 0.10125491 -0.31045981 -0.07932594
v 0.10109059 -0.31040707 -0.08041761
v 0.06038928 -0.32010244 -0.07992451
v 0.05491413 -0.32046832 -0.08055443
v 0.04491994 -0.32098545 -0.08141808
v 0.03491828 -0.32133020 -0.08191973
v 0.02494650 -0.32353945 -0.07477684
v 0.02494650 -0.32113671 -0.05863551
v 0.06490833 -0.31330230 -0.05806545
v 0.07490999 -0.31237709 -0.05814811
v 0.08490418 -0.30502465 -0.05774052
v 0.10125491 -0.30402203 -0.05816521
v 0.10125491 -0.31087846 -0.07477684
v 0.09490584 -0.31273945 -0.07477684
v 0.08490418 -0.31537435 -0.07477684
v 0.06626031 -0.31936017 -0.07477684
v 0.06127068 -0.32025370 -0.07477684
v 0.05491413 -0.32115781 -0.07477684
v 0.04491994 -0.32222727 -0.07477684
v 0.07490999 -0.31765396 -0.07477684
v 0.03491828 -0.32294844 -0.07477684
v 0.02494650 -0.32307157 -0.06478079
v 0.04491994 -0.32037683 -0.05940510
v 0.08490418 -0.31128653 -0.05871532
v 0.05056689 -0.32012002 -0.05967018
v 0.10125491 -0.30653031 -0.05979844
v 0.09165661 -0.31046684 -0.05935379
v 0.10125491 -0.31056888 -0.06799880
v 0.10125491 -0.31053723 -0.06775081
v 0.06124827 -0.32025019 -0.06852325
v 0.04491994 -0.32161865 -0.06478079
v 0.03491828 -0.32234689 -0.06478079
v 0.05430911 -0.32063364 -0.06502592
v 0.07490999 -0.31630307 -0.06478079
v 0.08490418 -0.31404459 -0.06478079
v 0.09831940 -0.30926725 -0.06116374
v 0.10125491 -0.30875363 -0.06272001
v 0.09495812 -0.31144134 -0.06460977
f 1 2 5
f 1 5 9
f 1 9 17
f 1 17 28
f 1 28 27
f 1 27 40
f 1 40 54
f 1 54 65
f 1 65 57
f 1 57 56
f 1 56 41
f 1 41 29
f 1 29 18
f 1 18 10
f 1 10 6
f 1 6 3
f 1 3 4
f 1 4 2
f 2 4 5
f 3 6 7
f 3 7 4
f 4 7 15
f 4 15 25
f 4 25 35
f 4 35 50
f 4 50 36
f 4 36 26
f 4 26 16
f 4 16 8
f 4 8 5
f 5 8 9
f 6 10 11
f 6 11 12
f 6 12 13
f 6 13 14
f 6 14 7
f 7 14 15
f 8 16 17
f 8 17 9
f 10 18 19
f 10 19 20
f 10 20 11
f 11 20 21
f 11 21 22
f 11 22 12
f 12 22 23
f 12 23 24
f 12 24 15
f 12 15 13
f 13 15 14
f 15 24 25
f 16 26 27
f 16 27 28
f 16 28 17
f 18 29 30
f 18 30 19
f 19 30 31
f 19 31 20
f 20 31 32
f 20 32 21
f 21 32 33
f 21 33 22
f 22 33 23
f 23 33 34
f 23 34 25
f 23 25 24
f 25 34 35
f 26 36 37
f 26 37 38
f 26 38 39
f 26 39 27
f 27 39 40
f 29 41 42
f 29 42 30
f 30 42 43
f 30 43 31
f 31 44 45
f 31 45 46
f 31 46 47
f 31 47 32
f 31 43 48
f 31 48 44
f 32 47 49
f 32 49 33
f 33 49 35
f 33 35 34
f 35 49 50
f 36 50 51
f 36 51 38
f 36 38 37
f 38 52 40
f 38 40 39
f 38 51 53
f 38 53 52
f 40 52 55
f 40 55 54
f 41 56 42
f 42 56 43
f 43 56 57
f 43 57 58
f 43 58 48
f 44 48 58
f 44 58 45
f 45 58 46
f 46 58 47
f 47 58 59
f 47 59 60
f 47 60 50
f 47 50 49
f 50 60 53
f 50 53 51
f 52 53 55
f 53 60 59
f 53 59 61
f 53 61 58
f 53 58 62
f 53 62 63
f 53 63 55
f 54 55 64
f 54 64 65
f 55 63 66
f 55 66 64
f 57 65 64
f 57 64 66
f 57 66 63
f 57 63 58
f 58 61 59
f 58 63 62

