# https://github.com/mikedh/trimesh
v 0.50447623 0.02488705 -0.07477497
v 0.50395695 0.01494203 -0.06478059
v 0.50466694 0.00493971 -0.06478059
v 0.50466694 0.01494203 -0.07477497
v 0.50212364 0.02488705 -0.08245837
v 0.50311977 0.02488705 -0.06478059
v 0.50179514 0.00512205 -0.05400794
v 0.50462457 -0.00505219 -0.06478059
v 0.50479413 -0.02505163 -0.07477497
v 0.50216602 0.01494203 -0.08252984
v 0.49486453 0.02488705 -0.08604793
v 0.50076718 0.02488705 -0.05881255
v 0.50178453 -0.00485944 -0.05422633
v 0.50016316 0.00191297 -0.04947334
v 0.50016316 -0.00140551 -0.04947334
v 0.50470938 -0.02833364 -0.07477497
v 0.50348010 -0.02833364 -0.06478059
v 0.50218724 -0.02833364 -0.08246234
v 0.50221900 -0.02505163 -0.08248219
v 0.49486453 -0.02833364 -0.08606778
v 0.48596283 0.02488705 -0.08337959
v 0.39653279 0.00493971 -0.07359962
v 0.39653279 0.01014404 -0.07138792
v 0.39653279 0.01119637 -0.07093128
v 0.49486453 0.02488705 -0.05659687
v 0.49268150 0.01125368 -0.04870699
v 0.49934713 0.00858118 -0.05016028
v 0.50268530 -0.02833364 -0.06283492
v 0.50095790 -0.02833364 -0.05864975
v 0.49555334 0.00512205 -0.04791283
v 0.49510826 -0.00485944 -0.04812725
v 0.49860534 -0.00806331 -0.05052559
v 0.48590985 -0.02833364 -0.08337959
v 0.39653279 -0.01091293 -0.07060171
v 0.39653279 -0.00505219 -0.07327005
v 0.39653279 0.00328308 -0.07354801
v 0.48592046 0.02488705 -0.08336370
v 0.39653279 0.01378030 -0.06581298
v 0.49479033 0.02488705 -0.05659687
v 0.48486074 0.01185798 -0.04818284
v 0.48486074 0.00493971 -0.04550656
v 0.49193968 -0.01098065 -0.04906038
v 0.49486453 -0.02833364 -0.05641421
v 0.48486074 -0.00505219 -0.04598702
v 0.48268829 -0.02833364 -0.07749890
v 0.39653279 -0.01377818 -0.06478059
v 0.48093976 0.02488705 -0.07492983
v 0.39653279 0.01430126 -0.06478059
v 0.48493491 0.02488705 -0.05795487
v 0.39653279 0.01117553 -0.04863551
v 0.39653279 0.00597120 -0.04608629
v 0.39653279 0.00493971 -0.04559789
v 0.39653279 -0.00505219 -0.04578054
v 0.49228941 -0.02833364 -0.05672393
v 0.48486074 -0.01140783 -0.04866728
v 0.39653279 -0.01106400 -0.04882214
v 0.48115169 -0.02833364 -0.07446922
v 0.39653279 -0.01392925 -0.05478224
v 0.48068542 0.02488705 -0.07444539
v 0.39653279 0.01430647 -0.05643804
v 0.48039929 0.02488705 -0.06478059
v 0.48087617 0.02488705 -0.06345038
v 0.39653279 0.01428563 -0.05478224
v 0.39653279 0.01169649 -0.04965203
v 0.48676824 -0.02833364 -0.05754587
v 0.48146962 -0.02833364 -0.06842574
v 0.48195710 -0.02833364 -0.06495530
f 1 2 3
f 1 3 4
f 1 4 5
f 1 5 11
f 1 11 21
f 1 21 37
f 1 37 47
f 1 47 59
f 1 59 61
f 1 61 62
f 1 62 49
f 1 49 39
f 1 39 25
f 1 25 12
f 1 12 6
f 1 6 2
f 2 6 7
f 2 7 3
f 3 7 8
f 3 8 9
f 3 9 4
f 4 9 10
f 4 10 5
f 5 10 11
f 6 12 7
f 7 13 8
f 7 12 14
f 7 14 15
f 7 15 13
f 8 16 9
f 8 13 17
f 8 17 16
f 9 16 18
f 9 18 19
f 9 19 10
f 10 19 20
f 10 20 11
f 11 20 22
f 11 22 23
f 11 23 24
f 11 24 21
f 12 25 26
f 12 26 27
f 12 27 14
f 13 28 17
f 13 15 29
f 13 29 28
f 14 27 30
f 14 30 15
f 15 30 31
f 15 31 32
f 15 32 29
f 16 17 28
f 16 28 29
f 16 29 43
f 16 43 54
f 16 54 65
f 16 65 67
f 16 67 66
f 16 66 57
f 16 57 45
f 16 45 33
f 16 33 20
f 16 20 18
f 18 20 19
f 20 33 34
f 20 34 35
f 20 35 36
f 20 36 22
f 21 24 37
f 22 36 35
f 22 35 34
f 22 34 46
f 22 46 58
f 22 58 56
f 22 56 53
f 22 53 52
f 22 52 51
f 22 51 50
f 22 50 64
f 22 64 63
f 22 63 60
f 22 60 48
f 22 48 38
f 22 38 24
f 22 24 23
f 24 38 37
f 25 39 40
f 25 40 26
f 26 30 27
f 26 40 41
f 26 41 30
f 29 32 42
f 29 42 43
f 30 41 31
f 31 41 44
f 31 44 42
f 31 42 32
f 33 45 46
f 33 46 34
f 37 38 48
f 37 48 47
f 39 49 50
f 39 50 40
f 40 50 51
f 40 51 52
f 40 52 41
f 41 52 53
f 41 53 44
f 42 44 43
f 43 44 55
f 43 55 53
f 43 53 56
f 43 56 54
f 44 53 55
f 45 57 46
f 46 57 58
f 47 48 59
f 48 60 61
f 48 61 59
f 49 62 63
f 49 63 64
f 49 64 50
f 54 56 65
f 56 58 65
f 57 66 58
f 58 66 67
f 58 67 65
f 60 63 61
f 61 63 62

