# https://github.com/mikedh/trimesh
v -0.17235538 -0.25205284 -0.07477735
v -0.17244496 -0.25205284 -0.07498850
v -0.17592067 -0.25205284 -0.06509747
v -0.02544367 -0.30299693 -0.07477735
v -0.17660150 -0.25205284 -0.08253315
v -0.17792728 -0.25205284 -0.06256970
v -0.02544367 -0.30546401 -0.06477927
v -0.02544367 -0.30610362 -0.08358887
v -0.17807060 -0.25205284 -0.08340746
v -0.02544367 -0.30623015 -0.08390707
v -0.18213756 -0.25205284 -0.05983079
v -0.02544367 -0.30870425 -0.05830817
v -0.18803193 -0.25205284 -0.08655677
v -0.02544367 -0.31470676 -0.08658651
v -0.18575659 -0.25205284 -0.05830520
v -0.02544367 -0.31501605 -0.05678854
v -0.18505788 -0.25503300 -0.08670844
v -0.19897866 -0.25205284 -0.08470109
v -0.02544367 -0.31501605 -0.08667275
v -0.19494754 -0.25205284 -0.05804648
v -0.18460997 -0.25453398 -0.05801971
v -0.11507773 -0.29501936 -0.05734168
v -0.10508057 -0.30375604 -0.05796023
v -0.07508908 -0.31270360 -0.05809406
v -0.02544367 -0.31521987 -0.05682423
v -0.17506070 -0.26503486 -0.05777883
v -0.17506070 -0.26503486 -0.08692255
v -0.08508625 -0.30502119 -0.08716641
v -0.20539260 -0.25205284 -0.08179861
v -0.18518327 -0.26537224 -0.08380001
v -0.19575376 -0.25579210 -0.08422824
v -0.02544367 -0.32156680 -0.08268482
v -0.03508251 -0.31501605 -0.08642889
v -0.19496545 -0.25508926 -0.05806135
v -0.20163022 -0.25205284 -0.05868288
v -0.11507773 -0.30209023 -0.05829926
v -0.14551712 -0.28566415 -0.05805540
v -0.13505415 -0.29265069 -0.05825168
v -0.08508625 -0.31156494 -0.05855798
v -0.05285525 -0.32034378 -0.05942932
v -0.02544367 -0.32146137 -0.05826059
v -0.15504846 -0.28270506 -0.05834684
v -0.14505131 -0.28503154 -0.08616422
v -0.17506070 -0.27341311 -0.08310413
v -0.11507773 -0.29501936 -0.08716641
v -0.09508341 -0.30502119 -0.08634265
v -0.04507968 -0.31501605 -0.08615233
v -0.05507684 -0.31501605 -0.08557837
v -0.20576883 -0.25205284 -0.08154286
v -0.20505219 -0.25235507 -0.08179564
v -0.19288720 -0.26226556 -0.08195027
v -0.18194047 -0.27130449 -0.08141498
v -0.02544367 -0.32179873 -0.08253910
v -0.19156140 -0.26114800 -0.05898027
v -0.18432330 -0.26470453 -0.05846579
v -0.20283060 -0.25205284 -0.06001517
v -0.14250722 -0.29108328 -0.05893268
v -0.12204708 -0.30086725 -0.05905461
v -0.09287973 -0.31066528 -0.05918546
v -0.05952002 -0.31984477 -0.06016386
v -0.05573973 -0.32101856 -0.06401202
v -0.04507968 -0.32213612 -0.06477927
v -0.02544367 -0.32352077 -0.06477927
v -0.16160574 -0.28087759 -0.05911707
v -0.17506070 -0.27181054 -0.05872451
v -0.12505698 -0.29501936 -0.08583710
v -0.13430167 -0.29526536 -0.08309818
v -0.14505131 -0.29183535 -0.08196217
v -0.15443932 -0.28511590 -0.08316658
v -0.16321819 -0.28184756 -0.08195027
v -0.07508908 -0.31404608 -0.08394871
v -0.08508625 -0.31288633 -0.08328851
v -0.11507773 -0.30341162 -0.08344315
v -0.03508251 -0.32157381 -0.08225658
v -0.04507968 -0.32123645 -0.08181645
v -0.05507684 -0.32075850 -0.08108191
v -0.20818750 -0.25205284 -0.07793261
v -0.15067695 -0.29036634 -0.08034440
v -0.16988297 -0.27992870 -0.07677875
v -0.18294378 -0.27196519 -0.07477735
v -0.18794235 -0.26848596 -0.07477735
v -0.19444587 -0.26348855 -0.07477735
v -0.02544367 -0.32379489 -0.07503607
v -0.20627049 -0.25205284 -0.06438078
v -0.19845908 -0.25866686 -0.06477927
v -0.18050719 -0.27034156 -0.05950664
v -0.14917200 -0.28941044 -0.06115415
v -0.11507773 -0.30563973 -0.06477927
v -0.09954450 -0.30975855 -0.06020549
v -0.12872977 -0.29912411 -0.06176677
v -0.12525406 -0.30176691 -0.06497257
v -0.06265533 -0.32048438 -0.06683123
v -0.09576422 -0.31180390 -0.06403581
v -0.08508625 -0.31460133 -0.06477927
v -0.05507684 -0.32176360 -0.07477735
v -0.04507968 -0.32273356 -0.07477735
v -0.02544367 -0.32354890 -0.06512721
v -0.12505698 -0.30138033 -0.08158449
v -0.13046763 -0.30019951 -0.08009163
v -0.06184911 -0.32032975 -0.08033845
v -0.09508341 -0.31160711 -0.08206031
v -0.10203484 -0.31063715 -0.08077858
v -0.02544367 -0.32385815 -0.07477735
v -0.03508251 -0.32338724 -0.07477735
v -0.19944446 -0.25954546 -0.07477735
v -0.20505219 -0.25489947 -0.07477735
v -0.20845624 -0.25205284 -0.07477735
v -0.14505131 -0.29376825 -0.07477735
v -0.15114277 -0.29061937 -0.07477735
v -0.15614135 -0.28783600 -0.07477735
v -0.17008003 -0.28004116 -0.07011733
v -0.17405740 -0.27751786 -0.07397739
v -0.16595934 -0.28228334 -0.07397739
v -0.17008003 -0.28004116 -0.06973668
v -0.18186880 -0.27124122 -0.06477927
v -0.18688531 -0.26764956 -0.06477927
v -0.19346050 -0.26265214 -0.06477927
v -0.20727378 -0.25205284 -0.06654871
v -0.20535676 -0.25312120 -0.06517777
v -0.16497396 -0.28170697 -0.06575469
v -0.15087403 -0.29047177 -0.06781855
v -0.14551712 -0.29220787 -0.06460381
v -0.13077220 -0.30034010 -0.06843116
v -0.10233941 -0.31073554 -0.06686989
v -0.06333615 -0.32059684 -0.07477735
v -0.08508625 -0.31592275 -0.07477735
v -0.07508908 -0.31827033 -0.07477735
v -0.06833472 -0.31969717 -0.07477735
v -0.11507773 -0.30696815 -0.07477735
v -0.12505698 -0.30293367 -0.07477735
v -0.13089762 -0.30039633 -0.07477735
v -0.13589620 -0.29816821 -0.07477735
v -0.09508341 -0.31335024 -0.07477735
v -0.10325313 -0.31101670 -0.07477735
v -0.10825171 -0.30942819 -0.07477735
f 1 2 5
f 1 5 9
f 1 9 13
f 1 13 18
f 1 18 29
f 1 29 49
f 1 49 77
f 1 77 107
f 1 107 118
f 1 118 84
f 1 84 56
f 1 56 35
f 1 35 20
f 1 20 15
f 1 15 11
f 1 11 6
f 1 6 3
f 1 3 4
f 1 4 2
f 2 4 5
f 3 6 7
f 3 7 4
f 4 7 12
f 4 12 16
f 4 16 25
f 4 25 41
f 4 41 63
f 4 63 97
f 4 97 103
f 4 103 83
f 4 83 53
f 4 53 32
f 4 32 19
f 4 19 14
f 4 14 10
f 4 10 8
f 4 8 5
f 5 8 10
f 5 10 9
f 6 11 12
f 6 12 7
f 9 10 13
f 10 14 13
f 11 15 12
f 12 15 16
f 13 17 18
f 13 14 19
f 13 19 17
f 15 20 21
f 15 21 16
f 16 22 23
f 16 23 24
f 16 24 25
f 16 21 20
f 16 20 26
f 16 26 22
f 17 27 18
f 17 19 28
f 17 28 27
f 18 27 30
f 18 30 31
f 18 31 29
f 19 32 33
f 19 33 28
f 20 34 26
f 20 35 34
f 22 36 23
f 22 26 37
f 22 37 38
f 22 38 36
f 23 36 39
f 23 39 24
f 24 39 40
f 24 40 41
f 24 41 25
f 26 34 42
f 26 42 37
f 27 43 44
f 27 44 30
f 27 28 45
f 27 45 43
f 28 46 45
f 28 33 47
f 28 47 48
f 28 48 46
f 29 31 50
f 29 50 49
f 30 51 31
f 30 44 52
f 30 52 51
f 31 51 50
f 32 53 47
f 32 47 33
f 34 35 54
f 34 54 55
f 34 55 42
f 35 56 54
f 36 38 57
f 36 57 58
f 36 58 59
f 36 59 39
f 37 42 38
f 38 42 57
f 39 59 40
f 40 60 61
f 40 61 62
f 40 62 63
f 40 63 41
f 40 59 60
f 42 64 57
f 42 55 65
f 42 65 64
f 43 66 67
f 43 67 68
f 43 68 69
f 43 69 44
f 43 45 66
f 44 69 70
f 44 70 52
f 45 46 66
f 46 48 71
f 46 71 72
f 46 72 73
f 46 73 66
f 47 53 74
f 47 74 48
f 48 74 75
f 48 75 76
f 48 76 71
f 49 50 51
f 49 51 77
f 51 52 77
f 52 70 78
f 52 78 79
f 52 79 80
f 52 80 81
f 52 81 82
f 52 82 77
f 53 83 74
f 54 56 84
f 54 84 85
f 54 85 86
f 54 86 55
f 55 86 65
f 57 64 87
f 57 87 58
f 58 88 89
f 58 89 59
f 58 87 90
f 58 90 91
f 58 91 88
f 59 89 60
f 60 92 61
f 60 89 93
f 60 93 94
f 60 94 92
f 61 92 95
f 61 95 62
f 62 95 96
f 62 96 97
f 62 97 63
f 64 65 86
f 64 86 87
f 66 73 67
f 67 73 98
f 67 98 68
f 68 98 99
f 68 99 78
f 68 78 70
f 68 70 69
f 71 76 100
f 71 100 72
f 72 101 73
f 72 100 101
f 73 101 102
f 73 102 98
f 74 83 75
f 75 83 103
f 75 103 104
f 75 104 76
f 76 104 96
f 76 96 100
f 77 82 105
f 77 105 106
f 77 106 107
f 78 99 108
f 78 108 109
f 78 109 110
f 78 110 79
f 79 111 112
f 79 112 80
f 79 110 113
f 79 113 111
f 80 112 111
f 80 111 114
f 80 114 115
f 80 115 81
f 81 115 116
f 81 116 117
f 81 117 82
f 82 117 118
f 82 118 105
f 84 118 119
f 84 119 85
f 85 119 118
f 85 118 117
f 85 117 86
f 86 117 116
f 86 116 115
f 86 115 114
f 86 114 120
f 86 120 87
f 87 120 114
f 87 114 121
f 87 121 122
f 87 122 123
f 87 123 90
f 88 124 89
f 88 91 123
f 88 123 124
f 89 124 93
f 90 123 91
f 92 125 95
f 92 94 124
f 92 124 126
f 92 126 127
f 92 127 128
f 92 128 125
f 93 124 94
f 95 125 100
f 95 100 96
f 96 104 97
f 97 104 103
f 98 102 99
f 99 102 129
f 99 129 130
f 99 130 131
f 99 131 132
f 99 132 108
f 100 125 128
f 100 128 127
f 100 127 126
f 100 126 102
f 100 102 101
f 102 126 133
f 102 133 134
f 102 134 135
f 102 135 129
f 105 118 106
f 106 118 107
f 108 132 123
f 108 123 121
f 108 121 109
f 109 121 114
f 109 114 110
f 110 114 111
f 110 111 113
f 121 123 122
f 123 132 131
f 123 131 130
f 123 130 129
f 123 129 124
f 124 134 133
f 124 133 126
f 124 129 135
f 124 135 134

