# https://github.com/mikedh/trimesh
v 0.00212606 -0.04880642 -0.44301853
v -0.00084208 -0.04819792 -0.44301853
v 0.00592419 -0.04876839 -0.44301853
v -0.00128414 -0.02574043 -0.15299220
v -0.00496499 -0.02547421 -0.15299220
v -0.00908790 -0.02469457 -0.15299220
v -0.00376510 -0.04741828 -0.44301853
v 0.01097633 -0.04854020 -0.44301853
v 0.00082693 -0.02549322 -0.15299220
v 0.01309643 -0.04840709 -0.44301853
v 0.01378208 -0.04834054 -0.44301853
v -0.01083811 -0.02411459 -0.15299220
v -0.00654378 -0.04665765 -0.44301853
v -0.00561455 -0.04692387 -0.44301853
v 0.00237867 -0.02528405 -0.15299220
v 0.01402567 -0.04827398 -0.44301853
v 0.00635723 -0.02430474 -0.15299220
v 0.00487767 -0.02467555 -0.15299220
v -0.01206506 -0.02368674 -0.15299220
v -0.00906084 -0.04582096 -0.44301853
v 0.01569468 -0.04779859 -0.44301853
v 0.00840515 -0.02369624 -0.15299220
v -0.01311157 -0.02320184 -0.15299220
v -0.01294016 -0.04408103 -0.44301853
v -0.00911497 -0.04580195 -0.44301853
v 0.01841923 -0.04690485 -0.44301853
v 0.00863972 -0.02360117 -0.15299220
v 0.02120693 -0.04595407 -0.44301853
v 0.02180236 -0.04573539 -0.44301853
v 0.02561853 -0.04427119 -0.44301853
v -0.01386939 -0.02285005 -0.15299220
v -0.01508732 -0.04284501 -0.44301853
v 0.00989373 -0.02297365 -0.15299220
v 0.02615984 -0.04401447 -0.44301853
v 0.02788298 -0.04318730 -0.44301853
v -0.01489787 -0.02223204 -0.15299220
v -0.01674731 -0.04179915 -0.44301853
v -0.01664807 -0.02116716 -0.15299220
v 0.01214013 -0.02157600 -0.15299220
v 0.02994895 -0.04178964 -0.44301853
v 0.01329491 -0.02083439 -0.15299220
v -0.01994099 -0.03967890 -0.44301853
v -0.01947186 -0.01909445 -0.15299220
v 0.03244795 -0.03996414 -0.44301853
v 0.01475642 -0.01975049 -0.15299220
v -0.02419923 -0.03613249 -0.44301853
v -0.02042816 -0.01814367 -0.15299220
v -0.02799736 -0.03245296 -0.44301853
v -0.02613889 -0.03427846 -0.44301853
v 0.03473946 -0.03820519 -0.44301853
v 0.01578489 -0.01898036 -0.15299220
v -0.02164609 -0.01683159 -0.15299220
v -0.02967539 -0.03042779 -0.44301853
v -0.02317076 -0.01504412 -0.15299220
v 0.03677836 -0.03651280 -0.44301853
v 0.01654272 -0.01816269 -0.15299220
v 0.03856466 -0.03468730 -0.44301853
v -0.02983778 -0.03022812 -0.44301853
v -0.02463227 -0.01280027 -0.15299220
v -0.03142560 -0.02808886 -0.44301853
v -0.02993702 -0.03010452 -0.44301853
v 0.01778771 -0.01681258 -0.15299220
v 0.04054943 -0.03238640 -0.44301853
v -0.02650878 -0.00917779 -0.15299220
v -0.03545830 -0.02091045 -0.44301853
v -0.03340135 -0.02467555 -0.44301853
v 0.01887933 -0.01552902 -0.15299220
v 0.04185757 -0.03083662 -0.44301853
v -0.02719443 -0.00729524 -0.15299220
v -0.03679351 -0.01765877 -0.44301853
v 0.01949281 -0.01477790 -0.15299220
v 0.04274170 -0.02978126 -0.44301853
v -0.02736584 -0.00673428 -0.15299220
v -0.03883241 -0.01146918 -0.44301853
v 0.02076487 -0.01269569 -0.15299220
v 0.04373408 -0.02852622 -0.44301853
v -0.02785301 -0.00457600 -0.15299220
v -0.03904893 -0.01062298 -0.44301853
v 0.02239779 -0.00945352 -0.15299220
v 0.04529484 -0.02552175 -0.44301853
v -0.02797932 -0.00385340 -0.15299220
v -0.03927447 -0.00959613 -0.44301853
v 0.02303833 -0.00723819 -0.15299220
v 0.04641353 -0.02319233 -0.44301853
v 0.04685559 -0.02224155 -0.44301853
v 0.04755026 -0.02073931 -0.44301853
v 0.04884036 -0.01720240 -0.44301853
v 0.05004025 -0.01342779 -0.44301853
v 0.05021165 -0.01287633 -0.44301853
v -0.02834018 -0.00142891 -0.15299220
v -0.03957219 -0.00731425 -0.44301853
v 0.02340822 -0.00587857 -0.15299220
v 0.05074394 -0.01087969 -0.44301853
v -0.02836725 0.00091002 -0.15299220
v -0.04028490 0.00136639 -0.44301853
v -0.04026685 -0.00015486 -0.44301853
v -0.04024881 -0.00150497 -0.44301853
v 0.02377811 -0.00329244 -0.15299220
v 0.05095143 -0.01004300 -0.44301853
v 0.05108676 -0.00931090 -0.44301853
v -0.02837627 0.00196539 -0.15299220
v -0.03904893 0.01022769 -0.44301853
v 0.02393148 -0.00209446 -0.15299220
v 0.05188067 -0.00173316 -0.44301853
v -0.02806051 0.00389548 -0.15299220
v -0.03898578 0.01053194 -0.44301853
v -0.02792519 0.00463709 -0.15299220
v 0.02393148 -0.00041157 -0.15299220
v 0.05187165 -0.00084893 -0.44301853
v 0.02391344 0.00172769 -0.15299220
v -0.03832719 0.01320364 -0.44301853
v -0.02737486 0.00699503 -0.15299220
v 0.05184458 0.00082445 -0.44301853
v 0.02375104 0.00285912 -0.15299220
v 0.05062666 0.00982836 -0.44301853
v -0.03691981 0.01683563 -0.44301853
v -0.02709519 0.00792680 -0.15299220
v -0.02650878 0.00963821 -0.15299220
v 0.02332702 0.00544525 -0.15299220
v 0.05050035 0.01069357 -0.44301853
v -0.03553047 0.02020140 -0.44301853
v -0.02471346 0.01303250 -0.15299220
v -0.03438471 0.02267344 -0.44301853
v 0.02223540 0.00896315 -0.15299220
v 0.05009438 0.01305152 -0.44301853
v -0.02330608 0.01512422 -0.15299220
v -0.03023474 0.02969022 -0.44301853
v -0.03123615 0.02810241 -0.44301853
v -0.03273375 0.02569693 -0.44301853
v 0.02108062 0.01114044 -0.15299220
v 0.04996807 0.01340331 -0.44301853
v 0.04940872 0.01490554 -0.44301853
v 0.04895764 0.01610353 -0.44301853
v 0.04741493 0.01967847 -0.44301853
v 0.04513244 0.02484122 -0.44301853
v -0.02295424 0.01551404 -0.15299220
v -0.02851160 0.03165834 -0.44301853
v 0.02036791 0.01248105 -0.15299220
v 0.04349952 0.02784570 -0.44301853
v -0.02124012 0.01739659 -0.15299220
v -0.02400977 0.03595588 -0.44301853
v -0.01914708 0.01946930 -0.15299220
v 0.01917705 0.01436360 -0.15299220
v 0.04227257 0.02937646 -0.44301853
v -0.02196185 0.03778138 -0.44301853
v -0.01704503 0.02095252 -0.15299220
v -0.01997708 0.03928361 -0.44301853
v 0.01702989 0.01668351 -0.15299220
v 0.04196583 0.02975677 -0.44301853
v 0.04010737 0.03190554 -0.44301853
v 0.03920520 0.03294190 -0.44301853
v 0.03832107 0.03394972 -0.44301853
v -0.01313864 0.02310129 -0.15299220
v -0.01298527 0.04369525 -0.44301853
v -0.01698188 0.04127075 -0.44301853
v 0.01561348 0.01812870 -0.15299220
v 0.03638141 0.03588932 -0.44301853
v -0.01100050 0.02390946 -0.15299220
v -0.00970138 0.04507388 -0.44301853
v 0.01475642 0.01897489 -0.15299220
v 0.03424327 0.03783842 -0.44301853
v -0.01073887 0.02398552 -0.15299220
v -0.00624607 0.04608171 -0.44301853
v 0.01290698 0.02035353 -0.15299220
v 0.03369295 0.03829480 -0.44301853
v 0.03212317 0.03957836 -0.44301853
v -0.00888942 0.02446091 -0.15299220
v -0.00067067 0.04769804 -0.44301853
v 0.01134622 0.02129480 -0.15299220
v 0.02946177 0.04147042 -0.44301853
v 0.02726048 0.04280151 -0.44301853
v -0.00738280 0.02472713 -0.15299220
v 0.00207193 0.04832556 -0.44301853
v 0.00918102 0.02256885 -0.15299220
v 0.02493289 0.04401851 -0.44301853
v -0.00544314 0.02505990 -0.15299220
v 0.00543702 0.04830655 -0.44301853
v -0.00363880 0.02516449 -0.15299220
v -0.00177131 0.02524055 -0.15299220
v 0.00804429 0.02301572 -0.15299220
v 0.02108965 0.04559681 -0.44301853
v 0.01012830 0.04815442 -0.44301853
v 0.00006009 0.02505990 -0.15299220
v 0.01304230 0.04790722 -0.44301853
v 0.01117481 0.04808786 -0.44301853
v 0.00623093 0.02370028 -0.15299220
v 0.02090019 0.04566337 -0.44301853
v 0.00177421 0.02486024 -0.15299220
v 0.01366480 0.04775509 -0.44301853
v 0.00395746 0.02438485 -0.15299220
v 0.00448072 0.02424223 -0.15299220
v 0.01764336 0.04668071 -0.44301853
v 0.01490979 0.04744133 -0.44301853
v 0.01684945 0.04690889 -0.44301853
f 1 2 7
f 1 7 14
f 1 14 13
f 1 13 20
f 1 20 25
f 1 25 24
f 1 24 32
f 1 32 37
f 1 37 42
f 1 42 46
f 1 46 49
f 1 49 48
f 1 48 53
f 1 53 58
f 1 58 61
f 1 61 60
f 1 60 66
f 1 66 65
f 1 65 70
f 1 70 74
f 1 74 78
f 1 78 82
f 1 82 91
f 1 91 97
f 1 97 96
f 1 96 95
f 1 95 102
f 1 102 106
f 1 106 111
f 1 111 116
f 1 116 121
f 1 121 123
f 1 123 129
f 1 129 128
f 1 128 127
f 1 127 137
f 1 137 141
f 1 141 145
f 1 145 147
f 1 147 155
f 1 155 154
f 1 154 159
f 1 159 163
f 1 163 168
f 1 168 173
f 1 173 177
f 1 177 182
f 1 182 185
f 1 185 184
f 1 184 189
f 1 189 193
f 1 193 194
f 1 194 192
f 1 192 187
f 1 187 181
f 1 181 175
f 1 175 171
f 1 171 170
f 1 170 166
f 1 166 165
f 1 165 161
f 1 161 157
f 1 157 152
f 1 152 151
f 1 151 150
f 1 150 149
f 1 149 144
f 1 144 139
f 1 139 135
f 1 135 134
f 1 134 133
f 1 133 132
f 1 132 131
f 1 131 125
f 1 125 120
f 1 120 115
f 1 115 113
f 1 113 109
f 1 109 104
f 1 104 100
f 1 100 99
f 1 99 93
f 1 93 89
f 1 89 88
f 1 88 87
f 1 87 86
f 1 86 85
f 1 85 84
f 1 84 80
f 1 80 76
f 1 76 72
f 1 72 68
f 1 68 63
f 1 63 57
f 1 57 55
f 1 55 50
f 1 50 44
f 1 44 40
f 1 40 35
f 1 35 34
f 1 34 30
f 1 30 29
f 1 29 28
f 1 28 26
f 1 26 21
f 1 21 16
f 1 16 11
f 1 11 10
f 1 10 8
f 1 8 3
f 1 3 4
f 1 4 5
f 1 5 6
f 1 6 2
f 2 6 7
f 3 8 4
f 4 9 15
f 4 15 18
f 4 18 17
f 4 17 22
f 4 22 27
f 4 27 33
f 4 33 39
f 4 39 41
f 4 41 45
f 4 45 51
f 4 51 56
f 4 56 62
f 4 62 67
f 4 67 71
f 4 71 75
f 4 75 79
f 4 79 83
f 4 83 92
f 4 92 98
f 4 98 103
f 4 103 108
f 4 108 110
f 4 110 114
f 4 114 119
f 4 119 124
f 4 124 130
f 4 130 138
f 4 138 143
f 4 143 148
f 4 148 156
f 4 156 160
f 4 160 164
f 4 164 169
f 4 169 174
f 4 174 180
f 4 180 186
f 4 186 191
f 4 191 190
f 4 190 188
f 4 188 183
f 4 183 179
f 4 179 178
f 4 178 176
f 4 176 172
f 4 172 167
f 4 167 162
f 4 162 158
f 4 158 153
f 4 153 146
f 4 146 142
f 4 142 140
f 4 140 136
f 4 136 126
f 4 126 122
f 4 122 118
f 4 118 117
f 4 117 112
f 4 112 107
f 4 107 105
f 4 105 101
f 4 101 94
f 4 94 90
f 4 90 81
f 4 81 77
f 4 77 73
f 4 73 69
f 4 69 64
f 4 64 59
f 4 59 54
f 4 54 52
f 4 52 47
f 4 47 43
f 4 43 38
f 4 38 36
f 4 36 31
f 4 31 23
f 4 23 19
f 4 19 12
f 4 12 6
f 4 6 5
f 4 8 10
f 4 10 11
f 4 11 9
f 6 12 13
f 6 13 14
f 6 14 7
f 9 11 15
f 11 16 17
f 11 17 18
f 11 18 15
f 12 19 20
f 12 20 13
f 16 21 17
f 17 21 22
f 19 23 24
f 19 24 25
f 19 25 20
f 21 26 22
f 22 26 28
f 22 28 29
f 22 29 30
f 22 30 27
f 23 31 24
f 24 31 32
f 27 30 34
f 27 34 35
f 27 35 33
f 31 36 32
f 32 36 38
f 32 38 37
f 33 35 39
f 35 40 41
f 35 41 39
f 37 38 42
f 38 43 42
f 40 44 41
f 41 44 45
f 42 43 46
f 43 47 48
f 43 48 49
f 43 49 46
f 44 50 51
f 44 51 45
f 47 52 48
f 48 52 54
f 48 54 53
f 50 55 51
f 51 55 57
f 51 57 56
f 53 54 58
f 54 59 60
f 54 60 61
f 54 61 58
f 56 57 62
f 57 63 62
f 59 64 65
f 59 65 66
f 59 66 60
f 62 63 67
f 63 68 67
f 64 69 70
f 64 70 65
f 67 68 72
f 67 72 71
f 69 73 74
f 69 74 70
f 71 72 76
f 71 76 75
f 73 77 78
f 73 78 74
f 75 76 80
f 75 80 79
f 77 81 82
f 77 82 78
f 79 80 84
f 79 84 85
f 79 85 86
f 79 86 87
f 79 87 88
f 79 88 89
f 79 89 83
f 81 90 82
f 82 90 91
f 83 89 92
f 89 93 92
f 90 94 95
f 90 95 96
f 90 96 97
f 90 97 91
f 92 93 99
f 92 99 100
f 92 100 98
f 94 101 95
f 95 101 102
f 98 100 103
f 100 104 103
f 101 105 102
f 102 105 107
f 102 107 106
f 103 104 108
f 104 109 110
f 104 110 108
f 106 107 112
f 106 112 111
f 109 113 110
f 110 113 115
f 110 115 114
f 111 112 117
f 111 117 118
f 111 118 116
f 114 115 120
f 114 120 119
f 116 118 121
f 118 122 123
f 118 123 121
f 119 120 125
f 119 125 124
f 122 126 127
f 122 127 128
f 122 128 129
f 122 129 123
f 124 125 131
f 124 131 132
f 124 132 133
f 124 133 134
f 124 134 135
f 124 135 130
f 126 136 137
f 126 137 127
f 130 135 138
f 135 139 138
f 136 140 137
f 137 140 142
f 137 142 141
f 138 139 143
f 139 144 143
f 141 142 145
f 142 146 147
f 142 147 145
f 143 144 149
f 143 149 150
f 143 150 151
f 143 151 152
f 143 152 148
f 146 153 154
f 146 154 155
f 146 155 147
f 148 152 156
f 152 157 156
f 153 158 159
f 153 159 154
f 156 157 160
f 157 161 160
f 158 162 163
f 158 163 159
f 160 161 165
f 160 165 166
f 160 166 164
f 162 167 168
f 162 168 163
f 164 166 170
f 164 170 171
f 164 171 169
f 167 172 173
f 167 173 168
f 169 171 174
f 171 175 174
f 172 176 173
f 173 176 178
f 173 178 179
f 173 179 177
f 174 175 181
f 174 181 180
f 177 179 182
f 179 183 184
f 179 184 185
f 179 185 182
f 180 181 186
f 181 187 186
f 183 188 184
f 184 188 190
f 184 190 189
f 186 187 192
f 186 192 191
f 189 190 193
f 190 191 193
f 191 192 194
f 191 194 193

