# https://github.com/mikedh/trimesh
v -0.10010429 -0.41609769 -0.00538747
v -0.09920008 -0.41621140 -0.00866328
v -0.09996344 -0.41857293 -0.00545612
v -0.09934093 -0.41863416 -0.00269652
v -0.09948179 -0.41598398 -0.00264161
v -0.09917282 -0.41263411 -0.00255648
v -0.09843673 -0.40444744 -0.00256472
v -0.09978623 -0.41279155 -0.00530509
v -0.09770973 -0.41625512 -0.01270245
v -0.09903196 -0.41862542 -0.00872369
v -0.09794147 -0.40433374 -0.00860288
v -0.09761886 -0.40376523 -0.00950627
v -0.09710086 -0.40376523 -0.01121145
v -0.09922734 -0.42655843 -0.00545886
v -0.09869118 -0.42652344 -0.00273771
v -0.09828225 -0.42668088 -0.00880332
v -0.09715994 -0.42665463 0.00054909
v -0.09732351 -0.42264877 0.00076876
v -0.09750072 -0.41891405 0.00091703
v -0.09758705 -0.41608895 0.00098568
v -0.09746437 -0.41265159 0.00076327
v -0.09716449 -0.40456989 0.00001914
v -0.09809140 -0.40376523 -0.00206772
v -0.09833677 -0.40376523 -0.00257570
v -0.09890473 -0.40441245 -0.00514858
v -0.09928187 -0.40795478 -0.00523370
v -0.09655562 -0.41628137 -0.01508312
v -0.09452001 -0.42709197 -0.01792234
v -0.09759614 -0.41866915 -0.01260360
v -0.09318415 -0.40376523 -0.01992407
v -0.09319324 -0.40422003 -0.02000096
v -0.09320233 -0.40624921 -0.02032222
v -0.09717811 -0.42675085 -0.01212582
v -0.09690549 -0.43092289 -0.01181828
v -0.09858667 -0.40376523 -0.00592017
v -0.09779152 -0.43093166 -0.00886099
v -0.09653290 -0.43610955 -0.01129657
v -0.09873662 -0.43089667 -0.00541218
v -0.09823680 -0.43525239 -0.00531882
v -0.09780515 -0.43527861 -0.00274320
v -0.09825953 -0.43087042 -0.00274320
v -0.09696456 -0.43092289 0.00012897
v -0.09672374 -0.43350309 -0.01159312
v -0.09544694 -0.42685582 0.00308352
v -0.09558325 -0.42292868 0.00330044
v -0.09571502 -0.41923766 0.00344048
v -0.09578318 -0.41627263 0.00348167
v -0.09570140 -0.41280029 0.00319885
v -0.09728716 -0.40812095 0.00035963
v -0.09543331 -0.40483229 0.00239156
v -0.09535152 -0.40376523 0.00223780
v -0.09710996 -0.40376523 -0.00010717
v -0.09870027 -0.40376523 -0.00458293
v -0.09879115 -0.40376523 -0.00513210
v -0.09512434 -0.41635135 -0.01793607
v -0.09322050 -0.43125527 -0.02004764
v -0.09312963 -0.43350309 -0.01994329
v -0.09613759 -0.42683831 -0.01444058
v -0.09296605 -0.40376523 -0.02014374
v -0.09148934 -0.40376523 -0.02118443
v -0.09327503 -0.40922300 -0.02046226
v -0.09344315 -0.41297523 -0.02055013
v -0.09377030 -0.43489379 -0.01818594
v -0.09372486 -0.43906583 -0.01732099
v -0.09581498 -0.43489379 -0.01341088
v -0.09516523 -0.43885593 -0.01390789
v -0.09631026 -0.43876844 -0.01071994
v -0.09765975 -0.43888214 -0.00519800
v -0.09730079 -0.43886467 -0.00272947
v -0.09651018 -0.43884719 -0.00093917
v -0.09674191 -0.43528738 -0.00037627
v -0.09525156 -0.43104534 0.00265791
v -0.09348858 -0.43132525 0.00476124
v -0.09381573 -0.42724064 0.00486284
v -0.09402475 -0.42335722 0.00487382
v -0.09423376 -0.41642133 0.00481616
v -0.09407473 -0.41288774 0.00469260
v -0.09385209 -0.40872445 0.00448117
v -0.09417923 -0.41959629 0.00485460
v -0.09367943 -0.40505097 0.00425875
v -0.09356583 -0.40376523 0.00416265
v -0.09475629 -0.40376523 0.00291602
v -0.09360218 -0.41643007 -0.02056111
v -0.09334318 -0.42735435 -0.02020964
v -0.09163474 -0.43145643 -0.02074783
v -0.09132121 -0.43938944 -0.02039636
v -0.09095317 -0.44336034 -0.02021514
v -0.09299332 -0.43615328 -0.01958908
v -0.09285246 -0.43924077 -0.01915523
v -0.08859496 -0.40376523 -0.02187364
v -0.09148934 -0.41272157 -0.02146725
v -0.09252531 -0.44313293 -0.01850446
v -0.09335227 -0.44286179 -0.01677182
v -0.09451093 -0.44250319 -0.01397928
v -0.09597402 -0.44236323 -0.00889394
v -0.09677826 -0.44235449 -0.00508268
v -0.09641476 -0.44417374 -0.00427814
v -0.09641022 -0.44419125 -0.00366581
v -0.09665104 -0.44187345 -0.00278714
v -0.09636478 -0.44050900 -0.00128515
v -0.09470631 -0.43885593 0.00156231
v -0.09501983 -0.43529612 0.00213620
v -0.09312508 -0.43540983 0.00453883
v -0.09104859 -0.43582090 0.00552734
v -0.09123034 -0.43174506 0.00563992
v -0.09136666 -0.42766922 0.00567287
v -0.09143936 -0.41639508 0.00561521
v -0.09135756 -0.41271283 0.00551087
v -0.09125306 -0.40868946 0.00533788
v -0.09112583 -0.40498973 0.00518411
v -0.09144844 -0.42375081 0.00564267
v -0.09147116 -0.41987617 0.00562344
v -0.09272523 -0.40376523 0.00450588
v -0.09148934 -0.41634258 -0.02146725
v -0.09158021 -0.42755551 -0.02097849
v -0.08831780 -0.44343906 -0.02056935
v -0.08804971 -0.44729623 -0.02031948
v -0.09041701 -0.44719126 -0.01995977
v -0.08857224 -0.40797226 -0.02179401
v -0.08852681 -0.40376523 -0.02185442
v -0.05714766 -0.48452103 -0.01458062
v -0.07264185 -0.47527608 -0.01780427
v -0.07536811 -0.46729057 -0.01844680
v -0.07754001 -0.46350336 -0.01891085
v -0.08969001 -0.45107467 -0.01963576
v -0.09075779 -0.45082978 -0.01798549
v -0.09209365 -0.44644781 -0.01773013
v -0.09308419 -0.44473353 -0.01643957
v -0.09272978 -0.44712131 -0.01579704
v -0.09360673 -0.44587931 -0.01418796
v -0.09321596 -0.44881811 -0.01285897
v -0.09499257 -0.44583558 -0.00897906
v -0.09584680 -0.44558192 -0.00498383
v -0.09437461 -0.45022629 -0.00498657
v -0.09321596 -0.45333127 -0.00313586
v -0.09561052 -0.44566063 -0.00268005
v -0.09605126 -0.44292300 -0.00198260
v -0.09316598 -0.44927291 -0.00034057
v -0.09364761 -0.44613294 0.00035413
v -0.09272069 -0.43889965 0.00414068
v -0.09242535 -0.44095505 0.00379745
v -0.09084412 -0.43938070 0.00522255
v -0.08754536 -0.44752364 0.00555754
v -0.08792703 -0.44378015 0.00578820
v -0.08825418 -0.44008042 0.00578545
v -0.08823601 -0.40376523 0.00550537
v -0.06018288 -0.48781847 0.00617811
v -0.09023980 -0.40376523 0.00528296
v -0.09107131 -0.40376523 0.00510722
v -0.08853135 -0.41227551 -0.02166495
v -0.08850409 -0.43952940 -0.02072587
v -0.08443743 -0.45141579 -0.02000645
v -0.08419662 -0.45530795 -0.01976481
v -0.08773620 -0.45117964 -0.01994604
v -0.08397851 -0.45911265 -0.01944629
v -0.08611862 -0.40376523 -0.02114598
v -0.05443049 -0.48542192 -0.01301273
v -0.05553463 -0.48681262 -0.01378981
v -0.05702952 -0.48707502 -0.01429505
v -0.07245556 -0.47917697 -0.01738140
v -0.08606409 -0.40376523 -0.02112676
v -0.07692207 -0.47338682 -0.01827655
v -0.07505459 -0.47119147 -0.01831774
v -0.07701748 -0.46722934 -0.01869118
v -0.08062522 -0.45958495 -0.01936117
v -0.08604592 -0.45876279 -0.01928154
v -0.08921746 -0.45327880 -0.01942158
v -0.08954915 -0.45458201 -0.01788115
v -0.08914930 -0.45690855 -0.01690637
v -0.09076233 -0.45486189 -0.01439665
v -0.09220270 -0.45053242 -0.01436370
v -0.09265254 -0.45207178 -0.01062932
v -0.09356128 -0.45036622 -0.00884177
v -0.09207548 -0.45473071 -0.00899004
v -0.09325231 -0.45336626 -0.00508268
v -0.09263436 -0.45248285 -0.00130162
v -0.09386118 -0.45055864 -0.00232034
v -0.09239809 -0.45566655 -0.00515956
v -0.09118036 -0.45876279 -0.00523370
v -0.08907206 -0.46376576 -0.00426990
v -0.09064874 -0.45865785 -0.00248784
v -0.09214364 -0.45493187 -0.00227091
v -0.09164836 -0.44638660 0.00275676
v -0.08982632 -0.45470446 0.00140580
v -0.08830416 -0.45584149 0.00290229
v -0.08908114 -0.45090850 0.00386884
v -0.08982632 -0.44678893 0.00436309
v -0.08398306 -0.45962871 0.00543947
v -0.08867221 -0.45320882 0.00352835
v -0.08435110 -0.45599893 0.00563717
v -0.07991640 -0.46722060 0.00565914
v -0.08043439 -0.46380075 0.00573328
v -0.06235025 -0.48864060 0.00615340
v -0.06230936 -0.48806336 0.00616713
v -0.08748629 -0.40376523 0.00529669
v -0.05833812 -0.48780096 0.00615340
v -0.06021469 -0.48825578 0.00616713
v -0.05833812 -0.48780970 0.00615340
v -0.08035260 -0.46321473 -0.01916347
v -0.08001636 -0.46697570 -0.01883946
v -0.08232458 -0.46659959 -0.01874610
v -0.08376950 -0.46251502 -0.01909208
v -0.05424875 -0.48532572 -0.01074465
v -0.05396704 -0.48654147 -0.01062109
v -0.05441687 -0.48656772 -0.01288642
v -0.08483274 -0.40376523 -0.01834245
v -0.08479185 -0.40376523 -0.01823537
v -0.05748844 -0.48895547 -0.01411383
v -0.06893870 -0.48297293 -0.01646703
v -0.07209660 -0.48277177 -0.01655764
v -0.07793532 -0.47324690 -0.01828479
v -0.07671305 -0.47115651 -0.01844131
v -0.08538708 -0.46095814 -0.01909757
v -0.08462373 -0.46325846 -0.01870491
v -0.08521896 -0.46480660 -0.01694481
v -0.08853589 -0.45570154 -0.01868569
v -0.08950826 -0.45824675 -0.01392711
v -0.08444652 -0.46751799 -0.01569819
v -0.08576876 -0.46599610 -0.01410010
v -0.09051243 -0.45868407 -0.00920422
v -0.08943556 -0.45854414 -0.00015660
v -0.08908114 -0.46375702 -0.00447310
v -0.08619132 -0.46967835 -0.00503325
v -0.08495542 -0.47181247 -0.00317430
v -0.08564153 -0.46982705 -0.00256197
v -0.08781344 -0.46547133 -0.00302877
v -0.08912204 -0.46025845 -0.00092544
v -0.08785888 -0.45857913 0.00200440
v -0.08529166 -0.46140423 0.00378372
v -0.08597776 -0.45889400 0.00419285
v -0.08715460 -0.45499308 0.00430818
v -0.08371952 -0.46303105 0.00460473
v -0.08248816 -0.46647715 0.00433563
v -0.07969375 -0.47077166 0.00459924
v -0.07589518 -0.47501368 0.00536533
v -0.07234196 -0.47947436 0.00557402
v -0.07643134 -0.47135767 0.00576349
v -0.06860246 -0.48374263 0.00570033
v -0.06770734 -0.48683010 0.00492874
v -0.06366794 -0.48974268 0.00448117
v -0.06298638 -0.49123832 0.00319336
v -0.06180955 -0.49110710 0.00345421
v -0.08720458 -0.40376523 0.00521157
v -0.05669783 -0.48679511 0.00522255
v -0.05722036 -0.48784469 0.00491776
v -0.05520748 -0.48683884 0.00420933
v -0.05519385 -0.48674264 0.00423404
v -0.08155669 -0.46896989 -0.01850721
v -0.05405336 -0.48535197 -0.00636225
v -0.05368986 -0.48648901 -0.00628811
v -0.08458283 -0.40376523 -0.01392985
v -0.05453500 -0.48740737 -0.01055793
v -0.05475310 -0.48743362 -0.01249926
v -0.05663876 -0.48875431 -0.01310060
v -0.06131882 -0.49173687 -0.01228783
v -0.06380880 -0.49230537 -0.01239766
v -0.05881522 -0.48918289 -0.01421268
v -0.06170504 -0.48927911 -0.01445706
v -0.06239569 -0.48933158 -0.01449825
v -0.06838890 -0.48709250 -0.01545381
v -0.06951575 -0.48906918 -0.01476734
v -0.07114242 -0.48641029 -0.01536594
v -0.07424580 -0.48234319 -0.01591237
v -0.08019811 -0.47139266 -0.01810357
v -0.08203833 -0.46991451 -0.01731825
v -0.08116593 -0.47256466 -0.01644232
v -0.08799065 -0.46157040 -0.01373490
v -0.08919929 -0.46012724 -0.01197754
v -0.08386037 -0.46978332 -0.01399850
v -0.08496905 -0.46860253 -0.01263655
v -0.08726819 -0.46582119 -0.00886373
v -0.08821329 -0.46543634 -0.00510739
v -0.08470097 -0.46383574 0.00319610
v -0.08512808 -0.46885619 -0.00076893
v -0.08580964 -0.46599610 0.00021135
v -0.08535073 -0.46979206 -0.00865779
v -0.08435110 -0.47101655 -0.01037670
v -0.08475095 -0.47167254 -0.00669999
v -0.08495996 -0.47189119 -0.00487125
v -0.08369680 -0.47320317 -0.00235878
v -0.08455557 -0.47112152 -0.00166408
v -0.08163394 -0.47675420 -0.00458293
v -0.08023901 -0.47879212 -0.00452527
v -0.08027081 -0.47859970 -0.00214460
v -0.08157487 -0.47661428 -0.00223522
v -0.08417389 -0.46609230 0.00246845
v -0.08150217 -0.46937222 0.00378097
v -0.07835789 -0.47406032 0.00402535
v -0.07529994 -0.47836355 0.00419834
v -0.07171493 -0.48313037 0.00438232
v -0.07003829 -0.48631406 0.00349265
v -0.06907046 -0.48796713 0.00281717
v -0.06709847 -0.48881555 0.00344872
v -0.06469937 -0.49109836 0.00227075
v -0.06390422 -0.49201675 0.00121084
v -0.06400418 -0.49307507 -0.00194416
v -0.06147331 -0.49155319 0.00168038
v -0.05954676 -0.49046862 0.00212247
v -0.08665024 -0.40376523 0.00364368
v -0.05723399 -0.48471346 0.00509899
v -0.05512569 -0.48611290 0.00414617
v -0.05487578 -0.48689133 0.00238882
v -0.05394886 -0.48640152 -0.00159818
v -0.05476673 -0.48640152 0.00266340
v -0.05692956 -0.48857065 0.00233116
v -0.07776721 -0.47736647 -0.01631326
v -0.05420331 -0.48550064 -0.00163936
v -0.08461464 -0.40376523 -0.00987696
v -0.05437143 -0.48709250 -0.00152129
v -0.05426238 -0.48732865 -0.00623320
v -0.05671146 -0.48917415 -0.01048654
v -0.05902877 -0.49083599 -0.01037670
v -0.06104620 -0.49176309 -0.01019822
v -0.06397692 -0.49311006 -0.00566480
v -0.06384515 -0.49277768 -0.00988794
v -0.06587166 -0.49217419 -0.01218348
v -0.06791181 -0.48943655 -0.01468222
v -0.06380880 -0.49062605 -0.01390789
v -0.06523099 -0.48969892 -0.01456964
v -0.06984290 -0.48939282 -0.01346031
v -0.07171493 -0.48742485 -0.01374313
v -0.07317347 -0.48449482 -0.01539889
v -0.08022083 -0.47511864 -0.01492386
v -0.08162939 -0.47367548 -0.01366076
v -0.07661310 -0.47994667 -0.01556364
v -0.08300161 -0.47022938 0.00115043
v -0.08073882 -0.47580959 -0.01224115
v -0.07968467 -0.47841604 -0.00902299
v -0.08111595 -0.47603701 -0.00081011
v -0.08192928 -0.47347431 0.00013996
v -0.07773540 -0.48109245 -0.00929209
v -0.07595425 -0.48344524 -0.00962159
v -0.07832154 -0.48131112 -0.00467080
v -0.07835335 -0.48112743 -0.00207046
v -0.07768087 -0.48046270 -0.00023074
v -0.08076154 -0.47165504 0.00307254
v -0.07732646 -0.47649183 0.00344598
v -0.07377325 -0.48136359 0.00365466
v -0.07259641 -0.48404873 0.00275951
v -0.07179217 -0.48638404 0.00119986
v -0.07362330 -0.48529073 0.00011250
v -0.06972022 -0.48874557 0.00082642
v -0.06686220 -0.49059980 0.00095548
v -0.06554905 -0.49203423 -0.00011541
v -0.06602161 -0.49257652 -0.00218579
v -0.06621244 -0.49269022 -0.00554673
v -0.06140516 -0.49195551 -0.00150482
v -0.05924687 -0.49076601 -0.00128789
v -0.08654574 -0.40376523 0.00330594
v -0.05459407 -0.48572805 0.00164194
v -0.05666147 -0.48892051 -0.00137302
v -0.08490998 -0.40376523 -0.00593939
v -0.08492815 -0.40376523 -0.00571972
v -0.08551885 -0.40376523 -0.00156248
v -0.05658424 -0.48913916 -0.00609590
v -0.06133700 -0.49196425 -0.00581857
v -0.05916509 -0.49089720 -0.00593664
v -0.06616701 -0.49240157 -0.00971495
v -0.06792998 -0.49145696 -0.00972319
v -0.07025184 -0.48980389 -0.00988245
v -0.07226472 -0.48800212 -0.01002249
v -0.07344155 -0.48524700 -0.01390789
v -0.07713563 -0.48058515 -0.01327359
v -0.07562255 -0.48210704 -0.01424837
v -0.07876683 -0.47752390 0.00091978
v -0.08007998 -0.47365797 0.00238882
v -0.07388230 -0.48603418 -0.00989343
v -0.07634955 -0.48382134 -0.00488498
v -0.07631775 -0.48368139 -0.00199083
v -0.07633138 -0.47906327 0.00264418
v -0.07424580 -0.48598171 -0.00196338
v -0.07238286 -0.48795839 -0.00196338
v -0.07036544 -0.48968144 -0.00206223
v -0.06786637 -0.49146573 -0.00216108
v -0.06799814 -0.49163190 -0.00547259
v -0.08642759 -0.40376523 0.00276775
v -0.08559609 -0.40376523 -0.00103802
v -0.07038815 -0.48990012 -0.00536825
v -0.07241921 -0.48817707 -0.00525567
v -0.07425943 -0.48617414 -0.00509641
f 1 2 3
f 1 3 4
f 1 4 5
f 1 5 6
f 1 6 7
f 1 7 8
f 1 8 2
f 2 9 10
f 2 10 3
f 2 8 11
f 2 11 12
f 2 12 13
f 2 13 9
f 3 14 15
f 3 15 4
f 3 10 16
f 3 16 14
f 4 15 17
f 4 17 18
f 4 18 19
f 4 19 5
f 5 19 20
f 5 20 21
f 5 21 6
f 6 21 22
f 6 22 7
f 7 22 23
f 7 23 24
f 7 24 25
f 7 25 26
f 7 26 8
f 8 26 11
f 9 27 28
f 9 28 29
f 9 29 10
f 9 13 30
f 9 30 31
f 9 31 32
f 9 32 27
f 10 29 33
f 10 33 34
f 10 34 16
f 11 26 25
f 11 25 12
f 12 25 35
f 12 35 54
f 12 54 53
f 12 53 24
f 12 24 23
f 12 23 52
f 12 52 51
f 12 51 82
f 12 82 81
f 12 81 113
f 12 113 149
f 12 149 148
f 12 148 146
f 12 146 195
f 12 195 243
f 12 243 299
f 12 299 349
f 12 349 376
f 12 376 377
f 12 377 354
f 12 354 353
f 12 353 352
f 12 352 308
f 12 308 251
f 12 251 207
f 12 207 206
f 12 206 161
f 12 161 156
f 12 156 120
f 12 120 90
f 12 90 60
f 12 60 59
f 12 59 30
f 12 30 13
f 14 16 36
f 14 36 37
f 14 37 38
f 14 38 39
f 14 39 40
f 14 40 41
f 14 41 15
f 15 41 42
f 15 42 17
f 16 34 43
f 16 43 37
f 16 37 36
f 17 42 44
f 17 44 18
f 18 44 19
f 19 44 45
f 19 45 46
f 19 46 20
f 20 47 21
f 20 46 47
f 21 47 48
f 21 48 49
f 21 49 22
f 22 50 51
f 22 51 52
f 22 52 23
f 22 49 48
f 22 48 50
f 24 53 25
f 25 53 54
f 25 54 35
f 27 32 55
f 27 55 56
f 27 56 28
f 28 56 57
f 28 57 29
f 29 57 58
f 29 58 33
f 30 59 31
f 31 59 32
f 32 59 60
f 32 60 61
f 32 61 62
f 32 62 55
f 33 58 57
f 33 57 63
f 33 63 34
f 34 63 64
f 34 64 65
f 34 65 43
f 37 66 67
f 37 67 39
f 37 39 38
f 37 43 66
f 39 67 68
f 39 68 69
f 39 69 40
f 40 69 70
f 40 70 71
f 40 71 41
f 41 71 42
f 42 72 44
f 42 71 72
f 43 65 66
f 44 72 73
f 44 73 74
f 44 74 45
f 45 74 46
f 46 74 75
f 46 75 47
f 47 76 77
f 47 77 78
f 47 78 48
f 47 75 79
f 47 79 76
f 48 78 80
f 48 80 50
f 50 80 81
f 50 81 82
f 50 82 51
f 55 62 83
f 55 83 84
f 55 84 56
f 56 85 86
f 56 86 57
f 56 84 85
f 57 86 87
f 57 87 88
f 57 88 89
f 57 89 64
f 57 64 63
f 60 90 91
f 60 91 62
f 60 62 61
f 62 91 83
f 64 89 92
f 64 92 93
f 64 93 66
f 64 66 65
f 66 93 94
f 66 94 67
f 67 94 95
f 67 95 68
f 68 95 96
f 68 96 97
f 68 97 98
f 68 98 69
f 69 98 99
f 69 99 100
f 69 100 70
f 70 101 102
f 70 102 71
f 70 100 101
f 71 102 72
f 72 102 103
f 72 103 73
f 73 103 104
f 73 104 74
f 74 104 105
f 74 105 75
f 75 105 106
f 75 106 79
f 76 107 108
f 76 108 77
f 76 79 107
f 77 108 109
f 77 109 110
f 77 110 78
f 78 110 80
f 79 106 111
f 79 111 112
f 79 112 107
f 80 110 113
f 80 113 81
f 83 91 114
f 83 114 115
f 83 115 84
f 84 115 85
f 85 115 86
f 86 115 116
f 86 116 87
f 87 116 117
f 87 117 118
f 87 118 89
f 87 89 88
f 89 118 92
f 90 119 114
f 90 114 91
f 90 120 121
f 90 121 122
f 90 122 123
f 90 123 124
f 90 124 119
f 92 118 125
f 92 125 126
f 92 126 127
f 92 127 128
f 92 128 93
f 93 128 94
f 94 128 129
f 94 129 130
f 94 130 95
f 95 130 131
f 95 131 132
f 95 132 96
f 96 132 97
f 97 132 133
f 97 133 134
f 97 134 98
f 98 134 135
f 98 135 136
f 98 136 137
f 98 137 99
f 99 137 100
f 100 137 138
f 100 138 139
f 100 139 101
f 101 140 102
f 101 139 141
f 101 141 140
f 102 140 103
f 103 140 142
f 103 142 104
f 104 142 143
f 104 143 144
f 104 144 105
f 105 144 106
f 106 144 145
f 106 145 107
f 106 107 112
f 106 112 111
f 107 146 108
f 107 145 147
f 107 147 146
f 108 146 148
f 108 148 109
f 109 148 110
f 110 148 149
f 110 149 113
f 114 119 150
f 114 150 151
f 114 151 115
f 115 151 116
f 116 152 153
f 116 153 117
f 116 151 152
f 117 154 118
f 117 153 155
f 117 155 154
f 118 154 125
f 119 124 150
f 120 156 121
f 121 157 158
f 121 158 159
f 121 159 160
f 121 160 122
f 121 156 161
f 121 161 157
f 122 162 163
f 122 163 123
f 122 160 162
f 123 163 124
f 124 163 164
f 124 164 165
f 124 165 150
f 125 154 166
f 125 166 167
f 125 167 126
f 126 167 168
f 126 168 169
f 126 169 170
f 126 170 171
f 126 171 129
f 126 129 127
f 127 129 128
f 129 171 131
f 129 131 130
f 131 171 170
f 131 170 172
f 131 172 132
f 132 172 173
f 132 173 134
f 132 134 133
f 134 173 172
f 134 172 174
f 134 174 175
f 134 175 135
f 135 176 177
f 135 177 136
f 135 175 178
f 135 178 179
f 135 179 180
f 135 180 181
f 135 181 182
f 135 182 176
f 136 177 138
f 136 138 137
f 138 183 139
f 138 177 176
f 138 176 184
f 138 184 185
f 138 185 183
f 139 183 141
f 140 141 186
f 140 186 187
f 140 187 188
f 140 188 142
f 141 183 189
f 141 189 186
f 142 188 143
f 143 188 144
f 144 188 190
f 144 190 191
f 144 191 192
f 144 192 193
f 144 193 194
f 144 194 145
f 145 194 147
f 146 147 196
f 146 196 195
f 147 194 193
f 147 193 197
f 147 197 198
f 147 198 196
f 150 165 152
f 150 152 151
f 152 165 199
f 152 199 153
f 153 199 155
f 154 155 166
f 155 199 200
f 155 200 201
f 155 201 202
f 155 202 166
f 157 203 204
f 157 204 205
f 157 205 158
f 157 161 206
f 157 206 207
f 157 207 203
f 158 205 208
f 158 208 159
f 159 208 209
f 159 209 160
f 160 209 210
f 160 210 211
f 160 211 162
f 162 211 200
f 162 200 199
f 162 199 212
f 162 212 163
f 163 212 164
f 164 212 199
f 164 199 165
f 166 202 213
f 166 213 167
f 167 213 214
f 167 214 215
f 167 215 216
f 167 216 169
f 167 169 168
f 169 217 170
f 169 216 215
f 169 215 218
f 169 218 219
f 169 219 217
f 170 217 220
f 170 220 174
f 170 174 172
f 174 220 178
f 174 178 175
f 176 182 221
f 176 221 184
f 178 220 179
f 179 220 222
f 179 222 180
f 180 222 223
f 180 223 224
f 180 224 225
f 180 225 226
f 180 226 181
f 181 227 182
f 181 226 225
f 181 225 227
f 182 227 221
f 183 185 189
f 184 221 185
f 185 221 228
f 185 228 229
f 185 229 230
f 185 230 189
f 186 189 230
f 186 230 231
f 186 231 187
f 187 231 188
f 188 231 230
f 188 230 232
f 188 232 191
f 188 191 190
f 191 233 234
f 191 234 235
f 191 235 236
f 191 236 193
f 191 193 237
f 191 237 192
f 191 232 233
f 192 237 193
f 193 236 238
f 193 238 239
f 193 239 240
f 193 240 241
f 193 241 242
f 193 242 197
f 195 196 243
f 196 198 244
f 196 244 243
f 197 242 198
f 198 245 246
f 198 246 247
f 198 247 244
f 198 242 245
f 200 211 201
f 201 211 248
f 201 248 213
f 201 213 202
f 203 249 250
f 203 250 204
f 203 207 251
f 203 251 249
f 204 250 252
f 204 252 253
f 204 253 205
f 205 253 208
f 208 253 254
f 208 254 255
f 208 255 256
f 208 256 257
f 208 257 209
f 209 257 258
f 209 258 259
f 209 259 260
f 209 260 210
f 210 260 261
f 210 261 262
f 210 262 263
f 210 263 211
f 211 264 248
f 211 263 264
f 213 248 214
f 214 248 265
f 214 265 215
f 215 265 266
f 215 266 218
f 217 219 267
f 217 267 268
f 217 268 220
f 218 269 270
f 218 270 219
f 218 266 269
f 219 270 267
f 220 268 271
f 220 271 272
f 220 272 222
f 221 273 228
f 221 227 274
f 221 274 275
f 221 275 273
f 222 272 223
f 223 272 271
f 223 271 276
f 223 276 277
f 223 277 278
f 223 278 279
f 223 279 224
f 224 280 281
f 224 281 225
f 224 279 282
f 224 282 283
f 224 283 284
f 224 284 285
f 224 285 280
f 225 274 227
f 225 281 274
f 228 273 229
f 229 273 233
f 229 233 230
f 230 233 232
f 233 286 287
f 233 287 234
f 233 273 286
f 234 288 235
f 234 287 288
f 235 288 289
f 235 289 290
f 235 290 236
f 236 290 239
f 236 239 238
f 239 291 292
f 239 292 293
f 239 293 240
f 239 290 291
f 240 293 241
f 241 293 294
f 241 294 295
f 241 295 242
f 242 295 296
f 242 296 297
f 242 297 298
f 242 298 245
f 243 244 300
f 243 300 301
f 243 301 299
f 244 247 301
f 244 301 300
f 245 298 246
f 246 302 303
f 246 303 304
f 246 304 247
f 246 298 305
f 246 305 302
f 247 304 301
f 248 264 306
f 248 306 266
f 248 266 265
f 249 307 250
f 249 251 308
f 249 308 307
f 250 303 309
f 250 309 310
f 250 310 252
f 250 307 303
f 252 310 311
f 252 311 253
f 253 311 254
f 254 311 312
f 254 312 255
f 255 312 313
f 255 313 314
f 255 314 315
f 255 315 256
f 256 315 316
f 256 316 317
f 256 317 318
f 256 318 257
f 257 318 258
f 258 318 259
f 259 318 319
f 259 319 260
f 260 319 317
f 260 317 261
f 261 317 316
f 261 316 320
f 261 320 321
f 261 321 322
f 261 322 262
f 262 322 263
f 263 322 306
f 263 306 264
f 266 323 324
f 266 324 269
f 266 306 325
f 266 325 323
f 267 270 268
f 268 270 271
f 269 324 277
f 269 277 270
f 270 277 271
f 271 277 276
f 273 275 286
f 274 281 326
f 274 326 286
f 274 286 275
f 277 324 327
f 277 327 278
f 278 327 328
f 278 328 279
f 279 328 283
f 279 283 282
f 280 285 329
f 280 329 281
f 281 329 330
f 281 330 326
f 283 328 331
f 283 331 332
f 283 332 333
f 283 333 334
f 283 334 284
f 284 334 335
f 284 335 329
f 284 329 285
f 286 326 287
f 287 326 336
f 287 336 288
f 288 336 337
f 288 337 289
f 289 337 338
f 289 338 290
f 290 338 339
f 290 339 291
f 291 340 292
f 291 339 341
f 291 341 340
f 292 342 343
f 292 343 293
f 292 340 342
f 293 343 294
f 294 343 344
f 294 344 295
f 295 344 296
f 296 344 345
f 296 345 346
f 296 346 314
f 296 314 347
f 296 347 297
f 297 347 298
f 298 347 348
f 298 348 305
f 299 301 349
f 301 304 350
f 301 350 349
f 302 305 309
f 302 309 303
f 303 307 350
f 303 350 304
f 305 351 309
f 305 348 351
f 306 322 325
f 307 308 352
f 307 352 353
f 307 353 354
f 307 354 350
f 309 351 310
f 310 355 311
f 310 351 355
f 311 355 312
f 312 356 313
f 312 355 357
f 312 357 356
f 313 356 314
f 314 346 358
f 314 358 315
f 314 356 347
f 315 358 316
f 316 358 359
f 316 359 320
f 317 319 318
f 320 359 360
f 320 360 361
f 320 361 321
f 321 361 362
f 321 362 322
f 322 362 325
f 323 325 363
f 323 363 327
f 323 327 324
f 325 362 364
f 325 364 363
f 326 330 336
f 327 363 328
f 328 363 331
f 329 335 365
f 329 365 366
f 329 366 336
f 329 336 330
f 331 363 332
f 332 362 367
f 332 367 368
f 332 368 333
f 332 363 362
f 333 368 334
f 334 368 369
f 334 369 335
f 335 370 365
f 335 369 341
f 335 341 339
f 335 339 370
f 336 366 337
f 337 370 338
f 337 366 370
f 338 370 339
f 340 341 342
f 341 369 371
f 341 371 372
f 341 372 342
f 342 372 373
f 342 373 374
f 342 374 344
f 342 344 343
f 344 374 345
f 345 374 375
f 345 375 346
f 346 375 359
f 346 359 358
f 347 356 357
f 347 357 348
f 348 357 355
f 348 355 351
f 349 350 376
f 350 354 377
f 350 377 376
f 359 375 360
f 360 375 378
f 360 378 379
f 360 379 361
f 361 379 380
f 361 380 368
f 361 368 367
f 361 367 362
f 362 363 364
f 365 370 366
f 368 380 369
f 369 380 371
f 371 380 379
f 371 379 372
f 372 379 373
f 373 378 375
f 373 375 374
f 373 379 378

