# https://github.com/mikedh/trimesh
v 0.05763306 0.00524305 0.00099479
v 0.05700929 0.00524305 -0.00121919
v 0.05728519 0.00524305 0.00359510
v 0.05799292 0.00170384 0.00106908
v 0.05801691 -0.01826490 -0.01713062
v 0.05801691 -0.01898695 -0.01778441
v 0.05686534 0.00524305 -0.00171201
v 0.05746512 0.00162098 0.00363968
v 0.05503002 0.00524305 0.00423651
v 0.05742913 -0.00211946 0.00364215
v 0.05790895 -0.00192415 0.00103689
v 0.05801691 -0.02918439 -0.00338364
v 0.05801691 -0.02780539 -0.00335888
v 0.05801691 -0.02442598 -0.00343565
v 0.05801691 -0.02384005 -0.00354461
v 0.05801691 -0.02207636 -0.00393342
v 0.05801691 -0.02113534 -0.00454264
v 0.05801691 -0.02041329 -0.00505279
v 0.05801691 -0.01697469 -0.00758624
v 0.05801691 -0.01692734 -0.00762586
v 0.05801691 -0.01563121 -0.01008997
v 0.05801691 -0.01560162 -0.01020141
v 0.05801691 -0.01555427 -0.01362639
v 0.05801691 -0.01559570 -0.01392852
v 0.05801691 -0.01566080 -0.01404492
v 0.05801691 -0.01717591 -0.01609049
v 0.05801691 -0.02085717 -0.01903999
v 0.04808461 0.00524305 -0.01523858
v 0.04870838 0.00524305 -0.01436191
v 0.05461018 0.00524305 0.00434547
v 0.05464617 0.00176302 0.00436281
v 0.05722521 -0.00597827 0.00360253
v 0.05801691 -0.03073501 -0.00361643
v 0.05464617 -0.00240946 0.00435290
v 0.05461018 -0.00659970 0.00430585
v 0.05801691 -0.02431945 -0.02006773
v 0.04600938 0.00524305 -0.01687059
v 0.04612933 0.00524305 -0.01680868
v 0.05077161 0.00524305 0.00446187
v 0.05077161 -0.01101484 0.00444701
v 0.05684135 -0.00969503 0.00350347
v 0.05450222 -0.01048218 0.00421422
v 0.05801691 -0.03120257 -0.00378236
v 0.05622958 -0.01342956 0.00330535
v 0.05566579 -0.01628223 0.00307008
v 0.05345861 -0.02155554 0.00348861
v 0.05239101 -0.02495863 0.00322858
v 0.05077161 -0.01497426 0.00443215
v 0.05074762 -0.01892185 0.00439500
v 0.05063966 -0.02266821 0.00431080
v 0.05801691 -0.02462720 -0.02015441
v 0.04242271 0.00524305 -0.01848773
v 0.03901598 -0.03111971 0.00448416
v 0.04290253 -0.03111971 0.00448168
v 0.04681308 -0.02701824 0.00446187
v -0.05466919 0.00524305 0.00445196
v -0.01984614 -0.00134414 0.00448911
v 0.05429830 -0.01423446 0.00403344
v 0.05801691 -0.03304911 -0.00467884
v 0.05158731 -0.02684661 0.00297845
v 0.04970400 -0.02892397 0.00344156
v 0.05032777 -0.02606538 0.00402353
v 0.04652519 -0.03056338 0.00428852
v 0.05801691 -0.02824336 -0.02031538
v 0.05405839 -0.02440230 -0.02025842
v 0.03782842 0.00524305 -0.01896322
v 0.04028750 0.00524305 -0.01887159
v 0.02718838 -0.04293287 0.00446435
v -0.02315691 -0.04682719 0.00447673
v 0.03899199 -0.03506729 0.00446435
v 0.04263863 -0.03465300 0.00431080
v -0.05572480 0.00524305 0.00426127
v -0.05768007 -0.00143292 0.00390218
v -0.05468119 0.00253242 0.00443958
v -0.05466919 -0.00635113 0.00440739
v -0.05073466 -0.02305882 0.00444206
v -0.04684810 -0.02711294 0.00444701
v 0.05801691 -0.03661200 -0.00728906
v 0.04800064 -0.03158726 0.00323849
v 0.04581745 -0.03343973 0.00362977
v 0.04419805 -0.03554077 0.00332021
v 0.05801691 -0.02855111 -0.02031538
v 0.05772902 -0.02824928 -0.02031786
v -0.05706830 -0.02528415 -0.02069428
v -0.05337367 -0.02141942 -0.02059275
v -0.04955909 -0.01760796 -0.02037977
v -0.03362901 0.00524305 -0.01899541
v 0.01910338 -0.04682719 0.00445939
v 0.02303792 -0.04682127 0.00443958
v 0.03101495 -0.04280858 0.00442967
v -0.03115793 -0.04285001 0.00444701
v -0.02686353 -0.04673250 0.00444206
v -0.01894647 -0.05053804 0.00442225
v -0.01507191 -0.05071559 0.00445444
v -0.01101742 -0.05075702 0.00445939
v 0.03866811 -0.03849406 0.00428852
v 0.04185892 -0.03726895 0.00366692
v -0.05776404 0.00524305 0.00371149
v -0.05770406 0.00247915 0.00389723
v -0.05732021 -0.00951156 0.00372388
v -0.05454924 -0.01443569 0.00436776
v -0.05464520 -0.01052361 0.00438757
v -0.05879566 -0.00126721 0.00323601
v -0.05053073 -0.02661579 0.00434547
v -0.04675214 -0.03080603 0.00440491
v -0.05430933 -0.01845429 0.00426623
v 0.05801691 -0.03802650 -0.00850254
v 0.04011957 -0.03916284 0.00334497
v 0.05801691 -0.03236258 -0.01955015
v -0.06452953 -0.03671853 -0.02059275
v -0.06452953 -0.03325626 -0.02081068
v -0.03983071 0.00524305 -0.01891121
v -0.03763553 0.00524305 -0.01899541
v -0.00222469 -0.05076294 0.00445196
v 0.00229763 -0.05076294 0.00444453
v 0.00674797 -0.05076294 0.00442967
v -0.00672302 -0.05076294 0.00445692
v 0.02668456 -0.04655494 0.00437519
v 0.01098240 -0.05075110 0.00440739
v 0.01498891 -0.05064457 0.00436033
v 0.03452965 -0.04213980 0.00425880
v -0.03484056 -0.04242389 0.00438262
v -0.02240119 -0.05008232 0.00431328
v -0.03039022 -0.04611106 0.00430090
v -0.01041764 -0.05355052 0.00414983
v -0.00631517 -0.05378133 0.00421670
v -0.00203276 -0.05388195 0.00421670
v 0.03760050 -0.04089694 0.00366196
v -0.05833983 0.00524305 0.00333507
v -0.05884364 0.00228384 0.00320629
v -0.05700832 -0.01341772 0.00366939
v -0.05856774 -0.00433887 0.00318896
v -0.06452953 -0.03293075 -0.00357433
v -0.04616436 -0.03402565 0.00399381
v -0.05387749 -0.02224208 0.00401858
v -0.06452953 -0.03729262 -0.00397304
v -0.06452953 -0.03797324 -0.00414145
v -0.04218184 -0.03780160 0.00404582
v -0.04281760 -0.03488382 0.00438015
v -0.05640854 -0.01753694 0.00350347
v 0.05801691 -0.03855916 -0.00935693
v 0.03295823 -0.04431186 0.00365453
v 0.02868782 -0.04720597 0.00349852
v 0.05801691 -0.03304911 -0.01935946
v -0.06452953 -0.03696711 -0.02052093
v -0.06452953 -0.03283013 -0.02073638
v -0.04167802 0.00524305 -0.01855955
v 0.02998334 -0.04572637 0.00416221
v 0.01873152 -0.05027763 0.00428604
v 0.02213825 -0.04969171 0.00408544
v 0.00216568 -0.05381684 0.00419689
v 0.00635212 -0.05360378 0.00413002
v -0.03806737 -0.04145327 0.00401363
v -0.02901073 -0.04795761 0.00357529
v -0.02556801 -0.04945497 0.00370902
v -0.02120164 -0.05169805 0.00349852
v -0.01422023 -0.05320725 0.00393933
v -0.03367700 -0.04495105 0.00380808
v -0.00964993 -0.05455665 0.00339450
v -0.00571539 -0.05501236 0.00347623
v -0.00179285 -0.05520767 0.00349109
v -0.05857974 0.00524305 0.00202253
v -0.05871169 0.00467489 0.00312704
v -0.06452953 -0.03679547 -0.00390866
v -0.06452953 -0.03265258 -0.00362634
v -0.06452953 -0.04016305 -0.00515433
v 0.05801691 -0.03900304 -0.01073385
v 0.02514913 -0.04899333 0.00359015
v 0.02319386 -0.05002314 0.00310228
v 0.05801691 -0.03455831 -0.01873786
v -0.06452953 -0.04039979 -0.01932231
v -0.06452953 -0.02965194 -0.02013955
v -0.04526469 0.00524305 -0.01711328
v 0.01774788 -0.05206499 0.00352080
v 0.01043060 -0.05327827 0.00396162
v 0.00193776 -0.05507155 0.00347623
v 0.00582432 -0.05462767 0.00341679
v -0.06452953 -0.04062469 -0.00542427
v -0.06452953 -0.04320512 -0.00773978
v -0.01748302 -0.05280480 0.00352823
v -0.06452953 -0.04469064 -0.01001320
v -0.01335655 -0.05389970 0.00317657
v -0.06452953 -0.04518779 -0.01360410
v -0.00938603 -0.05455665 0.00102451
v -0.00547548 -0.05500645 0.00104679
v -0.00167290 -0.05521359 0.00106908
v -0.05847178 0.00524305 0.00116071
v -0.06452953 -0.02233086 -0.01385423
v -0.05872369 0.00466305 0.00277786
v -0.06452953 -0.02221249 -0.01080320
v -0.06452953 -0.02262678 -0.00974574
v -0.06452953 -0.02484619 -0.00703151
v -0.06452953 -0.02593517 -0.00613749
v -0.06452953 -0.02711886 -0.00521624
v -0.06452953 -0.02895357 -0.00438167
v 0.05801691 -0.03902080 -0.01121182
v 0.02108264 -0.05087539 0.00333011
v 0.05801691 -0.03658833 -0.01719501
v -0.06452953 -0.04221082 -0.01812121
v -0.06452953 -0.02937969 -0.02003554
v -0.04561256 0.00524305 -0.01696717
v 0.01707613 -0.05225438 0.00107899
v 0.05801691 -0.03911549 -0.01393100
v 0.01406525 -0.05292316 0.00355052
v 0.01234989 -0.05346766 0.00307256
v 0.01402927 -0.05304745 0.00105175
v 0.00187778 -0.05507747 0.00108146
v 0.00979484 -0.05397664 0.00325830
v 0.00563239 -0.05462767 0.00108394
v -0.01545577 -0.05346174 0.00297845
v -0.06452953 -0.04482677 -0.01031780
v -0.06452953 -0.04517595 -0.01366106
v -0.00938603 -0.05424297 -0.00451787
v -0.01202505 -0.05388195 -0.00443367
v -0.00930206 -0.05440277 -0.00261593
v -0.00540351 -0.05484073 -0.00261098
v -0.00156494 -0.05502420 -0.00259117
v 0.00198574 -0.05489400 -0.00257135
v -0.05763209 0.00524305 -0.00199433
v -0.06452953 -0.02436679 -0.01685573
v 0.05801691 -0.03740507 -0.01648921
v 0.00210570 -0.05463358 -0.00455254
v -0.06452953 -0.04303349 -0.01723216
v -0.00156494 -0.05476379 -0.00457235
v -0.06452953 -0.02646783 -0.01882701
v -0.04757983 0.00524305 -0.01557539
v 0.01326155 -0.05307704 -0.00255154
v 0.01718409 -0.05200581 -0.00250449
v 0.05801691 -0.03848814 -0.01524849
v 0.01141424 -0.05343215 -0.00372292
v 0.00878722 -0.05386419 -0.00441386
v 0.00963890 -0.05395297 0.00105918
v 0.00568037 -0.05445603 -0.00256392
v -0.06452953 -0.04384431 -0.01626880
v -0.00549947 -0.05461583 -0.00457235
v 0.00581232 -0.05426073 -0.00450054
v -0.05733220 0.00524305 -0.00289082
v -0.06452953 -0.02447924 -0.01697460
v -0.05691236 0.00524305 -0.00352480
v -0.05564083 0.00524305 -0.00516671
f 1 2 7
f 1 7 29
f 1 29 28
f 1 28 38
f 1 38 37
f 1 37 52
f 1 52 67
f 1 67 66
f 1 66 87
f 1 87 113
f 1 113 112
f 1 112 147
f 1 147 173
f 1 173 201
f 1 201 226
f 1 226 240
f 1 240 239
f 1 239 237
f 1 237 219
f 1 219 187
f 1 187 162
f 1 162 129
f 1 129 98
f 1 98 72
f 1 72 56
f 1 56 39
f 1 39 30
f 1 30 9
f 1 9 3
f 1 3 4
f 1 4 5
f 1 5 6
f 1 6 2
f 2 6 7
f 3 8 4
f 3 9 8
f 4 8 10
f 4 10 11
f 4 11 12
f 4 12 13
f 4 13 14
f 4 14 15
f 4 15 16
f 4 16 17
f 4 17 18
f 4 18 19
f 4 19 20
f 4 20 21
f 4 21 22
f 4 22 23
f 4 23 24
f 4 24 25
f 4 25 26
f 4 26 5
f 5 26 25
f 5 25 24
f 5 24 23
f 5 23 22
f 5 22 21
f 5 21 20
f 5 20 19
f 5 19 18
f 5 18 17
f 5 17 16
f 5 16 15
f 5 15 14
f 5 14 13
f 5 13 12
f 5 12 33
f 5 33 43
f 5 43 59
f 5 59 78
f 5 78 107
f 5 107 141
f 5 141 167
f 5 167 196
f 5 196 203
f 5 203 229
f 5 229 221
f 5 221 198
f 5 198 170
f 5 170 144
f 5 144 109
f 5 109 82
f 5 82 64
f 5 64 51
f 5 51 36
f 5 36 27
f 5 27 6
f 6 27 28
f 6 28 29
f 6 29 7
f 8 9 30
f 8 30 31
f 8 31 10
f 10 32 33
f 10 33 12
f 10 12 11
f 10 31 34
f 10 34 35
f 10 35 32
f 27 36 37
f 27 37 38
f 27 38 28
f 30 39 31
f 31 39 40
f 31 40 34
f 32 41 33
f 32 35 42
f 32 42 41
f 33 41 44
f 33 44 45
f 33 45 46
f 33 46 47
f 33 47 43
f 34 40 48
f 34 48 49
f 34 49 35
f 35 49 50
f 35 50 42
f 36 51 52
f 36 52 37
f 39 53 54
f 39 54 55
f 39 55 40
f 39 56 57
f 39 57 53
f 40 55 48
f 41 42 58
f 41 58 44
f 42 50 58
f 43 47 60
f 43 60 61
f 43 61 59
f 44 58 46
f 44 46 45
f 46 58 50
f 46 50 62
f 46 62 47
f 47 62 61
f 47 61 60
f 48 55 49
f 49 55 50
f 50 55 63
f 50 63 62
f 51 64 65
f 51 65 66
f 51 66 67
f 51 67 52
f 53 68 54
f 53 57 69
f 53 69 68
f 54 68 70
f 54 70 71
f 54 71 55
f 55 71 63
f 56 72 73
f 56 73 74
f 56 74 75
f 56 75 76
f 56 76 77
f 56 77 69
f 56 69 57
f 59 61 79
f 59 79 80
f 59 80 81
f 59 81 78
f 61 63 80
f 61 80 79
f 61 62 63
f 63 71 80
f 64 82 83
f 64 83 65
f 65 83 84
f 65 84 85
f 65 85 66
f 66 85 86
f 66 86 87
f 68 88 89
f 68 89 90
f 68 90 70
f 68 69 88
f 69 77 91
f 69 91 92
f 69 92 93
f 69 93 94
f 69 94 95
f 69 95 88
f 70 90 71
f 71 90 96
f 71 96 97
f 71 97 80
f 72 98 99
f 72 99 73
f 73 100 101
f 73 101 102
f 73 102 75
f 73 75 74
f 73 99 103
f 73 103 100
f 75 102 76
f 76 104 105
f 76 105 77
f 76 102 101
f 76 101 106
f 76 106 104
f 77 105 91
f 78 81 97
f 78 97 108
f 78 108 107
f 80 97 81
f 82 109 110
f 82 110 111
f 82 111 83
f 83 111 84
f 84 111 112
f 84 112 85
f 85 112 113
f 85 113 86
f 86 113 87
f 88 114 115
f 88 115 116
f 88 116 89
f 88 95 117
f 88 117 114
f 89 118 90
f 89 116 119
f 89 119 120
f 89 120 118
f 90 118 121
f 90 121 96
f 91 122 92
f 91 105 122
f 92 123 93
f 92 122 124
f 92 124 123
f 93 125 126
f 93 126 94
f 93 123 125
f 94 126 95
f 95 126 127
f 95 127 117
f 96 121 97
f 97 121 128
f 97 128 108
f 98 129 130
f 98 130 99
f 99 130 103
f 100 131 101
f 100 103 132
f 100 132 131
f 101 131 106
f 103 130 133
f 103 133 132
f 104 134 105
f 104 106 135
f 104 135 136
f 104 136 137
f 104 137 134
f 105 134 138
f 105 138 139
f 105 139 122
f 106 131 140
f 106 140 135
f 107 108 128
f 107 128 142
f 107 142 143
f 107 143 141
f 109 144 110
f 110 145 171
f 110 171 199
f 110 199 223
f 110 223 234
f 110 234 212
f 110 212 183
f 110 183 211
f 110 211 181
f 110 181 179
f 110 179 178
f 110 178 166
f 110 166 137
f 110 137 136
f 110 136 164
f 110 164 133
f 110 133 165
f 110 165 195
f 110 195 194
f 110 194 193
f 110 193 192
f 110 192 191
f 110 191 190
f 110 190 188
f 110 188 220
f 110 220 238
f 110 238 225
f 110 225 200
f 110 200 172
f 110 172 146
f 110 146 111
f 110 144 145
f 111 146 147
f 111 147 112
f 114 127 115
f 114 117 127
f 115 127 116
f 116 127 119
f 118 148 121
f 118 120 149
f 118 149 150
f 118 150 148
f 119 127 151
f 119 151 120
f 120 151 152
f 120 152 149
f 121 148 128
f 122 153 124
f 122 139 138
f 122 138 153
f 123 124 154
f 123 154 155
f 123 155 156
f 123 156 157
f 123 157 125
f 124 153 158
f 124 158 154
f 125 157 159
f 125 159 160
f 125 160 126
f 126 160 161
f 126 161 127
f 127 161 151
f 128 148 142
f 129 162 163
f 129 163 130
f 130 163 133
f 131 132 133
f 131 133 164
f 131 164 140
f 133 163 165
f 134 137 138
f 135 140 136
f 136 140 164
f 137 166 153
f 137 153 138
f 141 143 168
f 141 168 169
f 141 169 167
f 142 148 143
f 143 148 168
f 144 170 171
f 144 171 145
f 146 172 147
f 147 172 173
f 148 150 168
f 149 174 150
f 149 152 175
f 149 175 174
f 150 174 168
f 151 161 176
f 151 176 152
f 152 176 177
f 152 177 175
f 153 166 158
f 154 158 178
f 154 178 179
f 154 179 155
f 155 179 156
f 156 180 157
f 156 179 181
f 156 181 180
f 157 180 159
f 158 166 178
f 159 180 182
f 159 182 183
f 159 183 184
f 159 184 160
f 160 185 186
f 160 186 161
f 160 184 185
f 161 186 176
f 162 187 188
f 162 188 189
f 162 189 163
f 163 189 190
f 163 190 191
f 163 191 192
f 163 192 193
f 163 193 194
f 163 194 195
f 163 195 165
f 167 169 197
f 167 197 174
f 167 174 196
f 168 174 197
f 168 197 169
f 170 198 199
f 170 199 171
f 172 200 201
f 172 201 173
f 174 202 203
f 174 203 196
f 174 175 204
f 174 204 205
f 174 205 206
f 174 206 202
f 175 177 204
f 176 207 177
f 176 186 207
f 177 208 204
f 177 207 209
f 177 209 208
f 180 210 182
f 180 181 211
f 180 211 210
f 182 210 211
f 182 211 183
f 183 212 213
f 183 213 214
f 183 214 215
f 183 215 184
f 184 215 185
f 185 215 216
f 185 216 186
f 186 216 217
f 186 217 218
f 186 218 207
f 187 219 220
f 187 220 188
f 188 190 189
f 198 221 222
f 198 222 199
f 199 222 224
f 199 224 223
f 200 225 201
f 201 225 226
f 202 206 227
f 202 227 228
f 202 228 203
f 203 228 230
f 203 230 231
f 203 231 229
f 204 208 205
f 205 208 232
f 205 232 230
f 205 230 206
f 206 230 227
f 207 218 233
f 207 233 209
f 208 209 232
f 209 233 231
f 209 231 232
f 212 234 235
f 212 235 213
f 213 215 214
f 213 235 216
f 213 216 215
f 216 235 217
f 217 235 224
f 217 224 222
f 217 222 218
f 218 222 236
f 218 236 233
f 219 237 220
f 220 237 238
f 221 229 236
f 221 236 222
f 223 224 234
f 224 235 234
f 225 238 237
f 225 237 239
f 225 239 240
f 225 240 226
f 227 230 228
f 229 231 236
f 230 232 231
f 231 233 236

