# https://github.com/mikedh/trimesh
v -0.30124253 -0.28498538 -0.00462155
v -0.30086321 -0.28498538 -0.00896627
v -0.30107862 -0.28498538 -0.00076338
v -0.26795702 -0.22412900 0.00004183
v -0.26796638 -0.22412900 -0.00026830
v -0.26778843 -0.22412900 -0.00461871
v -0.30018421 -0.28498538 -0.01342195
v -0.26734823 -0.22412900 -0.00923657
v -0.26667858 -0.22412900 -0.01375485
v -0.29978150 -0.28498538 0.00220708
v -0.26787739 -0.22412900 0.00157258
v -0.29915867 -0.28498538 -0.01790893
v -0.26647724 -0.22412900 -0.01464541
v -0.29913057 -0.28498538 0.00296392
v -0.26698298 -0.22412900 0.00228959
v -0.29801608 -0.28498538 0.00389147
v -0.29873722 -0.28498538 -0.01926327
v -0.26544232 -0.22412900 -0.01823613
v -0.26526437 -0.22412900 -0.01884786
v -0.26682846 -0.22412900 0.00240624
v -0.29748692 -0.28498538 0.00409348
v -0.26525970 -0.22412900 0.00331104
v -0.29781471 -0.28498538 -0.02054080
v -0.26449170 -0.22412900 -0.02120943
v -0.29494412 -0.28498538 0.00489869
v -0.26283866 -0.22412900 0.00344192
v -0.29006930 -0.28007684 0.00514054
v -0.28618724 -0.27612736 0.00526289
v -0.29772104 -0.28498538 -0.02059201
v -0.26411710 -0.22412900 -0.02157078
v -0.26217373 -0.22412900 -0.02322957
v -0.26139167 -0.22412900 -0.02366774
v -0.29141798 -0.28498538 0.00521736
v -0.26259518 -0.22412900 0.00345046
v -0.27457851 -0.26088350 0.00494137
v -0.29043458 -0.28402632 0.00526004
v -0.28655252 -0.27980282 0.00539946
v -0.27842311 -0.26881818 0.00518607
v -0.29601182 -0.28498538 -0.02141714
v -0.25961689 -0.22412900 -0.02365636
v -0.28714721 -0.27942753 -0.02218251
v -0.29282280 -0.28498538 -0.02201180
v -0.29049543 -0.28498538 0.00513201
v -0.26258580 -0.22452812 0.00346753
v -0.26234229 -0.22412900 0.00342485
v -0.27469090 -0.26480914 0.00504096
v -0.27079480 -0.25671956 0.00470806
v -0.26257176 -0.22847758 0.00363255
v -0.28679132 -0.28385355 0.00485886
v -0.28277816 -0.27983260 0.00482187
v -0.28258615 -0.27605588 0.00531979
v -0.25881144 -0.22412900 -0.02309869
v -0.25892853 -0.22483787 -0.02311860
v -0.25863349 -0.22881713 -0.02241013
v -0.25924225 -0.23651354 -0.02172442
v -0.25978080 -0.24060597 -0.02142567
v -0.26346617 -0.24479967 -0.02220243
v -0.26317584 -0.24092764 -0.02259508
v -0.26754492 -0.25290712 -0.02227641
v -0.27111791 -0.26047841 -0.02225933
v -0.27476585 -0.26418364 -0.02241013
v -0.28359297 -0.27912967 -0.02143705
v -0.28735794 -0.28281704 -0.02138299
v -0.28333071 -0.27554359 -0.02219105
v -0.29081387 -0.28498538 -0.02143990
v -0.28690841 -0.28498538 0.00456580
v -0.25980419 -0.22412900 0.00310049
v -0.27084162 -0.26050224 0.00465685
v -0.27848868 -0.27262468 0.00514054
v -0.27468622 -0.26880029 0.00483041
v -0.26267010 -0.24049278 0.00378904
v -0.26262326 -0.23612634 0.00380327
v -0.26660366 -0.24488307 0.00423290
v -0.26259047 -0.23215304 0.00373498
v -0.25976673 -0.22462343 0.00310902
v -0.28311999 -0.28349019 0.00389716
v -0.27869473 -0.27610950 0.00466538
v -0.25676504 -0.22412900 -0.02154802
v -0.25622185 -0.22524891 -0.02103303
v -0.25637169 -0.22895414 -0.02079971
v -0.25648407 -0.23091399 -0.02064892
v -0.25669948 -0.23337422 -0.02044121
v -0.26046448 -0.24452566 -0.02101880
v -0.25700855 -0.23634079 -0.02009409
v -0.26767605 -0.25644556 -0.02173581
v -0.27101956 -0.26405260 -0.02121228
v -0.27515452 -0.26744211 -0.02197765
v -0.27919111 -0.27131414 -0.02216544
v -0.28087693 -0.27895096 -0.02027619
v -0.28390672 -0.28235242 -0.02011401
v -0.27933159 -0.27524572 -0.02105863
v -0.28737201 -0.28498538 -0.02035585
v -0.28353676 -0.28498538 0.00341347
v -0.25775780 -0.22486170 0.00231520
v -0.25814647 -0.22412900 0.00243470
v -0.27097274 -0.26442194 0.00440931
v -0.26676289 -0.25638003 0.00394838
v -0.26274970 -0.24466862 0.00365531
v -0.27488291 -0.27254128 0.00432395
v -0.25950451 -0.23605484 0.00298952
v -0.25945769 -0.23214708 0.00307204
v -0.25956071 -0.22849546 0.00312894
v -0.28048825 -0.28304937 0.00294400
v -0.27898038 -0.27984451 0.00354435
v -0.25619374 -0.22412900 -0.02107855
v -0.25482167 -0.22538592 -0.01814509
v -0.25499494 -0.22914477 -0.01812517
v -0.25553814 -0.23230195 -0.01853204
v -0.25563648 -0.23627525 -0.01761018
v -0.25755178 -0.24043918 -0.01934579
v -0.26112944 -0.24768880 -0.02053795
v -0.26425758 -0.25269863 -0.02097328
v -0.25614225 -0.24032003 -0.01684480
v -0.26772755 -0.25967422 -0.02080540
v -0.26893103 -0.26289099 -0.02043837
v -0.27214812 -0.26723956 -0.02066030
v -0.27528562 -0.27088524 -0.02083955
v -0.28164021 -0.28078571 -0.01977542
v -0.27669047 -0.27381012 -0.02036154
v -0.28536775 -0.28478283 -0.01951081
v -0.28580795 -0.28498538 -0.01962178
v -0.28188840 -0.28498538 0.00268223
v -0.25752368 -0.22870395 0.00226967
v -0.25550538 -0.22524295 0.00086980
v -0.25739255 -0.22412900 0.00203921
v -0.25781868 -0.22412900 0.00230097
v -0.26756832 -0.26312332 0.00325413
v -0.26705322 -0.25973378 0.00368092
v -0.27113197 -0.26853224 0.00367808
v -0.26385952 -0.25593326 0.00296392
v -0.26286677 -0.24884446 0.00335941
v -0.26018819 -0.24447204 0.00275621
v -0.25974802 -0.24038557 0.00288994
v -0.27530436 -0.27571635 0.00342769
v -0.27241038 -0.27196942 0.00330819
v -0.25743937 -0.23226025 0.00214164
v -0.27807658 -0.28104188 0.00252005
v -0.27667176 -0.27832548 0.00301228
v -0.28143419 -0.28468158 0.00261679
v -0.25482167 -0.22412900 -0.01816785
v -0.25358541 -0.22935326 -0.01356706
v -0.25387106 -0.23253428 -0.01350446
v -0.25437211 -0.23618590 -0.01339065
v -0.25669948 -0.24353680 -0.01593432
v -0.25804345 -0.24465075 -0.01760448
v -0.26179909 -0.25066133 -0.01991768
v -0.26518945 -0.25608216 -0.02046682
v -0.25511671 -0.24018898 -0.01326261
v -0.26963346 -0.26523805 -0.01975266
v -0.27294422 -0.26955089 -0.02009978
v -0.26580760 -0.25791692 -0.02007417
v -0.28064278 -0.28192946 -0.01720615
v -0.28134520 -0.28490199 -0.01459989
v -0.28238010 -0.28381783 -0.01711510
v -0.27788460 -0.27664563 -0.01947382
v -0.27864320 -0.27936797 -0.01754473
v -0.28152315 -0.28498538 -0.01470801
v -0.28525537 -0.28498538 -0.01912670
v -0.28550356 -0.28498538 -0.01941407
v -0.28163085 -0.28498538 0.00247453
v -0.25538829 -0.22907328 0.00080152
v -0.25403029 -0.22558249 -0.00120724
v -0.25557563 -0.22412900 0.00085558
v -0.26920264 -0.26691789 0.00314601
v -0.26490848 -0.25895938 0.00283303
v -0.26187401 -0.25346706 0.00229812
v -0.26132143 -0.25116171 0.00242616
v -0.26088126 -0.24870148 0.00255420
v -0.26286209 -0.25257948 0.00294969
v -0.25791235 -0.24023068 0.00176606
v -0.25755178 -0.23604294 0.00197376
v -0.27355766 -0.27440581 0.00296392
v -0.27026564 -0.26961045 0.00286149
v -0.25546321 -0.23245088 0.00068486
v -0.27888671 -0.28297192 0.00162380
v -0.27747250 -0.28193540 0.00101491
v -0.27456448 -0.27633585 0.00248022
v -0.28108298 -0.28498538 0.00192824
v -0.25396940 -0.22412900 -0.01505513
v -0.25358541 -0.22554675 -0.01363250
v -0.25340278 -0.22945452 -0.00900326
v -0.25369311 -0.23257598 -0.00897196
v -0.25416609 -0.23615612 -0.00894635
v -0.25481231 -0.24014728 -0.00893213
v -0.25636233 -0.24441843 -0.01350162
v -0.25720056 -0.24601489 -0.01505229
v -0.26072203 -0.25277011 -0.01664279
v -0.25993532 -0.24889211 -0.01796299
v -0.26222522 -0.25266287 -0.01924051
v -0.25573015 -0.24391209 -0.00895773
v -0.25694767 -0.24694417 -0.01235213
v -0.26647724 -0.26054394 -0.01899013
v -0.26750746 -0.26370710 -0.01778089
v -0.26852364 -0.26667962 -0.01658019
v -0.26999403 -0.26768636 -0.01783211
v -0.27194208 -0.27101033 -0.01731711
v -0.27385269 -0.27209452 -0.01888770
v -0.27770665 -0.28111335 -0.01434950
v -0.27917707 -0.28339487 -0.01306345
v -0.28125154 -0.28498538 -0.01422716
v -0.28139670 -0.28498538 -0.01452591
v -0.27653595 -0.27822422 -0.01605951
v -0.25394598 -0.22944262 -0.00123569
v -0.25351984 -0.22566589 -0.00447929
v -0.25359947 -0.22412900 -0.00450490
v -0.25394130 -0.22412900 -0.00230836
v -0.25413799 -0.22412900 -0.00120724
v -0.25457348 -0.22412900 -0.00058128
v -0.26571393 -0.26097879 0.00273060
v -0.26248748 -0.25558776 0.00211034
v -0.26065178 -0.25249011 0.00134212
v -0.25696641 -0.24387635 0.00019832
v -0.25846961 -0.24416228 0.00149861
v -0.25624527 -0.24008772 0.00040887
v -0.25573951 -0.23605484 0.00055967
v -0.27301446 -0.27509682 0.00167501
v -0.27085100 -0.27165964 0.00188556
v -0.26962878 -0.27049803 0.00124538
v -0.26817243 -0.26735277 0.00175183
v -0.26664580 -0.26376666 0.00222984
v -0.25415203 -0.23266533 -0.00127552
v -0.28066620 -0.28498538 0.00147869
v -0.28035713 -0.28498538 0.00093524
v -0.27838565 -0.28415142 -0.00120439
v -0.27701358 -0.28241198 -0.00118448
v -0.27502807 -0.27979687 -0.00119870
v -0.27332821 -0.27755108 -0.00125561
v -0.27390887 -0.27713410 0.00091533
v -0.25364629 -0.22412900 -0.01365242
v -0.25343089 -0.22560633 -0.00906016
v -0.25348238 -0.22953792 -0.00442808
v -0.25375867 -0.23268915 -0.00442808
v -0.25423634 -0.23620377 -0.00446506
v -0.25491066 -0.24017111 -0.00453904
v -0.25776251 -0.24866575 -0.01340203
v -0.25915797 -0.25299646 -0.01288989
v -0.26134485 -0.25524225 -0.01553029
v -0.25587063 -0.24390613 -0.00466708
v -0.25682125 -0.24740883 -0.00902602
v -0.25863817 -0.25321093 -0.00919104
v -0.26534397 -0.26206892 -0.01565833
v -0.26603704 -0.26461851 -0.01417025
v -0.26923074 -0.26933643 -0.01495270
v -0.27272881 -0.27372672 -0.01561565
v -0.27713535 -0.28192946 -0.01152700
v -0.27369346 -0.27626438 -0.01391987
v -0.27541207 -0.27913564 -0.01271348
v -0.28026814 -0.28498538 -0.01210744
v -0.25350581 -0.22412900 -0.00907154
v -0.26132143 -0.25547455 0.00082428
v -0.25744407 -0.24598511 -0.00000085
v -0.25530869 -0.24009368 -0.00130398
v -0.25460627 -0.23615016 -0.00129544
v -0.27145509 -0.27491811 -0.00129260
v -0.27020008 -0.27298210 -0.00130398
v -0.26900127 -0.27114734 -0.00135804
v -0.26595744 -0.26493424 0.00059666
v -0.27925667 -0.28498538 -0.00118732
v -0.27886332 -0.28498538 -0.00466992
v -0.27819835 -0.28433607 -0.00467277
v -0.27673729 -0.28251921 -0.00467277
v -0.27467686 -0.27989813 -0.00469838
v -0.27291144 -0.27764639 -0.00476382
v -0.27100085 -0.27504915 -0.00490608
v -0.25354795 -0.22412900 -0.01055677
v -0.25984636 -0.25592134 -0.00927925
v -0.26076887 -0.25602260 -0.01298662
v -0.25630145 -0.24384655 -0.00132959
v -0.25915797 -0.25295476 -0.00145762
v -0.25878336 -0.25321093 -0.00511094
v -0.25995407 -0.25586773 -0.00532718
v -0.26546574 -0.26542864 -0.01150140
v -0.26734355 -0.26746595 -0.01325123
v -0.26870159 -0.27039080 -0.01220418
v -0.26991443 -0.27146901 -0.01322563
v -0.27310342 -0.27711623 -0.01108599
v -0.27679818 -0.28237028 -0.00852810
v -0.27829199 -0.28416333 -0.00852525
v -0.27971559 -0.28498538 -0.01051125
v -0.27216687 -0.27499553 -0.01262528
v -0.26033806 -0.25563540 -0.00157143
v -0.26975990 -0.27319059 -0.00501704
v -0.26855171 -0.27132011 -0.00518776
v -0.26695956 -0.26776378 -0.00145762
v -0.27897102 -0.28498538 -0.00620067
v -0.27465344 -0.27968369 -0.00853948
v -0.27290208 -0.27744388 -0.00857362
v -0.27109919 -0.27504321 -0.00871589
v -0.26963813 -0.27294634 -0.00885530
v -0.26660366 -0.26804972 -0.00542961
v -0.26656620 -0.26793057 -0.00933331
v -0.26563433 -0.26535122 -0.00151168
v -0.26843465 -0.27108181 -0.00906585
v -0.27913490 -0.28498538 -0.00852241
f 1 2 7
f 1 7 12
f 1 12 17
f 1 17 23
f 1 23 29
f 1 29 39
f 1 39 42
f 1 42 65
f 1 65 92
f 1 92 121
f 1 121 159
f 1 159 158
f 1 158 157
f 1 157 201
f 1 201 200
f 1 200 248
f 1 248 279
f 1 279 294
f 1 294 285
f 1 285 259
f 1 259 258
f 1 258 223
f 1 223 222
f 1 222 178
f 1 178 160
f 1 160 122
f 1 122 93
f 1 93 66
f 1 66 43
f 1 43 33
f 1 33 25
f 1 25 21
f 1 21 16
f 1 16 14
f 1 14 10
f 1 10 3
f 1 3 4
f 1 4 5
f 1 5 6
f 1 6 2
f 2 6 8
f 2 8 9
f 2 9 7
f 3 10 11
f 3 11 4
f 4 11 15
f 4 15 20
f 4 20 22
f 4 22 26
f 4 26 34
f 4 34 45
f 4 45 67
f 4 67 95
f 4 95 126
f 4 126 125
f 4 125 163
f 4 163 208
f 4 208 207
f 4 207 206
f 4 206 205
f 4 205 249
f 4 249 265
f 4 265 229
f 4 229 179
f 4 179 140
f 4 140 105
f 4 105 78
f 4 78 52
f 4 52 40
f 4 40 32
f 4 32 31
f 4 31 30
f 4 30 24
f 4 24 19
f 4 19 18
f 4 18 13
f 4 13 9
f 4 9 8
f 4 8 6
f 4 6 5
f 7 9 13
f 7 13 12
f 10 14 11
f 11 14 16
f 11 16 15
f 12 13 18
f 12 18 19
f 12 19 17
f 15 16 20
f 16 21 22
f 16 22 20
f 17 19 24
f 17 24 23
f 21 25 22
f 22 25 27
f 22 27 28
f 22 28 26
f 23 24 30
f 23 30 31
f 23 31 32
f 23 32 29
f 25 33 27
f 26 28 35
f 26 35 34
f 27 33 36
f 27 36 37
f 27 37 28
f 28 37 38
f 28 38 35
f 29 32 39
f 32 40 41
f 32 41 42
f 32 42 39
f 33 43 36
f 34 44 45
f 34 35 44
f 35 38 46
f 35 46 47
f 35 47 48
f 35 48 44
f 36 43 49
f 36 49 37
f 37 49 50
f 37 50 51
f 37 51 38
f 38 51 46
f 40 52 53
f 40 53 54
f 40 54 55
f 40 55 56
f 40 56 57
f 40 57 58
f 40 58 59
f 40 59 60
f 40 60 61
f 40 61 41
f 41 62 63
f 41 63 42
f 41 61 64
f 41 64 62
f 42 63 65
f 43 66 49
f 44 48 45
f 45 48 67
f 46 68 47
f 46 51 69
f 46 69 70
f 46 70 68
f 47 71 72
f 47 72 73
f 47 73 48
f 47 68 71
f 48 74 75
f 48 75 67
f 48 73 74
f 49 76 50
f 49 66 76
f 50 77 69
f 50 69 51
f 50 76 77
f 52 78 79
f 52 79 80
f 52 80 53
f 53 80 81
f 53 81 54
f 54 81 55
f 55 81 82
f 55 82 56
f 56 83 57
f 56 82 84
f 56 84 83
f 57 83 85
f 57 85 59
f 57 59 58
f 59 85 60
f 60 86 87
f 60 87 61
f 60 85 86
f 61 87 88
f 61 88 64
f 62 89 90
f 62 90 63
f 62 64 88
f 62 88 87
f 62 87 91
f 62 91 89
f 63 90 92
f 63 92 65
f 66 93 76
f 67 75 94
f 67 94 95
f 68 70 96
f 68 96 97
f 68 97 98
f 68 98 71
f 69 77 99
f 69 99 70
f 70 99 96
f 71 98 100
f 71 100 101
f 71 101 102
f 71 102 72
f 72 102 75
f 72 75 74
f 72 74 73
f 75 102 94
f 76 93 103
f 76 103 104
f 76 104 77
f 77 104 99
f 78 105 79
f 79 105 106
f 79 106 107
f 79 107 80
f 80 107 81
f 81 107 108
f 81 108 82
f 82 109 84
f 82 108 109
f 83 84 110
f 83 110 111
f 83 111 112
f 83 112 85
f 84 109 113
f 84 113 110
f 85 112 114
f 85 114 86
f 86 114 115
f 86 115 116
f 86 116 87
f 87 116 117
f 87 117 91
f 89 118 90
f 89 91 119
f 89 119 118
f 90 118 120
f 90 120 121
f 90 121 92
f 91 117 119
f 93 122 103
f 94 102 123
f 94 123 124
f 94 124 125
f 94 125 126
f 94 126 95
f 96 127 128
f 96 128 97
f 96 99 129
f 96 129 127
f 97 130 131
f 97 131 98
f 97 128 130
f 98 131 132
f 98 132 133
f 98 133 100
f 99 134 135
f 99 135 129
f 99 104 134
f 100 136 101
f 100 133 136
f 101 136 123
f 101 123 102
f 103 137 138
f 103 138 104
f 103 122 139
f 103 139 137
f 104 138 134
f 105 140 106
f 106 140 141
f 106 141 107
f 107 141 142
f 107 142 109
f 107 109 108
f 109 142 143
f 109 143 113
f 110 113 144
f 110 144 145
f 110 145 146
f 110 146 111
f 111 146 147
f 111 147 112
f 112 147 114
f 113 143 148
f 113 148 144
f 114 147 115
f 115 149 150
f 115 150 116
f 115 147 151
f 115 151 149
f 116 150 119
f 116 119 117
f 118 152 153
f 118 153 154
f 118 154 120
f 118 119 155
f 118 155 156
f 118 156 152
f 119 150 155
f 120 154 153
f 120 153 157
f 120 157 158
f 120 158 159
f 120 159 121
f 122 160 139
f 123 136 161
f 123 161 124
f 124 161 162
f 124 162 163
f 124 163 125
f 127 129 164
f 127 164 165
f 127 165 130
f 127 130 128
f 129 135 164
f 130 165 166
f 130 166 167
f 130 167 168
f 130 168 169
f 130 169 131
f 131 169 132
f 132 169 168
f 132 168 170
f 132 170 171
f 132 171 133
f 133 171 136
f 134 172 135
f 134 138 172
f 135 173 164
f 135 172 173
f 136 174 161
f 136 171 174
f 137 139 175
f 137 175 176
f 137 176 177
f 137 177 172
f 137 172 138
f 139 160 178
f 139 178 175
f 140 179 180
f 140 180 141
f 141 181 142
f 141 180 181
f 142 181 182
f 142 182 183
f 142 183 143
f 143 183 184
f 143 184 148
f 144 148 185
f 144 185 186
f 144 186 187
f 144 187 145
f 145 187 188
f 145 188 146
f 146 187 189
f 146 189 147
f 146 188 187
f 147 189 151
f 148 184 190
f 148 190 191
f 148 191 185
f 149 151 189
f 149 189 192
f 149 192 193
f 149 193 194
f 149 194 195
f 149 195 196
f 149 196 197
f 149 197 150
f 150 197 155
f 152 156 198
f 152 198 153
f 153 198 199
f 153 199 200
f 153 200 201
f 153 201 157
f 155 202 156
f 155 197 202
f 156 202 198
f 161 174 203
f 161 203 162
f 162 204 205
f 162 205 206
f 162 206 207
f 162 207 208
f 162 208 163
f 162 203 204
f 164 209 165
f 164 173 209
f 165 210 166
f 165 209 210
f 166 210 211
f 166 211 212
f 166 212 167
f 167 212 213
f 167 213 168
f 168 213 170
f 170 214 215
f 170 215 171
f 170 213 214
f 171 215 174
f 172 177 216
f 172 216 217
f 172 217 173
f 173 217 218
f 173 218 219
f 173 219 220
f 173 220 209
f 174 221 203
f 174 215 221
f 175 178 222
f 175 222 176
f 176 222 223
f 176 223 224
f 176 224 225
f 176 225 226
f 176 226 227
f 176 227 228
f 176 228 216
f 176 216 177
f 179 229 180
f 180 229 230
f 180 230 181
f 181 231 232
f 181 232 182
f 181 230 231
f 182 232 183
f 183 233 184
f 183 232 233
f 184 234 190
f 184 233 234
f 185 191 186
f 186 191 235
f 186 235 236
f 186 236 187
f 187 236 237
f 187 237 189
f 189 237 192
f 190 238 239
f 190 239 191
f 190 234 238
f 191 239 240
f 191 240 236
f 191 236 235
f 192 237 193
f 193 237 194
f 194 237 241
f 194 241 242
f 194 242 243
f 194 243 195
f 195 243 196
f 196 243 244
f 196 244 197
f 197 244 202
f 198 245 199
f 198 202 244
f 198 244 246
f 198 246 247
f 198 247 245
f 199 248 200
f 199 245 248
f 203 221 231
f 203 231 204
f 204 230 249
f 204 249 205
f 204 231 230
f 209 220 210
f 210 250 211
f 210 220 250
f 211 250 251
f 211 251 212
f 212 251 252
f 212 252 214
f 212 214 213
f 214 252 253
f 214 253 215
f 215 253 221
f 216 218 217
f 216 228 218
f 218 228 254
f 218 254 255
f 218 255 256
f 218 256 257
f 218 257 219
f 219 257 220
f 220 257 250
f 221 232 231
f 221 253 232
f 223 258 224
f 224 258 259
f 224 259 260
f 224 260 261
f 224 261 225
f 225 261 262
f 225 262 263
f 225 263 226
f 226 263 227
f 227 263 264
f 227 264 254
f 227 254 228
f 229 265 230
f 230 265 249
f 232 253 233
f 233 253 234
f 234 253 252
f 234 252 238
f 236 240 266
f 236 266 267
f 236 267 237
f 237 267 242
f 237 242 241
f 238 268 269
f 238 269 270
f 238 270 240
f 238 240 239
f 238 252 268
f 240 270 271
f 240 271 266
f 242 272 273
f 242 273 243
f 242 267 272
f 243 274 275
f 243 275 246
f 243 246 244
f 243 273 274
f 245 247 276
f 245 276 277
f 245 277 278
f 245 278 279
f 245 279 248
f 246 276 247
f 246 275 280
f 246 280 276
f 250 281 269
f 250 269 251
f 250 257 281
f 251 268 252
f 251 269 268
f 254 264 282
f 254 282 256
f 254 256 255
f 256 282 283
f 256 283 284
f 256 284 257
f 257 284 281
f 259 285 278
f 259 278 260
f 260 278 277
f 260 277 261
f 261 277 286
f 261 286 262
f 262 286 263
f 263 286 287
f 263 287 288
f 263 288 264
f 264 288 289
f 264 289 282
f 266 290 291
f 266 291 272
f 266 272 267
f 266 271 290
f 269 281 270
f 270 281 271
f 271 281 292
f 271 292 284
f 271 284 290
f 272 291 293
f 272 293 274
f 272 274 273
f 274 280 275
f 274 293 289
f 274 289 276
f 274 276 280
f 276 289 288
f 276 288 287
f 276 287 286
f 276 286 277
f 278 285 294
f 278 294 279
f 281 284 292
f 282 289 283
f 283 289 293
f 283 293 290
f 283 290 284
f 290 293 291

