# https://github.com/mikedh/trimesh
v -0.09879180 -0.40375649 -0.00513229
v -0.09858346 -0.40375649 -0.00591960
v -0.09870342 -0.40375649 -0.00458173
v -0.09799634 -0.40147065 -0.00260773
v -0.09837513 -0.40138625 -0.00507238
v -0.09745341 -0.40142463 -0.00865810
v -0.09704937 -0.40272095 -0.01112846
v -0.09761755 -0.40375649 -0.00950533
v -0.09833725 -0.40375649 -0.00257350
v -0.09696098 -0.40151667 -0.00045402
v -0.09675264 -0.39908508 -0.00094751
v -0.09543319 -0.38936634 -0.00264767
v -0.09685365 -0.39441363 -0.00369743
v -0.09689153 -0.39426023 -0.00461026
v -0.09590668 -0.38928966 -0.00519219
v -0.09513647 -0.38916692 -0.00868092
v -0.09413899 -0.38909788 -0.01245207
v -0.09305943 -0.39659210 -0.01804032
v -0.09310994 -0.40047345 -0.01936678
v -0.09318570 -0.40375649 -0.01992304
v -0.09709987 -0.40375649 -0.01121118
v -0.09318570 -0.38908255 -0.01474271
v -0.09353923 -0.39252664 -0.01532179
v -0.09809104 -0.40375649 -0.00206859
v -0.09710618 -0.40375649 -0.00010600
v -0.09592562 -0.40375649 0.00147149
v -0.09518697 -0.40155502 0.00192220
v -0.09388646 -0.38945074 0.00027055
v -0.09354555 -0.38671231 -0.00032565
v -0.09425262 -0.38584553 -0.00230250
v -0.09357711 -0.38274658 -0.00325242
v -0.09511122 -0.38635945 -0.00522642
v -0.09415793 -0.38599893 -0.00902038
v -0.09377282 -0.38700378 -0.01185587
v -0.09233973 -0.39274143 -0.01808596
v -0.09007961 -0.38922062 -0.02081305
v -0.09057204 -0.39286417 -0.02105837
v -0.09296474 -0.40375649 -0.02014269
v -0.09099502 -0.39673785 -0.02115821
v -0.09165159 -0.38913622 -0.01799182
v -0.09269958 -0.38571511 -0.01338772
v -0.09048366 -0.38555402 -0.01816583
v -0.09535112 -0.40375649 0.00223599
v -0.09266801 -0.39584806 0.00353107
v -0.09245337 -0.39351616 0.00321158
v -0.09206195 -0.38960414 0.00257830
v -0.09307206 -0.38425002 -0.00098175
v -0.08867809 -0.38033800 0.00320302
v -0.08983340 -0.37767628 0.00049305
v -0.08931571 -0.37472309 -0.00035988
v -0.09148114 -0.37743848 -0.00273039
v -0.09210615 -0.37720836 -0.00552880
v -0.09140538 -0.37712399 -0.00874083
v -0.09322989 -0.38444180 -0.01090310
v -0.08966294 -0.37458502 -0.01120548
v -0.09016169 -0.37720836 -0.01231514
v -0.08965663 -0.38663559 -0.02042509
v -0.08552781 -0.38044538 -0.02213951
v -0.08613387 -0.38299972 -0.02221938
v -0.08829929 -0.38897514 -0.02181146
v -0.09148745 -0.40375649 -0.02118389
v -0.09129805 -0.40034306 -0.02118389
v -0.08807833 -0.39238860 -0.02201399
v -0.09001648 -0.38253180 -0.01685078
v -0.08924627 -0.38419634 -0.01976329
v -0.09475768 -0.40375649 0.00291776
v -0.09299630 -0.39853279 0.00375072
v -0.09006067 -0.38970387 0.00415009
v -0.08952405 -0.38608330 0.00388480
v -0.08911370 -0.38326818 0.00359953
v -0.08650635 -0.37759957 0.00380492
v -0.08577402 -0.37423216 0.00342838
v -0.08502275 -0.37141704 0.00304898
v -0.08824879 -0.37776065 0.00258116
v -0.08723237 -0.37315059 0.00133457
v -0.08627276 -0.36971414 0.00042744
v -0.08877278 -0.37210740 -0.00146954
v -0.08984602 -0.37340372 -0.00277033
v -0.09066043 -0.37335770 -0.00572848
v -0.09001017 -0.37335002 -0.00870375
v -0.08912632 -0.37223011 -0.00996745
v -0.08491543 -0.37259830 -0.01888754
v -0.08548993 -0.37524469 -0.02015124
v -0.08770586 -0.37759192 -0.01761528
v -0.08898743 -0.38135053 -0.01803746
v -0.08612125 -0.37781436 -0.02064474
v -0.08487124 -0.37772999 -0.02182858
v -0.08170202 -0.37157044 -0.02210528
v -0.08230809 -0.37367987 -0.02218800
v -0.08650004 -0.38522420 -0.02222223
v -0.08330557 -0.37736945 -0.02228214
v -0.04968157 -0.34102592 -0.02360860
v -0.08859601 -0.40375649 -0.02187136
v -0.08846975 -0.39644637 -0.02196835
v -0.08685989 -0.38866833 -0.02219941
v -0.09356448 -0.40375649 0.00416150
v -0.09336878 -0.40156270 0.00399605
v -0.08754171 -0.38939704 0.00506007
v -0.08733338 -0.38591457 0.00472631
v -0.09272484 -0.40375649 0.00450381
v -0.09096346 -0.40137860 0.00495737
v -0.08742176 -0.38178008 0.00409018
v -0.08340027 -0.37718535 0.00474343
v -0.08358966 -0.37279776 0.00397037
v -0.08252904 -0.36925390 0.00364232
v -0.08440406 -0.36950704 0.00250699
v -0.08161995 -0.36656149 0.00324296
v -0.08076767 -0.36422195 0.00273520
v -0.08541417 -0.36691436 -0.00046828
v -0.08821722 -0.36983689 -0.00294434
v -0.08920208 -0.37096445 -0.00409964
v -0.08942304 -0.37067297 -0.00583117
v -0.08940410 -0.37106418 -0.00733735
v -0.08843187 -0.36987523 -0.00861817
v -0.08574877 -0.36689902 -0.01144795
v -0.08649372 -0.36986755 -0.01295413
v -0.08147474 -0.36762005 -0.02014839
v -0.08218182 -0.37018972 -0.02089863
v -0.08076135 -0.36905448 -0.02166883
v -0.07740906 -0.36441372 -0.02205964
v -0.07483328 -0.36199746 -0.02229070
v -0.07629163 -0.36545695 -0.02233349
v -0.05674602 -0.34545189 -0.02310654
v -0.05276872 -0.34163957 -0.02323776
v -0.04551487 -0.33769686 -0.02356011
v -0.03773703 -0.33392288 -0.02352873
v -0.08691040 -0.39073173 -0.02217944
v -0.08852657 -0.40375649 -0.02185425
v -0.03429635 -0.33366207 -0.02340036
v -0.03429635 -0.33526526 -0.02306946
v -0.08771848 -0.39305592 0.00529398
v -0.08367173 -0.38128149 0.00506863
v -0.09107078 -0.40375649 0.00510571
v -0.07960604 -0.37251393 0.00504866
v -0.07927144 -0.36890104 0.00472917
v -0.07937246 -0.36544158 0.00381633
v -0.08307198 -0.36552598 0.00114344
v -0.07821083 -0.36216622 0.00326578
v -0.07752270 -0.36010282 0.00285500
v -0.07653152 -0.35761752 0.00209336
v -0.08000377 -0.36202047 0.00191365
v -0.08098864 -0.35938945 -0.00101598
v -0.08183460 -0.36189776 -0.00011741
v -0.08455558 -0.36442905 -0.00163785
v -0.08602024 -0.36589415 -0.00298713
v -0.08508588 -0.36367734 -0.00410250
v -0.08856445 -0.36894707 -0.00587396
v -0.08615281 -0.36584047 -0.00868663
v -0.08485230 -0.36437538 -0.01001880
v -0.08144318 -0.35932041 -0.01093163
v -0.07828659 -0.35885249 -0.01634872
v -0.07733330 -0.36011050 -0.01944665
v -0.07814139 -0.36307137 -0.02059910
v -0.07666410 -0.36185939 -0.02123238
v -0.07386105 -0.35977297 -0.02219086
v -0.05394297 -0.34047363 -0.02239910
v -0.05221315 -0.33976791 -0.02270147
v -0.04866515 -0.33816475 -0.02311795
v -0.07012996 -0.35575357 -0.02217944
v -0.06622210 -0.35180318 -0.02219656
v -0.05977003 -0.34633399 -0.02251891
v -0.05819805 -0.34410951 -0.02232493
v -0.05568541 -0.34249101 -0.02258452
v -0.03960573 -0.33237342 -0.02312936
v -0.03728248 -0.33177511 -0.02327485
v -0.03429635 -0.33096969 -0.02331193
v -0.08612125 -0.40375649 -0.02114680
v -0.03429635 -0.33623177 -0.02166883
v -0.03430266 -0.33528059 -0.02306661
v -0.08606442 -0.40375649 -0.02112684
v -0.08786368 -0.39697565 0.00546229
v -0.09023744 -0.40375649 0.00528542
v -0.07211230 -0.36179035 0.00512853
v -0.07540147 -0.36533421 0.00501157
v -0.06792666 -0.35384357 0.00471776
v -0.07172088 -0.35829255 0.00461221
v -0.07141785 -0.35428845 0.00352822
v -0.07384843 -0.35588396 0.00300619
v -0.07259841 -0.35307649 0.00223028
v -0.07803406 -0.35594532 -0.00062232
v -0.07894316 -0.35865306 0.00053299
v -0.08150000 -0.35874511 -0.00295575
v -0.08048989 -0.35730303 -0.00292437
v -0.08359597 -0.36206649 -0.00291011
v -0.08194823 -0.35837692 -0.00559726
v -0.08384219 -0.36125342 -0.00574274
v -0.08694827 -0.36613195 -0.00587111
v -0.08518690 -0.36381541 -0.00749139
v -0.08379168 -0.36210487 -0.00873227
v -0.08173990 -0.35885249 -0.00864955
v -0.08056565 -0.35718029 -0.00857823
v -0.07824240 -0.35527797 -0.01137093
v -0.07949241 -0.35783999 -0.01270310
v -0.07743431 -0.35623680 -0.01449453
v -0.07655047 -0.35766354 -0.01775791
v -0.07363378 -0.35570755 -0.01990592
v -0.07442293 -0.35816981 -0.02083587
v -0.07262998 -0.35708824 -0.02146059
v -0.06879788 -0.35320692 -0.02164316
v -0.05780032 -0.34027418 -0.01939530
v -0.04941010 -0.33712155 -0.02209957
v -0.04699216 -0.33642351 -0.02283840
v -0.06070438 -0.34531381 -0.02164030
v -0.06220061 -0.34393309 -0.01976900
v -0.06473850 -0.34918749 -0.02168595
v -0.04200474 -0.33311746 -0.02250464
v -0.03526858 -0.32812387 -0.02091860
v -0.03429635 -0.32838469 -0.02169736
v -0.03429635 -0.32902900 -0.02235631
v -0.03429635 -0.32958896 -0.02283269
v -0.03429635 -0.33629312 -0.02156043
v -0.08483336 -0.40375649 -0.01834269
v -0.08804677 -0.40070357 0.00553360
v -0.06860217 -0.35746411 0.00514279
v -0.08823616 -0.40375649 0.00550507
v -0.06467538 -0.35320692 0.00514850
v -0.06387992 -0.35001592 0.00474913
v -0.06754156 -0.35015399 0.00356245
v -0.07000369 -0.35145032 0.00306324
v -0.06869687 -0.34893436 0.00227878
v -0.07134841 -0.35016165 0.00088386
v -0.07402520 -0.35148866 -0.00051392
v -0.07672092 -0.35319155 -0.00223689
v -0.07843811 -0.35467201 -0.00318396
v -0.07724492 -0.35255490 -0.00448474
v -0.08085605 -0.35685812 -0.00550598
v -0.07869063 -0.35481008 -0.00851262
v -0.07699239 -0.35280035 -0.00845557
v -0.07297721 -0.34861219 -0.00931135
v -0.07431560 -0.35104378 -0.01169898
v -0.07586233 -0.35357508 -0.01310531
v -0.07350120 -0.35192589 -0.01484540
v -0.07437873 -0.35478707 -0.01751259
v -0.07278149 -0.35289240 -0.01742701
v -0.06990900 -0.35158839 -0.01993159
v -0.07131684 -0.35446490 -0.02074173
v -0.06610215 -0.34759966 -0.01988595
v -0.06001625 -0.34085716 -0.01763810
v -0.05886094 -0.33933836 -0.01644286
v -0.05607051 -0.33798833 -0.01733572
v -0.05319801 -0.33665363 -0.01826853
v -0.05062223 -0.33612436 -0.01996582
v -0.05196694 -0.33781192 -0.02095568
v -0.06477638 -0.34486890 -0.01807455
v -0.06365263 -0.34319671 -0.01685934
v -0.04072317 -0.33169074 -0.02161178
v -0.03797062 -0.32849207 -0.01816869
v -0.03603879 -0.32765595 -0.01828279
v -0.03429635 -0.32741818 -0.01982605
v -0.03429635 -0.32791677 -0.02116107
v -0.04324844 -0.33225836 -0.02045933
v -0.05203007 -0.33531128 -0.01694777
v -0.05432807 -0.33575616 -0.01528185
v -0.05179017 -0.33317116 -0.01228376
v -0.05030657 -0.33179812 -0.01060073
v -0.03429635 -0.33743604 -0.01804032
v -0.08478917 -0.40375649 -0.01823715
v -0.05667657 -0.34595047 0.00510571
v -0.06049605 -0.34955568 0.00516847
v -0.08748490 -0.40375649 0.00529683
v -0.03429635 -0.33631613 0.00373075
v -0.03429635 -0.33623942 0.00374216
v -0.03429635 -0.33437544 0.00387053
v -0.04974470 -0.34140945 0.00477481
v -0.05985210 -0.34638002 0.00468352
v -0.06350112 -0.34635701 0.00353963
v -0.06612741 -0.34759198 0.00303472
v -0.06471325 -0.34499930 0.00221032
v -0.06737742 -0.34621128 0.00087815
v -0.07010471 -0.34749228 -0.00045687
v -0.07269943 -0.34882695 -0.00217414
v -0.07728280 -0.35250119 -0.00506097
v -0.07497217 -0.35066026 -0.00338649
v -0.07324236 -0.34818264 -0.00465875
v -0.07869695 -0.35422710 -0.00556303
v -0.07725123 -0.35252421 -0.00616778
v -0.07326761 -0.34817496 -0.00669837
v -0.07461232 -0.35006960 -0.00817887
v -0.06761100 -0.34292824 -0.00828727
v -0.06893677 -0.34455442 -0.00927997
v -0.06636731 -0.34335779 -0.01273447
v -0.07244690 -0.34980881 -0.01304541
v -0.06571705 -0.34392541 -0.01520198
v -0.06954284 -0.34797553 -0.01523906
v -0.07049613 -0.35006960 -0.01696774
v -0.06872844 -0.34894201 -0.01813445
v -0.06161348 -0.34016680 -0.01428914
v -0.05716900 -0.33639285 -0.01259755
v -0.03871557 -0.32796279 -0.01530182
v -0.03732667 -0.32708068 -0.01400103
v -0.03429635 -0.32698863 -0.01834840
v -0.05516772 -0.33514252 -0.01260896
v -0.05248462 -0.33243478 -0.00899186
v -0.05068537 -0.33160634 -0.00906603
v -0.04855151 -0.33071656 -0.00922007
v -0.03945422 -0.32759460 -0.01262037
v -0.03429635 -0.33755878 -0.01760102
v -0.08458083 -0.40375649 -0.01392972
v -0.03429635 -0.33850993 -0.01262893
v -0.03429635 -0.33897785 -0.00864384
v -0.05293917 -0.34191571 0.00481760
v -0.08720080 -0.40375649 0.00521125
v -0.03429635 -0.33729029 0.00261539
v -0.03429635 -0.33414532 0.00386768
v -0.04533179 -0.33791162 0.00437829
v -0.05609576 -0.34231457 0.00427560
v -0.05925867 -0.34249101 0.00335992
v -0.06216904 -0.34394842 0.00300619
v -0.05771825 -0.34022050 0.00280651
v -0.06032559 -0.34109496 0.00175675
v -0.06334961 -0.34236827 0.00062997
v -0.06612109 -0.34359559 -0.00049680
v -0.06866530 -0.34480755 -0.00240805
v -0.07332443 -0.34810592 -0.00579124
v -0.07572975 -0.35077532 -0.00568284
v -0.06734585 -0.34308165 -0.00351486
v -0.06922718 -0.34426291 -0.00494401
v -0.06925875 -0.34423225 -0.00682388
v -0.06500997 -0.34051198 -0.00863528
v -0.06381678 -0.34117165 -0.01273733
v -0.06258571 -0.33950713 -0.01117695
v -0.06018670 -0.33846390 -0.01267742
v -0.05795183 -0.33587122 -0.01003591
v -0.03429635 -0.32594541 -0.01405523
v -0.05634198 -0.33459791 -0.00899186
v -0.05836850 -0.33561044 -0.00800771
v -0.05589374 -0.33408396 -0.00623910
v -0.05262351 -0.33233505 -0.00629044
v -0.05083057 -0.33151430 -0.00627333
v -0.04850732 -0.33051713 -0.00616493
v -0.04494037 -0.32928981 -0.00946254
v -0.04190373 -0.32811619 -0.00966222
v -0.03995927 -0.32738749 -0.00981341
v -0.03725723 -0.32641333 -0.00991325
v -0.08461240 -0.40375649 -0.00987902
v -0.03429635 -0.33881677 -0.00493831
v -0.04887980 -0.33804204 0.00417576
v -0.05197957 -0.33806505 0.00362521
v -0.08665156 -0.40375649 0.00364518
v -0.03429635 -0.33739002 0.00243282
v -0.03775597 -0.33432942 0.00387909
v -0.03429635 -0.33084695 0.00326293
v -0.05582429 -0.33956080 0.00319732
v -0.05280659 -0.33674568 0.00240429
v -0.05588743 -0.33742071 0.00099511
v -0.05933442 -0.33939972 0.00062142
v -0.06207435 -0.33998270 -0.00090473
v -0.06464381 -0.34077279 -0.00323816
v -0.07126002 -0.34610387 -0.00588252
v -0.06529407 -0.34036622 -0.00601089
v -0.06735847 -0.34232993 -0.00598807
v -0.06346955 -0.33898550 -0.00602515
v -0.06317915 -0.33913125 -0.00866381
v -0.05982685 -0.33683005 -0.00888061
v -0.03429635 -0.32540080 -0.00997315
v -0.05846320 -0.33561044 -0.00615637
v -0.06043923 -0.33687607 -0.00608791
v -0.05822330 -0.33580987 -0.00457032
v -0.05040758 -0.33170607 -0.00445622
v -0.03984564 -0.32765595 -0.00310979
v -0.04499087 -0.32913640 -0.00596525
v -0.04209313 -0.32807785 -0.00585970
v -0.03429635 -0.32539312 -0.00899756
v -0.04016129 -0.32739517 -0.00584258
v -0.08490911 -0.40375649 -0.00593957
v -0.03429635 -0.33821077 -0.00095322
v -0.08492806 -0.40375649 -0.00571992
v -0.03740875 -0.33171375 0.00326863
v -0.03988983 -0.33219698 0.00315453
v -0.04840000 -0.33578686 0.00332854
v -0.05036970 -0.33618574 0.00308892
v -0.08654423 -0.40375649 0.00330572
v -0.03429635 -0.33811107 -0.00045402
v -0.08642428 -0.40375649 0.00276943
v -0.08559725 -0.40375649 -0.00103880
v -0.03429635 -0.32909803 0.00259827
v -0.04685326 -0.33175978 -0.00024577
v -0.05168285 -0.33518086 0.00114630
v -0.05463110 -0.33564878 -0.00019158
v -0.05733946 -0.33633915 -0.00185464
v -0.05962483 -0.33725195 -0.00318681
v -0.06284455 -0.33945342 -0.00317255
v -0.05592530 -0.33503514 -0.00312120
v -0.05171441 -0.33283366 -0.00302421
v -0.04918914 -0.33219698 -0.00155227
v -0.04819166 -0.33130719 -0.00277033
v -0.04485198 -0.33001086 -0.00229680
v -0.03764865 -0.32724942 -0.00172057
v -0.03429635 -0.32609881 -0.00156653
v -0.03429635 -0.32596074 -0.00235955
v -0.03429635 -0.32546216 -0.00564861
v -0.03740243 -0.32645936 -0.00575130
v -0.04113984 -0.32856878 -0.00194878
v -0.03905649 -0.32817758 -0.00050822
v -0.08551518 -0.40375649 -0.00156368
v -0.03644914 -0.32784773 0.00073837
v -0.03429635 -0.32772499 0.00134027
v -0.03429635 -0.32635963 -0.00094181
f 1 2 8
f 1 8 21
f 1 21 20
f 1 20 38
f 1 38 61
f 1 61 93
f 1 93 128
f 1 128 167
f 1 167 170
f 1 170 212
f 1 212 257
f 1 257 298
f 1 298 335
f 1 335 365
f 1 365 367
f 1 367 395
f 1 395 375
f 1 375 374
f 1 374 372
f 1 372 339
f 1 339 302
f 1 302 260
f 1 260 215
f 1 215 172
f 1 172 133
f 1 133 100
f 1 100 96
f 1 96 66
f 1 66 43
f 1 43 26
f 1 26 25
f 1 25 24
f 1 24 9
f 1 9 3
f 1 3 4
f 1 4 5
f 1 5 6
f 1 6 7
f 1 7 2
f 2 7 8
f 3 9 4
f 4 9 10
f 4 10 11
f 4 11 12
f 4 12 13
f 4 13 5
f 5 13 14
f 5 14 15
f 5 15 16
f 5 16 6
f 6 16 17
f 6 17 7
f 7 18 19
f 7 19 20
f 7 20 21
f 7 21 8
f 7 17 22
f 7 22 23
f 7 23 18
f 9 24 10
f 10 24 25
f 10 25 26
f 10 26 27
f 10 27 28
f 10 28 11
f 11 28 12
f 12 28 29
f 12 29 30
f 12 30 31
f 12 31 32
f 12 32 15
f 12 15 13
f 13 15 14
f 15 32 16
f 16 32 33
f 16 33 34
f 16 34 17
f 17 34 22
f 18 23 22
f 18 22 35
f 18 35 19
f 19 35 36
f 19 36 37
f 19 37 20
f 20 37 39
f 20 39 38
f 22 40 35
f 22 34 41
f 22 41 42
f 22 42 40
f 26 43 27
f 27 44 45
f 27 45 28
f 27 43 44
f 28 45 46
f 28 46 29
f 29 47 30
f 29 46 48
f 29 48 49
f 29 49 50
f 29 50 47
f 30 47 51
f 30 51 31
f 31 51 52
f 31 52 32
f 32 52 53
f 32 53 33
f 33 54 34
f 33 53 54
f 34 54 55
f 34 55 56
f 34 56 41
f 35 40 36
f 36 40 57
f 36 57 58
f 36 58 59
f 36 59 37
f 37 59 60
f 37 60 39
f 38 39 62
f 38 62 61
f 39 60 63
f 39 63 62
f 40 42 57
f 41 64 42
f 41 56 64
f 42 64 65
f 42 65 57
f 43 66 44
f 44 66 67
f 44 67 68
f 44 68 69
f 44 69 45
f 45 69 70
f 45 70 46
f 46 70 48
f 47 50 51
f 48 71 72
f 48 72 73
f 48 73 74
f 48 74 49
f 48 70 71
f 49 74 50
f 50 74 75
f 50 75 76
f 50 76 77
f 50 77 51
f 51 77 78
f 51 78 79
f 51 79 52
f 52 79 53
f 53 79 80
f 53 80 55
f 53 55 54
f 55 80 81
f 55 81 82
f 55 82 83
f 55 83 84
f 55 84 56
f 56 84 85
f 56 85 64
f 57 65 86
f 57 86 87
f 57 87 58
f 58 87 88
f 58 88 89
f 58 89 59
f 59 90 60
f 59 89 91
f 59 91 92
f 59 92 90
f 60 90 63
f 61 62 94
f 61 94 93
f 62 63 94
f 63 90 95
f 63 95 94
f 64 85 65
f 65 85 83
f 65 83 86
f 66 96 97
f 66 97 67
f 67 97 68
f 68 98 99
f 68 99 69
f 68 97 96
f 68 96 100
f 68 100 101
f 68 101 98
f 69 99 102
f 69 102 71
f 69 71 70
f 71 103 104
f 71 104 72
f 71 102 99
f 71 99 103
f 72 104 105
f 72 105 73
f 73 106 76
f 73 76 75
f 73 75 74
f 73 105 107
f 73 107 108
f 73 108 106
f 76 106 109
f 76 109 77
f 77 109 110
f 77 110 111
f 77 111 78
f 78 111 79
f 79 111 112
f 79 112 113
f 79 113 80
f 80 113 81
f 81 113 114
f 81 114 115
f 81 115 116
f 81 116 82
f 82 116 115
f 82 115 117
f 82 117 83
f 83 87 86
f 83 85 84
f 83 117 118
f 83 118 88
f 83 88 87
f 88 118 119
f 88 119 120
f 88 120 121
f 88 121 89
f 89 121 122
f 89 122 92
f 89 92 91
f 90 92 95
f 92 123 124
f 92 124 125
f 92 125 126
f 92 126 93
f 92 93 127
f 92 127 95
f 92 122 121
f 92 121 123
f 93 94 127
f 93 126 129
f 93 129 130
f 93 130 128
f 94 95 127
f 98 101 131
f 98 131 132
f 98 132 103
f 98 103 99
f 100 133 101
f 101 133 131
f 103 132 134
f 103 134 135
f 103 135 104
f 104 135 105
f 105 135 136
f 105 136 107
f 106 108 137
f 106 137 109
f 107 136 138
f 107 138 139
f 107 139 108
f 108 139 140
f 108 140 141
f 108 141 142
f 108 142 143
f 108 143 137
f 109 137 143
f 109 143 142
f 109 142 144
f 109 144 145
f 109 145 110
f 110 145 111
f 111 145 146
f 111 146 147
f 111 147 112
f 112 147 113
f 113 147 148
f 113 148 114
f 114 148 115
f 115 148 149
f 115 149 150
f 115 150 151
f 115 151 117
f 117 151 152
f 117 152 153
f 117 153 119
f 117 119 118
f 119 153 120
f 120 153 154
f 120 154 155
f 120 155 121
f 121 155 123
f 123 155 124
f 124 156 157
f 124 157 158
f 124 158 125
f 124 155 159
f 124 159 160
f 124 160 161
f 124 161 162
f 124 162 163
f 124 163 156
f 125 158 164
f 125 164 165
f 125 165 126
f 126 165 166
f 126 166 129
f 128 130 167
f 129 166 210
f 129 210 209
f 129 209 208
f 129 208 250
f 129 250 249
f 129 249 291
f 129 291 324
f 129 324 355
f 129 355 363
f 129 363 391
f 129 391 390
f 129 390 389
f 129 389 398
f 129 398 397
f 129 397 376
f 129 376 342
f 129 342 304
f 129 304 263
f 129 263 262
f 129 262 261
f 129 261 303
f 129 303 340
f 129 340 373
f 129 373 366
f 129 366 336
f 129 336 300
f 129 300 299
f 129 299 297
f 129 297 256
f 129 256 211
f 129 211 168
f 129 168 130
f 130 168 169
f 130 169 170
f 130 170 167
f 131 133 171
f 131 171 134
f 131 134 132
f 133 172 171
f 134 173 174
f 134 174 135
f 134 171 173
f 135 174 175
f 135 175 176
f 135 176 136
f 136 176 177
f 136 177 138
f 138 177 139
f 139 177 178
f 139 178 140
f 140 178 179
f 140 179 180
f 140 180 181
f 140 181 141
f 141 181 142
f 142 182 144
f 142 181 180
f 142 180 183
f 142 183 182
f 144 182 184
f 144 184 145
f 145 184 146
f 146 184 182
f 146 182 185
f 146 185 186
f 146 186 187
f 146 187 147
f 147 187 148
f 148 188 189
f 148 189 150
f 148 150 149
f 148 187 188
f 150 189 190
f 150 190 191
f 150 191 192
f 150 192 193
f 150 193 151
f 151 193 194
f 151 194 195
f 151 195 152
f 152 154 153
f 152 195 196
f 152 196 197
f 152 197 154
f 154 197 155
f 155 197 198
f 155 198 199
f 155 199 159
f 156 200 201
f 156 201 202
f 156 202 157
f 156 163 162
f 156 162 203
f 156 203 204
f 156 204 200
f 157 202 158
f 158 202 164
f 159 199 160
f 160 199 205
f 160 205 162
f 160 162 161
f 162 205 203
f 164 206 207
f 164 207 208
f 164 208 209
f 164 209 210
f 164 210 165
f 164 202 206
f 165 210 166
f 168 211 212
f 168 212 170
f 168 170 169
f 171 172 213
f 171 213 214
f 171 214 173
f 172 215 213
f 173 214 175
f 173 175 174
f 175 216 217
f 175 217 218
f 175 218 177
f 175 177 176
f 175 214 216
f 177 218 219
f 177 219 178
f 178 219 179
f 179 219 220
f 179 220 221
f 179 221 222
f 179 222 180
f 180 222 223
f 180 223 183
f 182 183 185
f 183 223 224
f 183 224 225
f 183 225 226
f 183 226 185
f 185 226 191
f 185 191 190
f 185 190 186
f 186 190 188
f 186 188 187
f 188 190 189
f 191 226 227
f 191 227 192
f 192 194 193
f 192 227 228
f 192 228 229
f 192 229 230
f 192 230 231
f 192 231 194
f 194 231 232
f 194 232 233
f 194 233 196
f 194 196 195
f 196 198 197
f 196 233 234
f 196 234 235
f 196 235 198
f 198 235 236
f 198 236 199
f 199 236 235
f 199 235 237
f 199 237 205
f 200 238 239
f 200 239 240
f 200 240 241
f 200 241 242
f 200 242 243
f 200 243 201
f 200 204 238
f 201 243 242
f 201 242 206
f 201 206 202
f 203 205 237
f 203 237 204
f 204 237 244
f 204 244 245
f 204 245 238
f 206 246 207
f 206 242 246
f 207 247 248
f 207 248 249
f 207 249 250
f 207 250 208
f 207 246 251
f 207 251 252
f 207 252 253
f 207 253 254
f 207 254 255
f 207 255 247
f 211 256 257
f 211 257 212
f 213 215 258
f 213 258 259
f 213 259 216
f 213 216 214
f 215 260 261
f 215 261 262
f 215 262 263
f 215 263 264
f 215 264 258
f 216 259 217
f 217 259 258
f 217 258 265
f 217 265 266
f 217 266 218
f 218 266 267
f 218 267 219
f 219 267 220
f 220 267 268
f 220 268 269
f 220 269 270
f 220 270 221
f 221 270 222
f 222 270 271
f 222 271 223
f 223 225 224
f 223 271 225
f 225 272 226
f 225 271 273
f 225 273 274
f 225 274 272
f 226 275 276
f 226 276 227
f 226 272 275
f 227 276 228
f 228 276 277
f 228 277 278
f 228 278 229
f 229 277 279
f 229 279 280
f 229 280 281
f 229 281 230
f 229 278 277
f 230 282 232
f 230 232 231
f 230 281 283
f 230 283 282
f 232 234 233
f 232 282 284
f 232 284 285
f 232 285 234
f 234 285 286
f 234 286 235
f 235 286 237
f 237 286 244
f 238 287 239
f 238 245 287
f 239 287 288
f 239 288 253
f 239 253 240
f 240 253 241
f 241 253 252
f 241 252 251
f 241 251 242
f 242 251 246
f 244 283 245
f 244 286 283
f 245 283 287
f 247 289 248
f 247 255 289
f 248 289 290
f 248 290 291
f 248 291 249
f 253 292 254
f 253 288 292
f 254 292 293
f 254 293 255
f 255 293 294
f 255 294 295
f 255 295 296
f 255 296 289
f 256 297 257
f 257 297 299
f 257 299 300
f 257 300 298
f 258 264 301
f 258 301 265
f 260 302 261
f 261 302 303
f 263 304 264
f 264 304 305
f 264 305 301
f 265 301 306
f 265 306 266
f 266 306 307
f 266 307 308
f 266 308 267
f 267 308 268
f 268 308 309
f 268 309 310
f 268 310 311
f 268 311 312
f 268 312 269
f 269 312 270
f 270 312 271
f 271 312 313
f 271 313 274
f 271 274 273
f 272 276 275
f 272 274 314
f 272 314 315
f 272 315 276
f 274 313 316
f 274 316 317
f 274 317 314
f 276 315 314
f 276 314 277
f 277 314 318
f 277 318 279
f 279 318 319
f 279 319 280
f 280 319 281
f 281 319 320
f 281 320 283
f 282 283 284
f 283 320 287
f 283 286 284
f 284 286 285
f 287 321 322
f 287 322 288
f 287 320 321
f 288 322 323
f 288 323 292
f 289 296 290
f 290 324 291
f 290 296 324
f 292 325 293
f 292 323 325
f 293 325 326
f 293 326 327
f 293 327 328
f 293 328 294
f 294 328 329
f 294 329 330
f 294 330 295
f 295 330 331
f 295 331 296
f 296 331 332
f 296 332 333
f 296 333 334
f 296 334 324
f 298 300 335
f 300 336 335
f 301 305 337
f 301 337 338
f 301 338 306
f 302 339 340
f 302 340 303
f 304 341 305
f 304 342 341
f 305 341 342
f 305 342 337
f 306 338 343
f 306 343 307
f 307 343 308
f 308 343 309
f 309 343 344
f 309 344 345
f 309 345 346
f 309 346 310
f 310 346 347
f 310 347 311
f 311 347 312
f 312 347 348
f 312 348 313
f 313 348 316
f 314 317 349
f 314 349 318
f 316 348 350
f 316 350 317
f 317 350 351
f 317 351 349
f 318 351 350
f 318 350 319
f 318 349 351
f 319 350 352
f 319 352 353
f 319 353 321
f 319 321 320
f 321 353 354
f 321 354 323
f 321 323 322
f 323 354 326
f 323 326 325
f 324 334 355
f 326 356 327
f 326 354 353
f 326 353 352
f 326 352 357
f 326 357 356
f 327 356 358
f 327 358 328
f 328 359 329
f 328 358 359
f 329 359 330
f 330 360 361
f 330 361 331
f 330 359 360
f 331 361 332
f 332 361 333
f 333 361 362
f 333 362 334
f 334 363 355
f 334 362 364
f 334 364 363
f 335 336 365
f 336 366 367
f 336 367 365
f 337 342 368
f 337 368 369
f 337 369 370
f 337 370 338
f 338 370 371
f 338 371 343
f 339 372 340
f 340 372 374
f 340 374 375
f 340 375 373
f 342 376 368
f 343 371 344
f 344 371 377
f 344 377 378
f 344 378 379
f 344 379 345
f 345 347 346
f 345 379 347
f 347 379 380
f 347 380 381
f 347 381 382
f 347 382 348
f 348 382 352
f 348 352 350
f 352 382 358
f 352 358 357
f 356 357 358
f 358 383 384
f 358 384 359
f 358 382 381
f 358 381 380
f 358 380 383
f 359 384 385
f 359 385 386
f 359 386 387
f 359 387 360
f 360 388 389
f 360 389 390
f 360 390 391
f 360 391 392
f 360 392 364
f 360 364 362
f 360 362 361
f 360 387 393
f 360 393 394
f 360 394 388
f 363 364 392
f 363 392 391
f 366 373 375
f 366 375 395
f 366 395 367
f 368 376 369
f 369 376 370
f 370 376 371
f 371 376 396
f 371 396 377
f 376 397 396
f 377 396 394
f 377 394 385
f 377 385 379
f 377 379 378
f 379 385 384
f 379 384 380
f 380 384 383
f 385 394 387
f 385 387 386
f 387 394 393
f 388 394 389
f 389 394 398
f 394 396 398
f 396 397 398

