# https://github.com/mikedh/trimesh
v -0.27886705 -0.28498841 -0.00466970
v -0.27914420 -0.28498841 -0.00851888
v -0.27925888 -0.28498841 -0.00118837
v -0.28007118 -0.28614837 -0.00465904
v -0.28014764 -0.28596475 -0.00851622
v -0.27971762 -0.28498841 -0.01051012
v -0.28036746 -0.28498841 0.00093614
v -0.28085483 -0.28519349 0.00146394
v -0.28626384 -0.29166962 -0.00102310
v -0.28600582 -0.29181040 -0.00453642
v -0.28063504 -0.28551484 -0.01178963
v -0.28611093 -0.29162983 -0.00846291
v -0.28027188 -0.28498841 -0.01210950
v -0.28067326 -0.28498841 0.00147727
v -0.28109375 -0.28498841 0.00193043
v -0.28711437 -0.29095345 0.00159722
v -0.29320188 -0.29684500 0.00096813
v -0.28824205 -0.29347227 -0.00104176
v -0.28799357 -0.29362529 -0.00452576
v -0.28810824 -0.29347227 -0.00846824
v -0.28125622 -0.28498841 -0.01422869
v -0.28861474 -0.29302238 -0.01181095
v -0.28163847 -0.28498841 0.00247422
v -0.28984754 -0.29220213 0.00271412
v -0.28911168 -0.29278058 0.00156523
v -0.29264762 -0.29732243 -0.00112706
v -0.29056429 -0.29552284 -0.00107109
v -0.29188307 -0.29499948 0.00168785
v -0.29424354 -0.29604008 0.00255952
v -0.29582993 -0.29820389 0.00158656
v -0.29736853 -0.30029119 0.00056562
v -0.29503675 -0.29930873 -0.00120170
v -0.29027758 -0.29562383 -0.00452576
v -0.29039226 -0.29545857 -0.00849223
v -0.29296296 -0.29694906 -0.01148841
v -0.28140912 -0.28498841 -0.01452457
v -0.28932194 -0.29242557 -0.01457522
v -0.29362237 -0.29639203 -0.01423935
v -0.28189649 -0.28498841 0.00268214
v -0.28571911 -0.28839175 0.00275144
v -0.28807002 -0.29013628 0.00299668
v -0.29173973 -0.29329782 0.00296736
v -0.29242780 -0.29744181 -0.00455508
v -0.29669003 -0.29723980 0.00293537
v -0.30141097 -0.30061865 0.00290339
v -0.29884024 -0.29958726 0.00232228
v -0.29979589 -0.30240600 -0.00126568
v -0.29689072 -0.30061559 -0.00124169
v -0.30008260 -0.30113895 0.00145861
v -0.30367586 -0.30314053 0.00151192
v -0.30496598 -0.30460960 0.00055229
v -0.29669003 -0.30077780 -0.00463771
v -0.29484562 -0.29943421 -0.00460039
v -0.29255204 -0.29728876 -0.00854021
v -0.29497940 -0.29925364 -0.00860419
v -0.29718697 -0.30041360 -0.01109656
v -0.29542855 -0.29847627 -0.01266929
v -0.28153333 -0.28498841 -0.01470850
v -0.29196909 -0.29366507 -0.01607864
v -0.29337391 -0.29244087 -0.01928008
v -0.28526040 -0.28498841 -0.01912813
v -0.29622176 -0.29751526 -0.01596135
v -0.29792282 -0.29997287 -0.01383950
v -0.28354977 -0.28498841 0.00341252
v -0.28716216 -0.28739709 0.00394032
v -0.28392249 -0.28633200 0.00297536
v -0.29118544 -0.29112177 0.00380437
v -0.29522788 -0.29506987 0.00340986
v -0.29976723 -0.29873028 0.00328457
v -0.30359941 -0.30147866 0.00322326
v -0.30758450 -0.30423928 0.00264215
v -0.29955700 -0.30257741 -0.00468303
v -0.30232839 -0.30385058 -0.00129233
v -0.30402946 -0.30520947 -0.00477633
v -0.30430660 -0.30497688 -0.00135631
v -0.30768005 -0.30550330 0.00110941
v -0.31277368 -0.30835879 0.00041901
v -0.30762272 -0.30674586 -0.00145760
v -0.29685250 -0.30063089 -0.00864950
v -0.29946142 -0.30230195 -0.00870281
v -0.29932765 -0.30134400 -0.01256799
v -0.30468886 -0.30484528 -0.01168833
v -0.29481693 -0.29501478 -0.01762205
v -0.28581469 -0.28498841 -0.01962128
v -0.28550888 -0.28498841 -0.01941336
v -0.29767434 -0.29632776 -0.01916812
v -0.29604019 -0.29370486 -0.02005844
v -0.30050308 -0.30091857 -0.01553485
v -0.29908873 -0.29869050 -0.01731550
v -0.28691368 -0.28498841 0.00456674
v -0.29068851 -0.28790512 0.00473468
v -0.30318849 -0.29920468 0.00412158
v -0.30726913 -0.30277328 0.00362844
v -0.30949579 -0.30480549 0.00300201
v -0.31479969 -0.30767323 0.00245556
v -0.31116820 -0.30664487 0.00169852
v -0.30218502 -0.30392712 -0.00874813
v -0.30420146 -0.30511459 -0.00878811
v -0.30741247 -0.30703663 -0.00486429
v -0.30733601 -0.30681934 -0.00885209
v -0.31199004 -0.30875053 -0.00153491
v -0.31008831 -0.30789664 -0.00151358
v -0.31583178 -0.30883316 0.00142129
v -0.32106876 -0.31178047 0.00002449
v -0.31526796 -0.31013390 -0.00153491
v -0.31165557 -0.30902906 -0.00499224
v -0.30332227 -0.30365777 -0.01288520
v -0.30552027 -0.30438924 -0.01432998
v -0.31246788 -0.30868932 -0.01197622
v -0.30703021 -0.30571447 -0.01294651
v -0.28738195 -0.28569540 -0.02001846
v -0.28737239 -0.28498841 -0.02035433
v -0.30216593 -0.29991167 -0.01852037
v -0.30026417 -0.29741121 -0.01986652
v -0.29896449 -0.29503926 -0.02060756
v -0.29476917 -0.29095039 -0.02074884
v -0.30808143 -0.30509929 -0.01570812
v -0.30337962 -0.30164699 -0.01696097
v -0.29050694 -0.28498841 0.00513186
v -0.30265330 -0.29540960 0.00487862
v -0.30671484 -0.29960562 0.00463072
v -0.29902181 -0.29527494 0.00436682
v -0.31068079 -0.30378937 0.00381770
v -0.31206649 -0.30569304 0.00324192
v -0.31734172 -0.30822717 0.00291138
v -0.31957795 -0.31039710 0.00115473
v -0.30997363 -0.30807108 -0.00890540
v -0.32055273 -0.31192128 -0.00145227
v -0.31864140 -0.31132140 -0.00148693
v -0.32325723 -0.31217223 0.00045899
v -0.32729008 -0.31384634 -0.00139896
v -0.32316165 -0.31272926 -0.00142562
v -0.31500038 -0.31044303 -0.00508287
v -0.31189449 -0.30895252 -0.00902002
v -0.31347131 -0.30827004 -0.01471117
v -0.31117776 -0.30774056 -0.01311445
v -0.31494303 -0.31022877 -0.00920662
v -0.31479969 -0.30925247 -0.01338901
v -0.29074586 -0.28694717 -0.02080482
v -0.29082231 -0.28498841 -0.02143924
v -0.30469840 -0.30080840 -0.01926408
v -0.30320759 -0.29878537 -0.02008776
v -0.29872557 -0.29101466 -0.02182310
v -0.30670527 -0.29902411 -0.02094877
v -0.30269152 -0.29514944 -0.02156986
v -0.29282919 -0.28498841 -0.02201236
v -0.31119686 -0.30565938 -0.01716889
v -0.30992584 -0.30410769 -0.01858168
v -0.31590824 -0.30872298 -0.01598268
v -0.29142436 -0.28498841 0.00521983
v -0.33486843 -0.30662650 0.00473735
v -0.31039411 -0.29979231 0.00473735
v -0.31477099 -0.30374653 0.00437748
v -0.33098845 -0.30681934 0.00464938
v -0.32697471 -0.30701827 0.00448678
v -0.31895677 -0.30708560 0.00382036
v -0.31564066 -0.30689585 0.00335921
v -0.31920526 -0.30866790 0.00306332
v -0.32321900 -0.31100309 0.00191177
v -0.31810624 -0.31146524 -0.00512019
v -0.32731874 -0.31281189 0.00105076
v -0.33110313 -0.31455639 -0.00140162
v -0.33094069 -0.31477062 -0.00523748
v -0.32720406 -0.31406669 -0.00522415
v -0.32298009 -0.31292818 -0.00519483
v -0.32020869 -0.31197942 -0.00840693
v -0.31883253 -0.31146524 -0.00959580
v -0.32076295 -0.31186616 -0.01121118
v -0.31869876 -0.31065420 -0.01352496
v -0.30694419 -0.30153681 -0.01963194
v -0.31246788 -0.30468614 -0.01930673
v -0.29469272 -0.28683088 -0.02196438
v -0.30626569 -0.29547387 -0.02160451
v -0.31095794 -0.30289876 -0.01998647
v -0.31857451 -0.30586137 -0.02018106
v -0.31457986 -0.30285285 -0.02075151
v -0.31046100 -0.29926283 -0.02135128
v -0.29602106 -0.28498841 -0.02141525
v -0.33422812 -0.30625007 -0.02070886
v -0.34992955 -0.30744979 -0.01998914
v -0.35391460 -0.30774362 -0.01980254
v -0.35799527 -0.30788746 -0.01958929
v -0.36227660 -0.30780789 -0.01930140
v -0.36653880 -0.30759978 -0.01894954
v -0.36887061 -0.30752021 -0.01872029
v -0.31473277 -0.30725392 -0.01725152
v -0.32534056 -0.31193352 -0.01551086
v -0.31870829 -0.30921574 -0.01688633
v -0.31867963 -0.30772832 -0.01887223
v -0.29495074 -0.28498841 0.00489995
v -0.36996006 -0.30100124 0.00434550
v -0.36999829 -0.30270901 0.00473201
v -0.36702620 -0.30253457 0.00482265
v -0.36703573 -0.30618580 0.00505456
v -0.33863369 -0.30646430 0.00478266
v -0.36684463 -0.30942997 0.00450810
v -0.35054116 -0.31033283 0.00420688
v -0.34643183 -0.31032977 0.00416956
v -0.32284628 -0.30714068 0.00421221
v -0.34265700 -0.31034813 0.00411625
v -0.33514557 -0.31027468 0.00394032
v -0.33119871 -0.31017368 0.00378838
v -0.32719453 -0.30994415 0.00358579
v -0.32309476 -0.30943609 0.00334322
v -0.32729008 -0.31153257 0.00253286
v -0.33121781 -0.31322505 0.00134399
v -0.33514557 -0.31513484 -0.00141229
v -0.34055458 -0.31607748 -0.00264381
v -0.33788830 -0.31578674 -0.00516817
v -0.33979003 -0.31588467 -0.00971309
v -0.33786917 -0.31559699 -0.00976374
v -0.33483976 -0.31513790 -0.00983038
v -0.33086424 -0.31453191 -0.00983838
v -0.32712761 -0.31381574 -0.00975574
v -0.32252137 -0.31254560 -0.00977707
v -0.32369681 -0.31235892 -0.01278124
v -0.32240670 -0.31162745 -0.01393013
v -0.31475190 -0.30518498 -0.01969058
v -0.31834516 -0.30281919 -0.02113003
v -0.32215821 -0.30277022 -0.02109804
v -0.32157526 -0.30813841 -0.01945334
v -0.32432756 -0.30844142 -0.01975722
v -0.32272204 -0.30668465 -0.02030635
v -0.29773169 -0.28498841 -0.02059424
v -0.37003651 -0.30648266 -0.01792593
v -0.37038054 -0.30423316 -0.01633721
v -0.37279834 -0.30434946 -0.01573477
v -0.33048195 -0.30629292 -0.02078083
v -0.34212184 -0.30896170 -0.02011176
v -0.34604957 -0.30893721 -0.02000513
v -0.35001553 -0.30889437 -0.01987185
v -0.35396239 -0.30890967 -0.01971457
v -0.35800483 -0.30897397 -0.01953598
v -0.36225747 -0.30886070 -0.01930140
v -0.36651014 -0.30830371 -0.01897086
v -0.36885151 -0.30777422 -0.01873095
v -0.37344821 -0.30590421 -0.01603599
v -0.32686003 -0.31277822 -0.01406342
v -0.33084511 -0.31368720 -0.01390081
v -0.32801637 -0.31221508 -0.01620126
v -0.32286541 -0.30955239 -0.01798991
v -0.29749277 -0.28498841 0.00409493
v -0.37023720 -0.30061865 0.00248755
v -0.37108774 -0.30128892 0.00420155
v -0.29801837 -0.28498841 0.00389234
v -0.29913649 -0.28498841 0.00296469
v -0.37133619 -0.30278552 0.00430018
v -0.37005561 -0.30589809 0.00490528
v -0.37004608 -0.30850263 0.00441214
v -0.36664394 -0.31093576 0.00303667
v -0.36261107 -0.31144688 0.00335654
v -0.35867377 -0.31177129 0.00346317
v -0.35603615 -0.31197024 0.00353248
v -0.35334121 -0.31217529 0.00355380
v -0.36283089 -0.30999312 0.00437215
v -0.35057939 -0.31227322 0.00353248
v -0.34648919 -0.31234974 0.00347117
v -0.34276212 -0.31237116 0.00340186
v -0.33887261 -0.31072153 0.00389767
v -0.33764938 -0.31223038 0.00327657
v -0.34017229 -0.31232831 0.00334588
v -0.33524112 -0.31211714 0.00315929
v -0.33125604 -0.31188149 0.00289272
v -0.33523156 -0.31354030 0.00153325
v -0.33925487 -0.31568881 -0.00160688
v -0.33981872 -0.31605606 -0.00516284
v -0.34257099 -0.31581428 -0.00127367
v -0.34247544 -0.31615093 -0.00265714
v -0.34232253 -0.31625195 -0.00516817
v -0.34215050 -0.31608054 -0.00966244
v -0.34037298 -0.31572247 -0.01208285
v -0.33477285 -0.31438195 -0.01389015
v -0.32656378 -0.30636331 -0.02067420
v -0.33080689 -0.31247215 -0.01664376
v -0.33075910 -0.31069705 -0.01860833
v -0.33456262 -0.31083477 -0.01902417
v -0.32674535 -0.30862505 -0.01991983
v -0.29781771 -0.28498841 -0.02054092
v -0.37059077 -0.30263250 -0.01390081
v -0.37455676 -0.30493403 -0.01501772
v -0.37360111 -0.30364247 -0.01398078
v -0.33447660 -0.30888825 -0.02018906
v -0.33824187 -0.30894333 -0.02018639
v -0.34605914 -0.31083171 -0.01930673
v -0.35003466 -0.31064196 -0.01924542
v -0.35395283 -0.31046139 -0.01912280
v -0.35790925 -0.31033283 -0.01889889
v -0.36215235 -0.31013390 -0.01851237
v -0.36640502 -0.30968093 -0.01799524
v -0.37009384 -0.31097861 -0.01562548
v -0.37203382 -0.31071235 -0.01515633
v -0.37307548 -0.30871992 -0.01569479
v -0.37491036 -0.30750182 -0.01505504
v -0.37484344 -0.30665405 -0.01510568
v -0.37246387 -0.30085431 -0.00135364
v -0.37169935 -0.30105938 0.00238625
v -0.29978636 -0.28498841 0.00220499
v -0.30108604 -0.28498841 -0.00076454
v -0.37237785 -0.30280695 0.00222098
v -0.37158467 -0.30583995 0.00432151
v -0.37302769 -0.30619498 0.00198107
v -0.37151779 -0.30788440 0.00418023
v -0.37017029 -0.31017981 0.00244490
v -0.37229184 -0.31109796 -0.00021008
v -0.37032319 -0.31140709 0.00028573
v -0.37018941 -0.31276598 -0.00236659
v -0.36626168 -0.31355866 -0.00221998
v -0.35803349 -0.31503691 -0.00158822
v -0.35450712 -0.31547761 -0.00123635
v -0.35839662 -0.31323117 0.00147993
v -0.35463136 -0.31332913 0.00200240
v -0.35050293 -0.31386164 0.00166653
v -0.34632672 -0.31396570 0.00164254
v -0.34270479 -0.31398712 0.00161588
v -0.33903508 -0.31351888 0.00194375
v -0.35037869 -0.31567656 -0.00126301
v -0.34604001 -0.31578980 -0.00134565
v -0.35032137 -0.31608054 -0.00272112
v -0.34588711 -0.31613869 -0.00276910
v -0.35015890 -0.31620908 -0.00515485
v -0.34555264 -0.31606830 -0.00961713
v -0.34558130 -0.31579898 -0.01214682
v -0.34212184 -0.31579286 -0.01214682
v -0.33892040 -0.31510424 -0.01353829
v -0.34214094 -0.31524195 -0.01402077
v -0.33466773 -0.31282107 -0.01703294
v -0.33071134 -0.30881480 -0.02010642
v -0.33851901 -0.31314241 -0.01721154
v -0.33834701 -0.31094188 -0.01923209
v -0.29874469 -0.28498841 -0.01926408
v -0.37262634 -0.30126443 -0.00811637
v -0.37521616 -0.30612765 -0.01387149
v -0.37476699 -0.30431885 -0.01324773
v -0.37332397 -0.30225604 -0.00985970
v -0.34216007 -0.31094800 -0.01931473
v -0.34999643 -0.31314241 -0.01731283
v -0.35387638 -0.31290064 -0.01725152
v -0.35771812 -0.31252112 -0.01710491
v -0.36199945 -0.31198554 -0.01679037
v -0.36630944 -0.31144382 -0.01629989
v -0.37004608 -0.31232219 -0.01313044
v -0.36620433 -0.31306590 -0.01341833
v -0.37323795 -0.31149279 -0.01290919
v -0.37555063 -0.31133364 -0.01152306
v -0.37408849 -0.30976971 -0.01427933
v -0.37560799 -0.30907190 -0.01314377
v -0.37269323 -0.30099205 -0.00553070
v -0.37362021 -0.30227440 -0.00566398
v -0.37460452 -0.30405872 -0.00579460
v -0.37439429 -0.30432804 -0.00308364
v -0.37352466 -0.30299669 -0.00164153
v -0.30124850 -0.28498841 -0.00462172
v -0.30086625 -0.28498841 -0.00896405
v -0.37479568 -0.30673668 -0.00247321
v -0.37415537 -0.30652857 -0.00060726
v -0.37524483 -0.31000842 -0.00283840
v -0.37517794 -0.31154787 -0.00386468
v -0.37328574 -0.31179577 -0.00251320
v -0.37340995 -0.31319138 -0.00574662
v -0.37007474 -0.31400854 -0.00566398
v -0.35790925 -0.31563372 -0.00317428
v -0.35445933 -0.31596731 -0.00272112
v -0.35427776 -0.31615399 -0.00517084
v -0.34994864 -0.31604076 -0.00955848
v -0.34988176 -0.31573471 -0.01224012
v -0.34571510 -0.31525726 -0.01405009
v -0.34216963 -0.31329850 -0.01728084
v -0.29916518 -0.28498841 -0.01790994
v -0.37648718 -0.31000230 -0.00952117
v -0.37575133 -0.30677646 -0.01005696
v -0.37479568 -0.30402811 -0.01021690
v -0.34594446 -0.31327095 -0.01730750
v -0.34991042 -0.31514708 -0.01418070
v -0.35382862 -0.31491755 -0.01423135
v -0.36179876 -0.31382186 -0.01365557
v -0.37342908 -0.31310875 -0.00891606
v -0.35655222 -0.31534295 -0.01206685
v -0.37003651 -0.31379125 -0.00901736
v -0.37578955 -0.31200391 -0.00905468
v -0.30018771 -0.28498841 -0.01342100
v -0.37545508 -0.30692033 -0.00579460
v -0.37619091 -0.31027162 -0.00581859
v -0.37557929 -0.31208654 -0.00583725
v -0.36432170 -0.31498794 -0.00678355
v -0.36586030 -0.31470023 -0.00572529
v -0.36304111 -0.31502773 -0.00469902
v -0.36432170 -0.31498182 -0.00714341
v -0.35775635 -0.31577144 -0.00527480
v -0.35398152 -0.31594894 -0.00948118
v -0.35384771 -0.31557557 -0.01227477
v -0.35768946 -0.31462678 -0.01352762
v -0.35770856 -0.31548067 -0.00968644
v -0.36585073 -0.31449824 -0.00882810
f 1 2 6
f 1 6 13
f 1 13 21
f 1 21 36
f 1 36 58
f 1 58 61
f 1 61 85
f 1 85 84
f 1 84 112
f 1 112 140
f 1 140 146
f 1 146 178
f 1 178 224
f 1 224 278
f 1 278 330
f 1 330 368
f 1 368 380
f 1 380 353
f 1 353 352
f 1 352 298
f 1 298 297
f 1 297 246
f 1 246 245
f 1 245 242
f 1 242 190
f 1 190 150
f 1 150 119
f 1 119 90
f 1 90 64
f 1 64 39
f 1 39 23
f 1 23 15
f 1 15 14
f 1 14 7
f 1 7 3
f 1 3 4
f 1 4 5
f 1 5 2
f 2 5 6
f 3 7 8
f 3 8 9
f 3 9 4
f 4 9 10
f 4 10 5
f 5 11 6
f 5 10 12
f 5 12 11
f 6 11 13
f 7 14 8
f 8 14 15
f 8 15 16
f 8 16 9
f 9 16 17
f 9 17 18
f 9 18 19
f 9 19 10
f 10 19 20
f 10 20 12
f 11 21 13
f 11 12 22
f 11 22 21
f 12 20 22
f 15 23 16
f 16 24 25
f 16 25 17
f 16 23 24
f 17 26 27
f 17 27 18
f 17 25 28
f 17 28 29
f 17 29 30
f 17 30 31
f 17 31 32
f 17 32 26
f 18 27 19
f 19 27 33
f 19 33 20
f 20 33 34
f 20 34 35
f 20 35 22
f 21 22 37
f 21 37 36
f 22 35 38
f 22 38 37
f 23 39 24
f 24 39 40
f 24 40 41
f 24 41 42
f 24 42 29
f 24 29 28
f 24 28 25
f 26 43 33
f 26 33 27
f 26 32 43
f 29 44 45
f 29 45 46
f 29 46 30
f 29 42 44
f 30 46 31
f 31 47 48
f 31 48 32
f 31 46 49
f 31 49 50
f 31 50 51
f 31 51 47
f 32 48 52
f 32 52 53
f 32 53 43
f 33 43 54
f 33 54 34
f 34 54 35
f 35 54 55
f 35 55 56
f 35 56 57
f 35 57 38
f 36 37 58
f 37 59 60
f 37 60 61
f 37 61 58
f 37 38 62
f 37 62 59
f 38 57 63
f 38 63 62
f 39 64 65
f 39 65 66
f 39 66 41
f 39 41 40
f 41 65 67
f 41 67 42
f 41 66 65
f 42 67 44
f 43 53 54
f 44 67 68
f 44 68 69
f 44 69 45
f 45 49 46
f 45 69 70
f 45 70 71
f 45 71 50
f 45 50 49
f 47 72 48
f 47 51 73
f 47 73 74
f 47 74 72
f 48 72 52
f 50 71 51
f 51 75 73
f 51 71 76
f 51 76 77
f 51 77 78
f 51 78 75
f 52 79 53
f 52 72 80
f 52 80 79
f 53 79 55
f 53 55 54
f 55 79 56
f 56 81 63
f 56 63 57
f 56 79 80
f 56 80 82
f 56 82 81
f 59 62 83
f 59 83 60
f 60 84 85
f 60 85 61
f 60 83 86
f 60 86 87
f 60 87 84
f 62 63 88
f 62 88 89
f 62 89 86
f 62 86 83
f 63 81 88
f 64 90 65
f 65 90 91
f 65 91 67
f 67 69 68
f 67 91 92
f 67 92 69
f 69 92 70
f 70 92 93
f 70 93 94
f 70 94 71
f 71 94 95
f 71 95 96
f 71 96 76
f 72 97 80
f 72 74 98
f 72 98 97
f 73 75 74
f 74 75 99
f 74 99 100
f 74 100 98
f 75 78 99
f 76 96 77
f 77 101 102
f 77 102 78
f 77 96 95
f 77 95 103
f 77 103 104
f 77 104 105
f 77 105 101
f 78 102 106
f 78 106 99
f 80 97 82
f 81 82 107
f 81 107 88
f 82 108 107
f 82 97 98
f 82 98 100
f 82 100 109
f 82 109 110
f 82 110 108
f 84 111 112
f 84 87 111
f 86 89 113
f 86 113 114
f 86 114 87
f 87 114 115
f 87 115 116
f 87 116 112
f 87 112 111
f 88 113 89
f 88 107 108
f 88 108 117
f 88 117 118
f 88 118 113
f 90 119 91
f 91 119 120
f 91 120 121
f 91 121 122
f 91 122 92
f 92 121 93
f 92 122 121
f 93 121 123
f 93 123 124
f 93 124 94
f 94 124 95
f 95 125 126
f 95 126 103
f 95 124 125
f 99 106 127
f 99 127 100
f 100 127 109
f 101 105 106
f 101 106 102
f 103 126 104
f 104 128 129
f 104 129 105
f 104 126 130
f 104 130 131
f 104 131 132
f 104 132 128
f 105 129 133
f 105 133 106
f 106 134 127
f 106 133 134
f 108 110 135
f 108 135 117
f 109 136 110
f 109 127 134
f 109 134 137
f 109 137 138
f 109 138 135
f 109 135 136
f 110 136 135
f 112 139 140
f 112 116 139
f 113 118 141
f 113 141 114
f 114 141 142
f 114 142 115
f 115 143 116
f 115 142 144
f 115 144 145
f 115 145 143
f 116 143 146
f 116 146 140
f 116 140 139
f 117 147 148
f 117 148 141
f 117 141 118
f 117 135 149
f 117 149 147
f 119 150 120
f 120 150 151
f 120 151 152
f 120 152 121
f 121 153 123
f 121 152 154
f 121 154 155
f 121 155 153
f 123 153 156
f 123 156 157
f 123 157 124
f 124 157 125
f 125 157 158
f 125 158 159
f 125 159 126
f 126 159 130
f 128 132 160
f 128 160 129
f 129 160 133
f 130 159 161
f 130 161 131
f 131 161 162
f 131 162 163
f 131 163 164
f 131 164 165
f 131 165 132
f 132 165 160
f 133 160 137
f 133 137 134
f 135 138 149
f 137 160 166
f 137 166 167
f 137 167 168
f 137 168 169
f 137 169 138
f 138 169 149
f 141 170 142
f 141 148 171
f 141 171 170
f 142 170 144
f 143 172 146
f 143 145 173
f 143 173 172
f 144 170 174
f 144 174 175
f 144 175 176
f 144 176 177
f 144 177 145
f 145 177 173
f 146 172 179
f 146 179 180
f 146 180 181
f 146 181 182
f 146 182 183
f 146 183 184
f 146 184 185
f 146 185 178
f 147 149 148
f 148 149 186
f 148 186 171
f 149 169 187
f 149 187 188
f 149 188 189
f 149 189 186
f 150 190 191
f 150 191 192
f 150 192 193
f 150 193 194
f 150 194 195
f 150 195 151
f 151 195 194
f 151 194 196
f 151 196 197
f 151 197 198
f 151 198 154
f 151 154 152
f 153 199 156
f 153 155 199
f 154 198 200
f 154 200 201
f 154 201 155
f 155 201 202
f 155 202 199
f 156 199 203
f 156 203 204
f 156 204 157
f 157 204 158
f 158 204 205
f 158 205 159
f 159 205 161
f 160 165 166
f 161 205 206
f 161 206 162
f 162 206 207
f 162 207 208
f 162 208 163
f 163 208 209
f 163 209 210
f 163 210 211
f 163 211 212
f 163 212 213
f 163 213 164
f 164 213 214
f 164 214 165
f 165 215 166
f 165 214 215
f 166 215 167
f 167 215 168
f 168 215 214
f 168 214 216
f 168 216 169
f 169 216 217
f 169 217 187
f 170 171 218
f 170 218 174
f 171 186 189
f 171 189 218
f 172 173 179
f 173 177 219
f 173 219 220
f 173 220 179
f 174 218 175
f 175 219 176
f 175 218 221
f 175 221 222
f 175 222 223
f 175 223 219
f 176 219 177
f 178 185 225
f 178 225 226
f 178 226 227
f 178 227 224
f 179 228 229
f 179 229 230
f 179 230 231
f 179 231 232
f 179 232 180
f 179 220 228
f 180 232 181
f 181 232 233
f 181 233 182
f 182 233 234
f 182 234 183
f 183 234 235
f 183 235 184
f 184 235 236
f 184 236 185
f 185 236 237
f 185 237 225
f 187 238 239
f 187 239 240
f 187 240 188
f 187 217 216
f 187 216 238
f 188 241 221
f 188 221 189
f 188 240 241
f 189 221 218
f 190 242 191
f 191 243 244
f 191 244 192
f 191 242 245
f 191 245 246
f 191 246 243
f 192 244 247
f 192 247 248
f 192 248 194
f 192 194 193
f 194 248 196
f 196 248 249
f 196 249 250
f 196 250 251
f 196 251 252
f 196 252 253
f 196 253 254
f 196 254 255
f 196 255 197
f 197 256 257
f 197 257 198
f 197 255 256
f 198 257 200
f 199 202 203
f 200 257 258
f 200 258 259
f 200 259 201
f 201 260 202
f 201 259 261
f 201 261 260
f 202 260 262
f 202 262 203
f 203 262 263
f 203 263 204
f 204 263 205
f 205 263 206
f 206 263 264
f 206 264 265
f 206 265 207
f 207 265 208
f 208 266 209
f 208 265 267
f 208 267 268
f 208 268 269
f 208 269 266
f 209 266 210
f 210 266 270
f 210 270 271
f 210 271 211
f 211 271 212
f 212 271 213
f 213 239 214
f 213 271 272
f 213 272 239
f 214 239 238
f 214 238 216
f 219 223 273
f 219 273 228
f 219 228 220
f 221 241 240
f 221 240 274
f 221 274 222
f 222 274 275
f 222 275 276
f 222 276 277
f 222 277 223
f 223 277 273
f 224 227 279
f 224 279 278
f 225 237 227
f 225 227 226
f 227 237 280
f 227 280 281
f 227 281 279
f 228 273 282
f 228 282 283
f 228 283 229
f 229 284 230
f 229 283 284
f 230 284 285
f 230 285 231
f 231 285 232
f 232 285 233
f 233 285 286
f 233 286 234
f 234 286 287
f 234 287 288
f 234 288 235
f 235 288 289
f 235 289 236
f 236 289 290
f 236 290 291
f 236 291 292
f 236 292 293
f 236 293 237
f 237 293 294
f 237 294 280
f 239 272 240
f 240 272 274
f 243 295 296
f 243 296 244
f 243 246 297
f 243 297 298
f 243 298 295
f 244 296 299
f 244 299 247
f 247 300 248
f 247 299 301
f 247 301 300
f 248 300 302
f 248 302 249
f 249 302 303
f 249 303 250
f 250 303 304
f 250 304 305
f 250 305 306
f 250 306 307
f 250 307 308
f 250 308 309
f 250 309 251
f 251 309 310
f 251 310 311
f 251 311 252
f 252 311 253
f 253 311 254
f 254 312 256
f 254 256 255
f 254 311 312
f 256 312 313
f 256 313 257
f 257 313 314
f 257 314 258
f 258 314 261
f 258 261 259
f 260 264 262
f 260 261 315
f 260 315 264
f 261 314 315
f 262 264 263
f 264 315 314
f 264 314 267
f 264 267 265
f 266 269 270
f 267 314 313
f 267 313 316
f 267 316 317
f 267 317 318
f 267 318 268
f 268 318 319
f 268 319 269
f 269 319 320
f 269 320 321
f 269 321 270
f 270 321 322
f 270 322 323
f 270 323 271
f 271 324 272
f 271 323 325
f 271 325 324
f 272 326 274
f 272 324 326
f 273 277 327
f 273 327 282
f 274 326 275
f 275 326 276
f 276 326 328
f 276 328 329
f 276 329 327
f 276 327 277
f 278 279 331
f 278 331 330
f 279 281 331
f 280 294 332
f 280 332 333
f 280 333 281
f 281 333 334
f 281 334 331
f 282 329 335
f 282 335 283
f 282 327 329
f 283 335 284
f 284 336 285
f 284 335 336
f 285 336 337
f 285 337 286
f 286 337 287
f 287 337 338
f 287 338 288
f 288 339 289
f 288 338 339
f 289 339 340
f 289 340 290
f 290 341 291
f 290 340 342
f 290 342 341
f 291 343 344
f 291 344 345
f 291 345 292
f 291 341 343
f 292 345 293
f 293 345 346
f 293 346 332
f 293 332 294
f 295 347 348
f 295 348 349
f 295 349 350
f 295 350 351
f 295 351 296
f 295 298 352
f 295 352 353
f 295 353 347
f 296 351 299
f 299 351 350
f 299 350 354
f 299 354 355
f 299 355 301
f 300 301 302
f 301 355 356
f 301 356 302
f 302 356 357
f 302 357 304
f 302 304 303
f 304 357 358
f 304 358 306
f 304 306 305
f 306 358 359
f 306 359 360
f 306 360 307
f 307 360 308
f 308 360 361
f 308 361 309
f 309 311 310
f 309 361 362
f 309 362 316
f 309 316 312
f 309 312 311
f 312 316 313
f 316 318 317
f 316 362 318
f 318 320 319
f 318 362 363
f 318 363 320
f 320 364 321
f 320 363 364
f 321 364 322
f 322 364 365
f 322 365 366
f 322 366 323
f 323 366 325
f 324 325 326
f 325 367 328
f 325 328 326
f 325 366 367
f 328 367 329
f 329 367 335
f 330 331 347
f 330 347 368
f 331 334 347
f 332 346 369
f 332 369 370
f 332 370 333
f 333 370 371
f 333 371 347
f 333 347 334
f 335 367 372
f 335 372 336
f 336 372 373
f 336 373 374
f 336 374 337
f 337 374 338
f 338 374 339
f 339 375 340
f 339 374 375
f 340 375 342
f 341 376 343
f 341 342 376
f 342 375 377
f 342 377 378
f 342 378 376
f 343 376 344
f 344 379 369
f 344 369 346
f 344 346 345
f 344 376 379
f 347 371 348
f 347 353 380
f 347 380 368
f 348 371 349
f 349 371 370
f 349 370 381
f 349 381 350
f 350 381 382
f 350 382 354
f 354 382 356
f 354 356 355
f 356 382 357
f 357 382 383
f 357 383 359
f 357 359 358
f 359 383 379
f 359 379 376
f 359 376 360
f 360 384 385
f 360 385 386
f 360 386 361
f 360 376 378
f 360 378 387
f 360 387 384
f 361 386 384
f 361 384 388
f 361 388 363
f 361 363 362
f 363 388 387
f 363 387 389
f 363 389 364
f 364 389 365
f 365 373 366
f 365 389 390
f 365 390 373
f 366 373 372
f 366 372 367
f 369 382 381
f 369 381 370
f 369 379 382
f 373 390 374
f 374 390 377
f 374 377 391
f 374 391 375
f 375 391 377
f 377 390 389
f 377 389 392
f 377 392 387
f 377 387 393
f 377 393 378
f 378 393 387
f 379 383 382
f 384 386 385
f 384 387 388
f 387 392 389

