# https://github.com/mikedh/trimesh
v 0.23715356 -0.21344023 -0.00556514
v 0.23715356 -0.21344023 -0.00215753
v 0.23715356 -0.21335028 -0.00920307
v 0.25709335 -0.22445788 -0.01021590
v 0.23715356 -0.21341774 -0.00167031
v 0.25720014 -0.22445788 -0.00581023
v 0.25732983 -0.22445788 -0.00345975
v 0.23715356 -0.21296804 -0.01341680
v 0.25732983 -0.22445788 -0.01240692
v 0.23715356 -0.21339525 -0.00154334
v 0.25753579 -0.22445788 -0.00209257
v 0.25763493 -0.22445788 -0.00153153
v 0.23715356 -0.21224851 -0.01747404
v 0.26037342 -0.22445788 -0.02149288
v 0.23715356 -0.21263076 0.00004825
v 0.25929023 -0.22445788 0.00159260
v 0.23715356 -0.21204614 -0.01815319
v 0.26169308 -0.22445788 -0.02429220
v 0.26150236 -0.22445788 -0.02392014
v 0.23715356 -0.21188875 0.00026972
v 0.25936651 -0.22445788 0.00168119
v 0.26088448 -0.22445788 0.00290072
v 0.23715356 -0.21119173 -0.02050958
v 0.26339412 -0.22445788 -0.02459044
v 0.23715356 -0.21049468 -0.02169368
v 0.23715356 -0.21024735 -0.02200964
v 0.23715356 -0.20883078 -0.02295750
v 0.23715356 -0.20478349 -0.02400577
v 0.23715356 -0.21024735 0.00072741
v 0.26143371 -0.22445788 0.00296568
v 0.23715356 -0.20606513 0.00094297
v 0.23715356 -0.20979764 0.00075104
v 0.26353142 -0.22445788 -0.02451071
v 0.23715356 -0.19994922 -0.02453433
v 0.24047940 -0.19668890 -0.02490344
v 0.24014377 -0.19264159 -0.02509833
v 0.26581224 -0.18277067 -0.02675489
v 0.30431109 -0.14510828 -0.02650389
v 0.30662242 -0.14450118 -0.02625880
v 0.30823194 -0.14405149 -0.02603439
v 0.31506669 -0.14092606 -0.02505404
v 0.31506669 -0.14155566 -0.02489163
v 0.26347042 -0.22445788 0.00316943
v 0.23715356 -0.19252916 0.00137409
v 0.23715356 -0.19752083 0.00122349
v 0.26443154 -0.22445788 -0.02396738
v 0.23715356 -0.19513742 -0.02473217
v 0.26577410 -0.18049969 -0.02686119
v 0.30474591 0.00524897 -0.02343292
v 0.30719452 0.00524897 -0.02371639
v 0.28592744 -0.15767740 -0.02678146
v 0.29867397 -0.14762660 -0.02662201
v 0.31016945 0.00524897 -0.02348016
v 0.31071106 0.00524897 -0.02330889
v 0.31187052 0.00524897 -0.02293683
v 0.31340377 0.00524897 -0.02156080
v 0.31453274 0.00524897 -0.01847210
v 0.31456323 0.00201113 -0.01849573
v 0.31485311 0.00205610 -0.01399852
v 0.31492939 0.00196615 -0.00885168
v 0.31506669 -0.13921721 -0.02464064
v 0.31506669 -0.14225268 -0.02304314
v 0.26958812 -0.22445788 -0.01260772
v 0.23983864 -0.18782979 0.00172548
v 0.26788706 -0.22445788 0.00330526
v 0.25991574 -0.16613176 0.00262610
v 0.25537704 -0.16970688 0.00246370
v 0.23715356 -0.18778483 0.00143610
v 0.23715356 -0.19228183 -0.02425381
v 0.30291519 0.00524897 -0.02260021
v 0.30464674 0.00524897 -0.02338862
v 0.31480732 0.00524897 -0.01396013
v 0.31482260 0.00524897 -0.01320715
v 0.31486836 0.00524897 -0.00882805
v 0.31488363 0.00524897 -0.00413300
v 0.31494463 0.00194367 -0.00414776
v 0.31506669 -0.13885745 -0.02435421
v 0.31506669 -0.14243256 -0.02249095
v 0.26964153 -0.22445788 -0.01234491
v 0.23943435 -0.18436710 0.00162213
v 0.30709535 0.00524897 0.00256410
v 0.27004580 -0.22445788 0.00315171
v 0.31506669 -0.13856515 0.00325507
v 0.23715356 -0.18612093 0.00140657
v 0.23715356 -0.18393989 -0.02266812
v 0.30083271 0.00520400 -0.02107653
v 0.30081744 0.00524897 -0.02104995
v 0.31486836 0.00524897 -0.00363692
v 0.31506669 -0.13294388 -0.00469404
v 0.31506669 -0.13296638 -0.00487712
v 0.31506669 -0.13348353 -0.00868632
v 0.31506669 -0.13364093 -0.00955150
v 0.31506669 -0.13800302 -0.02263564
v 0.31475394 0.00524897 -0.00058956
v 0.31480732 0.00212355 -0.00060137
v 0.31506669 -0.13816041 0.00321668
v 0.31506669 -0.13685628 0.00294501
v 0.31506669 -0.13516990 0.00167824
v 0.31506669 -0.13337111 -0.00118014
v 0.31506669 -0.13330365 -0.00129234
v 0.31506669 -0.14353434 -0.00035924
v 0.27054927 -0.22445788 -0.00038286
v 0.27039669 -0.22445788 -0.00484169
v 0.27009156 -0.22445788 -0.00966076
v 0.31119164 0.00524897 0.00231605
v 0.30357118 0.00524897 0.00192923
v 0.27011446 -0.22445788 0.00314581
v 0.31506669 -0.14027400 0.00316648
v 0.31383858 0.00524897 0.00139771
v 0.31195445 0.00524897 0.00205620
v 0.23715356 -0.18308545 0.00078352
v 0.30308298 0.00524897 0.00183474
v 0.30087085 0.00524897 0.00080714
v 0.23715356 -0.18301801 -0.02239351
v 0.29943678 0.00524897 -0.01830379
v 0.23715356 -0.17831864 -0.02063360
v 0.31506669 -0.14328700 0.00168709
v 0.27046535 -0.22445788 0.00240169
v 0.27054927 -0.22445788 -0.00032381
v 0.27034331 -0.22445788 0.00266745
v 0.31506669 -0.14285978 0.00198829
v 0.31506669 -0.14151068 0.00280623
v 0.31506669 -0.14090358 0.00301884
v 0.23715356 -0.17885827 -0.00036219
v 0.29994784 0.00524897 -0.00089666
v 0.29875024 0.00524897 -0.01444145
v 0.23715356 -0.17618256 -0.01907449
v 0.23715356 -0.17492340 -0.01769255
v 0.23715356 -0.17780148 -0.00136617
v 0.29924606 0.00524897 -0.00442829
v 0.23715356 -0.17710444 -0.00216935
v 0.29880365 0.00524897 -0.01212345
v 0.23715356 -0.17361926 -0.01417274
v 0.29887231 0.00524897 -0.00955446
v 0.23715356 -0.17420388 -0.00950721
f 1 2 5
f 1 5 10
f 1 10 15
f 1 15 20
f 1 20 29
f 1 29 32
f 1 32 31
f 1 31 45
f 1 45 44
f 1 44 68
f 1 68 84
f 1 84 111
f 1 111 124
f 1 124 129
f 1 129 131
f 1 131 135
f 1 135 133
f 1 133 128
f 1 128 127
f 1 127 116
f 1 116 114
f 1 114 85
f 1 85 69
f 1 69 47
f 1 47 34
f 1 34 28
f 1 28 27
f 1 27 26
f 1 26 25
f 1 25 23
f 1 23 17
f 1 17 13
f 1 13 8
f 1 8 3
f 1 3 4
f 1 4 2
f 2 4 6
f 2 6 7
f 2 7 5
f 3 8 9
f 3 9 4
f 4 9 14
f 4 14 19
f 4 19 18
f 4 18 24
f 4 24 33
f 4 33 46
f 4 46 63
f 4 63 79
f 4 79 104
f 4 104 103
f 4 103 102
f 4 102 119
f 4 119 118
f 4 118 120
f 4 120 107
f 4 107 82
f 4 82 65
f 4 65 43
f 4 43 30
f 4 30 22
f 4 22 21
f 4 21 16
f 4 16 12
f 4 12 11
f 4 11 7
f 4 7 6
f 5 7 11
f 5 11 12
f 5 12 10
f 8 13 9
f 9 13 14
f 10 12 16
f 10 16 15
f 13 17 18
f 13 18 19
f 13 19 14
f 15 16 21
f 15 21 22
f 15 22 20
f 17 23 18
f 18 23 25
f 18 25 26
f 18 26 27
f 18 27 28
f 18 28 24
f 20 22 29
f 22 30 31
f 22 31 32
f 22 32 29
f 24 28 34
f 24 34 35
f 24 35 36
f 24 36 37
f 24 37 38
f 24 38 39
f 24 39 40
f 24 40 41
f 24 41 42
f 24 42 33
f 30 43 44
f 30 44 45
f 30 45 31
f 33 42 46
f 34 47 36
f 34 36 35
f 36 48 37
f 36 47 49
f 36 49 50
f 36 50 48
f 37 48 38
f 38 48 51
f 38 51 52
f 38 52 50
f 38 50 53
f 38 53 39
f 39 53 40
f 40 53 41
f 41 53 54
f 41 54 55
f 41 55 56
f 41 56 57
f 41 57 58
f 41 58 59
f 41 59 60
f 41 60 61
f 41 61 77
f 41 77 93
f 41 93 92
f 41 92 91
f 41 91 90
f 41 90 89
f 41 89 100
f 41 100 99
f 41 99 98
f 41 98 97
f 41 97 96
f 41 96 83
f 41 83 108
f 41 108 123
f 41 123 122
f 41 122 121
f 41 121 117
f 41 117 101
f 41 101 78
f 41 78 62
f 41 62 42
f 42 62 63
f 42 63 46
f 43 64 44
f 43 65 66
f 43 66 67
f 43 67 64
f 44 64 68
f 47 69 70
f 47 70 71
f 47 71 49
f 48 50 51
f 49 71 70
f 49 70 87
f 49 87 115
f 49 115 126
f 49 126 132
f 49 132 134
f 49 134 130
f 49 130 125
f 49 125 113
f 49 113 112
f 49 112 106
f 49 106 81
f 49 81 105
f 49 105 110
f 49 110 109
f 49 109 94
f 49 94 88
f 49 88 75
f 49 75 74
f 49 74 73
f 49 73 72
f 49 72 57
f 49 57 56
f 49 56 55
f 49 55 54
f 49 54 53
f 49 53 50
f 50 52 51
f 57 72 59
f 57 59 58
f 59 72 73
f 59 73 60
f 60 73 74
f 60 74 75
f 60 75 76
f 60 76 61
f 61 76 77
f 62 78 79
f 62 79 63
f 64 80 68
f 64 67 81
f 64 81 80
f 65 82 83
f 65 83 81
f 65 81 66
f 66 81 67
f 68 80 84
f 69 85 70
f 70 86 87
f 70 85 86
f 75 88 76
f 76 89 90
f 76 90 91
f 76 91 92
f 76 92 93
f 76 93 77
f 76 88 94
f 76 94 95
f 76 95 83
f 76 83 96
f 76 96 97
f 76 97 98
f 76 98 99
f 76 99 100
f 76 100 89
f 78 101 102
f 78 102 103
f 78 103 104
f 78 104 79
f 80 81 84
f 81 83 105
f 81 106 84
f 82 107 83
f 83 95 109
f 83 109 110
f 83 110 105
f 83 107 108
f 84 106 112
f 84 112 113
f 84 113 111
f 85 114 86
f 86 114 87
f 87 114 116
f 87 116 115
f 94 109 95
f 101 117 118
f 101 118 119
f 101 119 102
f 107 120 117
f 107 117 121
f 107 121 122
f 107 122 123
f 107 123 108
f 111 113 124
f 113 125 124
f 115 116 127
f 115 127 128
f 115 128 126
f 117 120 118
f 124 125 129
f 125 130 131
f 125 131 129
f 126 128 133
f 126 133 132
f 130 134 135
f 130 135 131
f 132 133 134
f 133 135 134

