# https://github.com/mikedh/trimesh
v -0.30657768 0.29635083 -0.02366466
v -0.31938821 0.30263218 -0.02323947
v -0.31732986 0.30281604 -0.02318073
v -0.31365276 0.30277817 -0.02301849
v -0.30987099 0.30051766 -0.02316395
v -0.30657768 0.29921707 -0.02316115
v -0.30657768 0.29403085 -0.02360592
v -0.34228110 0.30812123 -0.02274715
v -0.33827606 0.30813203 -0.02285345
v -0.33422218 0.30814556 -0.02281988
v -0.31135721 0.30251588 -0.02286464
v -0.33007062 0.30814015 -0.02255134
v -0.30657768 0.29946311 -0.02306884
v -0.30657768 0.29320883 -0.02293457
v -0.37012100 0.30543076 -0.01709103
v -0.36619271 0.30723432 -0.01940159
v -0.36204115 0.30853224 -0.02083101
v -0.34992136 0.30813744 -0.02214294
v -0.34616054 0.30812935 -0.02250938
v -0.35370314 0.31136328 -0.02107717
v -0.34646756 0.31147416 -0.02122542
v -0.34265789 0.31141195 -0.02123102
v -0.33867377 0.31126864 -0.02116388
v -0.32593301 0.30809418 -0.02183803
v -0.32633770 0.31016003 -0.02011210
v -0.31813926 0.30702883 -0.02051491
v -0.31539712 0.30640150 -0.01990790
v -0.30907557 0.30183720 -0.02255693
v -0.33466873 0.31104691 -0.02101003
v -0.33053810 0.31071164 -0.02072751
v -0.30657768 0.30113957 -0.02146879
v -0.30657768 0.29244361 -0.02202545
v -0.37415393 0.30229688 -0.01156638
v -0.37396554 0.30391926 -0.01369232
v -0.37365855 0.30583368 -0.01588819
v -0.36975816 0.30816178 -0.01883374
v -0.36619968 0.30885129 -0.02019043
v -0.36617876 0.31018166 -0.02014567
v -0.36185973 0.31080087 -0.02062960
v -0.35739419 0.31150659 -0.02059044
v -0.35590800 0.31280179 -0.01945194
v -0.35365429 0.31295323 -0.01947991
v -0.34985857 0.31177970 -0.02084220
v -0.35090520 0.31307220 -0.01948831
v -0.34857472 0.31313980 -0.01943236
v -0.34658618 0.31316955 -0.01928131
v -0.34283233 0.31316684 -0.01885332
v -0.33083117 0.31219610 -0.01724768
v -0.32659586 0.31123621 -0.01726726
v -0.32415379 0.30980040 -0.01964775
v -0.31292014 0.30576338 -0.01891766
v -0.30758241 0.30250779 -0.02031910
v -0.31046409 0.30327843 -0.02127857
v -0.32148142 0.30932450 -0.01814561
v -0.31866256 0.30871880 -0.01669941
v -0.33888312 0.31306408 -0.01808966
v -0.30657768 0.30137481 -0.02112192
v -0.30657768 0.29104835 -0.01912466
v -0.37588434 0.30243749 -0.01106007
v -0.37544475 0.30623656 -0.01502663
v -0.36857898 0.30927312 -0.01971209
v -0.36857201 0.30978145 -0.01970090
v -0.36628340 0.31153634 -0.01803092
v -0.36174111 0.31209337 -0.01899039
v -0.35844777 0.31247733 -0.01939320
v -0.36192253 0.31341559 -0.01662948
v -0.35740814 0.31358865 -0.01751062
v -0.35377988 0.31404833 -0.01707425
v -0.34992136 0.31389690 -0.01756097
v -0.34660013 0.31407808 -0.01692319
v -0.34656523 0.31547873 -0.01300978
v -0.34286023 0.31402129 -0.01647283
v -0.33500364 0.31295593 -0.01687843
v -0.33503157 0.31413214 -0.01315244
v -0.33174520 0.31385635 -0.01198877
v -0.32687498 0.31250705 -0.01289230
v -0.32266059 0.31130380 -0.01269369
v -0.32270247 0.31014379 -0.01682529
v -0.31442028 0.30689091 -0.01718893
v -0.31499243 0.30851061 -0.01217619
v -0.31122464 0.30777781 -0.00880545
v -0.31189446 0.30617977 -0.01572595
v -0.30657768 0.30576338 -0.00821523
v -0.31065946 0.30516580 -0.01716935
v -0.30660557 0.30301073 -0.01732041
v -0.30657768 0.30215087 -0.01986594
v -0.32011385 0.30976253 -0.01492872
v -0.31885092 0.31002752 -0.01229927
v -0.31768573 0.30922174 -0.01355246
v -0.34284628 0.31520023 -0.01299859
v -0.33892496 0.31386715 -0.01571196
v -0.30657768 0.29089153 -0.01864912
v -0.37413301 0.30141807 -0.00908798
v -0.37596806 0.30207515 -0.00912434
v -0.37785198 0.30597699 -0.01111042
v -0.37640764 0.30489810 -0.01243354
v -0.37395856 0.30056904 -0.00528646
v -0.37782406 0.30641230 -0.01109923
v -0.37542383 0.30652318 -0.01499586
v -0.37380507 0.30779944 -0.01618191
v -0.36865573 0.31255302 -0.01516929
v -0.37527731 0.30873231 -0.01472452
v -0.37285613 0.31028710 -0.01597211
v -0.37534709 0.31283425 -0.01076356
v -0.37097224 0.31225018 -0.01446997
v -0.36645087 0.31288560 -0.01573155
v -0.36207602 0.31526241 -0.01265173
v -0.36638110 0.31432954 -0.01298181
v -0.35805006 0.31566800 -0.01265732
v -0.35399617 0.31568154 -0.01300978
v -0.35016558 0.31563287 -0.01302936
v -0.34641871 0.31617906 -0.00975094
v -0.34269276 0.31590053 -0.00975933
v -0.33890404 0.31475405 -0.01301817
v -0.33480828 0.31484869 -0.00970338
v -0.33874354 0.31544627 -0.00976213
v -0.32908681 0.31351564 -0.01090902
v -0.32282806 0.31211499 -0.00899567
v -0.31883698 0.31084142 -0.00882224
v -0.31640885 0.30952999 -0.01061530
v -0.31403652 0.30896217 -0.00878308
v -0.31138510 0.30805902 -0.00599138
v -0.30737309 0.30603375 -0.00860685
v -0.30657768 0.30582826 -0.00642776
v -0.30657768 0.30299990 -0.01730362
v -0.30657768 0.30298369 -0.01735677
v -0.30657768 0.29032909 -0.01646723
v -0.37568897 0.30164793 -0.00557738
v -0.37783103 0.30597699 -0.01084468
v -0.37781011 0.30641230 -0.01083349
v -0.37068617 0.29999038 -0.00148494
v -0.37374227 0.30091784 -0.00171153
v -0.37516567 0.30164251 -0.00312416
v -0.30657768 0.28993974 -0.01457626
v -0.30657768 0.28966933 -0.01297901
v -0.30657768 0.28935025 -0.01069362
v -0.30657768 0.28902308 -0.00834110
v -0.30657768 0.28886356 -0.00610607
v -0.30657768 0.28873917 -0.00434098
v -0.37744030 0.30778864 -0.00972297
v -0.37643557 0.31130651 -0.00956072
v -0.37588434 0.31118754 -0.01180135
v -0.36989770 0.31338854 -0.01301258
v -0.37536801 0.31293428 -0.00953275
v -0.37335851 0.31366707 -0.00952156
v -0.36996750 0.31462699 -0.00955513
v -0.37350503 0.31312358 -0.01144889
v -0.36058983 0.31603305 -0.01116637
v -0.36619968 0.31537867 -0.00962786
v -0.35945950 0.31612498 -0.01120273
v -0.35010976 0.31633047 -0.00974534
v -0.34627916 0.31617094 -0.00621516
v -0.34251834 0.31593299 -0.00622635
v -0.33854818 0.31549765 -0.00621516
v -0.33461291 0.31489736 -0.00615642
v -0.33071952 0.31413755 -0.00601656
v -0.32831232 0.31356702 -0.00869076
v -0.33055905 0.31397803 -0.00975653
v -0.32697962 0.31315601 -0.00950757
v -0.32284899 0.31226101 -0.00565011
v -0.31897652 0.31106586 -0.00563892
v -0.31571110 0.30982474 -0.00574242
v -0.31589950 0.30972739 -0.00877468
v -0.31450400 0.30872693 -0.00230735
v -0.31146882 0.30743172 -0.00236329
v -0.30710098 0.30603375 -0.00592424
v -0.30657768 0.30580393 -0.00617320
v -0.37648439 0.30400307 -0.00593543
v -0.37665883 0.30791842 -0.00639419
v -0.37048383 0.30074210 0.00177110
v -0.30657768 0.28907717 -0.00102619
v -0.37259100 0.30147216 0.00165082
v -0.37444700 0.30297015 -0.00065415
v -0.37520054 0.30405445 -0.00207517
v -0.37586341 0.31126864 -0.00674105
v -0.37506099 0.31270986 -0.00690609
v -0.37328874 0.31332636 -0.00685854
v -0.36992563 0.31428357 -0.00676623
v -0.36607408 0.31508935 -0.00664874
v -0.36058983 0.31604114 -0.01074957
v -0.35945950 0.31613578 -0.01078594
v -0.36202720 0.31588703 -0.00973975
v -0.36186671 0.31565449 -0.00648370
v -0.35814776 0.31621149 -0.00977611
v -0.35410782 0.31636292 -0.00972017
v -0.35006791 0.31626558 -0.00620677
v -0.34623729 0.31566529 -0.00215350
v -0.34246252 0.31547873 -0.00217028
v -0.33850633 0.31507855 -0.00218706
v -0.33459199 0.31446743 -0.00218986
v -0.32820067 0.31336421 -0.00329479
v -0.32795646 0.31351022 -0.00587110
v -0.32598186 0.31305057 -0.00575641
v -0.32281412 0.31183647 -0.00207797
v -0.31903932 0.31057101 -0.00215350
v -0.31637395 0.30948674 -0.00224021
v -0.31700193 0.30915415 -0.00007791
v -0.30884533 0.30531720 0.00041442
v -0.30806387 0.30578500 -0.00239686
v -0.30657768 0.30570658 -0.00556619
v -0.37459351 0.30539021 -0.00011987
v -0.37458654 0.30571200 -0.00014224
v -0.37520754 0.30739385 -0.00216748
v -0.37448187 0.30843218 -0.00064296
v -0.37503310 0.31109558 -0.00408642
v -0.37035123 0.30183720 0.00361172
v -0.37191420 0.30209949 0.00339633
v -0.30657768 0.28941788 0.00000601
v -0.30657768 0.28998029 0.00119766
v -0.37369343 0.30412746 0.00126199
v -0.37480980 0.31244758 -0.00519695
v -0.37010705 0.31314250 -0.00286121
v -0.36619968 0.31399424 -0.00267659
v -0.37307242 0.31246650 -0.00338990
v -0.36183881 0.31472701 -0.00249477
v -0.35793144 0.31603575 -0.00632146
v -0.35779190 0.31525699 -0.00234371
v -0.35411479 0.31623583 -0.00622355
v -0.35005393 0.31569234 -0.00216189
v -0.34625824 0.31409159 0.00166480
v -0.33849235 0.31374549 0.00139627
v -0.33462689 0.31345075 0.00095429
v -0.33176613 0.31322090 0.00038924
v -0.32912168 0.31308571 -0.00074086
v -0.33051718 0.31363732 -0.00209196
v -0.32683310 0.31283425 -0.00202482
v -0.32279316 0.31030873 0.00168159
v -0.31908119 0.30963275 0.00058225
v -0.32683310 0.31156067 0.00151375
v -0.31555761 0.30771834 0.00128437
v -0.31176189 0.30589044 0.00157250
v -0.31058969 0.30456010 0.00281449
v -0.30705213 0.30333790 0.00200608
v -0.30657768 0.30315404 0.00189978
v -0.30657768 0.30486835 -0.00190174
v -0.30657768 0.30501978 -0.00239127
v -0.37230493 0.30745876 0.00383271
v -0.37385392 0.30721811 0.00118087
v -0.37212352 0.30952999 0.00363410
v -0.36705792 0.30399498 0.00448727
v -0.37037219 0.30412746 0.00431664
v -0.30657768 0.29102943 0.00257672
v -0.30657768 0.29253012 0.00377956
v -0.37216536 0.30410854 0.00368725
v -0.37202582 0.31197168 -0.00070450
v -0.37029544 0.31226640 -0.00045834
v -0.36645087 0.31283425 0.00024098
v -0.36199230 0.31325065 0.00104101
v -0.35401713 0.31558149 -0.00222902
v -0.35397525 0.31388881 0.00162285
v -0.35010278 0.31408617 0.00166201
v -0.34628614 0.31280450 0.00353899
v -0.34376032 0.31277475 0.00346346
v -0.34244857 0.31371845 0.00196132
v -0.34112982 0.31271528 0.00334318
v -0.33847143 0.31261252 0.00314177
v -0.33465478 0.31242595 0.00267463
v -0.33064975 0.31237999 0.00153054
v -0.32150934 0.30908385 0.00294876
v -0.32411191 0.30964626 0.00332640
v -0.31910912 0.30856196 0.00232497
v -0.32687498 0.31016271 0.00358654
v -0.31322015 0.30529557 0.00342430
v -0.30657768 0.30174798 0.00376277
v -0.30657768 0.30280250 0.00241448
v -0.37037916 0.30749390 0.00450685
v -0.37035123 0.30987070 0.00388026
v -0.37030939 0.31139032 0.00156131
v -0.36290634 0.30758854 0.00489847
v -0.36705792 0.30757774 0.00478938
v -0.30657768 0.29585060 0.00481176
v -0.30657768 0.29621023 0.00486491
v -0.36661137 0.31184188 0.00221867
v -0.36215280 0.31218800 0.00295715
v -0.35745699 0.31334258 0.00187460
v -0.35860826 0.31234211 0.00330681
v -0.35599869 0.31245299 0.00346906
v -0.35402410 0.31258818 0.00351661
v -0.35017255 0.31276666 0.00357256
v -0.34634894 0.31121997 0.00432223
v -0.34244857 0.31152012 0.00404530
v -0.35030512 0.31120917 0.00435300
v -0.33845051 0.31113887 0.00408446
v -0.33457804 0.31096851 0.00396977
v -0.33081024 0.31068998 0.00383830
v -0.31517385 0.30588503 0.00361731
v -0.31893467 0.30687740 0.00389425
v -0.32658889 0.30765342 0.00453203
v -0.30779172 0.30218062 0.00390823
v -0.30657768 0.30024725 0.00433342
v -0.36686253 0.31032768 0.00409565
v -0.32220009 0.30386247 0.00491246
v -0.35863616 0.30743172 0.00489568
v -0.34628614 0.30718023 0.00487609
v -0.35427529 0.31116588 0.00429146
v -0.36253656 0.31081979 0.00420754
v -0.30657768 0.29995795 0.00441734
v -0.31029662 0.29987412 0.00484532
v -0.33047530 0.30756420 0.00473343
v -0.33433382 0.30739926 0.00478099
v -0.31135023 0.30356234 0.00398656
v -0.31470634 0.30376512 0.00447329
v -0.31844624 0.30388410 0.00480616
f 1 2 3
f 1 3 4
f 1 4 5
f 1 5 6
f 1 6 13
f 1 13 31
f 1 31 57
f 1 57 86
f 1 86 126
f 1 126 125
f 1 125 83
f 1 83 124
f 1 124 167
f 1 167 200
f 1 200 236
f 1 236 235
f 1 235 234
f 1 234 265
f 1 265 264
f 1 264 290
f 1 290 297
f 1 297 272
f 1 272 271
f 1 271 243
f 1 243 242
f 1 242 209
f 1 209 208
f 1 208 171
f 1 171 139
f 1 139 138
f 1 138 137
f 1 137 136
f 1 136 135
f 1 135 134
f 1 134 127
f 1 127 92
f 1 92 58
f 1 58 32
f 1 32 14
f 1 14 7
f 1 7 8
f 1 8 9
f 1 9 2
f 2 10 3
f 2 9 10
f 3 10 4
f 4 11 6
f 4 6 5
f 4 10 12
f 4 12 11
f 6 11 13
f 7 14 15
f 7 15 16
f 7 16 17
f 7 17 18
f 7 18 19
f 7 19 8
f 8 19 20
f 8 20 9
f 9 20 21
f 9 21 10
f 10 21 22
f 10 22 23
f 10 23 12
f 11 12 24
f 11 24 25
f 11 25 26
f 11 26 27
f 11 27 28
f 11 28 13
f 12 23 29
f 12 29 30
f 12 30 24
f 13 28 31
f 14 32 15
f 15 33 34
f 15 34 35
f 15 35 36
f 15 36 16
f 15 32 33
f 16 36 37
f 16 37 17
f 17 37 38
f 17 38 39
f 17 39 18
f 18 39 19
f 19 39 20
f 20 40 41
f 20 41 42
f 20 42 43
f 20 43 21
f 20 39 40
f 21 43 44
f 21 44 45
f 21 45 22
f 22 45 46
f 22 46 23
f 23 46 47
f 23 47 29
f 24 30 25
f 25 30 48
f 25 48 49
f 25 49 50
f 25 50 26
f 26 50 27
f 27 51 52
f 27 52 53
f 27 53 28
f 27 50 54
f 27 54 55
f 27 55 51
f 28 53 52
f 28 52 31
f 29 47 30
f 30 47 56
f 30 56 48
f 31 52 57
f 32 58 33
f 33 59 34
f 33 58 59
f 34 59 35
f 35 59 60
f 35 60 36
f 36 61 37
f 36 60 61
f 37 61 62
f 37 62 38
f 38 62 63
f 38 63 64
f 38 64 39
f 39 64 65
f 39 65 40
f 40 65 41
f 41 65 66
f 41 66 67
f 41 67 42
f 42 44 43
f 42 67 68
f 42 68 44
f 44 68 45
f 45 68 69
f 45 69 46
f 46 69 70
f 46 70 47
f 47 71 72
f 47 72 56
f 47 70 71
f 48 56 73
f 48 73 74
f 48 74 75
f 48 75 49
f 49 75 76
f 49 76 77
f 49 77 50
f 50 77 78
f 50 78 54
f 51 55 79
f 51 79 80
f 51 80 81
f 51 81 82
f 51 82 83
f 51 83 84
f 51 84 85
f 51 85 86
f 51 86 52
f 52 86 57
f 54 78 87
f 54 87 55
f 55 87 88
f 55 88 89
f 55 89 79
f 56 72 90
f 56 90 91
f 56 91 73
f 58 92 93
f 58 93 59
f 59 94 95
f 59 95 96
f 59 96 60
f 59 93 97
f 59 97 94
f 60 96 95
f 60 95 98
f 60 98 99
f 60 99 100
f 60 100 61
f 61 100 62
f 62 101 63
f 62 100 102
f 62 102 103
f 62 103 104
f 62 104 105
f 62 105 101
f 63 101 106
f 63 106 64
f 64 106 66
f 64 66 65
f 66 107 67
f 66 106 108
f 66 108 107
f 67 107 109
f 67 109 68
f 68 109 110
f 68 110 69
f 69 111 70
f 69 110 111
f 70 111 71
f 71 112 113
f 71 113 90
f 71 90 72
f 71 111 112
f 73 91 114
f 73 114 74
f 74 115 75
f 74 114 116
f 74 116 115
f 75 115 117
f 75 117 76
f 76 117 118
f 76 118 77
f 77 118 119
f 77 119 88
f 77 88 87
f 77 87 78
f 79 89 120
f 79 120 80
f 80 120 81
f 81 120 121
f 81 121 122
f 81 122 83
f 81 83 123
f 81 123 82
f 82 123 83
f 83 125 85
f 83 85 84
f 83 122 124
f 85 125 126
f 85 126 86
f 88 119 120
f 88 120 89
f 90 113 114
f 90 114 91
f 92 127 93
f 93 127 97
f 94 128 95
f 94 97 128
f 95 128 129
f 95 129 130
f 95 130 98
f 97 131 132
f 97 132 133
f 97 133 128
f 97 127 134
f 97 134 135
f 97 135 136
f 97 136 137
f 97 137 138
f 97 138 139
f 97 139 131
f 98 130 140
f 98 140 141
f 98 141 142
f 98 142 102
f 98 102 99
f 99 102 100
f 101 143 106
f 101 105 143
f 102 142 103
f 103 142 104
f 104 142 141
f 104 141 144
f 104 144 145
f 104 145 146
f 104 146 147
f 104 147 105
f 105 147 143
f 106 143 108
f 107 108 148
f 107 148 109
f 108 143 147
f 108 147 146
f 108 146 149
f 108 149 148
f 109 148 150
f 109 150 110
f 110 151 111
f 110 150 151
f 111 151 112
f 112 152 153
f 112 153 113
f 112 151 152
f 113 153 154
f 113 154 116
f 113 116 114
f 115 155 156
f 115 156 157
f 115 157 158
f 115 158 117
f 115 116 154
f 115 154 155
f 117 157 159
f 117 159 118
f 117 158 157
f 118 160 161
f 118 161 119
f 118 159 157
f 118 157 160
f 119 161 162
f 119 162 163
f 119 163 120
f 120 163 121
f 121 163 122
f 122 163 162
f 122 162 164
f 122 164 165
f 122 165 166
f 122 166 124
f 124 166 167
f 128 133 168
f 128 168 129
f 129 169 130
f 129 168 169
f 130 169 140
f 131 170 132
f 131 139 171
f 131 171 170
f 132 170 172
f 132 172 133
f 133 173 174
f 133 174 168
f 133 172 173
f 140 169 175
f 140 175 141
f 141 175 176
f 141 176 144
f 144 176 145
f 145 176 177
f 145 177 178
f 145 178 146
f 146 178 179
f 146 179 149
f 148 180 181
f 148 181 150
f 148 149 182
f 148 182 180
f 149 179 183
f 149 183 182
f 150 181 184
f 150 184 185
f 150 185 151
f 151 185 186
f 151 186 152
f 152 186 187
f 152 187 188
f 152 188 153
f 153 188 189
f 153 189 154
f 154 189 155
f 155 189 190
f 155 190 191
f 155 191 156
f 156 191 192
f 156 192 157
f 157 192 193
f 157 193 160
f 160 194 161
f 160 193 191
f 160 191 194
f 161 194 195
f 161 195 162
f 162 195 196
f 162 196 164
f 164 196 197
f 164 197 165
f 165 198 199
f 165 199 166
f 165 197 198
f 166 200 167
f 166 199 200
f 168 174 201
f 168 201 169
f 169 201 202
f 169 202 203
f 169 203 204
f 169 204 205
f 169 205 175
f 170 206 207
f 170 207 172
f 170 171 208
f 170 208 209
f 170 209 206
f 172 207 173
f 173 201 174
f 173 207 210
f 173 210 201
f 175 205 211
f 175 211 176
f 176 211 177
f 177 211 178
f 178 212 213
f 178 213 179
f 178 211 214
f 178 214 212
f 179 213 215
f 179 215 183
f 180 184 181
f 180 182 184
f 182 183 216
f 182 216 184
f 183 215 217
f 183 217 216
f 184 216 218
f 184 218 185
f 185 218 186
f 186 218 219
f 186 219 187
f 187 220 188
f 187 219 220
f 188 220 221
f 188 221 189
f 189 221 222
f 189 222 223
f 189 223 190
f 190 223 224
f 190 224 225
f 190 225 191
f 191 226 194
f 191 193 192
f 191 225 226
f 194 227 228
f 194 228 197
f 194 197 195
f 194 226 224
f 194 224 229
f 194 229 227
f 195 197 196
f 197 228 230
f 197 230 198
f 198 230 231
f 198 231 232
f 198 232 233
f 198 233 234
f 198 234 235
f 198 235 236
f 198 236 199
f 199 236 200
f 201 210 237
f 201 237 238
f 201 238 202
f 202 204 203
f 202 238 204
f 204 238 239
f 204 239 205
f 205 239 211
f 206 240 241
f 206 241 207
f 206 209 242
f 206 242 243
f 206 243 240
f 207 241 244
f 207 244 210
f 210 244 237
f 211 239 245
f 211 245 214
f 212 214 245
f 212 245 213
f 213 245 246
f 213 246 247
f 213 247 215
f 215 247 248
f 215 248 217
f 216 217 249
f 216 249 218
f 217 250 249
f 217 248 250
f 218 249 219
f 219 249 251
f 219 251 220
f 220 252 253
f 220 253 254
f 220 254 221
f 220 251 252
f 221 254 255
f 221 255 256
f 221 256 257
f 221 257 222
f 222 257 258
f 222 258 223
f 223 258 229
f 223 229 224
f 224 226 225
f 227 259 228
f 227 229 260
f 227 260 259
f 228 261 230
f 228 259 261
f 229 258 262
f 229 262 260
f 230 263 231
f 230 261 263
f 231 263 232
f 232 263 264
f 232 264 265
f 232 265 233
f 233 265 234
f 237 244 241
f 237 241 266
f 237 266 239
f 237 239 238
f 239 266 267
f 239 267 268
f 239 268 245
f 240 269 270
f 240 270 241
f 240 243 271
f 240 271 272
f 240 272 269
f 241 270 266
f 245 268 246
f 246 268 247
f 247 273 248
f 247 268 273
f 248 273 274
f 248 274 275
f 248 275 250
f 249 250 251
f 250 275 274
f 250 274 276
f 250 276 277
f 250 277 278
f 250 278 251
f 251 278 279
f 251 279 252
f 252 280 281
f 252 281 253
f 252 279 282
f 252 282 280
f 253 281 283
f 253 283 284
f 253 284 255
f 253 255 254
f 255 284 285
f 255 285 256
f 256 285 257
f 257 285 262
f 257 262 258
f 259 260 286
f 259 286 263
f 259 263 261
f 260 287 286
f 260 262 287
f 262 285 288
f 262 288 287
f 263 286 289
f 263 289 264
f 264 289 290
f 266 270 291
f 266 291 267
f 267 291 274
f 267 274 273
f 267 273 268
f 269 272 292
f 269 292 293
f 269 293 294
f 269 294 282
f 269 282 295
f 269 295 296
f 269 296 270
f 270 296 291
f 272 297 298
f 272 298 292
f 274 291 276
f 276 291 296
f 276 296 277
f 277 296 278
f 278 296 279
f 279 295 282
f 279 296 295
f 280 283 281
f 280 282 299
f 280 299 283
f 282 294 300
f 282 300 299
f 283 299 284
f 284 299 288
f 284 288 285
f 286 301 289
f 286 287 301
f 287 288 302
f 287 302 301
f 288 299 303
f 288 303 302
f 289 301 302
f 289 302 290
f 290 302 297
f 292 298 303
f 292 303 299
f 292 299 300
f 292 300 294
f 292 294 293
f 297 302 298
f 298 302 303

