# https://github.com/mikedh/trimesh
v 0.05801691 -0.01557974 -0.01362562
v 0.05801691 -0.01559679 -0.01392736
v 0.05801691 -0.01561383 -0.01020352
v 0.23714594 -0.17360022 -0.01417513
v 0.05968266 -0.01801686 -0.01530111
v 0.05801691 -0.01568200 -0.01404511
v 0.23714594 -0.17491250 -0.01769291
v 0.05801691 -0.01564792 -0.01009312
v 0.23714594 -0.17419671 -0.00950683
v 0.05801691 -0.01718177 -0.01609102
v 0.23714594 -0.17619071 -0.01907402
v 0.05801691 -0.01694316 -0.00762773
v 0.05978786 -0.01781235 -0.00863597
v 0.23714594 -0.17709398 -0.00216953
v 0.05801691 -0.01827250 -0.01712869
v 0.23714594 -0.17832105 -0.02063420
v 0.05991060 -0.02193670 -0.01876492
v 0.05801691 -0.01898830 -0.01778367
v 0.05801691 -0.01699429 -0.00758603
v 0.23714594 -0.17886642 -0.00036403
v 0.23714594 -0.17780978 -0.00136736
v 0.23714594 -0.18300783 -0.02239309
v 0.05801691 -0.02086300 -0.01903967
v 0.05801691 -0.01728403 -0.00736280
v 0.23714594 -0.18307598 0.00078158
v 0.05801691 -0.02041989 -0.00505441
v 0.05843774 -0.02219234 -0.00406825
v 0.05801691 -0.02209008 -0.00393333
v 0.23714594 -0.18392813 -0.02266784
v 0.06122567 -0.02432268 -0.01927027
v 0.05801691 -0.02432268 -0.02006753
v 0.23714594 -0.18612663 0.00140713
v 0.05801691 -0.02384548 -0.00354573
v 0.05801691 -0.02115273 -0.00454416
v 0.23714594 -0.18965450 -0.02362456
v 0.06143608 -0.02817434 -0.02029813
v 0.05801691 -0.02462945 -0.02015584
v 0.23714594 -0.18777979 0.00143656
v 0.05801691 -0.02444198 -0.00343780
v 0.05801691 -0.02781645 -0.00336175
v 0.23714594 -0.18965450 0.00136542
v 0.23637441 -0.18965450 -0.02343322
v 0.05801691 -0.03238391 -0.01954992
v 0.06147115 -0.03223053 -0.02030058
v 0.05801691 -0.02856633 -0.02031530
v 0.05801691 -0.02825956 -0.02031530
v 0.06531113 -0.03221348 -0.02039380
v 0.05801691 -0.02919691 -0.00338383
v 0.23509442 -0.18965450 0.00122559
v 0.23537498 -0.18965450 -0.02251084
v 0.18799767 -0.15579053 -0.01596100
v 0.18947054 -0.15458049 -0.01822033
v 0.18540262 -0.15083109 -0.01838223
v 0.17319883 -0.13966808 -0.01876247
v 0.16497531 -0.13216927 -0.01893664
v 0.16095998 -0.12838578 -0.01902986
v 0.15690960 -0.12448298 -0.01914761
v 0.05892869 -0.03492328 -0.01903231
v 0.05801691 -0.03306562 -0.01935858
v 0.05801691 -0.03074780 -0.00361687
v 0.23323580 -0.18965450 0.00078648
v 0.23460347 -0.18965450 -0.02138486
v 0.20779373 -0.17187890 -0.01606648
v 0.20326992 -0.16814653 -0.01640256
v 0.19224093 -0.15965924 -0.01554152
v 0.18759438 -0.15628478 -0.01413097
v 0.18147496 -0.15096744 -0.01411870
v 0.16916597 -0.13973625 -0.01516864
v 0.16513312 -0.13600388 -0.01557095
v 0.18394728 -0.15202408 -0.01614498
v 0.18670015 -0.15330229 -0.01719247
v 0.16806132 -0.13689011 -0.01719492
v 0.16607996 -0.13511767 -0.01721945
v 0.15832986 -0.12717573 -0.01815164
v 0.15429701 -0.12325590 -0.01833317
v 0.06026129 -0.03754786 -0.01813447
v 0.05801691 -0.03458243 -0.01873794
v 0.05801691 -0.03120795 -0.00378123
v 0.23193828 -0.18965450 0.00022717
v 0.23388458 -0.18965450 -0.01987128
v 0.22413557 -0.18483140 -0.01482275
v 0.21661342 -0.17946293 -0.01446950
v 0.20060474 -0.16717510 -0.01427325
v 0.19618611 -0.16323821 -0.01509750
v 0.18997903 -0.15834695 -0.01411134
v 0.19580037 -0.16363020 -0.01318161
v 0.16885036 -0.14019640 -0.01323558
v 0.16474736 -0.13644700 -0.01361827
v 0.15655891 -0.12876071 -0.01425363
v 0.05801691 -0.03913284 -0.01392981
v 0.05801691 -0.03850226 -0.01524714
v 0.05871828 -0.03884311 -0.01578928
v 0.15703234 -0.12828352 -0.01608120
v 0.15566467 -0.12579527 -0.01720719
v 0.05801691 -0.03742856 -0.01648842
v 0.05801691 -0.03661051 -0.01719492
v 0.05801691 -0.03306562 -0.00467908
v 0.16448436 -0.13249307 -0.00501761
v 0.16325696 -0.13389059 -0.00791720
v 0.16739503 -0.13763999 -0.00790984
v 0.17954620 -0.14882005 -0.00829253
v 0.18789246 -0.15621660 -0.00863842
v 0.19604585 -0.16357907 -0.00999255
v 0.23139472 -0.18965450 -0.00129867
v 0.06318950 -0.03805914 -0.00475512
v 0.05801691 -0.03662756 -0.00729166
v 0.05801691 -0.03804210 -0.00850595
v 0.05864815 -0.03896241 -0.00888619
v 0.23332348 -0.18965450 -0.01835525
v 0.22560846 -0.18604143 -0.01370167
v 0.22373230 -0.18501886 -0.01237698
v 0.22222436 -0.18365544 -0.01383414
v 0.21866491 -0.18097973 -0.01431741
v 0.19578284 -0.16368133 -0.01228867
v 0.19767653 -0.16482319 -0.01418739
v 0.16879776 -0.14029866 -0.01236717
v 0.16464216 -0.13661742 -0.01204581
v 0.05801691 -0.03901354 -0.01073584
v 0.15306962 -0.12446593 -0.01626764
v 0.15669918 -0.12874367 -0.00904564
v 0.16074958 -0.13261237 -0.00935228
v 0.16481750 -0.13648109 -0.00971780
v 0.17907277 -0.14924611 -0.01099587
v 0.18133469 -0.15120603 -0.01098852
v 0.18750672 -0.15654041 -0.01094927
v 0.19758885 -0.16497658 -0.01110136
v 0.22369722 -0.18501886 -0.01184956
v 0.23128952 -0.18965450 -0.00209348
v 0.20056966 -0.16729439 -0.01105720
v 0.05801691 -0.03858747 -0.00935964
v 0.23190322 -0.18965450 -0.01407455
v 0.22962376 -0.18835924 -0.01396906
f 1 2 6
f 1 6 10
f 1 10 15
f 1 15 18
f 1 18 23
f 1 23 31
f 1 31 37
f 1 37 46
f 1 46 45
f 1 45 43
f 1 43 59
f 1 59 77
f 1 77 96
f 1 96 95
f 1 95 91
f 1 91 90
f 1 90 118
f 1 118 130
f 1 130 107
f 1 107 106
f 1 106 97
f 1 97 78
f 1 78 60
f 1 60 48
f 1 48 40
f 1 40 39
f 1 39 33
f 1 33 28
f 1 28 34
f 1 34 26
f 1 26 24
f 1 24 19
f 1 19 12
f 1 12 8
f 1 8 3
f 1 3 4
f 1 4 2
f 2 5 6
f 2 4 7
f 2 7 5
f 3 8 9
f 3 9 4
f 4 9 14
f 4 14 21
f 4 21 20
f 4 20 25
f 4 25 32
f 4 32 38
f 4 38 41
f 4 41 35
f 4 35 29
f 4 29 22
f 4 22 16
f 4 16 11
f 4 11 7
f 5 10 6
f 5 7 10
f 7 11 10
f 8 12 13
f 8 13 14
f 8 14 9
f 10 11 15
f 11 16 17
f 11 17 18
f 11 18 15
f 12 19 20
f 12 20 21
f 12 21 14
f 12 14 13
f 16 22 23
f 16 23 17
f 17 23 18
f 19 24 20
f 20 24 26
f 20 26 27
f 20 27 28
f 20 28 25
f 22 29 30
f 22 30 23
f 23 30 31
f 25 28 33
f 25 33 32
f 26 34 27
f 27 34 28
f 29 35 36
f 29 36 37
f 29 37 31
f 29 31 30
f 32 33 39
f 32 39 40
f 32 40 38
f 35 41 49
f 35 49 61
f 35 61 79
f 35 79 104
f 35 104 128
f 35 128 131
f 35 131 109
f 35 109 80
f 35 80 62
f 35 62 50
f 35 50 42
f 35 42 43
f 35 43 44
f 35 44 45
f 35 45 46
f 35 46 47
f 35 47 36
f 36 47 46
f 36 46 37
f 38 40 48
f 38 48 41
f 41 48 49
f 42 50 51
f 42 51 52
f 42 52 53
f 42 53 54
f 42 54 55
f 42 55 56
f 42 56 57
f 42 57 58
f 42 58 59
f 42 59 43
f 43 45 44
f 48 60 49
f 49 60 61
f 50 62 63
f 50 63 64
f 50 64 51
f 51 64 65
f 51 65 66
f 51 66 67
f 51 67 68
f 51 68 69
f 51 69 70
f 51 70 71
f 51 71 52
f 52 71 53
f 53 71 54
f 54 72 73
f 54 73 74
f 54 74 55
f 54 71 72
f 55 74 56
f 56 74 75
f 56 75 76
f 56 76 77
f 56 77 57
f 57 77 58
f 58 77 59
f 60 78 61
f 61 78 79
f 62 80 81
f 62 81 82
f 62 82 63
f 63 82 83
f 63 83 64
f 64 83 84
f 64 84 65
f 65 85 66
f 65 84 85
f 66 85 86
f 66 86 87
f 66 87 67
f 67 87 88
f 67 88 68
f 68 88 69
f 69 73 70
f 69 88 89
f 69 89 90
f 69 90 91
f 69 91 92
f 69 92 93
f 69 93 73
f 70 73 72
f 70 72 71
f 73 93 74
f 74 93 94
f 74 94 95
f 74 95 96
f 74 96 76
f 74 76 75
f 76 96 77
f 78 97 79
f 79 98 99
f 79 99 100
f 79 100 101
f 79 101 102
f 79 102 103
f 79 103 104
f 79 97 105
f 79 105 106
f 79 106 107
f 79 107 108
f 79 108 98
f 80 109 110
f 80 110 81
f 81 110 111
f 81 111 112
f 81 112 113
f 81 113 82
f 82 113 112
f 82 112 111
f 82 111 114
f 82 114 86
f 82 86 83
f 83 86 115
f 83 115 84
f 84 115 86
f 84 86 85
f 86 114 116
f 86 116 87
f 87 116 88
f 88 116 117
f 88 117 90
f 88 90 89
f 90 117 118
f 91 95 92
f 92 95 94
f 92 94 119
f 92 119 93
f 93 119 94
f 97 106 105
f 98 108 99
f 99 108 120
f 99 120 100
f 100 120 121
f 100 121 101
f 101 121 122
f 101 122 102
f 102 122 123
f 102 123 124
f 102 124 125
f 102 125 103
f 103 125 114
f 103 114 126
f 103 126 104
f 104 127 128
f 104 126 129
f 104 129 127
f 107 130 108
f 108 130 121
f 108 121 120
f 109 131 132
f 109 132 110
f 110 132 111
f 111 127 114
f 111 132 127
f 114 127 129
f 114 129 126
f 114 125 124
f 114 124 123
f 114 123 116
f 116 123 117
f 117 123 122
f 117 122 118
f 118 122 130
f 121 130 122
f 127 132 128
f 128 132 131

