# https://github.com/mikedh/trimesh
v 0.15101055 -0.27748846 -0.00954933
v 0.15101055 -0.27744546 -0.01191338
v 0.15267997 -0.27654290 -0.01422631
v 0.15270527 -0.27659449 -0.00952377
v 0.15101055 -0.27735951 -0.00513559
v 0.15101055 -0.27740250 -0.01424165
v 0.15434939 -0.27541681 -0.01830526
v 0.15450116 -0.27558014 -0.01418542
v 0.15703902 -0.27422198 -0.01407041
v 0.15696313 -0.27429935 -0.00924775
v 0.15264625 -0.27649132 -0.00512792
v 0.15101055 -0.27678359 -0.00213005
v 0.15993942 -0.27226207 -0.00248274
v 0.15101055 -0.27713601 -0.01831803
v 0.15703902 -0.27398130 -0.01826181
v 0.15210663 -0.27612168 -0.02054152
v 0.15951786 -0.27215893 -0.02051596
v 0.16006590 -0.27258012 -0.01390429
v 0.16010805 -0.27259734 -0.00899218
v 0.16197139 -0.27146266 -0.00478801
v 0.15101055 -0.27637958 -0.00136333
v 0.15923961 -0.27201280 -0.00098253
v 0.16670142 -0.26835088 -0.00280476
v 0.17690345 -0.26212739 -0.00203293
v 0.17901973 -0.26039957 -0.00074485
v 0.17712266 -0.26137953 -0.00043305
v 0.15101055 -0.27686955 -0.01962146
v 0.16687848 -0.26814460 -0.02049296
v 0.15991413 -0.27239962 -0.01819791
v 0.15101055 -0.27652572 -0.02078176
v 0.15344723 -0.27515035 -0.02105266
v 0.15738470 -0.27305293 -0.02106800
v 0.16199669 -0.27150562 -0.01378928
v 0.16200512 -0.27155721 -0.00886439
v 0.16461885 -0.27007010 -0.00884139
v 0.16703868 -0.26866896 -0.00888484
v 0.17442460 -0.26435376 -0.00903052
v 0.17697089 -0.26262594 -0.00525315
v 0.16444181 -0.27000133 -0.00480334
v 0.15101055 -0.27614749 -0.00097231
v 0.16117885 -0.27054288 -0.00062984
v 0.15658372 -0.27324203 -0.00085219
v 0.17360675 -0.26306435 -0.00014425
v 0.18127092 -0.25949701 -0.00217094
v 0.18456761 -0.25697837 -0.00074740
v 0.18094209 -0.25902420 -0.00041260
v 0.18546134 -0.25589527 -0.00012636
v 0.16709770 -0.26835947 -0.01821069
v 0.16475376 -0.26968328 -0.01818258
v 0.16628829 -0.26782655 -0.02171971
v 0.17114479 -0.26470618 -0.02227175
v 0.17375009 -0.26370904 -0.02118301
v 0.17915462 -0.26064026 -0.02048529
v 0.17429813 -0.26412167 -0.01801390
v 0.16929830 -0.26707009 -0.01813658
v 0.15101055 -0.27604432 -0.02158681
v 0.15128879 -0.27583803 -0.02170437
v 0.15880961 -0.27187525 -0.02176316
v 0.16477062 -0.26994975 -0.01374584
v 0.16718202 -0.26858300 -0.01374328
v 0.16938261 -0.26730218 -0.01366916
v 0.17444990 -0.26431077 -0.01344682
v 0.17721540 -0.26268612 -0.00903052
v 0.18154073 -0.25980647 -0.00528126
v 0.15374234 -0.27457440 -0.00075251
v 0.15101055 -0.27539104 -0.00033337
v 0.17782247 -0.26012452 0.00006532
v 0.15101055 -0.27521912 -0.00026437
v 0.18429780 -0.25761447 -0.00219394
v 0.18609368 -0.25611018 -0.00103875
v 0.18808350 -0.25468323 -0.00067073
v 0.19261961 -0.25156286 -0.00052761
v 0.18959274 -0.25265458 0.00010366
v 0.17306714 -0.26301276 -0.02257077
v 0.17621207 -0.26140530 -0.02236886
v 0.17855600 -0.26039957 -0.02175038
v 0.15659215 -0.27279503 -0.02205962
v 0.15393625 -0.27392112 -0.02225897
v 0.16129688 -0.26985520 -0.02234586
v 0.15802549 -0.27135089 -0.02248898
v 0.17728285 -0.26152566 -0.02114211
v 0.18133837 -0.25963452 -0.01800623
v 0.17726599 -0.26227352 -0.01800623
v 0.18068915 -0.25933366 -0.02111656
v 0.19091646 -0.25275772 -0.02064119
v 0.18631290 -0.25625628 -0.01879851
v 0.17732501 -0.26256576 -0.01338548
v 0.17211440 -0.26541105 -0.01804968
v 0.15101055 -0.27594118 -0.02174015
v 0.17978699 -0.26108725 -0.00901518
v 0.18435682 -0.25803566 -0.00525571
v 0.17428127 -0.26096693 0.00026211
v 0.18223210 -0.25684083 0.00023144
v 0.15101055 -0.27294117 0.00004232
v 0.19324353 -0.25188953 -0.00235240
v 0.19089117 -0.25295544 -0.00089819
v 0.19610179 -0.24955139 -0.00091352
v 0.19693649 -0.24799552 -0.00017492
v 0.20117751 -0.24438520 0.00006276
v 0.20542694 -0.24083504 0.00020333
v 0.16977889 -0.26372622 -0.02304613
v 0.17406205 -0.26031361 -0.02335793
v 0.18185268 -0.25615314 -0.02314836
v 0.17769599 -0.25973770 -0.02273178
v 0.18129622 -0.25799269 -0.02242253
v 0.18338721 -0.25692678 -0.02216952
v 0.18394368 -0.25718465 -0.02108844
v 0.19023351 -0.25248263 -0.02194461
v 0.15101055 -0.27504718 -0.02236886
v 0.15101055 -0.27481509 -0.02247365
v 0.15453488 -0.27195262 -0.02298735
v 0.16199669 -0.26770619 -0.02313303
v 0.18493858 -0.25733079 -0.01763821
v 0.18654898 -0.25646260 -0.01600766
v 0.18154916 -0.25988380 -0.01338037
v 0.18875802 -0.25389240 -0.02120856
v 0.19235824 -0.25141675 -0.02120090
v 0.19533452 -0.24934511 -0.02105266
v 0.20216398 -0.24460010 -0.02012749
v 0.19600060 -0.24971471 -0.01800368
v 0.19333628 -0.25164884 -0.01803435
v 0.19135489 -0.25300700 -0.01806757
v 0.18812566 -0.25521618 -0.01767143
v 0.18456761 -0.25806146 -0.00908163
v 0.18161660 -0.25993539 -0.00903052
v 0.18653212 -0.25661733 -0.00524037
v 0.15101055 -0.26757724 0.00018800
v 0.18621173 -0.25338522 0.00029789
v 0.23713752 -0.20608134 0.00094194
v 0.23713752 -0.19752831 0.00122307
v 0.23713752 -0.19255981 0.00137641
v 0.19155725 -0.25328208 -0.00530171
v 0.19348804 -0.25198408 -0.00532471
v 0.19591630 -0.25005857 -0.00232173
v 0.19799043 -0.24840815 -0.00120488
v 0.19981161 -0.24668892 -0.00079085
v 0.20418752 -0.24313018 -0.00059917
v 0.20838637 -0.23970896 -0.00047138
v 0.21256835 -0.23626197 -0.00036149
v 0.20933069 -0.23737084 0.00024422
v 0.23713752 -0.21025900 0.00072725
v 0.16614495 -0.26410445 -0.02341160
v 0.17020047 -0.26052852 -0.02362117
v 0.17818501 -0.25672909 -0.02354450
v 0.18573114 -0.25237949 -0.02346783
v 0.19335315 -0.24791816 -0.02322759
v 0.18929763 -0.25179498 -0.02280334
v 0.18498075 -0.25530214 -0.02256054
v 0.18788115 -0.25368609 -0.02233308
v 0.19477805 -0.24903565 -0.02218229
v 0.15101055 -0.27227067 -0.02317647
v 0.15848922 -0.26816178 -0.02335537
v 0.19159097 -0.25323049 -0.01371772
v 0.18862311 -0.25523337 -0.01360783
v 0.18659958 -0.25658296 -0.01352093
v 0.18466878 -0.25786374 -0.01346215
v 0.19734963 -0.24782361 -0.02106033
v 0.20237476 -0.24476342 -0.01804457
v 0.20027534 -0.24643105 -0.01802668
v 0.19799043 -0.24822761 -0.01800368
v 0.20028377 -0.24561442 -0.02095299
v 0.20153162 -0.24428205 -0.02161748
v 0.20402732 -0.24257144 -0.02107567
v 0.20643027 -0.24092101 -0.02053129
v 0.20678440 -0.24122186 -0.01803435
v 0.20431399 -0.24321614 -0.01804201
v 0.19621982 -0.24990384 -0.01378162
v 0.19354707 -0.25185513 -0.01375095
v 0.19818435 -0.24843393 -0.01381484
v 0.18661644 -0.25672047 -0.00911741
v 0.15101055 -0.26248840 0.00026467
v 0.23713752 -0.20981202 0.00075281
v 0.23713752 -0.18967155 0.00136619
v 0.18866528 -0.25534513 -0.00918642
v 0.19358079 -0.25196689 -0.00933209
v 0.19655709 -0.24979211 -0.00560840
v 0.19820121 -0.24855425 -0.00452477
v 0.19810003 -0.24849410 -0.00228339
v 0.19164156 -0.25333364 -0.00928353
v 0.20003083 -0.24704997 -0.00225017
v 0.20254340 -0.24511586 -0.00221439
v 0.20230732 -0.24496973 -0.00103364
v 0.21084835 -0.23802414 -0.00079596
v 0.21505562 -0.23449978 -0.00064262
v 0.21664916 -0.23242814 -0.00024392
v 0.22055291 -0.22831923 0.00000398
v 0.22878197 -0.22079772 0.00003465
v 0.23713752 -0.21190085 0.00026978
v 0.16230865 -0.26400990 -0.02358028
v 0.17418853 -0.25671188 -0.02375662
v 0.18960960 -0.24836515 -0.02370295
v 0.20137986 -0.24052558 -0.02366717
v 0.19750140 -0.24424766 -0.02344994
v 0.20079809 -0.24353418 -0.02279056
v 0.19276294 -0.25009294 -0.02244554
v 0.19658238 -0.24709293 -0.02255799
v 0.19927199 -0.24544251 -0.02237142
v 0.15101055 -0.27210735 -0.02319948
v 0.15463606 -0.26807582 -0.02346016
v 0.20258555 -0.24499551 -0.01390940
v 0.20032593 -0.24676629 -0.01386595
v 0.20585694 -0.24053419 -0.02202895
v 0.20782988 -0.23934793 -0.02120345
v 0.21043520 -0.23719893 -0.02110378
v 0.21245875 -0.23541955 -0.02112678
v 0.21300679 -0.23587515 -0.01808546
v 0.21099167 -0.23763732 -0.01806757
v 0.20891754 -0.23979492 -0.01393496
v 0.20695303 -0.24144536 -0.01392729
v 0.20451634 -0.24343963 -0.01391451
v 0.19628728 -0.25000698 -0.00934743
v 0.20026691 -0.24698979 -0.00935509
v 0.19825180 -0.24853707 -0.00934487
v 0.15101055 -0.25841388 0.00020844
v 0.23713752 -0.18967155 -0.02362373
v 0.23509710 -0.18967155 0.00122562
v 0.15101055 -0.25772620 0.00017266
v 0.19827709 -0.24857147 -0.00706261
v 0.19976946 -0.24738520 -0.00551128
v 0.20264457 -0.24515884 -0.00505891
v 0.20450791 -0.24355138 -0.00219139
v 0.20884166 -0.24000123 -0.00212749
v 0.21113501 -0.23809291 -0.00206616
v 0.21309109 -0.23643388 -0.00200737
v 0.21524955 -0.23451696 -0.00195626
v 0.21718034 -0.23275479 -0.00191026
v 0.22126115 -0.22880062 -0.00103109
v 0.22932158 -0.22115016 -0.00085730
v 0.23134512 -0.21908712 -0.00056594
v 0.23713752 -0.21265730 0.00004999
v 0.15832902 -0.26348554 -0.02364417
v 0.16611122 -0.26002994 -0.02371318
v 0.19752670 -0.24066312 -0.02389719
v 0.19363981 -0.24448835 -0.02381541
v 0.16995596 -0.25612736 -0.02379496
v 0.23713752 -0.19514721 -0.02473291
v 0.20123652 -0.23668317 -0.02396875
v 0.20526673 -0.23672615 -0.02379496
v 0.20878265 -0.23605565 -0.02325315
v 0.20495478 -0.23987228 -0.02295157
v 0.20355516 -0.24187515 -0.02250432
v 0.15101055 -0.26768041 -0.02349594
v 0.20265300 -0.24513305 -0.00933720
v 0.20998834 -0.23686368 -0.02226663
v 0.21407758 -0.23321037 -0.02230241
v 0.21449071 -0.23358000 -0.02112934
v 0.21503876 -0.23402700 -0.01807268
v 0.21723935 -0.23245393 -0.01395285
v 0.21320914 -0.23609863 -0.01396563
v 0.21118560 -0.23786082 -0.01395541
v 0.20896813 -0.23995825 -0.00929631
v 0.21125304 -0.23802414 -0.00934232
v 0.20700361 -0.24159149 -0.00927842
v 0.20458380 -0.24356857 -0.00929376
v 0.23676653 -0.18967155 -0.02352916
v 0.23713752 -0.19230193 -0.02425499
v 0.15101055 -0.25950560 -0.02296435
v 0.23324219 -0.18967155 0.00078604
v 0.15101055 -0.25570614 -0.00041771
v 0.20456693 -0.24361155 -0.00498224
v 0.20698675 -0.24164306 -0.00493368
v 0.20893440 -0.24003562 -0.00493113
v 0.21119403 -0.23811011 -0.00493880
v 0.21320071 -0.23636511 -0.00493624
v 0.21530856 -0.23446539 -0.00495413
v 0.21728151 -0.23267743 -0.00496946
v 0.22957453 -0.22109859 -0.00607865
v 0.22938061 -0.22115875 -0.00201760
v 0.23349514 -0.21715302 -0.00234984
v 0.23336023 -0.21717880 -0.00080107
v 0.23335180 -0.21717880 -0.00071929
v 0.23475142 -0.21554556 -0.00043305
v 0.23713752 -0.21340515 -0.00154479
v 0.15426508 -0.26298698 -0.02363906
v 0.23713752 -0.19996098 -0.02453357
v 0.15101055 -0.26282366 -0.02355728
v 0.15101055 -0.26205002 -0.02350361
v 0.23647144 -0.20547102 -0.02400964
v 0.22052762 -0.22473470 -0.02347038
v 0.21179267 -0.23489519 -0.02251965
v 0.20818401 -0.23798975 -0.02254265
v 0.21965075 -0.22751982 -0.02265510
v 0.21572171 -0.23125908 -0.02257588
v 0.21795602 -0.22961724 -0.02235864
v 0.21850408 -0.22992669 -0.02108589
v 0.22102507 -0.22854273 -0.01793212
v 0.21933035 -0.23051122 -0.01390940
v 0.21733211 -0.23258286 -0.00943177
v 0.21536758 -0.23438803 -0.00940621
v 0.21326816 -0.23627056 -0.00937043
v 0.23638711 -0.18967155 -0.02343205
v 0.15101055 -0.25865460 -0.02248387
v 0.23195219 -0.18967155 0.00022633
v 0.15101055 -0.25512163 -0.00215050
v 0.22751726 -0.22303269 -0.00946243
v 0.22961669 -0.22102982 -0.00953400
v 0.23158120 -0.21912151 -0.00955700
v 0.23365533 -0.21711003 -0.00521481
v 0.23713752 -0.21343094 -0.00167002
v 0.23713752 -0.20479193 -0.02400709
v 0.22452411 -0.22086650 -0.02344738
v 0.22372312 -0.22355705 -0.02270111
v 0.22209585 -0.22570606 -0.02236375
v 0.22043487 -0.22816451 -0.02101433
v 0.22262704 -0.22612725 -0.02096066
v 0.22316665 -0.22653127 -0.01788867
v 0.22336900 -0.22672898 -0.01387618
v 0.22123586 -0.22873185 -0.01387873
v 0.23538378 -0.18967155 -0.02251198
v 0.15101055 -0.25800988 -0.02208262
v 0.23141258 -0.18967155 -0.00129688
v 0.15101055 -0.25507864 -0.00242140
v 0.22739922 -0.22290375 -0.01389407
v 0.22535883 -0.22484645 -0.01387618
v 0.22950707 -0.22086650 -0.01390174
v 0.23138727 -0.21900115 -0.01385318
v 0.23365533 -0.21704987 -0.00954422
v 0.23544279 -0.21524470 -0.00506914
v 0.23713752 -0.21344813 -0.00216072
v 0.23713752 -0.20884926 -0.02295668
v 0.23647985 -0.20923608 -0.02306913
v 0.22868080 -0.21692092 -0.02331959
v 0.22784608 -0.21962867 -0.02264233
v 0.22605019 -0.22184643 -0.02239698
v 0.22658981 -0.22227623 -0.02099133
v 0.22713784 -0.22270605 -0.01787845
v 0.23460808 -0.18967155 -0.02138235
v 0.15101055 -0.25704714 -0.02082265
v 0.15101055 -0.25668610 -0.02030895
v 0.23130297 -0.18967155 -0.00209427
v 0.15101055 -0.25501846 -0.00316512
v 0.22926256 -0.22061720 -0.01789123
v 0.23342768 -0.21693812 -0.01377139
v 0.23541750 -0.21520172 -0.00937298
v 0.23713752 -0.21344813 -0.00556495
v 0.23713752 -0.21345673 -0.00493113
v 0.23713752 -0.21025041 -0.02200595
v 0.23506338 -0.21190085 -0.02263210
v 0.23120180 -0.21613868 -0.02260655
v 0.23009728 -0.21787508 -0.02233564
v 0.22873138 -0.22012724 -0.02102199
v 0.23389985 -0.18967155 -0.01986936
v 0.15101055 -0.25556860 -0.01745420
v 0.23191003 -0.18967155 -0.01407552
v 0.15101055 -0.25476059 -0.00964389
v 0.15101055 -0.25481218 -0.00680192
v 0.15101055 -0.25483795 -0.00574641
v 0.23105002 -0.21878626 -0.01785545
v 0.23307357 -0.21668882 -0.01779155
v 0.23518142 -0.21508138 -0.01359505
v 0.23713752 -0.21337076 -0.00920686
v 0.23713752 -0.21049970 -0.02168904
v 0.23369748 -0.21396390 -0.02223852
v 0.23268572 -0.21575186 -0.02124945
v 0.23049356 -0.21829628 -0.02102966
v 0.23332651 -0.18967155 -0.01835637
v 0.15101055 -0.25554282 -0.01738519
v 0.15101055 -0.25500127 -0.01368705
v 0.23431298 -0.21441947 -0.02050063
v 0.23481043 -0.21481490 -0.01766121
v 0.23713752 -0.21298394 -0.01341615
v 0.23713752 -0.21120457 -0.02050829
v 0.23713752 -0.21205557 -0.01815191
v 0.23713752 -0.21227048 -0.01747209
f 1 2 3
f 1 3 4
f 1 4 5
f 1 5 12
f 1 12 21
f 1 21 40
f 1 40 66
f 1 66 68
f 1 68 94
f 1 94 127
f 1 127 171
f 1 171 214
f 1 214 217
f 1 217 259
f 1 259 294
f 1 294 312
f 1 312 331
f 1 331 347
f 1 347 346
f 1 346 345
f 1 345 358
f 1 358 357
f 1 357 343
f 1 343 329
f 1 329 328
f 1 328 310
f 1 310 292
f 1 292 257
f 1 257 277
f 1 277 276
f 1 276 242
f 1 242 198
f 1 198 151
f 1 151 110
f 1 110 109
f 1 109 89
f 1 89 56
f 1 56 30
f 1 30 27
f 1 27 14
f 1 14 6
f 1 6 2
f 2 6 3
f 3 6 7
f 3 7 8
f 3 8 4
f 4 8 9
f 4 9 10
f 4 10 11
f 4 11 5
f 5 11 13
f 5 13 12
f 6 14 7
f 7 15 8
f 7 14 16
f 7 16 17
f 7 17 15
f 8 15 9
f 9 15 18
f 9 18 19
f 9 19 10
f 10 19 20
f 10 20 11
f 11 20 13
f 12 13 22
f 12 22 21
f 13 20 23
f 13 23 24
f 13 24 25
f 13 25 26
f 13 26 22
f 14 27 16
f 15 17 28
f 15 28 29
f 15 29 18
f 16 27 30
f 16 30 31
f 16 31 32
f 16 32 17
f 17 32 28
f 18 29 33
f 18 33 34
f 18 34 19
f 19 34 20
f 20 35 36
f 20 36 37
f 20 37 38
f 20 38 39
f 20 39 23
f 20 34 35
f 21 22 40
f 22 41 42
f 22 42 40
f 22 26 43
f 22 43 41
f 23 39 38
f 23 38 24
f 24 38 44
f 24 44 25
f 25 44 45
f 25 45 46
f 25 46 26
f 26 46 47
f 26 47 43
f 28 48 49
f 28 49 29
f 28 32 50
f 28 50 51
f 28 51 52
f 28 52 53
f 28 53 54
f 28 54 55
f 28 55 48
f 29 49 33
f 30 56 57
f 30 57 31
f 31 57 58
f 31 58 32
f 32 58 50
f 33 49 59
f 33 59 34
f 34 59 60
f 34 60 35
f 35 60 36
f 36 60 61
f 36 61 37
f 37 61 62
f 37 62 63
f 37 63 38
f 38 63 64
f 38 64 44
f 40 42 65
f 40 65 66
f 41 66 65
f 41 65 42
f 41 43 66
f 43 67 68
f 43 68 66
f 43 47 67
f 44 64 69
f 44 69 45
f 45 69 70
f 45 70 71
f 45 71 46
f 46 71 47
f 47 71 72
f 47 72 73
f 47 73 67
f 48 60 59
f 48 59 49
f 48 55 61
f 48 61 60
f 50 58 51
f 51 74 75
f 51 75 76
f 51 76 52
f 51 58 77
f 51 77 78
f 51 78 79
f 51 79 80
f 51 80 74
f 52 76 81
f 52 81 53
f 53 82 83
f 53 83 54
f 53 81 84
f 53 84 85
f 53 85 86
f 53 86 82
f 54 83 87
f 54 87 62
f 54 62 61
f 54 61 88
f 54 88 55
f 55 88 61
f 56 89 57
f 57 89 77
f 57 77 58
f 62 87 63
f 63 87 90
f 63 90 64
f 64 91 69
f 64 90 91
f 67 92 68
f 67 73 93
f 67 93 92
f 68 92 94
f 69 91 95
f 69 95 70
f 70 95 96
f 70 96 71
f 71 96 97
f 71 97 72
f 72 97 98
f 72 98 73
f 73 98 99
f 73 99 100
f 73 100 93
f 74 80 101
f 74 101 102
f 74 102 103
f 74 103 104
f 74 104 75
f 75 104 105
f 75 105 106
f 75 106 76
f 76 107 84
f 76 84 81
f 76 106 108
f 76 108 107
f 77 89 78
f 78 89 109
f 78 109 110
f 78 110 111
f 78 111 80
f 78 80 79
f 80 111 112
f 80 112 101
f 82 86 113
f 82 113 114
f 82 114 83
f 83 115 87
f 83 114 115
f 84 107 85
f 85 116 108
f 85 108 117
f 85 117 118
f 85 118 119
f 85 119 120
f 85 120 121
f 85 121 122
f 85 122 86
f 85 107 116
f 86 122 123
f 86 123 113
f 87 115 124
f 87 124 125
f 87 125 90
f 90 125 91
f 91 125 124
f 91 124 126
f 91 126 95
f 92 127 94
f 92 93 128
f 92 128 129
f 92 129 130
f 92 130 131
f 92 131 127
f 93 100 128
f 95 132 133
f 95 133 134
f 95 134 135
f 95 135 97
f 95 97 96
f 95 126 132
f 97 135 136
f 97 136 98
f 98 136 137
f 98 137 99
f 99 137 138
f 99 138 100
f 100 138 139
f 100 139 140
f 100 140 141
f 100 141 128
f 101 112 102
f 102 112 142
f 102 142 143
f 102 143 144
f 102 144 145
f 102 145 103
f 103 145 146
f 103 146 147
f 103 147 148
f 103 148 104
f 104 148 105
f 105 148 149
f 105 149 106
f 106 149 108
f 107 108 116
f 108 149 150
f 108 150 117
f 110 151 111
f 111 151 152
f 111 152 112
f 112 152 142
f 113 123 114
f 114 123 122
f 114 122 153
f 114 153 154
f 114 154 155
f 114 155 156
f 114 156 115
f 115 156 124
f 117 150 118
f 118 150 157
f 118 157 119
f 119 158 159
f 119 159 160
f 119 160 120
f 119 157 161
f 119 161 162
f 119 162 163
f 119 163 164
f 119 164 165
f 119 165 166
f 119 166 158
f 120 167 168
f 120 168 121
f 120 160 169
f 120 169 167
f 121 168 153
f 121 153 122
f 124 156 170
f 124 170 126
f 126 170 132
f 127 131 171
f 128 141 172
f 128 172 129
f 129 172 141
f 129 141 188
f 129 188 230
f 129 230 273
f 129 273 299
f 129 299 319
f 129 319 336
f 129 336 335
f 129 335 351
f 129 351 361
f 129 361 364
f 129 364 363
f 129 363 362
f 129 362 352
f 129 352 337
f 129 337 320
f 129 320 300
f 129 300 275
f 129 275 236
f 129 236 256
f 129 256 215
f 129 215 173
f 129 173 131
f 129 131 130
f 131 173 171
f 132 170 174
f 132 174 133
f 133 175 176
f 133 176 177
f 133 177 178
f 133 178 134
f 133 174 179
f 133 179 175
f 134 178 135
f 135 178 180
f 135 180 181
f 135 181 182
f 135 182 136
f 136 182 137
f 137 182 138
f 138 183 139
f 138 182 183
f 139 184 185
f 139 185 140
f 139 183 184
f 140 185 186
f 140 186 187
f 140 187 141
f 141 187 188
f 142 152 143
f 143 152 189
f 143 189 190
f 143 190 191
f 143 191 144
f 144 191 145
f 145 191 192
f 145 192 193
f 145 193 146
f 146 193 194
f 146 194 147
f 147 195 148
f 147 194 196
f 147 196 195
f 148 195 149
f 149 195 150
f 150 197 162
f 150 162 157
f 150 195 197
f 151 198 152
f 152 198 199
f 152 199 189
f 153 168 179
f 153 179 174
f 153 174 154
f 154 174 170
f 154 170 155
f 155 170 156
f 157 162 161
f 158 200 159
f 158 166 200
f 159 200 160
f 160 200 201
f 160 201 169
f 162 202 163
f 162 197 202
f 163 202 164
f 164 202 203
f 164 203 204
f 164 204 205
f 164 205 206
f 164 206 207
f 164 207 165
f 165 207 208
f 165 208 209
f 165 209 210
f 165 210 166
f 166 210 200
f 167 211 168
f 167 169 211
f 168 211 175
f 168 175 179
f 169 201 212
f 169 212 213
f 169 213 211
f 171 173 214
f 173 215 255
f 173 255 291
f 173 291 309
f 173 309 327
f 173 327 342
f 173 342 356
f 173 356 344
f 173 344 330
f 173 330 311
f 173 311 293
f 173 293 258
f 173 258 216
f 173 216 217
f 173 217 214
f 175 211 218
f 175 218 176
f 176 218 177
f 177 218 219
f 177 219 220
f 177 220 181
f 177 181 180
f 177 180 178
f 181 220 221
f 181 221 182
f 182 221 183
f 183 221 222
f 183 222 223
f 183 223 184
f 184 223 224
f 184 224 225
f 184 225 226
f 184 226 227
f 184 227 228
f 184 228 229
f 184 229 187
f 184 187 185
f 185 187 186
f 187 229 230
f 187 230 188
f 189 231 232
f 189 232 190
f 189 199 231
f 190 233 234
f 190 234 191
f 190 232 235
f 190 235 236
f 190 236 237
f 190 237 233
f 191 234 238
f 191 238 192
f 192 238 239
f 192 239 193
f 193 239 240
f 193 240 194
f 194 240 241
f 194 241 197
f 194 197 196
f 195 196 197
f 197 241 202
f 198 242 199
f 199 242 231
f 200 243 201
f 200 210 243
f 201 243 212
f 202 241 244
f 202 244 204
f 202 204 203
f 204 244 205
f 205 244 245
f 205 245 246
f 205 246 206
f 206 246 247
f 206 247 248
f 206 248 249
f 206 249 207
f 207 249 250
f 207 250 208
f 208 251 209
f 208 250 252
f 208 252 251
f 209 251 253
f 209 253 210
f 210 253 254
f 210 254 243
f 211 213 218
f 212 243 218
f 212 218 213
f 215 256 257
f 215 257 255
f 216 258 217
f 217 258 259
f 218 243 220
f 218 220 219
f 220 243 260
f 220 260 221
f 221 260 261
f 221 261 222
f 222 261 262
f 222 262 223
f 223 262 224
f 224 262 263
f 224 263 264
f 224 264 225
f 225 264 265
f 225 265 266
f 225 266 226
f 226 266 267
f 226 267 268
f 226 268 228
f 226 228 227
f 228 268 269
f 228 269 270
f 228 270 271
f 228 271 229
f 229 271 272
f 229 272 230
f 230 272 273
f 231 242 274
f 231 274 235
f 231 235 232
f 233 237 238
f 233 238 234
f 235 274 236
f 236 275 237
f 236 274 276
f 236 276 277
f 236 277 256
f 237 275 238
f 238 275 278
f 238 278 279
f 238 279 239
f 239 280 281
f 239 281 240
f 239 279 282
f 239 282 283
f 239 283 280
f 240 281 241
f 241 281 244
f 242 276 274
f 243 254 260
f 244 281 280
f 244 280 245
f 245 283 284
f 245 284 246
f 245 280 283
f 246 284 285
f 246 285 247
f 247 285 286
f 247 286 248
f 248 287 288
f 248 288 289
f 248 289 249
f 248 286 287
f 249 289 290
f 249 290 250
f 250 290 252
f 251 262 253
f 251 252 262
f 252 290 264
f 252 264 263
f 252 263 262
f 253 262 261
f 253 261 254
f 254 261 260
f 255 257 291
f 256 277 257
f 257 292 291
f 258 293 259
f 259 293 294
f 264 290 289
f 264 289 265
f 265 289 266
f 266 289 288
f 266 288 295
f 266 295 267
f 267 295 296
f 267 296 297
f 267 297 298
f 267 298 268
f 268 298 269
f 269 298 299
f 269 299 270
f 270 299 271
f 271 299 273
f 271 273 272
f 275 300 278
f 278 300 301
f 278 301 279
f 279 301 302
f 279 302 282
f 282 303 284
f 282 284 283
f 282 302 303
f 284 303 304
f 284 304 285
f 285 304 286
f 286 304 305
f 286 305 306
f 286 306 307
f 286 307 308
f 286 308 287
f 287 308 288
f 288 308 295
f 291 292 310
f 291 310 309
f 293 311 294
f 294 311 312
f 295 313 296
f 295 308 307
f 295 307 314
f 295 314 313
f 296 315 297
f 296 313 315
f 297 315 316
f 297 316 317
f 297 317 298
f 298 317 318
f 298 318 319
f 298 319 299
f 300 320 321
f 300 321 322
f 300 322 301
f 301 322 323
f 301 323 302
f 302 323 324
f 302 324 303
f 303 305 304
f 303 324 325
f 303 325 305
f 305 325 326
f 305 326 306
f 306 314 307
f 306 326 313
f 306 313 314
f 309 310 328
f 309 328 329
f 309 329 327
f 311 330 312
f 312 330 331
f 313 326 315
f 315 332 316
f 315 326 332
f 316 333 317
f 316 332 333
f 317 333 334
f 317 334 318
f 318 334 335
f 318 335 336
f 318 336 319
f 320 337 338
f 320 338 339
f 320 339 322
f 320 322 321
f 322 339 323
f 323 339 340
f 323 340 324
f 324 340 325
f 325 340 341
f 325 341 332
f 325 332 326
f 327 329 343
f 327 343 342
f 330 344 345
f 330 345 346
f 330 346 347
f 330 347 331
f 332 341 348
f 332 348 333
f 333 348 349
f 333 349 350
f 333 350 334
f 334 350 351
f 334 351 335
f 337 352 353
f 337 353 338
f 338 353 340
f 338 340 339
f 340 353 354
f 340 354 355
f 340 355 341
f 341 355 348
f 342 343 357
f 342 357 356
f 344 356 357
f 344 357 358
f 344 358 345
f 348 355 349
f 349 355 359
f 349 359 360
f 349 360 361
f 349 361 350
f 350 361 351
f 352 362 359
f 352 359 354
f 352 354 353
f 354 359 355
f 359 363 360
f 359 362 363
f 360 363 364
f 360 364 361

