# https://github.com/mikedh/trimesh
v 0.30266617 -0.29441046 -0.02390456
v 0.30279465 -0.29509812 -0.02390170
v 0.29917120 -0.29441046 -0.02366151
v 0.30599839 -0.29441046 -0.02375301
v 0.34971130 -0.30759848 -0.02367295
v 0.34559100 -0.30734959 -0.02377589
v 0.33736751 -0.30681910 -0.02380448
v 0.29922258 -0.29475538 -0.02361576
v 0.33342710 -0.30688461 -0.02378733
v 0.32970085 -0.30692825 -0.02375301
v 0.31822226 -0.30307947 -0.02377017
v 0.31872764 -0.30549615 -0.02349281
v 0.29851159 -0.29441046 -0.02356715
v 0.30866246 -0.29441046 -0.02349852
v 0.35684689 -0.30811805 -0.02328978
v 0.35390870 -0.30787136 -0.02347851
v 0.35403718 -0.30930782 -0.02332696
v 0.35016530 -0.31009155 -0.02338701
v 0.34580517 -0.31023127 -0.02345277
v 0.34193326 -0.30983833 -0.02353284
v 0.30075594 -0.29685768 -0.02326405
v 0.31510418 -0.30452031 -0.02328978
v 0.33789005 -0.30968331 -0.02352140
v 0.33010345 -0.30912881 -0.02351282
v 0.32601743 -0.30685621 -0.02367867
v 0.32259096 -0.30673833 -0.02354713
v 0.32416713 -0.30832981 -0.02340702
v 0.29707248 -0.29441046 -0.02267786
v 0.30956190 -0.29441046 -0.02254061
v 0.37277131 -0.30090077 -0.00724828
v 0.37111803 -0.30136357 -0.00905546
v 0.37062122 -0.30334364 -0.01325884
v 0.36643238 -0.30611179 -0.01943525
v 0.36989307 -0.30746747 -0.01998426
v 0.36655229 -0.30722079 -0.02073058
v 0.36991023 -0.30837348 -0.02003287
v 0.35688970 -0.30873149 -0.02322688
v 0.35176717 -0.31133156 -0.02308962
v 0.34901744 -0.31155205 -0.02314681
v 0.34712433 -0.31163501 -0.02316111
v 0.30014774 -0.29733140 -0.02152551
v 0.29807474 -0.29583600 -0.02166276
v 0.31321964 -0.30400731 -0.02314681
v 0.30545872 -0.30015415 -0.02292663
v 0.33393251 -0.30944754 -0.02350710
v 0.34454592 -0.31165028 -0.02312394
v 0.32631723 -0.30866819 -0.02346993
v 0.34213887 -0.31157386 -0.02297810
v 0.33817273 -0.31138394 -0.02253203
v 0.33035187 -0.31038191 -0.02194012
v 0.32641146 -0.30946502 -0.02210883
v 0.32283938 -0.30847827 -0.02207452
v 0.32172580 -0.30776222 -0.02282369
v 0.29625870 -0.29441046 -0.02167992
v 0.30999021 -0.29441046 -0.02174854
v 0.37296833 -0.30059732 -0.00457470
v 0.37391915 -0.30267779 -0.00964450
v 0.37375642 -0.30443518 -0.01325026
v 0.37276275 -0.30552890 -0.01559215
v 0.37086105 -0.30679291 -0.01858599
v 0.37341377 -0.30689114 -0.01639566
v 0.37349086 -0.30869003 -0.01635276
v 0.37615491 -0.31138394 -0.01155747
v 0.36354560 -0.31077924 -0.01954963
v 0.36657798 -0.30898692 -0.02079921
v 0.35822602 -0.30970079 -0.02256634
v 0.35411428 -0.31084910 -0.02292949
v 0.35029381 -0.31219607 -0.02167706
v 0.35809754 -0.31160661 -0.02077061
v 0.35417425 -0.31211747 -0.02112232
v 0.34595934 -0.31229865 -0.02173996
v 0.29815181 -0.30015415 -0.01095699
v 0.29332911 -0.29652586 -0.01172904
v 0.30300882 -0.29924379 -0.02137395
v 0.31250009 -0.30429982 -0.02165990
v 0.31052988 -0.30336330 -0.02151121
v 0.31919021 -0.30712038 -0.02200303
v 0.31518985 -0.30546342 -0.02186864
v 0.30741181 -0.30178709 -0.02139683
v 0.30490193 -0.30500059 -0.00868373
v 0.30353133 -0.30381518 -0.00980177
v 0.30494475 -0.30042923 -0.02134822
v 0.29959092 -0.30147928 -0.00980749
v 0.34224165 -0.31236198 -0.02129961
v 0.33831837 -0.31214583 -0.02093074
v 0.33578280 -0.31194935 -0.02052470
v 0.33434370 -0.31119619 -0.02165990
v 0.33103717 -0.31462802 -0.00999907
v 0.33490905 -0.31543138 -0.00999907
v 0.32455260 -0.31236851 -0.01156033
v 0.32698537 -0.31356484 -0.00992759
v 0.32062075 -0.30808312 -0.02120525
v 0.29018535 -0.29441046 -0.01075397
v 0.31571236 -0.29441046 -0.00509512
v 0.37295120 -0.30058422 -0.00216991
v 0.37517837 -0.30441770 -0.01013061
v 0.31602075 -0.29441046 -0.00393704
v 0.37516980 -0.30483251 -0.01223516
v 0.37484431 -0.30685621 -0.01439404
v 0.37615491 -0.30988415 -0.01268409
v 0.37660894 -0.31047796 -0.01025070
v 0.37633479 -0.31202795 -0.00987326
v 0.37420185 -0.31308895 -0.00969025
v 0.36066736 -0.31118092 -0.02041032
v 0.34786960 -0.31643779 -0.01132872
v 0.35439696 -0.31619110 -0.01126867
v 0.37013293 -0.31423069 -0.00951583
v 0.36853963 -0.31497511 -0.00867229
v 0.36624392 -0.31479610 -0.01011631
v 0.35789193 -0.31590292 -0.01114285
v 0.29748367 -0.30049253 -0.00873806
v 0.29594177 -0.29904077 -0.00987898
v 0.29291792 -0.29687078 -0.00992473
v 0.29091346 -0.29532079 -0.00994760
v 0.31330530 -0.30834726 -0.01079686
v 0.31111236 -0.30774691 -0.00953012
v 0.30710341 -0.30579525 -0.00963306
v 0.30468776 -0.30512722 -0.00598155
v 0.30278609 -0.30405533 -0.00603016
v 0.31244868 -0.30869656 -0.00843781
v 0.30744606 -0.30661173 -0.00585573
v 0.34546252 -0.31642034 -0.01080258
v 0.33875524 -0.31600992 -0.01000193
v 0.33102002 -0.31481358 -0.00629037
v 0.32702822 -0.31387921 -0.00621602
v 0.33489193 -0.31553617 -0.00630181
v 0.32318203 -0.31246677 -0.00959017
v 0.32195707 -0.31182711 -0.01052807
v 0.32069785 -0.31199520 -0.00825481
v 0.31917308 -0.31115473 -0.00940431
v 0.31477866 -0.30937550 -0.00955872
v 0.28979129 -0.29441046 -0.00995618
v 0.37244579 -0.30142690 0.00348322
v 0.37361934 -0.30240056 -0.00133209
v 0.37496422 -0.30478230 -0.00401425
v 0.37510130 -0.30440899 -0.00691945
v 0.31590084 -0.29441046 -0.00226427
v 0.31578946 -0.29441046 -0.00155227
v 0.31500140 -0.29441046 0.00013481
v 0.31384497 -0.29441046 0.00173324
v 0.31321108 -0.29441046 0.00239377
v 0.31213175 -0.29441046 0.00328878
v 0.37588079 -0.30725572 -0.01035936
v 0.37563237 -0.30699593 -0.01295002
v 0.37628341 -0.31070064 -0.00683938
v 0.37615491 -0.31206288 -0.00694232
v 0.37424467 -0.31301252 -0.00687942
v 0.36854819 -0.31498167 -0.00846069
v 0.35437127 -0.31661244 -0.00983608
v 0.35019099 -0.31663427 -0.00991615
v 0.34643906 -0.31664301 -0.00990471
v 0.35790053 -0.31636575 -0.00975030
v 0.29981365 -0.30223244 -0.00607877
v 0.29732947 -0.30059514 -0.00611308
v 0.29539354 -0.29927218 -0.00615026
v 0.29255815 -0.29719171 -0.00620745
v 0.29051084 -0.29558931 -0.00625034
v 0.28945720 -0.29441046 -0.00827769
v 0.30497047 -0.30503117 -0.00264743
v 0.29745798 -0.30052528 -0.00310495
v 0.31506990 -0.31004788 -0.00576709
v 0.31215744 -0.30880791 -0.00572706
v 0.31026433 -0.30797397 -0.00573564
v 0.31070120 -0.30777531 -0.00188682
v 0.34352656 -0.31662335 -0.00897825
v 0.34240442 -0.31637449 -0.00994474
v 0.33872955 -0.31607757 -0.00629323
v 0.33088297 -0.31423505 -0.00168666
v 0.32693399 -0.31336836 -0.00173241
v 0.32300214 -0.31275710 -0.00606447
v 0.32061219 -0.31189041 -0.00320217
v 0.33871240 -0.31548596 -0.00155513
v 0.33482339 -0.31494239 -0.00161231
v 0.32049227 -0.31198210 -0.00595581
v 0.31851350 -0.31132938 -0.00586145
v 0.37234300 -0.30157315 0.00424669
v 0.37480146 -0.30581490 -0.00210128
v 0.37522121 -0.30813550 -0.00239008
v 0.37309681 -0.30271272 0.00214786
v 0.30987883 -0.29441046 0.00373485
v 0.37557243 -0.31025093 -0.00292194
v 0.37588936 -0.31159352 -0.00472339
v 0.37287410 -0.31120057 -0.00025122
v 0.37044989 -0.31094297 0.00268544
v 0.37021859 -0.31421542 -0.00710531
v 0.36629530 -0.31483539 -0.00619887
v 0.36187520 -0.31541610 -0.00518090
v 0.35949380 -0.31571082 -0.00458042
v 0.35812323 -0.31621511 -0.00611594
v 0.36625249 -0.31525893 -0.00800318
v 0.35395155 -0.31652292 -0.00602158
v 0.35004539 -0.31666046 -0.00652198
v 0.34604500 -0.31671066 -0.00705670
v 0.36186663 -0.31577850 -0.00708816
v 0.29277229 -0.29704979 -0.00191541
v 0.29075070 -0.29551289 -0.00191827
v 0.28940582 -0.29441046 -0.00191256
v 0.28926875 -0.29441046 -0.00370257
v 0.28910602 -0.29441046 -0.00627035
v 0.30711197 -0.30595680 -0.00149508
v 0.30557008 -0.30481503 0.00018342
v 0.30366840 -0.30408370 -0.00146648
v 0.29946244 -0.30158843 -0.00170096
v 0.29788626 -0.30027859 -0.00014828
v 0.29602743 -0.29931803 -0.00174099
v 0.31516413 -0.30967239 -0.00183535
v 0.31313398 -0.30833637 0.00023203
v 0.34350087 -0.31662771 -0.00796601
v 0.34233588 -0.31642905 -0.00635614
v 0.32680549 -0.31266322 0.00105269
v 0.32425280 -0.31220042 0.00076389
v 0.32164014 -0.31173541 -0.00023978
v 0.32297645 -0.31233140 -0.00172669
v 0.31921593 -0.31120057 -0.00174671
v 0.34239582 -0.31581125 -0.00152081
v 0.33860104 -0.31411498 0.00183332
v 0.33467775 -0.31375697 0.00163030
v 0.33069452 -0.31326357 0.00137295
v 0.37057837 -0.30142034 0.00429244
v 0.37044133 -0.30313624 0.00472136
v 0.37033851 -0.30643708 0.00530755
v 0.37248004 -0.30328470 0.00440682
v 0.37429608 -0.30725572 0.00148447
v 0.30916784 -0.29441046 0.00386639
v 0.37498991 -0.30904804 -0.00036845
v 0.37501563 -0.30924670 -0.00039133
v 0.37267706 -0.30896508 0.00447831
v 0.37034707 -0.30936458 0.00475568
v 0.36625249 -0.31133373 0.00348894
v 0.35795191 -0.31528948 -0.00230144
v 0.36184951 -0.31446211 -0.00226141
v 0.35700109 -0.31600992 -0.00410575
v 0.35491093 -0.31618018 -0.00395706
v 0.34991688 -0.31637884 -0.00422299
v 0.34595934 -0.31648581 -0.00472339
v 0.29322629 -0.29675507 0.00071528
v 0.28985982 -0.29441046 -0.00062009
v 0.30801144 -0.30565117 0.00077818
v 0.30041329 -0.30130027 0.00096119
v 0.31516413 -0.30880573 0.00078390
v 0.32652281 -0.31163719 0.00209353
v 0.32271090 -0.31111541 0.00146445
v 0.31873620 -0.30958726 0.00161028
v 0.34231875 -0.31427436 0.00198201
v 0.34591652 -0.31591384 -0.00152081
v 0.33844684 -0.31286845 0.00296852
v 0.33449787 -0.31255843 0.00274262
v 0.34224165 -0.31300817 0.00315724
v 0.33048035 -0.31214583 0.00245096
v 0.36639812 -0.30116055 0.00434391
v 0.30653805 -0.29441046 0.00391786
v 0.36646663 -0.30650038 0.00524464
v 0.36637240 -0.30977283 0.00475568
v 0.37277988 -0.30659643 0.00463558
v 0.30659803 -0.29499989 0.00397791
v 0.36180666 -0.31173106 0.00390356
v 0.35370312 -0.31383336 0.00223364
v 0.35364315 -0.31571738 -0.00202121
v 0.34983122 -0.31581996 -0.00156656
v 0.29445982 -0.29622459 0.00210211
v 0.29118758 -0.29441046 0.00154738
v 0.29110191 -0.29441046 0.00147589
v 0.30338573 -0.30227829 0.00163316
v 0.31145501 -0.30670778 0.00131862
v 0.30974179 -0.30489798 0.00245096
v 0.30194662 -0.30051872 0.00246812
v 0.29675555 -0.29728120 0.00244238
v 0.31729710 -0.30825995 0.00242808
v 0.31495855 -0.30766614 0.00196200
v 0.32220549 -0.30949995 0.00275978
v 0.31959283 -0.30892141 0.00260823
v 0.34984837 -0.31411280 0.00219933
v 0.34624201 -0.31400366 0.00237376
v 0.34778394 -0.31300378 0.00345749
v 0.34516268 -0.31301909 0.00330594
v 0.33427516 -0.31067227 0.00337742
v 0.33021480 -0.31042776 0.00318298
v 0.32611165 -0.31008281 0.00296852
v 0.30282894 -0.29441046 0.00363763
v 0.31036712 -0.29911281 0.00394931
v 0.31777682 -0.30309695 0.00384637
v 0.36202083 -0.31020726 0.00462414
v 0.35599883 -0.31234450 0.00385209
v 0.35867146 -0.31202142 0.00390642
v 0.30285463 -0.29504574 0.00361190
v 0.30664084 -0.29920886 0.00360046
v 0.35377163 -0.31259118 0.00374343
v 0.29266094 -0.29441046 0.00237090
v 0.31230304 -0.30571011 0.00270545
v 0.30441365 -0.30151203 0.00279409
v 0.29356038 -0.29441046 0.00258250
v 0.32180290 -0.30710072 0.00333739
v 0.31819654 -0.30723827 0.00297138
v 0.31462446 -0.30628427 0.00283985
v 0.34994260 -0.31289682 0.00355757
v 0.34999398 -0.31101718 0.00396933
v 0.33822414 -0.31087093 0.00351468
v 0.29503377 -0.29441046 0.00276550
v 0.31427325 -0.30327160 0.00358330
v 0.30298310 -0.29934204 0.00301999
v 0.30676079 -0.30220843 0.00300283
v 0.31075258 -0.30353138 0.00315439
f 1 2 3
f 1 3 13
f 1 13 28
f 1 28 54
f 1 54 93
f 1 93 132
f 1 132 158
f 1 158 199
f 1 199 198
f 1 198 197
f 1 197 237
f 1 237 262
f 1 262 261
f 1 261 288
f 1 288 291
f 1 291 298
f 1 298 279
f 1 279 251
f 1 251 224
f 1 224 180
f 1 180 142
f 1 142 141
f 1 141 140
f 1 140 139
f 1 139 138
f 1 138 137
f 1 137 97
f 1 97 94
f 1 94 55
f 1 55 29
f 1 29 14
f 1 14 4
f 1 4 5
f 1 5 6
f 1 6 7
f 1 7 2
f 2 8 3
f 2 7 9
f 2 9 10
f 2 10 11
f 2 11 12
f 2 12 8
f 3 8 13
f 4 14 15
f 4 15 16
f 4 16 5
f 5 16 17
f 5 17 18
f 5 18 19
f 5 19 6
f 6 19 20
f 6 20 7
f 7 20 9
f 8 21 13
f 8 12 22
f 8 22 21
f 9 20 23
f 9 23 10
f 10 24 25
f 10 25 11
f 10 23 24
f 11 25 26
f 11 26 12
f 12 26 27
f 12 27 22
f 13 21 28
f 14 29 30
f 14 30 31
f 14 31 32
f 14 32 33
f 14 33 34
f 14 34 35
f 14 35 15
f 15 35 34
f 15 34 36
f 15 36 37
f 15 37 16
f 16 37 17
f 17 38 18
f 17 37 38
f 18 38 39
f 18 39 19
f 19 39 40
f 19 40 20
f 20 40 23
f 21 41 42
f 21 42 28
f 21 22 43
f 21 43 44
f 21 44 41
f 22 27 43
f 23 45 24
f 23 40 46
f 23 46 45
f 24 47 25
f 24 45 46
f 24 46 48
f 24 48 47
f 25 47 26
f 26 47 27
f 27 47 49
f 27 49 50
f 27 50 51
f 27 51 52
f 27 52 53
f 27 53 43
f 28 42 54
f 29 55 56
f 29 56 30
f 30 56 57
f 30 57 58
f 30 58 32
f 30 32 31
f 32 58 59
f 32 59 60
f 32 60 33
f 33 60 34
f 34 60 61
f 34 61 36
f 36 61 62
f 36 62 63
f 36 63 64
f 36 64 65
f 36 65 37
f 37 65 66
f 37 66 67
f 37 67 38
f 38 68 39
f 38 67 69
f 38 69 70
f 38 70 68
f 39 68 40
f 40 68 71
f 40 71 46
f 41 72 73
f 41 73 42
f 41 44 74
f 41 74 72
f 42 73 54
f 43 75 76
f 43 76 44
f 43 53 77
f 43 77 78
f 43 78 75
f 44 76 79
f 44 79 80
f 44 80 81
f 44 81 82
f 44 82 83
f 44 83 74
f 46 84 48
f 46 71 84
f 47 48 49
f 48 84 85
f 48 85 49
f 49 85 86
f 49 86 87
f 49 87 50
f 50 88 51
f 50 87 86
f 50 86 89
f 50 89 88
f 51 90 52
f 51 88 91
f 51 91 90
f 52 90 92
f 52 92 53
f 53 92 77
f 54 73 93
f 55 94 56
f 56 95 96
f 56 96 57
f 56 94 97
f 56 97 95
f 57 96 98
f 57 98 58
f 58 98 59
f 59 98 61
f 59 61 60
f 61 98 99
f 61 99 100
f 61 100 62
f 62 100 63
f 63 100 101
f 63 101 102
f 63 102 103
f 63 103 64
f 64 104 65
f 64 103 104
f 65 104 67
f 65 67 66
f 67 104 69
f 68 105 71
f 68 70 106
f 68 106 105
f 69 104 107
f 69 107 108
f 69 108 109
f 69 109 110
f 69 110 70
f 70 110 106
f 71 105 84
f 72 74 83
f 72 83 111
f 72 111 112
f 72 112 73
f 73 112 113
f 73 113 114
f 73 114 93
f 75 78 115
f 75 115 116
f 75 116 117
f 75 117 76
f 76 117 80
f 76 80 79
f 77 92 78
f 78 92 115
f 80 118 119
f 80 119 111
f 80 111 83
f 80 83 81
f 80 117 120
f 80 120 121
f 80 121 118
f 81 83 82
f 84 105 122
f 84 122 85
f 85 123 86
f 85 122 123
f 86 123 89
f 88 124 125
f 88 125 91
f 88 89 124
f 89 123 126
f 89 126 124
f 90 127 128
f 90 128 92
f 90 91 127
f 91 125 129
f 91 129 127
f 92 130 131
f 92 131 115
f 92 128 130
f 93 114 132
f 95 133 134
f 95 134 135
f 95 135 136
f 95 136 96
f 95 97 137
f 95 137 138
f 95 138 139
f 95 139 140
f 95 140 141
f 95 141 142
f 95 142 133
f 96 136 143
f 96 143 98
f 98 143 144
f 98 144 99
f 99 144 100
f 100 144 101
f 101 144 143
f 101 143 136
f 101 136 135
f 101 135 145
f 101 145 146
f 101 146 102
f 102 146 103
f 103 146 147
f 103 147 148
f 103 148 108
f 103 108 107
f 103 107 104
f 105 149 150
f 105 150 151
f 105 151 122
f 105 106 149
f 106 110 152
f 106 152 149
f 108 148 152
f 108 152 110
f 108 110 109
f 111 119 153
f 111 153 154
f 111 154 155
f 111 155 156
f 111 156 113
f 111 113 112
f 113 156 114
f 114 156 157
f 114 157 158
f 114 158 132
f 115 120 116
f 115 131 120
f 116 120 117
f 118 121 159
f 118 159 119
f 119 160 153
f 119 159 160
f 120 131 130
f 120 130 129
f 120 129 161
f 120 161 162
f 120 162 163
f 120 163 121
f 121 163 164
f 121 164 159
f 122 151 165
f 122 165 166
f 122 166 123
f 123 166 165
f 123 165 167
f 123 167 126
f 124 168 169
f 124 169 125
f 124 126 168
f 125 170 129
f 125 169 171
f 125 171 170
f 126 167 172
f 126 172 173
f 126 173 168
f 127 129 128
f 128 129 130
f 129 170 174
f 129 174 175
f 129 175 161
f 133 176 135
f 133 135 134
f 133 142 176
f 135 177 178
f 135 178 145
f 135 176 179
f 135 179 177
f 142 180 176
f 145 181 182
f 145 182 146
f 145 178 181
f 146 182 147
f 147 183 184
f 147 184 185
f 147 185 148
f 147 182 183
f 148 185 186
f 148 186 187
f 148 187 188
f 148 188 189
f 148 189 190
f 148 190 152
f 149 191 192
f 149 192 193
f 149 193 150
f 149 152 191
f 150 193 151
f 151 193 165
f 152 190 194
f 152 194 189
f 152 189 191
f 153 160 154
f 154 160 155
f 155 195 156
f 155 160 195
f 156 196 157
f 156 195 196
f 157 196 197
f 157 197 198
f 157 198 199
f 157 199 158
f 159 164 200
f 159 200 201
f 159 201 202
f 159 202 203
f 159 203 160
f 160 204 205
f 160 205 195
f 160 203 204
f 161 175 171
f 161 171 206
f 161 206 162
f 162 164 163
f 162 206 164
f 164 207 201
f 164 201 200
f 164 206 207
f 165 208 167
f 165 193 208
f 167 208 209
f 167 209 172
f 168 210 211
f 168 211 169
f 168 173 210
f 169 211 212
f 169 212 213
f 169 213 171
f 170 171 174
f 171 213 212
f 171 212 214
f 171 214 206
f 171 175 174
f 172 209 215
f 172 215 216
f 172 216 217
f 172 217 173
f 173 217 218
f 173 218 210
f 176 219 220
f 176 220 221
f 176 221 222
f 176 222 223
f 176 223 179
f 176 180 224
f 176 224 219
f 177 225 178
f 177 179 223
f 177 223 225
f 178 225 181
f 181 226 182
f 181 225 226
f 182 226 227
f 182 227 183
f 183 227 184
f 184 227 228
f 184 228 229
f 184 229 230
f 184 230 231
f 184 231 186
f 184 186 185
f 186 231 230
f 186 230 187
f 187 230 188
f 188 230 232
f 188 232 189
f 189 232 233
f 189 233 191
f 189 194 190
f 191 234 192
f 191 233 234
f 192 234 235
f 192 235 193
f 193 235 209
f 193 209 208
f 195 205 204
f 195 204 236
f 195 236 196
f 196 237 197
f 196 236 237
f 201 207 238
f 201 238 239
f 201 239 204
f 201 204 202
f 202 204 203
f 204 239 236
f 206 214 212
f 206 212 207
f 207 212 211
f 207 211 240
f 207 240 238
f 209 235 215
f 210 218 241
f 210 241 211
f 211 241 242
f 211 242 243
f 211 243 240
f 215 244 216
f 215 235 245
f 215 245 244
f 216 246 247
f 216 247 217
f 216 244 248
f 216 248 246
f 217 247 249
f 217 249 218
f 218 249 241
f 219 250 220
f 219 224 250
f 220 250 251
f 220 251 221
f 221 252 253
f 221 253 228
f 221 228 227
f 221 227 254
f 221 254 222
f 221 251 255
f 221 255 252
f 222 254 223
f 223 254 227
f 223 227 226
f 223 226 225
f 224 251 250
f 228 253 256
f 228 256 229
f 229 256 257
f 229 257 230
f 230 257 258
f 230 258 232
f 232 258 233
f 233 258 259
f 233 259 234
f 234 259 245
f 234 245 235
f 236 260 261
f 236 261 262
f 236 262 237
f 236 239 260
f 238 263 239
f 238 240 264
f 238 264 265
f 238 265 263
f 239 266 267
f 239 267 260
f 239 263 266
f 240 243 268
f 240 268 269
f 240 269 264
f 241 249 270
f 241 270 271
f 241 271 242
f 242 271 243
f 243 271 268
f 244 245 272
f 244 272 273
f 244 273 274
f 244 274 275
f 244 275 248
f 245 259 272
f 246 248 276
f 246 276 277
f 246 277 278
f 246 278 247
f 247 278 249
f 248 275 274
f 248 274 276
f 249 278 270
f 251 279 255
f 252 255 280
f 252 280 281
f 252 281 282
f 252 282 253
f 253 282 283
f 253 283 284
f 253 284 256
f 255 279 285
f 255 285 286
f 255 286 280
f 256 284 283
f 256 283 257
f 257 287 272
f 257 272 259
f 257 259 258
f 257 283 287
f 260 288 261
f 260 267 288
f 263 265 266
f 264 269 265
f 265 269 268
f 265 268 289
f 265 289 290
f 265 290 266
f 266 290 267
f 267 291 288
f 267 290 291
f 268 271 289
f 270 278 292
f 270 292 293
f 270 293 294
f 270 294 271
f 271 294 289
f 272 287 295
f 272 295 273
f 273 295 274
f 274 296 297
f 274 297 276
f 274 295 282
f 274 282 296
f 276 297 281
f 276 281 292
f 276 292 277
f 277 292 278
f 279 298 285
f 280 286 299
f 280 299 281
f 281 299 292
f 281 297 282
f 282 297 296
f 282 295 287
f 282 287 283
f 285 298 286
f 286 298 291
f 286 291 300
f 286 300 290
f 286 290 301
f 286 301 299
f 289 302 301
f 289 301 290
f 289 294 302
f 290 300 291
f 292 299 293
f 293 299 302
f 293 302 294
f 299 301 302

