# https://github.com/mikedh/trimesh
v -0.30657070 0.28873817 -0.00433932
v -0.30657070 0.28907229 -0.00102579
v -0.30657070 0.28885511 -0.00610634
v -0.26831435 0.22049040 -0.00500667
v -0.26831435 0.22049040 -0.00492542
v -0.30657070 0.28941479 0.00000715
v -0.26807540 0.22049040 -0.00124630
v -0.30657070 0.28901381 -0.00834051
v -0.26802064 0.22049040 -0.00868869
v -0.30657070 0.28966539 -0.01297712
v -0.30657070 0.28997446 0.00119677
v -0.26776677 0.22049040 0.00036403
v -0.26778172 0.22049040 -0.01050794
v -0.30657070 0.28993271 -0.01457586
v -0.30657070 0.29032532 -0.01646764
v -0.30657070 0.29102701 0.00257789
v -0.26675621 0.22049040 0.00180899
v -0.26715945 0.22049040 -0.01286977
v -0.30657070 0.29088500 -0.01864668
v -0.30657070 0.29104370 -0.01912543
v -0.30657070 0.29252227 0.00378202
v -0.26667161 0.22049040 0.00189603
v -0.26412284 0.22049040 -0.02170778
v -0.30657070 0.29243875 -0.02202404
v -0.30657070 0.29584695 0.00481206
v -0.26477994 0.22049040 0.00377622
v -0.26240043 0.22049040 -0.02316434
v -0.30657070 0.29320724 -0.02293222
v -0.30657070 0.29402591 -0.02360537
v -0.30657070 0.29620617 0.00486428
v -0.26451610 0.22049040 0.00382844
v -0.26234070 0.22049040 -0.02321366
v -0.30657070 0.29634815 -0.02366340
v -0.30529633 0.29349963 -0.02370402
v -0.26390381 0.22515163 -0.02349221
v -0.29864067 0.29171199 0.00499775
v -0.30263305 0.29562975 0.00491941
v -0.30657070 0.29994851 0.00441745
v -0.26232575 0.22049040 0.00422595
v -0.26656706 0.24048023 0.00490490
v -0.27077352 0.25235050 0.00509060
v -0.27090792 0.25605109 0.00514863
v -0.26337612 0.22516833 -0.02341677
v -0.26234070 0.22051546 -0.02321366
v -0.26006074 0.22049040 -0.02225906
v -0.30657070 0.29921339 -0.02316144
v -0.30562986 0.29625628 -0.02371272
v -0.30188637 0.29216308 -0.02385780
v -0.27405406 0.26027792 -0.02449323
v -0.27052960 0.25618472 -0.02432204
v -0.29449394 0.28792786 0.00504127
v -0.29069569 0.28776916 0.00489040
v -0.30298153 0.29882913 0.00419113
v -0.30638652 0.29995687 0.00439424
v -0.29489718 0.29159505 0.00476563
v -0.30657070 0.30024087 0.00433331
v -0.25997611 0.22049040 0.00404606
v -0.26249004 0.22495950 0.00437102
v -0.26676122 0.24442306 0.00501806
v -0.27097763 0.25986026 0.00502677
v -0.27487046 0.26397850 0.00511091
v -0.26692051 0.24837425 0.00496003
v -0.26352546 0.22853477 -0.02335294
v -0.26238548 0.22414086 -0.02314403
v -0.26708977 0.25204976 -0.02357925
v -0.26068798 0.23282010 -0.02079090
v -0.26028974 0.22870185 -0.02104623
v -0.25969734 0.22105009 -0.02166425
v -0.25959779 0.22049040 -0.02162363
v -0.26211667 0.22860160 -0.02285968
v -0.26567600 0.25065473 -0.02318175
v -0.30657070 0.29945563 -0.02306859
v -0.30611770 0.29903797 -0.02316144
v -0.30206555 0.29608087 -0.02344869
v -0.29804330 0.29209625 -0.02381718
v -0.28608104 0.27990019 -0.02405510
v -0.27424819 0.26426253 -0.02433655
v -0.27814103 0.26868985 -0.02429303
v -0.27079342 0.25991037 -0.02415085
v -0.26795593 0.25581717 -0.02366050
v -0.28284531 0.27589053 0.00505288
v -0.29039203 0.28374279 0.00504418
v -0.28682278 0.28362585 0.00491071
v -0.28735044 0.28731807 0.00415051
v -0.29142745 0.29116067 0.00406637
v -0.30022865 0.29781836 0.00386906
v -0.30518183 0.30125163 0.00359632
v -0.30657070 0.30174451 0.00376171
v -0.29530039 0.29416792 0.00397642
v -0.25964758 0.22049040 0.00376461
v -0.26001098 0.22117539 0.00404896
v -0.26285841 0.23257786 0.00452190
v -0.26267422 0.22878539 0.00447548
v -0.26304259 0.23642880 0.00448418
v -0.26708477 0.25209155 0.00480045
v -0.26731874 0.25574199 0.00450159
v -0.27114189 0.26371119 0.00464667
v -0.27493517 0.26802995 0.00489620
v -0.27893753 0.27223173 0.00501516
v -0.26371962 0.24432282 0.00434781
v -0.26534247 0.24803174 -0.02318465
v -0.26113103 0.23668776 -0.02042531
v -0.25919955 0.23282010 -0.01723655
v -0.25769120 0.22106679 -0.01739323
v -0.25761652 0.22049040 -0.01736131
v -0.26610908 0.25318582 -0.02303377
v -0.26494918 0.25185763 -0.02169617
v -0.26158404 0.24035493 -0.02002200
v -0.30352414 0.29811911 -0.02303667
v -0.30657070 0.30113469 -0.02146695
v -0.29851622 0.29452711 -0.02327169
v -0.29473289 0.29155326 -0.02323687
v -0.29391649 0.28825365 -0.02385780
v -0.28297971 0.27949089 -0.02353573
v -0.28243710 0.27615785 -0.02408412
v -0.27112197 0.26355249 -0.02357925
v -0.27852932 0.27240715 -0.02391003
v -0.27444235 0.26826383 -0.02365759
v -0.26884204 0.25958459 -0.02346900
v -0.28300460 0.27966630 0.00482076
v -0.28346258 0.28320816 0.00410699
v -0.28883389 0.28966539 0.00378782
v -0.28503564 0.28572256 0.00380233
v -0.29314988 0.29321560 0.00368046
v -0.29771474 0.29676584 0.00339321
v -0.30325035 0.30056666 0.00302762
v -0.30343453 0.30195332 0.00119097
v -0.30657070 0.30315622 0.00189894
v -0.30657070 0.30279703 0.00241541
v -0.25791520 0.22049040 0.00193666
v -0.26027979 0.22501798 0.00406346
v -0.26057348 0.22879373 0.00405476
v -0.26089209 0.23255279 0.00400543
v -0.26414773 0.24825730 0.00418823
v -0.26755769 0.25915021 0.00404025
v -0.26471523 0.25184094 0.00397642
v -0.26901128 0.26336871 0.00385456
v -0.27152024 0.26731154 0.00404025
v -0.27506957 0.27195606 0.00428688
v -0.27911177 0.27592396 0.00463506
v -0.26127040 0.23638703 0.00390968
v -0.26149940 0.23840022 0.00384005
v -0.25981184 0.23662929 -0.01716401
v -0.25684991 0.23121624 -0.01170046
v -0.25669557 0.22897752 -0.01198190
v -0.25621770 0.22049040 -0.01306997
v -0.25644667 0.22510151 -0.01240553
v -0.25623262 0.22130069 -0.01289298
v -0.26651729 0.25554986 -0.02256663
v -0.26541713 0.25539116 -0.02084893
v -0.26209677 0.24525841 -0.01891362
v -0.26187275 0.24266883 -0.01972604
v -0.30114463 0.29720857 -0.02267398
v -0.29647521 0.29361658 -0.02306569
v -0.30657070 0.30136857 -0.02112457
v -0.30628697 0.30105950 -0.02134509
v -0.29218911 0.29010812 -0.02294092
v -0.28822160 0.28625719 -0.02300766
v -0.29059613 0.28776916 -0.02322817
v -0.28673317 0.28369268 -0.02336164
v -0.28078935 0.27797889 -0.02327750
v -0.27913664 0.27553134 -0.02337905
v -0.28447313 0.28210552 -0.02322527
v -0.26946428 0.26184003 -0.02325719
v -0.27236153 0.26669339 -0.02330651
v -0.27607018 0.27208136 -0.02325138
v -0.27960459 0.27909827 0.00396771
v -0.28116273 0.28168783 0.00370658
v -0.28651411 0.28823694 0.00289125
v -0.28791794 0.29055085 0.00157687
v -0.29056129 0.29197931 0.00277229
v -0.28255160 0.28405186 0.00290286
v -0.29551942 0.29583859 0.00248504
v -0.29565881 0.29729209 0.00056424
v -0.29937243 0.29896279 0.00186122
v -0.30100026 0.30106786 0.00037564
v -0.30657070 0.30486870 -0.00190205
v -0.25699925 0.22049040 0.00083118
v -0.25883616 0.22876868 0.00202660
v -0.25924434 0.23254445 0.00199178
v -0.26180804 0.24102321 0.00370658
v -0.26217640 0.24423093 0.00342513
v -0.26556647 0.25540787 0.00368337
v -0.26611903 0.25742104 0.00349477
v -0.26262443 0.24813200 0.00286224
v -0.26974307 0.26549883 0.00361083
v -0.26669150 0.25997720 0.00290576
v -0.27290414 0.27036891 0.00385456
v -0.27675215 0.27569005 0.00392129
v -0.25976205 0.23632020 0.00194826
v -0.26047393 0.24032152 -0.01712339
v -0.25890087 0.24034657 -0.01283495
v -0.25830350 0.23668776 -0.01301484
v -0.25798989 0.24036327 -0.00910650
v -0.25745226 0.23672952 -0.00929220
v -0.25704901 0.23367215 -0.00946629
v -0.25678520 0.23165063 -0.00955624
v -0.25649646 0.22894411 -0.00963168
v -0.25580451 0.22130904 -0.00971872
v -0.25573483 0.22049040 -0.00970712
v -0.26722914 0.25921704 -0.02144374
v -0.26589005 0.25764660 -0.02023961
v -0.26395857 0.25524078 -0.01716401
v -0.26295299 0.25189106 -0.01718432
v -0.25971229 0.24434787 -0.01273049
v -0.30264800 0.29888760 -0.02142923
v -0.30023862 0.29798545 -0.02061101
v -0.29882983 0.29633147 -0.02161493
v -0.29380696 0.29257238 -0.02138281
v -0.29583305 0.29418461 -0.02146405
v -0.30657070 0.30214545 -0.01986532
v -0.29113874 0.29054250 -0.02102302
v -0.28981955 0.28877993 -0.02185285
v -0.28601135 0.28492897 -0.02223295
v -0.28211849 0.28060188 -0.02231710
v -0.27697121 0.27406113 -0.02301056
v -0.27340690 0.26941661 -0.02272331
v -0.27025081 0.26459665 -0.02225326
v -0.26906107 0.26332693 -0.02133928
v -0.27760342 0.27748604 0.00363984
v -0.27868864 0.27985843 0.00257789
v -0.28405497 0.28665814 0.00165521
v -0.28548864 0.28913076 0.00041046
v -0.28936158 0.29281466 0.00021025
v -0.29214927 0.29422637 0.00123449
v -0.28155102 0.28502923 0.00040175
v -0.28010738 0.28248978 0.00147531
v -0.29369746 0.29642334 -0.00030331
v -0.29845148 0.30016568 -0.00165832
v -0.30358885 0.30346532 -0.00241561
v -0.30657070 0.30501904 -0.00238950
v -0.25669059 0.22049040 0.00042497
v -0.26053864 0.23981196 0.00222971
v -0.26082738 0.24410563 0.00152754
v -0.26313220 0.25155691 0.00212815
v -0.26373952 0.25467275 0.00127801
v -0.26139985 0.24807353 0.00098206
v -0.26927015 0.26701915 0.00158267
v -0.27060923 0.26823041 0.00260110
v -0.26741830 0.26311811 0.00177707
v -0.26553163 0.25878267 0.00166681
v -0.26604437 0.26163119 0.00055553
v -0.27401922 0.27295847 0.00326845
v -0.25714359 0.22876868 -0.00103740
v -0.25792515 0.23636197 -0.00168734
v -0.25878139 0.24439800 -0.00905718
v -0.25794507 0.24022963 -0.00543029
v -0.25872663 0.24428105 -0.00558987
v -0.25741241 0.23659588 -0.00539547
v -0.25679017 0.23162557 -0.00541288
v -0.25704404 0.23366381 -0.00540127
v -0.25571490 0.22049040 -0.00529392
v -0.25650143 0.22883550 -0.00541578
v -0.25572982 0.22049040 -0.00879314
v -0.26966341 0.26582462 -0.02013516
v -0.26620863 0.26072065 -0.01724815
v -0.26529268 0.25856546 -0.01721043
v -0.26162385 0.25398777 -0.01140740
v -0.26119574 0.25192446 -0.01201672
v -0.26045400 0.25188270 -0.00928930
v -0.29771972 0.29706656 -0.01859735
v -0.29321957 0.29310702 -0.01962739
v -0.30504243 0.30160249 -0.01917766
v -0.28917739 0.28963199 -0.01977537
v -0.30657070 0.30298080 -0.01735551
v -0.28530943 0.28584786 -0.02020479
v -0.28370153 0.28323323 -0.02128126
v -0.28146638 0.28159596 -0.02033246
v -0.27655305 0.27476282 -0.02142633
v -0.27443735 0.27192263 -0.02153078
v -0.27284440 0.27057775 -0.02055878
v -0.27148537 0.26758722 -0.02142053
v -0.27701102 0.27869730 0.00150433
v -0.27487046 0.27551463 0.00191054
v -0.27782245 0.28099450 0.00007098
v -0.28304442 0.28766890 -0.00229665
v -0.28495100 0.28959856 -0.00232277
v -0.28691238 0.29150315 -0.00240981
v -0.28883886 0.29326575 -0.00250266
v -0.29123829 0.29521209 -0.00257520
v -0.27898232 0.28325830 -0.00232567
v -0.28101338 0.28552207 -0.00232277
v -0.29322454 0.29674913 -0.00262162
v -0.29611182 0.29892103 -0.00300752
v -0.29767990 0.30048311 -0.00480356
v -0.29972588 0.30130178 -0.00290887
v -0.30388256 0.30439254 -0.00594095
v -0.30555517 0.30507752 -0.00487320
v -0.29967609 0.30202015 -0.00620209
v -0.30657070 0.30570402 -0.00556376
v -0.25623262 0.22049040 -0.00124921
v -0.25851755 0.24003750 -0.00179469
v -0.26195241 0.25140654 0.00025088
v -0.26224114 0.25291018 -0.00019015
v -0.25934890 0.24406386 -0.00192236
v -0.26981773 0.26948344 0.00026538
v -0.27183384 0.27118754 0.00174516
v -0.26396355 0.25891632 -0.00234888
v -0.26550176 0.26233288 -0.00218640
v -0.26651229 0.26446302 -0.00206163
v -0.27316298 0.27428666 0.00079926
v -0.25687478 0.23109929 -0.00311198
v -0.25735768 0.23248597 -0.00182371
v -0.25973716 0.24869168 -0.00915003
v -0.25968242 0.24852462 -0.00588292
v -0.26918551 0.26655138 -0.01744255
v -0.26759253 0.26356920 -0.01735841
v -0.27039518 0.26861467 -0.01739323
v -0.26439663 0.25957623 -0.01304676
v -0.26524787 0.26219086 -0.01210957
v -0.26141477 0.25457252 -0.00942857
v -0.26319194 0.25892465 -0.00953593
v -0.26045898 0.25174904 -0.00620499
v -0.30296161 0.30085901 -0.01746286
v -0.29750069 0.30068360 -0.00773989
v -0.29297564 0.29711667 -0.00836662
v -0.28907781 0.29312373 -0.01077778
v -0.30657070 0.30299752 -0.01730328
v -0.30533117 0.30533648 -0.00760642
v -0.30372824 0.30410018 -0.00860744
v -0.29962633 0.30166096 -0.00868869
v -0.28860492 0.29013319 -0.01721333
v -0.28131704 0.28546360 -0.01084741
v -0.28522479 0.28954009 -0.01086772
v -0.27760342 0.28142054 -0.01058047
v -0.27388977 0.27321743 -0.01861186
v -0.27770795 0.27726887 -0.01975216
v -0.27245111 0.27189759 -0.01710308
v -0.27402419 0.27661730 -0.00087201
v -0.27515420 0.27858871 -0.00227634
v -0.27744908 0.28145394 -0.00229665
v -0.28265612 0.28802812 -0.00587422
v -0.28455276 0.28995778 -0.00591194
v -0.28650914 0.29187905 -0.00598157
v -0.28845060 0.29365001 -0.00607442
v -0.29073053 0.29557963 -0.00616147
v -0.29274167 0.29717514 -0.00622530
v -0.27709566 0.28192175 -0.00589163
v -0.27862390 0.28370103 -0.00590323
v -0.28062509 0.28587293 -0.00588583
v -0.29753056 0.30060841 -0.00625722
v -0.29555426 0.29923846 -0.00626012
v -0.30536104 0.30526965 -0.00673597
v -0.30657070 0.30580428 -0.00617307
v -0.26120072 0.25152351 -0.00230536
v -0.26032956 0.24819883 -0.00209645
v -0.26192751 0.25367870 -0.00242432
v -0.26266428 0.25564176 -0.00243012
v -0.26801567 0.26743684 -0.00200360
v -0.26948420 0.27009323 -0.00200940
v -0.27062915 0.27201453 -0.00206743
v -0.26324670 0.25891632 -0.00644001
v -0.26501889 0.26285915 -0.00626302
v -0.26148448 0.25457252 -0.00642260
v -0.26610411 0.26503105 -0.00610054
v -0.26742330 0.26763733 -0.00597577
v -0.26987249 0.26950849 -0.01411742
v -0.26853838 0.26795476 -0.01281754
v -0.26607921 0.26493080 -0.00948660
v -0.26493923 0.26275054 -0.00953013
v -0.28867460 0.29345788 -0.00883666
v -0.28675804 0.29172035 -0.00879894
v -0.28751470 0.29109384 -0.01230107
v -0.30657070 0.30576252 -0.00821574
v -0.30657070 0.30582099 -0.00642841
v -0.28288015 0.28786939 -0.00879604
v -0.28085907 0.28573928 -0.00881925
v -0.27886285 0.28356737 -0.00883666
v -0.28478674 0.28983248 -0.00878734
v -0.27729476 0.28174630 -0.00884827
v -0.27381014 0.27699320 -0.01015975
v -0.27427309 0.27646692 -0.01254480
v -0.27335214 0.27409453 -0.01524901
v -0.27083326 0.27168039 -0.01267246
v -0.27274979 0.27531414 -0.00219510
v -0.27363590 0.27716026 -0.00366327
v -0.27496007 0.27928204 -0.00585971
v -0.27355624 0.27734403 -0.00817222
v -0.26914073 0.27076988 -0.00587422
v -0.27028568 0.27263268 -0.00585971
v -0.26755272 0.26771252 -0.00935023
v -0.26946428 0.27028536 -0.01131165
v -0.27494512 0.27879755 -0.00903977
v -0.27256063 0.27564829 -0.00911521
v -0.27292403 0.27473775 -0.01259703
v -0.27349651 0.27737746 -0.00584230
v -0.27199810 0.27524731 -0.00585391
v -0.27040515 0.27254917 -0.00906298
v -0.26923033 0.27068634 -0.00915873
f 1 2 6
f 1 6 11
f 1 11 16
f 1 16 21
f 1 21 25
f 1 25 30
f 1 30 38
f 1 38 56
f 1 56 88
f 1 88 129
f 1 129 128
f 1 128 177
f 1 177 231
f 1 231 290
f 1 290 344
f 1 344 365
f 1 365 364
f 1 364 318
f 1 318 265
f 1 265 211
f 1 211 155
f 1 155 110
f 1 110 72
f 1 72 46
f 1 46 33
f 1 33 29
f 1 29 28
f 1 28 24
f 1 24 20
f 1 20 19
f 1 19 15
f 1 15 14
f 1 14 10
f 1 10 8
f 1 8 3
f 1 3 4
f 1 4 5
f 1 5 2
f 2 5 7
f 2 7 6
f 3 8 4
f 4 9 13
f 4 13 18
f 4 18 23
f 4 23 27
f 4 27 32
f 4 32 45
f 4 45 69
f 4 69 105
f 4 105 146
f 4 146 200
f 4 200 254
f 4 254 252
f 4 252 291
f 4 291 232
f 4 232 178
f 4 178 130
f 4 130 90
f 4 90 57
f 4 57 39
f 4 39 31
f 4 31 26
f 4 26 22
f 4 22 17
f 4 17 12
f 4 12 7
f 4 7 5
f 4 8 10
f 4 10 9
f 6 7 12
f 6 12 11
f 9 10 14
f 9 14 15
f 9 15 13
f 11 12 16
f 12 17 16
f 13 15 19
f 13 19 20
f 13 20 18
f 16 17 21
f 17 22 21
f 18 20 24
f 18 24 23
f 21 22 26
f 21 26 25
f 23 24 28
f 23 28 29
f 23 29 27
f 25 26 30
f 26 31 30
f 27 29 32
f 29 33 34
f 29 34 35
f 29 35 32
f 30 36 37
f 30 37 38
f 30 31 39
f 30 39 40
f 30 40 41
f 30 41 42
f 30 42 36
f 32 35 43
f 32 43 44
f 32 44 45
f 33 46 47
f 33 47 34
f 34 47 48
f 34 48 49
f 34 49 35
f 35 49 50
f 35 50 43
f 36 51 52
f 36 52 37
f 36 42 51
f 37 53 54
f 37 54 38
f 37 52 55
f 37 55 53
f 38 54 56
f 39 57 58
f 39 58 40
f 40 58 59
f 40 59 41
f 41 59 42
f 42 60 61
f 42 61 51
f 42 59 62
f 42 62 60
f 43 63 64
f 43 64 44
f 43 50 65
f 43 65 63
f 44 64 45
f 45 66 67
f 45 67 68
f 45 68 69
f 45 64 70
f 45 70 71
f 45 71 66
f 46 72 73
f 46 73 47
f 47 73 74
f 47 74 75
f 47 75 48
f 48 75 76
f 48 76 49
f 49 77 50
f 49 76 78
f 49 78 77
f 50 77 79
f 50 79 80
f 50 80 65
f 51 81 82
f 51 82 83
f 51 83 52
f 51 61 81
f 52 84 85
f 52 85 55
f 52 83 84
f 53 86 87
f 53 87 88
f 53 88 56
f 53 56 54
f 53 55 89
f 53 89 86
f 55 85 89
f 57 90 91
f 57 91 92
f 57 92 93
f 57 93 58
f 58 93 59
f 59 93 92
f 59 92 94
f 59 94 62
f 60 62 95
f 60 95 96
f 60 96 97
f 60 97 98
f 60 98 99
f 60 99 61
f 61 99 81
f 62 94 100
f 62 100 95
f 63 65 101
f 63 101 64
f 64 101 70
f 65 80 71
f 65 71 101
f 66 102 103
f 66 103 104
f 66 104 67
f 66 71 102
f 67 104 69
f 67 69 68
f 69 104 105
f 70 101 71
f 71 80 106
f 71 106 107
f 71 107 108
f 71 108 102
f 72 109 73
f 72 110 109
f 73 109 74
f 74 111 75
f 74 109 111
f 75 111 112
f 75 112 113
f 75 113 76
f 76 114 115
f 76 115 78
f 76 113 114
f 77 116 79
f 77 78 115
f 77 115 117
f 77 117 118
f 77 118 116
f 79 119 80
f 79 116 119
f 80 119 106
f 81 99 83
f 81 83 82
f 83 99 120
f 83 120 121
f 83 121 84
f 84 122 85
f 84 121 123
f 84 123 122
f 85 124 89
f 85 122 124
f 86 125 87
f 86 89 124
f 86 124 125
f 87 126 127
f 87 127 128
f 87 128 129
f 87 129 88
f 87 125 126
f 90 130 131
f 90 131 91
f 91 131 92
f 92 131 132
f 92 132 94
f 94 132 133
f 94 133 100
f 95 100 134
f 95 134 96
f 96 135 97
f 96 134 136
f 96 136 135
f 97 135 137
f 97 137 138
f 97 138 139
f 97 139 98
f 98 139 140
f 98 140 120
f 98 120 99
f 100 133 141
f 100 141 142
f 100 142 134
f 102 108 103
f 103 108 143
f 103 143 144
f 103 144 104
f 104 144 145
f 104 145 105
f 105 145 147
f 105 147 148
f 105 148 146
f 106 149 150
f 106 150 107
f 106 119 149
f 107 150 151
f 107 151 152
f 107 152 108
f 108 152 143
f 109 153 154
f 109 154 111
f 109 110 153
f 110 155 156
f 110 156 153
f 111 154 112
f 112 157 158
f 112 158 159
f 112 159 160
f 112 160 113
f 112 154 157
f 113 160 114
f 114 161 162
f 114 162 117
f 114 117 115
f 114 160 163
f 114 163 161
f 116 164 119
f 116 118 165
f 116 165 164
f 117 162 118
f 118 162 166
f 118 166 165
f 119 164 149
f 120 140 121
f 121 140 167
f 121 167 168
f 121 168 123
f 122 123 169
f 122 169 170
f 122 170 171
f 122 171 124
f 123 168 172
f 123 172 169
f 124 171 173
f 124 173 125
f 125 173 174
f 125 174 175
f 125 175 126
f 126 176 127
f 126 175 176
f 127 176 177
f 127 177 128
f 130 178 179
f 130 179 133
f 130 133 132
f 130 132 131
f 133 179 180
f 133 180 141
f 134 142 181
f 134 181 182
f 134 182 136
f 135 136 183
f 135 183 184
f 135 184 137
f 136 182 185
f 136 185 183
f 137 186 138
f 137 184 187
f 137 187 186
f 138 186 188
f 138 188 139
f 139 188 189
f 139 189 140
f 140 189 167
f 141 180 142
f 142 180 190
f 142 190 181
f 143 152 191
f 143 191 192
f 143 192 193
f 143 193 144
f 144 193 192
f 144 192 194
f 144 194 195
f 144 195 196
f 144 196 197
f 144 197 198
f 144 198 199
f 144 199 200
f 144 200 145
f 145 200 147
f 146 148 200
f 147 200 148
f 149 164 201
f 149 201 202
f 149 202 150
f 150 203 204
f 150 204 151
f 150 202 203
f 151 204 205
f 151 205 192
f 151 192 152
f 152 192 191
f 153 156 155
f 153 155 206
f 153 206 207
f 153 207 208
f 153 208 154
f 154 209 157
f 154 208 210
f 154 210 209
f 155 211 207
f 155 207 206
f 157 209 212
f 157 212 213
f 157 213 214
f 157 214 158
f 158 214 163
f 158 163 159
f 159 163 160
f 161 163 215
f 161 215 216
f 161 216 162
f 162 216 166
f 163 214 215
f 164 165 217
f 164 217 218
f 164 218 219
f 164 219 201
f 165 166 216
f 165 216 217
f 167 220 168
f 167 189 220
f 168 220 221
f 168 221 172
f 169 222 223
f 169 223 170
f 169 172 222
f 170 224 171
f 170 223 224
f 171 224 225
f 171 225 174
f 171 174 173
f 172 226 222
f 172 221 227
f 172 227 226
f 174 225 228
f 174 228 176
f 174 176 175
f 176 228 229
f 176 229 230
f 176 230 177
f 177 230 231
f 178 232 179
f 179 232 180
f 180 232 190
f 181 190 233
f 181 233 182
f 182 234 185
f 182 233 234
f 183 185 235
f 183 235 184
f 184 235 236
f 184 236 187
f 185 234 237
f 185 237 235
f 186 238 239
f 186 239 188
f 186 187 240
f 186 240 238
f 187 236 241
f 187 241 242
f 187 242 240
f 188 239 243
f 188 243 220
f 188 220 189
f 190 232 244
f 190 244 245
f 190 245 234
f 190 234 233
f 192 205 246
f 192 246 194
f 194 247 195
f 194 246 248
f 194 248 247
f 195 247 249
f 195 249 196
f 196 249 197
f 197 250 198
f 197 249 251
f 197 251 250
f 198 252 199
f 198 250 253
f 198 253 252
f 199 252 254
f 199 254 200
f 201 219 202
f 202 219 255
f 202 255 256
f 202 256 257
f 202 257 258
f 202 258 203
f 203 258 259
f 203 259 204
f 204 259 205
f 205 259 260
f 205 260 246
f 207 261 262
f 207 262 210
f 207 210 208
f 207 211 263
f 207 263 261
f 209 210 262
f 209 262 264
f 209 264 212
f 211 265 263
f 212 264 266
f 212 266 213
f 213 266 214
f 214 266 267
f 214 267 215
f 215 267 268
f 215 268 216
f 216 269 270
f 216 270 217
f 216 268 269
f 217 270 271
f 217 271 272
f 217 272 218
f 218 255 219
f 218 272 255
f 220 273 221
f 220 243 274
f 220 274 273
f 221 273 275
f 221 275 227
f 222 226 223
f 223 226 276
f 223 276 277
f 223 277 278
f 223 278 224
f 224 278 279
f 224 279 280
f 224 280 228
f 224 228 225
f 226 227 275
f 226 275 281
f 226 281 282
f 226 282 276
f 228 280 283
f 228 283 284
f 228 284 229
f 229 285 286
f 229 286 230
f 229 284 285
f 230 287 288
f 230 288 231
f 230 286 289
f 230 289 287
f 231 288 290
f 232 291 244
f 234 245 292
f 234 292 237
f 235 293 236
f 235 237 293
f 236 293 294
f 236 294 241
f 237 292 295
f 237 295 293
f 238 240 296
f 238 296 239
f 239 296 297
f 239 297 243
f 240 242 296
f 241 294 242
f 242 294 298
f 242 298 299
f 242 299 300
f 242 300 296
f 243 297 301
f 243 301 274
f 244 302 303
f 244 303 245
f 244 291 302
f 245 303 302
f 245 302 247
f 245 247 292
f 246 260 304
f 246 304 248
f 247 302 249
f 247 248 292
f 248 304 260
f 248 260 305
f 248 305 295
f 248 295 292
f 249 302 251
f 250 302 253
f 250 251 302
f 252 253 302
f 252 302 291
f 255 306 307
f 255 307 256
f 255 272 271
f 255 271 308
f 255 308 306
f 256 309 257
f 256 307 310
f 256 310 309
f 257 309 258
f 258 311 260
f 258 260 259
f 258 309 312
f 258 312 311
f 260 311 313
f 260 313 305
f 261 263 314
f 261 314 315
f 261 315 316
f 261 316 317
f 261 317 262
f 262 317 264
f 263 265 318
f 263 318 319
f 263 319 320
f 263 320 321
f 263 321 315
f 263 315 314
f 264 317 322
f 264 322 266
f 266 323 268
f 266 268 267
f 266 322 324
f 266 324 323
f 268 323 325
f 268 325 326
f 268 326 327
f 268 327 269
f 269 326 271
f 269 271 270
f 269 327 326
f 271 326 328
f 271 328 308
f 273 274 301
f 273 301 275
f 275 301 329
f 275 329 330
f 275 330 331
f 275 331 281
f 276 332 333
f 276 333 277
f 276 282 332
f 277 333 334
f 277 334 278
f 278 334 279
f 279 334 335
f 279 335 336
f 279 336 280
f 280 336 337
f 280 337 283
f 281 338 339
f 281 339 282
f 281 331 338
f 282 339 340
f 282 340 332
f 283 337 285
f 283 285 284
f 285 341 289
f 285 289 286
f 285 337 342
f 285 342 341
f 287 319 343
f 287 343 344
f 287 344 288
f 287 289 319
f 288 344 290
f 289 341 315
f 289 315 319
f 293 345 294
f 293 295 346
f 293 346 345
f 294 347 348
f 294 348 298
f 294 345 347
f 295 305 346
f 296 300 349
f 296 349 350
f 296 350 351
f 296 351 329
f 296 329 301
f 296 301 297
f 298 352 353
f 298 353 299
f 298 348 354
f 298 354 352
f 299 353 300
f 300 353 355
f 300 355 356
f 300 356 349
f 305 313 346
f 306 310 307
f 306 308 357
f 306 357 358
f 306 358 310
f 308 328 357
f 309 310 312
f 310 359 360
f 310 360 312
f 310 358 359
f 311 354 313
f 311 312 352
f 311 352 354
f 312 360 353
f 312 353 352
f 313 354 348
f 313 348 347
f 313 347 345
f 313 345 346
f 315 337 316
f 315 321 319
f 315 341 342
f 315 342 337
f 316 337 336
f 316 336 361
f 316 361 317
f 317 361 362
f 317 362 324
f 317 324 363
f 317 363 322
f 318 364 319
f 319 321 320
f 319 364 365
f 319 365 344
f 319 344 343
f 322 363 324
f 323 324 366
f 323 366 367
f 323 367 368
f 323 368 325
f 324 362 369
f 324 369 366
f 325 368 370
f 325 370 371
f 325 371 372
f 325 372 326
f 326 372 371
f 326 371 373
f 326 373 328
f 328 374 357
f 328 373 374
f 329 351 375
f 329 375 376
f 329 376 330
f 330 376 331
f 331 376 338
f 332 340 367
f 332 367 366
f 332 366 369
f 332 369 333
f 333 369 334
f 334 369 362
f 334 362 335
f 335 362 361
f 335 361 336
f 338 377 378
f 338 378 370
f 338 370 339
f 338 376 377
f 339 370 368
f 339 368 367
f 339 367 340
f 349 356 379
f 349 379 350
f 350 379 351
f 351 379 380
f 351 380 376
f 351 376 375
f 353 360 355
f 355 360 356
f 356 360 359
f 356 359 381
f 356 381 379
f 357 374 382
f 357 382 358
f 358 382 381
f 358 381 359
f 370 378 383
f 370 383 371
f 371 384 385
f 371 385 373
f 371 383 378
f 371 378 384
f 373 385 374
f 374 385 382
f 376 386 377
f 376 380 387
f 376 387 386
f 377 386 378
f 378 386 387
f 378 387 388
f 378 388 384
f 379 381 389
f 379 389 380
f 380 389 388
f 380 388 387
f 381 382 389
f 382 385 384
f 382 384 388
f 382 388 389

