# https://github.com/mikedh/trimesh
v -0.09993737 0.41992569 -0.00162969
v -0.09986039 0.41992569 -0.00147236
v -0.09986520 0.41992569 -0.00459731
v -0.09984114 0.41584509 -0.00457880
v -0.09979303 0.41216130 -0.00457572
v -0.09984114 0.41568980 -0.00161426
v -0.09823419 0.41550862 0.00176981
v -0.09805136 0.41992569 0.00219244
v -0.09878748 0.41992569 -0.00883281
v -0.09875380 0.41229935 -0.00882972
v -0.09968238 0.41210092 -0.00166362
v -0.09939370 0.40904691 -0.00459423
v -0.09783967 0.41229935 0.00213074
v -0.09685817 0.41335184 0.00396622
v -0.09690147 0.41540509 0.00401250
v -0.09693515 0.41835558 0.00404643
v -0.09803693 0.41978768 0.00221403
v -0.09792145 0.41992569 0.00240529
v -0.09772901 0.41992569 -0.01212434
v -0.09579007 0.41992569 -0.01788992
v -0.09440444 0.41610390 -0.02178917
v -0.09770014 0.41242012 -0.01189914
v -0.09761354 0.41044449 -0.01166470
v -0.09823419 0.40914181 -0.00911970
v -0.09795032 0.40469884 -0.00791661
v -0.09927823 0.40894338 -0.00173149
v -0.09752694 0.40469022 0.00095541
v -0.09785891 0.40885710 0.00143357
v -0.09754618 0.40045429 -0.00701583
v -0.09871531 0.40467297 -0.00460657
v -0.09862871 0.40465570 -0.00177159
v -0.09663686 0.40882262 0.00362998
v -0.09676676 0.41152288 0.00384900
v -0.09460651 0.40463846 0.00491944
v -0.09493848 0.40853791 0.00498422
v -0.09547734 0.41209230 0.00480530
v -0.09521273 0.41531881 0.00505209
v -0.09556395 0.41952887 0.00484232
v -0.09692553 0.41992569 0.00402792
v -0.09443331 0.41992569 -0.02174289
v -0.09410614 0.41245463 -0.02190947
v -0.09340370 0.41593137 -0.02355061
v -0.09294182 0.40684699 -0.02380357
v -0.09250399 0.40060958 -0.02247400
v -0.09676195 0.40048881 -0.00958242
v -0.09639630 0.40474198 0.00312715
v -0.09718052 0.40052333 0.00019963
v -0.09098846 0.39285382 -0.02235369
v -0.09727194 0.39850457 -0.00637110
v -0.09803693 0.40046292 -0.00461582
v -0.09794070 0.40048019 -0.00183637
v -0.09417350 0.40063548 0.00475594
v -0.09141184 0.39664112 0.00572150
v -0.09146958 0.40045429 0.00598371
v -0.09148401 0.41992569 0.00587575
v -0.09206617 0.41992569 0.00573384
v -0.09551584 0.41992569 0.00485775
v -0.09147439 0.40437964 0.00607009
v -0.09147920 0.40811519 0.00603924
v -0.09591517 0.41992569 0.00462638
v -0.09344219 0.41992569 -0.02346115
v -0.09120977 0.40058371 -0.02426938
v -0.09076233 0.39676189 -0.02430949
v -0.09014649 0.39282792 -0.02419843
v -0.09185448 0.39679641 -0.02245241
v -0.09606432 0.40061823 0.00235593
v -0.09362020 0.39703798 0.00450607
v -0.09694477 0.39812499 -0.00042043
v -0.08944886 0.38895436 -0.02388069
v -0.08909763 0.38709951 -0.02365241
v -0.09729600 0.39731403 -0.00449551
v -0.09297550 0.38774655 -0.01110017
v -0.09498660 0.38822104 -0.00467443
v -0.09689666 0.39514001 -0.00337571
v -0.09686779 0.39514001 -0.00276491
v -0.09717090 0.39708974 -0.00195360
v -0.09071421 0.38869555 0.00479296
v -0.08783709 0.38464943 0.00545929
v -0.08799105 0.38842809 0.00578012
v -0.08801030 0.39238795 0.00591893
v -0.08866944 0.41992569 0.00528345
v -0.08799586 0.40035939 0.00599914
v -0.05078569 0.34166911 0.00386442
v -0.08798143 0.39634779 0.00598680
v -0.09177750 0.41992569 -0.02370485
v -0.09171014 0.41573294 -0.02384676
v -0.08843368 0.39640818 -0.02459946
v -0.08816906 0.39241382 -0.02470743
v -0.08787077 0.38852299 -0.02454393
v -0.08414205 0.38041351 -0.02498507
v -0.08765426 0.38528783 -0.02416758
v -0.09577564 0.39707247 0.00117444
v -0.09272532 0.39126643 0.00366391
v -0.09312946 0.39419964 0.00419450
v -0.09666091 0.39599408 -0.00126568
v -0.09481339 0.38834184 -0.00195360
v -0.09363945 0.38854026 0.00042482
v -0.08636485 0.38113818 -0.02407812
v -0.09345663 0.38562430 -0.00745080
v -0.08552288 0.37817045 -0.02373262
v -0.08480600 0.37570310 -0.02308172
v -0.08753879 0.38140562 -0.02189405
v -0.09379341 0.38489097 -0.00498292
v -0.09323530 0.38313105 -0.00411608
v -0.09324974 0.38298438 -0.00271864
v -0.08987224 0.38492549 0.00447214
v -0.08675937 0.37753206 0.00441661
v -0.08352140 0.37348594 0.00508294
v -0.08389187 0.37705755 0.00556109
v -0.08417092 0.38061194 0.00567523
v -0.07996589 0.37295967 0.00557651
v -0.08824604 0.41992569 0.00519399
v -0.07554916 0.36577329 0.00542844
v -0.07176272 0.36190835 0.00519708
v -0.05270537 0.34184167 0.00401867
v -0.05078569 0.33814927 0.00354052
v -0.05078569 0.34487841 0.00330607
v -0.09074308 0.41992569 -0.02360306
v -0.05078569 0.34050447 -0.02530281
v -0.06847664 0.35719795 -0.02544471
v -0.08454620 0.38401101 -0.02501283
v -0.07209950 0.36139935 -0.02539844
v -0.08003806 0.37266637 -0.02507144
v -0.08269868 0.37335652 -0.02412439
v -0.08386781 0.37669521 -0.02433108
v -0.09241740 0.38873004 0.00276005
v -0.08930933 0.38234599 0.00403409
v -0.09371643 0.38503764 -0.00197519
v -0.09332672 0.38596936 -0.00054691
v -0.08991073 0.37748892 -0.00881430
v -0.08939112 0.37475411 -0.00685850
v -0.09098846 0.37741126 -0.00470220
v -0.08166426 0.37056135 -0.02374804
v -0.08422865 0.37383101 -0.02181693
v -0.08613391 0.36988841 -0.00921533
v -0.08816425 0.37356357 -0.00881738
v -0.08577788 0.37714383 -0.02190947
v -0.08081748 0.36828378 -0.02308480
v -0.09094034 0.37748892 -0.00200604
v -0.09241740 0.38146603 -0.00199370
v -0.08574901 0.37386552 0.00391687
v -0.08320867 0.37015588 0.00422844
v -0.07917204 0.36613562 0.00491636
v -0.07957136 0.36949159 0.00547780
v -0.08698068 0.41992569 0.00458628
v -0.07522200 0.36220165 0.00505209
v -0.07155102 0.35825044 0.00491327
v -0.06428604 0.35034801 0.00440427
v -0.06017724 0.34625013 0.00411738
v -0.06818315 0.35417845 0.00464798
v -0.05201737 0.33817514 0.00343255
v -0.05078569 0.33667403 0.00317959
v -0.05078569 0.34547369 0.00310247
v -0.08936225 0.41992569 -0.02345807
v -0.05078569 0.34172953 -0.02492337
v -0.05078569 0.33843395 -0.02459946
v -0.05581825 0.34245420 -0.02475679
v -0.05979234 0.34633641 -0.02493571
v -0.06386746 0.35013234 -0.02506219
v -0.06784636 0.35390237 -0.02512697
v -0.07570794 0.36551448 -0.02520409
v -0.07538558 0.36206364 -0.02454085
v -0.07848402 0.36612700 -0.02416758
v -0.07751697 0.36361651 -0.02392079
v -0.09196995 0.38491687 0.00117752
v -0.09032931 0.38118132 0.00170812
v -0.08885226 0.37991313 0.00341095
v -0.08973272 0.37753206 0.00039397
v -0.08531118 0.36748145 -0.00757110
v -0.08743775 0.37007822 -0.00479166
v -0.08877047 0.37258871 -0.00473613
v -0.08959319 0.37424513 -0.00472071
v -0.07802215 0.36298674 -0.02187246
v -0.08012947 0.36646347 -0.02190022
v -0.08953545 0.37434001 -0.00201529
v -0.08920348 0.37507333 -0.00049755
v -0.08511392 0.37171737 0.00350658
v -0.08157285 0.36642033 0.00375954
v -0.07874865 0.36278831 0.00381507
v -0.07498144 0.35850925 0.00387059
v -0.08691814 0.41992569 0.00440427
v -0.05078569 0.34638817 0.00226339
v -0.07133452 0.35442864 0.00381815
v -0.06774533 0.35060682 0.00369784
v -0.05975385 0.34310121 0.00333692
v -0.05526496 0.33959862 0.00323203
v -0.06366058 0.34658657 0.00346956
v -0.05078569 0.33634618 0.00302535
v -0.08767831 0.41992569 -0.02199276
v -0.05078569 0.34287692 -0.02445756
v -0.05078569 0.33629445 -0.02350434
v -0.05079531 0.33628579 -0.02349817
v -0.05206067 0.33845122 -0.02422619
v -0.05553920 0.33981429 -0.02351359
v -0.05915244 0.34292006 -0.02360306
v -0.06324681 0.34689717 -0.02387452
v -0.06720165 0.35083111 -0.02402568
v -0.07044443 0.35437688 -0.02411822
v -0.07187338 0.35761204 -0.02468275
v -0.07407693 0.35897511 -0.02415524
v -0.07304251 0.35639561 -0.02347658
v -0.08843849 0.37764421 0.00262123
v -0.08560467 0.36692933 -0.00482868
v -0.08049994 0.36101974 -0.01032587
v -0.08173643 0.36227931 -0.00884515
v -0.08093295 0.36007077 -0.00691095
v -0.08557580 0.36692933 -0.00205540
v -0.08742332 0.37016450 -0.00203689
v -0.08868868 0.37261460 -0.00202455
v -0.07660764 0.36091622 -0.02198351
v -0.07705508 0.35626619 -0.01124824
v -0.08519090 0.36758497 -0.00026619
v -0.08585966 0.37037155 0.00118986
v -0.08773124 0.37390866 0.00104796
v -0.08435375 0.36925864 0.00261506
v -0.08080786 0.36440157 0.00325362
v -0.07728603 0.35986372 0.00330298
v -0.07363429 0.35583485 0.00332458
v -0.08648994 0.41992569 0.00289887
v -0.05078569 0.34687990 0.00148292
v -0.07006434 0.35190950 0.00328447
v -0.06628752 0.34815671 0.00317033
v -0.06216428 0.34416236 0.00297599
v -0.05759841 0.34050447 0.00289270
v -0.05289782 0.33701047 0.00255953
v -0.05078569 0.33457763 0.00117444
v -0.08695182 0.41992569 -0.02075883
v -0.05078569 0.34356708 -0.02388069
v -0.05078569 0.33494859 -0.02124006
v -0.05332602 0.33713127 -0.02235986
v -0.05760322 0.34067700 -0.02298300
v -0.06169278 0.34447293 -0.02325755
v -0.06566687 0.34844142 -0.02350743
v -0.06941964 0.35238401 -0.02362156
v -0.06981897 0.35193540 -0.02162258
v -0.07337929 0.35193540 -0.01140248
v -0.08441629 0.36501410 -0.00482251
v -0.08276604 0.36234832 -0.00478549
v -0.08442591 0.36503999 -0.00206465
v -0.07978787 0.35787086 -0.00469911
v -0.08108691 0.35975155 -0.00474230
v -0.07752178 0.35573995 -0.00792895
v -0.08357433 0.36640306 0.00110349
v -0.08283821 0.36248636 -0.00207391
v -0.08077418 0.36012254 -0.00082454
v -0.08148624 0.36282280 0.00077649
v -0.07985042 0.36166679 0.00197958
v -0.07615538 0.35733596 0.00238370
v -0.07234488 0.35323808 0.00252252
v -0.08590778 0.41992569 -0.00069806
v -0.05078569 0.34712147 0.00082893
v -0.06871720 0.34952843 0.00253794
v -0.06456029 0.34537879 0.00229424
v -0.05950847 0.34123777 0.00220478
v -0.05478864 0.33573368 -0.00017364
v -0.05078569 0.33356825 0.00010708
v -0.08658616 0.41992569 -0.01797938
v -0.05078569 0.34427450 -0.02151153
v -0.05078569 0.34359297 -0.02382516
v -0.05078569 0.33369767 -0.01733465
v -0.05182491 0.33436196 -0.01729763
v -0.05388413 0.33659637 -0.02001229
v -0.05193557 0.33571641 -0.02120304
v -0.05530826 0.33812337 -0.02113518
v -0.05808434 0.34023704 -0.02107965
v -0.05999922 0.34190206 -0.02113518
v -0.06221721 0.34392944 -0.02122155
v -0.06422349 0.34592228 -0.02133569
v -0.06613356 0.34789790 -0.02144366
v -0.06807730 0.34999429 -0.02153929
v -0.06968907 0.34807043 -0.01186521
v -0.07199847 0.34967510 -0.00879270
v -0.07368241 0.35152992 -0.00880813
v -0.07976382 0.35787086 -0.00207699
v -0.07784413 0.35539485 -0.00464667
v -0.08104361 0.35972568 -0.00208008
v -0.07409617 0.35108130 -0.00456955
v -0.07731008 0.35597289 -0.00033714
v -0.07857544 0.35875082 0.00078266
v -0.07357656 0.35185774 -0.00021374
v -0.07117093 0.35068445 0.00117135
v -0.08578750 0.41992569 -0.00435052
v -0.05078569 0.34761319 -0.00101272
v -0.06993444 0.34807908 -0.00022300
v -0.06732675 0.34677637 0.00102945
v -0.06592668 0.34405883 -0.00047287
v -0.06317464 0.34277340 0.00071480
v -0.06179863 0.34029742 -0.00083997
v -0.05939300 0.33935705 0.00015644
v -0.05725681 0.33652736 -0.00154331
v -0.05244075 0.33324043 -0.00193200
v -0.05078569 0.33272281 -0.00099421
v -0.08614353 0.41992569 -0.01309607
v -0.05078569 0.34622423 -0.00986006
v -0.05078569 0.33295573 -0.01440096
v -0.05172869 0.33336120 -0.01356805
v -0.05501958 0.33545760 -0.01321637
v -0.05439893 0.33607874 -0.01725135
v -0.05637154 0.33755399 -0.01723593
v -0.05881565 0.33951234 -0.01723593
v -0.06074497 0.34118601 -0.01727295
v -0.06291003 0.34319612 -0.01732231
v -0.06491631 0.34516312 -0.01737166
v -0.07007878 0.34765633 -0.00880504
v -0.06576309 0.34411922 -0.01186830
v -0.07238818 0.34920058 -0.00456029
v -0.07781045 0.35541213 -0.00204923
v -0.07603991 0.35336750 -0.00202146
v -0.07411060 0.35119345 -0.00201838
v -0.07239299 0.34931276 -0.00203072
v -0.08577788 0.41992569 -0.00466826
v -0.05078569 0.34715598 -0.00426723
v -0.08592221 0.41992569 -0.00877111
v -0.07048773 0.34738890 -0.00209242
v -0.06843815 0.34537017 -0.00216028
v -0.06646072 0.34349807 -0.00220347
v -0.06411284 0.34141030 -0.00222815
v -0.06224607 0.33991781 -0.00220964
v -0.05907065 0.33757123 -0.00217879
v -0.05761766 0.33629445 -0.00278651
v -0.05584230 0.33535407 -0.00209550
v -0.05094446 0.33188596 -0.00475155
v -0.05078569 0.33202400 -0.00330476
v -0.05078569 0.33222243 -0.00207699
v -0.05078569 0.33225695 -0.00187031
v -0.05078569 0.33259339 -0.01282151
v -0.05739153 0.33644970 -0.00885749
v -0.05700181 0.33689832 -0.01320404
v -0.05078569 0.33243810 -0.01189606
v -0.05542854 0.33505212 -0.00888216
v -0.05983564 0.33914138 -0.01291714
v -0.06126458 0.34067700 -0.01404620
v -0.07048773 0.34728537 -0.00460040
v -0.06609507 0.34374826 -0.00884515
v -0.06165910 0.34026290 -0.01142408
v -0.06843334 0.34530113 -0.00464667
v -0.06646553 0.34341179 -0.00466826
v -0.06418500 0.34135854 -0.00468986
v -0.06230381 0.33978842 -0.00470528
v -0.05765614 0.33625993 -0.00359782
v -0.05270056 0.33297300 -0.00473304
v -0.05078569 0.33203263 -0.00888216
v -0.05078569 0.33179971 -0.00475464
v -0.05754549 0.33629445 -0.00589603
v -0.05920537 0.33744184 -0.00473304
v -0.05962876 0.33819238 -0.00884206
v -0.05078569 0.33204125 -0.00896854
v -0.05253217 0.33313691 -0.00891301
v -0.05598183 0.33513840 -0.00474847
v -0.06387227 0.34172087 -0.00883281
v -0.06193816 0.34002996 -0.00882355
f 1 2 8
f 1 8 18
f 1 18 39
f 1 39 60
f 1 60 57
f 1 57 56
f 1 56 55
f 1 55 81
f 1 81 112
f 1 112 145
f 1 145 181
f 1 181 219
f 1 219 250
f 1 250 282
f 1 282 311
f 1 311 313
f 1 313 293
f 1 293 257
f 1 257 227
f 1 227 189
f 1 189 154
f 1 154 118
f 1 118 85
f 1 85 61
f 1 61 40
f 1 40 20
f 1 20 19
f 1 19 9
f 1 9 3
f 1 3 4
f 1 4 5
f 1 5 6
f 1 6 7
f 1 7 2
f 2 7 8
f 3 9 10
f 3 10 4
f 4 10 5
f 5 11 6
f 5 10 12
f 5 12 11
f 6 11 7
f 7 11 13
f 7 13 14
f 7 14 15
f 7 15 16
f 7 16 17
f 7 17 8
f 8 17 16
f 8 16 18
f 9 19 10
f 10 19 20
f 10 20 21
f 10 21 22
f 10 22 23
f 10 23 24
f 10 24 25
f 10 25 12
f 11 12 26
f 11 26 27
f 11 27 28
f 11 28 13
f 12 25 29
f 12 29 30
f 12 30 31
f 12 31 26
f 13 28 32
f 13 32 33
f 13 33 14
f 14 33 34
f 14 34 35
f 14 35 36
f 14 36 15
f 15 36 37
f 15 37 16
f 16 38 39
f 16 39 18
f 16 37 38
f 20 40 21
f 21 41 22
f 21 40 42
f 21 42 43
f 21 43 41
f 22 41 43
f 22 43 23
f 23 43 44
f 23 44 45
f 23 45 25
f 23 25 24
f 25 45 29
f 26 31 27
f 27 46 28
f 27 31 47
f 27 47 46
f 28 46 32
f 29 45 48
f 29 48 49
f 29 49 50
f 29 50 30
f 30 50 31
f 31 50 51
f 31 51 47
f 32 46 52
f 32 52 34
f 32 34 33
f 34 52 53
f 34 53 54
f 34 54 35
f 35 54 37
f 35 37 36
f 37 55 56
f 37 56 57
f 37 57 38
f 37 54 58
f 37 58 59
f 37 59 55
f 38 57 60
f 38 60 39
f 40 61 42
f 42 61 62
f 42 62 43
f 43 62 63
f 43 63 64
f 43 64 65
f 43 65 44
f 44 65 45
f 45 65 48
f 46 47 66
f 46 66 67
f 46 67 52
f 47 51 68
f 47 68 66
f 48 65 69
f 48 69 70
f 48 70 49
f 49 71 50
f 49 70 72
f 49 72 73
f 49 73 71
f 50 71 74
f 50 74 51
f 51 74 75
f 51 75 76
f 51 76 68
f 52 67 53
f 53 67 77
f 53 77 78
f 53 78 79
f 53 79 54
f 54 79 80
f 54 80 58
f 55 59 82
f 55 82 83
f 55 83 81
f 58 80 84
f 58 84 82
f 58 82 59
f 61 85 86
f 61 86 62
f 62 86 87
f 62 87 88
f 62 88 63
f 63 88 89
f 63 89 64
f 64 89 90
f 64 90 91
f 64 91 69
f 64 69 65
f 66 68 92
f 66 92 93
f 66 93 94
f 66 94 67
f 67 94 77
f 68 76 95
f 68 95 96
f 68 96 97
f 68 97 93
f 68 93 92
f 69 91 98
f 69 98 70
f 70 99 72
f 70 98 100
f 70 100 101
f 70 101 102
f 70 102 99
f 71 73 74
f 72 99 73
f 73 99 103
f 73 103 104
f 73 104 105
f 73 105 96
f 73 96 75
f 73 75 74
f 75 96 76
f 76 96 95
f 77 106 78
f 77 94 106
f 78 106 107
f 78 107 108
f 78 108 109
f 78 109 79
f 79 109 110
f 79 110 80
f 80 110 111
f 80 111 84
f 81 83 112
f 82 84 113
f 82 113 114
f 82 114 115
f 82 115 83
f 83 115 116
f 83 116 152
f 83 152 188
f 83 188 226
f 83 226 256
f 83 256 292
f 83 292 325
f 83 325 324
f 83 324 323
f 83 323 343
f 83 343 342
f 83 342 347
f 83 347 329
f 83 329 326
f 83 326 295
f 83 295 260
f 83 260 229
f 83 229 191
f 83 191 156
f 83 156 119
f 83 119 155
f 83 155 190
f 83 190 228
f 83 228 259
f 83 259 258
f 83 258 294
f 83 294 312
f 83 312 283
f 83 283 251
f 83 251 220
f 83 220 182
f 83 182 153
f 83 153 117
f 83 117 112
f 84 111 113
f 85 118 119
f 85 119 120
f 85 120 121
f 85 121 87
f 85 87 86
f 87 121 88
f 88 121 90
f 88 90 89
f 90 98 91
f 90 121 122
f 90 122 123
f 90 123 124
f 90 124 125
f 90 125 98
f 93 97 126
f 93 126 127
f 93 127 106
f 93 106 94
f 96 105 128
f 96 128 129
f 96 129 97
f 97 129 126
f 98 125 124
f 98 124 100
f 99 102 130
f 99 130 131
f 99 131 132
f 99 132 103
f 100 124 133
f 100 133 101
f 101 134 135
f 101 135 136
f 101 136 131
f 101 131 137
f 101 137 102
f 101 133 138
f 101 138 134
f 102 137 131
f 102 131 130
f 103 132 104
f 104 132 105
f 105 132 139
f 105 139 140
f 105 140 128
f 106 127 107
f 107 127 141
f 107 141 108
f 108 141 142
f 108 142 143
f 108 143 144
f 108 144 109
f 109 144 110
f 110 144 111
f 111 144 113
f 112 117 145
f 113 144 146
f 113 146 147
f 113 147 115
f 113 115 114
f 115 148 149
f 115 149 116
f 115 147 150
f 115 150 148
f 116 149 151
f 116 151 152
f 117 153 145
f 118 154 119
f 119 156 157
f 119 157 158
f 119 158 159
f 119 159 160
f 119 160 120
f 119 154 155
f 120 160 122
f 120 122 121
f 122 160 161
f 122 161 123
f 123 161 162
f 123 162 124
f 124 162 163
f 124 163 164
f 124 164 133
f 126 129 165
f 126 165 166
f 126 166 167
f 126 167 127
f 127 167 141
f 128 140 129
f 129 140 168
f 129 168 166
f 129 166 165
f 131 136 135
f 131 135 169
f 131 169 170
f 131 170 171
f 131 171 172
f 131 172 132
f 132 172 139
f 133 164 138
f 134 138 135
f 135 138 169
f 138 164 173
f 138 173 174
f 138 174 169
f 139 172 175
f 139 175 176
f 139 176 168
f 139 168 140
f 141 167 177
f 141 177 142
f 142 177 178
f 142 178 143
f 143 178 179
f 143 179 180
f 143 180 146
f 143 146 144
f 145 153 182
f 145 182 181
f 146 180 183
f 146 183 184
f 146 184 147
f 147 184 150
f 148 185 149
f 148 150 185
f 149 185 186
f 149 186 151
f 150 184 187
f 150 187 185
f 151 186 152
f 152 186 188
f 154 189 190
f 154 190 155
f 156 191 192
f 156 192 193
f 156 193 157
f 157 193 194
f 157 194 195
f 157 195 196
f 157 196 159
f 157 159 158
f 159 196 197
f 159 197 160
f 160 198 199
f 160 199 161
f 160 197 198
f 161 199 162
f 162 199 200
f 162 200 164
f 162 164 163
f 164 200 201
f 164 201 173
f 166 168 167
f 167 168 202
f 167 202 177
f 168 176 202
f 169 203 170
f 169 174 173
f 169 173 204
f 169 204 205
f 169 205 206
f 169 206 203
f 170 203 207
f 170 207 208
f 170 208 171
f 171 209 172
f 171 208 209
f 172 209 175
f 173 201 210
f 173 210 211
f 173 211 204
f 175 209 176
f 176 209 208
f 176 208 212
f 176 212 213
f 176 213 214
f 176 214 202
f 177 213 215
f 177 215 216
f 177 216 178
f 177 202 214
f 177 214 213
f 178 216 179
f 179 216 217
f 179 217 180
f 180 217 218
f 180 218 183
f 181 182 220
f 181 220 219
f 183 218 221
f 183 221 184
f 184 221 222
f 184 222 223
f 184 223 187
f 185 223 224
f 185 224 186
f 185 187 223
f 186 224 188
f 188 224 225
f 188 225 226
f 189 227 228
f 189 228 190
f 191 229 192
f 192 230 231
f 192 231 194
f 192 194 193
f 192 229 230
f 194 231 195
f 195 231 232
f 195 232 196
f 196 232 233
f 196 233 197
f 197 233 234
f 197 234 198
f 198 234 201
f 198 201 200
f 198 200 199
f 201 211 210
f 201 234 235
f 201 235 236
f 201 236 211
f 203 237 238
f 203 238 239
f 203 239 207
f 203 206 237
f 204 211 206
f 204 206 205
f 206 240 241
f 206 241 238
f 206 238 237
f 206 211 242
f 206 242 240
f 207 212 208
f 207 239 212
f 211 236 242
f 212 243 215
f 212 215 213
f 212 239 244
f 212 244 245
f 212 245 243
f 215 243 216
f 216 246 247
f 216 247 217
f 216 243 246
f 217 247 248
f 217 248 249
f 217 249 218
f 218 249 221
f 219 220 251
f 219 251 250
f 221 252 222
f 221 249 252
f 222 252 253
f 222 253 223
f 223 254 224
f 223 253 254
f 224 254 255
f 224 255 225
f 225 255 256
f 225 256 226
f 227 257 258
f 227 258 259
f 227 259 228
f 229 260 261
f 229 261 262
f 229 262 263
f 229 263 230
f 230 263 262
f 230 262 264
f 230 264 231
f 231 264 265
f 231 265 266
f 231 266 267
f 231 267 232
f 232 268 233
f 232 267 268
f 233 268 269
f 233 269 234
f 234 269 270
f 234 270 235
f 235 270 236
f 236 270 271
f 236 271 272
f 236 272 273
f 236 273 242
f 238 244 239
f 238 241 244
f 240 274 241
f 240 242 275
f 240 275 274
f 241 274 276
f 241 276 244
f 242 273 277
f 242 277 275
f 243 245 246
f 244 276 245
f 245 247 246
f 245 276 274
f 245 274 278
f 245 278 279
f 245 279 247
f 247 279 248
f 248 279 278
f 248 278 280
f 248 280 249
f 249 280 281
f 249 281 252
f 250 251 283
f 250 283 282
f 252 284 285
f 252 285 253
f 252 281 284
f 253 285 286
f 253 286 287
f 253 287 254
f 254 288 289
f 254 289 255
f 254 287 288
f 255 290 291
f 255 291 292
f 255 292 256
f 255 289 288
f 255 288 290
f 257 293 258
f 258 293 294
f 260 295 261
f 261 295 296
f 261 296 297
f 261 297 298
f 261 298 262
f 262 299 265
f 262 265 264
f 262 298 299
f 265 300 266
f 265 299 300
f 266 300 301
f 266 301 267
f 267 301 302
f 267 302 303
f 267 303 268
f 268 303 269
f 269 271 270
f 269 303 271
f 271 304 272
f 271 303 305
f 271 305 304
f 272 304 306
f 272 306 273
f 273 306 277
f 274 275 307
f 274 307 278
f 275 308 307
f 275 277 308
f 277 306 309
f 277 309 308
f 278 307 308
f 278 308 309
f 278 309 280
f 280 309 310
f 280 310 284
f 280 284 281
f 282 283 311
f 283 312 293
f 283 293 313
f 283 313 311
f 284 310 314
f 284 314 315
f 284 315 286
f 284 286 285
f 286 316 317
f 286 317 288
f 286 288 287
f 286 315 316
f 288 317 318
f 288 318 290
f 290 319 320
f 290 320 321
f 290 321 291
f 290 318 319
f 291 322 323
f 291 323 324
f 291 324 325
f 291 325 292
f 291 321 320
f 291 320 322
f 293 312 294
f 295 326 296
f 296 326 297
f 297 327 328
f 297 328 298
f 297 326 329
f 297 329 330
f 297 330 327
f 298 328 299
f 299 328 300
f 300 331 332
f 300 332 301
f 300 328 331
f 301 332 305
f 301 305 302
f 302 305 303
f 304 333 306
f 304 305 334
f 304 334 333
f 305 332 335
f 305 335 334
f 306 310 309
f 306 333 314
f 306 314 310
f 314 333 315
f 315 333 336
f 315 336 337
f 315 337 316
f 316 337 338
f 316 338 317
f 317 338 339
f 317 339 318
f 318 339 340
f 318 340 320
f 318 320 319
f 320 340 341
f 320 341 322
f 322 342 343
f 322 343 323
f 322 341 342
f 327 344 345
f 327 345 339
f 327 339 346
f 327 346 328
f 327 330 344
f 328 346 335
f 328 335 331
f 329 347 348
f 329 348 330
f 330 348 349
f 330 349 344
f 331 335 332
f 333 334 336
f 334 337 336
f 334 335 350
f 334 350 337
f 335 346 351
f 335 351 350
f 337 350 338
f 338 351 339
f 338 350 351
f 339 345 340
f 339 351 346
f 340 345 344
f 340 344 349
f 340 349 341
f 341 348 342
f 341 349 348
f 342 348 347

