# https://github.com/mikedh/trimesh
v 0.25709300 -0.22445788 -0.01021615
v 0.25732947 -0.22467699 -0.01240257
v 0.25738715 -0.22845673 -0.01229283
v 0.25709876 -0.22464959 -0.01022178
v 0.25719681 -0.22445788 -0.00580954
v 0.25732947 -0.22445788 -0.01240539
v 0.26036895 -0.22445788 -0.02149156
v 0.25746213 -0.23038768 -0.01217183
v 0.25723142 -0.22845673 -0.01021334
v 0.25732947 -0.22445788 -0.00345991
v 0.25731794 -0.22848411 -0.00706455
v 0.25735831 -0.22639568 -0.00414932
v 0.26149939 -0.22445788 -0.02391998
v 0.26188580 -0.22868269 -0.02421263
v 0.26039778 -0.22499196 -0.02147187
v 0.25740445 -0.23055886 -0.01017957
v 0.26062849 -0.22856629 -0.02138463
v 0.26264711 -0.24043275 -0.02373989
v 0.26288935 -0.24305529 -0.02357387
v 0.25896168 -0.24377425 -0.00997978
v 0.25839644 -0.24024788 -0.00996290
v 0.25796966 -0.23628326 -0.01002481
v 0.25741599 -0.23033291 -0.00768080
v 0.25787161 -0.22867585 -0.00151267
v 0.25753708 -0.22445788 -0.00209234
v 0.25744483 -0.22857313 -0.00474588
v 0.26168972 -0.22445788 -0.02429142
v 0.26171280 -0.22506728 -0.02428298
v 0.26348917 -0.22875801 -0.02471351
v 0.26369680 -0.23246243 -0.02464879
v 0.26209920 -0.23211322 -0.02410289
v 0.26235875 -0.23631749 -0.02393124
v 0.26395058 -0.23673518 -0.02445463
v 0.26425624 -0.24080250 -0.02423514
v 0.26572122 -0.25212118 -0.02361889
v 0.26630950 -0.25459306 -0.02351196
v 0.26461961 -0.25201848 -0.02140714
v 0.26214535 -0.25548323 -0.01160905
v 0.26073231 -0.25225128 -0.01000511
v 0.25980374 -0.24806756 -0.01000229
v 0.25898475 -0.24371263 -0.00625696
v 0.25978067 -0.24797854 -0.00636389
v 0.25843682 -0.24009038 -0.00612189
v 0.25802734 -0.23622162 -0.00602903
v 0.25763513 -0.23190779 -0.00608812
v 0.25954419 -0.22860737 0.00178525
v 0.25763513 -0.22445788 -0.00153237
v 0.25762936 -0.22488241 -0.00166744
v 0.25814846 -0.23231178 -0.00149298
v 0.25978643 -0.23233234 0.00185560
v 0.26339114 -0.22445788 -0.02458970
v 0.26338538 -0.22501252 -0.02460658
v 0.30599006 -0.29441043 -0.02375396
v 0.30217771 -0.29189061 -0.02390591
v 0.29872876 -0.29147292 -0.02403817
v 0.29472608 -0.28763839 -0.02408038
v 0.29087338 -0.28370118 -0.02410852
v 0.27561251 -0.26770575 -0.02390310
v 0.27179443 -0.26020791 -0.02393687
v 0.26809166 -0.25246353 -0.02399314
v 0.26914136 -0.25961904 -0.02366392
v 0.26998919 -0.26268665 -0.02353447
v 0.27072166 -0.26508323 -0.02325871
v 0.26691508 -0.25682532 -0.02294355
v 0.26249718 -0.25694173 -0.01128263
v 0.26173010 -0.25545584 -0.01002762
v 0.26173587 -0.25548323 -0.00657212
v 0.26071501 -0.25213486 -0.00645112
v 0.25957303 -0.24385643 -0.00168714
v 0.25898475 -0.24009722 -0.00159146
v 0.26038048 -0.24804702 -0.00178000
v 0.25852333 -0.23624902 -0.00151830
v 0.26096876 -0.22849096 0.00297554
v 0.25936539 -0.22465645 0.00168676
v 0.25928464 -0.22445788 0.00159390
v 0.26110718 -0.23226386 0.00300087
v 0.26046123 -0.24008354 0.00182465
v 0.26035164 -0.23626272 0.00209478
v 0.26123407 -0.23498225 0.00299524
v 0.26352954 -0.22445788 -0.02451091
v 0.30866043 -0.29441043 -0.02349789
v 0.30265643 -0.29441043 -0.02390310
v 0.29136361 -0.28712485 -0.02386370
v 0.29916708 -0.29441043 -0.02366110
v 0.28770702 -0.28320816 -0.02391435
v 0.28356017 -0.27939419 -0.02385245
v 0.27293061 -0.26715796 -0.02355136
v 0.27185207 -0.26400820 -0.02369205
v 0.27384765 -0.26949978 -0.02339659
v 0.27128687 -0.26673345 -0.02197837
v 0.26915290 -0.27035569 -0.01016550
v 0.26711695 -0.26696624 -0.01013736
v 0.26614223 -0.26480249 -0.01101531
v 0.26500028 -0.26313856 -0.01008390
v 0.27334012 -0.27008179 -0.02163507
v 0.26317197 -0.25917396 -0.01007264
v 0.26313737 -0.25930406 -0.00669311
v 0.26245680 -0.25745527 -0.00665935
v 0.26254906 -0.25728409 -0.00424500
v 0.26221456 -0.25531206 -0.00233715
v 0.26133213 -0.25212804 -0.00187848
v 0.26197808 -0.25210750 0.00091012
v 0.26137250 -0.24806070 0.00142225
v 0.26086494 -0.24395229 0.00169239
v 0.26232991 -0.25409321 0.00052180
v 0.26089378 -0.22449211 0.00291082
v 0.26088224 -0.22445788 0.00290238
v 0.26317197 -0.24000822 0.00343140
v 0.26314890 -0.23220908 0.00336105
v 0.25936539 -0.22445788 0.00168113
v 0.26190887 -0.24395229 0.00278982
v 0.26159167 -0.24003560 0.00291926
v 0.26140711 -0.23754317 0.00296710
v 0.26334500 -0.24396598 0.00340607
v 0.26442928 -0.22445788 -0.02396782
v 0.30955440 -0.29441043 -0.02254116
v 0.29849805 -0.29441043 -0.02356824
v 0.29632368 -0.29336280 -0.02342192
v 0.28841065 -0.28630316 -0.02340785
v 0.28514047 -0.28272885 -0.02356261
v 0.28230861 -0.28047608 -0.02341910
v 0.28096479 -0.27799734 -0.02359919
v 0.27845015 -0.27628550 -0.02286757
v 0.27030061 -0.27214969 -0.01014862
v 0.27150604 -0.27472430 -0.00642861
v 0.27009877 -0.27248522 -0.00652991
v 0.26897986 -0.27071173 -0.00654398
v 0.26587118 -0.26532971 -0.00918063
v 0.27469547 -0.27199905 -0.02158724
v 0.27389956 -0.27664840 -0.01171879
v 0.26468306 -0.26288523 -0.00665935
v 0.26538092 -0.26322075 -0.00220771
v 0.26341998 -0.25875627 -0.00248911
v 0.26276246 -0.25629807 -0.00105119
v 0.26326426 -0.25546269 0.00132377
v 0.26270479 -0.25206642 0.00202162
v 0.26226070 -0.24799222 0.00252531
v 0.26630950 -0.26475456 -0.00065442
v 0.26568661 -0.26205670 0.00093826
v 0.26495991 -0.25948209 0.00158828
v 0.26328733 -0.22840195 0.00328507
v 0.26143018 -0.22445788 0.00296429
v 0.26716886 -0.24395229 0.00389570
v 0.26735919 -0.23994659 0.00389288
v 0.26393905 -0.25211432 0.00312749
v 0.26356415 -0.24797854 0.00330477
v 0.26693815 -0.24792375 0.00380284
v 0.26958545 -0.22445788 -0.01260799
v 0.30998118 -0.29441043 -0.02175044
v 0.29706195 -0.29441043 -0.02267904
v 0.29390132 -0.29215081 -0.02276627
v 0.28995058 -0.28839161 -0.02316585
v 0.28624205 -0.28471459 -0.02329529
v 0.27753311 -0.28126352 -0.01198330
v 0.28122430 -0.28539248 -0.01210148
v 0.27200203 -0.27471059 -0.01009797
v 0.27185207 -0.27472430 -0.00199948
v 0.27349008 -0.27762756 -0.00631323
v 0.27368038 -0.27744953 -0.00195727
v 0.27027754 -0.27218392 -0.00203888
v 0.26921057 -0.27038306 -0.00204732
v 0.26709388 -0.26747981 -0.00656930
v 0.26590002 -0.26534342 -0.00660026
v 0.27517996 -0.27916822 -0.01001355
v 0.27367462 -0.27713457 -0.01003325
v 0.26605572 -0.26517225 -0.00377507
v 0.26459077 -0.25593515 0.00291645
v 0.26532901 -0.25868094 0.00271947
v 0.26715155 -0.26676767 -0.00214862
v 0.26955084 -0.26974626 0.00088761
v 0.26859343 -0.26730860 0.00152074
v 0.26660942 -0.26328920 0.00159109
v 0.26606148 -0.26084472 0.00250843
v 0.26346610 -0.22445788 0.00316970
v 0.26750915 -0.23598882 0.00380002
v 0.27520300 -0.25229236 0.00397449
v 0.29059653 -0.27934625 0.00403358
v 0.27136761 -0.24421248 0.00390695
v 0.26678245 -0.25612004 0.00336668
v 0.26676515 -0.25206642 0.00360868
v 0.27438978 -0.26802074 0.00353833
v 0.27875004 -0.27183470 0.00368184
v 0.28316797 -0.27549803 0.00381691
v 0.28704373 -0.27927095 0.00389851
v 0.26963736 -0.22445788 -0.01234630
v 0.31601401 -0.29441043 -0.00393828
v 0.31570832 -0.29441043 -0.00509480
v 0.29625446 -0.29441043 -0.02168010
v 0.29018129 -0.29441043 -0.01075361
v 0.28903931 -0.29297933 -0.01201707
v 0.28511163 -0.28939134 -0.01211555
v 0.27879041 -0.28371486 -0.01000229
v 0.27721588 -0.28180445 -0.01001074
v 0.28272965 -0.28796709 -0.00998822
v 0.28076291 -0.28588547 -0.00999104
v 0.27394570 -0.27701815 0.00063998
v 0.27496079 -0.27961331 -0.00626821
v 0.27519150 -0.27947635 -0.00194320
v 0.26797631 -0.26348095 0.00286861
v 0.26896256 -0.26635684 0.00269134
v 0.27287870 -0.27468319 0.00141100
v 0.27073319 -0.27103358 0.00155169
v 0.26997188 -0.26882872 0.00235648
v 0.26765908 -0.23220908 0.00365651
v 0.26778021 -0.22836772 0.00349331
v 0.26788403 -0.22445788 0.00330477
v 0.27120612 -0.24024788 0.00378595
v 0.30652643 -0.29441043 0.00391821
v 0.30916219 -0.29441043 0.00386474
v 0.29062537 -0.28311914 0.00387037
v 0.27064668 -0.26396712 0.00338638
v 0.27443016 -0.27187578 0.00332447
v 0.27870966 -0.27572400 0.00351019
v 0.28287381 -0.27960645 0.00357210
v 0.27008724 -0.22445788 -0.00966181
v 0.31589289 -0.29441043 -0.00226399
v 0.27039290 -0.22445788 -0.00492878
v 0.27054863 -0.22445788 -0.00038147
v 0.27046211 -0.22445788 0.00240150
v 0.28978331 -0.29441043 -0.00995727
v 0.28857215 -0.29342442 -0.00996571
v 0.28662272 -0.29176052 -0.00997134
v 0.28459254 -0.28985693 -0.00997415
v 0.27860584 -0.28409147 -0.00626258
v 0.27700248 -0.28217420 -0.00625414
v 0.28244126 -0.28824097 -0.00630479
v 0.28052644 -0.28618678 -0.00628228
v 0.27756771 -0.28158534 0.00080319
v 0.27595281 -0.27883955 0.00145321
v 0.27429753 -0.27597052 0.00212855
v 0.27720435 -0.28201674 -0.00193476
v 0.27204818 -0.27141019 0.00280671
v 0.27072166 -0.26789750 0.00297554
v 0.27298829 -0.27352600 0.00264631
v 0.27043327 -0.22853889 0.00333010
v 0.27011608 -0.22445788 0.00314719
v 0.30282370 -0.29441043 0.00363963
v 0.28671500 -0.28333825 0.00356928
v 0.30987736 -0.29441043 0.00373530
v 0.27498386 -0.27518990 0.00290801
v 0.27894614 -0.27961331 0.00293896
v 0.28267774 -0.28358477 0.00291645
v 0.31577754 -0.29441043 -0.00155207
v 0.27034099 -0.22445788 0.00266882
v 0.28944881 -0.29441043 -0.00827736
v 0.28829530 -0.29373255 -0.00628228
v 0.28631126 -0.29200703 -0.00630198
v 0.28429841 -0.29007605 -0.00630479
v 0.27878464 -0.28389975 -0.00192913
v 0.28254508 -0.28806293 -0.00192069
v 0.28070524 -0.28604982 -0.00192632
v 0.28445988 -0.28997335 -0.00190662
v 0.27806948 -0.28072942 0.00224111
v 0.28109741 -0.28548832 0.00095514
v 0.27959786 -0.28316022 0.00156858
v 0.27661030 -0.27805896 0.00268852
v 0.31212671 -0.29441043 0.00329070
v 0.31320522 -0.29441043 0.00239306
v 0.31383390 -0.29441043 0.00173179
v 0.31483166 -0.29441043 0.00035859
v 0.31499316 -0.29441043 0.00013347
v 0.29503177 -0.29441043 0.00276731
v 0.29039466 -0.28737137 0.00342014
v 0.29040043 -0.29138391 0.00275606
v 0.28649583 -0.28759048 0.00286580
v 0.28035341 -0.28250288 0.00261255
v 0.28394658 -0.28627579 0.00260410
v 0.28910275 -0.29441043 -0.00627103
v 0.28838181 -0.29357505 -0.00190662
v 0.28925848 -0.29441043 -0.00370191
v 0.28642085 -0.29186322 -0.00189537
v 0.28491553 -0.28949404 0.00100298
v 0.28155883 -0.28464612 0.00230020
v 0.28324872 -0.28711800 0.00164174
v 0.29354952 -0.29441043 0.00258441
v 0.28768972 -0.29018560 0.00253657
v 0.29177312 -0.29352712 0.00250280
v 0.28546343 -0.28878190 0.00229739
v 0.28875092 -0.29305466 0.00097765
v 0.28939690 -0.29441043 -0.00191225
v 0.28708411 -0.29091828 0.00164455
v 0.29264978 -0.29441043 0.00237336
v 0.28935653 -0.29232199 0.00228050
v 0.28985253 -0.29441043 -0.00061784
v 0.29109832 -0.29441043 0.00147572
v 0.29118481 -0.29441043 0.00154888
f 1 2 3
f 1 3 4
f 1 4 5
f 1 5 10
f 1 10 25
f 1 25 47
f 1 47 75
f 1 75 110
f 1 110 107
f 1 107 142
f 1 142 174
f 1 174 206
f 1 206 236
f 1 236 244
f 1 244 219
f 1 219 218
f 1 218 217
f 1 217 215
f 1 215 185
f 1 185 148
f 1 148 115
f 1 115 80
f 1 80 51
f 1 51 27
f 1 27 13
f 1 13 7
f 1 7 6
f 1 6 2
f 2 6 7
f 2 7 3
f 3 8 9
f 3 9 4
f 3 7 8
f 4 9 5
f 5 9 11
f 5 11 12
f 5 12 10
f 7 13 14
f 7 14 15
f 7 15 8
f 8 16 9
f 8 15 17
f 8 17 18
f 8 18 19
f 8 19 20
f 8 20 21
f 8 21 22
f 8 22 16
f 9 16 23
f 9 23 11
f 10 12 24
f 10 24 25
f 11 23 26
f 11 26 12
f 12 26 24
f 13 27 28
f 13 28 14
f 14 17 15
f 14 28 29
f 14 29 30
f 14 30 31
f 14 31 17
f 16 22 23
f 17 31 32
f 17 32 18
f 18 32 33
f 18 33 34
f 18 34 19
f 19 34 35
f 19 35 36
f 19 36 37
f 19 37 38
f 19 38 39
f 19 39 40
f 19 40 20
f 20 41 21
f 20 40 42
f 20 42 41
f 21 41 43
f 21 43 22
f 22 43 44
f 22 44 23
f 23 44 45
f 23 45 26
f 24 46 47
f 24 47 48
f 24 48 25
f 24 26 49
f 24 49 50
f 24 50 46
f 25 48 47
f 26 45 44
f 26 44 49
f 27 51 52
f 27 52 29
f 27 29 28
f 29 52 51
f 29 51 53
f 29 53 54
f 29 54 55
f 29 55 56
f 29 56 57
f 29 57 30
f 30 33 32
f 30 32 31
f 30 57 58
f 30 58 33
f 33 58 59
f 33 59 60
f 33 60 34
f 34 60 61
f 34 61 35
f 35 61 36
f 36 61 62
f 36 62 63
f 36 63 64
f 36 64 65
f 36 65 37
f 37 65 38
f 38 65 39
f 39 65 66
f 39 66 67
f 39 67 68
f 39 68 42
f 39 42 40
f 41 42 69
f 41 69 70
f 41 70 43
f 42 68 71
f 42 71 69
f 43 70 72
f 43 72 44
f 44 72 49
f 46 73 74
f 46 74 75
f 46 75 47
f 46 50 76
f 46 76 73
f 49 72 77
f 49 77 50
f 50 77 78
f 50 78 79
f 50 79 76
f 51 80 81
f 51 81 53
f 53 81 116
f 53 116 149
f 53 149 187
f 53 187 186
f 53 186 216
f 53 216 243
f 53 243 261
f 53 261 260
f 53 260 259
f 53 259 258
f 53 258 257
f 53 257 239
f 53 239 209
f 53 209 208
f 53 208 237
f 53 237 262
f 53 262 275
f 53 275 282
f 53 282 286
f 53 286 285
f 53 285 284
f 53 284 280
f 53 280 270
f 53 270 268
f 53 268 245
f 53 245 220
f 53 220 189
f 53 189 188
f 53 188 150
f 53 150 117
f 53 117 84
f 53 84 82
f 53 82 54
f 54 82 55
f 55 83 56
f 55 82 84
f 55 84 83
f 56 83 85
f 56 85 57
f 57 85 86
f 57 86 58
f 58 86 87
f 58 87 88
f 58 88 61
f 58 61 59
f 59 61 60
f 61 88 62
f 62 88 87
f 62 87 89
f 62 89 63
f 63 90 91
f 63 91 92
f 63 92 93
f 63 93 94
f 63 94 65
f 63 65 64
f 63 89 95
f 63 95 90
f 65 94 96
f 65 96 66
f 66 96 97
f 66 97 98
f 66 98 67
f 67 98 99
f 67 99 68
f 68 99 100
f 68 100 101
f 68 101 71
f 69 71 102
f 69 102 103
f 69 103 70
f 70 103 104
f 70 104 72
f 71 101 105
f 71 105 102
f 72 104 77
f 73 106 107
f 73 107 74
f 73 76 108
f 73 108 109
f 73 109 106
f 74 107 110
f 74 110 75
f 76 79 108
f 77 104 111
f 77 111 112
f 77 112 78
f 78 112 113
f 78 113 79
f 79 113 114
f 79 114 108
f 80 115 81
f 81 115 116
f 83 84 117
f 83 117 118
f 83 118 119
f 83 119 120
f 83 120 85
f 85 120 86
f 86 120 121
f 86 121 122
f 86 122 87
f 87 122 89
f 89 122 121
f 89 121 123
f 89 123 95
f 90 95 124
f 90 124 91
f 91 124 125
f 91 125 126
f 91 126 127
f 91 127 128
f 91 128 92
f 92 128 93
f 93 128 94
f 94 128 96
f 95 123 129
f 95 129 130
f 95 130 124
f 96 128 131
f 96 131 97
f 97 131 99
f 97 99 98
f 99 131 132
f 99 132 133
f 99 133 134
f 99 134 100
f 100 134 105
f 100 105 101
f 102 105 135
f 102 135 136
f 102 136 103
f 103 136 137
f 103 137 104
f 104 137 111
f 105 134 138
f 105 138 139
f 105 139 140
f 105 140 135
f 106 109 141
f 106 141 142
f 106 142 107
f 108 114 143
f 108 143 144
f 108 144 109
f 109 144 141
f 111 137 145
f 111 145 146
f 111 146 112
f 112 146 113
f 113 146 114
f 114 146 147
f 114 147 143
f 115 148 149
f 115 149 116
f 117 150 118
f 118 150 151
f 118 151 152
f 118 152 153
f 118 153 119
f 119 153 120
f 120 153 121
f 121 154 123
f 121 153 155
f 121 155 154
f 123 154 130
f 123 130 129
f 124 156 125
f 124 130 156
f 125 157 127
f 125 127 126
f 125 156 158
f 125 158 159
f 125 159 157
f 127 157 160
f 127 160 161
f 127 161 162
f 127 162 128
f 128 163 131
f 128 162 163
f 130 154 164
f 130 164 165
f 130 165 156
f 131 163 166
f 131 166 132
f 132 166 138
f 132 138 133
f 133 138 134
f 135 167 136
f 135 140 168
f 135 168 167
f 136 167 137
f 137 167 145
f 138 166 169
f 138 169 161
f 138 161 170
f 138 170 171
f 138 171 139
f 139 171 172
f 139 172 173
f 139 173 140
f 140 173 168
f 141 174 142
f 141 144 175
f 141 175 174
f 143 176 144
f 143 147 177
f 143 177 176
f 144 176 178
f 144 178 175
f 145 167 179
f 145 179 180
f 145 180 146
f 146 180 147
f 147 180 181
f 147 181 182
f 147 182 183
f 147 183 184
f 147 184 177
f 148 185 186
f 148 186 187
f 148 187 149
f 150 188 151
f 151 188 189
f 151 189 190
f 151 190 191
f 151 191 152
f 152 191 153
f 153 191 155
f 154 155 192
f 154 192 193
f 154 193 164
f 155 191 194
f 155 194 195
f 155 195 192
f 156 165 158
f 157 159 196
f 157 196 160
f 158 165 164
f 158 164 197
f 158 197 159
f 159 197 198
f 159 198 196
f 160 196 170
f 160 170 161
f 161 169 166
f 161 166 162
f 162 166 163
f 164 193 197
f 167 168 199
f 167 199 179
f 168 173 200
f 168 200 199
f 170 196 201
f 170 201 202
f 170 202 203
f 170 203 171
f 171 203 200
f 171 200 172
f 172 200 173
f 174 175 204
f 174 204 205
f 174 205 206
f 175 178 207
f 175 207 204
f 176 177 208
f 176 208 209
f 176 209 178
f 177 184 210
f 177 210 208
f 178 209 207
f 179 199 211
f 179 211 180
f 180 211 181
f 181 212 213
f 181 213 182
f 181 211 212
f 182 213 183
f 183 213 184
f 184 214 210
f 184 213 214
f 185 215 186
f 186 215 217
f 186 217 218
f 186 218 219
f 186 219 216
f 189 220 190
f 190 220 221
f 190 221 222
f 190 222 191
f 191 222 223
f 191 223 194
f 192 224 225
f 192 225 193
f 192 195 224
f 193 225 197
f 194 226 195
f 194 223 226
f 195 226 227
f 195 227 224
f 196 198 228
f 196 228 229
f 196 229 230
f 196 230 201
f 197 225 231
f 197 231 198
f 198 231 228
f 199 200 232
f 199 232 233
f 199 233 211
f 200 203 234
f 200 234 232
f 201 230 234
f 201 234 202
f 202 234 203
f 204 207 205
f 205 235 206
f 205 207 209
f 205 209 235
f 206 235 236
f 208 210 238
f 208 238 237
f 209 239 236
f 209 236 235
f 210 214 238
f 211 233 212
f 212 232 240
f 212 240 213
f 212 233 232
f 213 240 241
f 213 241 214
f 214 241 242
f 214 242 238
f 216 219 243
f 219 244 243
f 220 245 221
f 221 245 246
f 221 246 222
f 222 246 247
f 222 247 223
f 223 247 248
f 223 248 226
f 224 249 231
f 224 231 225
f 224 227 250
f 224 250 251
f 224 251 249
f 226 250 227
f 226 248 252
f 226 252 250
f 228 253 229
f 228 231 249
f 228 249 254
f 228 254 255
f 228 255 253
f 229 253 230
f 230 253 234
f 232 234 240
f 234 253 256
f 234 256 240
f 236 239 257
f 236 257 258
f 236 258 259
f 236 259 260
f 236 260 261
f 236 261 244
f 237 238 263
f 237 263 264
f 237 264 262
f 238 242 265
f 238 265 263
f 240 256 241
f 241 256 266
f 241 266 267
f 241 267 242
f 242 267 265
f 243 244 261
f 245 268 246
f 246 269 247
f 246 268 270
f 246 270 269
f 247 269 271
f 247 271 248
f 248 271 252
f 249 251 254
f 250 254 251
f 250 252 272
f 250 272 254
f 252 271 272
f 253 255 273
f 253 273 256
f 254 272 274
f 254 274 273
f 254 273 255
f 256 273 266
f 262 264 275
f 263 265 264
f 264 265 276
f 264 276 277
f 264 277 275
f 265 267 276
f 266 273 278
f 266 278 267
f 267 278 276
f 269 279 271
f 269 270 280
f 269 280 279
f 271 279 272
f 272 278 274
f 272 279 281
f 272 281 278
f 273 274 278
f 275 277 282
f 276 278 283
f 276 283 277
f 277 283 282
f 278 281 283
f 279 280 284
f 279 284 285
f 279 285 286
f 279 286 283
f 279 283 281
f 282 283 286

