# https://github.com/mikedh/trimesh
v -0.00967367 0.31997796 -0.02744606
v -0.00715344 0.32318544 -0.02729437
v -0.00732066 0.32020008 -0.02742439
v -0.00297296 0.31749016 -0.02613041
v -0.00728483 0.31749016 -0.02625114
v -0.01035449 0.31749016 -0.02564130
v -0.03055217 0.32401767 -0.02408420
v -0.03583152 0.32785597 -0.02441543
v -0.04421636 0.33478033 -0.02503146
v -0.04837295 0.33837874 -0.02530697
v -0.05078568 0.34050227 -0.02530388
v 0.00258110 0.32469885 -0.02709625
v 0.05875478 0.34774647 -0.02487358
v 0.00270054 0.31749016 -0.02561654
v 0.00703630 0.32519049 -0.02698790
v 0.03417357 0.32933680 -0.02595396
v -0.01723436 0.31749016 -0.01846251
v -0.03098216 0.32358821 -0.02236612
v -0.03277380 0.32439377 -0.02234445
v -0.03585541 0.32602863 -0.02230420
v -0.04619910 0.33283154 -0.02347126
v -0.03843536 0.32864082 -0.02405324
v -0.04386998 0.33215631 -0.02400990
v -0.04771602 0.33495507 -0.02405943
v -0.05078568 0.33842318 -0.02460117
v -0.05078568 0.34172541 -0.02492311
v 0.05748869 0.34774647 -0.02437828
v 0.06115557 0.34774647 -0.02440614
v 0.05673621 0.34571182 -0.02500979
v -0.05078568 0.34287454 -0.02445567
v -0.05078568 0.34356460 -0.02387988
v -0.05078568 0.34358535 -0.02382416
v -0.05078568 0.34426947 -0.02151172
v -0.05078568 0.34645223 -0.00845741
v -0.05078568 0.34714821 -0.00426591
v -0.05078568 0.34761022 -0.00101549
v 0.00590160 0.31749016 -0.02517696
v 0.05273489 0.34170172 -0.02523577
v 0.03866460 0.33255908 -0.02580537
v 0.04857830 0.33809442 -0.02532245
v 0.04421866 0.33464114 -0.02521720
v 0.04375284 0.33233105 -0.02414611
v 0.03874821 0.32910874 -0.02418635
v 0.03565466 0.32857270 -0.02492621
v 0.03043503 0.32511645 -0.02411206
v 0.02828507 0.32476400 -0.02449591
v -0.02128345 0.31749016 -0.01412552
v -0.03325157 0.32379552 -0.01847180
v -0.03595096 0.32514902 -0.01843156
v -0.04025088 0.32755387 -0.01819010
v -0.04373859 0.32952337 -0.01793316
v -0.04766824 0.33174165 -0.01760812
v -0.04684409 0.33238434 -0.02153648
v -0.05078568 0.33494618 -0.02124240
v -0.05078568 0.33629077 -0.02350221
v 0.05664065 0.34774647 -0.02390774
v 0.06328164 0.34774647 -0.02337529
v 0.05980587 0.34644926 -0.02449901
v -0.05078568 0.34711861 0.00082642
v 0.05879061 0.34774647 0.00417900
v 0.05581650 0.34774647 0.00380133
v 0.05403681 0.34774647 0.00320077
v 0.05308128 0.34774647 0.00286335
v 0.05243629 0.34774647 0.00227827
v 0.05171963 0.34774647 0.00132791
v 0.05076410 0.34774647 -0.00120432
v 0.05124186 0.34774647 -0.00466525
v 0.05180324 0.34774647 -0.00737703
v 0.05207796 0.34774647 -0.00868958
v 0.05254378 0.34774647 -0.01067698
v 0.05328433 0.34774647 -0.01364570
v 0.05443097 0.34774647 -0.01797959
v 0.05558956 0.34774647 -0.02176866
v 0.05615094 0.34774647 -0.02310288
v 0.00769323 0.31749016 -0.02446805
v 0.05624649 0.34226740 -0.02419873
v 0.05200629 0.33864232 -0.02424517
v 0.04757499 0.33512092 -0.02417397
v 0.04591474 0.33303592 -0.02357032
v 0.03958430 0.32864376 -0.02198226
v 0.02065271 0.31749016 -0.01838203
v 0.04151927 0.32967442 -0.02190487
v -0.02177317 0.31749016 -0.00990307
v -0.03602262 0.32424867 -0.00983806
v -0.04009561 0.32617671 -0.00969566
v -0.03598679 0.32453299 -0.01410385
v -0.04004783 0.32659431 -0.01396455
v -0.04465830 0.32911469 -0.01369832
v -0.04848045 0.33134185 -0.01373547
v -0.05078568 0.33295002 -0.01440103
v -0.05078568 0.33369341 -0.01733570
v 0.06315026 0.34714821 -0.02317717
v 0.06405802 0.34774647 -0.02298215
v 0.05948338 0.34380449 -0.02340006
v -0.05078568 0.34687869 0.00148269
v -0.05078568 0.34166323 0.00386634
v -0.00766704 0.32251017 0.00373323
v 0.00287971 0.32256052 0.00370846
v 0.05293794 0.34202159 0.00400874
v 0.06203944 0.34774647 0.00390658
v -0.05078568 0.34637819 0.00226280
v -0.05078568 0.34547193 0.00310481
v -0.05078568 0.34487070 0.00330603
v 0.05493263 0.33999579 -0.02356103
v 0.05058493 0.33663433 -0.02363223
v 0.04657167 0.33255611 -0.02146838
v 0.04381256 0.33094794 -0.02173151
v 0.05747675 0.34110052 -0.02273759
v 0.05316489 0.33757615 -0.02221752
v 0.05179130 0.33603902 -0.02107523
v 0.04856636 0.33383851 -0.02130122
v 0.04198509 0.32932792 -0.02004129
v 0.02281462 0.31749016 -0.01425554
v -0.02076985 0.31749016 -0.00654120
v -0.03188992 0.32245391 -0.00515745
v -0.03602262 0.32427827 -0.00511102
v -0.04009561 0.32610858 -0.00505839
v -0.04508829 0.32861416 -0.00491599
v -0.04821768 0.33026379 -0.00483241
v -0.04502857 0.32877407 -0.00940158
v -0.04820573 0.33048888 -0.00917250
v -0.05041541 0.33228661 -0.01252817
v -0.05078568 0.33258871 -0.01282226
v 0.06154973 0.34479963 -0.02283046
v 0.06504938 0.34774647 -0.02198226
v -0.05078568 0.33814774 0.00354129
v -0.04855212 0.33811219 0.00373942
v -0.00761926 0.31807953 0.00343295
v 0.00272443 0.31776857 0.00334627
v 0.04873358 0.33837577 0.00381371
v 0.05225712 0.33860975 0.00344843
v 0.06039114 0.34613830 0.00383228
v 0.06004476 0.34332174 0.00308314
v 0.06399829 0.34774647 0.00341747
v 0.05177935 0.33455821 -0.01713448
v 0.04935468 0.33299445 -0.01722426
v 0.04741971 0.33182755 -0.01742238
v 0.05951921 0.34197124 -0.02126097
v 0.05831284 0.34044303 -0.02029204
v 0.06226638 0.34414214 -0.02087711
v 0.05389348 0.33692754 -0.01967600
v 0.05445486 0.33635000 -0.01705090
v 0.04376478 0.32987879 -0.01815604
v 0.02273101 0.31749016 -0.01253127
v 0.04475615 0.32939010 -0.01350639
v 0.04512642 0.32894289 -0.00928085
v 0.04530559 0.32871780 -0.00500886
v -0.02061458 0.31749016 -0.00602114
v -0.03589124 0.32478769 -0.00136529
v -0.03995227 0.32653507 -0.00145507
v -0.04468219 0.32885108 -0.00156341
v -0.04806240 0.33063104 -0.00173058
v -0.05078568 0.33179200 -0.00475502
v -0.05078568 0.33198451 -0.00808283
v -0.05078568 0.33203192 -0.00888151
v -0.05078568 0.33203783 -0.00896819
v -0.05078568 0.33243469 -0.01189666
v 0.06428495 0.34614422 -0.02085854
v 0.06581381 0.34774647 -0.02086473
v -0.05078568 0.33667282 0.00317910
v -0.04818185 0.33576655 0.00327817
v -0.05041541 0.33622561 0.00310481
v -0.00991255 0.31863040 0.00325959
v -0.00901674 0.31749016 0.00265285
v -0.00763121 0.31749016 0.00299956
v -0.00652040 0.31749016 0.00310791
v 0.00268860 0.31749016 0.00317910
v 0.00740657 0.31808544 0.00321316
v 0.04327507 0.33279603 0.00308005
v 0.04823192 0.33592352 0.00330293
v 0.05066854 0.33673206 0.00311719
v 0.05539845 0.33990104 0.00318220
v 0.05668843 0.34206897 0.00351343
v 0.05791869 0.34081914 0.00277667
v 0.06218277 0.34422801 0.00273333
v 0.06377136 0.34653810 0.00310481
v 0.06571826 0.34774647 0.00290669
v 0.05724981 0.33697492 -0.01293680
v 0.05514763 0.33555629 -0.01293989
v 0.05158825 0.33333207 -0.01302967
v 0.04974884 0.33254130 -0.01444437
v 0.04832747 0.33138923 -0.01321850
v 0.06111974 0.34113901 -0.01700756
v 0.05918477 0.33968187 -0.01701995
v 0.06334136 0.34312926 -0.01698589
v 0.06532410 0.34501878 -0.01697042
v 0.05650927 0.33777160 -0.01703233
v 0.02238462 0.31749016 -0.00959041
v 0.04818415 0.33061327 -0.00897747
v 0.04827970 0.33033191 -0.00479526
v 0.04507864 0.32896364 -0.00168415
v 0.04032484 0.32664466 -0.00168724
v -0.01596828 0.31749016 -0.00183583
v -0.02834249 0.32189120 -0.00129719
v -0.03114938 0.32285668 -0.00130338
v -0.03036106 0.32335129 0.00023206
v -0.04212612 0.32825580 -0.00007132
v -0.04265167 0.32786188 -0.00150150
v -0.05014070 0.33252353 -0.00063163
v -0.05078568 0.33271901 -0.00099382
v -0.05078568 0.33225106 -0.00186988
v 0.06644686 0.34774647 -0.01969767
v 0.06718740 0.34697645 -0.01697970
v -0.05078568 0.33634112 0.00302432
v -0.03983283 0.32782339 0.00056329
v -0.04526745 0.33337056 0.00282620
v 0.00623603 0.31749016 0.00292836
v 0.00737074 0.31749016 0.00282311
v 0.03767323 0.32953523 0.00262808
v 0.04574752 0.33339722 0.00284787
v 0.05320072 0.33753171 0.00260641
v 0.05982976 0.33960783 0.00025373
v 0.05988948 0.34158030 0.00212349
v 0.05511179 0.33617527 0.00008037
v 0.06467911 0.34546304 0.00210182
v 0.06611242 0.34774647 0.00273024
v 0.05769174 0.33647142 -0.00870506
v 0.06171695 0.34057036 -0.01426173
v 0.06028364 0.33913396 -0.01294299
v 0.06220666 0.34016759 -0.01162115
v 0.05555373 0.33504097 -0.00871434
v 0.05011911 0.33217405 -0.01173259
v 0.06578993 0.34450051 -0.01480656
v 0.06845349 0.34774647 -0.01579098
v 0.03423329 0.32387253 -0.00220731
v 0.02019883 0.31749016 -0.00516055
v 0.05229296 0.33301814 -0.00873292
v 0.05255573 0.33288487 -0.00463119
v 0.04818415 0.33066362 -0.00167795
v 0.04268980 0.32851938 -0.00013013
v 0.03375552 0.32413908 -0.00038088
v 0.03579799 0.32469885 -0.00144578
v -0.04795490 0.33194011 0.00024134
v -0.05078568 0.33356307 0.00010823
v 0.06789211 0.34774647 -0.01699208
v -0.05078568 0.33457004 0.00117313
v 0.00870849 0.31749016 0.00240520
v 0.03094863 0.32377480 0.00048280
v 0.04022929 0.32996466 0.00211730
v 0.04024123 0.32801293 0.00054781
v 0.04421866 0.33093314 0.00133720
v 0.04804081 0.33205855 0.00044875
v 0.04804081 0.33398068 0.00219160
v 0.06231416 0.34047855 -0.00066568
v 0.06344886 0.34285676 0.00069950
v 0.05026244 0.33264200 -0.00037159
v 0.05581650 0.33536970 -0.00178630
v 0.05789480 0.33673797 -0.00181416
v 0.06633937 0.34401775 -0.00047375
v 0.06756961 0.34676025 0.00088214
v 0.06799961 0.34774647 0.00136196
v 0.06011642 0.33816551 -0.00871434
v 0.06011642 0.33787822 -0.00459714
v 0.05794257 0.33636778 -0.00460024
v 0.05580456 0.33492543 -0.00462191
v 0.06626770 0.34398220 -0.01221242
v 0.06441634 0.34150626 -0.00871125
v 0.06251721 0.33990695 -0.00871744
v 0.06667381 0.34354683 -0.00869887
v 0.06912237 0.34774647 -0.01425554
v 0.06994652 0.34774647 -0.01222480
v 0.03216694 0.32321504 -0.00132196
v 0.01638862 0.31749016 -0.00170581
v 0.02779536 0.32162465 -0.00134053
v 0.05249601 0.33330247 -0.00173058
v 0.06267249 0.34005800 -0.00193180
v 0.06452384 0.34149146 -0.00193180
v 0.05993726 0.33812108 -0.00186988
v 0.06680518 0.34350537 -0.00191013
v 0.06877598 0.34538900 -0.00188846
v 0.07007790 0.34774647 -0.00044589
v 0.06971958 0.34774647 -0.00008989
v 0.06272027 0.33978554 -0.00458166
v 0.07007790 0.34774647 -0.01180998
v 0.07060345 0.34749178 -0.00871434
v 0.06865654 0.34551339 -0.00869887
v 0.06460744 0.34134335 -0.00454452
v 0.06686491 0.34336320 -0.00450737
v 0.06884765 0.34528830 -0.00449808
v 0.07080650 0.34726669 -0.00451356
v 0.07071095 0.34737628 -0.00185750
v 0.07040040 0.34774647 -0.00089166
v 0.07036456 0.34774647 -0.01063054
v 0.07081845 0.34774647 -0.00872053
v 0.07087817 0.34774647 -0.00818499
v 0.07123649 0.34774647 -0.00452285
v 0.07120066 0.34774647 -0.00395325
v 0.07104539 0.34774647 -0.00185131
f 1 2 3
f 1 3 4
f 1 4 5
f 1 5 6
f 1 6 7
f 1 7 8
f 1 8 9
f 1 9 10
f 1 10 11
f 1 11 2
f 2 12 3
f 2 11 13
f 2 13 12
f 3 14 4
f 3 12 15
f 3 15 16
f 3 16 14
f 4 14 37
f 4 37 75
f 4 75 81
f 4 81 113
f 4 113 144
f 4 144 188
f 4 188 226
f 4 226 263
f 4 263 237
f 4 237 208
f 4 208 207
f 4 207 167
f 4 167 166
f 4 166 165
f 4 165 164
f 4 164 193
f 4 193 148
f 4 148 114
f 4 114 83
f 4 83 47
f 4 47 17
f 4 17 6
f 4 6 5
f 6 17 18
f 6 18 7
f 7 18 19
f 7 19 20
f 7 20 21
f 7 21 22
f 7 22 8
f 8 22 9
f 9 22 23
f 9 23 24
f 9 24 10
f 10 24 25
f 10 25 11
f 11 25 55
f 11 55 54
f 11 54 91
f 11 91 90
f 11 90 123
f 11 123 157
f 11 157 156
f 11 156 155
f 11 155 154
f 11 154 153
f 11 153 201
f 11 201 200
f 11 200 234
f 11 234 236
f 11 236 204
f 11 204 160
f 11 160 126
f 11 126 96
f 11 96 103
f 11 103 102
f 11 102 101
f 11 101 95
f 11 95 59
f 11 59 36
f 11 36 35
f 11 35 34
f 11 34 33
f 11 33 32
f 11 32 31
f 11 31 30
f 11 30 26
f 11 26 13
f 12 13 15
f 13 27 56
f 13 56 74
f 13 74 73
f 13 73 72
f 13 72 71
f 13 71 70
f 13 70 69
f 13 69 68
f 13 68 67
f 13 67 66
f 13 66 65
f 13 65 64
f 13 64 63
f 13 63 62
f 13 62 61
f 13 61 60
f 13 60 100
f 13 100 134
f 13 134 177
f 13 177 216
f 13 216 251
f 13 251 272
f 13 272 271
f 13 271 282
f 13 282 288
f 13 288 287
f 13 287 286
f 13 286 285
f 13 285 284
f 13 284 283
f 13 283 274
f 13 274 261
f 13 261 260
f 13 260 224
f 13 224 235
f 13 235 202
f 13 202 159
f 13 159 125
f 13 125 93
f 13 93 57
f 13 57 28
f 13 28 29
f 13 29 15
f 13 26 30
f 13 30 31
f 13 31 32
f 13 32 33
f 13 33 34
f 13 34 35
f 13 35 36
f 13 36 27
f 14 16 37
f 15 29 38
f 15 38 39
f 15 39 16
f 16 39 40
f 16 40 41
f 16 41 42
f 16 42 43
f 16 43 44
f 16 44 45
f 16 45 46
f 16 46 37
f 17 47 18
f 18 48 19
f 18 47 48
f 19 48 49
f 19 49 20
f 20 49 50
f 20 50 51
f 20 51 52
f 20 52 53
f 20 53 21
f 21 53 54
f 21 54 55
f 21 55 24
f 21 24 23
f 21 23 22
f 24 55 25
f 27 36 56
f 28 57 58
f 28 58 29
f 29 58 38
f 36 59 60
f 36 60 61
f 36 61 62
f 36 62 63
f 36 63 64
f 36 64 65
f 36 65 66
f 36 66 67
f 36 67 68
f 36 68 69
f 36 69 70
f 36 70 71
f 36 71 72
f 36 72 73
f 36 73 74
f 36 74 56
f 37 46 45
f 37 45 75
f 38 58 76
f 38 76 40
f 38 40 39
f 40 76 77
f 40 77 78
f 40 78 41
f 41 78 42
f 42 78 79
f 42 79 43
f 43 80 81
f 43 81 45
f 43 45 44
f 43 79 82
f 43 82 80
f 45 81 75
f 47 83 84
f 47 84 85
f 47 85 86
f 47 86 48
f 48 86 49
f 49 86 87
f 49 87 88
f 49 88 50
f 50 88 89
f 50 89 51
f 51 89 52
f 52 89 90
f 52 90 91
f 52 91 53
f 53 91 54
f 57 92 58
f 57 93 92
f 58 94 76
f 58 92 94
f 59 95 60
f 60 96 97
f 60 97 98
f 60 98 99
f 60 99 100
f 60 95 101
f 60 101 102
f 60 102 103
f 60 103 96
f 76 94 104
f 76 104 77
f 77 105 78
f 77 104 105
f 78 105 79
f 79 106 107
f 79 107 82
f 79 105 108
f 79 108 109
f 79 109 110
f 79 110 111
f 79 111 106
f 80 82 112
f 80 112 81
f 81 112 113
f 82 107 112
f 83 114 115
f 83 115 116
f 83 116 117
f 83 117 85
f 83 85 84
f 85 87 86
f 85 117 118
f 85 118 119
f 85 119 120
f 85 120 87
f 87 120 121
f 87 121 88
f 88 121 89
f 89 121 122
f 89 122 90
f 90 122 123
f 92 93 124
f 92 124 94
f 93 125 124
f 94 124 104
f 96 126 127
f 96 127 97
f 97 128 98
f 97 127 128
f 98 128 129
f 98 129 99
f 99 130 131
f 99 131 132
f 99 132 100
f 99 129 130
f 100 132 133
f 100 133 134
f 104 124 108
f 104 108 105
f 106 111 135
f 106 135 136
f 106 136 137
f 106 137 107
f 107 137 112
f 108 138 139
f 108 139 109
f 108 124 140
f 108 140 138
f 109 139 110
f 110 139 141
f 110 141 111
f 111 141 142
f 111 142 135
f 112 137 143
f 112 143 113
f 113 143 145
f 113 145 146
f 113 146 147
f 113 147 144
f 114 148 115
f 115 149 150
f 115 150 116
f 115 148 149
f 116 150 117
f 117 150 151
f 117 151 118
f 118 151 119
f 119 121 120
f 119 151 152
f 119 152 153
f 119 153 121
f 121 153 154
f 121 154 155
f 121 155 156
f 121 156 122
f 122 156 157
f 122 157 123
f 124 125 158
f 124 158 140
f 125 159 158
f 126 160 161
f 126 161 128
f 126 128 127
f 128 161 162
f 128 162 163
f 128 163 164
f 128 164 165
f 128 165 166
f 128 166 129
f 129 167 168
f 129 168 130
f 129 166 167
f 130 169 170
f 130 170 131
f 130 168 169
f 131 170 171
f 131 171 172
f 131 172 173
f 131 173 132
f 132 173 172
f 132 172 133
f 133 172 174
f 133 174 175
f 133 175 176
f 133 176 134
f 134 176 177
f 135 142 178
f 135 178 179
f 135 179 136
f 136 179 180
f 136 180 137
f 137 180 181
f 137 181 182
f 137 182 143
f 138 140 183
f 138 183 139
f 139 183 184
f 139 184 141
f 140 185 183
f 140 158 186
f 140 186 185
f 141 184 187
f 141 187 142
f 142 187 178
f 143 182 145
f 144 147 188
f 145 182 189
f 145 189 146
f 146 189 190
f 146 190 147
f 147 190 191
f 147 191 192
f 147 192 188
f 148 193 194
f 148 194 195
f 148 195 149
f 149 195 196
f 149 196 197
f 149 197 150
f 150 197 198
f 150 198 151
f 151 198 197
f 151 197 152
f 152 197 199
f 152 199 200
f 152 200 201
f 152 201 153
f 158 159 186
f 159 202 203
f 159 203 186
f 160 204 162
f 160 162 161
f 162 204 197
f 162 197 205
f 162 205 206
f 162 206 163
f 163 206 205
f 163 205 196
f 163 196 164
f 164 196 193
f 167 207 168
f 168 207 208
f 168 208 209
f 168 209 169
f 169 209 210
f 169 210 170
f 170 210 171
f 171 210 211
f 171 211 174
f 171 174 172
f 174 212 213
f 174 213 175
f 174 211 214
f 174 214 212
f 175 215 216
f 175 216 177
f 175 177 176
f 175 213 215
f 178 217 179
f 178 187 218
f 178 218 219
f 178 219 220
f 178 220 217
f 179 217 221
f 179 221 180
f 180 222 182
f 180 182 181
f 180 221 222
f 182 222 189
f 183 185 218
f 183 218 184
f 184 218 187
f 185 186 223
f 185 223 218
f 186 203 224
f 186 224 223
f 188 225 226
f 188 192 225
f 189 222 227
f 189 227 190
f 190 227 228
f 190 228 229
f 190 229 191
f 191 230 192
f 191 229 230
f 192 230 231
f 192 231 232
f 192 232 225
f 193 196 194
f 194 196 195
f 196 205 197
f 197 204 233
f 197 233 199
f 199 234 200
f 199 233 234
f 202 235 203
f 203 235 224
f 204 236 233
f 208 237 238
f 208 238 209
f 209 238 239
f 209 239 210
f 210 239 240
f 210 240 241
f 210 241 242
f 210 242 243
f 210 243 211
f 211 243 242
f 211 242 214
f 212 214 244
f 212 244 213
f 213 244 245
f 213 245 215
f 214 242 246
f 214 246 247
f 214 247 248
f 214 248 244
f 215 245 249
f 215 249 250
f 215 250 251
f 215 251 216
f 217 220 252
f 217 252 253
f 217 253 254
f 217 254 255
f 217 255 221
f 218 223 256
f 218 256 220
f 218 220 219
f 220 257 258
f 220 258 252
f 220 256 259
f 220 259 257
f 221 255 228
f 221 228 227
f 221 227 222
f 223 224 260
f 223 260 261
f 223 261 256
f 225 232 262
f 225 262 226
f 226 262 264
f 226 264 263
f 228 265 229
f 228 255 247
f 228 247 265
f 229 265 246
f 229 246 230
f 230 240 231
f 230 246 242
f 230 242 241
f 230 241 240
f 231 263 264
f 231 264 262
f 231 262 232
f 231 240 238
f 231 238 237
f 231 237 263
f 233 236 234
f 238 240 239
f 244 266 267
f 244 267 249
f 244 249 245
f 244 248 268
f 244 268 266
f 246 265 247
f 247 255 248
f 248 254 268
f 248 255 254
f 249 269 270
f 249 270 271
f 249 271 272
f 249 272 250
f 249 267 269
f 250 272 251
f 252 258 253
f 253 268 254
f 253 258 273
f 253 273 266
f 253 266 268
f 256 261 274
f 256 274 275
f 256 275 276
f 256 276 259
f 257 277 258
f 257 259 278
f 257 278 277
f 258 277 273
f 259 276 279
f 259 279 278
f 266 273 267
f 267 273 277
f 267 277 269
f 269 277 278
f 269 278 270
f 270 278 279
f 270 279 280
f 270 280 281
f 270 281 282
f 270 282 271
f 274 283 275
f 275 283 284
f 275 284 285
f 275 285 286
f 275 286 280
f 275 280 276
f 276 280 279
f 280 286 287
f 280 287 281
f 281 287 288
f 281 288 282

