# https://github.com/mikedh/trimesh
v 0.05078058 0.34774647 -0.00120523
v 0.05125044 0.34774647 -0.00466272
v 0.05172500 0.34774647 0.00132768
v 0.08630644 0.42337082 0.00285575
v 0.08549358 0.42337082 -0.00069984
v 0.08516938 0.42337082 -0.00524243
v 0.08515999 0.42337082 -0.00542972
v 0.08502843 0.42337082 -0.00987123
v 0.08502843 0.42337082 -0.01000799
v 0.08503313 0.42337082 -0.01435139
v 0.08521637 0.42337082 -0.01895344
v 0.05181427 0.34774647 -0.00737697
v 0.05244387 0.34774647 0.00227603
v 0.08706290 0.42337082 0.00429463
v 0.08616548 0.42337082 -0.02236038
v 0.05444076 0.34774647 -0.01797833
v 0.05329431 0.34774647 -0.01364682
v 0.05255664 0.34774647 -0.01067392
v 0.05208678 0.34774647 -0.00868802
v 0.05308288 0.34774647 0.00286169
v 0.08707700 0.42332641 0.00430949
v 0.08752807 0.42337082 0.00448192
v 0.08710519 0.42337082 -0.02354657
v 0.05664909 0.34774647 -0.02390926
v 0.05616044 0.34774647 -0.02310361
v 0.05559191 0.34774647 -0.02176878
v 0.05405078 0.34774647 0.00320358
v 0.08881547 0.42337082 0.00496650
v 0.08731193 0.42337082 -0.02356441
v 0.05875874 0.34774647 -0.02487546
v 0.05749483 0.34774647 -0.02437601
v 0.05582684 0.34774647 0.00380113
v 0.08858054 0.40414643 0.00543325
v 0.09232060 0.42337082 0.00508839
v 0.05880573 0.34774647 0.00417869
v 0.08898932 0.42337082 -0.02368630
v 0.07267120 0.36480193 -0.02479519
v 0.06836262 0.35738457 -0.02470897
v 0.06115971 0.34774647 -0.02440574
v 0.08853356 0.40024527 0.00549568
v 0.07279806 0.36492776 0.00494569
v 0.09496119 0.42337082 0.00418761
v 0.09223602 0.41589426 0.00512109
v 0.09230181 0.41983982 0.00510028
v 0.09502698 0.42009149 0.00418761
v 0.06205244 0.34774647 0.00390815
v 0.06874320 0.35747341 0.00468408
v 0.09108958 0.42337082 -0.02343657
v 0.08895173 0.41970658 -0.02377846
v 0.08009493 0.37610561 -0.02442952
v 0.07610115 0.36880670 -0.02459600
v 0.07203219 0.36161143 -0.02459898
v 0.08892354 0.41539829 -0.02387954
v 0.08890474 0.41132690 -0.02396575
v 0.08875439 0.40382070 -0.02408169
v 0.08856175 0.40000841 -0.02414115
v 0.06803842 0.35394980 -0.02380224
v 0.06648788 0.35071488 -0.02314523
v 0.06328817 0.34774647 -0.02337414
v 0.08844898 0.39643298 0.00548082
v 0.09218434 0.41204492 0.00512407
v 0.07247386 0.36134494 0.00486245
v 0.07650053 0.36879190 0.00502894
v 0.08451158 0.38414476 0.00529352
v 0.09521492 0.42337082 0.00391707
v 0.09503168 0.41619035 0.00415788
v 0.09692050 0.42013592 0.00215711
v 0.06400235 0.34774647 0.00341762
v 0.06443931 0.35005606 0.00401518
v 0.06839081 0.35389798 0.00416977
v 0.09163931 0.42337082 -0.02336820
v 0.07964857 0.37275223 -0.02405494
v 0.08829863 0.39632193 -0.02409656
v 0.08421558 0.38432982 -0.02419466
v 0.08404643 0.38055452 -0.02367738
v 0.07580514 0.36539412 -0.02390926
v 0.07455063 0.36220362 -0.02360603
v 0.07159053 0.35822846 -0.02373981
v 0.09160172 0.42012850 -0.02343955
v 0.09153594 0.41570919 -0.02352576
v 0.09141848 0.41178584 -0.02360306
v 0.09121174 0.40817339 -0.02368332
v 0.09092043 0.40430187 -0.02377251
v 0.09051635 0.40043776 -0.02379035
v 0.07020446 0.35520823 -0.02326415
v 0.06552468 0.34872360 -0.02266659
v 0.06405873 0.34774647 -0.02298469
v 0.08832212 0.39259845 0.00534704
v 0.09210916 0.40456097 0.00497542
v 0.09214676 0.40842508 0.00509137
v 0.07615283 0.36526829 0.00485948
v 0.08038625 0.37264862 0.00504380
v 0.07216375 0.35782872 0.00425598
v 0.08436593 0.38037687 0.00509731
v 0.09683122 0.42337082 0.00218090
v 0.09693459 0.41618297 0.00210360
v 0.09499409 0.41240767 0.00408653
v 0.09825959 0.42015811 0.00032284
v 0.09820321 0.42337082 0.00033473
v 0.06572202 0.34774647 0.00290629
v 0.06787396 0.35055203 0.00323628
v 0.09199171 0.42337082 -0.02309469
v 0.08286709 0.37689767 -0.02349306
v 0.08175353 0.37332224 -0.02306199
v 0.07927269 0.36987267 -0.02341576
v 0.09004179 0.39681050 -0.02366549
v 0.08733542 0.38871953 -0.02368332
v 0.08653667 0.38513669 -0.02345738
v 0.07775975 0.36673400 -0.02327009
v 0.07363440 0.35984963 -0.02326712
v 0.09305828 0.42337082 -0.02225633
v 0.09301129 0.42041721 -0.02232768
v 0.09290792 0.41593866 -0.02243471
v 0.09281865 0.41216336 -0.02226822
v 0.09220783 0.40458316 -0.02213742
v 0.09167220 0.40060061 -0.02216417
v 0.06926004 0.35292824 -0.02259822
v 0.06829683 0.35077411 -0.02121284
v 0.06613549 0.34807958 -0.02086502
v 0.06582069 0.34774647 -0.02086502
v 0.06505952 0.34774647 -0.02198283
v 0.08819996 0.38858629 0.00502002
v 0.09205278 0.40074865 0.00478813
v 0.09486252 0.40874340 0.00397356
v 0.07581454 0.36165584 0.00415490
v 0.08008084 0.36921382 0.00466921
v 0.08418268 0.37662379 0.00471381
v 0.07165631 0.35446799 0.00328979
v 0.09823140 0.41612373 0.00027230
v 0.09688761 0.41240767 0.00198766
v 0.09868716 0.42015072 -0.00131226
v 0.09864957 0.42337082 -0.00128848
v 0.09863078 0.42337082 -0.00122010
v 0.06611670 0.34774647 0.00273088
v 0.06637043 0.34815359 0.00284088
v 0.07013398 0.35201032 0.00293007
v 0.08585067 0.38226451 -0.02316307
v 0.08523517 0.37954779 -0.02268443
v 0.08117560 0.37151603 -0.02275578
v 0.08964712 0.39401233 -0.02347522
v 0.08924774 0.39132522 -0.02316901
v 0.07688111 0.36432815 -0.02288064
v 0.07274637 0.35714768 -0.02207201
v 0.09357512 0.42337082 -0.02136149
v 0.09372077 0.42058745 -0.02106123
v 0.09361271 0.41605711 -0.02114744
v 0.09349524 0.41231141 -0.02098988
v 0.09780853 0.41314052 -0.01148255
v 0.09487192 0.40026010 -0.01384005
v 0.09466989 0.39720283 -0.01291846
v 0.09102380 0.39692153 -0.02207201
v 0.07349345 0.35620016 -0.01988396
v 0.06994603 0.35205475 -0.02031800
v 0.06916137 0.34913075 -0.01701808
v 0.06645500 0.34774647 -0.01969667
v 0.09079357 0.38894159 0.00386950
v 0.09195411 0.39718803 0.00446111
v 0.08765493 0.38085062 0.00393788
v 0.09426111 0.40101515 0.00360789
v 0.09460410 0.40471641 0.00381005
v 0.07825309 0.36200376 0.00315304
v 0.07981302 0.36563101 0.00372086
v 0.07538697 0.35842833 0.00318276
v 0.08293757 0.36974681 0.00357519
v 0.08414980 0.37301873 0.00389626
v 0.08673871 0.37706794 0.00359302
v 0.07400089 0.35608174 0.00287953
v 0.09814682 0.41231883 0.00015041
v 0.09864487 0.41593866 -0.00136874
v 0.09696279 0.40850651 0.00127714
v 0.09873415 0.41584985 -0.00488271
v 0.09877643 0.42030616 -0.00487082
v 0.09873884 0.42337082 -0.00461218
v 0.06800082 0.34774647 0.00136038
v 0.06880428 0.34961192 0.00226414
v 0.07261482 0.35349824 0.00213333
v 0.08893294 0.38915629 -0.02250011
v 0.08946858 0.38720942 -0.02015747
v 0.08987265 0.37895557 -0.01193443
v 0.08527746 0.37573547 -0.01879885
v 0.08477471 0.37715678 -0.02130798
v 0.08310672 0.37349250 -0.02100771
v 0.08166896 0.37081278 -0.02102555
v 0.07760939 0.36340284 -0.02077286
v 0.09010758 0.39285014 -0.02209580
v 0.08969411 0.38921550 -0.02095420
v 0.07630319 0.36220362 -0.02171824
v 0.07417944 0.35842833 -0.02119798
v 0.09378186 0.42337082 -0.02098988
v 0.09787431 0.41616075 -0.01145876
v 0.09826429 0.41603489 -0.00920828
v 0.09807635 0.41205234 -0.00935692
v 0.09771925 0.41117143 -0.01091175
v 0.09650702 0.40030451 -0.00900909
v 0.09425171 0.39391611 -0.01213956
v 0.07694220 0.36068610 -0.01895939
v 0.07609645 0.35828028 -0.01734213
v 0.07698448 0.35681457 -0.01306710
v 0.07410896 0.35545992 -0.01732132
v 0.07267590 0.35359447 -0.01722024
v 0.07073539 0.35108501 -0.01709835
v 0.06968291 0.34848671 -0.01465166
v 0.06846599 0.34774647 -0.01579325
v 0.06789745 0.34774647 -0.01699430
v 0.09349055 0.39575934 0.00312628
v 0.09378656 0.39761737 0.00331952
v 0.09193062 0.39374584 0.00393788
v 0.09015457 0.38552162 0.00347708
v 0.09592910 0.40094111 0.00128011
v 0.09638486 0.40452395 0.00141092
v 0.07733218 0.35985701 0.00275764
v 0.08188508 0.36705970 0.00316195
v 0.08525866 0.37212302 0.00282304
v 0.08592585 0.37427718 0.00323925
v 0.08933701 0.38109493 0.00262386
v 0.08968470 0.38298998 0.00303412
v 0.07634078 0.35761405 0.00205306
v 0.09801526 0.40974274 -0.00007851
v 0.09853211 0.41207455 -0.00145496
v 0.09859319 0.41188949 -0.00488271
v 0.09830658 0.42063189 -0.00919639
v 0.09874354 0.42337082 -0.00484704
v 0.06972990 0.34774647 -0.00009040
v 0.07021385 0.34796856 -0.00031039
v 0.07394451 0.35201773 -0.00040850
v 0.09156883 0.38526993 -0.01329899
v 0.09256963 0.38874914 -0.01332574
v 0.09290792 0.38509228 -0.00902099
v 0.09158293 0.38173152 -0.00911612
v 0.09020625 0.37830414 -0.00916071
v 0.08926654 0.37609819 -0.00913693
v 0.08805431 0.37333704 -0.00907747
v 0.08602452 0.37076096 -0.01198794
v 0.08668232 0.37323343 -0.01312359
v 0.09790250 0.42337082 -0.01138741
v 0.09793069 0.42078732 -0.01138741
v 0.09802466 0.40992040 -0.00798939
v 0.09700977 0.40392435 -0.00908936
v 0.09703796 0.40028229 -0.00479947
v 0.09649293 0.39732127 -0.00480839
v 0.09589621 0.39728428 -0.00897342
v 0.09381005 0.39060717 -0.01126552
v 0.08170184 0.36319559 -0.01191659
v 0.07770806 0.35953131 -0.01568623
v 0.07738856 0.35622979 -0.01104850
v 0.07335249 0.35269877 -0.01404221
v 0.07828599 0.35868002 -0.01304926
v 0.07019975 0.34793892 -0.01207415
v 0.06995543 0.34774647 -0.01222577
v 0.06913318 0.34774647 -0.01425626
v 0.07385993 0.35204734 -0.01146174
v 0.09525721 0.39767660 0.00118498
v 0.09314285 0.39267990 0.00251981
v 0.09286094 0.38863069 0.00125633
v 0.09658220 0.39754336 -0.00179089
v 0.09714603 0.40058580 -0.00168684
v 0.08089839 0.36457245 0.00260305
v 0.08463375 0.37005032 0.00199658
v 0.08592115 0.37010214 0.00013257
v 0.08685147 0.37344068 0.00141092
v 0.08869801 0.37708274 0.00119984
v 0.09006059 0.37827454 -0.00000716
v 0.09073718 0.38122817 0.00072120
v 0.09130101 0.38446307 0.00154767
v 0.07758590 0.35619277 -0.00047390
v 0.09817971 0.40885443 -0.00151442
v 0.09758769 0.40407981 -0.00158577
v 0.09822200 0.40900250 -0.00486487
v 0.09827368 0.42337082 -0.00919341
v 0.09834886 0.42337082 -0.00850073
v 0.07009169 0.34774647 -0.00044714
v 0.07040649 0.34774647 -0.00089011
v 0.07269469 0.34956009 -0.00183549
v 0.09366439 0.38811251 -0.00941341
v 0.09382414 0.38625448 -0.00552188
v 0.09216555 0.38168712 -0.00467163
v 0.09050226 0.37768973 -0.00463893
v 0.08952496 0.37549858 -0.00461218
v 0.08855705 0.37336667 -0.00462704
v 0.08640041 0.37007254 -0.00898531
v 0.08406052 0.36583088 -0.00888721
v 0.09388523 0.38583994 -0.00293249
v 0.09545924 0.39295378 -0.00479947
v 0.08211062 0.36255896 -0.00886342
v 0.08074803 0.36050106 -0.00888721
v 0.07872295 0.35765848 -0.00931828
v 0.07769396 0.35589668 -0.00812317
v 0.07414185 0.35170684 -0.00882477
v 0.07256313 0.34975996 -0.00876532
v 0.07037830 0.34774647 -0.01062635
v 0.07008229 0.34774647 -0.01180957
v 0.09427521 0.39385690 0.00120579
v 0.09404497 0.38986693 -0.00002797
v 0.09388523 0.38583255 -0.00270358
v 0.09375366 0.38661720 -0.00133604
v 0.09551093 0.39317587 -0.00179981
v 0.08156559 0.36232948 -0.00024202
v 0.08318659 0.36633426 0.00092039
v 0.08533384 0.36808126 -0.00074443
v 0.08858525 0.37358873 -0.00159468
v 0.09042708 0.37760092 -0.00160360
v 0.09207628 0.38148725 -0.00168387
v 0.08949207 0.37555782 -0.00157387
v 0.07790541 0.35574121 -0.00194549
v 0.08083261 0.36031599 -0.00108929
v 0.07105489 0.34774647 -0.00185333
v 0.07120524 0.34774647 -0.00395219
v 0.07277457 0.34947125 -0.00455569
v 0.09349055 0.38507006 -0.00440705
v 0.08560165 0.36758527 -0.00344383
v 0.08648968 0.36936187 -0.00476082
v 0.08551708 0.36783696 -0.00624430
v 0.08469953 0.36610476 -0.00479352
v 0.08237844 0.36224803 -0.00472217
v 0.07956399 0.35802859 -0.00475785
v 0.07789600 0.35566717 -0.00474893
v 0.07089044 0.34774647 -0.00818263
v 0.07082936 0.34774647 -0.00872072
v 0.07439558 0.35142554 -0.00461812
v 0.09340127 0.38498864 -0.00190684
v 0.08672461 0.36993929 -0.00166901
v 0.08448809 0.36581607 -0.00180279
v 0.07995867 0.35872442 -0.00178495
v 0.08083731 0.36030857 -0.00111307
v 0.07123814 0.34774647 -0.00452299
v 0.08202605 0.36188531 -0.00174333
v 0.08094068 0.36015311 -0.00221899
f 1 2 12
f 1 12 19
f 1 19 18
f 1 18 17
f 1 17 16
f 1 16 26
f 1 26 25
f 1 25 24
f 1 24 31
f 1 31 30
f 1 30 39
f 1 39 59
f 1 59 87
f 1 87 121
f 1 121 120
f 1 120 155
f 1 155 204
f 1 204 203
f 1 203 250
f 1 250 249
f 1 249 291
f 1 291 290
f 1 290 318
f 1 318 317
f 1 317 325
f 1 325 307
f 1 307 306
f 1 306 272
f 1 272 271
f 1 271 223
f 1 223 174
f 1 174 134
f 1 134 100
f 1 100 68
f 1 68 46
f 1 46 35
f 1 35 32
f 1 32 27
f 1 27 20
f 1 20 13
f 1 13 3
f 1 3 4
f 1 4 5
f 1 5 6
f 1 6 7
f 1 7 8
f 1 8 9
f 1 9 10
f 1 10 11
f 1 11 2
f 2 11 12
f 3 13 14
f 3 14 4
f 4 14 22
f 4 22 28
f 4 28 34
f 4 34 42
f 4 42 65
f 4 65 95
f 4 95 99
f 4 99 133
f 4 133 132
f 4 132 173
f 4 173 222
f 4 222 270
f 4 270 269
f 4 269 235
f 4 235 189
f 4 189 144
f 4 144 111
f 4 111 102
f 4 102 71
f 4 71 48
f 4 48 36
f 4 36 29
f 4 29 23
f 4 23 15
f 4 15 11
f 4 11 10
f 4 10 9
f 4 9 8
f 4 8 7
f 4 7 6
f 4 6 5
f 11 15 16
f 11 16 17
f 11 17 18
f 11 18 19
f 11 19 12
f 13 20 14
f 14 21 22
f 14 20 21
f 15 23 24
f 15 24 25
f 15 25 26
f 15 26 16
f 20 27 28
f 20 28 22
f 20 22 21
f 23 29 30
f 23 30 31
f 23 31 24
f 27 32 28
f 28 33 34
f 28 32 35
f 28 35 33
f 29 36 30
f 30 37 38
f 30 38 39
f 30 36 37
f 33 40 34
f 33 35 41
f 33 41 40
f 34 40 43
f 34 43 44
f 34 44 45
f 34 45 42
f 35 46 47
f 35 47 41
f 36 48 49
f 36 49 37
f 37 50 51
f 37 51 52
f 37 52 38
f 37 49 53
f 37 53 54
f 37 54 55
f 37 55 56
f 37 56 50
f 38 57 39
f 38 52 57
f 39 58 59
f 39 57 58
f 40 60 61
f 40 61 43
f 40 41 60
f 41 47 62
f 41 62 63
f 41 63 64
f 41 64 60
f 42 45 65
f 43 61 45
f 43 45 44
f 45 61 66
f 45 66 67
f 45 67 65
f 46 68 69
f 46 69 47
f 47 69 70
f 47 70 62
f 48 71 53
f 48 53 49
f 50 72 51
f 50 56 73
f 50 73 74
f 50 74 75
f 50 75 72
f 51 72 52
f 52 72 76
f 52 76 77
f 52 77 78
f 52 78 57
f 53 71 54
f 54 71 79
f 54 79 80
f 54 80 81
f 54 81 82
f 54 82 55
f 55 82 83
f 55 83 56
f 56 83 84
f 56 84 73
f 57 78 85
f 57 85 58
f 58 86 87
f 58 87 59
f 58 85 86
f 60 64 88
f 60 88 89
f 60 89 90
f 60 90 61
f 61 90 66
f 62 91 92
f 62 92 63
f 62 70 93
f 62 93 91
f 63 92 64
f 64 94 88
f 64 92 94
f 65 67 95
f 66 96 67
f 66 90 97
f 66 97 96
f 67 96 98
f 67 98 99
f 67 99 95
f 68 100 101
f 68 101 70
f 68 70 69
f 70 101 93
f 71 102 79
f 72 75 103
f 72 103 104
f 72 104 105
f 72 105 76
f 73 84 106
f 73 106 74
f 74 106 107
f 74 107 108
f 74 108 75
f 75 108 103
f 76 109 77
f 76 105 109
f 77 110 78
f 77 109 110
f 78 110 85
f 79 102 111
f 79 111 112
f 79 112 80
f 80 112 113
f 80 113 81
f 81 113 82
f 82 113 83
f 83 113 114
f 83 114 115
f 83 115 84
f 84 116 106
f 84 115 116
f 85 117 86
f 85 110 117
f 86 117 118
f 86 118 119
f 86 119 120
f 86 120 121
f 86 121 87
f 88 94 122
f 88 122 123
f 88 123 89
f 89 123 124
f 89 124 97
f 89 97 90
f 91 93 125
f 91 125 126
f 91 126 92
f 92 126 127
f 92 127 94
f 93 101 128
f 93 128 125
f 94 127 122
f 96 129 98
f 96 97 130
f 96 130 129
f 97 124 130
f 98 129 131
f 98 131 132
f 98 132 133
f 98 133 99
f 100 134 135
f 100 135 101
f 101 135 136
f 101 136 128
f 103 108 137
f 103 137 138
f 103 138 104
f 104 139 109
f 104 109 105
f 104 138 139
f 106 116 140
f 106 140 107
f 107 140 108
f 108 140 141
f 108 141 137
f 109 142 110
f 109 139 142
f 110 142 143
f 110 143 117
f 111 144 112
f 112 145 113
f 112 144 145
f 113 145 146
f 113 146 114
f 114 147 115
f 114 146 147
f 115 147 148
f 115 148 116
f 116 149 150
f 116 150 151
f 116 151 140
f 116 148 149
f 117 143 152
f 117 152 153
f 117 153 118
f 118 153 119
f 119 153 154
f 119 154 155
f 119 155 120
f 122 156 157
f 122 157 123
f 122 127 158
f 122 158 156
f 123 159 160
f 123 160 124
f 123 157 159
f 124 160 130
f 125 161 162
f 125 162 126
f 125 128 163
f 125 163 161
f 126 164 165
f 126 165 127
f 126 162 164
f 127 165 166
f 127 166 158
f 128 136 167
f 128 167 163
f 129 130 168
f 129 168 169
f 129 169 131
f 130 160 170
f 130 170 168
f 131 169 171
f 131 171 172
f 131 172 173
f 131 173 132
f 134 174 175
f 134 175 135
f 135 175 136
f 136 176 167
f 136 175 176
f 137 141 138
f 138 141 177
f 138 177 178
f 138 178 179
f 138 179 180
f 138 180 181
f 138 181 182
f 138 182 139
f 139 182 183
f 139 183 184
f 139 184 142
f 140 151 141
f 141 151 185
f 141 185 186
f 141 186 177
f 142 184 187
f 142 187 143
f 143 188 152
f 143 187 188
f 144 189 145
f 145 190 146
f 145 189 190
f 146 190 148
f 146 148 147
f 148 190 191
f 148 191 192
f 148 192 193
f 148 193 149
f 149 193 150
f 150 193 194
f 150 194 195
f 150 195 151
f 151 195 185
f 152 188 196
f 152 196 197
f 152 197 198
f 152 198 199
f 152 199 200
f 152 200 201
f 152 201 153
f 153 201 154
f 154 202 203
f 154 203 204
f 154 204 155
f 154 201 202
f 156 205 206
f 156 206 159
f 156 159 207
f 156 207 157
f 156 158 208
f 156 208 205
f 157 207 159
f 158 166 208
f 159 206 209
f 159 209 210
f 159 210 160
f 160 210 170
f 161 163 211
f 161 211 212
f 161 212 162
f 162 212 164
f 163 167 211
f 164 213 214
f 164 214 165
f 164 212 213
f 165 214 166
f 166 214 215
f 166 215 216
f 166 216 208
f 167 217 211
f 167 176 217
f 168 170 218
f 168 218 219
f 168 219 169
f 169 219 171
f 170 210 218
f 171 220 191
f 171 191 172
f 171 219 220
f 172 191 221
f 172 221 222
f 172 222 173
f 174 223 175
f 175 223 224
f 175 224 176
f 176 225 217
f 176 224 225
f 177 186 178
f 178 226 179
f 178 186 227
f 178 227 226
f 179 226 228
f 179 228 229
f 179 229 230
f 179 230 231
f 179 231 232
f 179 232 233
f 179 233 234
f 179 234 180
f 180 234 233
f 180 233 182
f 180 182 181
f 182 233 183
f 183 233 184
f 184 196 187
f 184 233 196
f 185 195 227
f 185 227 186
f 187 196 188
f 189 235 236
f 189 236 190
f 190 236 191
f 191 236 221
f 191 220 192
f 192 220 237
f 192 237 193
f 193 237 238
f 193 238 194
f 194 239 240
f 194 240 241
f 194 241 195
f 194 238 237
f 194 237 239
f 195 242 227
f 195 241 242
f 196 233 243
f 196 243 244
f 196 244 197
f 197 244 198
f 198 245 246
f 198 246 199
f 198 244 247
f 198 247 245
f 199 246 200
f 200 246 201
f 201 246 202
f 202 248 249
f 202 249 250
f 202 250 203
f 202 246 251
f 202 251 248
f 205 252 206
f 205 208 253
f 205 253 252
f 206 252 209
f 208 216 254
f 208 254 253
f 209 218 210
f 209 252 255
f 209 255 256
f 209 256 218
f 211 257 212
f 211 217 257
f 212 257 213
f 213 257 258
f 213 258 259
f 213 259 260
f 213 260 261
f 213 261 214
f 214 261 215
f 215 262 263
f 215 263 264
f 215 264 216
f 215 261 262
f 216 264 254
f 217 225 265
f 217 265 257
f 218 266 219
f 218 256 267
f 218 267 266
f 219 266 220
f 220 266 267
f 220 267 256
f 220 256 268
f 220 268 237
f 221 236 235
f 221 235 269
f 221 269 270
f 221 270 222
f 223 271 224
f 224 271 272
f 224 272 273
f 224 273 225
f 225 273 265
f 226 227 242
f 226 242 228
f 228 242 274
f 228 274 275
f 228 275 276
f 228 276 229
f 229 276 230
f 230 276 277
f 230 277 231
f 231 277 232
f 232 277 278
f 232 278 279
f 232 279 280
f 232 280 233
f 233 280 281
f 233 281 243
f 237 268 239
f 239 268 256
f 239 256 240
f 240 256 255
f 240 255 282
f 240 282 283
f 240 283 275
f 240 275 241
f 241 275 274
f 241 274 242
f 243 281 284
f 243 284 245
f 243 245 247
f 243 247 244
f 245 284 285
f 245 285 286
f 245 286 287
f 245 287 288
f 245 288 289
f 245 289 251
f 245 251 246
f 248 289 290
f 248 290 291
f 248 291 249
f 248 251 289
f 252 253 292
f 252 292 293
f 252 293 255
f 253 254 293
f 253 293 292
f 254 264 263
f 254 263 293
f 255 294 282
f 255 293 295
f 255 295 296
f 255 296 294
f 257 297 298
f 257 298 258
f 257 265 297
f 258 299 259
f 258 298 299
f 259 299 300
f 259 300 262
f 259 262 260
f 260 262 261
f 262 301 302
f 262 302 295
f 262 295 263
f 262 300 303
f 262 303 301
f 263 295 293
f 265 273 304
f 265 304 305
f 265 305 297
f 272 306 273
f 273 306 307
f 273 307 308
f 273 308 304
f 275 282 309
f 275 309 276
f 275 283 282
f 276 302 277
f 276 309 282
f 276 282 294
f 276 294 302
f 277 302 301
f 277 301 278
f 278 301 279
f 279 310 311
f 279 311 280
f 279 301 303
f 279 303 300
f 279 300 310
f 280 311 312
f 280 312 281
f 281 312 313
f 281 313 284
f 284 314 285
f 284 313 314
f 285 314 315
f 285 315 287
f 285 287 286
f 287 315 316
f 287 316 289
f 287 289 288
f 289 308 317
f 289 317 318
f 289 318 290
f 289 316 319
f 289 319 308
f 294 295 320
f 294 320 302
f 294 296 295
f 295 302 320
f 297 305 299
f 297 299 298
f 299 321 300
f 299 305 322
f 299 322 321
f 300 321 310
f 304 319 316
f 304 316 315
f 304 315 323
f 304 323 324
f 304 324 305
f 304 308 319
f 305 324 322
f 307 325 308
f 308 325 317
f 310 322 314
f 310 314 313
f 310 313 311
f 310 321 322
f 311 313 312
f 314 322 326
f 314 326 327
f 314 327 315
f 315 327 323
f 322 324 326
f 323 327 326
f 323 326 324

