# https://github.com/mikedh/trimesh
v 0.25304817 0.22757067 -0.00955644
v 0.25321888 0.22757067 -0.01133227
v 0.25318154 0.22757067 -0.00567702
v 0.25313887 0.22928069 -0.00952068
v 0.25344291 0.22757067 -0.01353121
v 0.25342693 0.22757067 -0.00427065
v 0.25328288 0.22918011 -0.00567702
v 0.25354428 0.22921107 -0.01348949
v 0.25349626 0.23320373 -0.00938362
v 0.25430710 0.22757067 -0.01812573
v 0.25384300 0.22757067 -0.00216111
v 0.25394967 0.22894798 -0.00218196
v 0.25365628 0.23313409 -0.00564424
v 0.25392834 0.23307219 -0.01332561
v 0.25442978 0.22904857 -0.01808997
v 0.25415772 0.23699522 -0.00561147
v 0.25400302 0.23704938 -0.00922868
v 0.25565136 0.22757067 -0.02218094
v 0.25574205 0.22757067 0.00118199
v 0.25585941 0.22894798 0.00116411
v 0.25436045 0.23290970 -0.00222666
v 0.25489387 0.23282458 -0.01794099
v 0.25451515 0.23686368 -0.01312598
v 0.25580073 0.22887060 -0.02214519
v 0.25490456 0.23677082 -0.00224454
v 0.25483520 0.24038434 -0.00559061
v 0.25470719 0.24047720 -0.00909758
v 0.25666489 0.22757067 -0.02337576
v 0.25665424 0.22757067 0.00230529
v 0.25748105 0.23129251 0.00291909
v 0.25646219 0.23269304 0.00141142
v 0.25654753 0.23675534 0.00080954
v 0.25638218 0.23259246 -0.02199323
v 0.25558735 0.23652322 -0.01775328
v 0.25536865 0.24040756 -0.01296210
v 0.25771579 0.23253828 -0.02367669
v 0.25733703 0.22882418 -0.02395976
v 0.25700098 0.24029149 0.00050860
v 0.25562470 0.24022959 -0.00222666
v 0.25700630 0.24423773 -0.00188401
v 0.25600878 0.24403655 -0.00563828
v 0.25593942 0.24421453 -0.00907077
v 0.25721968 0.22757067 -0.02402233
v 0.25721968 0.22757067 0.00297272
v 0.25733171 0.22907179 0.00296080
v 0.25778512 0.23397750 0.00278203
v 0.25808919 0.23690236 0.00260623
v 0.26006293 0.24077124 0.00355374
v 0.26053235 0.24429964 0.00348521
v 0.25846259 0.24050040 0.00229635
v 0.25779045 0.23991235 -0.02106956
v 0.25731570 0.23626788 -0.02202898
v 0.25803584 0.23509174 -0.02342045
v 0.25659556 0.24017543 -0.01759238
v 0.25824389 0.24238068 -0.02040511
v 0.25753440 0.24721676 -0.01202949
v 0.25690496 0.24460140 -0.01323921
v 0.26068705 0.24009805 -0.02370351
v 0.25991889 0.23272400 -0.02438882
v 0.25989755 0.22887060 -0.02473147
v 0.26126850 0.24797507 0.00326472
v 0.25871864 0.24438475 0.00123860
v 0.25751839 0.24323956 0.00006166
v 0.25800918 0.24575433 -0.00050446
v 0.25827588 0.24796733 -0.00194956
v 0.25926810 0.25123265 -0.00239053
v 0.25758775 0.24676796 -0.00286727
v 0.25799317 0.24965415 -0.00581706
v 0.25864395 0.25149573 -0.00592730
v 0.25800382 0.24990175 -0.00916313
v 0.25989223 0.22757067 -0.02480596
v 0.25846792 0.22757067 0.00326174
v 0.26333823 0.24457046 0.00436717
v 0.26350894 0.24815301 0.00424202
v 0.26439446 0.25502414 0.00369378
v 0.25883067 0.23984271 -0.02257723
v 0.25838258 0.23739757 -0.02310759
v 0.26161522 0.24378121 -0.02347110
v 0.25770511 0.24337884 -0.01754173
v 0.25957747 0.24367287 -0.02146882
v 0.25849461 0.24537518 -0.01755067
v 0.25971619 0.24820719 -0.01765197
v 0.26151387 0.25195224 -0.01807805
v 0.26276747 0.25302006 -0.01994625
v 0.26230337 0.25083027 -0.02092952
v 0.25868665 0.25171238 -0.00920485
v 0.25964151 0.25183618 -0.01307831
v 0.25841993 0.24857085 -0.01330476
v 0.26554136 0.25163501 -0.02365286
v 0.26809652 0.25567410 -0.02391804
v 0.27164391 0.25967451 -0.02435008
v 0.26191929 0.25070647 0.00301443
v 0.25974285 0.24780483 0.00121774
v 0.26115648 0.25147252 0.00147399
v 0.26186593 0.25457535 0.00055032
v 0.26243673 0.25675737 -0.00016478
v 0.26067104 0.25452891 -0.00248290
v 0.26002559 0.25460630 -0.00605841
v 0.26351427 0.22757067 -0.02454375
v 0.27508995 0.26390705 -0.02437690
v 0.27876001 0.26803898 -0.02433220
v 0.29420313 0.28357635 -0.02362604
v 0.25940144 0.22757067 0.00341072
v 0.26734972 0.24845479 0.00496606
v 0.26751507 0.25194453 0.00507333
v 0.26760576 0.25549612 0.00496904
v 0.26782982 0.25922572 0.00458765
v 0.26552002 0.25878467 0.00339582
v 0.26242073 0.25270281 0.00278203
v 0.26234604 0.24641204 -0.02327743
v 0.26308752 0.24922858 -0.02286923
v 0.26630950 0.25438963 -0.02349792
v 0.26162057 0.24788220 -0.02173698
v 0.26197264 0.25406464 -0.01666871
v 0.26313018 0.25520209 -0.01815254
v 0.26517328 0.25929535 -0.01811381
v 0.26669891 0.26083515 -0.01993136
v 0.26610680 0.25802636 -0.02128111
v 0.26539199 0.25534136 -0.02207368
v 0.26697096 0.25671870 -0.02322380
v 0.26009492 0.25473010 -0.00928232
v 0.26196196 0.25742284 -0.01185370
v 0.26124714 0.25505507 -0.01325708
v 0.26915808 0.25908644 -0.02370649
v 0.27192664 0.26318744 -0.02373927
v 0.27566604 0.26718783 -0.02395082
v 0.26284748 0.25467593 0.00225166
v 0.26381301 0.25835135 0.00107174
v 0.26632550 0.26506769 -0.00054617
v 0.26307151 0.25953524 -0.00244417
v 0.26274613 0.26011557 -0.00609416
v 0.26486389 0.22757067 -0.02356645
v 0.30224740 0.29136051 -0.02318804
v 0.30754446 0.29353480 -0.02277686
v 0.27944814 0.27120373 -0.02400445
v 0.28339026 0.27505710 -0.02398955
v 0.28717771 0.27898789 -0.02387633
v 0.29087444 0.28300376 -0.02367967
v 0.26247940 0.22757067 0.00348819
v 0.27116380 0.25251709 0.00519847
v 0.27152122 0.25589848 0.00542194
v 0.27159055 0.25957390 0.00542790
v 0.27157458 0.26352788 0.00519847
v 0.27543669 0.27166026 0.00506439
v 0.27153188 0.26763662 0.00425990
v 0.26812854 0.26283149 0.00383680
v 0.26632018 0.26108278 0.00313362
v 0.26250606 0.25644788 -0.01488692
v 0.26588810 0.26188750 -0.01658826
v 0.26720034 0.26324933 -0.01809295
v 0.26993689 0.26565576 -0.02086397
v 0.26734439 0.25921798 -0.02207070
v 0.26921143 0.26304816 -0.02183233
v 0.27077975 0.26430167 -0.02280070
v 0.26995823 0.26170952 -0.02340555
v 0.26275146 0.26006913 -0.00936575
v 0.26318354 0.25895490 -0.01327496
v 0.26595210 0.26575635 -0.01099558
v 0.26527996 0.26339635 -0.01274460
v 0.27345226 0.26673907 -0.02332510
v 0.27628484 0.27026744 -0.02332808
v 0.27782650 0.27293699 -0.02311057
v 0.28004027 0.27439940 -0.02339065
v 0.26571207 0.26201904 0.00128031
v 0.26883267 0.26731163 0.00167660
v 0.26983555 0.26984961 0.00068738
v 0.26925942 0.27073945 -0.00238458
v 0.26709900 0.26704081 -0.00203894
v 0.26598412 0.26558614 -0.00317417
v 0.26508792 0.26340408 -0.00207768
v 0.26683763 0.26417787 0.00136076
v 0.26435177 0.26326481 -0.00604649
v 0.26719502 0.22757067 -0.01042052
v 0.30754446 0.29311696 -0.02235972
v 0.30754446 0.29218071 -0.02142413
v 0.30754446 0.29129086 -0.02012801
v 0.30754446 0.29097363 -0.01946654
v 0.29878538 0.29073374 -0.02320592
v 0.30637088 0.29520617 -0.02286029
v 0.30754446 0.29546151 -0.02281857
v 0.29471522 0.28689582 -0.02344727
v 0.28153923 0.27691416 -0.02317910
v 0.28395573 0.27841530 -0.02344727
v 0.28779648 0.28246986 -0.02328041
v 0.29162127 0.28634645 -0.02307184
v 0.26366897 0.22757067 0.00305913
v 0.30754446 0.29383657 0.00503459
v 0.30754446 0.29594123 0.00542194
v 0.27523396 0.26003818 0.00547259
v 0.27533531 0.26379096 0.00561859
v 0.27526065 0.26785330 0.00551431
v 0.27933078 0.27561424 0.00527296
v 0.28371034 0.28276390 0.00463831
v 0.27959751 0.27932059 0.00408112
v 0.27585808 0.27513449 0.00396194
v 0.27279616 0.27107219 0.00382190
v 0.26949949 0.26622836 0.00355672
v 0.27048100 0.26874311 0.00300847
v 0.26644819 0.26485105 -0.01397516
v 0.26926478 0.26733485 -0.01728548
v 0.27058771 0.26843363 -0.01857266
v 0.27434847 0.27280542 -0.01964234
v 0.27356962 0.26964844 -0.02150458
v 0.27157990 0.26680095 -0.02170719
v 0.27421510 0.26854195 -0.02305396
v 0.26445847 0.26338861 -0.00935383
v 0.26584540 0.26592658 -0.00933297
v 0.26697632 0.26795388 -0.00922868
v 0.26891804 0.27118825 -0.00905587
v 0.26942480 0.27033710 -0.01278333
v 0.26742973 0.26728844 -0.01262839
v 0.27889338 0.27559102 -0.02210049
v 0.28283550 0.27972295 -0.02230311
v 0.27105180 0.27091743 0.00161105
v 0.27338293 0.27471665 0.00118199
v 0.27432710 0.27692190 -0.00008136
v 0.27037433 0.27246497 -0.00246502
v 0.26889135 0.27123468 -0.00600477
v 0.26693897 0.26798484 -0.00598094
v 0.26579740 0.26594206 -0.00599881
v 0.26739239 0.22757067 -0.00916611
v 0.30754446 0.29025402 -0.01673724
v 0.30754446 0.29013022 -0.01623667
v 0.30754446 0.28925585 -0.01269692
v 0.29926013 0.29326398 -0.02273813
v 0.30283953 0.29484248 -0.02277686
v 0.30754446 0.29809233 -0.02252062
v 0.30754446 0.29634359 -0.02275600
v 0.29557938 0.29016889 -0.02286923
v 0.28540134 0.28099968 -0.02317017
v 0.29315758 0.28867552 -0.02277686
v 0.29724372 0.29240509 -0.02262490
v 0.26434644 0.22757067 0.00275521
v 0.30754446 0.29277652 0.00473961
v 0.30754446 0.29715608 0.00550239
v 0.30631220 0.29581743 0.00551431
v 0.27901606 0.26809316 0.00562157
v 0.29048503 0.28336745 0.00562753
v 0.27910675 0.27193882 0.00561263
v 0.28706036 0.28311208 0.00544280
v 0.29089045 0.28735236 0.00542194
v 0.28756177 0.28680298 0.00466512
v 0.28114982 0.28233832 0.00343158
v 0.27735172 0.27802839 0.00341668
v 0.27387902 0.27357147 0.00334517
v 0.26984087 0.26960201 -0.01520275
v 0.27354296 0.27393513 -0.01636181
v 0.27800785 0.28089136 -0.01436251
v 0.27796519 0.27689094 -0.02003266
v 0.27716503 0.27454642 -0.02121556
v 0.27507926 0.27165252 -0.02144499
v 0.27002226 0.27293699 -0.00604053
v 0.27005961 0.27289829 -0.00897840
v 0.27063570 0.27211676 -0.01268798
v 0.28186464 0.28093779 -0.02030678
v 0.28574276 0.28510068 -0.02020548
v 0.28677762 0.28380073 -0.02218988
v 0.27490323 0.27606301 0.00227252
v 0.27642888 0.27867837 0.00130415
v 0.27792784 0.28121635 0.00034175
v 0.27734639 0.28188953 -0.00264976
v 0.27537801 0.27939799 -0.00260507
v 0.27389503 0.27739391 -0.00256633
v 0.27196931 0.27475535 -0.00250674
v 0.26752575 0.22757067 -0.00662155
v 0.30754446 0.28833505 -0.00815007
v 0.30182064 0.29608051 -0.02232694
v 0.30427449 0.29693166 -0.02249082
v 0.30682965 0.29778282 -0.02252955
v 0.30754446 0.29838637 -0.02244017
v 0.28922611 0.28486082 -0.02295266
v 0.29069841 0.28757677 -0.02203196
v 0.29465654 0.29136051 -0.02175188
v 0.29585679 0.29327172 -0.02092654
v 0.29928682 0.29543829 -0.02135262
v 0.26491724 0.22757067 0.00219803
v 0.30754446 0.29172417 0.00404239
v 0.30297286 0.29547699 0.00549643
v 0.29469921 0.28767735 0.00560667
v 0.30754446 0.29978689 0.00530275
v 0.29518464 0.29135277 0.00530275
v 0.28461184 0.28586673 0.00349415
v 0.29133854 0.29104326 0.00426586
v 0.28811656 0.28930226 0.00358651
v 0.28221671 0.28408703 0.00302039
v 0.27860531 0.28038068 0.00269860
v 0.27284948 0.27519640 -0.01253304
v 0.27449781 0.27658145 -0.01398708
v 0.27729840 0.28177346 -0.01116541
v 0.27939482 0.28315077 -0.01288762
v 0.28174728 0.28474476 -0.01462769
v 0.28094177 0.28191274 -0.01755365
v 0.27899472 0.27982356 -0.01750597
v 0.27145722 0.27497199 -0.00605245
v 0.27163325 0.27507257 -0.00896350
v 0.27384703 0.27733199 -0.01089725
v 0.28276614 0.28387813 -0.01751193
v 0.28479856 0.28601374 -0.01743148
v 0.28672427 0.28797139 -0.01733018
v 0.28954083 0.28894634 -0.01999691
v 0.27943213 0.28223774 0.00133395
v 0.28156589 0.28470606 0.00108664
v 0.27866932 0.28342159 -0.00267955
v 0.27700498 0.28225319 -0.00602265
v 0.27505260 0.27981582 -0.00605245
v 0.27352695 0.27777305 -0.00606436
v 0.26757910 0.22757067 -0.00552208
v 0.30754446 0.28821899 -0.00631465
v 0.30050837 0.29722570 -0.02052131
v 0.30517066 0.30063031 -0.01982409
v 0.30742178 0.30135766 -0.02028593
v 0.30714973 0.29956251 -0.02173996
v 0.30754446 0.29968631 -0.02179062
v 0.29211203 0.29015341 -0.02088482
v 0.29356300 0.29269139 -0.01976748
v 0.26595743 0.22757067 0.00108366
v 0.30754446 0.29127538 0.00343753
v 0.30677097 0.29969405 0.00525508
v 0.30754446 0.30049877 0.00510908
v 0.29942015 0.29511330 0.00508823
v 0.28633486 0.28815710 0.00313660
v 0.29572875 0.29477286 0.00409006
v 0.29278950 0.29330268 0.00364313
v 0.29035700 0.29196406 0.00303529
v 0.28565206 0.28876062 0.00121774
v 0.28366231 0.28679524 0.00115815
v 0.27511128 0.27970747 -0.00892179
v 0.27703167 0.28215260 -0.00885624
v 0.27834391 0.28364600 -0.00879664
v 0.28082442 0.28541793 -0.01137995
v 0.28493725 0.28958082 -0.01134419
v 0.28586544 0.28887668 -0.01452043
v 0.28868733 0.28989807 -0.01724973
v 0.29078910 0.29181705 -0.01720801
v 0.28270746 0.28760770 -0.00268253
v 0.28065907 0.28549530 -0.00268253
v 0.27826390 0.28369241 -0.00600477
v 0.28232873 0.28794817 -0.00603159
v 0.26728036 0.22757067 -0.00314139
v 0.30754446 0.28814162 -0.00490531
v 0.29791054 0.29645968 -0.01927883
v 0.30427449 0.30143502 -0.01716332
v 0.30749111 0.30323020 -0.01704712
v 0.30754446 0.30149694 -0.02015185
v 0.30754446 0.30140409 -0.02030082
v 0.29926013 0.29826257 -0.01752087
v 0.30224740 0.30023569 -0.01724973
v 0.29268280 0.29348065 -0.01724079
v 0.29551537 0.29563946 -0.01751789
v 0.26714699 0.22757067 -0.00208066
v 0.30754446 0.29026176 0.00136672
v 0.30733641 0.30258795 0.00418243
v 0.30320225 0.29933810 0.00439398
v 0.30754446 0.30266534 0.00420031
v 0.28822859 0.29097363 0.00155742
v 0.29983625 0.29790662 0.00396492
v 0.29720105 0.29680012 0.00349415
v 0.29473655 0.29574781 0.00270456
v 0.28948216 0.29276878 0.00050860
v 0.29365902 0.29651383 0.00014807
v 0.28468120 0.28958082 -0.00268253
v 0.28678295 0.29163907 -0.00269445
v 0.28034967 0.28575840 -0.00876983
v 0.28243541 0.28794043 -0.00874301
v 0.28440915 0.28992903 -0.00873109
v 0.28651089 0.29197177 -0.00873705
v 0.28902874 0.29338778 -0.01134717
v 0.28743376 0.29115932 -0.01290251
v 0.28989826 0.29266046 -0.01443700
v 0.28429712 0.28992129 -0.00605245
v 0.30754446 0.28895408 -0.00179462
v 0.29410175 0.29649061 -0.01414798
v 0.29673695 0.29738820 -0.01607279
v 0.30145257 0.30091660 -0.01477965
v 0.30313292 0.30263438 -0.01297402
v 0.30754446 0.30325339 -0.01704712
v 0.30718707 0.30481641 -0.01287868
v 0.30754446 0.30488606 -0.01314088
v 0.30754446 0.30277366 0.00411092
v 0.30446117 0.30140409 0.00374741
v 0.30214072 0.30035175 0.00325280
v 0.30004963 0.29959344 0.00228146
v 0.29641690 0.29790662 0.00106280
v 0.28879403 0.29344196 -0.00270339
v 0.29105580 0.29540734 -0.00271233
v 0.29299220 0.29705546 -0.00269743
v 0.29809722 0.30001128 -0.00056703
v 0.29569676 0.29904406 -0.00263188
v 0.28641487 0.29201047 -0.00607926
v 0.28845797 0.29384431 -0.00608820
v 0.28855396 0.29380562 -0.00876685
v 0.29309890 0.29713286 -0.01103431
v 0.29148256 0.29490440 -0.01273268
v 0.29553671 0.29813877 -0.01265819
v 0.29912676 0.30022021 -0.01306043
v 0.30032168 0.30151241 -0.01177623
v 0.30573610 0.30518784 -0.00998252
v 0.30754446 0.30514914 -0.01250921
v 0.30754446 0.30434443 0.00186729
v 0.30361835 0.30213142 0.00180174
v 0.30009762 0.30076185 0.00038942
v 0.29068240 0.29579422 -0.00608522
v 0.29259746 0.29743463 -0.00604053
v 0.29520065 0.29940002 -0.00595710
v 0.30605083 0.30475452 -0.00072197
v 0.30005495 0.30183741 -0.00246205
v 0.29991626 0.30242545 -0.00577534
v 0.29081577 0.29577103 -0.00881452
v 0.29272547 0.29739594 -0.00883836
v 0.29589946 0.29959344 -0.00903203
v 0.29775584 0.30049877 -0.01020897
v 0.30378903 0.30442953 -0.00884432
v 0.30733641 0.30627111 -0.00884134
v 0.30754446 0.30637169 -0.00883240
v 0.30754446 0.30620146 -0.00941342
v 0.30754446 0.30568304 -0.01114158
v 0.30754446 0.30443727 0.00167660
v 0.30741643 0.30431347 0.00179578
v 0.29727573 0.30063805 -0.00808750
v 0.30754446 0.30518010 0.00010338
v 0.30751780 0.30589197 -0.00214919
v 0.30409842 0.30411228 -0.00216409
v 0.30318624 0.30434443 -0.00568894
v 0.29938816 0.30182193 -0.00898138
v 0.30519200 0.30537352 -0.00784020
v 0.30754446 0.30661158 -0.00588559
v 0.30754446 0.30588423 -0.00208960
v 0.30754446 0.30590745 -0.00216707
v 0.30754446 0.30596934 -0.00247694
v 0.30754446 0.30661158 -0.00570681
v 0.30542671 0.30508723 -0.00330229
f 1 2 5
f 1 5 10
f 1 10 18
f 1 18 28
f 1 28 43
f 1 43 71
f 1 71 99
f 1 99 132
f 1 132 173
f 1 173 221
f 1 221 265
f 1 265 307
f 1 307 339
f 1 339 350
f 1 350 316
f 1 316 276
f 1 276 233
f 1 233 186
f 1 186 139
f 1 139 103
f 1 103 72
f 1 72 44
f 1 44 29
f 1 29 19
f 1 19 11
f 1 11 6
f 1 6 3
f 1 3 4
f 1 4 2
f 2 4 5
f 3 6 7
f 3 7 4
f 4 8 5
f 4 7 9
f 4 9 8
f 5 8 10
f 6 11 12
f 6 12 7
f 7 12 13
f 7 13 9
f 8 9 14
f 8 14 15
f 8 15 10
f 9 13 16
f 9 16 17
f 9 17 14
f 10 15 18
f 11 19 12
f 12 20 21
f 12 21 13
f 12 19 20
f 13 21 16
f 14 22 15
f 14 17 23
f 14 23 22
f 15 22 24
f 15 24 18
f 16 25 26
f 16 26 17
f 16 21 25
f 17 26 27
f 17 27 23
f 18 24 28
f 19 29 30
f 19 30 20
f 20 30 31
f 20 31 32
f 20 32 21
f 21 32 25
f 22 33 24
f 22 23 34
f 22 34 33
f 23 27 35
f 23 35 34
f 24 33 36
f 24 36 37
f 24 37 28
f 25 32 38
f 25 38 39
f 25 39 26
f 26 39 40
f 26 40 41
f 26 41 27
f 27 41 42
f 27 42 35
f 28 37 43
f 29 44 45
f 29 45 30
f 30 46 47
f 30 47 32
f 30 32 31
f 30 45 48
f 30 48 49
f 30 49 46
f 32 47 50
f 32 50 38
f 33 34 51
f 33 51 52
f 33 52 53
f 33 53 36
f 34 35 54
f 34 54 55
f 34 55 51
f 35 42 56
f 35 56 57
f 35 57 54
f 36 53 58
f 36 58 59
f 36 59 37
f 37 59 60
f 37 60 43
f 38 50 61
f 38 61 62
f 38 62 63
f 38 63 39
f 39 63 64
f 39 64 40
f 40 64 65
f 40 65 66
f 40 66 67
f 40 67 41
f 41 67 66
f 41 66 68
f 41 68 42
f 42 68 69
f 42 69 70
f 42 70 56
f 43 60 71
f 44 72 73
f 44 73 48
f 44 48 45
f 46 49 47
f 47 49 50
f 48 73 74
f 48 74 49
f 49 74 75
f 49 75 61
f 49 61 50
f 51 76 77
f 51 77 52
f 51 55 76
f 52 77 53
f 53 77 78
f 53 78 58
f 54 57 79
f 54 79 55
f 55 80 76
f 55 79 81
f 55 81 82
f 55 82 83
f 55 83 84
f 55 84 85
f 55 85 80
f 56 79 57
f 56 70 86
f 56 86 87
f 56 87 88
f 56 88 79
f 58 78 89
f 58 89 90
f 58 90 59
f 59 90 91
f 59 91 60
f 60 91 71
f 61 63 62
f 61 75 92
f 61 92 63
f 63 92 93
f 63 93 64
f 64 93 94
f 64 94 95
f 64 95 66
f 64 66 65
f 66 95 96
f 66 96 97
f 66 97 69
f 66 69 68
f 69 86 70
f 69 97 98
f 69 98 86
f 71 91 100
f 71 100 101
f 71 101 102
f 71 102 99
f 72 103 73
f 73 103 104
f 73 104 105
f 73 105 106
f 73 106 74
f 74 106 107
f 74 107 75
f 75 107 108
f 75 108 109
f 75 109 92
f 76 110 77
f 76 80 111
f 76 111 110
f 77 110 78
f 78 110 112
f 78 112 89
f 79 88 81
f 80 85 113
f 80 113 111
f 81 88 87
f 81 87 82
f 82 87 83
f 83 87 114
f 83 114 84
f 84 114 115
f 84 115 116
f 84 116 117
f 84 117 118
f 84 118 85
f 85 118 119
f 85 119 120
f 85 120 111
f 85 111 113
f 86 98 121
f 86 121 87
f 87 121 122
f 87 122 123
f 87 123 114
f 89 112 90
f 90 112 124
f 90 124 91
f 91 124 125
f 91 125 126
f 91 126 100
f 92 109 93
f 93 109 94
f 94 109 127
f 94 127 95
f 95 127 128
f 95 128 96
f 96 128 129
f 96 129 130
f 96 130 97
f 97 130 98
f 98 130 131
f 98 131 121
f 99 102 133
f 99 133 134
f 99 134 132
f 100 126 135
f 100 135 101
f 101 135 136
f 101 136 137
f 101 137 102
f 102 137 138
f 102 138 133
f 103 139 104
f 104 140 141
f 104 141 105
f 104 139 140
f 105 141 142
f 105 142 106
f 106 142 143
f 106 143 107
f 107 143 144
f 107 144 145
f 107 145 146
f 107 146 108
f 108 127 109
f 108 146 147
f 108 147 127
f 110 111 120
f 110 120 112
f 112 120 124
f 114 123 148
f 114 148 149
f 114 149 116
f 114 116 115
f 116 149 117
f 117 149 150
f 117 150 151
f 117 151 118
f 118 152 120
f 118 120 119
f 118 151 153
f 118 153 152
f 120 152 153
f 120 153 154
f 120 154 155
f 120 155 124
f 121 131 156
f 121 156 122
f 122 157 123
f 122 156 158
f 122 158 159
f 122 159 157
f 123 157 148
f 124 155 125
f 125 155 160
f 125 160 126
f 126 160 161
f 126 161 162
f 126 162 163
f 126 163 135
f 127 147 128
f 128 147 164
f 128 164 129
f 129 165 166
f 129 166 167
f 129 167 168
f 129 168 169
f 129 169 170
f 129 170 130
f 129 164 171
f 129 171 165
f 130 170 169
f 130 169 131
f 131 169 172
f 131 172 156
f 132 134 174
f 132 174 175
f 132 175 176
f 132 176 177
f 132 177 173
f 133 178 179
f 133 179 180
f 133 180 134
f 133 138 181
f 133 181 178
f 134 180 228
f 134 228 227
f 134 227 270
f 134 270 313
f 134 313 345
f 134 345 344
f 134 344 376
f 134 376 378
f 134 378 398
f 134 398 416
f 134 416 415
f 134 415 414
f 134 414 426
f 134 426 430
f 134 430 429
f 134 429 428
f 134 428 427
f 134 427 420
f 134 420 417
f 134 417 399
f 134 399 379
f 134 379 354
f 134 354 319
f 134 319 280
f 134 280 235
f 134 235 188
f 134 188 187
f 134 187 234
f 134 234 277
f 134 277 317
f 134 317 351
f 134 351 371
f 134 371 340
f 134 340 308
f 134 308 266
f 134 266 224
f 134 224 223
f 134 223 222
f 134 222 177
f 134 177 176
f 134 176 175
f 134 175 174
f 135 163 182
f 135 182 183
f 135 183 136
f 136 183 137
f 137 183 184
f 137 184 138
f 138 185 181
f 138 184 185
f 139 186 187
f 139 187 188
f 139 188 140
f 140 189 141
f 140 188 189
f 141 189 190
f 141 190 142
f 142 190 191
f 142 191 143
f 143 191 144
f 144 192 193
f 144 193 194
f 144 194 195
f 144 195 196
f 144 196 145
f 144 191 192
f 145 197 146
f 145 196 197
f 146 197 147
f 147 197 198
f 147 198 171
f 147 171 164
f 148 157 149
f 149 199 150
f 149 157 199
f 150 199 200
f 150 200 151
f 151 200 201
f 151 201 202
f 151 202 203
f 151 203 204
f 151 204 154
f 151 154 153
f 154 204 205
f 154 205 155
f 155 205 160
f 156 172 206
f 156 206 158
f 157 159 199
f 158 199 159
f 158 206 207
f 158 207 208
f 158 208 209
f 158 209 210
f 158 210 211
f 158 211 199
f 160 205 162
f 160 162 161
f 162 212 213
f 162 213 182
f 162 182 163
f 162 205 212
f 165 198 166
f 165 171 198
f 166 198 214
f 166 214 215
f 166 215 216
f 166 216 217
f 166 217 167
f 167 217 218
f 167 218 169
f 167 169 168
f 169 218 219
f 169 219 220
f 169 220 172
f 172 220 206
f 173 177 222
f 173 222 223
f 173 223 224
f 173 224 221
f 178 225 226
f 178 226 227
f 178 227 228
f 178 228 179
f 178 181 225
f 179 228 180
f 181 185 229
f 181 229 225
f 182 213 230
f 182 230 183
f 183 230 184
f 184 230 185
f 185 230 231
f 185 231 232
f 185 232 229
f 186 233 234
f 186 234 187
f 188 235 236
f 188 236 189
f 189 236 190
f 190 236 237
f 190 237 238
f 190 238 239
f 190 239 191
f 191 239 192
f 192 239 240
f 192 240 241
f 192 241 242
f 192 242 193
f 193 242 243
f 193 243 194
f 194 243 244
f 194 244 195
f 195 244 245
f 195 245 196
f 196 245 198
f 196 198 197
f 198 245 214
f 199 211 246
f 199 246 200
f 200 246 201
f 201 246 247
f 201 247 202
f 202 247 248
f 202 248 249
f 202 249 250
f 202 250 251
f 202 251 203
f 203 205 204
f 203 251 205
f 205 251 212
f 206 220 207
f 207 220 208
f 208 220 219
f 208 219 218
f 208 218 209
f 209 218 252
f 209 252 253
f 209 253 210
f 210 253 254
f 210 254 246
f 210 246 211
f 212 251 250
f 212 250 249
f 212 249 255
f 212 255 213
f 213 255 256
f 213 256 257
f 213 257 230
f 214 245 258
f 214 258 215
f 215 258 216
f 216 258 259
f 216 259 260
f 216 260 261
f 216 261 262
f 216 262 263
f 216 263 264
f 216 264 217
f 217 252 218
f 217 264 252
f 221 224 266
f 221 266 265
f 225 229 232
f 225 232 267
f 225 267 268
f 225 268 226
f 226 268 269
f 226 269 227
f 227 269 270
f 230 257 271
f 230 271 231
f 231 272 232
f 231 271 257
f 231 257 272
f 232 273 274
f 232 274 275
f 232 275 267
f 232 272 273
f 233 276 277
f 233 277 234
f 235 278 279
f 235 279 236
f 235 280 278
f 236 279 238
f 236 238 237
f 238 279 241
f 238 241 240
f 238 240 239
f 241 279 278
f 241 278 281
f 241 281 242
f 242 282 243
f 242 281 283
f 242 283 284
f 242 284 282
f 243 282 285
f 243 285 244
f 244 258 245
f 244 285 286
f 244 286 258
f 246 254 287
f 246 287 247
f 247 287 288
f 247 288 248
f 248 289 290
f 248 290 291
f 248 291 292
f 248 292 293
f 248 293 249
f 248 288 289
f 249 293 292
f 249 292 255
f 252 264 294
f 252 294 253
f 253 294 295
f 253 295 296
f 253 296 254
f 254 296 287
f 255 292 297
f 255 297 256
f 256 297 298
f 256 298 299
f 256 299 300
f 256 300 257
f 257 300 272
f 258 286 259
f 259 286 260
f 260 286 301
f 260 301 302
f 260 302 303
f 260 303 261
f 261 304 305
f 261 305 262
f 261 303 304
f 262 305 306
f 262 306 263
f 263 306 294
f 263 294 264
f 265 266 307
f 266 308 307
f 267 275 309
f 267 309 310
f 267 310 311
f 267 311 312
f 267 312 313
f 267 313 268
f 268 313 270
f 268 270 269
f 272 300 314
f 272 314 273
f 273 315 274
f 273 314 315
f 274 315 309
f 274 309 275
f 276 316 277
f 277 316 317
f 278 280 318
f 278 318 281
f 280 319 318
f 281 320 283
f 281 318 320
f 282 284 321
f 282 321 285
f 283 320 322
f 283 322 323
f 283 323 284
f 284 323 324
f 284 324 321
f 285 321 325
f 285 325 326
f 285 326 302
f 285 302 301
f 285 301 286
f 287 296 289
f 287 289 288
f 289 327 328
f 289 328 329
f 289 329 330
f 289 330 290
f 289 296 327
f 290 330 291
f 291 297 292
f 291 330 331
f 291 331 332
f 291 332 298
f 291 298 297
f 294 306 295
f 295 306 305
f 295 305 327
f 295 327 296
f 298 332 299
f 299 332 333
f 299 333 300
f 300 333 334
f 300 334 315
f 300 315 314
f 302 326 335
f 302 335 336
f 302 336 303
f 303 337 304
f 303 336 338
f 303 338 337
f 304 328 305
f 304 337 328
f 305 328 327
f 307 308 340
f 307 340 339
f 309 315 341
f 309 341 310
f 310 342 343
f 310 343 344
f 310 344 345
f 310 345 311
f 310 341 346
f 310 346 347
f 310 347 342
f 311 345 312
f 312 345 313
f 315 348 349
f 315 349 341
f 315 334 348
f 316 350 317
f 317 350 351
f 318 319 352
f 318 352 353
f 318 353 320
f 319 354 352
f 320 353 322
f 321 324 355
f 321 355 325
f 322 353 356
f 322 356 357
f 322 357 323
f 323 357 358
f 323 358 324
f 324 359 355
f 324 358 360
f 324 360 359
f 325 361 335
f 325 335 326
f 325 355 359
f 325 359 362
f 325 362 361
f 328 337 329
f 329 337 363
f 329 363 330
f 330 363 364
f 330 364 331
f 331 364 365
f 331 365 366
f 331 366 367
f 331 367 368
f 331 368 332
f 332 368 369
f 332 369 333
f 333 369 334
f 334 369 348
f 335 361 370
f 335 370 338
f 335 338 336
f 337 338 363
f 338 370 365
f 338 365 364
f 338 364 363
f 339 340 350
f 340 371 350
f 341 349 372
f 341 372 373
f 341 373 346
f 342 347 374
f 342 374 375
f 342 375 343
f 343 376 344
f 343 375 377
f 343 377 378
f 343 378 376
f 346 373 374
f 346 374 347
f 348 369 372
f 348 372 349
f 350 371 351
f 352 354 379
f 352 379 380
f 352 380 356
f 352 356 353
f 356 380 357
f 357 380 381
f 357 381 358
f 358 381 382
f 358 382 383
f 358 383 360
f 359 384 362
f 359 360 385
f 359 385 384
f 360 386 385
f 360 383 387
f 360 387 388
f 360 388 386
f 361 362 389
f 361 389 370
f 362 384 390
f 362 390 389
f 365 370 389
f 365 389 366
f 366 389 391
f 366 391 367
f 367 391 392
f 367 392 393
f 367 393 369
f 367 369 368
f 369 393 372
f 372 392 394
f 372 394 373
f 372 393 392
f 373 394 395
f 373 395 374
f 374 396 375
f 374 395 396
f 375 396 397
f 375 397 377
f 377 397 398
f 377 398 378
f 379 399 380
f 380 399 400
f 380 400 381
f 381 400 401
f 381 401 382
f 382 401 387
f 382 387 383
f 384 385 402
f 384 402 390
f 385 386 403
f 385 403 402
f 386 388 404
f 386 404 403
f 387 401 405
f 387 405 406
f 387 406 388
f 388 406 407
f 388 407 404
f 389 390 391
f 390 402 391
f 391 402 408
f 391 408 392
f 392 408 409
f 392 409 410
f 392 410 411
f 392 411 394
f 394 411 396
f 394 396 395
f 396 412 397
f 396 411 412
f 397 412 413
f 397 413 414
f 397 414 415
f 397 415 416
f 397 416 398
f 399 417 418
f 399 418 400
f 400 418 405
f 400 405 401
f 402 403 408
f 403 409 408
f 403 404 409
f 404 410 409
f 404 407 419
f 404 419 410
f 405 420 421
f 405 421 422
f 405 422 406
f 405 418 420
f 406 422 423
f 406 423 407
f 407 424 419
f 407 423 425
f 407 425 424
f 410 419 424
f 410 424 411
f 411 424 412
f 412 425 413
f 412 424 425
f 413 425 414
f 414 425 426
f 417 420 418
f 420 427 421
f 421 427 428
f 421 428 429
f 421 429 430
f 421 430 431
f 421 431 422
f 422 431 423
f 423 431 430
f 423 430 426
f 423 426 425

