# https://github.com/mikedh/trimesh
v -0.09996388 0.42350636 -0.00165760
v -0.09991599 0.42371197 -0.00458189
v -0.09993993 0.42014551 -0.00163138
v -0.09811074 0.41992572 0.00207350
v -0.09829749 0.42326526 0.00168612
v -0.09818736 0.42670409 0.00152009
v -0.09977234 0.42664030 -0.00166634
v -0.09892477 0.42387505 -0.00876444
v -0.09986332 0.41992572 -0.00459645
v -0.09993514 0.41992572 -0.00177702
v -0.09970051 0.42655519 -0.00453237
v -0.09872366 0.42657647 -0.00871784
v -0.09993514 0.41992572 -0.00163138
v -0.09985853 0.41992572 -0.00147410
v -0.09877155 0.41992572 0.00073368
v -0.09804849 0.41992572 0.00219292
v -0.09691842 0.42106017 0.00401332
v -0.09685616 0.42315182 0.00396380
v -0.09791920 0.41992572 0.00240554
v -0.09671251 0.42672537 0.00381817
v -0.09651139 0.43080233 0.00347739
v -0.09797188 0.43088031 0.00115601
v -0.09927434 0.43099375 -0.00171002
v -0.09759358 0.42676792 -0.01253049
v -0.09775160 0.42410903 -0.01256835
v -0.09878591 0.41992572 -0.00883143
v -0.09908280 0.43107176 -0.00450616
v -0.09786174 0.43169571 -0.00920134
v -0.09704291 0.43390080 -0.01111495
v -0.09516105 0.42314473 0.00500653
v -0.09499345 0.42682463 0.00497449
v -0.09692799 0.41992572 0.00402788
v -0.09591763 0.41992572 0.00462497
v -0.09473488 0.43086613 0.00487837
v -0.09440926 0.43502819 0.00471818
v -0.09409800 0.43860880 0.00452303
v -0.09625761 0.43512744 0.00285700
v -0.09766063 0.43538270 0.00049776
v -0.09854649 0.43573011 -0.00183236
v -0.09592720 0.42713661 -0.01774703
v -0.09579312 0.41992572 -0.01788975
v -0.09772766 0.41992572 -0.01212563
v -0.09598945 0.42443517 -0.01783150
v -0.09825918 0.43600664 -0.00450616
v -0.09712432 0.43931784 -0.00721201
v -0.09656885 0.43933909 -0.00962367
v -0.09328397 0.43814794 -0.02124220
v -0.09552018 0.41992572 0.00485798
v -0.09206770 0.41992572 0.00573469
v -0.09150265 0.42703026 0.00592692
v -0.09145956 0.43107176 0.00592692
v -0.09139731 0.43515578 0.00588032
v -0.09128717 0.43879316 0.00580750
v -0.09113395 0.44238086 0.00558906
v -0.09368619 0.44206181 0.00423759
v -0.09598945 0.43870096 0.00223078
v -0.09733980 0.43888532 -0.00015467
v -0.09796230 0.43913348 -0.00200711
v -0.09444277 0.42737768 -0.02158007
v -0.09452418 0.42445645 -0.02165580
v -0.09297272 0.43646044 -0.02284707
v -0.09443320 0.41992572 -0.02174318
v -0.09769414 0.43930366 -0.00453529
v -0.09693756 0.44082098 -0.00680715
v -0.09615705 0.44220362 -0.00852561
v -0.09218741 0.44714559 -0.01822470
v -0.09312594 0.44084226 -0.01999559
v -0.09269498 0.43949508 -0.02195580
v -0.09148350 0.41992572 0.00587450
v -0.08798313 0.44306154 0.00603469
v -0.08781075 0.44699669 0.00604634
v -0.08767667 0.45084676 0.00586867
v -0.08755217 0.45453372 0.00538517
v -0.09043004 0.45037169 0.00459876
v -0.09314989 0.44519574 0.00389390
v -0.09582664 0.44225323 0.00093465
v -0.09703812 0.44123223 -0.00071973
v -0.09668857 0.44360750 -0.00155565
v -0.09718177 0.44226032 -0.00213236
v -0.09678433 0.44389112 -0.00274984
v -0.09678913 0.44390530 -0.00338479
v -0.09309722 0.43375899 -0.02310338
v -0.09340368 0.42746985 -0.02327814
v -0.09347071 0.42434300 -0.02336843
v -0.09344677 0.42025186 -0.02345290
v -0.09344199 0.41992572 -0.02346163
v -0.09180433 0.44357204 -0.02172279
v -0.09077002 0.44754974 -0.02174318
v -0.08967825 0.44903160 -0.02231697
v -0.09710516 0.44198380 -0.00446830
v -0.09657365 0.44318207 -0.00544986
v -0.09489289 0.44625930 -0.00872949
v -0.09336058 0.44893235 -0.01154893
v -0.09103818 0.45096020 -0.01817810
v -0.09007090 0.45105237 -0.02129463
v -0.08824650 0.41992572 0.00519585
v -0.06004723 0.48417141 0.00583954
v -0.06876224 0.47971158 0.00598809
v -0.07655786 0.47078481 0.00601721
v -0.08409490 0.45892266 0.00591818
v -0.08958727 0.45426428 0.00419973
v -0.08370704 0.46264508 0.00548129
v -0.08746119 0.45805762 0.00457546
v -0.09260400 0.44796099 0.00349195
v -0.09424166 0.44627348 0.00156087
v -0.09354733 0.45025115 0.00037543
v -0.09313073 0.45270441 -0.00047507
v -0.09451460 0.45027243 -0.00212945
v -0.09618577 0.44552188 -0.00217896
v -0.09603255 0.44561408 -0.00459354
v -0.09348029 0.45317948 -0.00429936
v -0.09418899 0.45086091 -0.00521102
v -0.09197672 0.43530468 -0.02314998
v -0.09176603 0.43129865 -0.02336260
v -0.09177560 0.42759747 -0.02352571
v -0.09133027 0.43963689 -0.02289367
v -0.09177560 0.42418701 -0.02361309
v -0.09174687 0.42001080 -0.02370921
v -0.09178039 0.41992572 -0.02370338
v -0.08893604 0.45126507 -0.02207522
v -0.08688179 0.45416503 -0.02216551
v -0.09374845 0.44974065 -0.00887512
v -0.09298230 0.45200958 -0.00900037
v -0.09191446 0.45497333 -0.00905280
v -0.08947714 0.45339927 -0.02088395
v -0.08698235 0.41992572 0.00458419
v -0.05400419 0.48473862 0.00424342
v -0.05615900 0.48383106 0.00497158
v -0.05666658 0.48709262 0.00524536
v -0.06011906 0.48753223 0.00570847
v -0.06410785 0.48408631 0.00589197
v -0.07239189 0.47930033 0.00574051
v -0.07277498 0.47529426 0.00600265
v -0.07618436 0.47457815 0.00572304
v -0.08005344 0.46693474 0.00589780
v -0.08907491 0.45651193 0.00384438
v -0.08614915 0.46213458 0.00418516
v -0.07979486 0.47024594 0.00546964
v -0.09227839 0.45023697 0.00266185
v -0.09161758 0.45416503 0.00123174
v -0.08983627 0.45807181 0.00153757
v -0.08940052 0.46100013 -0.00007021
v -0.09122493 0.45861777 -0.00196925
v -0.09258006 0.45522858 -0.00196051
v -0.09327918 0.45277533 -0.00660035
v -0.09118662 0.45880922 -0.00501296
v -0.09273329 0.45478897 -0.00528966
v -0.08937179 0.42776765 -0.02328688
v -0.08624971 0.45430684 -0.02212765
v -0.08499993 0.45556891 -0.02199949
v -0.08936222 0.41992572 -0.02345872
v -0.09074129 0.41992572 -0.02360435
v -0.08681954 0.45833415 -0.02095094
v -0.08462642 0.45883756 -0.02174318
v -0.09022414 0.45897937 -0.00923047
v -0.08928081 0.46020601 -0.01085863
v -0.08896477 0.45578164 -0.01901694
v -0.08491373 0.46392843 -0.01953248
v -0.08578523 0.46141847 -0.02034219
v -0.08692009 0.41992572 0.00440361
v -0.05325719 0.48434865 0.00192495
v -0.05265384 0.48672392 0.00125504
v -0.05412869 0.48675229 0.00396671
v -0.05482302 0.48772365 0.00337253
v -0.05706881 0.48856033 0.00388807
v -0.06049735 0.48970186 0.00413273
v -0.06366252 0.48758893 0.00529488
v -0.06823072 0.48384524 0.00554245
v -0.07182685 0.48327091 0.00432206
v -0.07570551 0.47859838 0.00440070
v -0.08539736 0.46475801 0.00363467
v -0.08858648 0.45906447 0.00297350
v -0.08353465 0.46634626 0.00440361
v -0.08228965 0.46986307 0.00396089
v -0.07946446 0.47378403 0.00422594
v -0.08807412 0.46214876 0.00128126
v -0.08468389 0.46742400 0.00267059
v -0.08618746 0.46606264 0.00116475
v -0.08540215 0.46904058 -0.00035273
v -0.08767667 0.46615480 -0.00217022
v -0.08978360 0.46173043 -0.00206537
v -0.08986021 0.46162408 -0.00492849
v -0.08963036 0.46099304 -0.00779162
v -0.08443488 0.45210174 -0.02204027
v -0.08096804 0.46310597 -0.02115482
v -0.08124098 0.45964587 -0.02138492
v -0.08767667 0.41992572 -0.02199366
v -0.07845888 0.46029109 -0.02061890
v -0.07435037 0.46783524 -0.01943636
v -0.07109422 0.47281973 -0.01846354
v -0.05281665 0.48767404 -0.01236156
v -0.08424814 0.46273019 -0.02069463
v -0.08058975 0.46682839 -0.02059560
v -0.08655139 0.46640299 -0.00904988
v -0.08484669 0.46847337 -0.01162466
v -0.08356338 0.46968580 -0.01311884
v -0.08161448 0.47259994 -0.01345380
v -0.08189221 0.47001197 -0.01720528
v -0.08068072 0.47123152 -0.01833830
v -0.08171025 0.46896260 -0.01945093
v -0.08288342 0.46629661 -0.02003346
v -0.08648913 0.41992572 0.00290069
v -0.05264427 0.48470319 -0.00192265
v -0.05151898 0.48680193 -0.00273819
v -0.08590494 0.41992572 -0.00069934
v -0.05317100 0.48828380 -0.00305567
v -0.05409517 0.48790801 0.00103368
v -0.05703050 0.48938991 0.00102495
v -0.06106717 0.49117667 0.00057057
v -0.06234569 0.49198497 -0.00096148
v -0.06242710 0.49198497 -0.00095856
v -0.06333691 0.49127592 0.00052397
v -0.06345662 0.48977988 0.00373662
v -0.06746935 0.48724861 0.00403662
v -0.07429771 0.48143454 0.00372497
v -0.07035201 0.48582345 0.00351817
v -0.07800398 0.47692506 0.00364341
v -0.08148519 0.47217451 0.00342787
v -0.08418588 0.46991980 0.00097543
v -0.08052271 0.47487596 0.00221039
v -0.08216515 0.47340115 0.00075698
v -0.08475092 0.47104716 -0.00157313
v -0.08560806 0.46989853 -0.00213527
v -0.08748514 0.46634626 -0.00491976
v -0.08487542 0.47122443 -0.00262168
v -0.08486585 0.47121024 -0.00350421
v -0.07706543 0.47114642 -0.01965481
v -0.07720909 0.46738854 -0.02014122
v -0.07716599 0.46390719 -0.02025190
v -0.08695362 0.41992572 -0.02076162
v -0.05330029 0.48567455 -0.01210233
v -0.05132744 0.48734787 -0.01025863
v -0.07095535 0.47492557 -0.01826548
v -0.05628829 0.48781585 -0.01356739
v -0.05341521 0.48964516 -0.01234117
v -0.08006302 0.47046574 -0.01955578
v -0.07866000 0.47335151 -0.01893539
v -0.07557622 0.47735049 -0.01828878
v -0.08517231 0.46899806 -0.00907610
v -0.08425771 0.47043740 -0.00912561
v -0.08068072 0.47520210 -0.01106543
v -0.08017315 0.47465614 -0.01352953
v -0.08112126 0.47194763 -0.01591207
v -0.07720909 0.47592533 -0.01830043
v -0.07761611 0.47665562 -0.01621207
v -0.05104971 0.48697917 -0.00681880
v -0.05280229 0.48875884 -0.00718579
v -0.08578523 0.41992572 -0.00435179
v -0.05291721 0.48939700 -0.01058776
v -0.05674319 0.49012729 -0.00301198
v -0.06032496 0.49156663 -0.00297994
v -0.06193389 0.49216933 -0.00293916
v -0.06258033 0.49219767 -0.00286634
v -0.06382533 0.49176518 -0.00273527
v -0.06650208 0.48958133 0.00097252
v -0.06578382 0.48910629 0.00324438
v -0.07277498 0.48423521 0.00246379
v -0.07667278 0.47959813 0.00274340
v -0.06867126 0.48815617 0.00108320
v -0.07135759 0.48599363 0.00115019
v -0.08124098 0.47582604 -0.00067895
v -0.08149477 0.47611675 -0.00222848
v -0.08365436 0.47290484 -0.00214692
v -0.08552666 0.46986307 -0.00482364
v -0.08138463 0.47598204 -0.00509160
v -0.08349156 0.47291193 -0.00488772
v -0.07379491 0.47781844 -0.01818393
v -0.07129054 0.47757028 -0.01803538
v -0.08658969 0.41992572 -0.01798004
v -0.06934164 0.47958395 -0.01737713
v -0.05958754 0.48785131 -0.01420235
v -0.06219726 0.49003513 -0.01419943
v -0.06063621 0.49082925 -0.01367225
v -0.05681502 0.49063779 -0.01289748
v -0.05847183 0.49180061 -0.01256253
v -0.05687727 0.49111996 -0.01068387
v -0.07054833 0.48557529 -0.01505575
v -0.06647335 0.48942537 -0.01430429
v -0.06895857 0.48331346 -0.01649168
v -0.08462163 0.47089826 -0.00603530
v -0.08212684 0.47362804 -0.00935862
v -0.08108296 0.47564171 -0.00794308
v -0.07893772 0.47772627 -0.01002562
v -0.07679250 0.47978956 -0.01207029
v -0.07648604 0.47944214 -0.01372176
v -0.07815242 0.47729375 -0.01364603
v -0.07424982 0.48125018 -0.01578974
v -0.08577566 0.41992572 -0.00466927
v -0.08591452 0.41992572 -0.00858386
v -0.08592888 0.41992572 -0.00894794
v -0.08614436 0.41992572 -0.01309845
v -0.08635027 0.41992572 -0.01536449
v -0.05662827 0.49066616 -0.00723531
v -0.06099535 0.49228987 -0.00709550
v -0.06269525 0.49236076 -0.00694696
v -0.06407433 0.49180061 -0.00677802
v -0.06734964 0.48973023 -0.00245566
v -0.06906870 0.48848234 -0.00123235
v -0.07345015 0.48469610 -0.00010516
v -0.07739584 0.48028588 -0.00002943
v -0.07975656 0.47828642 -0.00223430
v -0.07961290 0.47818713 -0.00529549
v -0.06458670 0.48989332 -0.01425769
v -0.06036806 0.49214096 -0.01275768
v -0.06003765 0.49214096 -0.01075960
v -0.05842873 0.49174390 -0.01165378
v -0.06851803 0.48814199 -0.01386448
v -0.07264568 0.48411467 -0.01423730
v -0.06709586 0.48935445 -0.01325283
v -0.06233612 0.49209841 -0.01273729
v -0.07723303 0.48016534 -0.00905280
v -0.07291384 0.48436993 -0.01264117
v -0.07426897 0.48234919 -0.01355283
v -0.06258033 0.49219767 -0.01084407
v -0.06409348 0.49155954 -0.01077125
v -0.06688037 0.49012020 -0.00654792
v -0.06920756 0.48856033 -0.00342557
v -0.07081171 0.48724152 -0.00229255
v -0.07374224 0.48488752 -0.00223430
v -0.07564326 0.48294477 -0.00223139
v -0.07778371 0.48061205 -0.00223430
v -0.07765921 0.48050570 -0.00554889
v -0.07084043 0.48617087 -0.01333147
v -0.06885801 0.48826961 -0.01254797
v -0.06677982 0.48992168 -0.01068970
v -0.07321551 0.48458972 -0.01041009
v -0.06920756 0.48853905 -0.00639647
v -0.07125224 0.48690119 -0.00621879
v -0.07367520 0.48487334 -0.00601491
v -0.07563847 0.48277459 -0.00580520
v -0.06901603 0.48838306 -0.01062562
f 1 2 3
f 1 3 4
f 1 4 5
f 1 5 6
f 1 6 7
f 1 7 2
f 2 8 9
f 2 9 10
f 2 10 3
f 2 7 11
f 2 11 12
f 2 12 8
f 3 10 13
f 3 13 14
f 3 14 15
f 3 15 4
f 4 15 14
f 4 14 13
f 4 13 10
f 4 10 9
f 4 9 26
f 4 26 42
f 4 42 41
f 4 41 62
f 4 62 86
f 4 86 119
f 4 119 152
f 4 152 151
f 4 151 187
f 4 187 230
f 4 230 269
f 4 269 292
f 4 292 291
f 4 291 290
f 4 290 289
f 4 289 288
f 4 288 248
f 4 248 205
f 4 205 202
f 4 202 160
f 4 160 126
f 4 126 96
f 4 96 69
f 4 69 49
f 4 49 48
f 4 48 33
f 4 33 32
f 4 32 19
f 4 19 16
f 4 16 5
f 5 17 18
f 5 18 6
f 5 16 19
f 5 19 17
f 6 20 21
f 6 21 22
f 6 22 7
f 6 18 20
f 7 22 23
f 7 23 11
f 8 12 24
f 8 24 25
f 8 25 26
f 8 26 9
f 11 23 27
f 11 27 12
f 12 27 28
f 12 28 29
f 12 29 24
f 17 30 31
f 17 31 18
f 17 19 32
f 17 32 33
f 17 33 30
f 18 31 34
f 18 34 20
f 20 34 35
f 20 35 21
f 21 35 36
f 21 36 37
f 21 37 22
f 22 37 38
f 22 38 23
f 23 38 39
f 23 39 27
f 24 29 40
f 24 40 25
f 25 41 42
f 25 42 26
f 25 40 43
f 25 43 41
f 27 39 44
f 27 44 45
f 27 45 46
f 27 46 28
f 28 46 29
f 29 46 47
f 29 47 40
f 30 33 48
f 30 48 49
f 30 49 50
f 30 50 51
f 30 51 52
f 30 52 31
f 31 52 53
f 31 53 34
f 34 53 35
f 35 53 54
f 35 54 36
f 36 54 55
f 36 55 37
f 37 55 56
f 37 56 38
f 38 56 57
f 38 57 39
f 39 57 58
f 39 58 44
f 40 59 60
f 40 60 43
f 40 47 61
f 40 61 59
f 41 43 62
f 43 60 62
f 44 58 63
f 44 63 45
f 45 63 64
f 45 64 46
f 46 64 65
f 46 65 66
f 46 66 67
f 46 67 47
f 47 67 68
f 47 68 61
f 49 69 50
f 50 69 70
f 50 70 71
f 50 71 51
f 51 71 52
f 52 71 53
f 53 71 72
f 53 72 54
f 54 72 73
f 54 73 74
f 54 74 55
f 55 75 56
f 55 74 75
f 56 75 76
f 56 76 57
f 57 76 77
f 57 77 58
f 58 77 78
f 58 78 79
f 58 79 80
f 58 80 81
f 58 81 63
f 59 82 83
f 59 83 60
f 59 61 82
f 60 83 84
f 60 84 85
f 60 85 86
f 60 86 62
f 61 68 87
f 61 87 88
f 61 88 89
f 61 89 82
f 63 81 90
f 63 90 64
f 64 90 91
f 64 91 65
f 65 91 92
f 65 92 66
f 66 87 67
f 66 92 93
f 66 93 94
f 66 94 95
f 66 95 87
f 67 87 68
f 69 96 97
f 69 97 98
f 69 98 70
f 70 98 71
f 71 98 99
f 71 99 100
f 71 100 72
f 72 100 73
f 73 101 74
f 73 100 102
f 73 102 103
f 73 103 101
f 74 101 75
f 75 101 104
f 75 104 76
f 76 104 105
f 76 105 77
f 77 105 78
f 78 105 106
f 78 106 107
f 78 107 108
f 78 108 109
f 78 109 80
f 78 80 79
f 80 109 108
f 80 108 81
f 81 110 91
f 81 91 90
f 81 108 111
f 81 111 112
f 81 112 110
f 82 113 114
f 82 114 115
f 82 115 83
f 82 89 116
f 82 116 113
f 83 115 84
f 84 115 117
f 84 117 118
f 84 118 86
f 84 86 85
f 86 118 119
f 87 95 88
f 88 95 89
f 89 95 120
f 89 120 121
f 89 121 116
f 91 110 92
f 92 110 122
f 92 122 93
f 93 122 123
f 93 123 94
f 94 123 124
f 94 124 125
f 94 125 95
f 95 125 120
f 96 126 127
f 96 127 128
f 96 128 97
f 97 128 129
f 97 129 130
f 97 130 131
f 97 131 98
f 98 131 132
f 98 132 133
f 98 133 99
f 99 133 132
f 99 132 134
f 99 134 135
f 99 135 100
f 100 135 102
f 101 103 136
f 101 136 104
f 102 137 103
f 102 135 138
f 102 138 137
f 103 137 136
f 104 136 139
f 104 139 106
f 104 106 105
f 106 139 107
f 107 140 141
f 107 141 142
f 107 142 143
f 107 143 144
f 107 144 108
f 107 139 140
f 108 144 111
f 110 112 145
f 110 145 122
f 111 144 143
f 111 143 146
f 111 146 147
f 111 147 145
f 111 145 112
f 113 116 121
f 113 121 114
f 114 121 115
f 115 148 117
f 115 121 149
f 115 149 150
f 115 150 148
f 117 148 118
f 118 151 152
f 118 152 119
f 118 148 151
f 120 125 153
f 120 153 121
f 121 150 149
f 121 153 154
f 121 154 150
f 122 145 123
f 123 145 124
f 124 145 146
f 124 146 155
f 124 155 125
f 125 155 156
f 125 156 157
f 125 157 158
f 125 158 159
f 125 159 153
f 126 160 161
f 126 161 127
f 127 161 162
f 127 162 163
f 127 163 129
f 127 129 128
f 129 163 164
f 129 164 165
f 129 165 166
f 129 166 130
f 130 166 167
f 130 167 168
f 130 168 131
f 131 168 132
f 132 168 169
f 132 169 170
f 132 170 134
f 134 138 135
f 134 170 138
f 136 140 139
f 136 137 171
f 136 171 172
f 136 172 140
f 137 138 173
f 137 173 174
f 137 174 171
f 138 170 175
f 138 175 174
f 138 174 173
f 140 172 141
f 141 172 142
f 142 176 177
f 142 177 178
f 142 178 179
f 142 179 180
f 142 180 181
f 142 181 143
f 142 172 176
f 143 181 146
f 145 147 146
f 146 181 182
f 146 182 183
f 146 183 155
f 148 150 184
f 148 184 151
f 150 154 185
f 150 185 186
f 150 186 184
f 151 184 186
f 151 186 188
f 151 188 189
f 151 189 190
f 151 190 191
f 151 191 187
f 153 159 192
f 153 192 154
f 154 192 193
f 154 193 185
f 155 183 156
f 156 183 194
f 156 194 195
f 156 195 158
f 156 158 157
f 158 195 196
f 158 196 197
f 158 197 198
f 158 198 199
f 158 199 200
f 158 200 159
f 159 200 201
f 159 201 192
f 160 202 161
f 161 203 204
f 161 204 162
f 161 202 205
f 161 205 203
f 162 204 206
f 162 206 207
f 162 207 164
f 162 164 163
f 164 207 208
f 164 208 165
f 165 208 209
f 165 209 166
f 166 209 210
f 166 210 211
f 166 211 212
f 166 212 213
f 166 213 167
f 167 213 214
f 167 214 168
f 168 214 169
f 169 215 170
f 169 214 216
f 169 216 215
f 170 217 175
f 170 215 217
f 171 174 218
f 171 218 177
f 171 177 172
f 172 177 176
f 174 175 218
f 175 217 218
f 177 218 219
f 177 219 179
f 177 179 178
f 179 219 220
f 179 220 221
f 179 221 222
f 179 222 223
f 179 223 180
f 180 224 182
f 180 182 181
f 180 223 225
f 180 225 226
f 180 226 224
f 182 224 183
f 183 224 194
f 185 193 227
f 185 227 228
f 185 228 186
f 186 228 189
f 186 189 229
f 186 229 188
f 187 191 231
f 187 231 232
f 187 232 230
f 188 229 189
f 189 228 190
f 190 228 233
f 190 233 234
f 190 234 191
f 191 234 235
f 191 235 232
f 191 232 231
f 192 201 193
f 193 201 236
f 193 236 237
f 193 237 238
f 193 238 227
f 194 224 239
f 194 239 195
f 195 239 240
f 195 240 241
f 195 241 197
f 195 197 196
f 197 241 242
f 197 242 243
f 197 243 198
f 198 243 199
f 199 244 200
f 199 243 242
f 199 242 245
f 199 245 244
f 200 244 237
f 200 237 236
f 200 236 201
f 203 246 204
f 203 205 246
f 204 246 247
f 204 247 206
f 205 248 246
f 206 247 249
f 206 249 250
f 206 250 207
f 207 250 208
f 208 250 209
f 209 251 210
f 209 250 251
f 210 251 252
f 210 252 253
f 210 253 211
f 211 253 254
f 211 254 212
f 212 254 255
f 212 255 256
f 212 256 213
f 213 256 214
f 214 256 216
f 215 216 257
f 215 257 258
f 215 258 217
f 216 256 259
f 216 259 260
f 216 260 257
f 217 258 220
f 217 220 218
f 218 220 219
f 220 261 221
f 220 258 261
f 221 261 222
f 222 225 223
f 222 261 262
f 222 262 263
f 222 263 225
f 224 226 264
f 224 264 239
f 225 263 262
f 225 262 226
f 226 262 265
f 226 265 266
f 226 266 264
f 227 238 267
f 227 267 268
f 227 268 228
f 228 268 233
f 230 232 246
f 230 246 269
f 232 235 249
f 232 249 246
f 233 268 270
f 233 270 234
f 234 270 271
f 234 271 272
f 234 272 273
f 234 273 274
f 234 274 235
f 235 274 275
f 235 275 276
f 235 276 249
f 237 244 238
f 238 277 278
f 238 278 279
f 238 279 267
f 238 244 277
f 239 264 280
f 239 280 240
f 240 280 281
f 240 281 241
f 241 281 282
f 241 282 283
f 241 283 284
f 241 284 285
f 241 285 286
f 241 286 242
f 242 286 245
f 244 245 287
f 244 287 277
f 245 286 285
f 245 285 287
f 246 288 289
f 246 289 290
f 246 290 291
f 246 291 292
f 246 292 269
f 246 249 247
f 246 248 288
f 249 276 293
f 249 293 250
f 250 293 251
f 251 293 252
f 252 294 253
f 252 293 294
f 253 294 295
f 253 295 254
f 254 296 297
f 254 297 255
f 254 295 296
f 255 297 298
f 255 298 259
f 255 259 256
f 257 299 300
f 257 300 258
f 257 260 299
f 258 300 261
f 259 298 299
f 259 299 260
f 261 300 301
f 261 301 262
f 262 301 302
f 262 302 265
f 264 266 280
f 265 282 266
f 265 302 282
f 266 282 280
f 267 279 268
f 268 279 270
f 270 279 272
f 270 272 271
f 272 303 273
f 272 279 303
f 273 303 304
f 273 304 275
f 273 275 274
f 275 304 305
f 275 305 294
f 275 294 306
f 275 306 276
f 276 306 294
f 276 294 293
f 277 307 278
f 277 287 308
f 277 308 307
f 278 307 309
f 278 309 310
f 278 310 303
f 278 303 279
f 280 282 281
f 282 302 311
f 282 311 283
f 283 311 284
f 284 311 312
f 284 312 308
f 284 308 313
f 284 313 285
f 285 313 308
f 285 308 287
f 294 305 304
f 294 304 295
f 295 304 314
f 295 314 296
f 296 314 315
f 296 315 316
f 296 316 297
f 297 316 317
f 297 317 298
f 298 317 318
f 298 318 319
f 298 319 299
f 299 320 321
f 299 321 300
f 299 319 320
f 300 321 301
f 301 321 322
f 301 322 302
f 302 322 311
f 303 310 304
f 304 310 314
f 307 308 323
f 307 323 324
f 307 324 309
f 308 312 323
f 309 325 315
f 309 315 310
f 309 324 325
f 310 315 314
f 311 322 326
f 311 326 312
f 312 326 324
f 312 324 323
f 315 325 316
f 316 325 327
f 316 327 317
f 317 327 328
f 317 328 319
f 317 319 318
f 319 328 329
f 319 329 320
f 320 330 321
f 320 329 330
f 321 330 322
f 322 330 326
f 324 329 331
f 324 331 325
f 324 326 329
f 325 331 327
f 326 330 329
f 327 331 328
f 328 331 329

