# https://github.com/mikedh/trimesh
v -0.19255401 -0.22783373 -0.00557997
v -0.19255401 -0.22784234 -0.00593456
v -0.19255401 -0.22791126 -0.00303991
v -0.03429634 -0.29738673 -0.00526397
v -0.03429634 -0.29727473 -0.00924170
v -0.19255401 -0.22791126 -0.00855904
v -0.03429634 -0.29736951 -0.01308193
v -0.19255401 -0.22798878 -0.00115598
v -0.03429634 -0.29792942 -0.00164324
v -0.19255401 -0.22814385 0.00020451
v -0.19255401 -0.22794572 -0.00901254
v -0.03429634 -0.29740397 -0.01399857
v -0.03429634 -0.29854969 -0.00033824
v -0.19255401 -0.22900528 0.00053739
v -0.03429634 -0.29868750 -0.00008496
v -0.19255401 -0.22829029 -0.01297338
v -0.03429634 -0.29777437 -0.01781227
v -0.19255401 -0.22951354 0.00065559
v -0.03429634 -0.30035869 0.00026240
v -0.19255401 -0.22846257 -0.01407817
v -0.03429634 -0.29870474 -0.02069968
v -0.19255401 -0.22903114 -0.01739255
v -0.19255401 -0.23162408 0.00075208
v -0.18978110 -0.23206342 0.00071589
v -0.03429634 -0.30090142 0.00036371
v -0.03429634 -0.29990213 -0.02199504
v -0.19255401 -0.23147764 -0.02180206
v -0.19255401 -0.23030607 -0.02046087
v -0.19255401 -0.22944463 -0.01855523
v -0.19255401 -0.23622420 0.00072072
v -0.12766155 -0.28420662 0.00078102
v -0.12759958 -0.27975297 0.00080997
v -0.10008729 -0.28590369 0.00080273
v -0.09613704 -0.28578306 0.00076173
v -0.03429634 -0.30552737 0.00049397
v -0.03429634 -0.30085834 -0.02224591
v -0.19255401 -0.23280426 -0.02244612
v -0.19255401 -0.23157239 -0.02189131
v -0.19255401 -0.24119472 0.00068212
v -0.19255401 -0.24534688 0.00060734
v -0.13127099 -0.28396544 0.00071107
v -0.09602860 -0.29946281 0.00065559
v -0.09243466 -0.29995383 0.00068453
v -0.09636941 -0.29611179 0.00073037
v -0.09248113 -0.29571553 0.00074725
v -0.03429634 -0.31096310 0.00037577
v -0.03429634 -0.30151303 -0.02237858
v -0.19255401 -0.23588823 -0.02299852
v -0.19255401 -0.24863759 0.00047467
v -0.19047820 -0.24897356 0.00052051
v -0.19255401 -0.24941291 0.00039266
v -0.13475650 -0.28340550 0.00047709
v -0.12699542 -0.28727337 0.00050844
v -0.11938927 -0.29094312 0.00049397
v -0.11599670 -0.29163227 0.00061940
v -0.09968452 -0.29891149 0.00048432
v -0.09537798 -0.30112539 0.00021415
v -0.08812812 -0.30301196 0.00029617
v -0.08444122 -0.30350299 0.00038542
v -0.10806524 -0.29539680 0.00051327
v -0.03429634 -0.31416766 0.00006219
v -0.03429634 -0.31329758 0.00015867
v -0.03705377 -0.31116982 0.00032270
v -0.03429634 -0.30534648 -0.02271870
v -0.04874959 -0.30159920 -0.02301058
v -0.17731070 -0.24732820 -0.02334346
v -0.17342242 -0.25133391 -0.02350508
v -0.19255401 -0.24004901 -0.02327833
v -0.05254493 -0.30196960 -0.02318908
v -0.06403937 -0.29854107 -0.02333140
v -0.19255401 -0.25084289 -0.00011391
v -0.18971912 -0.25189385 0.00024069
v -0.14687058 -0.27840912 -0.00010908
v -0.13804062 -0.28271634 0.00002118
v -0.13021760 -0.28661868 0.00009113
v -0.16420518 -0.26909689 -0.00023693
v -0.11878511 -0.29209746 0.00009113
v -0.11542354 -0.29330347 0.00026481
v -0.11175213 -0.29474211 0.00026964
v -0.10730617 -0.29685262 0.00014179
v -0.09127282 -0.30246924 0.00012973
v -0.09901840 -0.30007443 0.00007425
v -0.08933642 -0.30350299 -0.00022487
v -0.08752396 -0.30392509 -0.00012597
v -0.08388353 -0.30481238 -0.00000777
v -0.08010369 -0.30567383 0.00002600
v -0.04105049 -0.31371972 -0.00006807
v -0.03697631 -0.31407290 0.00000429
v -0.03429634 -0.31529616 -0.00138996
v -0.03429634 -0.31003273 -0.02288755
v -0.15790029 -0.25888016 -0.02354850
v -0.16586274 -0.25982777 -0.02373906
v -0.15010824 -0.26325630 -0.02361122
v -0.15410495 -0.26329076 -0.02372459
v -0.16172660 -0.25914721 -0.02366670
v -0.19255401 -0.24430454 -0.02331934
v -0.16206741 -0.26403162 -0.02383314
v -0.17001437 -0.26037909 -0.02372459
v -0.05634026 -0.30234002 -0.02331210
v -0.06812903 -0.29877366 -0.02345683
v -0.19255401 -0.25099797 -0.00016939
v -0.18880515 -0.25386656 -0.00038648
v -0.15672296 -0.27349887 -0.00035995
v -0.14429905 -0.28037320 -0.00043955
v -0.14157260 -0.28128633 -0.00016697
v -0.12842061 -0.28810037 -0.00029241
v -0.12626734 -0.28881536 -0.00007290
v -0.13399743 -0.28501640 -0.00009220
v -0.17179586 -0.26492750 -0.00056016
v -0.12082995 -0.29149444 -0.00017180
v -0.10997064 -0.29602563 0.00004530
v -0.10109421 -0.29949727 -0.00009702
v -0.09503717 -0.30188346 -0.00136584
v -0.09153617 -0.30299472 -0.00138514
v -0.08959978 -0.30359774 -0.00139479
v -0.08740003 -0.30420936 -0.00138755
v -0.08365117 -0.30520864 -0.00136343
v -0.07982485 -0.30611315 -0.00131519
v -0.04101951 -0.31445192 -0.00142132
v -0.04506270 -0.31298748 -0.00011391
v -0.03696082 -0.31504632 -0.00142132
v -0.03429634 -0.31570964 -0.00420501
v -0.03429634 -0.31182452 -0.02288514
v -0.14615798 -0.26730510 -0.02373906
v -0.15029413 -0.26769274 -0.02380419
v -0.19255401 -0.24551918 -0.02330245
v -0.16589373 -0.26412637 -0.02379696
v -0.13474101 -0.27963237 -0.02377525
v -0.15831854 -0.26820101 -0.02380178
v -0.06025952 -0.30271908 -0.02337241
v -0.07221869 -0.29898901 -0.02353403
v -0.19255401 -0.25193694 -0.00141891
v -0.19077253 -0.25282422 -0.00053604
v -0.15986766 -0.27234456 -0.00189170
v -0.15754399 -0.27343857 -0.00134654
v -0.15212209 -0.27615214 -0.00062047
v -0.16632747 -0.26813209 -0.00067836
v -0.14999980 -0.27762521 -0.00164566
v -0.14620446 -0.27958929 -0.00138755
v -0.14468633 -0.28052825 -0.00201955
v -0.13368760 -0.28590369 -0.00147680
v -0.13086822 -0.28728200 -0.00148404
v -0.12890085 -0.28823820 -0.00149369
v -0.18832492 -0.25484861 -0.00164807
v -0.18612518 -0.25625278 -0.00168666
v -0.18421976 -0.25745017 -0.00168666
v -0.17390265 -0.26389378 -0.00160224
v -0.16694712 -0.26819239 -0.00198337
v -0.11867667 -0.29278661 -0.00137066
v -0.11511371 -0.29431997 -0.00137308
v -0.12598850 -0.28954759 -0.00147921
v -0.11041989 -0.29627547 -0.00140444
v -0.11254217 -0.29540539 -0.00139479
v -0.10696536 -0.29758486 -0.00140444
v -0.10146600 -0.29962649 -0.00140202
v -0.09883251 -0.30058269 -0.00138032
v -0.09881701 -0.30078942 -0.00463921
v -0.09500619 -0.30203851 -0.00458614
v -0.09153617 -0.30313256 -0.00457649
v -0.08961527 -0.30373558 -0.00457649
v -0.08738454 -0.30434719 -0.00457649
v -0.08366666 -0.30530340 -0.00456443
v -0.07990231 -0.30620790 -0.00454513
v -0.07595207 -0.30708660 -0.00453548
v -0.04109696 -0.31462422 -0.00540146
v -0.03697631 -0.31540813 -0.00544730
v -0.03429634 -0.31582164 -0.00542559
v -0.03429634 -0.31252230 -0.02287067
v -0.19255401 -0.24800014 -0.02309983
v -0.17387167 -0.26031017 -0.02354609
v -0.16967357 -0.26374732 -0.02357262
v -0.16185054 -0.26785642 -0.02372941
v -0.13082174 -0.28356055 -0.02365464
v -0.13848987 -0.27955483 -0.02371494
v -0.07624640 -0.29917852 -0.02354367
v -0.08024311 -0.29938527 -0.02350267
v -0.06428722 -0.30311534 -0.02340859
v -0.06831493 -0.30340823 -0.02342789
v -0.19255401 -0.25200585 -0.00161430
v -0.19105137 -0.25303098 -0.00161430
v -0.16188151 -0.27127635 -0.00417606
v -0.15997610 -0.27237040 -0.00418571
v -0.14961251 -0.27815069 -0.00453307
v -0.16474738 -0.26960515 -0.00418089
v -0.14484124 -0.28064025 -0.00460785
v -0.13721958 -0.28449951 -0.00446794
v -0.13361015 -0.28628271 -0.00443899
v -0.14683959 -0.27961513 -0.00459337
v -0.12917968 -0.28836742 -0.00446312
v -0.18827844 -0.25508120 -0.00436180
v -0.18437468 -0.25757939 -0.00438351
v -0.17408855 -0.26402300 -0.00457166
v -0.11873864 -0.29299337 -0.00451618
v -0.12594203 -0.28981464 -0.00448000
v -0.11512920 -0.29455257 -0.00462473
v -0.11243374 -0.29570691 -0.00470675
v -0.11031145 -0.29656836 -0.00472605
v -0.10165189 -0.29976432 -0.00467780
v -0.09884799 -0.30072912 -0.00873513
v -0.09503717 -0.30198684 -0.00870136
v -0.10145051 -0.29980738 -0.00877855
v -0.09085456 -0.30329623 -0.00866036
v -0.08933642 -0.30378725 -0.00717926
v -0.08915053 -0.30380450 -0.01008356
v -0.08770985 -0.30420936 -0.00872307
v -0.08372863 -0.30524310 -0.00889916
v -0.07997977 -0.30615623 -0.00900530
v -0.07604501 -0.30708660 -0.00913315
v -0.03429634 -0.31574410 -0.01309640
v -0.07164552 -0.30792218 -0.01369463
v -0.06983306 -0.30824953 -0.01510819
v -0.03429634 -0.31583026 -0.00878097
v -0.03429634 -0.31351296 -0.02213253
v -0.03696082 -0.31228111 -0.02284172
v -0.07633934 -0.30340823 -0.02332657
v -0.07234262 -0.30349436 -0.02341100
v -0.19255401 -0.24874959 -0.02300334
v -0.16905392 -0.26568557 -0.02312395
v -0.17125366 -0.26471215 -0.02301540
v -0.17308162 -0.26303233 -0.02316737
v -0.13433824 -0.28307815 -0.02354126
v -0.14214578 -0.27908103 -0.02352196
v -0.15782282 -0.27121606 -0.02342789
v -0.16536702 -0.26728785 -0.02329281
v -0.08808164 -0.29960065 -0.02340377
v -0.09178403 -0.29936806 -0.02335070
v -0.09540896 -0.29897179 -0.02324456
v -0.19255401 -0.25219536 -0.00440522
v -0.19117530 -0.25314295 -0.00437628
v -0.16180406 -0.27134527 -0.00832988
v -0.15986766 -0.27243931 -0.00830576
v -0.15247838 -0.27658284 -0.00839260
v -0.14958153 -0.27818515 -0.00847462
v -0.17204371 -0.26528931 -0.00874961
v -0.16485582 -0.26955348 -0.00834918
v -0.14679312 -0.27964959 -0.00853733
v -0.13721958 -0.28452538 -0.00848909
v -0.14152613 -0.28232007 -0.00456925
v -0.13364114 -0.28629995 -0.00848909
v -0.13105411 -0.28752318 -0.00850115
v -0.12913320 -0.28841047 -0.00850839
v -0.12079897 -0.29216638 -0.00857110
v -0.18838688 -0.25503815 -0.00836365
v -0.18626460 -0.25640783 -0.00835642
v -0.19123726 -0.25316019 -0.00838778
v -0.18437468 -0.25760523 -0.00838054
v -0.17413503 -0.26402300 -0.00881232
v -0.11523764 -0.29456119 -0.00884610
v -0.11217039 -0.29585336 -0.00895464
v -0.11004810 -0.29669757 -0.00895223
v -0.09880152 -0.30060853 -0.01340999
v -0.09502168 -0.30185763 -0.01336175
v -0.10995515 -0.29664590 -0.01369704
v -0.08899562 -0.30372696 -0.01337622
v -0.08713668 -0.30423519 -0.01340758
v -0.09121085 -0.30305502 -0.01336416
v -0.08372863 -0.30511389 -0.01349924
v -0.07997977 -0.30603564 -0.01364880
v -0.07607599 -0.30696598 -0.01382972
v -0.03429634 -0.31568380 -0.01449066
v -0.07601403 -0.30676784 -0.01849010
v -0.07200181 -0.30762067 -0.01859865
v -0.03429634 -0.31390923 -0.02178518
v -0.04019848 -0.31192790 -0.02277659
v -0.07223419 -0.30601839 -0.02293580
v -0.08024311 -0.30319285 -0.02317461
v -0.19255401 -0.25036911 -0.02264151
v -0.16078164 -0.27043215 -0.02304676
v -0.16384889 -0.26890738 -0.02296474
v -0.15898467 -0.27198275 -0.02264875
v -0.16629650 -0.26795117 -0.02217354
v -0.17157898 -0.26491029 -0.02192508
v -0.17367028 -0.26361811 -0.02190096
v -0.17723325 -0.26137835 -0.02188408
v -0.17859648 -0.26031017 -0.02242200
v -0.19029231 -0.25259163 -0.02235928
v -0.18795314 -0.25376319 -0.02259085
v -0.19255401 -0.25046387 -0.02260774
v -0.13374958 -0.28475797 -0.02299369
v -0.13771531 -0.28247513 -0.02316496
v -0.15017020 -0.27529069 -0.02340618
v -0.10758501 -0.29525034 -0.02310224
v -0.11133387 -0.29445781 -0.02298887
v -0.11512920 -0.29336380 -0.02280795
v -0.15337687 -0.27455845 -0.02300575
v -0.14564677 -0.27846079 -0.02309500
v -0.08780280 -0.30217635 -0.02294062
v -0.09148969 -0.30130631 -0.02289479
v -0.09894094 -0.29857552 -0.02301058
v -0.19255401 -0.25226428 -0.00842155
v -0.16166464 -0.27131943 -0.01314224
v -0.15971276 -0.27243069 -0.01310847
v -0.17204371 -0.26525485 -0.01352337
v -0.16697810 -0.26824406 -0.01225454
v -0.15721867 -0.27383484 -0.01310123
v -0.15235445 -0.27655700 -0.01311811
v -0.14953506 -0.27806452 -0.01321702
v -0.14671567 -0.27953762 -0.01331592
v -0.13711115 -0.28443921 -0.01326285
v -0.13362564 -0.28618795 -0.01322425
v -0.13097665 -0.28744567 -0.01320978
v -0.12064405 -0.29218359 -0.01327008
v -0.11881610 -0.29299337 -0.01338828
v -0.11523764 -0.29456119 -0.01359573
v -0.18844884 -0.25493477 -0.01330868
v -0.18629557 -0.25633029 -0.01329903
v -0.19255401 -0.25223845 -0.00997501
v -0.19122176 -0.25308265 -0.01332315
v -0.11209293 -0.29584474 -0.01370428
v -0.09863112 -0.30039318 -0.01848769
v -0.09491324 -0.30165087 -0.01842015
v -0.11198449 -0.29568969 -0.01856247
v -0.09114889 -0.30283967 -0.01834296
v -0.08890268 -0.30350299 -0.01829954
v -0.08704373 -0.30402847 -0.01828506
v -0.08365117 -0.30492438 -0.01830195
v -0.07988682 -0.30585472 -0.01838155
v -0.03429634 -0.31541675 -0.01717545
v -0.06978658 -0.30806864 -0.01865172
v -0.07604501 -0.30622515 -0.02174417
v -0.06733898 -0.30823232 -0.02131962
v -0.08656351 -0.30383893 -0.02125449
v -0.03429634 -0.31484819 -0.01973480
v -0.03685239 -0.31349575 -0.02179724
v -0.04503171 -0.31143687 -0.02254502
v -0.04295590 -0.31160917 -0.02268734
v -0.06281556 -0.30837015 -0.02255226
v -0.07621542 -0.30538953 -0.02286343
v -0.15720319 -0.27276666 -0.02283207
v -0.15156440 -0.27602293 -0.02265598
v -0.15382612 -0.27516147 -0.02168145
v -0.15703278 -0.27339552 -0.02167421
v -0.16488680 -0.26889876 -0.02164286
v -0.16660632 -0.26806317 -0.02097950
v -0.16838780 -0.26684854 -0.02170798
v -0.16119990 -0.27100068 -0.02171763
v -0.17190430 -0.26513426 -0.01845150
v -0.17893727 -0.26046522 -0.02137028
v -0.18578436 -0.25595986 -0.02162356
v -0.18874317 -0.25394410 -0.02174658
v -0.19077253 -0.25278976 -0.02130273
v -0.19255401 -0.25133391 -0.02172005
v -0.19255401 -0.25126500 -0.02182136
v -0.13607325 -0.28390514 -0.02284413
v -0.11779368 -0.29244205 -0.02260774
v -0.14146417 -0.28089006 -0.02300334
v -0.10882430 -0.29588782 -0.02278865
v -0.14953506 -0.27684130 -0.02286102
v -0.08007271 -0.30470038 -0.02274523
v -0.09506815 -0.30037594 -0.02282001
v -0.08248933 -0.30422660 -0.02265598
v -0.16149423 -0.27119022 -0.01822958
v -0.15955784 -0.27229286 -0.01819822
v -0.16852722 -0.26710696 -0.01825853
v -0.15711023 -0.27367979 -0.01819340
v -0.18623362 -0.25617524 -0.01844909
v -0.15219954 -0.27638473 -0.01823923
v -0.15410495 -0.27534236 -0.01820787
v -0.14938016 -0.27788363 -0.01833813
v -0.14659174 -0.27933949 -0.01843944
v -0.13883066 -0.28331933 -0.01848286
v -0.13694075 -0.28427554 -0.01844186
v -0.13350171 -0.28598982 -0.01836467
v -0.13088371 -0.28724754 -0.01830677
v -0.12059758 -0.29198549 -0.01832125
v -0.11867667 -0.29286415 -0.01840085
v -0.11509822 -0.29445781 -0.01850940
v -0.18835591 -0.25477110 -0.01845874
v -0.19255401 -0.25217815 -0.01334727
v -0.19255401 -0.25193694 -0.01845633
v -0.19106686 -0.25294482 -0.01846115
v -0.10073791 -0.29935944 -0.02129309
v -0.09491324 -0.30112539 -0.02177070
v -0.11502077 -0.29409600 -0.02174658
v -0.10949042 -0.29617209 -0.02148606
v -0.03429634 -0.31527032 -0.01863966
v -0.06529415 -0.30804277 -0.02243406
v -0.07204829 -0.30705214 -0.02177070
v -0.07991780 -0.30532064 -0.02171040
v -0.06843885 -0.30773267 -0.02184789
v -0.04772717 -0.31199682 -0.02122072
v -0.08496792 -0.30371833 -0.02247989
v -0.08366666 -0.30435582 -0.02179482
v -0.09121085 -0.30228835 -0.02172728
v -0.08770985 -0.30326177 -0.02180447
v -0.04498524 -0.31222941 -0.02161391
v -0.14383431 -0.27995972 -0.02280313
v -0.14632840 -0.27911549 -0.02178276
v -0.14931818 -0.27754766 -0.02174176
v -0.19255401 -0.25186802 -0.01904250
v -0.12812628 -0.28772131 -0.02261497
v -0.13348622 -0.28561080 -0.02176347
v -0.13658446 -0.28408603 -0.02181895
v -0.13848987 -0.28314707 -0.02183583
v -0.12010186 -0.29164952 -0.02220490
v -0.11100856 -0.29548294 -0.02199745
v -0.09739182 -0.29976432 -0.02273559
v -0.09985492 -0.29917852 -0.02243165
v -0.14124730 -0.28207886 -0.01848769
v -0.12052012 -0.29178732 -0.02112664
v -0.09856915 -0.29987629 -0.02182859
v -0.11878511 -0.29243343 -0.02168145
v -0.13051193 -0.28701494 -0.02170557
f 1 2 6
f 1 6 11
f 1 11 16
f 1 16 20
f 1 20 22
f 1 22 29
f 1 29 28
f 1 28 27
f 1 27 38
f 1 38 37
f 1 37 48
f 1 48 68
f 1 68 96
f 1 96 126
f 1 126 169
f 1 169 217
f 1 217 267
f 1 267 278
f 1 278 343
f 1 343 342
f 1 342 390
f 1 390 370
f 1 370 369
f 1 369 307
f 1 307 290
f 1 290 228
f 1 228 179
f 1 179 132
f 1 132 101
f 1 101 71
f 1 71 51
f 1 51 49
f 1 49 40
f 1 40 39
f 1 39 30
f 1 30 23
f 1 23 18
f 1 18 14
f 1 14 10
f 1 10 8
f 1 8 3
f 1 3 4
f 1 4 5
f 1 5 2
f 2 5 7
f 2 7 6
f 3 8 4
f 4 9 13
f 4 13 15
f 4 15 19
f 4 19 25
f 4 25 35
f 4 35 46
f 4 46 62
f 4 62 61
f 4 61 89
f 4 89 122
f 4 122 167
f 4 167 212
f 4 212 209
f 4 209 260
f 4 260 318
f 4 318 376
f 4 376 323
f 4 323 263
f 4 263 213
f 4 213 168
f 4 168 123
f 4 123 90
f 4 90 64
f 4 64 47
f 4 47 36
f 4 36 26
f 4 26 21
f 4 21 17
f 4 17 12
f 4 12 7
f 4 7 5
f 4 8 10
f 4 10 9
f 6 7 12
f 6 12 11
f 9 10 13
f 10 14 15
f 10 15 13
f 11 12 16
f 12 17 16
f 14 18 15
f 15 18 19
f 16 17 20
f 17 21 22
f 17 22 20
f 18 23 24
f 18 24 25
f 18 25 19
f 21 26 27
f 21 27 28
f 21 28 29
f 21 29 22
f 23 30 31
f 23 31 32
f 23 32 33
f 23 33 34
f 23 34 35
f 23 35 25
f 23 25 24
f 26 36 37
f 26 37 38
f 26 38 27
f 30 39 31
f 31 39 40
f 31 40 41
f 31 41 42
f 31 42 43
f 31 43 44
f 31 44 45
f 31 45 33
f 31 33 32
f 33 45 35
f 33 35 34
f 35 45 43
f 35 43 46
f 36 47 37
f 37 47 48
f 40 49 50
f 40 50 41
f 41 50 49
f 41 49 51
f 41 51 52
f 41 52 53
f 41 53 54
f 41 54 55
f 41 55 42
f 42 56 57
f 42 57 58
f 42 58 59
f 42 59 43
f 42 55 60
f 42 60 56
f 43 59 61
f 43 61 62
f 43 62 63
f 43 63 46
f 43 45 44
f 46 63 62
f 47 64 65
f 47 65 48
f 48 66 67
f 48 67 68
f 48 65 69
f 48 69 70
f 48 70 66
f 51 71 72
f 51 72 52
f 52 73 74
f 52 74 75
f 52 75 53
f 52 72 76
f 52 76 73
f 53 75 77
f 53 77 54
f 54 77 78
f 54 78 56
f 54 56 60
f 54 60 55
f 56 78 79
f 56 79 80
f 56 80 57
f 57 81 58
f 57 80 82
f 57 82 83
f 57 83 84
f 57 84 81
f 58 85 86
f 58 86 59
f 58 81 85
f 59 86 87
f 59 87 88
f 59 88 61
f 61 88 89
f 64 90 69
f 64 69 65
f 66 91 67
f 66 70 91
f 67 92 68
f 67 91 93
f 67 93 94
f 67 94 95
f 67 95 92
f 68 92 97
f 68 97 98
f 68 98 96
f 69 90 99
f 69 99 100
f 69 100 70
f 70 100 94
f 70 94 93
f 70 93 91
f 71 101 72
f 72 101 102
f 72 102 76
f 73 103 104
f 73 104 105
f 73 105 74
f 73 76 103
f 74 105 75
f 75 106 107
f 75 107 77
f 75 105 108
f 75 108 106
f 76 102 109
f 76 109 103
f 77 110 111
f 77 111 78
f 77 107 110
f 78 111 80
f 78 80 79
f 80 111 82
f 81 84 85
f 82 111 112
f 82 112 83
f 83 113 114
f 83 114 115
f 83 115 116
f 83 116 117
f 83 117 85
f 83 85 84
f 83 112 113
f 85 117 118
f 85 118 86
f 86 118 119
f 86 119 120
f 86 120 87
f 87 120 119
f 87 119 121
f 87 121 89
f 87 89 88
f 89 121 122
f 90 123 99
f 92 95 94
f 92 94 97
f 94 100 124
f 94 124 125
f 94 125 97
f 96 98 127
f 96 127 126
f 97 127 98
f 97 125 128
f 97 128 129
f 97 129 127
f 99 130 131
f 99 131 100
f 99 123 130
f 100 131 124
f 101 132 133
f 101 133 102
f 102 133 109
f 103 134 135
f 103 135 136
f 103 136 104
f 103 109 137
f 103 137 134
f 104 136 135
f 104 135 134
f 104 134 138
f 104 138 139
f 104 139 140
f 104 140 141
f 104 141 106
f 104 106 108
f 104 108 105
f 106 141 142
f 106 142 143
f 106 143 110
f 106 110 107
f 109 133 144
f 109 144 145
f 109 145 146
f 109 146 147
f 109 147 148
f 109 148 134
f 109 134 137
f 110 149 150
f 110 150 111
f 110 143 151
f 110 151 149
f 111 152 112
f 111 150 153
f 111 153 152
f 112 152 154
f 112 154 155
f 112 155 156
f 112 156 113
f 113 156 157
f 113 157 158
f 113 158 114
f 114 158 159
f 114 159 160
f 114 160 115
f 115 160 116
f 116 160 161
f 116 161 117
f 117 161 162
f 117 162 163
f 117 163 118
f 118 164 165
f 118 165 119
f 118 163 164
f 119 165 166
f 119 166 167
f 119 167 122
f 119 122 121
f 123 168 130
f 124 131 125
f 125 131 128
f 126 127 170
f 126 170 169
f 127 171 170
f 127 129 172
f 127 172 171
f 128 173 174
f 128 174 129
f 128 131 175
f 128 175 176
f 128 176 173
f 129 174 172
f 130 177 131
f 130 168 177
f 131 177 178
f 131 178 175
f 132 179 180
f 132 180 133
f 133 180 144
f 134 181 182
f 134 182 183
f 134 183 140
f 134 140 138
f 134 148 184
f 134 184 181
f 138 140 139
f 140 185 186
f 140 186 187
f 140 187 141
f 140 183 188
f 140 188 185
f 141 187 142
f 142 187 143
f 143 189 151
f 143 187 189
f 144 190 191
f 144 191 145
f 144 180 190
f 145 191 146
f 146 191 147
f 147 192 148
f 147 191 192
f 148 192 184
f 149 193 150
f 149 151 194
f 149 194 193
f 150 195 196
f 150 196 153
f 150 193 195
f 151 189 194
f 152 197 154
f 152 153 196
f 152 196 197
f 154 197 155
f 155 198 156
f 155 197 198
f 156 198 157
f 157 199 200
f 157 200 158
f 157 198 201
f 157 201 199
f 158 200 159
f 159 200 160
f 160 200 202
f 160 202 203
f 160 203 161
f 161 203 204
f 161 204 205
f 161 205 206
f 161 206 162
f 162 206 207
f 162 207 163
f 163 208 164
f 163 207 208
f 164 208 165
f 165 209 166
f 165 208 210
f 165 210 211
f 165 211 209
f 166 209 212
f 166 212 167
f 168 213 214
f 168 214 215
f 168 215 216
f 168 216 178
f 168 178 177
f 169 170 171
f 169 171 217
f 171 218 219
f 171 219 220
f 171 220 217
f 171 172 218
f 172 174 221
f 172 221 222
f 172 222 223
f 172 223 224
f 172 224 218
f 173 221 174
f 173 176 216
f 173 216 225
f 173 225 226
f 173 226 227
f 173 227 221
f 175 178 216
f 175 216 176
f 179 228 229
f 179 229 180
f 180 229 190
f 181 230 182
f 181 184 230
f 182 230 231
f 182 231 232
f 182 232 183
f 183 232 233
f 183 233 188
f 184 192 234
f 184 234 235
f 184 235 230
f 185 188 236
f 185 236 237
f 185 237 238
f 185 238 186
f 186 238 237
f 186 237 239
f 186 239 187
f 187 239 240
f 187 240 189
f 188 233 236
f 189 240 241
f 189 241 242
f 189 242 194
f 190 243 244
f 190 244 191
f 190 229 245
f 190 245 243
f 191 244 246
f 191 246 247
f 191 247 192
f 192 247 234
f 193 242 195
f 193 194 242
f 195 248 196
f 195 242 248
f 196 248 249
f 196 249 197
f 197 249 250
f 197 250 198
f 198 250 201
f 199 251 252
f 199 252 200
f 199 201 251
f 200 252 204
f 200 204 202
f 201 250 253
f 201 253 251
f 202 204 203
f 204 254 255
f 204 255 206
f 204 206 205
f 204 252 256
f 204 256 254
f 206 257 258
f 206 258 207
f 206 255 257
f 207 258 259
f 207 259 208
f 208 259 210
f 209 211 260
f 210 259 211
f 211 259 261
f 211 261 262
f 211 262 260
f 213 263 264
f 213 264 214
f 214 264 265
f 214 265 215
f 215 265 266
f 215 266 226
f 215 226 216
f 216 226 225
f 217 220 267
f 218 224 223
f 218 223 219
f 219 223 268
f 219 268 269
f 219 269 270
f 219 270 271
f 219 271 272
f 219 272 273
f 219 273 274
f 219 274 275
f 219 275 276
f 219 276 277
f 219 277 278
f 219 278 220
f 220 278 267
f 221 279 280
f 221 280 281
f 221 281 222
f 221 227 282
f 221 282 283
f 221 283 284
f 221 284 279
f 222 281 223
f 223 285 268
f 223 281 280
f 223 280 286
f 223 286 285
f 226 266 227
f 227 266 287
f 227 287 288
f 227 288 289
f 227 289 283
f 227 283 282
f 228 290 229
f 229 290 245
f 230 291 292
f 230 292 231
f 230 235 293
f 230 293 294
f 230 294 291
f 231 292 295
f 231 295 232
f 232 296 233
f 232 295 296
f 233 296 297
f 233 297 236
f 234 247 293
f 234 293 235
f 236 297 298
f 236 298 299
f 236 299 237
f 237 299 300
f 237 300 239
f 239 300 301
f 239 301 240
f 240 301 241
f 241 301 302
f 241 302 242
f 242 302 303
f 242 303 304
f 242 304 248
f 243 305 306
f 243 306 244
f 243 245 305
f 244 306 246
f 245 290 307
f 245 307 308
f 245 308 305
f 246 306 247
f 247 306 293
f 248 304 249
f 249 309 250
f 249 304 309
f 250 309 253
f 251 310 311
f 251 311 252
f 251 253 312
f 251 312 310
f 252 311 313
f 252 313 256
f 253 309 312
f 254 256 313
f 254 313 314
f 254 314 315
f 254 315 255
f 255 315 316
f 255 316 257
f 257 316 317
f 257 317 258
f 258 317 259
f 259 317 261
f 260 262 319
f 260 319 318
f 261 320 321
f 261 321 262
f 261 317 322
f 261 322 320
f 262 321 319
f 263 323 324
f 263 324 325
f 263 325 326
f 263 326 264
f 264 326 265
f 265 327 328
f 265 328 266
f 265 326 327
f 266 328 287
f 268 285 269
f 269 285 329
f 269 329 270
f 270 329 330
f 270 330 331
f 270 331 332
f 270 332 271
f 271 333 334
f 271 334 335
f 271 335 272
f 271 332 336
f 271 336 333
f 272 335 334
f 272 334 337
f 272 337 338
f 272 338 273
f 273 338 274
f 274 338 275
f 275 338 339
f 275 339 340
f 275 340 276
f 276 340 341
f 276 341 342
f 276 342 343
f 276 343 278
f 276 278 277
f 279 344 280
f 279 284 345
f 279 345 344
f 280 344 346
f 280 346 286
f 283 289 347
f 283 347 284
f 284 347 345
f 285 348 329
f 285 286 346
f 285 346 348
f 287 328 349
f 287 349 288
f 288 350 289
f 288 349 351
f 288 351 350
f 289 350 347
f 291 352 353
f 291 353 292
f 291 294 293
f 291 293 337
f 291 337 354
f 291 354 352
f 292 353 355
f 292 355 295
f 293 306 356
f 293 356 337
f 295 355 296
f 296 357 297
f 296 355 358
f 296 358 357
f 297 359 298
f 297 357 359
f 298 359 360
f 298 360 361
f 298 361 299
f 299 361 362
f 299 362 300
f 300 363 364
f 300 364 301
f 300 362 363
f 301 364 365
f 301 365 366
f 301 366 302
f 302 366 367
f 302 367 303
f 303 367 304
f 304 367 309
f 305 368 356
f 305 356 306
f 305 308 368
f 307 369 308
f 308 369 370
f 308 370 371
f 308 371 368
f 309 367 312
f 310 372 311
f 310 312 372
f 311 373 322
f 311 322 313
f 311 372 373
f 312 367 374
f 312 374 375
f 312 375 372
f 313 322 314
f 314 322 315
f 315 322 316
f 316 322 317
f 318 319 376
f 319 321 376
f 320 377 378
f 320 378 321
f 320 322 379
f 320 379 351
f 320 351 349
f 320 349 377
f 321 378 380
f 321 380 377
f 321 377 381
f 321 381 376
f 322 382 383
f 322 383 379
f 322 373 384
f 322 384 385
f 322 385 382
f 323 376 381
f 323 381 324
f 324 381 386
f 324 386 377
f 324 377 327
f 324 327 325
f 325 327 326
f 327 377 328
f 328 377 349
f 329 348 330
f 330 348 387
f 330 387 388
f 330 388 389
f 330 389 331
f 331 358 332
f 331 389 359
f 331 359 357
f 331 357 358
f 332 358 355
f 332 355 334
f 332 334 336
f 333 336 334
f 334 354 337
f 334 355 353
f 334 353 352
f 334 352 354
f 337 356 338
f 338 356 341
f 338 341 339
f 339 341 340
f 341 371 390
f 341 390 342
f 341 356 368
f 341 368 371
f 344 345 391
f 344 391 392
f 344 392 393
f 344 393 394
f 344 394 387
f 344 387 346
f 345 347 374
f 345 374 395
f 345 395 391
f 346 387 348
f 347 396 374
f 347 350 397
f 347 397 398
f 347 398 396
f 350 351 382
f 350 382 397
f 351 379 382
f 359 389 360
f 360 389 388
f 360 388 394
f 360 394 399
f 360 399 361
f 361 399 394
f 361 394 362
f 362 394 363
f 363 394 393
f 363 393 392
f 363 392 364
f 364 392 400
f 364 400 366
f 364 366 365
f 366 400 367
f 367 400 374
f 370 390 371
f 372 398 401
f 372 401 373
f 372 375 396
f 372 396 398
f 373 401 398
f 373 398 397
f 373 397 384
f 374 400 402
f 374 402 395
f 374 396 375
f 377 380 378
f 377 386 381
f 379 383 382
f 382 385 384
f 382 384 397
f 387 394 388
f 391 395 392
f 392 395 403
f 392 403 400
f 395 402 403
f 400 403 402

