# https://github.com/mikedh/trimesh
v -0.23050533 0.18675267 -0.00191380
v -0.22224390 0.18210214 -0.01339578
v -0.22533971 0.18370128 -0.01340587
v -0.23146059 0.18675267 -0.01411513
v -0.23091219 0.18675267 -0.00023529
v -0.21644145 0.17841438 -0.01007410
v -0.21997952 0.18078042 -0.00974093
v -0.22288075 0.18172685 -0.01566491
v -0.23414953 0.18675267 -0.02022085
v -0.23280506 0.18675267 -0.01783056
v -0.21994415 0.18069884 -0.01349169
v -0.18090143 0.14842260 -0.00568728
v -0.17955697 0.14956485 -0.00824920
v -0.19464688 0.16173778 -0.00770653
v -0.19901640 0.16529502 -0.00826687
v -0.19724737 0.16436492 -0.00977374
v -0.23342424 0.18675267 0.00063551
v -0.06255268 0.03705494 -0.00396586
v -0.06255268 0.03915991 -0.00480890
v -0.06258806 0.03922518 -0.00482404
v -0.17953928 0.14595865 -0.00447572
v -0.17828326 0.14537121 -0.00496792
v -0.21453089 0.17723951 -0.01154059
v -0.19860953 0.16553978 -0.01078589
v -0.21493777 0.17681525 -0.01462752
v -0.21760902 0.17772903 -0.01625554
v -0.23551170 0.18675267 -0.02169996
v -0.21453089 0.17720688 -0.01247449
v -0.21645915 0.17828382 -0.01354217
v -0.17690342 0.14471852 -0.00552826
v -0.17723953 0.14537121 -0.00589172
v -0.17823020 0.14716615 -0.00689378
v -0.18357269 0.15300786 -0.00849656
v -0.17550588 0.14586075 -0.00811038
v -0.17504591 0.14615446 -0.01036942
v -0.17720415 0.14807994 -0.01033661
v -0.17918548 0.14982593 -0.01035427
v -0.18790684 0.15676091 -0.00922349
v -0.19408079 0.16206413 -0.01019778
v -0.23689155 0.18675267 0.00125643
v -0.06255268 0.03336716 -0.00340299
v -0.06255268 0.03924150 -0.00486443
v -0.06255268 0.04162387 -0.00677262
v -0.17276385 0.14075334 -0.00533895
v -0.19857414 0.16550713 -0.01292378
v -0.19393926 0.16196622 -0.01357498
v -0.19894564 0.16519712 -0.01499099
v -0.19434615 0.16147670 -0.01569520
v -0.23719230 0.18675267 -0.02303266
v -0.19553140 0.16031815 -0.01797696
v -0.19719430 0.16431595 -0.01379205
v -0.17136631 0.14199347 -0.00798418
v -0.06255268 0.04377779 -0.00921340
v -0.06255268 0.04390834 -0.00948600
v -0.17490440 0.14602392 -0.01355984
v -0.17704493 0.14794940 -0.01352198
v -0.06255268 0.04451209 -0.01149011
v -0.06619690 0.04792247 -0.01259312
v -0.06619690 0.04792247 -0.01262594
v -0.17902626 0.14967907 -0.01354217
v -0.18748228 0.15694040 -0.01281524
v -0.18749996 0.15695672 -0.01172989
v -0.18601396 0.15548813 -0.01046281
v -0.23740457 0.18675267 0.00128925
v -0.06255268 0.03098479 -0.00325407
v -0.06441017 0.03315503 -0.00323641
v -0.06506471 0.04488739 -0.00784283
v -0.18778301 0.15671196 -0.01475120
v -0.19017121 0.15773997 -0.01613439
v -0.18900365 0.15589607 -0.01716168
v -0.19132108 0.15659774 -0.01841867
v -0.24032350 0.18675267 -0.02395647
v -0.18698693 0.15281205 -0.01878213
v -0.17858400 0.14537121 -0.01897144
v -0.18144984 0.14682349 -0.01945354
v -0.17736336 0.14287463 -0.01956712
v -0.17529359 0.14537121 -0.01575073
v -0.17941545 0.14905900 -0.01575073
v -0.06255268 0.04438155 -0.01327967
v -0.06255268 0.04377779 -0.01474615
v -0.06255268 0.04447945 -0.01222461
v -0.18601396 0.15548813 -0.01374157
v -0.24159719 0.18675267 0.00150379
v -0.06255268 0.02866769 -0.00363773
v -0.24104879 0.18221638 0.00145836
v -0.24324241 0.17697843 0.00136497
v -0.24324241 0.17363331 0.00124129
v -0.24324241 0.17232791 0.00109742
v -0.24324241 0.16929282 0.00060018
v -0.18350193 0.15271414 -0.01539988
v -0.18037073 0.14804730 -0.01808802
v -0.24320702 0.18675267 -0.02422655
v -0.06396791 0.03741393 -0.02014261
v -0.07948239 0.04919524 -0.02073576
v -0.07566127 0.04532797 -0.02076605
v -0.17867244 0.14551808 -0.01893358
v -0.06255268 0.04004106 -0.01874932
v -0.06456939 0.04119961 -0.01902697
v -0.06255268 0.03734866 -0.01973371
v -0.06800132 0.04147701 -0.02001893
v -0.17539973 0.14537121 -0.01592489
v -0.17780562 0.14667663 -0.01697238
v -0.06255268 0.04359830 -0.01499856
v -0.24324241 0.18675267 0.00149874
v -0.24324241 0.18231429 0.00146341
v -0.06255268 0.02587738 -0.00410973
v -0.24324241 0.16880330 0.00046892
v -0.17692110 0.14537121 -0.01762864
v -0.17617811 0.14422898 -0.01819655
v -0.17838940 0.14537121 -0.01885281
v -0.24324241 0.18259168 -0.02428208
v -0.24324241 0.18667108 -0.02422655
v -0.24324241 0.18675267 0.00021652
v -0.06384408 0.03318767 -0.02056917
v -0.06255268 0.03583112 -0.02018047
v -0.06255268 0.03317135 -0.02045811
v -0.06255268 0.04108539 -0.01775989
v -0.06255268 0.04209708 -0.01670735
v -0.06255268 0.02515940 -0.00440253
v -0.24324241 0.16733471 -0.00137869
v -0.06255268 0.02130845 -0.00764848
v -0.06255268 0.02388663 -0.00545001
v -0.24324241 0.17869177 -0.02404481
v -0.06255268 0.03178435 -0.02052122
v -0.24324241 0.16723680 -0.00170682
v -0.06255268 0.02005200 -0.01069755
v -0.06255268 0.02044361 -0.00953900
v -0.24324241 0.17759849 -0.02393375
v -0.06255268 0.02887982 -0.01993058
v -0.24324241 0.17617887 -0.02367882
v -0.24324241 0.16726944 -0.00234036
v -0.06255268 0.02036203 -0.01401417
v -0.24324241 0.16792215 -0.01421862
v -0.06255268 0.02599161 -0.01913803
v -0.06403867 0.02881455 -0.01964284
v -0.24324241 0.17327432 -0.02303014
v -0.06255268 0.02161849 -0.01564724
v -0.24324241 0.16849326 -0.01805520
v -0.24324241 0.16878698 -0.01876951
v -0.24324241 0.16965182 -0.02054393
v -0.06255268 0.02555103 -0.01895882
v -0.24324241 0.17157730 -0.02216186
v -0.06255268 0.02228750 -0.01644485
v -0.24324241 0.17108776 -0.02181101
v -0.06255268 0.02421298 -0.01812083
v -0.24324241 0.17134884 -0.02202051
f 1 2 3
f 1 3 4
f 1 4 10
f 1 10 9
f 1 9 27
f 1 27 49
f 1 49 72
f 1 72 92
f 1 92 113
f 1 113 104
f 1 104 83
f 1 83 64
f 1 64 40
f 1 40 17
f 1 17 5
f 1 5 6
f 1 6 7
f 1 7 2
f 2 8 9
f 2 9 10
f 2 10 4
f 2 4 3
f 2 7 11
f 2 11 8
f 5 12 13
f 5 13 14
f 5 14 15
f 5 15 16
f 5 16 6
f 5 17 18
f 5 18 19
f 5 19 20
f 5 20 21
f 5 21 22
f 5 22 12
f 6 23 7
f 6 16 24
f 6 24 23
f 7 23 11
f 8 11 25
f 8 25 26
f 8 26 9
f 9 26 27
f 11 23 28
f 11 28 29
f 11 29 25
f 12 22 30
f 12 30 31
f 12 31 32
f 12 32 13
f 13 33 14
f 13 32 34
f 13 34 35
f 13 35 36
f 13 36 37
f 13 37 33
f 14 33 38
f 14 38 39
f 14 39 15
f 15 39 16
f 16 39 24
f 17 40 18
f 18 41 65
f 18 65 84
f 18 84 106
f 18 106 119
f 18 119 122
f 18 122 121
f 18 121 127
f 18 127 126
f 18 126 132
f 18 132 137
f 18 137 143
f 18 143 145
f 18 145 141
f 18 141 134
f 18 134 129
f 18 129 124
f 18 124 116
f 18 116 115
f 18 115 99
f 18 99 97
f 18 97 117
f 18 117 118
f 18 118 103
f 18 103 80
f 18 80 79
f 18 79 81
f 18 81 57
f 18 57 54
f 18 54 53
f 18 53 43
f 18 43 42
f 18 42 19
f 18 40 41
f 19 42 20
f 20 42 43
f 20 43 21
f 21 43 44
f 21 44 22
f 22 44 30
f 23 24 45
f 23 45 28
f 24 39 46
f 24 46 45
f 25 29 47
f 25 47 26
f 26 47 48
f 26 48 27
f 27 48 50
f 27 50 49
f 28 45 51
f 28 51 29
f 29 51 47
f 30 44 43
f 30 43 31
f 31 43 52
f 31 52 34
f 31 34 32
f 33 37 38
f 34 52 53
f 34 53 54
f 34 54 35
f 35 55 56
f 35 56 36
f 35 54 57
f 35 57 58
f 35 58 59
f 35 59 55
f 36 56 37
f 37 56 60
f 37 60 61
f 37 61 62
f 37 62 63
f 37 63 38
f 38 63 39
f 39 63 62
f 39 62 46
f 40 64 65
f 40 65 66
f 40 66 41
f 41 66 65
f 43 53 67
f 43 67 52
f 45 46 51
f 46 48 47
f 46 47 51
f 46 62 61
f 46 61 68
f 46 68 48
f 48 68 69
f 48 69 70
f 48 70 71
f 48 71 50
f 49 50 71
f 49 71 73
f 49 73 74
f 49 74 75
f 49 75 76
f 49 76 72
f 52 67 53
f 55 77 78
f 55 78 56
f 55 59 79
f 55 79 80
f 55 80 77
f 56 78 60
f 57 81 59
f 57 59 58
f 59 81 79
f 60 78 68
f 60 68 82
f 60 82 61
f 61 82 68
f 64 83 65
f 65 83 85
f 65 85 86
f 65 86 87
f 65 87 88
f 65 88 89
f 65 89 84
f 68 78 90
f 68 90 69
f 69 90 78
f 69 78 91
f 69 91 70
f 70 91 73
f 70 73 71
f 72 76 93
f 72 93 94
f 72 94 95
f 72 95 92
f 73 91 96
f 73 96 74
f 74 96 97
f 74 97 76
f 74 76 75
f 76 97 98
f 76 98 99
f 76 99 100
f 76 100 93
f 77 101 78
f 77 80 101
f 78 101 102
f 78 102 91
f 80 103 101
f 83 104 105
f 83 105 85
f 84 89 106
f 85 105 86
f 86 105 104
f 86 104 113
f 86 113 112
f 86 112 111
f 86 111 123
f 86 123 128
f 86 128 130
f 86 130 136
f 86 136 142
f 86 142 146
f 86 146 144
f 86 144 140
f 86 140 139
f 86 139 138
f 86 138 133
f 86 133 131
f 86 131 125
f 86 125 120
f 86 120 107
f 86 107 89
f 86 89 88
f 86 88 87
f 89 107 106
f 91 102 108
f 91 108 109
f 91 109 110
f 91 110 96
f 92 111 112
f 92 112 113
f 92 95 114
f 92 114 111
f 93 95 94
f 93 100 99
f 93 99 115
f 93 115 95
f 95 115 116
f 95 116 114
f 96 110 97
f 97 99 98
f 97 110 109
f 97 109 117
f 101 108 102
f 101 103 108
f 103 118 109
f 103 109 108
f 106 107 119
f 107 120 121
f 107 121 122
f 107 122 119
f 109 118 117
f 111 114 123
f 114 116 124
f 114 124 123
f 120 125 126
f 120 126 127
f 120 127 121
f 123 124 128
f 124 129 130
f 124 130 128
f 125 131 126
f 126 131 133
f 126 133 132
f 129 134 135
f 129 135 136
f 129 136 130
f 132 133 138
f 132 138 139
f 132 139 140
f 132 140 137
f 134 141 136
f 134 136 135
f 136 141 142
f 137 140 143
f 140 144 143
f 141 145 146
f 141 146 142
f 143 144 145
f 144 146 145

