# https://github.com/mikedh/trimesh
v 0.02283038 0.31748410 -0.01425373
v 0.02067277 0.31748410 -0.01838233
v 0.02275120 0.31748410 -0.01253372
v 0.02821450 0.31649802 -0.00960077
v 0.06808081 0.30934599 -0.00932130
v 0.06825896 0.30919379 -0.01359684
v 0.06255811 0.31011901 -0.01531109
v 0.05954934 0.30991814 -0.02098107
v 0.00768752 0.31748410 -0.02446718
v 0.06833813 0.30877990 -0.01819506
v 0.02239490 0.31748410 -0.00958925
v 0.02443374 0.31714321 -0.00960365
v 0.03195568 0.31556674 -0.00483257
v 0.06586381 0.30972336 -0.00693864
v 0.07194075 0.30862164 -0.00944807
v 0.07207931 0.30846338 -0.01364294
v 0.00590600 0.31748410 -0.02517593
v 0.07215849 0.30803730 -0.01817489
v 0.07225746 0.30713645 -0.02193471
v 0.06841731 0.30787904 -0.02196352
v 0.06079640 0.30925467 -0.02193471
v 0.02021749 0.31748410 -0.00516101
v 0.01639714 0.31748410 -0.00170659
v 0.04676203 0.31260243 -0.00185352
v 0.04688080 0.31279114 -0.00320187
v 0.06695251 0.30937032 -0.00433990
v 0.06812039 0.30924249 -0.00553844
v 0.07164383 0.30857293 -0.00541167
v 0.07552357 0.30776948 -0.00554420
v 0.07578090 0.30780600 -0.00953739
v 0.07591946 0.30763556 -0.01365734
v 0.00269928 0.31748410 -0.02561674
v 0.05673851 0.30949206 -0.02296614
v 0.05467987 0.30966857 -0.02330323
v 0.07241582 0.30621126 -0.02353659
v 0.07599864 0.30719733 -0.01813167
v 0.08223394 0.30521300 -0.02066415
v 0.07997735 0.30556604 -0.02126053
v 0.07637474 0.30611994 -0.02210469
v 0.07791871 0.30527998 -0.02315341
v 0.07532563 0.30574257 -0.02337525
v 0.00871684 0.31748410 0.00240472
v 0.03175773 0.31480587 -0.00087395
v 0.04545559 0.31219462 0.00003935
v 0.06572525 0.30864597 -0.00018537
v 0.06665560 0.30893206 -0.00172387
v 0.06857567 0.30860339 -0.00181031
v 0.07142609 0.30810425 -0.00190250
v 0.07536522 0.30733732 -0.00201198
v 0.07930434 0.30643037 -0.00208689
v 0.07944290 0.30684429 -0.00561911
v 0.07968044 0.30688081 -0.00957772
v 0.07979921 0.30671037 -0.01365446
v -0.00296197 0.31748410 -0.02612957
v 0.06857567 0.30669210 -0.02372386
v 0.08031386 0.30357564 -0.02398604
v 0.07265335 0.30424520 -0.02443837
v 0.08829108 0.30004526 -0.02468039
v 0.08409463 0.30297306 -0.02380165
v 0.07987838 0.30624778 -0.01808557
v 0.08451032 0.30502431 -0.01802219
v 0.08753889 0.30420259 -0.01800490
v 0.09137903 0.30308871 -0.01802219
v 0.09141863 0.30226699 -0.02169270
v 0.08757848 0.30338086 -0.02171863
v 0.08361956 0.30445216 -0.02164660
v 0.08005653 0.30495127 -0.02264346
v 0.09161657 0.30134786 -0.02332627
v 0.08787539 0.30223044 -0.02357981
v 0.00737080 0.31748410 0.00282536
v 0.07550378 0.30650341 0.00003647
v 0.07942310 0.30577300 -0.00018537
v 0.08324346 0.30490866 -0.00045332
v 0.08512395 0.30446431 -0.00060889
v 0.08322367 0.30540169 -0.00214163
v 0.08599490 0.30507301 -0.00495934
v 0.08379771 0.30573648 -0.00599077
v 0.08548025 0.30535301 -0.00749469
v 0.08334243 0.30593126 -0.00956043
v 0.08298613 0.30587646 -0.01362277
v -0.00727719 0.31748410 -0.02625346
v 0.08447072 0.30032526 -0.02491375
v 0.09228958 0.29646012 -0.02527389
v 0.09203226 0.29966789 -0.02436058
v 0.10004907 0.29624101 -0.02469191
v 0.09616933 0.29640533 -0.02506357
v 0.08753889 0.30462257 -0.01355074
v 0.08492600 0.30534692 -0.01359396
v 0.09135924 0.30350260 -0.01351905
v 0.09519939 0.30185916 -0.01805388
v 0.09759454 0.30055656 -0.02095802
v 0.09539734 0.30097048 -0.02176472
v 0.09680275 0.30016091 -0.02266362
v 0.09434822 0.30067830 -0.02310731
v 0.09945523 0.29854183 -0.02354812
v 0.09579322 0.29943050 -0.02374115
v 0.00624251 0.31748410 0.00292908
v 0.09147801 0.30041049 0.00099011
v 0.07970023 0.30408085 0.00078555
v 0.08356017 0.30372781 0.00047440
v 0.08690545 0.30348433 0.00003935
v 0.09104253 0.30249219 -0.00002979
v 0.09084458 0.30326521 -0.00217332
v 0.08757848 0.30418434 -0.00217332
v 0.09106232 0.30363653 -0.00555284
v 0.08732114 0.30474431 -0.00596772
v 0.09129986 0.30365477 -0.00938757
v 0.08747951 0.30478083 -0.00947400
v 0.08528230 0.30539562 -0.00953162
v -0.05078570 0.30369738 -0.02504916
v -0.05078570 0.30611994 -0.02488494
v -0.05078570 0.30772078 -0.02466022
v -0.05078570 0.31003988 -0.02381894
v -0.01034535 0.31748410 -0.02564267
v 0.12000201 0.28478554 -0.02530846
v 0.12791985 0.28062216 -0.02531422
v 0.14753628 0.26895367 -0.02506357
v 0.15143582 0.26486329 -0.02495697
v 0.12392133 0.28478554 -0.02512695
v 0.10369127 0.29599753 -0.02413586
v 0.11964571 0.28858374 -0.02449311
v 0.12774170 0.28456034 -0.02473513
v 0.09517959 0.30224262 -0.01351617
v 0.09971256 0.30030093 -0.01803948
v 0.09894056 0.29981397 -0.02172439
v 0.10280051 0.29921139 -0.01803083
v 0.10287969 0.29845661 -0.02159762
v 0.10499771 0.29707489 -0.02290852
v 0.10313702 0.29759837 -0.02315053
v 0.10689799 0.29579057 -0.02347897
v 0.00269928 0.31748410 0.00317974
v 0.08773683 0.30063569 0.00125517
v 0.09919790 0.29669751 0.00107366
v 0.12750416 0.28496208 0.00100452
v 0.10295887 0.29639318 0.00075962
v 0.09506083 0.29999659 0.00060404
v 0.10236503 0.29852965 -0.00022283
v 0.09466494 0.30147569 -0.00034960
v 0.09464514 0.30202960 -0.00219349
v 0.09486288 0.30237045 -0.00552115
v 0.09510042 0.30238264 -0.00932995
v -0.05078570 0.30209654 -0.02476394
v 0.15143582 0.26478416 -0.02494545
v -0.05078570 0.31067901 -0.02281632
v -0.02552780 0.31691801 -0.01434880
v -0.01723387 0.31748410 -0.01846300
v -0.05078570 0.31104420 -0.02204131
v -0.04324396 0.31295546 -0.02084854
v -0.03330707 0.31521370 -0.01854943
v -0.02938775 0.31585280 -0.01860993
v 0.13174020 0.28056736 -0.02510679
v 0.15143582 0.26905104 -0.02502900
v 0.15143582 0.26899019 -0.02503188
v 0.12360462 0.28840114 -0.02365472
v 0.12720724 0.28732984 -0.02338678
v 0.13138390 0.28408556 -0.02413010
v 0.13544179 0.28039086 -0.02468903
v 0.10282031 0.29949745 -0.01349024
v 0.10604683 0.29826792 -0.01345278
v 0.10594785 0.29800617 -0.01804812
v 0.10751162 0.29669751 -0.02164084
v 0.11095588 0.29537667 -0.02161203
v 0.11317288 0.29392800 -0.02278463
v 0.11109444 0.29454886 -0.02313036
v -0.00650520 0.31748410 0.00310771
v 0.15143582 0.25951296 0.00080860
v 0.14615066 0.26315899 0.00095842
v 0.15012937 0.26361549 0.00095842
v 0.13884645 0.27241707 0.00113705
v 0.13510527 0.27687873 0.00118314
v 0.13140369 0.28113952 0.00114857
v 0.12344627 0.28494989 0.00118891
v 0.08379771 0.30067221 0.00142515
v 0.13512508 0.28108475 0.00086622
v 0.13112657 0.28464556 0.00055507
v 0.12314935 0.28823679 0.00056083
v 0.10658128 0.29585751 0.00036203
v 0.10998595 0.29519405 -0.00011335
v 0.10802628 0.29661229 -0.00052822
v 0.10610621 0.29728185 -0.00044179
v 0.09696111 0.30077571 -0.00060313
v 0.10224626 0.29931485 -0.00223671
v 0.10248380 0.29957049 -0.00549234
v 0.10274113 0.29958876 -0.00924640
v -0.05078570 0.29971659 -0.02412434
v 0.15143582 0.26085816 -0.02365184
v -0.02554760 0.31694237 -0.00983126
v -0.02176683 0.31748410 -0.00990328
v -0.02127196 0.31748410 -0.01412408
v -0.02940754 0.31634586 -0.01423644
v -0.05078570 0.31145812 -0.01996404
v -0.05078570 0.31177464 -0.01813743
v -0.03720660 0.31445893 -0.01853791
v -0.03328728 0.31564587 -0.01414137
v 0.14745711 0.27302577 -0.02472360
v 0.15143582 0.27252056 -0.02427703
v 0.12212003 0.29007502 -0.02290275
v 0.13084944 0.28610032 -0.02293156
v 0.13474898 0.28358644 -0.02323696
v 0.14690286 0.27619702 -0.02364607
v 0.13904441 0.28001955 -0.02399469
v 0.15143582 0.27273359 -0.02417620
v 0.15117848 0.27275795 -0.02424246
v 0.11099548 0.29599753 -0.01803948
v 0.10610621 0.29829835 -0.00916861
v 0.12293161 0.29144456 -0.01321654
v 0.12542572 0.28964894 -0.02067279
v 0.11889351 0.29211411 -0.02147662
v 0.12314935 0.29033068 -0.02149390
v 0.12471313 0.28930809 -0.02238416
v -0.00763349 0.31748410 0.00300111
v -0.05078570 0.30767817 0.00127534
v -0.05078570 0.30327740 0.00158073
v -0.05078570 0.30196262 0.00154904
v -0.05078570 0.29916878 0.00142515
v 0.15143582 0.26384070 0.00091520
v 0.15024814 0.25951296 0.00078555
v 0.15143582 0.25852079 0.00068760
v 0.14294394 0.27283099 0.00101604
v 0.13910379 0.27709178 0.00102180
v 0.14282517 0.27685439 0.00066743
v 0.13852974 0.28062822 0.00036491
v 0.13441247 0.28421339 -0.00031790
v 0.13045356 0.28669681 -0.00056280
v 0.12694992 0.28788375 -0.00021418
v 0.10618538 0.29773835 -0.00210706
v 0.12538614 0.28916807 -0.00083074
v 0.12599977 0.28946634 -0.00239517
v 0.12237736 0.29099414 -0.00226552
v 0.10834300 0.29712968 -0.00354184
v 0.10664067 0.29792704 -0.00503425
v -0.05078570 0.29826792 -0.02341271
v 0.15143582 0.25922687 -0.02261753
v -0.05078570 0.29814618 -0.02334068
v -0.02059895 0.31748410 -0.00601958
v -0.02075730 0.31748410 -0.00654105
v -0.02936795 0.31637019 -0.00974482
v -0.03322790 0.31568848 -0.00968432
v -0.05078570 0.31193896 -0.01561648
v -0.03722640 0.31485458 -0.01410103
v -0.05078570 0.31220681 -0.00913115
v -0.04126450 0.31411198 -0.00958348
v -0.03718681 0.31492152 -0.00965551
v 0.13316540 0.28520553 -0.02258295
v 0.15143582 0.27501616 -0.02272125
v 0.12289201 0.29118283 -0.01781475
v 0.10822423 0.29732446 -0.00597060
v 0.12283263 0.29152978 -0.00889202
v 0.12592060 0.29016633 -0.01320789
v 0.12574245 0.28994718 -0.01774561
v 0.12768231 0.28908894 -0.01769951
v 0.13063170 0.28772549 -0.01765053
v 0.13061191 0.28708636 -0.02119715
v 0.12677176 0.28878461 -0.02140747
v -0.00901911 0.31748410 0.00265250
v -0.04324396 0.31238331 0.00033034
v -0.05078570 0.31033203 0.00061269
v -0.05078570 0.29851137 0.00130415
v 0.15143582 0.26857626 0.00073369
v 0.15054506 0.26853368 0.00080860
v 0.15143582 0.25667647 -0.00017097
v -0.05078570 0.29701403 0.00096418
v 0.14680388 0.27293446 0.00075962
v 0.15143582 0.27172317 0.00035339
v 0.15048568 0.27266664 0.00031305
v 0.15143582 0.27257533 0.00013443
v 0.14640798 0.27622744 0.00007392
v 0.15143582 0.27472398 -0.00078752
v 0.14187502 0.27987347 -0.00037264
v 0.13783694 0.28267950 -0.00063770
v 0.13292787 0.28568640 -0.00092869
v 0.12793964 0.28860810 -0.00244991
v 0.12611854 0.28991067 -0.00530795
v 0.12257530 0.29145065 -0.00523304
v 0.11022348 0.29646012 -0.00490748
v 0.11671610 0.29390973 -0.00650936
v 0.15143582 0.25814951 -0.02137866
v -0.05078570 0.29711750 -0.02182523
v 0.15143582 0.25797907 -0.02116546
v -0.01596702 0.31748410 -0.00183624
v -0.03310913 0.31546934 -0.00492764
v -0.02926898 0.31605976 -0.00493053
v -0.03708784 0.31478154 -0.00496222
v -0.05078570 0.31219462 -0.00491324
v -0.04116552 0.31401458 -0.00496510
v -0.05078570 0.31207288 -0.01353634
v -0.05078570 0.31213374 -0.01162906
v -0.05078570 0.31220681 -0.00625583
v 0.13371967 0.28549771 -0.02112800
v 0.15143582 0.27590483 -0.02109055
v 0.14816971 0.27715263 -0.02227468
v 0.15143582 0.27569181 -0.02153424
v 0.12599977 0.29016633 -0.00894100
v 0.12786047 0.28928372 -0.01319061
v 0.13067129 0.28797506 -0.01317620
v 0.13405617 0.28624030 -0.01314451
v 0.13407595 0.28596030 -0.01759291
v -0.03297056 0.31475111 -0.00098055
v -0.03696908 0.31413632 -0.00106987
v -0.04587663 0.31206070 -0.00003268
v -0.05078570 0.31112942 -0.00042739
v 0.15143582 0.25592782 -0.00164609
v -0.05078570 0.29595492 -0.00089988
v 0.15143582 0.27542396 -0.00184200
v 0.14811033 0.27703699 -0.00105834
v 0.14591312 0.27798045 -0.00074719
v 0.14007373 0.28158387 -0.00088260
v 0.13530323 0.28485858 -0.00243838
v 0.13348213 0.28585684 -0.00243838
v 0.13021602 0.28754290 -0.00244703
v 0.15143582 0.27575876 -0.00240093
v 0.14573497 0.27899695 -0.00242686
v 0.13769837 0.28352556 -0.00240381
v 0.12809800 0.28900372 -0.00533676
v 0.12797923 0.28925938 -0.00895541
v -0.05078570 0.29568101 -0.01767646
v 0.15143582 0.25632953 -0.01811727
v 0.15143582 0.25621388 -0.01782340
v -0.04797487 0.31243201 -0.00201775
v -0.05078570 0.31201203 -0.00379250
v 0.13811405 0.28381774 -0.01755545
v 0.15105971 0.27678744 -0.01763901
v 0.15143582 0.27658048 -0.01763901
v 0.13061191 0.28801767 -0.00896117
v 0.13395719 0.28628900 -0.00894100
v 0.13813386 0.28406122 -0.01311282
v -0.04918234 0.31186592 -0.00111597
v -0.05078570 0.31157986 -0.00116206
v 0.15143582 0.25584869 -0.00189386
v -0.05078570 0.29526709 -0.00452717
v 0.14571518 0.27969085 -0.00536557
v 0.14136037 0.28207689 -0.00533100
v 0.13381863 0.28613684 -0.00530795
v 0.13041396 0.28790203 -0.00532812
v 0.13787652 0.28395166 -0.00530795
v 0.15143582 0.27651354 -0.00533100
v 0.15062423 0.27622744 -0.00243262
v -0.05078570 0.29532188 -0.01442371
v 0.15143582 0.25557478 -0.01444676
v 0.15143582 0.25545913 -0.01363141
v 0.14155831 0.28221690 -0.01310994
v 0.15143582 0.27681178 -0.01325111
v 0.15143582 0.27661091 -0.01707143
v 0.13807447 0.28407947 -0.00890067
v 0.15143582 0.25573910 -0.00270921
v -0.05078570 0.29509667 -0.00745724
v 0.15143582 0.25547129 -0.00490172
v 0.14589333 0.27983695 -0.00896117
v 0.14923861 0.27773697 -0.00535981
v 0.15143582 0.27678744 -0.00901015
v 0.14149893 0.28223515 -0.00890067
v 0.15143582 0.27653787 -0.00564792
v -0.05078570 0.29515753 -0.01283911
v 0.15143582 0.25540434 -0.01207562
v 0.14935738 0.27793175 -0.00900727
v -0.05078570 0.29504797 -0.00851748
v 0.15143582 0.25540434 -0.00648631
v -0.05078570 0.29507840 -0.00977364
v 0.15143582 0.25530693 -0.00916861
f 1 2 9
f 1 9 17
f 1 17 32
f 1 32 54
f 1 54 81
f 1 81 114
f 1 114 146
f 1 146 189
f 1 189 188
f 1 188 236
f 1 236 235
f 1 235 280
f 1 280 255
f 1 255 211
f 1 211 165
f 1 165 131
f 1 131 97
f 1 97 70
f 1 70 42
f 1 42 23
f 1 23 22
f 1 22 11
f 1 11 3
f 1 3 4
f 1 4 5
f 1 5 6
f 1 6 7
f 1 7 2
f 2 8 9
f 2 7 10
f 2 10 8
f 3 11 12
f 3 12 4
f 4 12 13
f 4 13 14
f 4 14 5
f 5 14 15
f 5 15 6
f 6 15 16
f 6 16 10
f 6 10 7
f 8 17 9
f 8 10 18
f 8 18 19
f 8 19 20
f 8 20 21
f 8 21 17
f 10 16 18
f 11 22 13
f 11 13 12
f 13 22 23
f 13 23 24
f 13 24 25
f 13 25 26
f 13 26 27
f 13 27 14
f 14 27 28
f 14 28 15
f 15 28 29
f 15 29 30
f 15 30 16
f 16 30 31
f 16 31 18
f 17 21 33
f 17 33 34
f 17 34 35
f 17 35 32
f 18 31 36
f 18 36 19
f 19 36 37
f 19 37 38
f 19 38 39
f 19 39 40
f 19 40 41
f 19 41 20
f 20 41 35
f 20 35 33
f 20 33 21
f 23 42 43
f 23 43 24
f 24 43 44
f 24 44 45
f 24 45 46
f 24 46 47
f 24 47 48
f 24 48 26
f 24 26 25
f 26 48 49
f 26 49 28
f 26 28 27
f 28 49 29
f 29 49 50
f 29 50 51
f 29 51 30
f 30 51 52
f 30 52 31
f 31 52 53
f 31 53 36
f 32 35 55
f 32 55 56
f 32 56 57
f 32 57 58
f 32 58 54
f 33 35 34
f 35 41 59
f 35 59 56
f 35 56 55
f 36 53 60
f 36 60 37
f 37 61 62
f 37 62 63
f 37 63 64
f 37 64 65
f 37 65 66
f 37 66 38
f 37 60 61
f 38 66 67
f 38 67 40
f 38 40 39
f 40 67 65
f 40 65 68
f 40 68 69
f 40 69 41
f 41 69 59
f 42 70 44
f 42 44 43
f 44 70 45
f 45 71 72
f 45 72 49
f 45 49 48
f 45 48 47
f 45 47 46
f 45 70 71
f 49 72 50
f 50 72 73
f 50 73 74
f 50 74 75
f 50 75 76
f 50 76 51
f 51 76 77
f 51 77 78
f 51 78 52
f 52 78 79
f 52 79 53
f 53 79 80
f 53 80 60
f 54 58 82
f 54 82 83
f 54 83 81
f 56 59 58
f 56 58 57
f 58 84 85
f 58 85 86
f 58 86 82
f 58 59 84
f 59 69 84
f 60 80 61
f 61 80 62
f 62 87 63
f 62 80 88
f 62 88 87
f 63 87 89
f 63 89 90
f 63 90 91
f 63 91 64
f 64 91 92
f 64 92 93
f 64 93 94
f 64 94 65
f 65 94 68
f 65 67 66
f 68 94 95
f 68 95 69
f 69 95 96
f 69 96 84
f 70 97 98
f 70 98 99
f 70 99 71
f 71 99 100
f 71 100 101
f 71 101 102
f 71 102 72
f 72 102 73
f 73 102 74
f 74 102 103
f 74 103 75
f 75 103 104
f 75 104 76
f 76 78 77
f 76 104 103
f 76 103 105
f 76 105 106
f 76 106 78
f 78 106 105
f 78 105 107
f 78 107 108
f 78 108 109
f 78 109 79
f 79 109 88
f 79 88 80
f 81 110 111
f 81 111 112
f 81 112 113
f 81 113 114
f 81 83 115
f 81 115 116
f 81 116 117
f 81 117 118
f 81 118 110
f 82 86 83
f 83 86 119
f 83 119 115
f 84 96 95
f 84 95 120
f 84 120 85
f 85 120 121
f 85 121 122
f 85 122 119
f 85 119 86
f 87 108 89
f 87 88 109
f 87 109 108
f 89 108 107
f 89 107 123
f 89 123 90
f 90 123 124
f 90 124 91
f 91 125 93
f 91 93 92
f 91 124 126
f 91 126 127
f 91 127 125
f 93 125 127
f 93 127 128
f 93 128 129
f 93 129 94
f 94 129 95
f 95 129 130
f 95 130 120
f 97 131 132
f 97 132 98
f 98 132 133
f 98 133 134
f 98 134 135
f 98 135 136
f 98 136 102
f 98 102 100
f 98 100 99
f 100 102 101
f 102 136 137
f 102 137 138
f 102 138 103
f 103 138 139
f 103 139 105
f 105 139 140
f 105 140 107
f 107 140 141
f 107 141 123
f 110 142 185
f 110 185 232
f 110 232 234
f 110 234 278
f 110 278 316
f 110 316 338
f 110 338 353
f 110 353 358
f 110 358 356
f 110 356 346
f 110 346 330
f 110 330 303
f 110 303 262
f 110 262 258
f 110 258 215
f 110 215 214
f 110 214 213
f 110 213 212
f 110 212 257
f 110 257 301
f 110 301 328
f 110 328 320
f 110 320 284
f 110 284 288
f 110 288 241
f 110 241 287
f 110 287 286
f 110 286 239
f 110 239 192
f 110 192 191
f 110 191 147
f 110 147 144
f 110 144 113
f 110 113 112
f 110 112 111
f 110 118 143
f 110 143 142
f 113 144 114
f 114 145 146
f 114 144 147
f 114 147 148
f 114 148 149
f 114 149 150
f 114 150 145
f 115 119 116
f 116 119 151
f 116 151 152
f 116 152 153
f 116 153 117
f 117 153 118
f 118 153 152
f 118 152 196
f 118 196 202
f 118 202 245
f 118 245 292
f 118 292 290
f 118 290 323
f 118 323 343
f 118 343 342
f 118 342 350
f 118 350 352
f 118 352 336
f 118 336 311
f 118 311 304
f 118 304 268
f 118 268 266
f 118 266 264
f 118 264 259
f 118 259 216
f 118 216 166
f 118 166 218
f 118 218 261
f 118 261 302
f 118 302 329
f 118 329 345
f 118 345 347
f 118 347 357
f 118 357 359
f 118 359 354
f 118 354 340
f 118 340 339
f 118 339 318
f 118 318 317
f 118 317 279
f 118 279 277
f 118 277 233
f 118 233 186
f 118 186 143
f 119 122 151
f 120 130 154
f 120 154 121
f 121 154 155
f 121 155 122
f 122 155 156
f 122 156 157
f 122 157 151
f 123 141 158
f 123 158 126
f 123 126 124
f 126 158 159
f 126 159 160
f 126 160 161
f 126 161 127
f 127 161 128
f 128 161 162
f 128 162 163
f 128 163 164
f 128 164 129
f 129 164 130
f 130 164 155
f 130 155 154
f 131 165 166
f 131 166 167
f 131 167 168
f 131 168 169
f 131 169 170
f 131 170 171
f 131 171 172
f 131 172 173
f 131 173 132
f 132 173 172
f 132 172 134
f 132 134 133
f 134 172 171
f 134 171 174
f 134 174 175
f 134 175 176
f 134 176 135
f 135 177 136
f 135 176 177
f 136 177 137
f 137 177 178
f 137 178 179
f 137 179 180
f 137 180 138
f 138 181 139
f 138 180 181
f 139 181 182
f 139 182 140
f 140 182 183
f 140 183 184
f 140 184 141
f 141 184 158
f 142 143 185
f 143 186 185
f 145 187 188
f 145 188 189
f 145 189 146
f 145 150 190
f 145 190 187
f 147 191 148
f 148 191 192
f 148 192 193
f 148 193 149
f 149 194 190
f 149 190 150
f 149 193 194
f 151 157 195
f 151 195 152
f 152 195 196
f 155 197 198
f 155 198 156
f 155 164 197
f 156 198 199
f 156 199 200
f 156 200 201
f 156 201 202
f 156 202 203
f 156 203 157
f 157 203 196
f 157 196 195
f 158 184 159
f 159 204 160
f 159 184 205
f 159 205 206
f 159 206 204
f 160 204 162
f 160 162 161
f 162 204 207
f 162 207 208
f 162 208 209
f 162 209 210
f 162 210 163
f 163 210 197
f 163 197 164
f 165 211 212
f 165 212 213
f 165 213 214
f 165 214 215
f 165 215 166
f 166 216 168
f 166 168 167
f 166 215 217
f 166 217 218
f 168 216 170
f 168 170 169
f 170 216 219
f 170 219 220
f 170 220 171
f 171 220 174
f 174 220 221
f 174 221 222
f 174 222 175
f 175 222 223
f 175 223 224
f 175 224 225
f 175 225 176
f 176 225 178
f 176 178 177
f 178 225 179
f 179 226 182
f 179 182 181
f 179 181 180
f 179 225 224
f 179 224 227
f 179 227 228
f 179 228 229
f 179 229 226
f 182 226 230
f 182 230 183
f 183 230 231
f 183 231 205
f 183 205 184
f 185 186 232
f 186 233 234
f 186 234 232
f 187 235 236
f 187 236 188
f 187 190 237
f 187 237 235
f 190 194 238
f 190 238 237
f 192 239 240
f 192 240 194
f 192 194 193
f 194 240 241
f 194 241 242
f 194 242 243
f 194 243 238
f 196 203 202
f 197 210 198
f 198 244 245
f 198 245 199
f 198 210 244
f 199 245 200
f 200 245 202
f 200 202 201
f 204 206 246
f 204 246 207
f 205 231 247
f 205 247 248
f 205 248 206
f 206 248 249
f 206 249 246
f 207 246 250
f 207 250 251
f 207 251 252
f 207 252 253
f 207 253 254
f 207 254 209
f 207 209 208
f 209 254 210
f 210 254 253
f 210 253 244
f 211 255 256
f 211 256 257
f 211 257 212
f 215 258 218
f 215 218 217
f 216 259 260
f 216 260 219
f 218 258 262
f 218 262 261
f 219 260 220
f 220 260 263
f 220 263 221
f 221 263 264
f 221 264 265
f 221 265 266
f 221 266 267
f 221 267 222
f 222 267 268
f 222 268 269
f 222 269 223
f 223 269 270
f 223 270 224
f 224 270 271
f 224 271 227
f 226 229 230
f 227 271 272
f 227 272 228
f 228 273 274
f 228 274 229
f 228 272 273
f 229 274 230
f 230 275 231
f 230 274 275
f 231 275 274
f 231 274 276
f 231 276 247
f 233 277 234
f 234 277 279
f 234 279 278
f 235 237 281
f 235 281 282
f 235 282 280
f 237 238 283
f 237 283 281
f 238 243 284
f 238 284 285
f 238 285 283
f 239 286 240
f 240 286 287
f 240 287 241
f 241 288 242
f 242 288 243
f 243 288 284
f 244 253 289
f 244 289 290
f 244 290 291
f 244 291 245
f 245 291 292
f 246 249 250
f 247 276 248
f 248 276 274
f 248 274 293
f 248 293 249
f 249 293 294
f 249 294 251
f 249 251 250
f 251 294 252
f 252 295 296
f 252 296 297
f 252 297 289
f 252 289 253
f 252 294 295
f 255 280 298
f 255 298 299
f 255 299 256
f 256 299 300
f 256 300 257
f 257 300 301
f 259 264 263
f 259 263 260
f 261 262 303
f 261 303 302
f 264 266 265
f 266 268 267
f 268 304 305
f 268 305 306
f 268 306 270
f 268 270 269
f 270 306 305
f 270 305 307
f 270 307 271
f 271 308 309
f 271 309 310
f 271 310 272
f 271 307 311
f 271 311 312
f 271 312 313
f 271 313 308
f 272 314 273
f 272 310 314
f 273 314 315
f 273 315 293
f 273 293 274
f 278 279 317
f 278 317 318
f 278 318 316
f 280 282 298
f 281 298 282
f 281 283 319
f 281 319 299
f 281 299 298
f 283 285 319
f 284 320 319
f 284 319 285
f 289 297 321
f 289 321 322
f 289 322 290
f 290 322 323
f 290 292 291
f 293 315 294
f 294 315 295
f 295 324 296
f 295 315 324
f 296 324 325
f 296 325 326
f 296 326 321
f 296 321 297
f 299 319 327
f 299 327 300
f 300 327 328
f 300 328 301
f 302 303 329
f 303 330 329
f 304 311 305
f 305 311 307
f 308 313 331
f 308 331 332
f 308 332 309
f 309 333 334
f 309 334 310
f 309 332 335
f 309 335 333
f 310 334 314
f 311 336 337
f 311 337 312
f 312 337 336
f 312 336 313
f 313 336 331
f 314 334 324
f 314 324 315
f 316 318 339
f 316 339 340
f 316 340 338
f 319 320 328
f 319 328 327
f 321 326 341
f 321 341 322
f 322 342 343
f 322 343 323
f 322 341 342
f 324 334 325
f 325 334 333
f 325 333 344
f 325 344 326
f 326 344 341
f 329 330 345
f 330 346 347
f 330 347 345
f 331 348 332
f 331 336 349
f 331 349 350
f 331 350 348
f 332 348 351
f 332 351 344
f 332 344 335
f 333 335 344
f 336 352 349
f 338 340 353
f 340 354 353
f 341 344 351
f 341 351 348
f 341 348 342
f 342 355 350
f 342 348 355
f 346 356 347
f 347 356 357
f 348 350 355
f 349 352 350
f 353 354 359
f 353 359 358
f 356 359 357
f 356 358 359

