# https://github.com/mikedh/trimesh
v 0.05294908 -0.48253017 -0.00704921
v 0.05303194 -0.48260491 -0.01070743
v 0.05401705 -0.48499728 -0.01053832
v 0.05427483 -0.48529632 -0.00718272
v 0.05409070 -0.48444073 -0.00210927
v 0.05326211 -0.48242217 -0.00209443
v 0.08487285 -0.40617408 -0.00947912
v 0.08473476 -0.40617408 -0.01243122
v 0.08453682 -0.40617408 -0.01837991
v 0.05369482 -0.48270461 -0.01299197
v 0.05448658 -0.48522158 -0.01249352
v 0.08473476 -0.40617408 -0.02203517
v 0.05553613 -0.48713214 -0.01190904
v 0.05553153 -0.48713214 -0.01041667
v 0.05554994 -0.48709891 -0.00868399
v 0.05567883 -0.48696599 -0.00571705
v 0.05605170 -0.48665865 -0.00189565
v 0.05472596 -0.48387587 0.00290781
v 0.05427023 -0.48237235 0.00295528
v 0.08581653 -0.40617408 -0.00086909
v 0.08521810 -0.40617408 -0.00537586
v 0.05632790 -0.48294550 -0.01421434
v 0.05686188 -0.48579473 -0.01370997
v 0.08554033 -0.40617408 -0.02286295
v 0.08617098 -0.40617408 -0.02342666
v 0.05757999 -0.48817047 -0.01233331
v 0.05779634 -0.48854429 -0.01032766
v 0.05737284 -0.48814558 -0.00693646
v 0.05818302 -0.48817880 -0.00173840
v 0.05671918 -0.48601073 0.00299979
v 0.05877684 -0.48774684 0.00300572
v 0.05537962 -0.48349376 0.00553354
v 0.05530597 -0.48248032 0.00555728
v 0.05548090 -0.48184902 0.00538817
v 0.08744609 -0.40617408 0.00572936
v 0.08726656 -0.40617408 0.00526652
v 0.08675560 -0.40617408 0.00367031
v 0.06801563 -0.47576842 -0.01827904
v 0.05781476 -0.48477299 -0.01433302
v 0.06088975 -0.48781329 -0.01408677
v 0.08739086 -0.40617408 -0.02349194
v 0.08664051 -0.43644405 -0.02310327
v 0.08631829 -0.44046453 -0.02302613
v 0.08373585 -0.44610487 -0.02269680
v 0.07047379 -0.47172301 -0.01903561
v 0.06176438 -0.48971555 -0.01244902
v 0.06336632 -0.49068744 -0.01138093
v 0.06163088 -0.49033025 -0.01007844
v 0.06205899 -0.49046315 -0.00671394
v 0.06165389 -0.48993984 -0.00160192
v 0.06148818 -0.48918392 0.00278617
v 0.05929701 -0.48737303 0.00565816
v 0.05711506 -0.48509698 0.00582134
v 0.05839938 -0.48581136 0.00636132
v 0.05756158 -0.48358513 0.00638505
v 0.05674679 -0.48248032 0.00611506
v 0.08875342 -0.40617408 0.00628418
v 0.06997663 -0.47543616 -0.01862914
v 0.07044616 -0.47762086 -0.01829684
v 0.06523525 -0.48284583 -0.01649888
v 0.07378355 -0.47107508 -0.01977734
v 0.06062276 -0.48586951 -0.01464752
v 0.06445269 -0.48848614 -0.01411643
v 0.06472889 -0.48643436 -0.01515189
v 0.08877644 -0.40617408 -0.02356314
v 0.08883168 -0.43601211 -0.02315074
v 0.08808134 -0.44361283 -0.02292822
v 0.08529635 -0.44801543 -0.02273833
v 0.08538843 -0.44446012 -0.02286888
v 0.08347346 -0.44843906 -0.02261372
v 0.07735109 -0.46349930 -0.02090180
v 0.07718077 -0.46682201 -0.02071786
v 0.06346759 -0.49068744 -0.01137202
v 0.06354124 -0.49086188 -0.00988856
v 0.06342156 -0.49085358 -0.00990636
v 0.06352743 -0.49102803 -0.00833685
v 0.06426856 -0.49052129 -0.00143577
v 0.06403840 -0.48969062 0.00245090
v 0.06107849 -0.48822032 0.00544157
v 0.05955019 -0.48726506 0.00627231
v 0.06036037 -0.48656728 0.00631682
v 0.06675894 -0.48051161 0.00650967
v 0.06414887 -0.48068606 0.00648000
v 0.08499254 -0.45215221 0.00674702
v 0.08845881 -0.44384542 0.00667285
v 0.09190668 -0.41675695 0.00638209
v 0.09180540 -0.41284443 0.00627528
v 0.09175477 -0.40892364 0.00607353
v 0.09174096 -0.40617408 0.00589848
v 0.07350275 -0.47462209 -0.01910681
v 0.07310226 -0.47695631 -0.01836508
v 0.06877978 -0.48234743 -0.01654338
v 0.06918026 -0.47894994 -0.01784290
v 0.07684933 -0.47028594 -0.02008590
v 0.06807088 -0.48513021 -0.01508365
v 0.06762896 -0.48711551 -0.01313438
v 0.06615591 -0.48876025 -0.01218496
v 0.06413967 -0.48975707 -0.01239562
v 0.08975694 -0.40617408 -0.02344150
v 0.09082950 -0.40836708 -0.02328425
v 0.09115634 -0.41674865 -0.02314184
v 0.09113332 -0.42788804 -0.02299646
v 0.08892835 -0.43207467 -0.02319524
v 0.09088935 -0.43174241 -0.02296975
v 0.09044743 -0.43546386 -0.02296085
v 0.08999631 -0.43860382 -0.02293118
v 0.08882247 -0.44009905 -0.02302019
v 0.08956360 -0.44122046 -0.02286591
v 0.08716529 -0.44745887 -0.02274427
v 0.08501096 -0.45162058 -0.02250988
v 0.08297170 -0.45223528 -0.02243867
v 0.08262645 -0.45581551 -0.02216868
v 0.08264486 -0.45800851 -0.02196100
v 0.08318345 -0.45788389 -0.02199067
v 0.06427776 -0.49051299 -0.00973131
v 0.06358267 -0.49103633 -0.00832202
v 0.06416268 -0.49080374 -0.00630451
v 0.06647814 -0.48925036 -0.00125479
v 0.06587971 -0.48871043 0.00230553
v 0.06524445 -0.48818710 0.00434084
v 0.06329727 -0.48846951 0.00512708
v 0.06196692 -0.48807080 0.00612396
v 0.06078848 -0.48768869 0.00620407
v 0.06658861 -0.48183239 0.00645033
v 0.07840985 -0.46577537 0.00665208
v 0.08821944 -0.44736750 0.00656604
v 0.08462888 -0.45604810 0.00660757
v 0.09161207 -0.43509004 0.00601122
v 0.09174096 -0.43110278 0.00615363
v 0.09187445 -0.42737303 0.00623077
v 0.09199874 -0.42015443 0.00630791
v 0.09433261 -0.42372636 0.00522498
v 0.09439705 -0.42034547 0.00522498
v 0.09440626 -0.41703106 0.00518048
v 0.09422673 -0.41306042 0.00502620
v 0.09233018 -0.40617408 0.00556915
v 0.07490675 -0.47604257 -0.01829981
v 0.08026497 -0.46637345 -0.02004139
v 0.07889319 -0.46971278 -0.01928483
v 0.07616805 -0.47367512 -0.01886056
v 0.06999965 -0.48405032 -0.01475729
v 0.07051982 -0.48465669 -0.01300680
v 0.07330020 -0.48329439 -0.01059766
v 0.06657020 -0.48905099 -0.00952956
v 0.06860946 -0.48758070 -0.00946132
v 0.09070061 -0.40617408 -0.02331392
v 0.09249129 -0.41710583 -0.02234373
v 0.09254193 -0.41978892 -0.02230813
v 0.09121158 -0.41973910 -0.02307063
v 0.09238081 -0.42764715 -0.02201737
v 0.09217366 -0.43122737 -0.02168507
v 0.09066839 -0.43947604 -0.02176518
v 0.09012060 -0.44297320 -0.02125784
v 0.08914010 -0.44316424 -0.02261372
v 0.08653464 -0.44990106 -0.02257812
v 0.08381871 -0.45551647 -0.02221615
v 0.08574748 -0.45241802 -0.02230516
v 0.08502937 -0.45510943 -0.02180375
v 0.08304996 -0.46215359 -0.02022534
v 0.06668068 -0.48930851 -0.00539663
v 0.06855882 -0.48781329 -0.00121622
v 0.06798341 -0.48715706 0.00225805
v 0.06953471 -0.48459855 0.00440018
v 0.06693847 -0.48621839 0.00485709
v 0.06767039 -0.48297873 0.00604386
v 0.06488079 -0.48463180 0.00624264
v 0.07240717 -0.47560231 0.00644736
v 0.07601614 -0.47139075 0.00648000
v 0.08427443 -0.45954526 0.00621891
v 0.08797087 -0.45109724 0.00607649
v 0.09078808 -0.44629591 0.00521312
v 0.09150619 -0.43937634 0.00568189
v 0.07968035 -0.46688848 0.00626638
v 0.09369735 -0.43499037 0.00488379
v 0.09400577 -0.43091174 0.00507367
v 0.09424514 -0.42728166 0.00518641
v 0.09626598 -0.42031225 0.00291078
v 0.09629360 -0.41708091 0.00291968
v 0.09411165 -0.40901501 0.00476214
v 0.09403339 -0.40617408 0.00453072
v 0.07784365 -0.47198053 -0.01867661
v 0.07666980 -0.47466364 -0.01734446
v 0.07392625 -0.48002150 -0.01512519
v 0.08201422 -0.46502774 -0.01955185
v 0.07260050 -0.48272121 -0.01301867
v 0.07373751 -0.48370973 -0.00760106
v 0.07163381 -0.48508036 -0.00924474
v 0.07453849 -0.48070268 -0.01296823
v 0.07705188 -0.47927391 -0.01031580
v 0.07765030 -0.47977231 -0.00719162
v 0.06874755 -0.48787144 -0.00519488
v 0.07392625 -0.48389247 -0.00482401
v 0.07138063 -0.48587780 -0.00499312
v 0.09207239 -0.40617408 -0.02164057
v 0.09360068 -0.41733843 -0.02089587
v 0.09368354 -0.41984706 -0.02088104
v 0.09235779 -0.40841690 -0.02152189
v 0.09343957 -0.42741455 -0.02056061
v 0.09320019 -0.43082034 -0.02022238
v 0.09196191 -0.43450026 -0.02115103
v 0.09283654 -0.43538908 -0.01935900
v 0.09256034 -0.43891116 -0.01853716
v 0.09334290 -0.44122876 -0.01576308
v 0.08955439 -0.44604672 -0.02065555
v 0.08850945 -0.44737580 -0.02143289
v 0.08716069 -0.45099758 -0.02136168
v 0.08634590 -0.45485192 -0.02053687
v 0.08572907 -0.45738548 -0.01992568
v 0.08528255 -0.45967818 -0.01886056
v 0.07386641 -0.48385925 -0.00231102
v 0.07173509 -0.48529632 -0.00137644
v 0.07344751 -0.48355191 -0.00067031
v 0.07040474 -0.48509698 0.00205630
v 0.07257289 -0.48291228 0.00182785
v 0.07780221 -0.47968094 -0.00211817
v 0.07510469 -0.48047839 0.00112765
v 0.07353958 -0.47999661 0.00422810
v 0.07125174 -0.48194869 0.00482445
v 0.07199747 -0.47888350 0.00590738
v 0.07568471 -0.47479653 0.00571749
v 0.08408569 -0.46256063 0.00535850
v 0.08654385 -0.45896377 0.00515081
v 0.08781895 -0.45481039 0.00536740
v 0.09312654 -0.44172716 0.00425480
v 0.09333829 -0.43938467 0.00452479
v 0.09167191 -0.44284860 0.00512411
v 0.08989964 -0.45032472 0.00490159
v 0.07981385 -0.47064315 0.00497873
v 0.09591613 -0.43080374 0.00228772
v 0.09608185 -0.42715707 0.00272386
v 0.09617852 -0.42362666 0.00284254
v 0.09788633 -0.42015443 0.00018714
v 0.09787253 -0.41702276 0.00026428
v 0.09774824 -0.41296905 -0.00013329
v 0.09618773 -0.41303550 0.00247464
v 0.09447531 -0.40617408 0.00391360
v 0.08112118 -0.46749486 -0.01862617
v 0.08051815 -0.46982078 -0.01702996
v 0.08101531 -0.47129108 -0.01465048
v 0.07638900 -0.47850968 -0.01287329
v 0.08272313 -0.46607441 -0.01724061
v 0.08485444 -0.46217852 -0.01725545
v 0.07800476 -0.47993846 -0.00467566
v 0.07585963 -0.48207328 -0.00474687
v 0.08073911 -0.47488790 -0.00960373
v 0.08230422 -0.47360868 -0.00816774
v 0.08140658 -0.47544446 -0.00650923
v 0.08171040 -0.47237097 -0.01187640
v 0.08166897 -0.47562723 -0.00486555
v 0.07988750 -0.47774546 -0.00474984
v 0.09263399 -0.40617408 -0.02078609
v 0.09306670 -0.40704630 -0.02025501
v 0.09513357 -0.41746302 -0.01776279
v 0.09519802 -0.41991351 -0.01778059
v 0.09668949 -0.41999658 -0.01444873
v 0.09471928 -0.42727336 -0.01772422
v 0.09430038 -0.43072897 -0.01773016
v 0.09474229 -0.43938467 -0.01345778
v 0.09547882 -0.43487408 -0.01346964
v 0.09402879 -0.44252464 -0.01336877
v 0.08914470 -0.44874643 -0.01987525
v 0.08884549 -0.45087295 -0.01881902
v 0.08819642 -0.45466917 -0.01713084
v 0.08643337 -0.45863151 -0.01742160
v 0.08676020 -0.46236126 -0.01310768
v 0.08545287 -0.46353252 -0.01469795
v 0.08860152 -0.45880596 -0.01265967
v 0.07527041 -0.48217298 -0.00173543
v 0.07737411 -0.47936528 -0.00099370
v 0.08164595 -0.47547768 -0.00296968
v 0.08002100 -0.47698124 -0.00218344
v 0.08124547 -0.47497928 -0.00149215
v 0.07616805 -0.47833524 0.00226102
v 0.07825334 -0.47390771 0.00432007
v 0.08102451 -0.47144060 0.00337362
v 0.08261264 -0.46639837 0.00487489
v 0.08898359 -0.45569921 0.00347153
v 0.08937947 -0.45265892 0.00463160
v 0.08592701 -0.46093248 0.00469984
v 0.09293780 -0.44332209 0.00387206
v 0.09438784 -0.44266583 0.00173291
v 0.09513357 -0.43965049 0.00143918
v 0.09598058 -0.43504852 0.00115732
v 0.08167358 -0.46924760 0.00419546
v 0.09743061 -0.43342037 -0.00096997
v 0.09753649 -0.43071237 -0.00052493
v 0.09768380 -0.42700752 -0.00005318
v 0.09780808 -0.42343562 0.00008033
v 0.09926272 -0.42007136 -0.00278573
v 0.09923971 -0.41710583 -0.00275309
v 0.09760554 -0.40872427 -0.00057833
v 0.09609106 -0.40888209 0.00197323
v 0.09598058 -0.40617408 0.00170917
v 0.08175183 -0.46882397 -0.01605087
v 0.08260804 -0.46998690 -0.01307504
v 0.08485444 -0.46605778 -0.01305427
v 0.08471174 -0.46991215 -0.00842290
v 0.08513524 -0.47105849 -0.00511477
v 0.08341361 -0.47345916 -0.00500499
v 0.09302067 -0.40617408 -0.02006216
v 0.09638106 -0.40617408 -0.01208705
v 0.09701632 -0.40617408 -0.01057392
v 0.09710838 -0.40759453 -0.01076974
v 0.09724188 -0.41026934 -0.01113467
v 0.09664345 -0.41749624 -0.01439829
v 0.09763316 -0.42007136 -0.01218200
v 0.09643630 -0.42729826 -0.01364766
v 0.09725569 -0.42926699 -0.01119994
v 0.09635344 -0.43052130 -0.01296823
v 0.09712219 -0.43159289 -0.01077864
v 0.09689663 -0.43524786 -0.00982922
v 0.09669409 -0.44001597 -0.00823895
v 0.09591153 -0.44306457 -0.00850004
v 0.09342115 -0.44797387 -0.01089732
v 0.08909406 -0.45608962 -0.01399776
v 0.08891914 -0.46222837 -0.00814994
v 0.08613415 -0.46483670 -0.01176069
v 0.08943011 -0.45998552 -0.00949396
v 0.08977075 -0.45777592 -0.01101303
v 0.08214311 -0.47273645 0.00000022
v 0.08502937 -0.47050193 -0.00284803
v 0.08278297 -0.47364190 -0.00249200
v 0.08333996 -0.46975431 0.00099117
v 0.08528255 -0.46323348 0.00368811
v 0.08866596 -0.45884748 0.00152522
v 0.09016663 -0.45785066 -0.00044185
v 0.09344878 -0.45152088 -0.00216861
v 0.09387688 -0.44837261 -0.00071481
v 0.09429578 -0.44567291 0.00026131
v 0.09258796 -0.44583072 0.00314813
v 0.08565081 -0.46800989 -0.00149511
v 0.08697656 -0.46202070 0.00171511
v 0.09682298 -0.44298150 -0.00300528
v 0.09728331 -0.43680123 -0.00166126
v 0.09860445 -0.43073729 -0.00293111
v 0.09801063 -0.43523956 -0.00284507
v 0.09894510 -0.42696600 -0.00285990
v 0.09913383 -0.42328610 -0.00280946
v 0.09997623 -0.42017935 -0.00546190
v 0.09987955 -0.41733843 -0.00543223
v 0.09888525 -0.41303550 -0.00271452
v 0.09851699 -0.40870764 -0.00272936
v 0.09770681 -0.40617408 -0.00134083
v 0.09747204 -0.40617408 -0.00078898
v 0.09634884 -0.40617408 0.00109502
v 0.08538843 -0.46758623 -0.01000427
v 0.08679703 -0.46611593 -0.00844663
v 0.08593161 -0.46869104 -0.00695130
v 0.08618940 -0.46917282 -0.00520081
v 0.09777126 -0.40617408 -0.00830125
v 0.09785411 -0.40888209 -0.00896881
v 0.09886683 -0.41745472 -0.00861575
v 0.09757792 -0.41747132 -0.01213749
v 0.09894970 -0.42018765 -0.00862168
v 0.09872874 -0.42337747 -0.00862761
v 0.09842952 -0.42738963 -0.00862761
v 0.09734775 -0.42738963 -0.01142840
v 0.09794618 -0.43070404 -0.00888870
v 0.09918446 -0.43093663 -0.00543223
v 0.09851699 -0.43547215 -0.00536399
v 0.09780348 -0.43964216 -0.00528092
v 0.09741220 -0.44185179 -0.00524235
v 0.09709917 -0.44312272 -0.00521564
v 0.09623836 -0.44568120 -0.00516817
v 0.09159825 -0.45524233 -0.00859794
v 0.08997330 -0.46123155 -0.00649736
v 0.08798467 -0.46586674 -0.00535212
v 0.09025870 -0.45908840 -0.00825378
v 0.09011600 -0.46112355 -0.00399624
v 0.08744609 -0.46582519 -0.00302902
v 0.08617559 -0.46589996 -0.00047449
v 0.08976614 -0.45998552 -0.00178884
v 0.09070982 -0.45895548 -0.00281836
v 0.09273066 -0.45434521 -0.00294594
v 0.09444308 -0.44991769 -0.00304682
v 0.09598978 -0.44558153 -0.00297561
v 0.09779888 -0.43940127 -0.00384492
v 0.09720505 -0.44048946 -0.00284803
v 0.09958494 -0.42718196 -0.00545596
v 0.09983353 -0.42333592 -0.00546487
v 0.09900033 -0.40876579 -0.00536992
v 0.09841571 -0.40617408 -0.00344439
v 0.09829143 -0.40617408 -0.00275606
v 0.09810269 -0.40617408 -0.00727469
v 0.09391831 -0.45245125 -0.00403184
v 0.09391831 -0.45250110 -0.00435523
v 0.09295622 -0.45458610 -0.00516224
v 0.09115174 -0.45915484 -0.00539366
v 0.08946694 -0.46285967 -0.00544706
v 0.09871493 -0.40617408 -0.00534025
f 1 2 3
f 1 3 4
f 1 4 5
f 1 5 6
f 1 6 7
f 1 7 8
f 1 8 9
f 1 9 2
f 2 10 11
f 2 11 3
f 2 9 12
f 2 12 10
f 3 11 13
f 3 13 14
f 3 14 4
f 4 14 15
f 4 15 16
f 4 16 5
f 5 16 17
f 5 17 18
f 5 18 6
f 6 18 19
f 6 19 20
f 6 20 21
f 6 21 7
f 7 21 20
f 7 20 37
f 7 37 36
f 7 36 35
f 7 35 57
f 7 57 89
f 7 89 136
f 7 136 180
f 7 180 236
f 7 236 293
f 7 293 345
f 7 345 344
f 7 344 343
f 7 343 383
f 7 383 382
f 7 382 390
f 7 390 384
f 7 384 350
f 7 350 302
f 7 302 301
f 7 301 300
f 7 300 251
f 7 251 194
f 7 194 146
f 7 146 99
f 7 99 65
f 7 65 41
f 7 41 25
f 7 25 24
f 7 24 12
f 7 12 9
f 7 9 8
f 10 22 23
f 10 23 11
f 10 12 24
f 10 24 25
f 10 25 22
f 11 23 13
f 13 26 27
f 13 27 14
f 13 23 26
f 14 27 15
f 15 27 28
f 15 28 16
f 16 28 29
f 16 29 17
f 17 30 18
f 17 29 31
f 17 31 30
f 18 30 32
f 18 32 19
f 19 32 33
f 19 33 34
f 19 34 35
f 19 35 36
f 19 36 37
f 19 37 20
f 22 38 39
f 22 39 23
f 22 25 38
f 23 39 40
f 23 40 26
f 25 41 42
f 25 42 43
f 25 43 44
f 25 44 45
f 25 45 38
f 26 40 46
f 26 46 47
f 26 47 48
f 26 48 27
f 27 48 49
f 27 49 28
f 28 49 50
f 28 50 29
f 29 50 51
f 29 51 31
f 30 31 52
f 30 52 32
f 31 51 52
f 32 52 53
f 32 53 54
f 32 54 55
f 32 55 33
f 33 55 56
f 33 56 57
f 33 57 35
f 33 35 34
f 38 58 59
f 38 59 60
f 38 60 39
f 38 45 61
f 38 61 58
f 39 62 40
f 39 60 62
f 40 63 46
f 40 62 60
f 40 60 64
f 40 64 63
f 41 65 42
f 42 66 43
f 42 65 66
f 43 66 67
f 43 67 68
f 43 68 69
f 43 69 44
f 44 69 70
f 44 70 45
f 45 71 72
f 45 72 61
f 45 70 71
f 46 63 47
f 47 73 74
f 47 74 75
f 47 75 48
f 47 63 73
f 48 75 76
f 48 76 49
f 49 76 50
f 50 76 77
f 50 77 51
f 51 77 78
f 51 78 79
f 51 79 52
f 52 79 80
f 52 80 53
f 53 80 54
f 54 80 81
f 54 81 82
f 54 82 55
f 55 82 83
f 55 83 84
f 55 84 57
f 55 57 56
f 57 84 85
f 57 85 86
f 57 86 87
f 57 87 88
f 57 88 89
f 58 61 59
f 59 61 90
f 59 90 91
f 59 91 92
f 59 92 93
f 59 93 60
f 60 93 64
f 61 72 94
f 61 94 90
f 63 64 92
f 63 92 95
f 63 95 96
f 63 96 97
f 63 97 98
f 63 98 73
f 64 93 92
f 65 99 100
f 65 100 101
f 65 101 102
f 65 102 103
f 65 103 66
f 66 103 102
f 66 102 104
f 66 104 105
f 66 105 106
f 66 106 107
f 66 107 67
f 67 108 109
f 67 109 68
f 67 107 108
f 68 70 69
f 68 109 110
f 68 110 111
f 68 111 70
f 70 111 71
f 71 111 72
f 72 111 112
f 72 112 113
f 72 113 114
f 72 114 94
f 73 115 74
f 73 98 97
f 73 97 115
f 74 116 75
f 74 115 116
f 75 116 76
f 76 116 77
f 77 116 117
f 77 117 118
f 77 118 119
f 77 119 78
f 78 119 120
f 78 120 121
f 78 121 122
f 78 122 79
f 79 122 123
f 79 123 80
f 80 123 81
f 81 123 122
f 81 122 124
f 81 124 82
f 82 124 125
f 82 125 84
f 82 84 83
f 84 126 85
f 84 125 127
f 84 127 126
f 85 126 128
f 85 128 129
f 85 129 130
f 85 130 86
f 86 130 131
f 86 131 132
f 86 132 133
f 86 133 134
f 86 134 87
f 87 134 88
f 88 134 135
f 88 135 89
f 89 135 136
f 90 94 91
f 91 94 137
f 91 137 95
f 91 95 92
f 94 114 138
f 94 138 139
f 94 139 140
f 94 140 137
f 95 141 96
f 95 137 141
f 96 141 142
f 96 142 143
f 96 143 97
f 97 144 115
f 97 143 145
f 97 145 144
f 99 146 100
f 100 146 147
f 100 147 101
f 101 147 148
f 101 148 149
f 101 149 102
f 102 150 104
f 102 149 148
f 102 148 150
f 104 150 105
f 105 150 151
f 105 151 106
f 106 151 152
f 106 152 108
f 106 108 107
f 108 153 154
f 108 154 155
f 108 155 109
f 108 152 153
f 109 155 110
f 110 155 156
f 110 156 111
f 111 156 112
f 112 156 114
f 112 114 113
f 114 156 155
f 114 155 157
f 114 157 158
f 114 158 159
f 114 159 138
f 115 144 160
f 115 160 116
f 116 160 117
f 117 160 118
f 118 160 161
f 118 161 119
f 119 161 162
f 119 162 120
f 120 122 121
f 120 162 163
f 120 163 164
f 120 164 122
f 122 164 165
f 122 165 166
f 122 166 124
f 124 167 168
f 124 168 125
f 124 166 165
f 124 165 167
f 125 168 127
f 126 127 169
f 126 169 170
f 126 170 171
f 126 171 172
f 126 172 128
f 127 168 173
f 127 173 169
f 128 172 174
f 128 174 175
f 128 175 176
f 128 176 129
f 129 176 130
f 130 176 132
f 130 132 131
f 132 176 177
f 132 177 133
f 133 177 178
f 133 178 134
f 134 178 135
f 135 179 136
f 135 178 179
f 136 179 180
f 137 140 181
f 137 181 182
f 137 182 183
f 137 183 141
f 138 184 139
f 138 159 184
f 139 181 140
f 139 184 181
f 141 185 142
f 141 183 185
f 142 185 143
f 143 186 187
f 143 187 145
f 143 185 188
f 143 188 189
f 143 189 190
f 143 190 186
f 144 145 191
f 144 191 160
f 145 187 186
f 145 186 192
f 145 192 193
f 145 193 191
f 146 194 147
f 147 195 196
f 147 196 148
f 147 194 197
f 147 197 195
f 148 196 150
f 150 198 151
f 150 196 198
f 151 198 199
f 151 199 200
f 151 200 152
f 152 200 199
f 152 199 201
f 152 201 202
f 152 202 153
f 153 202 203
f 153 203 204
f 153 204 154
f 154 204 205
f 154 205 206
f 154 206 155
f 155 206 207
f 155 207 157
f 157 207 158
f 158 207 208
f 158 208 159
f 159 208 209
f 159 209 184
f 160 191 161
f 161 191 193
f 161 193 210
f 161 210 211
f 161 211 162
f 162 211 210
f 162 210 212
f 162 212 213
f 162 213 163
f 163 213 212
f 163 212 214
f 163 214 215
f 163 215 216
f 163 216 217
f 163 217 218
f 163 218 219
f 163 219 165
f 163 165 164
f 165 219 167
f 167 219 168
f 168 219 220
f 168 220 173
f 169 221 222
f 169 222 223
f 169 223 170
f 169 173 221
f 170 223 171
f 171 224 225
f 171 225 226
f 171 226 172
f 171 223 227
f 171 227 224
f 172 226 174
f 173 220 228
f 173 228 221
f 174 229 230
f 174 230 175
f 174 226 225
f 174 225 229
f 175 230 176
f 176 230 231
f 176 231 177
f 177 232 233
f 177 233 178
f 177 231 232
f 178 233 234
f 178 234 235
f 178 235 236
f 178 236 180
f 178 180 179
f 181 184 237
f 181 237 238
f 181 238 239
f 181 239 182
f 182 239 183
f 183 240 188
f 183 188 185
f 183 239 240
f 184 241 237
f 184 209 242
f 184 242 241
f 186 190 243
f 186 243 244
f 186 244 192
f 188 240 189
f 189 245 246
f 189 246 247
f 189 247 190
f 189 240 248
f 189 248 245
f 190 247 249
f 190 249 250
f 190 250 243
f 192 210 193
f 192 244 210
f 194 251 252
f 194 252 195
f 194 195 197
f 195 253 196
f 195 252 253
f 196 253 254
f 196 254 198
f 198 254 255
f 198 255 256
f 198 256 199
f 199 256 257
f 199 257 201
f 201 258 202
f 201 257 259
f 201 259 258
f 202 258 203
f 203 260 261
f 203 261 204
f 203 258 260
f 204 261 205
f 205 261 207
f 205 207 206
f 207 261 208
f 208 261 262
f 208 262 263
f 208 263 264
f 208 264 209
f 209 265 266
f 209 266 242
f 209 264 267
f 209 267 265
f 210 244 243
f 210 243 215
f 210 215 268
f 210 268 212
f 212 268 215
f 212 215 214
f 215 269 216
f 215 243 270
f 215 270 271
f 215 271 272
f 215 272 269
f 216 269 273
f 216 273 217
f 217 274 218
f 217 273 275
f 217 275 274
f 218 274 220
f 218 220 219
f 220 274 228
f 221 228 276
f 221 276 222
f 222 277 278
f 222 278 223
f 222 276 279
f 222 279 277
f 223 278 227
f 224 227 280
f 224 280 281
f 224 281 282
f 224 282 225
f 225 282 283
f 225 283 229
f 227 278 280
f 228 284 276
f 228 274 284
f 229 283 285
f 229 285 286
f 229 286 230
f 230 287 288
f 230 288 231
f 230 286 287
f 231 288 232
f 232 288 289
f 232 289 233
f 233 289 290
f 233 290 234
f 234 291 292
f 234 292 235
f 234 290 291
f 235 292 236
f 236 292 293
f 237 241 294
f 237 294 239
f 237 239 238
f 239 294 295
f 239 295 248
f 239 248 240
f 241 296 295
f 241 295 294
f 241 242 266
f 241 266 296
f 243 250 270
f 245 248 246
f 246 248 297
f 246 297 298
f 246 298 299
f 246 299 247
f 247 299 249
f 248 295 297
f 249 270 250
f 249 299 270
f 251 300 252
f 252 300 301
f 252 301 302
f 252 302 303
f 252 303 304
f 252 304 305
f 252 305 253
f 253 305 254
f 254 305 255
f 255 306 307
f 255 307 256
f 255 305 306
f 256 307 308
f 256 308 309
f 256 309 257
f 257 309 310
f 257 310 259
f 258 259 310
f 258 310 311
f 258 311 312
f 258 312 313
f 258 313 260
f 260 313 314
f 260 314 261
f 261 314 262
f 262 314 315
f 262 315 263
f 263 315 264
f 264 315 267
f 265 316 317
f 265 317 266
f 265 267 318
f 265 318 316
f 266 317 296
f 267 315 319
f 267 319 318
f 269 272 320
f 269 320 273
f 270 299 298
f 270 298 321
f 270 321 322
f 270 322 272
f 270 272 271
f 272 322 320
f 273 320 275
f 274 275 284
f 275 320 323
f 275 323 324
f 275 324 279
f 275 279 284
f 276 284 279
f 277 279 325
f 277 325 326
f 277 326 327
f 277 327 328
f 277 328 329
f 277 329 278
f 278 329 330
f 278 330 280
f 279 324 331
f 279 331 332
f 279 332 325
f 280 330 281
f 281 330 329
f 281 329 333
f 281 333 282
f 282 334 285
f 282 285 283
f 282 333 334
f 285 335 286
f 285 334 336
f 285 336 335
f 286 335 337
f 286 337 287
f 287 337 338
f 287 338 288
f 288 338 289
f 289 338 339
f 289 339 290
f 290 339 340
f 290 340 341
f 290 341 291
f 291 341 342
f 291 342 343
f 291 343 344
f 291 344 345
f 291 345 293
f 291 293 292
f 295 296 346
f 295 346 297
f 296 317 346
f 297 346 347
f 297 347 348
f 297 348 298
f 298 348 349
f 298 349 321
f 302 350 351
f 302 351 303
f 303 351 352
f 303 352 304
f 304 352 353
f 304 353 305
f 305 353 306
f 306 354 355
f 306 355 356
f 306 356 357
f 306 357 307
f 306 353 354
f 307 357 308
f 308 358 310
f 308 310 309
f 308 357 356
f 308 356 358
f 310 359 360
f 310 360 311
f 310 358 359
f 311 360 312
f 312 360 361
f 312 361 362
f 312 362 313
f 313 362 363
f 313 363 314
f 314 363 364
f 314 364 365
f 314 365 319
f 314 319 315
f 316 318 366
f 316 366 367
f 316 367 347
f 316 347 317
f 317 347 346
f 318 368 366
f 318 319 368
f 319 365 368
f 320 321 323
f 320 322 321
f 321 349 367
f 321 367 369
f 321 369 370
f 321 370 331
f 321 331 323
f 323 331 324
f 325 332 371
f 325 371 331
f 325 331 326
f 326 331 372
f 326 372 373
f 326 373 374
f 326 374 327
f 327 375 376
f 327 376 328
f 327 374 375
f 328 376 329
f 329 376 333
f 331 370 372
f 331 371 332
f 333 376 363
f 333 363 362
f 333 362 377
f 333 377 378
f 333 378 334
f 334 378 377
f 334 377 336
f 335 336 377
f 335 377 359
f 335 359 379
f 335 379 337
f 337 379 380
f 337 380 338
f 338 380 339
f 339 380 354
f 339 354 352
f 339 352 340
f 340 352 351
f 340 351 381
f 340 381 382
f 340 382 383
f 340 383 342
f 340 342 341
f 342 383 343
f 347 367 348
f 348 367 349
f 350 384 351
f 351 384 381
f 352 354 353
f 354 380 379
f 354 379 355
f 355 379 356
f 356 379 359
f 356 359 358
f 359 377 360
f 360 377 361
f 361 377 362
f 363 376 385
f 363 385 386
f 363 386 364
f 364 386 387
f 364 387 365
f 365 387 368
f 366 368 388
f 366 388 389
f 366 389 367
f 367 389 369
f 368 387 388
f 369 373 370
f 369 389 388
f 369 388 385
f 369 385 373
f 370 373 372
f 373 385 374
f 374 385 375
f 375 385 376
f 381 384 390
f 381 390 382
f 385 388 386
f 386 388 387

