# https://github.com/mikedh/trimesh
v -0.31448464 0.00524897 -0.01820855
v -0.31447069 0.00524897 -0.01884818
v -0.31448464 0.00524897 -0.00331547
v -0.31448464 0.13964844 -0.02503544
v -0.31326456 0.00524897 -0.02116687
v -0.31433824 0.00524897 -0.00105521
v -0.31448464 0.13945882 0.00271495
v -0.31190505 0.00524897 -0.02224318
v -0.31318090 0.00524897 -0.02131755
v -0.31448464 0.14152358 -0.02507234
v -0.31058736 0.14245062 -0.02572428
v -0.31354344 0.00524897 0.00068226
v -0.31175865 0.00524897 0.00121426
v -0.31129153 0.00524897 0.00134342
v -0.30651579 0.00524897 0.00142030
v -0.26232798 0.22049039 0.00422486
v -0.31448464 0.14158679 0.00256427
v -0.31047580 0.00524897 -0.02243999
v -0.31448464 0.14171321 -0.02497086
v -0.26234193 0.22049039 -0.02321493
v -0.27387341 0.16813379 -0.02713271
v -0.27387341 0.16708034 -0.02717268
v -0.27356666 0.16708034 -0.02718498
v -0.31030848 0.00524897 -0.02245844
v -0.30194222 0.00524897 0.00110048
v -0.25960197 0.20902883 0.00392350
v -0.25965776 0.21313729 0.00400960
v -0.25979719 0.21724575 0.00404343
v -0.25997846 0.22049039 0.00404650
v -0.26451716 0.22049039 0.00383124
v -0.26478209 0.22049039 0.00377589
v -0.26667146 0.22049039 0.00189388
v -0.26675513 0.22049039 0.00180777
v -0.26776607 0.22049039 0.00036244
v -0.31448464 0.14329339 0.00092827
v -0.31448464 0.14217673 -0.02302427
v -0.26777999 0.22049039 -0.01051138
v -0.26715951 0.22049039 -0.01287004
v -0.26412672 0.22049039 -0.02170502
v -0.26006212 0.22049039 -0.02225855
v -0.26058501 0.21966869 -0.02312268
v -0.24326686 0.19168899 -0.02414671
v -0.26747324 0.18602142 -0.02570583
v -0.27356666 0.16813379 -0.02714808
v -0.24326686 0.18802298 -0.02432815
v -0.24452180 0.18248181 -0.02448190
v -0.24846788 0.17748845 -0.02479557
v -0.30287647 0.00524897 -0.02238464
v -0.30558851 0.00524897 -0.02251379
v -0.30597198 0.00524897 -0.02252917
v -0.30040144 0.00524897 0.00064843
v -0.24326686 0.17363281 0.00124194
v -0.24326686 0.17698279 0.00136495
v -0.24326686 0.18231326 0.00146335
v -0.24326686 0.18897109 0.00154331
v -0.24326686 0.19615563 0.00124809
v -0.24326686 0.19918957 0.00065766
v -0.24326686 0.20108579 0.00009490
v -0.24326686 0.20127542 0.00001495
v -0.25965079 0.22049039 0.00376359
v -0.24326686 0.19274245 0.00150641
v -0.26807281 0.22049039 -0.00124588
v -0.31448464 0.14341979 -0.00101216
v -0.26831682 0.22049039 -0.00492379
v -0.31448464 0.14223993 -0.02269830
v -0.26802402 0.22049039 -0.00868780
v -0.26796126 0.22049039 -0.00917060
v -0.25960197 0.22049039 -0.02162507
v -0.24326686 0.19984273 -0.02066561
v -0.24326686 0.19838895 -0.02208327
v -0.24326686 0.19737764 -0.02277518
v -0.24326686 0.19687198 -0.02295354
v -0.24326686 0.19493363 -0.02354705
v -0.24326686 0.18258716 -0.02428202
v -0.24326686 0.17868939 -0.02404523
v -0.24431264 0.17738312 -0.02413749
v -0.30153089 0.00524897 -0.02198794
v -0.24326686 0.17759380 -0.02393145
v -0.30002495 0.00524897 0.00053773
v -0.24326686 0.17232653 0.00109741
v -0.24326686 0.20315054 -0.00170100
v -0.25669471 0.22049039 0.00042394
v -0.25700146 0.22049039 0.00082987
v -0.25791479 0.22049039 0.00193693
v -0.26831682 0.22049039 -0.00500682
v -0.25761499 0.22049039 -0.01735980
v -0.24326686 0.20152824 -0.01831003
v -0.30133567 0.00524897 -0.02192336
v -0.24326686 0.17618216 -0.02367928
v -0.29929292 0.00524897 -0.00102139
v -0.24326686 0.16878694 0.00047007
v -0.24326686 0.16929259 0.00059923
v -0.24326686 0.20334017 -0.00234679
v -0.25623456 0.22049039 -0.00124895
v -0.25622061 0.22049039 -0.01306993
v -0.24326686 0.20197069 -0.01735672
v -0.30109166 0.00524897 -0.02178498
v -0.24326686 0.17327464 -0.02303042
v -0.29952298 0.00524897 -0.02086242
v -0.29923015 0.00524897 -0.00167640
v -0.24326686 0.16733318 -0.00138118
v -0.24326686 0.20384584 -0.00467162
v -0.25571864 0.22049039 -0.00529588
v -0.25573259 0.22049039 -0.00971184
v -0.24326686 0.20315054 -0.01364499
v -0.24326686 0.20239206 -0.01606822
v -0.24326686 0.17156804 -0.02216015
v -0.29942537 0.00524897 -0.02054568
v -0.24326686 0.17135736 -0.02202176
v -0.24326686 0.17108347 -0.02181265
v -0.24326686 0.16965077 -0.02054260
v -0.29893038 0.00524897 -0.00482846
v -0.24326686 0.16724890 -0.00170408
v -0.24326686 0.20367729 -0.00921058
v -0.25572562 0.22049039 -0.00879543
v -0.24326686 0.20327696 -0.01269168
v -0.29879095 0.00524897 -0.01843303
v -0.24326686 0.16878694 -0.01876823
v -0.29889551 0.00524897 -0.00566490
v -0.29858876 0.00524897 -0.01444761
v -0.24326686 0.16726997 -0.00234064
v -0.29872818 0.00524897 -0.00981639
v -0.29861663 0.00524897 -0.01505649
v -0.24326686 0.16849196 -0.01805479
v -0.24326686 0.16792311 -0.01422004
f 1 2 5
f 1 5 9
f 1 9 8
f 1 8 18
f 1 18 24
f 1 24 50
f 1 50 49
f 1 49 48
f 1 48 77
f 1 77 88
f 1 88 97
f 1 97 99
f 1 99 108
f 1 108 117
f 1 117 123
f 1 123 120
f 1 120 122
f 1 122 119
f 1 119 112
f 1 112 100
f 1 100 90
f 1 90 79
f 1 79 51
f 1 51 25
f 1 25 15
f 1 15 14
f 1 14 13
f 1 13 12
f 1 12 6
f 1 6 3
f 1 3 7
f 1 7 17
f 1 17 35
f 1 35 63
f 1 63 65
f 1 65 36
f 1 36 19
f 1 19 10
f 1 10 4
f 1 4 2
f 2 4 5
f 3 6 7
f 4 8 9
f 4 9 5
f 4 10 11
f 4 11 8
f 6 12 7
f 7 12 13
f 7 13 14
f 7 14 15
f 7 15 16
f 7 16 17
f 8 11 18
f 10 19 20
f 10 20 11
f 11 20 21
f 11 21 22
f 11 22 23
f 11 23 24
f 11 24 18
f 15 25 26
f 15 26 27
f 15 27 16
f 16 27 28
f 16 28 29
f 16 29 60
f 16 60 84
f 16 84 83
f 16 83 82
f 16 82 94
f 16 94 103
f 16 103 115
f 16 115 104
f 16 104 95
f 16 95 86
f 16 86 68
f 16 68 40
f 16 40 20
f 16 20 39
f 16 39 38
f 16 38 37
f 16 37 67
f 16 67 66
f 16 66 85
f 16 85 64
f 16 64 62
f 16 62 34
f 16 34 33
f 16 33 32
f 16 32 31
f 16 31 30
f 16 30 17
f 17 30 31
f 17 31 32
f 17 32 33
f 17 33 34
f 17 34 35
f 19 36 37
f 19 37 38
f 19 38 39
f 19 39 20
f 20 40 41
f 20 41 42
f 20 42 43
f 20 43 44
f 20 44 21
f 21 44 22
f 22 44 23
f 23 44 45
f 23 45 46
f 23 46 47
f 23 47 48
f 23 48 49
f 23 49 50
f 23 50 24
f 25 51 52
f 25 52 53
f 25 53 26
f 26 53 27
f 27 53 54
f 27 54 55
f 27 55 28
f 28 55 29
f 29 56 57
f 29 57 58
f 29 58 59
f 29 59 60
f 29 55 61
f 29 61 56
f 34 62 35
f 35 62 64
f 35 64 63
f 36 65 66
f 36 66 67
f 36 67 37
f 40 68 69
f 40 69 70
f 40 70 71
f 40 71 41
f 41 71 72
f 41 72 73
f 41 73 42
f 42 73 72
f 42 72 71
f 42 71 70
f 42 70 69
f 42 69 87
f 42 87 96
f 42 96 106
f 42 106 105
f 42 105 116
f 42 116 114
f 42 114 102
f 42 102 93
f 42 93 81
f 42 81 59
f 42 59 58
f 42 58 57
f 42 57 56
f 42 56 61
f 42 61 55
f 42 55 54
f 42 54 53
f 42 53 52
f 42 52 80
f 42 80 92
f 42 92 91
f 42 91 101
f 42 101 113
f 42 113 121
f 42 121 125
f 42 125 124
f 42 124 118
f 42 118 111
f 42 111 110
f 42 110 109
f 42 109 107
f 42 107 98
f 42 98 89
f 42 89 78
f 42 78 75
f 42 75 74
f 42 74 45
f 42 45 44
f 42 44 43
f 45 74 46
f 46 74 75
f 46 75 76
f 46 76 47
f 47 76 48
f 48 76 75
f 48 75 78
f 48 78 77
f 51 79 52
f 52 79 80
f 59 81 82
f 59 82 83
f 59 83 84
f 59 84 60
f 63 64 85
f 63 85 65
f 65 85 66
f 68 86 87
f 68 87 69
f 77 78 88
f 78 89 88
f 79 90 91
f 79 91 92
f 79 92 80
f 81 93 94
f 81 94 82
f 86 95 96
f 86 96 87
f 88 89 97
f 89 98 99
f 89 99 97
f 90 100 101
f 90 101 91
f 93 102 94
f 94 102 103
f 95 104 105
f 95 105 106
f 95 106 96
f 98 107 99
f 99 107 109
f 99 109 110
f 99 110 111
f 99 111 108
f 100 112 101
f 101 112 113
f 102 114 104
f 102 104 115
f 102 115 103
f 104 114 116
f 104 116 105
f 108 111 117
f 111 118 117
f 112 119 113
f 113 120 121
f 113 119 122
f 113 122 120
f 117 118 124
f 117 124 123
f 120 123 125
f 120 125 121
f 123 124 125

