# https://github.com/mikedh/trimesh
v 0.03438375 -0.33916733 -0.00480795
v 0.03440264 -0.33916733 -0.00472197
v 0.03470490 -0.33916733 -0.00844024
v 0.08473614 -0.40617408 -0.02203535
v 0.08453463 -0.40617408 -0.01838232
v 0.08469205 -0.40617408 -0.01371224
v 0.08473614 -0.40617408 -0.01243130
v 0.08487467 -0.40617408 -0.00947803
v 0.08522101 -0.40617408 -0.00537726
v 0.08581296 -0.40617408 -0.00086730
v 0.08675754 -0.40617408 0.00367232
v 0.03518349 -0.33916733 -0.00165602
v 0.03471120 -0.33916733 -0.00849361
v 0.08554217 -0.40617408 -0.02286263
v 0.03633588 -0.33916733 -0.01273374
v 0.03698449 -0.33916733 -0.01395538
v 0.03877919 -0.33916733 -0.01665958
v 0.03918221 -0.33916733 -0.01726446
v 0.04079429 -0.33916733 -0.01941418
v 0.04262048 -0.33916733 -0.02171512
v 0.08726131 -0.40617408 0.00526459
v 0.03533462 -0.33916733 -0.00125276
v 0.08617189 -0.40617408 -0.02342600
v 0.04410662 -0.33916733 -0.02305536
v 0.08744393 -0.40617408 0.00573011
v 0.03723637 -0.33916733 0.00203260
v 0.08739355 -0.40617408 -0.02349123
v 0.04497563 -0.33916733 -0.02347344
v 0.04586354 -0.33916733 -0.02356240
v 0.08875375 -0.40617408 0.00628459
v 0.03915072 -0.33916733 0.00352406
v 0.03894921 -0.33916733 0.00341731
v 0.03746307 -0.33916733 0.00237952
v 0.08877264 -0.40617408 -0.02356240
v 0.04735597 -0.33916733 -0.02363356
v 0.09173862 -0.40617408 0.00589913
v 0.08880412 -0.40459320 0.00637948
v 0.04330688 -0.33916733 0.00416156
v 0.08874115 -0.40409467 -0.02359205
v 0.08975500 -0.40617408 -0.02344083
v 0.07327523 -0.36461874 -0.02387077
v 0.04893027 -0.33916733 -0.02338449
v 0.05265191 -0.34128612 -0.02339931
v 0.06880422 -0.35730474 -0.02365135
v 0.09233055 -0.40617408 0.00557000
v 0.09173862 -0.40522291 0.00583686
v 0.08859632 -0.39668882 0.00633204
v 0.08872856 -0.40066396 0.00642099
v 0.05358390 -0.34492670 0.00508668
v 0.04973002 -0.34154193 0.00481982
v 0.04670106 -0.33916733 0.00441063
v 0.08855224 -0.40032944 -0.02359205
v 0.09059883 -0.40445545 -0.02333408
v 0.09069958 -0.40617408 -0.02331333
v 0.07253217 -0.36143075 -0.02361873
v 0.07688353 -0.36859388 -0.02372548
v 0.05199701 -0.33916733 -0.02277071
v 0.05565568 -0.34207326 -0.02264914
v 0.06410022 -0.35004323 -0.02272030
v 0.06492515 -0.35327057 -0.02356536
v 0.07171983 -0.35829526 -0.02283594
v 0.06801707 -0.35412331 -0.02280925
v 0.09403079 -0.40617408 0.00453220
v 0.09171343 -0.40133305 0.00548697
v 0.08842629 -0.39245787 0.00605628
v 0.08461649 -0.38389754 0.00605035
v 0.07653088 -0.36841679 0.00579831
v 0.06472365 -0.35305410 0.00531500
v 0.06059268 -0.34928886 0.00518453
v 0.05660655 -0.34532029 0.00488209
v 0.05296677 -0.34169280 0.00456778
v 0.04927032 -0.33916733 0.00414377
v 0.08827516 -0.39666260 -0.02351792
v 0.09016432 -0.40072956 -0.02331036
v 0.09187086 -0.40464567 -0.02172105
v 0.09207237 -0.40617408 -0.02163803
v 0.07474248 -0.36206049 -0.02285077
v 0.07639235 -0.36530751 -0.02321548
v 0.08030291 -0.37277239 -0.02338745
v 0.08451573 -0.38452069 -0.02346455
v 0.05213554 -0.33916733 -0.02272030
v 0.05389876 -0.33995451 -0.02240303
v 0.06251333 -0.34770145 -0.02236745
v 0.06647426 -0.35157162 -0.02239414
v 0.07369085 -0.35999420 -0.02253646
v 0.07017072 -0.35567794 -0.02247716
v 0.09447160 -0.40617408 0.00391249
v 0.09401191 -0.40540003 0.00446697
v 0.09119076 -0.39297609 0.00474273
v 0.08823737 -0.38832530 0.00561447
v 0.08413161 -0.38034221 0.00575680
v 0.08002583 -0.37246408 0.00569750
v 0.07602082 -0.36506480 0.00531796
v 0.07238733 -0.36106997 0.00535651
v 0.06867828 -0.35704893 0.00538616
v 0.06840120 -0.35312626 0.00429203
v 0.06446546 -0.34917080 0.00418825
v 0.06012039 -0.34530060 0.00402517
v 0.05611537 -0.34162065 0.00375830
v 0.05476147 -0.33960029 0.00330760
v 0.05305493 -0.33916733 0.00352999
v 0.05258894 -0.33916733 0.00363673
v 0.08810513 -0.39298262 -0.02326588
v 0.08964165 -0.39708897 -0.02319769
v 0.09125373 -0.40080827 -0.02171216
v 0.09263282 -0.40617408 -0.02078704
v 0.07728655 -0.36437603 -0.02236745
v 0.07836967 -0.36667847 -0.02272030
v 0.07978654 -0.36957784 -0.02289228
v 0.08224874 -0.37348082 -0.02265803
v 0.08336334 -0.37718703 -0.02290710
v 0.08651194 -0.38540624 -0.02291600
v 0.08724242 -0.38904685 -0.02313838
v 0.05326904 -0.33916733 -0.02200570
v 0.05476777 -0.33925261 -0.02085227
v 0.05753224 -0.34000698 -0.01927482
v 0.06196547 -0.34378534 -0.01947645
v 0.06079419 -0.34491357 -0.02146902
v 0.05813677 -0.34368037 -0.02234373
v 0.06503850 -0.34896090 -0.02156686
v 0.07260774 -0.35725883 -0.02131186
v 0.06895536 -0.35306066 -0.02145419
v 0.09597663 -0.40617408 0.00170643
v 0.09594514 -0.40536066 0.00162638
v 0.09370964 -0.40159545 0.00413784
v 0.09343256 -0.39892567 0.00387691
v 0.09063661 -0.38877792 0.00440174
v 0.08830664 -0.38456006 0.00479610
v 0.08726761 -0.38086698 0.00451738
v 0.08383563 -0.37663600 0.00511337
v 0.07976135 -0.36883003 0.00500959
v 0.07959132 -0.36541245 0.00401627
v 0.07583189 -0.36129956 0.00420011
v 0.07224249 -0.35723258 0.00427127
v 0.07100195 -0.35441852 0.00377906
v 0.06707880 -0.35022689 0.00370197
v 0.06322491 -0.34663221 0.00362487
v 0.05869093 -0.34272266 0.00343807
v 0.05716071 -0.34036119 0.00265824
v 0.05647431 -0.33916733 0.00188138
v 0.05523377 -0.33916733 0.00260190
v 0.05445921 -0.33916733 0.00304074
v 0.06142391 -0.34374596 0.00285097
v 0.08930161 -0.39470125 -0.02306129
v 0.09265801 -0.40087387 -0.01884784
v 0.09294138 -0.40476376 -0.01975517
v 0.09301695 -0.40617408 -0.02006354
v 0.09052326 -0.39705616 -0.02164099
v 0.07646162 -0.36199490 -0.02116064
v 0.07809259 -0.36325435 -0.02022366
v 0.08070593 -0.36878413 -0.02167657
v 0.08150567 -0.37121776 -0.02241786
v 0.08520213 -0.37973215 -0.02234373
v 0.08581925 -0.38231665 -0.02264617
v 0.08892377 -0.39203804 -0.02266396
v 0.05462294 -0.33916733 -0.02086116
v 0.05471740 -0.33916733 -0.02076628
v 0.05689622 -0.33916733 -0.01852168
v 0.05848942 -0.33916733 -0.01630080
v 0.05852720 -0.33918702 -0.01628597
v 0.05977405 -0.34081381 -0.01748388
v 0.06275262 -0.34304410 -0.01700946
v 0.06472365 -0.34486111 -0.01692051
v 0.06609643 -0.34789166 -0.01943197
v 0.07416944 -0.35834772 -0.02048459
v 0.07122235 -0.35449721 -0.02024738
v 0.07342637 -0.35592722 -0.01905243
v 0.06983067 -0.35179465 -0.01918883
v 0.09634816 -0.40617408 0.00109562
v 0.09742499 -0.40529509 -0.00086137
v 0.09727385 -0.40339934 -0.00107782
v 0.09586328 -0.40189063 0.00084358
v 0.09747536 -0.40617408 -0.00079020
v 0.09313660 -0.39607877 0.00353295
v 0.09282174 -0.39308759 0.00304371
v 0.09019580 -0.38596383 0.00405482
v 0.08641749 -0.37691150 0.00395104
v 0.08382304 -0.37317251 0.00427127
v 0.08974241 -0.38342523 0.00363970
v 0.08233690 -0.36902681 0.00388284
v 0.08171348 -0.36684247 0.00349737
v 0.07826261 -0.36268364 0.00365156
v 0.07452838 -0.35840022 0.00373162
v 0.07352082 -0.35594035 0.00317417
v 0.06971102 -0.35161753 0.00312970
v 0.06580047 -0.34768832 0.00311784
v 0.05901838 -0.33916733 0.00024759
v 0.05875390 -0.33916733 0.00042846
v 0.06015188 -0.34129268 0.00148405
v 0.06388611 -0.34262429 0.00004596
v 0.06426395 -0.34532685 0.00220458
v 0.08969833 -0.39325158 -0.02167064
v 0.09515170 -0.40114939 -0.01327043
v 0.09240612 -0.39698401 -0.01759952
v 0.09287841 -0.39281865 -0.01463439
v 0.09347035 -0.39833530 -0.01587085
v 0.09571845 -0.40487526 -0.01329415
v 0.09637965 -0.40617408 -0.01208735
v 0.07710393 -0.36034186 -0.01863732
v 0.08059258 -0.36503855 -0.01794051
v 0.08135454 -0.36759683 -0.01950610
v 0.08197167 -0.36998452 -0.02061209
v 0.08389861 -0.37397279 -0.02051424
v 0.08478022 -0.37769212 -0.02169733
v 0.08559255 -0.37769212 -0.02016732
v 0.08639859 -0.38133270 -0.02120215
v 0.08807994 -0.38580639 -0.02099163
v 0.08856483 -0.38942075 -0.02207983
v 0.08933309 -0.38938794 -0.02065360
v 0.05857758 -0.33916733 -0.01615550
v 0.06130426 -0.34013160 -0.01374485
v 0.06049193 -0.33916733 -0.01291165
v 0.06550449 -0.34408708 -0.01423114
v 0.06951581 -0.34831147 -0.01454544
v 0.06693396 -0.34705202 -0.01681969
v 0.06885460 -0.34903305 -0.01676039
v 0.07052965 -0.35089597 -0.01674260
v 0.07245660 -0.35319841 -0.01679301
v 0.07399311 -0.35509414 -0.01688493
v 0.07609638 -0.35788201 -0.01706876
v 0.09821214 -0.40525572 -0.00276498
v 0.09770836 -0.40617408 -0.00134172
v 0.09765168 -0.40194310 -0.00266120
v 0.09701567 -0.40075581 -0.00154335
v 0.09435825 -0.39308102 0.00053224
v 0.09457865 -0.39750878 0.00162045
v 0.09391115 -0.38905998 -0.00035137
v 0.09232425 -0.38892876 0.00215120
v 0.08593260 -0.37475996 0.00358633
v 0.09168194 -0.38509793 0.00136248
v 0.09090109 -0.38110314 0.00065974
v 0.08920714 -0.38100473 0.00307336
v 0.08325000 -0.36575357 0.00092660
v 0.08073742 -0.36438259 0.00283318
v 0.08520213 -0.37223449 0.00301406
v 0.08428903 -0.36923019 0.00216306
v 0.07708504 -0.35996795 0.00297254
v 0.07207247 -0.35325088 0.00237062
v 0.07572484 -0.35736380 0.00226388
v 0.07157499 -0.34994483 0.00009340
v 0.06816191 -0.34919046 0.00247144
v 0.06745663 -0.34587128 0.00013788
v 0.06588233 -0.34350328 -0.00074276
v 0.05937102 -0.33916733 -0.00006078
v 0.06156875 -0.33988892 -0.00121422
v 0.09662524 -0.40145114 -0.00960553
v 0.09694010 -0.40503269 -0.01041798
v 0.09423230 -0.39704960 -0.01354322
v 0.09386707 -0.39280553 -0.01240165
v 0.09241872 -0.38916491 -0.01392276
v 0.09344516 -0.38926988 -0.01171078
v 0.09701567 -0.40617408 -0.01057513
v 0.07784070 -0.35917425 -0.01567812
v 0.07921349 -0.36206049 -0.01681969
v 0.08131046 -0.36381847 -0.01499317
v 0.08192758 -0.36615369 -0.01660917
v 0.08383563 -0.36602907 -0.01256473
v 0.08527769 -0.36734099 -0.01118298
v 0.08465427 -0.36863982 -0.01396131
v 0.08393010 -0.36990580 -0.01674260
v 0.08463538 -0.37282486 -0.01815993
v 0.08515175 -0.37544871 -0.01938453
v 0.08870966 -0.38462566 -0.01902871
v 0.08906860 -0.38719047 -0.02003389
v 0.06212920 -0.33951501 -0.01065519
v 0.06379166 -0.34175839 -0.01245799
v 0.06136723 -0.33916733 -0.01124525
v 0.06625386 -0.34345078 -0.01120374
v 0.06787854 -0.34587128 -0.01289683
v 0.07020220 -0.34763585 -0.01161886
v 0.07168204 -0.34991861 -0.01286718
v 0.07316189 -0.35228661 -0.01411253
v 0.07677648 -0.35653728 -0.01375671
v 0.09829400 -0.40617408 -0.00275609
v 0.09841365 -0.40617408 -0.00344400
v 0.09860886 -0.40521635 -0.00532982
v 0.09729904 -0.39833530 -0.00364266
v 0.09669451 -0.39708897 -0.00268492
v 0.09591995 -0.39310071 -0.00278870
v 0.09509502 -0.38934860 -0.00275905
v 0.09360888 -0.38682969 -0.00094143
v 0.08829405 -0.37700990 0.00192289
v 0.09005727 -0.37707550 -0.00043142
v 0.09311771 -0.38427144 -0.00152259
v 0.08636081 -0.36947287 -0.00019125
v 0.08559255 -0.36707862 -0.00098590
v 0.08215428 -0.36248686 -0.00028317
v 0.07853969 -0.35779673 -0.00016753
v 0.08749431 -0.37367760 0.00095626
v 0.07529034 -0.35403149 -0.00003706
v 0.07381050 -0.35142075 -0.00081986
v 0.07012663 -0.34755713 -0.00063305
v 0.06652464 -0.34316216 -0.00273236
v 0.06376017 -0.34094500 -0.00261079
v 0.06846418 -0.34490048 -0.00277091
v 0.06090754 -0.33916733 -0.00181910
v 0.06245665 -0.33935102 -0.00382057
v 0.09799174 -0.40168726 -0.00527644
v 0.09773985 -0.40513110 -0.00804588
v 0.09452828 -0.38938794 -0.00857070
v 0.09522097 -0.39289737 -0.00860332
v 0.09313030 -0.38722981 -0.01124822
v 0.09777133 -0.40617408 -0.00830088
v 0.08096411 -0.36010570 -0.01022228
v 0.08040366 -0.36083382 -0.01263293
v 0.08188980 -0.36296573 -0.01257363
v 0.08594519 -0.36988615 -0.01260031
v 0.08451573 -0.36485490 -0.00925565
v 0.08562404 -0.36610779 -0.00805774
v 0.08783435 -0.37016164 -0.00812297
v 0.08862780 -0.37275927 -0.00937129
v 0.08532807 -0.37117838 -0.01523038
v 0.08570590 -0.37387441 -0.01685231
v 0.08848296 -0.37737724 -0.01385456
v 0.08700942 -0.37753468 -0.01712510
v 0.08832554 -0.38137863 -0.01737121
v 0.08779027 -0.37375632 -0.01235421
v 0.09194013 -0.38575392 -0.01282270
v 0.08976130 -0.38575392 -0.01754911
v 0.08938976 -0.38255937 -0.01603097
v 0.06260148 -0.33922639 -0.00846692
v 0.06448435 -0.34085318 -0.00842838
v 0.06178285 -0.33916733 -0.01033792
v 0.06680802 -0.34301128 -0.00837797
v 0.06871607 -0.34488736 -0.00834535
v 0.07079414 -0.34704548 -0.00831867
v 0.07272108 -0.34915112 -0.00828902
v 0.07380420 -0.35152571 -0.01120967
v 0.07527774 -0.35397900 -0.01246688
v 0.07741879 -0.35575010 -0.01079159
v 0.09870962 -0.40617408 -0.00533871
v 0.09810508 -0.40617408 -0.00727494
v 0.09554212 -0.38953882 -0.00529424
v 0.09338218 -0.38257249 -0.00353888
v 0.09403709 -0.38578671 -0.00263155
v 0.09251947 -0.38109657 -0.00254260
v 0.09114668 -0.37719359 -0.00259597
v 0.08960387 -0.37502234 -0.00108968
v 0.08898674 -0.37270024 -0.00194067
v 0.08591371 -0.36603563 -0.00302295
v 0.08471724 -0.36476305 -0.00204149
v 0.08806105 -0.36991237 -0.00297847
v 0.08107746 -0.35986302 -0.00134765
v 0.07760141 -0.35579604 -0.00089991
v 0.07433317 -0.35095500 -0.00279463
v 0.07265181 -0.34907896 -0.00281539
v 0.07621603 -0.35310001 -0.00279760
v 0.07071857 -0.34705202 -0.00281242
v 0.06711657 -0.34280794 -0.00558185
v 0.06469846 -0.34064325 -0.00562930
v 0.06903722 -0.34461186 -0.00553441
v 0.06203474 -0.33916733 -0.00358632
v 0.06289116 -0.33916733 -0.00565005
v 0.06275262 -0.33916733 -0.00527644
v 0.06224884 -0.33916733 -0.00397179
v 0.09021469 -0.38133270 -0.01324968
v 0.08944644 -0.37732478 -0.01171374
v 0.08904342 -0.37507480 -0.01074118
v 0.09263282 -0.38462566 -0.01018966
v 0.09355221 -0.38599661 -0.00861815
v 0.08000064 -0.35815095 -0.00862408
v 0.08142381 -0.35950224 -0.00739058
v 0.08297922 -0.36213921 -0.00831867
v 0.08496283 -0.36415956 -0.00640616
v 0.08639230 -0.36610779 -0.00537133
v 0.08906860 -0.37163100 -0.00653662
v 0.08826256 -0.36950568 -0.00535650
v 0.08938346 -0.37372354 -0.00818524
v 0.09061142 -0.37726574 -0.00851733
v 0.08890488 -0.37971903 -0.01485381
v 0.06251962 -0.33916733 -0.00846396
v 0.07110270 -0.34672405 -0.00549290
v 0.07303594 -0.34875097 -0.00544249
v 0.07471730 -0.35065329 -0.00540691
v 0.07660016 -0.35280482 -0.00537429
v 0.07433317 -0.35100750 -0.00829495
v 0.07624752 -0.35330338 -0.00831274
v 0.07785959 -0.35529095 -0.00833646
v 0.09454717 -0.38604908 -0.00525865
v 0.09256355 -0.38010606 -0.00517563
v 0.09158119 -0.37726574 -0.00520232
v 0.08925752 -0.37135550 -0.00405778
v 0.08980538 -0.37371041 -0.00282428
v 0.08510767 -0.36395622 -0.00416156
v 0.08311775 -0.36192274 -0.00276795
v 0.08156235 -0.35926609 -0.00352405
v 0.08016437 -0.35800007 -0.00260190
v 0.07805481 -0.35524501 -0.00283318
v 0.09209755 -0.38163444 -0.00860925
v 0.09304214 -0.38318252 -0.00714151
v 0.08026513 -0.35725227 -0.00539209
v 0.08169459 -0.35912178 -0.00538615
v 0.08367821 -0.36190306 -0.00537726
v 0.08508878 -0.36396934 -0.00537429
v 0.08920085 -0.37137519 -0.00533278
v 0.09010765 -0.37344148 -0.00527941
v 0.07831929 -0.35486458 -0.00538319
f 1 2 12
f 1 12 22
f 1 22 26
f 1 26 33
f 1 33 32
f 1 32 31
f 1 31 38
f 1 38 51
f 1 51 72
f 1 72 102
f 1 102 101
f 1 101 142
f 1 142 141
f 1 141 140
f 1 140 188
f 1 188 187
f 1 187 244
f 1 244 296
f 1 296 352
f 1 352 355
f 1 355 354
f 1 354 353
f 1 353 371
f 1 371 323
f 1 323 267
f 1 267 212
f 1 212 210
f 1 210 159
f 1 159 158
f 1 158 157
f 1 157 156
f 1 156 114
f 1 114 81
f 1 81 57
f 1 57 42
f 1 42 35
f 1 35 29
f 1 29 28
f 1 28 24
f 1 24 20
f 1 20 19
f 1 19 18
f 1 18 17
f 1 17 16
f 1 16 15
f 1 15 13
f 1 13 3
f 1 3 4
f 1 4 5
f 1 5 6
f 1 6 7
f 1 7 8
f 1 8 9
f 1 9 10
f 1 10 11
f 1 11 2
f 2 11 12
f 3 13 4
f 4 14 23
f 4 23 27
f 4 27 34
f 4 34 40
f 4 40 54
f 4 54 76
f 4 76 106
f 4 106 147
f 4 147 198
f 4 198 252
f 4 252 303
f 4 303 332
f 4 332 331
f 4 331 275
f 4 275 274
f 4 274 222
f 4 222 173
f 4 173 169
f 4 169 123
f 4 123 87
f 4 87 63
f 4 63 45
f 4 45 36
f 4 36 30
f 4 30 25
f 4 25 21
f 4 21 11
f 4 11 10
f 4 10 9
f 4 9 8
f 4 8 7
f 4 7 6
f 4 6 5
f 4 13 15
f 4 15 16
f 4 16 17
f 4 17 18
f 4 18 19
f 4 19 20
f 4 20 14
f 11 21 12
f 12 21 22
f 14 20 24
f 14 24 23
f 21 25 22
f 22 25 26
f 23 24 28
f 23 28 29
f 23 29 27
f 25 30 31
f 25 31 32
f 25 32 33
f 25 33 26
f 27 29 34
f 29 35 34
f 30 36 37
f 30 37 38
f 30 38 31
f 34 39 40
f 34 35 41
f 34 41 39
f 35 42 43
f 35 43 44
f 35 44 41
f 36 45 46
f 36 46 47
f 36 47 48
f 36 48 37
f 37 48 49
f 37 49 50
f 37 50 38
f 38 50 51
f 39 52 53
f 39 53 54
f 39 54 40
f 39 41 52
f 41 44 55
f 41 55 56
f 41 56 52
f 42 57 43
f 43 57 58
f 43 58 59
f 43 59 60
f 43 60 44
f 44 61 55
f 44 60 59
f 44 59 62
f 44 62 61
f 45 63 64
f 45 64 46
f 46 64 65
f 46 65 47
f 47 65 66
f 47 66 67
f 47 67 48
f 48 67 49
f 49 68 69
f 49 69 70
f 49 70 71
f 49 71 50
f 49 67 68
f 50 71 51
f 51 71 72
f 52 73 74
f 52 74 53
f 52 56 73
f 53 74 75
f 53 75 76
f 53 76 54
f 55 61 77
f 55 77 78
f 55 78 56
f 56 78 79
f 56 79 80
f 56 80 73
f 57 81 58
f 58 81 82
f 58 82 83
f 58 83 59
f 59 84 62
f 59 83 84
f 61 85 77
f 61 62 86
f 61 86 85
f 62 84 86
f 63 87 88
f 63 88 64
f 64 88 89
f 64 89 65
f 65 89 90
f 65 90 91
f 65 91 66
f 66 91 92
f 66 92 67
f 67 92 93
f 67 93 94
f 67 94 95
f 67 95 68
f 68 95 96
f 68 96 97
f 68 97 69
f 69 97 98
f 69 98 70
f 70 98 71
f 71 99 100
f 71 100 101
f 71 101 102
f 71 102 72
f 71 98 99
f 73 103 104
f 73 104 74
f 73 80 103
f 74 104 105
f 74 105 75
f 75 105 106
f 75 106 76
f 77 107 108
f 77 108 78
f 77 85 107
f 78 108 109
f 78 109 79
f 79 109 110
f 79 110 111
f 79 111 112
f 79 112 113
f 79 113 80
f 80 113 103
f 81 114 82
f 82 114 115
f 82 115 116
f 82 116 117
f 82 117 118
f 82 118 119
f 82 119 83
f 83 119 118
f 83 118 120
f 83 120 84
f 84 120 86
f 85 86 121
f 85 121 107
f 86 120 122
f 86 122 121
f 87 123 88
f 88 124 125
f 88 125 89
f 88 123 124
f 89 126 127
f 89 127 90
f 89 125 126
f 90 127 128
f 90 128 129
f 90 129 91
f 91 129 130
f 91 130 92
f 92 131 93
f 92 130 131
f 93 131 132
f 93 132 133
f 93 133 134
f 93 134 94
f 94 134 95
f 95 134 96
f 96 134 135
f 96 135 136
f 96 136 97
f 97 136 137
f 97 137 98
f 98 137 138
f 98 138 99
f 99 138 100
f 100 139 140
f 100 140 141
f 100 141 142
f 100 142 101
f 100 138 143
f 100 143 139
f 103 113 104
f 104 113 144
f 104 144 105
f 105 145 146
f 105 146 147
f 105 147 106
f 105 144 148
f 105 148 145
f 107 121 149
f 107 149 150
f 107 150 151
f 107 151 152
f 107 152 108
f 108 152 109
f 109 152 110
f 110 152 153
f 110 153 154
f 110 154 111
f 111 154 112
f 112 154 155
f 112 155 144
f 112 144 113
f 114 156 115
f 115 156 157
f 115 157 116
f 116 157 158
f 116 158 159
f 116 159 160
f 116 160 161
f 116 161 117
f 117 161 162
f 117 162 163
f 117 163 164
f 117 164 120
f 117 120 118
f 120 164 122
f 121 165 149
f 121 122 166
f 121 166 167
f 121 167 165
f 122 168 166
f 122 164 168
f 123 169 124
f 124 170 171
f 124 171 172
f 124 172 126
f 124 126 125
f 124 169 173
f 124 173 170
f 126 174 127
f 126 172 174
f 127 174 175
f 127 175 176
f 127 176 128
f 128 176 129
f 129 177 178
f 129 178 130
f 129 176 179
f 129 179 177
f 130 178 131
f 131 180 181
f 131 181 132
f 131 178 180
f 132 181 182
f 132 182 133
f 133 182 183
f 133 183 134
f 134 183 135
f 135 184 185
f 135 185 136
f 135 183 184
f 136 185 186
f 136 186 137
f 137 186 143
f 137 143 138
f 139 187 188
f 139 188 140
f 139 143 189
f 139 189 187
f 143 190 189
f 143 186 191
f 143 191 190
f 144 192 148
f 144 155 192
f 145 193 146
f 145 148 192
f 145 192 194
f 145 194 195
f 145 195 196
f 145 196 193
f 146 193 197
f 146 197 147
f 147 197 198
f 149 165 167
f 149 167 199
f 149 199 150
f 150 200 201
f 150 201 151
f 150 199 200
f 151 201 202
f 151 202 152
f 152 202 203
f 152 203 204
f 152 204 153
f 153 204 205
f 153 205 206
f 153 206 207
f 153 207 208
f 153 208 154
f 154 208 155
f 155 208 209
f 155 209 192
f 159 210 160
f 160 211 161
f 160 210 212
f 160 212 211
f 161 211 162
f 162 213 163
f 162 211 213
f 163 214 215
f 163 215 164
f 163 213 214
f 164 215 216
f 164 216 168
f 166 168 167
f 167 168 217
f 167 217 218
f 167 218 219
f 167 219 220
f 167 220 199
f 168 216 217
f 170 221 171
f 170 173 222
f 170 222 221
f 171 223 224
f 171 224 225
f 171 225 226
f 171 226 172
f 171 221 223
f 172 226 174
f 174 226 225
f 174 225 175
f 175 225 227
f 175 227 228
f 175 228 176
f 176 228 179
f 177 179 229
f 177 229 180
f 177 180 178
f 179 228 230
f 179 230 231
f 179 231 232
f 179 232 229
f 180 229 181
f 181 233 234
f 181 234 182
f 181 229 235
f 181 235 236
f 181 236 233
f 182 234 237
f 182 237 184
f 182 184 183
f 184 238 185
f 184 237 239
f 184 239 238
f 185 240 241
f 185 241 186
f 185 238 240
f 186 242 243
f 186 243 191
f 186 241 242
f 187 189 190
f 187 190 244
f 190 191 243
f 190 243 245
f 190 245 244
f 192 209 194
f 193 246 247
f 193 247 197
f 193 196 248
f 193 248 249
f 193 249 246
f 194 209 250
f 194 250 195
f 195 250 251
f 195 251 196
f 196 251 249
f 196 249 248
f 197 247 252
f 197 252 198
f 199 220 253
f 199 253 254
f 199 254 200
f 200 254 255
f 200 255 256
f 200 256 201
f 201 256 257
f 201 257 258
f 201 258 259
f 201 259 260
f 201 260 202
f 202 261 203
f 202 260 261
f 203 261 262
f 203 262 204
f 204 262 205
f 205 262 263
f 205 263 206
f 206 263 207
f 207 263 264
f 207 264 208
f 208 264 209
f 209 264 250
f 211 212 265
f 211 265 266
f 211 266 213
f 212 267 265
f 213 266 268
f 213 268 269
f 213 269 214
f 214 269 270
f 214 270 271
f 214 271 272
f 214 272 217
f 214 217 216
f 214 216 215
f 217 272 218
f 218 272 219
f 219 272 273
f 219 273 220
f 220 273 253
f 221 222 274
f 221 274 275
f 221 275 276
f 221 276 277
f 221 277 223
f 223 277 224
f 224 277 278
f 224 278 279
f 224 279 280
f 224 280 227
f 224 227 225
f 227 280 281
f 227 281 230
f 227 230 228
f 229 232 282
f 229 282 235
f 230 281 231
f 231 283 232
f 231 281 284
f 231 284 283
f 232 283 282
f 233 236 285
f 233 285 286
f 233 286 287
f 233 287 234
f 234 287 288
f 234 288 237
f 235 282 289
f 235 289 285
f 235 285 236
f 237 288 239
f 238 239 290
f 238 290 240
f 239 288 290
f 240 290 291
f 240 291 292
f 240 292 241
f 241 292 242
f 242 292 243
f 243 293 294
f 243 294 245
f 243 292 295
f 243 295 293
f 244 245 296
f 245 294 297
f 245 297 296
f 246 298 276
f 246 276 299
f 246 299 247
f 246 249 251
f 246 251 300
f 246 300 301
f 246 301 298
f 247 299 252
f 250 264 302
f 250 302 251
f 251 302 300
f 252 299 303
f 253 304 305
f 253 305 306
f 253 306 255
f 253 255 254
f 253 273 304
f 255 306 257
f 255 257 256
f 257 306 258
f 258 307 259
f 258 306 308
f 258 308 309
f 258 309 310
f 258 310 311
f 258 311 307
f 259 307 312
f 259 312 260
f 260 312 261
f 261 313 262
f 261 312 313
f 262 314 315
f 262 315 316
f 262 316 263
f 262 313 317
f 262 317 314
f 263 318 319
f 263 319 264
f 263 316 320
f 263 320 318
f 264 319 318
f 264 318 302
f 265 321 322
f 265 322 268
f 265 268 266
f 265 267 323
f 265 323 321
f 268 322 324
f 268 324 325
f 268 325 270
f 268 270 269
f 270 326 327
f 270 327 328
f 270 328 271
f 270 325 326
f 271 328 272
f 272 328 329
f 272 329 273
f 273 329 330
f 273 330 304
f 275 331 276
f 276 331 332
f 276 332 299
f 276 298 277
f 277 333 280
f 277 280 279
f 277 279 278
f 277 298 333
f 280 333 334
f 280 334 335
f 280 335 281
f 281 335 284
f 282 283 289
f 283 284 336
f 283 336 337
f 283 337 338
f 283 338 289
f 284 335 334
f 284 334 336
f 285 289 338
f 285 338 339
f 285 339 286
f 286 340 341
f 286 341 287
f 286 339 342
f 286 342 340
f 287 341 343
f 287 343 288
f 288 343 344
f 288 344 290
f 290 344 291
f 291 345 346
f 291 346 292
f 291 344 347
f 291 347 345
f 292 348 295
f 292 346 348
f 293 295 349
f 293 349 350
f 293 350 297
f 293 297 294
f 295 348 351
f 295 351 349
f 296 297 352
f 297 350 353
f 297 353 354
f 297 354 355
f 297 355 352
f 298 301 300
f 298 300 333
f 299 332 303
f 300 302 333
f 302 318 356
f 302 356 357
f 302 357 358
f 302 358 359
f 302 359 360
f 302 360 333
f 304 330 361
f 304 361 362
f 304 362 363
f 304 363 308
f 304 308 306
f 304 306 305
f 307 311 317
f 307 317 312
f 308 363 364
f 308 364 309
f 309 365 310
f 309 364 365
f 310 366 311
f 310 365 367
f 310 367 366
f 311 366 368
f 311 368 369
f 311 369 358
f 311 358 317
f 312 317 313
f 314 357 370
f 314 370 315
f 314 317 358
f 314 358 357
f 315 370 316
f 316 370 320
f 318 320 356
f 320 370 356
f 321 350 322
f 321 323 371
f 321 371 353
f 321 353 350
f 322 350 349
f 322 349 324
f 324 349 351
f 324 351 325
f 325 372 326
f 325 351 372
f 326 372 373
f 326 373 327
f 327 373 374
f 327 374 375
f 327 375 376
f 327 376 328
f 328 376 377
f 328 377 330
f 328 330 329
f 330 377 378
f 330 378 361
f 333 360 379
f 333 379 334
f 334 379 380
f 334 380 381
f 334 381 382
f 334 382 337
f 334 337 336
f 337 382 383
f 337 383 338
f 338 383 339
f 339 383 382
f 339 382 342
f 340 342 382
f 340 382 384
f 340 384 341
f 341 384 385
f 341 385 343
f 343 386 387
f 343 387 344
f 343 385 386
f 344 388 347
f 344 387 388
f 345 347 375
f 345 375 374
f 345 374 373
f 345 373 346
f 346 373 348
f 347 388 375
f 348 372 351
f 348 373 372
f 356 370 357
f 358 369 359
f 359 369 389
f 359 389 360
f 360 389 390
f 360 390 379
f 361 378 362
f 362 378 391
f 362 391 392
f 362 392 393
f 362 393 364
f 362 364 363
f 364 393 394
f 364 394 365
f 365 382 367
f 365 394 384
f 365 384 382
f 366 367 395
f 366 395 396
f 366 396 381
f 366 381 368
f 367 382 395
f 368 381 369
f 369 381 389
f 375 388 397
f 375 397 377
f 375 377 376
f 377 397 391
f 377 391 378
f 379 390 380
f 380 390 389
f 380 389 381
f 381 396 382
f 382 396 395
f 384 394 393
f 384 393 392
f 384 392 386
f 384 386 385
f 386 392 391
f 386 391 397
f 386 397 388
f 386 388 387

