# https://github.com/mikedh/trimesh
v 0.35402094 0.31685957 -0.00561688
v 0.34999339 0.31674150 -0.00840299
v 0.34993227 0.31680616 -0.00554758
v 0.34986435 0.31649696 -0.00380661
v 0.35393266 0.31651665 -0.00403393
v 0.35789229 0.31681460 -0.00573055
v 0.35780401 0.31676119 -0.00871348
v 0.35000698 0.31643231 -0.01022435
v 0.34580964 0.31630583 -0.00978357
v 0.34576209 0.31659254 -0.00795111
v 0.35388510 0.31673309 -0.00904615
v 0.35250638 0.31646324 -0.01046554
v 0.34571453 0.31660096 -0.00555590
v 0.34568057 0.31635642 -0.00385651
v 0.34975568 0.31592355 -0.00173574
v 0.34561945 0.31583079 -0.00178564
v 0.35785833 0.31645762 -0.00426957
v 0.36203531 0.31673588 -0.00583312
v 0.36187911 0.31668247 -0.00866081
v 0.35770213 0.31640701 -0.01059029
v 0.35499218 0.31645762 -0.01057088
v 0.35000019 0.31574928 -0.01279145
v 0.34589112 0.31558063 -0.01283581
v 0.34227108 0.31526579 -0.01284135
v 0.34216920 0.31606127 -0.00939545
v 0.34208092 0.31633673 -0.00760181
v 0.34199261 0.31629459 -0.00561411
v 0.34192469 0.31610343 -0.00405057
v 0.34184998 0.31560311 -0.00196029
v 0.34957232 0.31416112 0.00202342
v 0.35374250 0.31585327 -0.00194643
v 0.34548362 0.31422578 0.00199847
v 0.34162586 0.31411616 0.00194857
v 0.36205567 0.31631146 -0.00443314
v 0.36621909 0.31652507 -0.00588579
v 0.36610362 0.31654193 -0.00857487
v 0.36173648 0.31629177 -0.01059306
v 0.35758666 0.31564246 -0.01285799
v 0.35381042 0.31591510 -0.01234235
v 0.34996623 0.31394751 -0.01693319
v 0.34596584 0.31382663 -0.01704408
v 0.34227788 0.31358771 -0.01701081
v 0.33859669 0.31323073 -0.01678903
v 0.33867140 0.31473737 -0.01282472
v 0.33878688 0.31572397 -0.00862477
v 0.34015203 0.31615405 -0.00732736
v 0.34002979 0.31606689 -0.00566401
v 0.34011807 0.31594041 -0.00419750
v 0.33857632 0.31534168 -0.00256464
v 0.33796506 0.31378728 0.00190144
v 0.34949760 0.31270230 0.00421904
v 0.35213283 0.31255893 0.00420518
v 0.35347083 0.31362425 0.00241985
v 0.34540890 0.31280068 0.00422458
v 0.35770213 0.31558625 -0.00214603
v 0.34145607 0.31277819 0.00417746
v 0.33774092 0.31260672 0.00408043
v 0.36626661 0.31600788 -0.00463551
v 0.37017872 0.31605565 -0.00594124
v 0.37007004 0.31621870 -0.00851388
v 0.36601533 0.31610064 -0.01053762
v 0.35751194 0.31384352 -0.01648408
v 0.35385794 0.31395875 -0.01674190
v 0.34994586 0.31265731 -0.01895692
v 0.34598620 0.31263483 -0.01906227
v 0.34223033 0.31244649 -0.01903732
v 0.33848125 0.31215699 -0.01882386
v 0.33463706 0.31183090 -0.01831099
v 0.33473893 0.31281192 -0.01626785
v 0.33198826 0.31253083 -0.01566350
v 0.33474573 0.31402340 -0.01279422
v 0.33463026 0.31499597 -0.00880219
v 0.33452161 0.31518990 -0.00576104
v 0.33812126 0.31576614 -0.00569728
v 0.33441974 0.31458276 -0.00224306
v 0.33401900 0.31301149 0.00223688
v 0.33260632 0.31210358 0.00380043
v 0.33495628 0.31235936 0.00396954
v 0.34961984 0.31115911 0.00470695
v 0.35781080 0.31079933 0.00474576
v 0.35466619 0.31235656 0.00416914
v 0.35742366 0.31219071 0.00397231
v 0.35749158 0.31359895 0.00169352
v 0.34541570 0.31115070 0.00474299
v 0.34129984 0.31113945 0.00474299
v 0.33743529 0.31113383 0.00468200
v 0.32997108 0.31078247 0.00443805
v 0.36187911 0.31183090 0.00344004
v 0.37024664 0.31546537 -0.00489056
v 0.37228417 0.31511121 -0.00505412
v 0.37349313 0.31536982 -0.00605213
v 0.37563934 0.31504656 -0.00682835
v 0.37574122 0.31511963 -0.00799824
v 0.37393460 0.31553564 -0.00874952
v 0.37284111 0.31543726 -0.01018000
v 0.37002249 0.31576894 -0.01036019
v 0.36165496 0.31345561 -0.01601834
v 0.35757309 0.31223850 -0.01861039
v 0.35381718 0.31252521 -0.01879336
v 0.34985755 0.31079651 -0.02035691
v 0.35776325 0.31040301 -0.02032641
v 0.35383078 0.31067845 -0.02031532
v 0.34584360 0.31077403 -0.02040681
v 0.34194509 0.31059693 -0.02042344
v 0.33807374 0.31033274 -0.02039849
v 0.33418879 0.31000948 -0.02033473
v 0.33022236 0.30959064 -0.02023216
v 0.32618125 0.30905377 -0.01996879
v 0.33054839 0.31158636 -0.01712724
v 0.32637141 0.31057728 -0.01726031
v 0.32908812 0.31230033 -0.01460173
v 0.33052799 0.31309018 -0.01291898
v 0.33045331 0.31414147 -0.00881883
v 0.33039216 0.31437477 -0.00583312
v 0.33039216 0.31373387 -0.00224861
v 0.32810331 0.31255893 0.00022701
v 0.33035820 0.31273882 0.00105036
v 0.33033784 0.31201362 0.00299925
v 0.32612010 0.31020061 0.00435211
v 0.36258545 0.30759492 0.00518655
v 0.36222547 0.31027650 0.00472913
v 0.36647716 0.30953444 0.00458497
v 0.32930547 0.30776077 0.00516160
v 0.32559035 0.30777484 0.00514497
v 0.32207219 0.30762305 0.00496477
v 0.36628021 0.31128279 0.00278024
v 0.37022627 0.31226943 -0.00012784
v 0.37225701 0.31205579 -0.00059635
v 0.37430135 0.31467834 -0.00541451
v 0.37537447 0.31336003 -0.00441650
v 0.37595177 0.31413020 -0.00620737
v 0.37631852 0.31437756 -0.00891031
v 0.37527939 0.31504373 -0.00987228
v 0.36183835 0.31168756 -0.01820287
v 0.36208286 0.30978460 -0.02025433
v 0.34547682 0.30751623 -0.02170422
v 0.34138815 0.30738414 -0.02183174
v 0.35791945 0.30775236 -0.02122739
v 0.33737417 0.30727169 -0.02187887
v 0.33344170 0.30718456 -0.02184560
v 0.32950243 0.30712833 -0.02169590
v 0.32564467 0.30710584 -0.02131888
v 0.32204499 0.30724921 -0.02047889
v 0.31852006 0.30638626 -0.02032919
v 0.32353922 0.30866307 -0.01961395
v 0.32611333 0.31210075 -0.01287739
v 0.32113490 0.30836792 -0.01877118
v 0.32240498 0.30941076 -0.01727972
v 0.32252722 0.31119004 -0.01263343
v 0.32726793 0.31277537 -0.01140810
v 0.32453083 0.31249711 -0.01002198
v 0.32599786 0.31307894 -0.00896021
v 0.32365466 0.31269386 -0.00807587
v 0.32623557 0.31341626 -0.00591906
v 0.32388560 0.31266013 -0.00416700
v 0.32542735 0.31233125 -0.00114803
v 0.32658196 0.31173253 0.00165194
v 0.32248649 0.30939107 0.00416359
v 0.31882569 0.30753310 0.00449349
v 0.36668772 0.30731104 0.00511725
v 0.32142697 0.30424158 0.00546100
v 0.30755123 0.29716099 0.00550259
v 0.36940446 0.30891606 0.00423013
v 0.31788841 0.30425282 0.00543328
v 0.31439740 0.30408979 0.00520319
v 0.37125184 0.30780012 0.00369231
v 0.37532691 0.31141210 -0.00391473
v 0.37638644 0.31176628 -0.00627391
v 0.37692981 0.31182811 -0.00892694
v 0.37610797 0.31386879 -0.01051821
v 0.36551952 0.30912405 -0.01992721
v 0.36230698 0.30765395 -0.02092799
v 0.30755123 0.29354339 -0.02277708
v 0.30755123 0.29546601 -0.02281866
v 0.31681529 0.30141663 -0.02243055
v 0.31696472 0.30213904 -0.02237787
v 0.31421401 0.30178768 -0.02230857
v 0.31240062 0.30140821 -0.02224481
v 0.31504942 0.30550927 -0.01980523
v 0.31864230 0.30815992 -0.01714110
v 0.31978334 0.30913249 -0.01577439
v 0.31314092 0.30500051 -0.01939217
v 0.32258157 0.31220757 -0.00897684
v 0.31873738 0.30987456 -0.01265007
v 0.31900225 0.31116756 -0.00884100
v 0.32352562 0.31273040 -0.00598836
v 0.31906340 0.31143740 -0.00603272
v 0.32189559 0.31228067 -0.00603272
v 0.31905661 0.31075155 -0.00243158
v 0.32272420 0.31195459 -0.00257850
v 0.32256118 0.31053511 0.00185986
v 0.32042856 0.30888792 0.00396954
v 0.31502226 0.30646215 0.00427448
v 0.30755123 0.29594668 0.00542219
v 0.36249717 0.30469693 0.00489824
v 0.36674204 0.30460698 0.00470695
v 0.36994101 0.30516074 0.00414973
v 0.37015833 0.30699623 0.00426062
v 0.31025438 0.30009273 0.00546932
v 0.30755123 0.29978916 0.00530299
v 0.31084528 0.30391832 0.00448240
v 0.30755123 0.30050030 0.00510893
v 0.37116353 0.30601521 0.00373667
v 0.37506884 0.30867149 -0.00399789
v 0.37114996 0.30577912 0.00373667
v 0.37563934 0.30758651 -0.00590520
v 0.37542879 0.30489931 -0.00662598
v 0.37633891 0.30790414 -0.00898516
v 0.37593141 0.30777201 -0.01069841
v 0.37625740 0.31163698 -0.01085643
v 0.36815475 0.30787322 -0.01932009
v 0.36672847 0.30723515 -0.01992998
v 0.36652472 0.30596745 -0.01975810
v 0.30755123 0.29312176 -0.02235847
v 0.36842642 0.30607986 -0.01937553
v 0.30755123 0.29634865 -0.02275490
v 0.30755123 0.29809418 -0.02251926
v 0.30755123 0.29839213 -0.02244164
v 0.31006422 0.30051436 -0.02212283
v 0.30755123 0.30140821 -0.02030146
v 0.31735863 0.30882048 -0.01419975
v 0.31515130 0.30686972 -0.01696923
v 0.31035626 0.30469973 -0.01697200
v 0.31227155 0.30561327 -0.01695814
v 0.30755123 0.30150379 -0.02015176
v 0.30755123 0.30325494 -0.01704685
v 0.31621762 0.30942482 -0.01119464
v 0.31521242 0.30976494 -0.00864695
v 0.31346692 0.30927021 -0.00756023
v 0.31538901 0.31006007 -0.00594955
v 0.31353483 0.30907626 -0.00421690
v 0.31536865 0.30943886 -0.00268385
v 0.31417329 0.30869962 -0.00149179
v 0.31653005 0.30901161 0.00032681
v 0.31915169 0.30937421 0.00177392
v 0.31803784 0.30845225 0.00308519
v 0.31233947 0.30567792 0.00389746
v 0.30755123 0.30267029 0.00419963
v 0.30755123 0.29383855 0.00503408
v 0.36721070 0.30271525 0.00212322
v 0.37014476 0.30324653 0.00175174
v 0.30755123 0.29278446 0.00474022
v 0.30755123 0.29173038 0.00404439
v 0.37419947 0.30729135 -0.00255355
v 0.37481076 0.30586063 -0.00461333
v 0.37142163 0.30239764 -0.00051041
v 0.37285471 0.30194791 -0.00294167
v 0.37189706 0.30498644 0.00172125
v 0.37568690 0.30497520 -0.00889645
v 0.37315354 0.30364847 -0.00207118
v 0.37564614 0.30548396 -0.01041564
v 0.37196498 0.30558234 -0.01532251
v 0.36841962 0.30616982 -0.01937831
v 0.30755123 0.29218856 -0.02142422
v 0.36987989 0.30550365 -0.01708566
v 0.37057263 0.30413755 -0.01335699
v 0.30755123 0.29098270 -0.01946702
v 0.30755123 0.29129751 -0.02012681
v 0.30755123 0.29969358 -0.02179016
v 0.31509018 0.30850004 -0.01257522
v 0.31110336 0.30671514 -0.01282749
v 0.30948692 0.30527877 -0.01456014
v 0.30755123 0.30488806 -0.01314076
v 0.31392198 0.30902005 -0.00949525
v 0.31193197 0.30842977 -0.00861368
v 0.30755123 0.30637502 -0.00882992
v 0.30755123 0.30661676 -0.00588579
v 0.30776178 0.30672918 -0.00571114
v 0.31149730 0.30844101 -0.00581926
v 0.31203384 0.30812058 -0.00265890
v 0.31531429 0.30803345 0.00165471
v 0.30858360 0.30547555 0.00067611
v 0.31139542 0.30628226 0.00184045
v 0.30992159 0.30487403 0.00329865
v 0.30755123 0.30277428 0.00411092
v 0.36916675 0.30223179 0.00053195
v 0.30755123 0.29128344 0.00343727
v 0.37300411 0.30200132 -0.00515669
v 0.30755123 0.28896167 -0.00179396
v 0.30755123 0.28814371 -0.00490719
v 0.37296338 0.30215028 -0.00679232
v 0.37394139 0.30327743 -0.00841131
v 0.37358821 0.30509046 -0.01242829
v 0.30755123 0.29025749 -0.01673913
v 0.30836628 0.30590842 -0.01166592
v 0.30755123 0.30514667 -0.01250868
v 0.30755123 0.30620355 -0.00941209
v 0.30755123 0.30661676 -0.00570560
v 0.30755123 0.30597587 -0.00247593
v 0.30755123 0.30591122 -0.00216821
v 0.30755123 0.30588874 -0.00209059
v 0.30755123 0.30518322 0.00010503
v 0.30755123 0.30444115 0.00167689
v 0.30755123 0.30434557 0.00186818
v 0.30755123 0.29026874 0.00136640
v 0.30755123 0.29006354 0.00087848
v 0.30755123 0.28822805 -0.00631549
v 0.30755123 0.28834329 -0.00814794
v 0.30755123 0.28925962 -0.01269720
v 0.30755123 0.30568354 -0.01113920
f 1 2 3
f 1 3 4
f 1 4 5
f 1 5 6
f 1 6 7
f 1 7 2
f 2 8 9
f 2 9 10
f 2 10 3
f 2 7 11
f 2 11 12
f 2 12 8
f 3 10 13
f 3 13 14
f 3 14 4
f 4 15 5
f 4 14 16
f 4 16 15
f 5 15 17
f 5 17 18
f 5 18 6
f 6 18 7
f 7 18 19
f 7 19 20
f 7 20 21
f 7 21 11
f 8 22 23
f 8 23 9
f 8 12 22
f 9 23 24
f 9 24 25
f 9 25 10
f 10 25 26
f 10 26 13
f 11 21 12
f 12 21 22
f 13 26 27
f 13 27 28
f 13 28 14
f 14 28 29
f 14 29 16
f 15 30 31
f 15 31 17
f 15 16 32
f 15 32 30
f 16 29 33
f 16 33 32
f 17 34 18
f 17 31 34
f 18 34 35
f 18 35 36
f 18 36 19
f 19 37 20
f 19 36 37
f 20 37 38
f 20 38 39
f 20 39 21
f 21 39 22
f 22 40 41
f 22 41 23
f 22 39 40
f 23 41 42
f 23 42 24
f 24 42 43
f 24 43 44
f 24 44 25
f 25 44 45
f 25 45 46
f 25 46 26
f 26 46 27
f 27 46 47
f 27 47 48
f 27 48 28
f 28 48 29
f 29 48 49
f 29 49 50
f 29 50 33
f 30 51 52
f 30 52 53
f 30 53 31
f 30 32 54
f 30 54 51
f 31 53 55
f 31 55 34
f 32 33 56
f 32 56 54
f 33 50 57
f 33 57 56
f 34 55 58
f 34 58 35
f 35 58 59
f 35 59 60
f 35 60 36
f 36 61 37
f 36 60 61
f 37 61 38
f 38 62 63
f 38 63 40
f 38 40 39
f 38 61 62
f 40 64 65
f 40 65 41
f 40 63 64
f 41 65 66
f 41 66 42
f 42 66 67
f 42 67 43
f 43 67 68
f 43 68 69
f 43 69 44
f 44 69 70
f 44 70 71
f 44 71 72
f 44 72 45
f 45 72 46
f 46 72 73
f 46 73 74
f 46 74 47
f 47 74 48
f 48 74 73
f 48 73 75
f 48 75 49
f 49 75 50
f 50 75 76
f 50 76 77
f 50 77 78
f 50 78 57
f 51 54 79
f 51 79 80
f 51 80 52
f 52 81 53
f 52 80 81
f 53 81 82
f 53 82 83
f 53 83 55
f 54 84 79
f 54 56 85
f 54 85 84
f 55 83 58
f 56 57 86
f 56 86 85
f 57 78 87
f 57 87 86
f 58 88 89
f 58 89 59
f 58 83 88
f 59 89 90
f 59 90 91
f 59 91 92
f 59 92 93
f 59 93 94
f 59 94 60
f 60 94 95
f 60 95 96
f 60 96 61
f 61 96 62
f 62 96 95
f 62 95 97
f 62 97 98
f 62 98 99
f 62 99 63
f 63 99 64
f 64 100 65
f 64 99 101
f 64 101 102
f 64 102 100
f 65 103 104
f 65 104 66
f 65 100 103
f 66 104 105
f 66 105 106
f 66 106 107
f 66 107 67
f 67 107 108
f 67 108 68
f 68 108 109
f 68 109 69
f 69 109 70
f 70 109 110
f 70 110 111
f 70 111 71
f 71 111 112
f 71 112 113
f 71 113 72
f 72 113 114
f 72 114 73
f 73 114 75
f 75 114 115
f 75 115 116
f 75 116 117
f 75 117 76
f 76 117 118
f 76 118 77
f 77 118 119
f 77 119 78
f 78 119 87
f 79 84 80
f 80 120 121
f 80 121 81
f 80 84 120
f 81 121 82
f 82 121 122
f 82 122 88
f 82 88 83
f 84 85 123
f 84 123 120
f 85 86 124
f 85 124 123
f 86 87 124
f 87 119 125
f 87 125 124
f 88 122 126
f 88 126 89
f 89 126 90
f 90 126 127
f 90 127 128
f 90 128 129
f 90 129 91
f 91 129 92
f 92 129 130
f 92 130 131
f 92 131 132
f 92 132 93
f 93 132 133
f 93 133 94
f 94 133 95
f 95 133 134
f 95 134 97
f 97 134 98
f 98 134 135
f 98 135 101
f 98 101 99
f 100 102 136
f 100 136 137
f 100 137 103
f 101 135 138
f 101 138 136
f 101 136 102
f 103 137 139
f 103 139 104
f 104 139 140
f 104 140 105
f 105 140 141
f 105 141 106
f 106 141 107
f 107 141 142
f 107 142 108
f 108 142 143
f 108 143 144
f 108 144 145
f 108 145 109
f 109 145 110
f 110 146 111
f 110 145 147
f 110 147 148
f 110 148 149
f 110 149 146
f 111 146 150
f 111 150 112
f 112 150 113
f 113 150 151
f 113 151 152
f 113 152 153
f 113 153 114
f 114 153 154
f 114 154 155
f 114 155 115
f 115 155 156
f 115 156 116
f 116 157 117
f 116 156 157
f 117 157 118
f 118 157 158
f 118 158 119
f 119 158 159
f 119 159 125
f 120 160 121
f 120 123 161
f 120 161 162
f 120 162 160
f 121 160 122
f 122 160 163
f 122 163 126
f 123 124 161
f 124 125 164
f 124 164 161
f 125 159 165
f 125 165 164
f 126 163 128
f 126 128 127
f 128 166 130
f 128 130 129
f 128 163 166
f 130 167 168
f 130 168 131
f 130 166 167
f 131 168 169
f 131 169 132
f 132 169 170
f 132 170 133
f 133 170 171
f 133 171 134
f 134 171 135
f 135 172 138
f 135 171 172
f 136 138 173
f 136 173 174
f 136 174 137
f 137 174 175
f 137 175 139
f 138 172 173
f 139 175 176
f 139 176 140
f 140 176 141
f 141 176 177
f 141 177 142
f 142 144 143
f 142 177 178
f 142 178 144
f 144 178 179
f 144 179 145
f 145 179 147
f 146 149 151
f 146 151 150
f 147 180 181
f 147 181 148
f 147 179 182
f 147 182 180
f 148 181 149
f 149 183 151
f 149 181 184
f 149 184 185
f 149 185 183
f 151 183 153
f 151 153 152
f 153 186 154
f 153 183 185
f 153 185 187
f 153 187 188
f 153 188 186
f 154 186 155
f 155 186 188
f 155 188 187
f 155 187 189
f 155 189 190
f 155 190 156
f 156 190 191
f 156 191 157
f 157 191 158
f 158 191 192
f 158 192 193
f 158 193 159
f 159 193 165
f 160 162 194
f 160 194 195
f 160 195 196
f 160 196 197
f 160 197 198
f 160 198 163
f 161 164 199
f 161 199 162
f 162 199 200
f 162 200 202
f 162 202 238
f 162 238 275
f 162 275 294
f 162 294 293
f 162 293 292
f 162 292 291
f 162 291 290
f 162 290 289
f 162 289 288
f 162 288 267
f 162 267 266
f 162 266 287
f 162 287 300
f 162 300 286
f 162 286 263
f 162 263 226
f 162 226 225
f 162 225 220
f 162 220 259
f 162 259 218
f 162 218 217
f 162 217 216
f 162 216 174
f 162 174 173
f 162 173 214
f 162 214 254
f 162 254 258
f 162 258 257
f 162 257 284
f 162 284 299
f 162 299 298
f 162 298 297
f 162 297 280
f 162 280 279
f 162 279 296
f 162 296 295
f 162 295 277
f 162 277 243
f 162 243 242
f 162 242 239
f 162 239 194
f 163 198 166
f 164 165 199
f 165 193 201
f 165 201 202
f 165 202 200
f 165 200 199
f 166 198 203
f 166 203 167
f 167 204 168
f 167 203 205
f 167 205 204
f 168 204 206
f 168 206 207
f 168 207 169
f 169 207 208
f 169 208 209
f 169 209 210
f 169 210 170
f 170 210 211
f 170 211 171
f 171 211 212
f 171 212 172
f 172 212 213
f 172 213 173
f 173 213 215
f 173 215 214
f 174 216 175
f 175 216 176
f 176 216 177
f 177 216 217
f 177 217 178
f 178 217 218
f 178 218 219
f 178 219 179
f 179 219 220
f 179 220 182
f 180 221 181
f 180 182 222
f 180 222 221
f 181 221 184
f 182 223 224
f 182 224 222
f 182 220 225
f 182 225 226
f 182 226 223
f 184 221 227
f 184 227 185
f 185 227 228
f 185 228 229
f 185 229 187
f 187 229 230
f 187 230 231
f 187 231 189
f 189 231 232
f 189 232 233
f 189 233 234
f 189 234 191
f 189 191 190
f 191 234 235
f 191 235 236
f 191 236 192
f 192 236 237
f 192 237 193
f 193 237 238
f 193 238 201
f 194 239 195
f 195 239 196
f 196 240 241
f 196 241 197
f 196 239 242
f 196 242 243
f 196 243 240
f 197 241 205
f 197 205 198
f 198 205 203
f 201 238 202
f 204 244 245
f 204 245 206
f 204 205 244
f 205 241 246
f 205 246 247
f 205 247 248
f 205 248 244
f 206 245 207
f 207 249 208
f 207 245 248
f 207 248 250
f 207 250 247
f 207 247 249
f 208 249 251
f 208 251 209
f 209 251 252
f 209 252 210
f 210 252 215
f 210 215 253
f 210 253 211
f 211 253 212
f 212 253 215
f 212 215 213
f 214 215 254
f 215 252 255
f 215 255 256
f 215 256 257
f 215 257 258
f 215 258 254
f 218 259 219
f 219 259 220
f 221 222 260
f 221 260 227
f 222 224 261
f 222 261 260
f 223 262 224
f 223 226 262
f 224 262 261
f 226 263 262
f 227 260 264
f 227 264 228
f 228 264 265
f 228 265 229
f 229 265 266
f 229 266 267
f 229 267 268
f 229 268 269
f 229 269 230
f 230 269 231
f 231 233 232
f 231 269 270
f 231 270 233
f 233 271 234
f 233 270 272
f 233 272 273
f 233 273 271
f 234 236 235
f 234 271 236
f 236 271 237
f 237 271 273
f 237 273 274
f 237 274 275
f 237 275 238
f 240 276 241
f 240 243 277
f 240 277 276
f 241 276 246
f 244 248 245
f 246 276 247
f 247 278 249
f 247 250 248
f 247 276 279
f 247 279 280
f 247 280 278
f 249 278 281
f 249 281 282
f 249 282 251
f 251 282 283
f 251 283 252
f 252 283 282
f 252 282 255
f 255 282 281
f 255 281 256
f 256 281 257
f 257 281 284
f 260 261 264
f 261 262 285
f 261 285 264
f 262 263 285
f 263 286 285
f 264 285 265
f 265 285 287
f 265 287 266
f 267 288 268
f 268 288 289
f 268 289 270
f 268 270 269
f 270 289 290
f 270 290 291
f 270 291 272
f 272 291 292
f 272 292 293
f 272 293 274
f 272 274 273
f 274 293 294
f 274 294 275
f 276 277 295
f 276 295 296
f 276 296 279
f 278 280 297
f 278 297 298
f 278 298 281
f 281 298 299
f 281 299 284
f 285 286 300
f 285 300 287

