# https://github.com/mikedh/trimesh
v 0.23780896 0.18993497 0.00079814
v 0.23780896 0.18943969 0.00088824
v 0.23780896 0.18993497 -0.02171307
v 0.23729799 0.18993497 0.00064046
v 0.05780644 0.03051022 -0.00418016
v 0.05780644 0.03001495 -0.00404250
v 0.23780896 0.18378682 0.00179680
v 0.23491933 0.18993497 -0.02026889
v 0.23780896 0.18535801 -0.02297203
v 0.19649083 0.15485640 -0.02221115
v 0.19765373 0.15765722 -0.02162296
v 0.19375978 0.15796463 -0.02010119
v 0.19515175 0.16047512 -0.01927523
v 0.23720988 0.18993497 0.00060291
v 0.06651057 0.03973243 -0.00453057
v 0.06245804 0.03551412 -0.00439040
v 0.06355046 0.03759766 -0.00486095
v 0.06025558 0.03377215 -0.00459064
v 0.05780644 0.03385754 -0.00586212
v 0.05780644 0.02820466 -0.00380722
v 0.23780896 0.18346233 0.00182183
v 0.05817646 0.02781187 -0.00372713
v 0.23359786 0.18993497 -0.01840422
v 0.20383824 0.16756256 -0.01886726
v 0.21523817 0.17598209 -0.01915009
v 0.21980165 0.17994424 -0.01843175
v 0.21742299 0.17907324 -0.01704764
v 0.21860352 0.18071274 -0.01577365
v 0.23780896 0.18385514 -0.02338001
v 0.19375978 0.15362677 -0.02189328
v 0.23671654 0.18255719 -0.02346761
v 0.17975216 0.14030580 -0.02232879
v 0.17802543 0.14226978 -0.02114991
v 0.18961918 0.15400249 -0.02036150
v 0.19095826 0.15663252 -0.01958309
v 0.18831532 0.15535167 -0.01884723
v 0.19263214 0.15931380 -0.01840672
v 0.23506029 0.18993497 -0.00072864
v 0.17263381 0.14074982 -0.00528645
v 0.15661753 0.12570395 -0.00502114
v 0.15510224 0.12331301 -0.00455309
v 0.05780644 0.03686330 -0.00786695
v 0.05780644 0.02536968 -0.00373714
v 0.23780896 0.18330863 0.00183184
v 0.05829980 0.02600158 -0.00369709
v 0.23780896 0.18001255 0.00192695
v 0.22122884 0.18327448 -0.01325072
v 0.23220591 0.18993497 -0.01428692
v 0.20547687 0.16983396 -0.01751819
v 0.20824316 0.17113190 -0.01860195
v 0.20713311 0.17207119 -0.01609653
v 0.20456064 0.17101234 -0.01360113
v 0.21622487 0.17980761 -0.01321317
v 0.21803970 0.18110555 -0.01320066
v 0.23780896 0.18283044 -0.02357524
v 0.18137317 0.14261134 -0.02205096
v 0.17851878 0.13777822 -0.02248647
v 0.05780644 0.02922935 -0.02049415
v 0.15853808 0.12271527 -0.02173059
v 0.17747922 0.13878584 -0.02218111
v 0.17407863 0.13841011 -0.02132261
v 0.17053707 0.13837596 -0.01980835
v 0.17451911 0.14209900 -0.01970073
v 0.17194665 0.14071567 -0.01917011
v 0.17601679 0.14448994 -0.01901243
v 0.18727576 0.15630804 -0.01623419
v 0.17347955 0.14331155 -0.01777599
v 0.19164543 0.16020186 -0.01582872
v 0.19432362 0.16170475 -0.01677482
v 0.20269296 0.16853601 -0.01638186
v 0.23421455 0.18993497 -0.00214028
v 0.21872685 0.18079814 -0.00762917
v 0.19633226 0.16402737 -0.00902830
v 0.19203306 0.16023602 -0.00841008
v 0.19333692 0.15938210 -0.00600979
v 0.18907296 0.15541997 -0.00557929
v 0.17675681 0.14452409 -0.00535402
v 0.17541771 0.14546341 -0.00782190
v 0.17138281 0.14180867 -0.00781189
v 0.15679373 0.12937577 -0.00874797
v 0.15820330 0.12829983 -0.00611241
v 0.16072292 0.12961486 -0.00513877
v 0.05780644 0.03698284 -0.00797708
v 0.05780644 0.02444747 -0.00396491
v 0.06080179 0.02598450 -0.00409256
v 0.23780896 0.17948313 0.00185437
v 0.22112314 0.18306953 -0.00970659
v 0.22394229 0.18494813 -0.01334583
v 0.23218828 0.18993497 -0.01423436
v 0.21818066 0.18108847 -0.00975164
v 0.19601511 0.16401029 -0.01517546
v 0.20205866 0.16913374 -0.01357109
v 0.19580368 0.16435185 -0.01117080
v 0.21638345 0.17979052 -0.00980921
v 0.23780896 0.18050781 -0.02364282
v 0.17529438 0.13369654 -0.02250399
v 0.06448430 0.03278162 -0.02081703
v 0.05780644 0.02849499 -0.02055422
v 0.05780644 0.03264499 -0.01943542
v 0.06090751 0.03264499 -0.02044409
v 0.16241441 0.12677988 -0.02163298
v 0.15866141 0.12686528 -0.02018129
v 0.15996527 0.12951238 -0.01940538
v 0.16808793 0.13716342 -0.01922017
v 0.15748090 0.12829983 -0.01850183
v 0.16942703 0.13957143 -0.01795620
v 0.17258095 0.14414838 -0.01546580
v 0.16859891 0.14051073 -0.01570107
v 0.18678240 0.15687161 -0.01365869
v 0.18924916 0.15897224 -0.01355107
v 0.23333356 0.18993497 -0.00532399
v 0.20027906 0.16756256 -0.01011957
v 0.19437648 0.16284898 -0.01016462
v 0.19148686 0.16050927 -0.01028226
v 0.18958392 0.15895516 -0.01035735
v 0.17284525 0.14421670 -0.00932365
v 0.18773387 0.15630804 -0.00804716
v 0.17954072 0.14906690 -0.00784192
v 0.16879273 0.14057904 -0.00926358
v 0.15547226 0.12691651 -0.00736386
v 0.15630038 0.12971733 -0.01074280
v 0.05780644 0.03831495 -0.00986678
v 0.05919840 0.03930548 -0.00926358
v 0.14882965 0.12172474 -0.00841008
v 0.05780644 0.02063903 -0.00495856
v 0.23780896 0.17536728 0.00086321
v 0.23255830 0.18993497 -0.00982923
v 0.19120495 0.16059467 -0.01347848
v 0.19384789 0.16272943 -0.01341341
v 0.19795327 0.16597429 -0.01342842
v 0.20010287 0.16764795 -0.01350852
v 0.18061552 0.15169694 -0.01209938
v 0.17157663 0.12906835 -0.02248647
v 0.23780896 0.17886830 -0.02357524
v 0.06060798 0.02859746 -0.02076196
v 0.05780644 0.02566001 -0.02064432
v 0.05780644 0.03355014 -0.01906999
v 0.15598323 0.12560148 -0.01950300
v 0.05868743 0.03525795 -0.01866953
v 0.05780644 0.03486515 -0.01833414
v 0.15656468 0.12920499 -0.01628675
v 0.05780644 0.03674375 -0.01650701
v 0.05780644 0.03698284 -0.01623169
v 0.05903982 0.03908346 -0.01513791
v 0.17036087 0.14269674 -0.01384641
v 0.17233428 0.14442163 -0.01378634
v 0.16835224 0.14086937 -0.01389397
v 0.16472259 0.13694139 -0.01578367
v 0.15612419 0.12971733 -0.01393151
v 0.18061552 0.15169694 -0.01219699
v 0.17233428 0.14452409 -0.01154373
v 0.16836985 0.14095477 -0.01146113
v 0.05870505 0.03964704 -0.01148366
v 0.05780644 0.03867358 -0.01085042
v 0.05780644 0.02034870 -0.00516130
v 0.23780896 0.17237860 -0.00030314
v 0.23780896 0.17442798 0.00056537
v 0.23780896 0.17642613 -0.02313222
v 0.05780644 0.02475487 -0.02043909
v 0.16067005 0.13315004 -0.01591632
v 0.05780644 0.03840034 -0.01428442
v 0.05780644 0.03872482 -0.01356608
v 0.05780644 0.03881021 -0.01244728
v 0.05780644 0.01717217 -0.00742143
v 0.23780896 0.17143930 -0.00103399
v 0.23780896 0.17576009 -0.02288944
v 0.06025558 0.02495981 -0.02000608
v 0.06411429 0.02892195 -0.02025387
v 0.05780644 0.02127093 -0.01926522
v 0.05780644 0.01573760 -0.00992935
v 0.05977985 0.01829932 -0.00825490
v 0.23780896 0.16921914 -0.00386229
v 0.23780896 0.17067078 -0.00171979
v 0.23780896 0.17403519 -0.02196586
v 0.05997367 0.02232977 -0.01886976
v 0.05780644 0.01939233 -0.01820899
v 0.05780644 0.01546434 -0.01053005
v 0.23780896 0.16862141 -0.00502614
v 0.23780896 0.17242985 -0.02104479
v 0.05794741 0.01946064 -0.01816894
v 0.05780644 0.01918739 -0.01803879
v 0.23780896 0.17106357 -0.02025888
v 0.23780896 0.16786996 -0.01333331
v 0.23780896 0.16790412 -0.00891817
v 0.23780896 0.16797243 -0.00834751
v 0.05780644 0.01548143 -0.01381387
v 0.05780644 0.01765035 -0.01650701
v 0.23780896 0.17009012 -0.01905247
v 0.23780896 0.16925330 -0.01779851
f 1 2 7
f 1 7 21
f 1 21 44
f 1 44 46
f 1 46 86
f 1 86 126
f 1 126 157
f 1 157 156
f 1 156 165
f 1 165 173
f 1 173 172
f 1 172 178
f 1 178 185
f 1 185 184
f 1 184 183
f 1 183 189
f 1 189 188
f 1 188 182
f 1 182 179
f 1 179 174
f 1 174 166
f 1 166 158
f 1 158 134
f 1 134 95
f 1 95 55
f 1 55 29
f 1 29 9
f 1 9 3
f 1 3 8
f 1 8 23
f 1 23 48
f 1 48 89
f 1 89 127
f 1 127 111
f 1 111 71
f 1 71 38
f 1 38 14
f 1 14 4
f 1 4 5
f 1 5 6
f 1 6 2
f 2 6 7
f 3 9 10
f 3 10 11
f 3 11 12
f 3 12 13
f 3 13 8
f 4 14 15
f 4 15 16
f 4 16 5
f 5 16 17
f 5 17 18
f 5 18 19
f 5 19 42
f 5 42 83
f 5 83 122
f 5 122 154
f 5 154 163
f 5 163 162
f 5 162 161
f 5 161 143
f 5 143 142
f 5 142 140
f 5 140 137
f 5 137 99
f 5 99 58
f 5 58 98
f 5 98 136
f 5 136 159
f 5 159 169
f 5 169 176
f 5 176 181
f 5 181 187
f 5 187 186
f 5 186 177
f 5 177 170
f 5 170 164
f 5 164 155
f 5 155 125
f 5 125 84
f 5 84 43
f 5 43 20
f 5 20 6
f 6 20 7
f 7 20 22
f 7 22 21
f 8 13 24
f 8 24 25
f 8 25 26
f 8 26 27
f 8 27 28
f 8 28 23
f 9 29 10
f 10 30 11
f 10 29 31
f 10 31 32
f 10 32 30
f 11 30 33
f 11 33 34
f 11 34 12
f 12 34 35
f 12 35 13
f 13 35 36
f 13 36 37
f 13 37 24
f 14 38 39
f 14 39 40
f 14 40 41
f 14 41 15
f 15 17 16
f 15 41 40
f 15 40 17
f 17 19 18
f 17 40 19
f 19 40 42
f 20 43 22
f 21 22 44
f 22 43 45
f 22 45 46
f 22 46 44
f 23 28 47
f 23 47 48
f 24 49 50
f 24 50 25
f 24 37 49
f 25 50 26
f 26 50 49
f 26 49 51
f 26 51 27
f 27 51 28
f 28 51 52
f 28 52 53
f 28 53 54
f 28 54 47
f 29 55 31
f 30 32 56
f 30 56 33
f 31 55 32
f 32 57 58
f 32 58 59
f 32 59 60
f 32 60 56
f 32 55 57
f 33 56 61
f 33 61 62
f 33 62 63
f 33 63 34
f 34 63 35
f 35 63 64
f 35 64 65
f 35 65 36
f 36 66 37
f 36 65 67
f 36 67 66
f 37 68 69
f 37 69 70
f 37 70 49
f 37 66 68
f 38 71 72
f 38 72 73
f 38 73 74
f 38 74 75
f 38 75 76
f 38 76 77
f 38 77 39
f 39 77 78
f 39 78 79
f 39 79 80
f 39 80 81
f 39 81 82
f 39 82 40
f 40 82 81
f 40 81 83
f 40 83 42
f 43 84 85
f 43 85 86
f 43 86 46
f 43 46 45
f 47 87 88
f 47 88 89
f 47 89 48
f 47 54 90
f 47 90 87
f 49 70 51
f 51 70 91
f 51 91 52
f 52 91 92
f 52 92 53
f 53 92 93
f 53 93 94
f 53 94 90
f 53 90 54
f 55 95 96
f 55 96 57
f 56 60 61
f 57 96 97
f 57 97 58
f 58 97 98
f 58 99 100
f 58 100 59
f 59 101 60
f 59 100 101
f 60 101 61
f 61 101 102
f 61 102 62
f 62 64 63
f 62 102 103
f 62 103 104
f 62 104 64
f 64 104 105
f 64 105 106
f 64 106 65
f 65 106 67
f 66 67 107
f 66 107 68
f 67 106 108
f 67 108 107
f 68 91 70
f 68 70 69
f 68 107 109
f 68 109 110
f 68 110 91
f 71 111 87
f 71 87 90
f 71 90 72
f 72 90 94
f 72 94 112
f 72 112 73
f 73 112 93
f 73 93 113
f 73 113 114
f 73 114 74
f 74 114 115
f 74 115 116
f 74 116 117
f 74 117 75
f 75 117 76
f 76 117 118
f 76 118 77
f 77 118 78
f 78 116 119
f 78 119 80
f 78 80 79
f 78 118 116
f 80 120 81
f 80 119 121
f 80 121 122
f 80 122 123
f 80 123 124
f 80 124 120
f 81 120 124
f 81 124 83
f 83 124 123
f 83 123 122
f 84 125 85
f 85 125 126
f 85 126 86
f 87 111 127
f 87 127 88
f 88 127 89
f 91 110 128
f 91 128 129
f 91 129 130
f 91 130 131
f 91 131 92
f 92 131 93
f 93 112 94
f 93 131 130
f 93 130 129
f 93 129 128
f 93 128 110
f 93 110 132
f 93 132 115
f 93 115 114
f 93 114 113
f 95 133 96
f 95 134 135
f 95 135 97
f 95 97 133
f 96 133 97
f 97 135 98
f 98 135 136
f 99 137 102
f 99 102 101
f 99 101 100
f 102 138 103
f 102 137 139
f 102 139 138
f 103 105 104
f 103 138 139
f 103 139 140
f 103 140 105
f 105 141 106
f 105 140 142
f 105 142 143
f 105 143 144
f 105 144 141
f 106 141 108
f 107 145 146
f 107 146 109
f 107 108 145
f 108 147 145
f 108 141 148
f 108 148 149
f 108 149 147
f 109 146 150
f 109 150 110
f 110 150 132
f 115 132 151
f 115 151 116
f 116 118 117
f 116 151 119
f 119 152 121
f 119 151 152
f 121 152 153
f 121 153 154
f 121 154 122
f 125 155 156
f 125 156 157
f 125 157 126
f 132 150 151
f 134 158 136
f 134 136 135
f 136 158 159
f 137 140 139
f 141 149 160
f 141 160 148
f 141 144 161
f 141 161 162
f 141 162 149
f 143 161 144
f 145 151 146
f 145 147 152
f 145 152 151
f 146 151 150
f 147 149 152
f 148 160 149
f 149 162 163
f 149 163 153
f 149 153 152
f 153 163 154
f 155 164 156
f 156 164 165
f 158 166 167
f 158 167 168
f 158 168 159
f 159 168 167
f 159 167 169
f 164 170 171
f 164 171 172
f 164 172 173
f 164 173 165
f 166 174 169
f 166 169 167
f 169 175 176
f 169 174 175
f 170 177 178
f 170 178 172
f 170 172 171
f 174 179 176
f 174 176 175
f 176 180 181
f 176 179 182
f 176 182 180
f 177 183 184
f 177 184 185
f 177 185 178
f 177 186 183
f 180 182 181
f 181 182 187
f 182 188 187
f 183 186 189
f 186 187 188
f 186 188 189

