# https://github.com/mikedh/trimesh
v -0.31467489 0.00161840 -0.00924457
v -0.31462707 -0.14183602 0.00185790
v -0.31462707 -0.14147784 0.00188833
v -0.31463901 0.00159282 -0.00431420
v -0.31460317 0.00522587 -0.00921414
v -0.31463901 0.00371636 -0.01235497
v -0.31467489 0.00164399 -0.01458885
v -0.31462707 -0.14431776 -0.00075946
v -0.31462707 -0.14418983 -0.00000469
v -0.31462707 -0.14375490 0.00103617
v -0.31462707 -0.14319203 0.00133138
v -0.26682057 -0.22411699 0.00240572
v -0.26525452 -0.22411699 0.00330962
v -0.31127978 0.00520028 0.00134356
v -0.31175798 0.00520028 0.00121269
v -0.31364679 0.00182308 0.00070444
v -0.31369461 -0.00178439 0.00072270
v -0.31442384 0.00164399 -0.00104250
v -0.26283969 -0.22411699 0.00344049
v -0.26258865 -0.22411699 0.00345266
v -0.31455535 0.00532822 -0.00442680
v -0.31448361 0.00911477 -0.00920501
v -0.31460317 0.00522587 -0.01450059
v -0.31463901 0.00351168 -0.01457059
v -0.31463901 0.00230919 -0.01539232
v -0.31463901 0.00166957 -0.01573927
v -0.31462707 -0.14104289 -0.02149746
v -0.31462707 -0.14196394 -0.02150659
v -0.31462707 -0.14355022 -0.02092529
v -0.31462707 -0.14378047 -0.02004270
v -0.31462707 -0.14395956 -0.01870662
v -0.26796823 -0.22411699 -0.00027251
v -0.26795628 -0.22411699 0.00003792
v -0.26788454 -0.22411699 0.00157182
v -0.26697601 -0.22411699 0.00228702
v -0.19255855 -0.25190218 -0.00142293
v -0.19255855 -0.25098114 -0.00016903
v -0.19255855 -0.25082762 -0.00011425
v -0.19255855 -0.24939487 0.00039096
v -0.30649793 0.00520028 0.00141964
v -0.31448361 0.00763085 -0.00443594
v -0.31353920 0.00520028 0.00068009
v -0.31432820 0.00520028 -0.00105772
v -0.19255855 -0.24862732 0.00047618
v -0.19255855 -0.24532687 0.00060705
v -0.19255855 -0.24115653 0.00068009
v -0.19255855 -0.23621865 0.00071965
v -0.19255855 -0.23161337 0.00075009
v -0.31448361 0.00885892 -0.01453711
v -0.30193127 0.00520028 0.00110008
v -0.30001854 0.00520028 0.00053705
v -0.29927735 0.00520028 -0.00102120
v -0.29891873 0.00520028 -0.00483158
v -0.29888285 0.00520028 -0.00566548
v -0.29869158 0.00520028 -0.01055629
v -0.29857201 0.00520028 -0.01444885
v -0.29877524 0.00520028 -0.01843272
v -0.31448361 0.00704239 -0.01644839
v -0.31460317 0.00517469 -0.01455233
v -0.31448361 0.00522587 -0.01821054
v -0.31451948 0.00172074 -0.01886793
v -0.31325229 0.00520028 -0.02116877
v -0.31316860 0.00520028 -0.02131790
v -0.31188946 0.00520028 -0.02224615
v -0.31355115 -0.14209188 -0.02168311
v -0.27129162 -0.18169727 -0.02651609
v -0.26046074 -0.22324712 -0.02428829
v -0.26138122 -0.22411699 -0.02366743
v -0.26217023 -0.22411699 -0.02322918
v -0.26411883 -0.22411699 -0.02157050
v -0.26448944 -0.22411699 -0.02120833
v -0.26525452 -0.22411699 -0.01884662
v -0.26544579 -0.22411699 -0.01823794
v -0.26647389 -0.22411699 -0.01464363
v -0.26667711 -0.22411699 -0.01375495
v -0.26734658 -0.22411699 -0.00924153
v -0.26778890 -0.22411699 -0.00462158
v -0.19255855 -0.25226037 -0.00842284
v -0.19255855 -0.25215805 -0.00440550
v -0.19255855 -0.25197896 -0.00161467
v -0.30541006 0.00520028 0.00134356
v -0.19255855 -0.22948983 0.00065574
v -0.29951645 0.00520028 -0.02086138
v -0.30108251 0.00520028 -0.02178659
v -0.30132157 0.00520028 -0.02192354
v -0.30152483 0.00520028 -0.02198745
v -0.30286373 0.00520028 -0.02238614
v -0.30557742 0.00520028 -0.02251397
v -0.30595997 0.00520028 -0.02252919
v -0.31029951 0.00520028 -0.02245919
v -0.31046686 0.00520028 -0.02243788
v -0.31445971 0.00520028 -0.01884967
v -0.19255855 -0.22897812 0.00053705
v -0.19255855 -0.22813383 0.00020227
v -0.19255855 -0.22798032 -0.00115815
v -0.19255855 -0.22782682 -0.00593635
v -0.19255855 -0.22790356 -0.00856284
v -0.19255855 -0.22792915 -0.00901327
v -0.19255855 -0.22826175 -0.01296974
v -0.19255855 -0.22787799 -0.00304204
v -0.19255855 -0.22782682 -0.00558027
v -0.19255855 -0.22844084 -0.01407451
v -0.19255855 -0.22900371 -0.01738882
v -0.19255855 -0.22941307 -0.01855445
v -0.19255855 -0.23028295 -0.02046269
v -0.27113618 -0.17834565 -0.02668957
v -0.25855995 -0.18197870 -0.02762390
v -0.19255855 -0.24550597 -0.02330222
v -0.19255855 -0.24798769 -0.02309831
v -0.19255855 -0.24872967 -0.02300092
v -0.19255855 -0.25034151 -0.02264179
v -0.19255855 -0.25044386 -0.02260527
v -0.19255855 -0.25123698 -0.02182006
v -0.19255855 -0.25131373 -0.02171963
v -0.19255855 -0.25185101 -0.01904140
v -0.19255855 -0.25192775 -0.01845402
v -0.19255855 -0.25215805 -0.01334408
v -0.19255855 -0.23145986 -0.02179876
v -0.19255855 -0.23156221 -0.02189006
v -0.19255855 -0.23279027 -0.02244397
v -0.19255855 -0.23586046 -0.02299483
v -0.25692215 -0.18018776 -0.02760869
v -0.19255855 -0.24003079 -0.02327787
v -0.25852408 -0.18021335 -0.02763912
v -0.25696997 -0.18195313 -0.02759347
v -0.19255855 -0.24427790 -0.02332048
f 1 2 3
f 1 3 4
f 1 4 5
f 1 5 6
f 1 6 7
f 1 7 8
f 1 8 9
f 1 9 10
f 1 10 11
f 1 11 2
f 2 11 12
f 2 12 13
f 2 13 3
f 3 14 15
f 3 15 16
f 3 16 17
f 3 17 18
f 3 18 4
f 3 13 19
f 3 19 20
f 3 20 14
f 4 18 21
f 4 21 5
f 5 21 22
f 5 22 23
f 5 23 6
f 6 24 7
f 6 23 24
f 7 24 25
f 7 25 26
f 7 26 27
f 7 27 28
f 7 28 29
f 7 29 30
f 7 30 31
f 7 31 8
f 8 31 32
f 8 32 33
f 8 33 34
f 8 34 9
f 9 34 10
f 10 34 11
f 11 34 35
f 11 35 12
f 12 35 36
f 12 36 13
f 13 36 37
f 13 37 38
f 13 38 39
f 13 39 19
f 14 20 40
f 14 40 41
f 14 41 15
f 15 41 42
f 15 42 16
f 16 18 17
f 16 42 43
f 16 43 18
f 18 43 21
f 19 39 20
f 20 39 44
f 20 44 45
f 20 45 46
f 20 46 47
f 20 47 48
f 20 48 40
f 21 41 22
f 21 43 41
f 22 49 23
f 22 41 50
f 22 50 51
f 22 51 52
f 22 52 53
f 22 53 54
f 22 54 55
f 22 55 56
f 22 56 57
f 22 57 49
f 23 49 58
f 23 58 59
f 23 59 24
f 24 59 25
f 25 59 60
f 25 60 26
f 26 61 27
f 26 60 61
f 27 61 62
f 27 62 63
f 27 63 28
f 28 63 64
f 28 64 65
f 28 65 66
f 28 66 67
f 28 67 68
f 28 68 69
f 28 69 29
f 29 69 70
f 29 70 71
f 29 71 72
f 29 72 73
f 29 73 74
f 29 74 75
f 29 75 30
f 30 75 76
f 30 76 77
f 30 77 31
f 31 77 32
f 32 77 78
f 32 78 33
f 33 78 34
f 34 78 79
f 34 79 80
f 34 80 36
f 34 36 35
f 36 80 79
f 36 79 78
f 36 78 117
f 36 117 116
f 36 116 115
f 36 115 114
f 36 114 113
f 36 113 112
f 36 112 111
f 36 111 110
f 36 110 109
f 36 109 108
f 36 108 126
f 36 126 123
f 36 123 121
f 36 121 120
f 36 120 119
f 36 119 118
f 36 118 105
f 36 105 104
f 36 104 103
f 36 103 102
f 36 102 99
f 36 99 98
f 36 98 97
f 36 97 96
f 36 96 101
f 36 101 100
f 36 100 95
f 36 95 94
f 36 94 93
f 36 93 82
f 36 82 48
f 36 48 47
f 36 47 46
f 36 46 45
f 36 45 44
f 36 44 39
f 36 39 38
f 36 38 37
f 40 81 41
f 40 48 81
f 41 43 42
f 41 81 50
f 48 82 50
f 48 50 81
f 49 57 83
f 49 83 84
f 49 84 85
f 49 85 86
f 49 86 87
f 49 87 88
f 49 88 89
f 49 89 90
f 49 90 91
f 49 91 64
f 49 64 63
f 49 63 62
f 49 62 92
f 49 92 58
f 50 82 51
f 51 82 93
f 51 93 94
f 51 94 52
f 52 94 53
f 53 94 95
f 53 95 54
f 54 95 55
f 55 95 56
f 56 96 97
f 56 97 98
f 56 98 99
f 56 99 57
f 56 95 100
f 56 100 101
f 56 101 96
f 57 99 102
f 57 102 103
f 57 103 104
f 57 104 105
f 57 105 83
f 58 60 59
f 58 92 60
f 60 92 61
f 61 92 62
f 64 91 65
f 65 91 90
f 65 90 106
f 65 106 66
f 66 106 107
f 66 107 67
f 67 108 109
f 67 109 110
f 67 110 111
f 67 111 112
f 67 112 68
f 67 107 108
f 68 112 113
f 68 113 114
f 68 114 69
f 69 114 70
f 70 114 71
f 71 114 115
f 71 115 116
f 71 116 72
f 72 116 73
f 73 116 74
f 74 116 75
f 75 116 76
f 76 116 117
f 76 117 77
f 77 117 78
f 83 105 118
f 83 118 119
f 83 119 120
f 83 120 84
f 84 120 85
f 85 120 121
f 85 121 86
f 86 121 87
f 87 122 88
f 87 121 123
f 87 123 122
f 88 122 89
f 89 122 124
f 89 124 90
f 90 124 106
f 106 124 107
f 107 124 122
f 107 122 125
f 107 125 108
f 108 125 126
f 122 123 126
f 122 126 125

