# https://github.com/mikedh/trimesh
v 0.05075766 0.48869878 -0.00677718
v 0.05081873 0.48856686 -0.00341373
v 0.05090328 0.48894870 -0.00352316
v 0.05090328 0.48933753 -0.00695859
v 0.05127437 0.48973329 -0.00998800
v 0.05118042 0.48930283 -0.00987857
v 0.08521709 0.42337085 -0.01895239
v 0.08503389 0.42337085 -0.01435069
v 0.08502919 0.42337085 -0.01000816
v 0.08502919 0.42337085 -0.00987281
v 0.08516072 0.42337085 -0.00534022
v 0.08549422 0.42337085 -0.00070109
v 0.05151393 0.48764340 -0.00174928
v 0.05207761 0.48758093 0.00185029
v 0.05424306 0.48953890 0.00369904
v 0.05361362 0.48964304 0.00138955
v 0.05500872 0.49189954 -0.01061577
v 0.05514025 0.49212866 -0.01203256
v 0.05296070 0.49075394 -0.01029900
v 0.05150923 0.48972635 -0.01107075
v 0.05153272 0.48982355 -0.01108227
v 0.08616594 0.42337085 -0.02236191
v 0.08627867 0.42337085 0.00274299
v 0.05393773 0.48575489 0.00417130
v 0.05357605 0.48775449 0.00412811
v 0.08630685 0.42337085 0.00285818
v 0.05716478 0.49035818 0.00409931
v 0.06187148 0.49256610 0.00310583
v 0.06124204 0.49271191 0.00140107
v 0.06158025 0.49351730 -0.00247496
v 0.05647428 0.48799056 0.00517631
v 0.05778483 0.49303128 -0.01080294
v 0.06135478 0.49429492 -0.01082886
v 0.05764391 0.49300350 -0.01258834
v 0.06281564 0.49337149 -0.01467033
v 0.05708493 0.49122607 -0.01333705
v 0.05346801 0.49065672 -0.01192313
v 0.06773372 0.48419963 -0.01873354
v 0.06811890 0.48206807 -0.01884296
v 0.08710540 0.42337085 -0.02354545
v 0.06722171 0.48792114 -0.01842253
v 0.08706313 0.42337085 0.00429513
v 0.08752816 0.42337085 0.00448231
v 0.08881522 0.42337085 0.00496897
v 0.06065018 0.49129549 0.00413675
v 0.06304111 0.49279522 0.00301656
v 0.06405573 0.49395471 -0.00200557
v 0.06147221 0.49396165 -0.00691540
v 0.06017106 0.48812942 0.00558810
v 0.06397118 0.49422550 -0.00627036
v 0.06385374 0.49417691 -0.01051786
v 0.06406512 0.49371170 -0.01344072
v 0.06138296 0.49382973 -0.01340040
v 0.06442681 0.49304517 -0.01487479
v 0.06703382 0.49005961 -0.01810577
v 0.06988978 0.48408157 -0.01915685
v 0.07014813 0.48056140 -0.01930947
v 0.08711949 0.42380825 -0.02353681
v 0.08731208 0.42337085 -0.02356273
v 0.07401871 0.47633304 -0.02009562
v 0.09232410 0.42337085 0.00508704
v 0.08860854 0.43949973 0.00540380
v 0.06470396 0.48413713 0.00566873
v 0.06400876 0.48810859 0.00557946
v 0.06374571 0.49155239 0.00395245
v 0.06392890 0.49323957 0.00125996
v 0.06727808 0.49040676 0.00349170
v 0.06456773 0.49267719 0.00219297
v 0.06514080 0.49311459 0.00043638
v 0.06543204 0.49329513 -0.00159378
v 0.06888925 0.48394273 0.00573208
v 0.06563872 0.49334371 -0.00572610
v 0.06771023 0.49215644 -0.00542949
v 0.06563872 0.49314932 -0.01024429
v 0.06555887 0.49282300 -0.01349543
v 0.06550719 0.49260079 -0.01482007
v 0.06795449 0.48974718 -0.01810289
v 0.06921806 0.48771285 -0.01850028
v 0.07367111 0.47997819 -0.01991132
v 0.08720874 0.42695349 -0.02346194
v 0.08898902 0.42337085 -0.02368656
v 0.07771549 0.47224355 -0.02066291
v 0.09495929 0.42337085 0.00418858
v 0.09232410 0.42378047 0.00508704
v 0.08843943 0.44319349 0.00548443
v 0.06950460 0.47989488 0.00572632
v 0.06795919 0.48785863 0.00488258
v 0.06955158 0.48953195 0.00299352
v 0.06678016 0.49188565 0.00144138
v 0.06753643 0.49217033 -0.00135765
v 0.07240284 0.48351224 0.00492865
v 0.07346913 0.47582619 0.00570616
v 0.07303227 0.47953384 0.00570328
v 0.07059437 0.49019153 -0.00109848
v 0.07058968 0.49019153 -0.00513577
v 0.06765386 0.49194121 -0.01011183
v 0.06745188 0.49156628 -0.01361062
v 0.06768675 0.49055257 -0.01641829
v 0.06985690 0.48905982 -0.01603817
v 0.06961264 0.48849741 -0.01794163
v 0.07139292 0.48615757 -0.01854060
v 0.07285848 0.48361638 -0.01908486
v 0.07726924 0.47580535 -0.02025112
v 0.08736375 0.42963354 -0.02336979
v 0.08899841 0.42403043 -0.02366928
v 0.08152500 0.46423812 -0.02138859
v 0.09108871 0.42337085 -0.02343891
v 0.08121498 0.46794574 -0.02097391
v 0.09521294 0.42337085 0.00391789
v 0.09494989 0.42387073 0.00418858
v 0.09228652 0.42784916 0.00507840
v 0.09218788 0.43184840 0.00500065
v 0.08827502 0.44717884 0.00541820
v 0.07715181 0.47176447 0.00561689
v 0.07137413 0.48710186 0.00356369
v 0.07008237 0.48986521 0.00166312
v 0.07364763 0.48531745 0.00319510
v 0.07215858 0.48793503 0.00175815
v 0.07476558 0.48299150 0.00370480
v 0.07672436 0.47535406 0.00545275
v 0.07641903 0.47921443 0.00439592
v 0.08068888 0.46773745 0.00546715
v 0.07268937 0.48842799 -0.00098041
v 0.07268937 0.48842105 -0.00497739
v 0.07039709 0.48999714 -0.01000816
v 0.07010586 0.48957359 -0.01378916
v 0.07207403 0.48776838 -0.01389858
v 0.07359126 0.48514389 -0.01641541
v 0.07315440 0.48444959 -0.01832750
v 0.07484544 0.48193615 -0.01890920
v 0.07648479 0.47913112 -0.01937570
v 0.08067010 0.47146591 -0.02025688
v 0.08762680 0.43215389 -0.02324885
v 0.08874946 0.42826573 -0.02348498
v 0.08941647 0.43221639 -0.02329204
v 0.09138934 0.43221639 -0.02311926
v 0.09157723 0.42817548 -0.02324597
v 0.09165239 0.42434289 -0.02334676
v 0.08545664 0.45605911 -0.02184357
v 0.09061898 0.43855547 -0.02288313
v 0.09004591 0.43629199 -0.02304151
v 0.09164299 0.42337085 -0.02336979
v 0.08515132 0.45979450 -0.02141450
v 0.09683351 0.42337085 0.00217858
v 0.09682412 0.42373186 0.00218146
v 0.09477140 0.42786305 0.00414539
v 0.09448017 0.43189699 0.00401868
v 0.09201878 0.43570878 0.00482499
v 0.08813411 0.45133778 0.00509568
v 0.08467689 0.45973203 0.00535772
v 0.09178861 0.43913175 0.00462629
v 0.07423479 0.48576878 0.00178406
v 0.07744305 0.48032534 0.00312311
v 0.07646600 0.48272768 0.00200868
v 0.07858449 0.47779804 0.00361553
v 0.08028021 0.47118817 0.00503520
v 0.07996080 0.47466670 0.00401292
v 0.07485952 0.48617840 -0.00100057
v 0.07485952 0.48617146 -0.00488524
v 0.07458709 0.48603259 -0.00980946
v 0.07245921 0.48821968 -0.00994193
v 0.07409387 0.48569238 -0.01392162
v 0.07614189 0.48342199 -0.01386115
v 0.07748532 0.48059613 -0.01617352
v 0.07527759 0.48254715 -0.01733690
v 0.07693104 0.47976990 -0.01831311
v 0.07829326 0.47740922 -0.01892935
v 0.07991382 0.47452783 -0.01928067
v 0.08235173 0.47073688 -0.01922884
v 0.08361530 0.46725144 -0.01987964
v 0.08490236 0.46353684 -0.02034615
v 0.09099007 0.43853464 -0.02286297
v 0.09115447 0.43628505 -0.02296376
v 0.09298642 0.42808523 -0.02200195
v 0.09307567 0.42451645 -0.02222657
v 0.08893735 0.44758847 -0.02216897
v 0.09199059 0.42337085 -0.02309623
v 0.08738254 0.45917656 -0.02028280
v 0.08824684 0.45551753 -0.02078674
v 0.09820043 0.42337085 0.00033559
v 0.09819573 0.42359997 0.00033559
v 0.09664563 0.42759226 0.00203747
v 0.09660335 0.43154984 0.00141547
v 0.09408089 0.43571572 0.00379983
v 0.09088673 0.44670671 0.00424041
v 0.09023380 0.45101143 0.00391789
v 0.08819517 0.45548283 0.00428361
v 0.08731677 0.45907242 0.00407915
v 0.08426353 0.46339798 0.00489122
v 0.07826977 0.48111687 0.00111886
v 0.07689816 0.48390801 -0.00104953
v 0.08098951 0.47561790 0.00252990
v 0.07963199 0.47845765 0.00178118
v 0.08187260 0.47304894 0.00326997
v 0.08266175 0.47066746 0.00367888
v 0.07691695 0.48390801 -0.00479885
v 0.07664920 0.48377609 -0.00965972
v 0.07798323 0.48117934 -0.01370564
v 0.08005944 0.47838126 -0.01348391
v 0.08119149 0.47590953 -0.01515987
v 0.07907301 0.47786749 -0.01678400
v 0.08061373 0.47507633 -0.01756727
v 0.08157667 0.47263931 -0.01875081
v 0.08377031 0.47041750 -0.01683872
v 0.08528284 0.46711951 -0.01730810
v 0.08586531 0.46447419 -0.01888040
v 0.08660748 0.46193992 -0.01970398
v 0.09232410 0.43614618 -0.02169383
v 0.09081627 0.44733160 -0.02110062
v 0.09139873 0.44351981 -0.02147786
v 0.09169467 0.43975663 -0.02190693
v 0.09374739 0.43033479 -0.02050453
v 0.09380845 0.42802272 -0.02072050
v 0.09381314 0.42460670 -0.02095664
v 0.09305688 0.42337085 -0.02225536
v 0.08958088 0.45539950 -0.01883432
v 0.08984863 0.45341378 -0.01979037
v 0.09030426 0.45058097 -0.02058804
v 0.09863258 0.42337085 -0.00122231
v 0.09864667 0.42350969 -0.00128566
v 0.09799845 0.42736314 0.00019449
v 0.09784343 0.42989044 0.00001883
v 0.09579071 0.43573656 0.00158825
v 0.09366283 0.43895816 0.00355793
v 0.09343267 0.44057591 0.00341971
v 0.09308037 0.44317960 0.00314038
v 0.09265761 0.44645676 0.00260765
v 0.08971710 0.45409420 0.00354642
v 0.08927556 0.45664927 0.00304823
v 0.08640080 0.46279393 0.00357233
v 0.08403806 0.46684872 0.00396685
v 0.07872541 0.48157511 -0.00110424
v 0.08172229 0.47665244 0.00039894
v 0.08069358 0.47890895 -0.00117047
v 0.07868783 0.48166536 -0.00465198
v 0.08260538 0.47410429 0.00132908
v 0.08580894 0.46510599 0.00313750
v 0.08522647 0.46770968 0.00232256
v 0.08467220 0.47042445 0.00114766
v 0.07842478 0.48156817 -0.00949270
v 0.08047750 0.47879092 -0.00930840
v 0.08148273 0.47632610 -0.01333705
v 0.08310800 0.47384742 -0.01327658
v 0.08567741 0.46851507 -0.01492374
v 0.08192897 0.47378491 -0.01649892
v 0.08632564 0.46596694 -0.01632614
v 0.08707721 0.46303002 -0.01764502
v 0.08893735 0.45875305 -0.01745497
v 0.09348434 0.43602124 -0.01983933
v 0.09361586 0.43322312 -0.02018201
v 0.09200938 0.44719273 -0.01813745
v 0.09323538 0.43969413 -0.01917412
v 0.09777768 0.42568983 -0.01135296
v 0.09789041 0.42416930 -0.01138752
v 0.09789980 0.42337085 -0.01138752
v 0.09378497 0.42337085 -0.02098831
v 0.09357358 0.42337085 -0.02135979
v 0.08997545 0.45738524 -0.01616200
v 0.09076460 0.45179602 -0.01835342
v 0.09864667 0.42337085 -0.00128854
v 0.09874062 0.42360691 -0.00484780
v 0.09836484 0.42715483 -0.00127990
v 0.09873593 0.42337085 -0.00461167
v 0.09796557 0.43065419 -0.00130870
v 0.09766963 0.43294542 -0.00136917
v 0.09728915 0.43584070 -0.00151027
v 0.09685700 0.43890957 -0.00172049
v 0.09528341 0.43888874 0.00142122
v 0.09447077 0.44190205 0.00161128
v 0.09406681 0.44631789 0.00062932
v 0.09220198 0.45087257 0.00137227
v 0.09004591 0.45880163 0.00055445
v 0.08893735 0.45878774 0.00234848
v 0.09061429 0.45523982 0.00170343
v 0.08202291 0.47695098 -0.00123094
v 0.08595925 0.46927188 -0.00005316
v 0.08546604 0.47145202 -0.00143252
v 0.08400987 0.47386822 -0.00134325
v 0.08206519 0.47694404 -0.00443601
v 0.08069828 0.47893673 -0.00449648
v 0.08828442 0.46237735 0.00101519
v 0.08651354 0.46636271 0.00113902
v 0.08185851 0.47677742 -0.00919897
v 0.08372803 0.47393073 -0.00913562
v 0.08535330 0.47123679 -0.00914138
v 0.08513253 0.47025780 -0.01356166
v 0.08587470 0.46920940 -0.01265745
v 0.08665916 0.46702232 -0.01375748
v 0.08987680 0.46096097 -0.01209591
v 0.08881991 0.46246066 -0.01347527
v 0.08955269 0.45977367 -0.01468473
v 0.09223485 0.45133084 -0.01407136
v 0.09348434 0.44893544 -0.01195193
v 0.09389770 0.44597074 -0.01279855
v 0.09429697 0.44264497 -0.01393026
v 0.09295824 0.44311710 -0.01794451
v 0.09502505 0.43932614 -0.01360198
v 0.09796087 0.42699516 -0.00911834
v 0.09826620 0.42396101 -0.00919033
v 0.09619468 0.43909702 -0.00936023
v 0.09760387 0.42825879 -0.01046314
v 0.09798436 0.42337085 -0.01089509
v 0.09018683 0.45882246 -0.01372292
v 0.09112160 0.45546200 -0.01416063
v 0.09874062 0.42337085 -0.00484780
v 0.09834605 0.42337085 -0.00849921
v 0.09842120 0.42700905 -0.00484780
v 0.09798436 0.43050143 -0.00487948
v 0.09764145 0.43288986 -0.00491691
v 0.09675366 0.43903455 -0.00501194
v 0.09621817 0.44198536 -0.00185583
v 0.09357358 0.44932426 0.00001307
v 0.09094310 0.45897522 -0.00156499
v 0.08965133 0.46096788 -0.00027202
v 0.08404276 0.47393073 -0.00442737
v 0.08919570 0.46329383 -0.00154195
v 0.08780060 0.46641826 -0.00152467
v 0.08934132 0.46341881 -0.00465198
v 0.08553180 0.47152841 -0.00445041
v 0.08748588 0.46672375 -0.00931992
v 0.09000364 0.46121784 -0.00950998
v 0.09074581 0.45922518 -0.00963956
v 0.09199530 0.45541339 -0.00975475
v 0.08919100 0.46306471 -0.00943223
v 0.09313674 0.45108783 -0.01014926
v 0.09370981 0.44951868 -0.00883901
v 0.09611483 0.44206869 -0.00504362
v 0.09552767 0.44227004 -0.00935735
v 0.09784343 0.42957106 -0.00770731
v 0.09827089 0.42337085 -0.00919033
v 0.09737371 0.43130683 -0.00920761
v 0.09496399 0.44637342 -0.00508969
v 0.09505323 0.44626928 -0.00183279
v 0.09225834 0.45517732 -0.00159954
v 0.09107462 0.45919740 -0.00488812
v 0.09013516 0.46162749 -0.00471246
v 0.08994727 0.46149557 -0.00154195
v 0.08783818 0.46661961 -0.00459151
v 0.09235698 0.45535786 -0.00507530
v 0.09390709 0.45002551 -0.00511273
f 1 2 3
f 1 3 4
f 1 4 5
f 1 5 6
f 1 6 7
f 1 7 8
f 1 8 2
f 2 8 9
f 2 9 10
f 2 10 11
f 2 11 12
f 2 12 13
f 2 13 14
f 2 14 3
f 3 14 15
f 3 15 16
f 3 16 17
f 3 17 4
f 4 17 18
f 4 18 19
f 4 19 5
f 5 20 6
f 5 19 18
f 5 18 21
f 5 21 20
f 6 20 22
f 6 22 7
f 7 22 40
f 7 40 59
f 7 59 81
f 7 81 107
f 7 107 142
f 7 142 177
f 7 177 215
f 7 215 257
f 7 257 256
f 7 256 255
f 7 255 302
f 7 302 330
f 7 330 306
f 7 306 305
f 7 305 263
f 7 263 260
f 7 260 219
f 7 219 180
f 7 180 144
f 7 144 109
f 7 109 83
f 7 83 61
f 7 61 44
f 7 44 43
f 7 43 42
f 7 42 26
f 7 26 23
f 7 23 12
f 7 12 11
f 7 11 10
f 7 10 9
f 7 9 8
f 12 23 14
f 12 14 13
f 14 24 25
f 14 25 15
f 14 23 26
f 14 26 24
f 15 27 28
f 15 28 29
f 15 29 30
f 15 30 16
f 15 25 31
f 15 31 27
f 16 30 17
f 17 30 18
f 18 30 32
f 18 32 33
f 18 33 34
f 18 34 35
f 18 35 36
f 18 36 37
f 18 37 21
f 20 21 38
f 20 38 39
f 20 39 40
f 20 40 22
f 21 37 41
f 21 41 38
f 24 31 25
f 24 26 42
f 24 42 43
f 24 43 44
f 24 44 31
f 27 45 28
f 27 31 45
f 28 46 47
f 28 47 30
f 28 30 29
f 28 45 46
f 30 47 48
f 30 48 32
f 31 49 45
f 31 44 49
f 32 48 33
f 33 48 47
f 33 47 50
f 33 50 51
f 33 51 52
f 33 52 53
f 33 53 34
f 34 53 35
f 35 53 52
f 35 52 54
f 35 54 55
f 35 55 36
f 36 55 37
f 37 55 41
f 38 41 56
f 38 56 57
f 38 57 39
f 39 57 40
f 40 58 59
f 40 57 60
f 40 60 58
f 41 55 56
f 44 61 62
f 44 62 63
f 44 63 49
f 45 49 64
f 45 64 65
f 45 65 46
f 46 66 47
f 46 65 67
f 46 67 68
f 46 68 66
f 47 66 69
f 47 69 70
f 47 70 50
f 49 63 71
f 49 71 64
f 50 70 72
f 50 72 51
f 51 72 73
f 51 73 74
f 51 74 75
f 51 75 52
f 52 75 76
f 52 76 54
f 54 76 77
f 54 77 55
f 55 77 78
f 55 78 79
f 55 79 56
f 56 79 60
f 56 60 57
f 58 80 59
f 58 60 80
f 59 80 81
f 60 79 82
f 60 82 80
f 61 83 84
f 61 84 85
f 61 85 62
f 62 85 86
f 62 86 63
f 63 86 71
f 64 71 87
f 64 87 65
f 65 87 67
f 66 68 69
f 67 88 68
f 67 87 88
f 68 89 69
f 68 88 89
f 69 89 90
f 69 90 70
f 70 90 72
f 71 91 87
f 71 86 92
f 71 92 93
f 71 93 91
f 72 90 73
f 73 94 95
f 73 95 96
f 73 96 74
f 73 90 94
f 74 96 75
f 75 96 97
f 75 97 76
f 76 97 98
f 76 98 77
f 77 99 100
f 77 100 101
f 77 101 102
f 77 102 78
f 77 98 99
f 78 102 79
f 79 103 82
f 79 102 103
f 80 104 105
f 80 105 81
f 80 82 106
f 80 106 104
f 81 105 107
f 82 103 108
f 82 108 106
f 83 109 110
f 83 110 111
f 83 111 84
f 84 111 85
f 85 111 112
f 85 112 113
f 85 113 114
f 85 114 93
f 85 93 92
f 85 92 86
f 87 91 115
f 87 115 88
f 88 116 89
f 88 115 117
f 88 117 118
f 88 118 116
f 89 116 90
f 90 116 94
f 91 119 117
f 91 117 115
f 91 93 120
f 91 120 121
f 91 121 119
f 93 114 122
f 93 122 120
f 94 116 123
f 94 123 95
f 95 123 124
f 95 124 125
f 95 125 96
f 96 125 97
f 97 125 126
f 97 126 98
f 98 126 99
f 99 126 127
f 99 127 100
f 100 127 128
f 100 128 129
f 100 129 101
f 101 129 130
f 101 130 102
f 102 130 131
f 102 131 103
f 103 131 132
f 103 132 108
f 104 133 134
f 104 134 105
f 104 106 133
f 105 134 135
f 105 135 136
f 105 136 137
f 105 137 138
f 105 138 107
f 106 108 139
f 106 139 140
f 106 140 141
f 106 141 135
f 106 135 134
f 106 134 133
f 107 138 142
f 108 132 143
f 108 143 139
f 109 144 145
f 109 145 110
f 110 145 146
f 110 146 111
f 111 146 112
f 112 146 147
f 112 147 148
f 112 148 113
f 113 149 150
f 113 150 122
f 113 122 114
f 113 148 151
f 113 151 149
f 116 118 123
f 117 152 118
f 117 119 153
f 117 153 154
f 117 154 152
f 118 152 123
f 119 121 155
f 119 155 153
f 120 122 156
f 120 156 121
f 121 156 157
f 121 157 155
f 122 150 156
f 123 158 124
f 123 152 158
f 124 158 159
f 124 159 160
f 124 160 161
f 124 161 125
f 125 161 126
f 126 161 127
f 127 162 128
f 127 161 162
f 128 162 163
f 128 163 164
f 128 164 165
f 128 165 129
f 129 165 130
f 130 165 166
f 130 166 167
f 130 167 131
f 131 167 168
f 131 168 132
f 132 169 170
f 132 170 171
f 132 171 143
f 132 168 169
f 135 141 172
f 135 172 173
f 135 173 136
f 136 173 174
f 136 174 175
f 136 175 137
f 137 175 138
f 138 175 142
f 139 143 176
f 139 176 172
f 139 172 140
f 140 172 141
f 142 175 177
f 143 178 179
f 143 179 176
f 143 171 178
f 144 180 145
f 145 180 181
f 145 181 182
f 145 182 146
f 146 182 147
f 147 182 183
f 147 183 184
f 147 184 151
f 147 151 148
f 149 185 186
f 149 186 187
f 149 187 188
f 149 188 189
f 149 189 150
f 149 151 185
f 150 189 156
f 151 184 185
f 152 154 190
f 152 190 191
f 152 191 158
f 153 155 192
f 153 192 193
f 153 193 190
f 153 190 154
f 155 157 194
f 155 194 192
f 156 189 195
f 156 195 157
f 157 195 194
f 158 191 196
f 158 196 159
f 159 196 197
f 159 197 160
f 160 197 162
f 160 162 161
f 162 197 163
f 163 197 198
f 163 198 164
f 164 199 200
f 164 200 201
f 164 201 167
f 164 167 166
f 164 166 165
f 164 198 199
f 167 201 202
f 167 202 203
f 167 203 168
f 168 203 169
f 169 204 205
f 169 205 206
f 169 206 207
f 169 207 170
f 169 203 204
f 170 207 178
f 170 178 171
f 172 208 174
f 172 174 173
f 172 176 209
f 172 209 210
f 172 210 211
f 172 211 208
f 174 208 212
f 174 212 213
f 174 213 175
f 175 214 215
f 175 215 177
f 175 213 214
f 176 179 209
f 178 207 216
f 178 216 217
f 178 217 218
f 178 218 179
f 179 218 209
f 180 219 181
f 181 219 220
f 181 220 221
f 181 221 182
f 182 221 222
f 182 222 183
f 183 222 223
f 183 223 184
f 184 223 224
f 184 224 185
f 185 224 186
f 186 224 225
f 186 225 226
f 186 226 227
f 186 227 228
f 186 228 188
f 186 188 187
f 188 228 229
f 188 229 230
f 188 230 189
f 189 230 231
f 189 231 195
f 190 232 191
f 190 193 233
f 190 233 234
f 190 234 232
f 191 232 235
f 191 235 196
f 192 194 236
f 192 236 233
f 192 233 193
f 194 195 237
f 194 237 238
f 194 238 239
f 194 239 236
f 195 231 230
f 195 230 237
f 196 235 240
f 196 240 197
f 197 240 198
f 198 240 199
f 199 240 241
f 199 241 242
f 199 242 200
f 200 243 244
f 200 244 245
f 200 245 202
f 200 202 201
f 200 242 243
f 202 245 203
f 203 245 204
f 204 244 205
f 204 245 244
f 205 246 206
f 205 244 246
f 206 246 247
f 206 247 207
f 207 248 216
f 207 247 248
f 208 211 249
f 208 249 250
f 208 250 212
f 209 218 251
f 209 251 252
f 209 252 210
f 210 252 249
f 210 249 211
f 212 250 253
f 212 253 254
f 212 254 213
f 213 254 214
f 214 254 255
f 214 255 256
f 214 256 257
f 214 257 215
f 216 248 258
f 216 258 217
f 217 258 259
f 217 259 218
f 218 259 251
f 219 260 220
f 220 261 262
f 220 262 221
f 220 260 263
f 220 263 261
f 221 262 222
f 222 264 265
f 222 265 266
f 222 266 267
f 222 267 268
f 222 268 223
f 222 262 264
f 223 268 224
f 224 268 225
f 225 268 226
f 226 268 269
f 226 269 227
f 227 270 271
f 227 271 228
f 227 269 270
f 228 271 229
f 229 272 273
f 229 273 237
f 229 237 230
f 229 271 274
f 229 274 272
f 232 234 235
f 233 275 234
f 233 236 276
f 233 276 277
f 233 277 278
f 233 278 275
f 234 275 279
f 234 279 280
f 234 280 235
f 235 280 241
f 235 241 240
f 236 239 276
f 237 273 281
f 237 281 238
f 238 281 282
f 238 282 276
f 238 276 239
f 241 280 279
f 241 279 283
f 241 283 242
f 242 283 284
f 242 284 243
f 243 284 285
f 243 285 286
f 243 286 244
f 244 286 287
f 244 287 288
f 244 288 289
f 244 289 290
f 244 290 246
f 246 290 291
f 246 291 247
f 247 291 248
f 248 291 258
f 249 253 250
f 249 252 253
f 251 259 292
f 251 292 293
f 251 293 294
f 251 294 295
f 251 295 296
f 251 296 252
f 252 296 295
f 252 295 297
f 252 297 253
f 253 298 299
f 253 299 254
f 253 297 300
f 253 300 301
f 253 301 298
f 254 299 302
f 254 302 255
f 258 291 303
f 258 303 304
f 258 304 259
f 259 304 292
f 261 263 305
f 261 305 306
f 261 306 299
f 261 299 307
f 261 307 262
f 262 307 264
f 264 307 308
f 264 308 265
f 265 308 266
f 266 308 267
f 267 308 309
f 267 309 310
f 267 310 311
f 267 311 270
f 267 270 268
f 268 270 269
f 270 312 271
f 270 311 312
f 271 312 274
f 272 313 314
f 272 314 281
f 272 281 273
f 272 274 312
f 272 312 313
f 275 278 315
f 275 315 279
f 276 316 317
f 276 317 277
f 276 282 314
f 276 314 316
f 277 317 318
f 277 318 319
f 277 319 278
f 278 319 315
f 279 315 283
f 281 314 282
f 283 315 284
f 284 315 319
f 284 319 285
f 285 319 320
f 285 320 287
f 285 287 286
f 287 320 289
f 287 289 288
f 289 321 322
f 289 322 323
f 289 323 304
f 289 304 303
f 289 303 291
f 289 291 290
f 289 320 324
f 289 324 321
f 292 304 293
f 293 325 326
f 293 326 327
f 293 327 328
f 293 328 300
f 293 300 294
f 293 304 323
f 293 323 325
f 294 300 295
f 295 300 297
f 298 307 299
f 298 301 329
f 298 329 307
f 299 306 330
f 299 330 302
f 300 328 327
f 300 327 310
f 300 310 329
f 300 329 331
f 300 331 301
f 301 331 329
f 307 329 308
f 308 329 309
f 309 329 310
f 310 327 311
f 311 327 332
f 311 332 333
f 311 333 312
f 312 333 334
f 312 334 313
f 313 335 336
f 313 336 337
f 313 337 314
f 313 334 335
f 314 337 316
f 316 318 317
f 316 337 336
f 316 336 318
f 318 336 324
f 318 324 320
f 318 320 338
f 318 338 319
f 319 338 320
f 321 336 335
f 321 335 322
f 321 324 336
f 322 335 339
f 322 339 323
f 323 339 340
f 323 340 332
f 323 332 326
f 323 326 325
f 326 332 327
f 332 340 333
f 333 340 339
f 333 339 334
f 334 339 335

