# https://github.com/mikedh/trimesh
v -0.05080451 0.31220048 -0.00625629
v -0.05080451 0.31218818 -0.00491428
v -0.05080451 0.31220048 -0.00913049
v -0.05289589 0.31181978 -0.00921621
v -0.06425710 0.30969520 -0.00960193
v -0.06757314 0.30906890 -0.00817421
v -0.05080451 0.31201627 -0.00379192
v -0.06966450 0.30866363 -0.00705721
v -0.06764851 0.30900749 -0.00455266
v -0.07356462 0.30774256 -0.00234813
v -0.05080451 0.31212679 -0.01163236
v -0.06570786 0.30941276 -0.01147164
v -0.05080451 0.31157415 -0.00116416
v -0.06759198 0.30904433 -0.01056089
v -0.07120948 0.30831977 -0.00886530
v -0.07544874 0.30738643 -0.00916799
v -0.07235879 0.30807414 -0.00531340
v -0.07124716 0.30827063 -0.00411068
v -0.07358347 0.30771802 -0.00222223
v -0.07510959 0.30743554 -0.00409997
v -0.07938654 0.30641625 -0.00454463
v -0.08324897 0.30545836 -0.00462499
v -0.08347507 0.30511448 -0.00127399
v -0.07963148 0.30607239 -0.00121238
v -0.05080451 0.31206538 -0.01353688
v -0.05291473 0.31168468 -0.01345384
v -0.06766735 0.30889696 -0.01357706
v -0.07156746 0.30809872 -0.01361992
v -0.06031929 0.31033380 -0.01343777
v -0.06327736 0.30978115 -0.01347527
v -0.06508611 0.30942503 -0.01351813
v -0.05080451 0.31111977 -0.00042753
v -0.06403100 0.30921627 -0.00118023
v -0.06721515 0.30817240 0.00010552
v -0.06408752 0.30865133 0.00020463
v -0.07554295 0.30722676 -0.01363599
v -0.07940538 0.30629345 -0.01371099
v -0.07934886 0.30644082 -0.00922960
v -0.07527917 0.30710396 -0.00136506
v -0.07162398 0.30795134 -0.00168650
v -0.08321129 0.30544606 -0.00931532
v -0.08901437 0.30391096 -0.00650808
v -0.08748823 0.30431624 -0.00487142
v -0.08935351 0.30376359 -0.00350799
v -0.08939119 0.30367764 -0.00220348
v -0.08733750 0.30407064 -0.00140792
v -0.08875059 0.30349342 -0.00075968
v -0.08624472 0.30397238 -0.00012484
v -0.08375769 0.30450045 0.00007338
v -0.08004598 0.30529869 0.00027696
v -0.07173703 0.30755834 -0.00055075
v -0.05080451 0.31194258 -0.01561820
v -0.06770503 0.30860221 -0.01815757
v -0.07160514 0.30780397 -0.01815489
v -0.07559947 0.30693205 -0.01815757
v -0.06033813 0.31003905 -0.01804506
v -0.06248603 0.30963381 -0.01807453
v -0.06429478 0.30927766 -0.01811203
v -0.05302777 0.31008820 0.00053411
v -0.05080451 0.31033380 0.00061179
v -0.06033813 0.30916713 0.00030374
v -0.05668296 0.30963381 0.00041357
v -0.06817605 0.30838116 -0.00093648
v -0.06975871 0.30775486 -0.00000430
v -0.07618354 0.30606009 0.00042160
v -0.07222690 0.30671099 0.00054214
v -0.07944306 0.30599870 -0.01822185
v -0.08326781 0.30500395 -0.01831293
v -0.08324897 0.30528642 -0.01381010
v -0.08669690 0.30451272 -0.00935818
v -0.08869407 0.30394781 -0.00935282
v -0.09125647 0.30319868 -0.00932335
v -0.09532616 0.30201974 -0.00472410
v -0.09545803 0.30170045 -0.00144542
v -0.09862335 0.30022674 -0.00014895
v -0.09577833 0.30090218 0.00006534
v -0.09187822 0.30183553 0.00027160
v -0.08792157 0.30285482 0.00037875
v -0.08432292 0.30321098 0.00086090
v -0.05080451 0.31177067 -0.01813614
v -0.05287705 0.31140224 -0.01806917
v -0.05666412 0.31071450 -0.01802899
v -0.06225993 0.30944960 -0.02072104
v -0.07175588 0.30728817 -0.02199608
v -0.07573135 0.30642852 -0.02200412
v -0.07957495 0.30550748 -0.02203359
v -0.05319734 0.30776713 0.00118234
v -0.05080451 0.30768117 0.00127342
v -0.06446435 0.30743554 0.00084215
v -0.07292402 0.30430396 0.00139396
v -0.08061121 0.30364079 0.00110734
v -0.07678646 0.30403379 0.00127342
v -0.08558528 0.30408291 -0.02131570
v -0.08786506 0.30375132 -0.01838525
v -0.08622588 0.30447588 -0.01386368
v -0.08822304 0.30392327 -0.01386904
v -0.09127530 0.30303904 -0.01386100
v -0.09525078 0.30183553 -0.01383421
v -0.09530731 0.30197063 -0.00926442
v -0.09913206 0.30077938 -0.00472678
v -0.10156257 0.29978463 -0.00205883
v -0.09952772 0.30036184 -0.00136774
v -0.10099734 0.29964956 -0.00054539
v -0.10704535 0.29711973 0.00002784
v -0.10359741 0.29818815 0.00016713
v -0.10016832 0.29912149 0.00031446
v -0.09640010 0.29941623 0.00087965
v -0.05080451 0.31145135 -0.01996298
v -0.05080451 0.31104608 -0.02204162
v -0.05289589 0.31071450 -0.02200412
v -0.05673948 0.31008820 -0.02197465
v -0.06007436 0.30956013 -0.02176036
v -0.07603281 0.30572853 -0.02374257
v -0.07978220 0.30496711 -0.02362203
v -0.05873664 0.30933907 -0.02335416
v -0.08243881 0.30440219 -0.02351488
v -0.08492584 0.30392327 -0.02306487
v -0.08349391 0.30447588 -0.02213537
v -0.08705488 0.30355484 -0.02214341
v -0.05080451 0.30327237 0.00158146
v -0.06902391 0.30442676 0.00147432
v -0.06497306 0.30441449 0.00150914
v -0.08490700 0.30033727 0.00151985
v -0.08104456 0.30037411 0.00161093
v -0.09257534 0.29980920 0.00115020
v -0.08871291 0.30015306 0.00136717
v -0.09119994 0.30246185 -0.02206037
v -0.09118110 0.30281798 -0.01841740
v -0.09511890 0.30163904 -0.01845222
v -0.09883061 0.30046010 -0.01846026
v -0.09900017 0.30063201 -0.01379403
v -0.09907554 0.30074254 -0.00919210
v -0.10124227 0.29998114 -0.00915460
v -0.10649895 0.29818815 -0.00474553
v -0.10973963 0.29704605 -0.00475892
v -0.10666852 0.29786886 -0.00148560
v -0.10290030 0.29918290 -0.00138381
v -0.10917439 0.29644429 -0.00009270
v -0.11117155 0.29517936 0.00023410
v -0.10779899 0.29565832 0.00070554
v -0.10446411 0.29608813 0.00098144
v -0.05080451 0.31067765 -0.02281575
v -0.05683368 0.30954783 -0.02347470
v -0.07211386 0.30637940 -0.02386579
v -0.08023439 0.30361622 -0.02453813
v -0.08398378 0.30334605 -0.02411222
v -0.08775201 0.30253554 -0.02403722
v -0.09161445 0.30163904 -0.02383364
v -0.09815233 0.29995657 -0.02344524
v -0.05080451 0.30195832 0.00154932
v -0.07326317 0.30014079 0.00168861
v -0.06932536 0.29996884 0.00167789
v -0.24185377 0.19032636 0.00157343
v -0.24160883 0.18676494 0.00150378
v -0.07714444 0.30030043 0.00166182
v -0.09690881 0.29645656 0.00139663
v -0.19859449 0.24147567 0.00149307
v -0.19475089 0.24127917 0.00158146
v -0.10080892 0.29638288 0.00121181
v -0.10046979 0.29941623 -0.02298183
v -0.09511890 0.30129518 -0.02205234
v -0.10079008 0.29960044 -0.02137731
v -0.10088429 0.29977236 -0.01845758
v -0.10280609 0.29912149 -0.01844954
v -0.10659316 0.29797939 -0.01373242
v -0.10926860 0.29715658 -0.00914656
v -0.11158606 0.29633376 -0.00909299
v -0.11207593 0.29618639 -0.00470803
v -0.10968310 0.29671446 -0.00144542
v -0.11201941 0.29580569 -0.00141596
v -0.11501515 0.29450392 -0.00141060
v -0.11727609 0.29296883 -0.00030431
v -0.11520356 0.29375480 -0.00004984
v -0.11567459 0.29208463 0.00059304
v -0.11211361 0.29251444 0.00097073
v -0.05080451 0.31003905 -0.02381757
v -0.05302777 0.30989168 -0.02369971
v -0.06827026 0.30688290 -0.02396490
v -0.07648500 0.30396011 -0.02473903
v -0.08839261 0.30005483 -0.02511940
v -0.09223620 0.29964956 -0.02485957
v -0.09602327 0.29917060 -0.02455688
v -0.09971614 0.29881447 -0.02397829
v -0.09538267 0.30065658 -0.02363542
v -0.10314523 0.29789340 -0.02380150
v -0.11083242 0.29531446 -0.02371578
v -0.10870336 0.29644429 -0.02326309
v -0.05080451 0.29915833 0.00142610
v -0.19833071 0.23691950 0.00160289
v -0.22500977 0.20972993 0.00165647
v -0.22941861 0.20594746 0.00164843
v -0.22446338 0.20546852 0.00162700
v -0.24183492 0.19426848 0.00156807
v -0.24324801 0.18898775 0.00154396
v -0.24324801 0.18676494 0.00149843
v -0.24030878 0.18675267 -0.02395686
v -0.23738840 0.18676494 0.00128949
v -0.10849611 0.29258813 0.00123056
v -0.19467553 0.24534410 0.00134574
v -0.20219315 0.24124232 0.00123056
v -0.20622515 0.23759494 0.00133235
v -0.21419497 0.22972298 0.00141003
v -0.22197636 0.22203524 0.00148503
v -0.20241924 0.23749670 0.00153057
v -0.20628168 0.23345634 0.00156003
v -0.21012528 0.22928088 0.00158950
v -0.10657432 0.29745129 -0.02203894
v -0.10231621 0.29893727 -0.02212198
v -0.09905670 0.30003026 -0.02213002
v -0.11103967 0.29586708 -0.02202823
v -0.10655547 0.29780745 -0.01842543
v -0.11130344 0.29630919 -0.01365206
v -0.11490211 0.29490919 -0.01347259
v -0.11490211 0.29501972 -0.00894566
v -0.11490211 0.29500742 -0.00459284
v -0.12046024 0.29247760 -0.00232134
v -0.11966891 0.29223197 -0.00098737
v -0.12790250 0.28808109 -0.00089897
v -0.13560852 0.28426180 -0.00094451
v -0.12566040 0.28892847 -0.00053736
v -0.13330991 0.28510915 -0.00062843
v -0.12292843 0.28997232 -0.00021592
v -0.13050257 0.28618986 -0.00033646
v -0.11897179 0.29154426 0.00006266
v -0.13125623 0.28418811 0.00042428
v -0.18647963 0.25266343 0.00086358
v -0.19066235 0.24906517 0.00112073
v -0.18297518 0.25316693 0.00113145
v -0.05080451 0.30771802 -0.02466135
v -0.05312198 0.30780397 -0.02455956
v -0.07260372 0.30421801 -0.02491046
v -0.08451133 0.30030043 -0.02533101
v -0.11976312 0.28871969 -0.02521047
v -0.10041326 0.29610041 -0.02506583
v -0.10399307 0.29591622 -0.02476850
v -0.10753522 0.29564602 -0.02428901
v -0.11507167 0.29391444 -0.02346399
v -0.11558039 0.29224427 -0.02449527
v -0.12713001 0.28757759 -0.02458902
v -0.12272118 0.29034074 -0.02383900
v -0.11488326 0.29441797 -0.02198001
v -0.05080451 0.29850743 0.00130288
v -0.23689854 0.18676494 0.00125467
v -0.22572574 0.21410188 0.00162968
v -0.22988964 0.21038081 0.00161628
v -0.23784061 0.20198079 0.00153860
v -0.24158998 0.19792813 0.00145021
v -0.24324801 0.19275794 0.00150914
v -0.24324801 0.18676494 0.00021535
v -0.23720001 0.18676494 -0.02303272
v -0.23550430 0.18676494 -0.02169875
v -0.23422310 0.18676494 -0.02028978
v -0.23416657 0.18676494 -0.02022013
v -0.23281000 0.18676494 -0.01783077
v -0.23147229 0.18676494 -0.01411547
v -0.23051139 0.18676494 -0.00191151
v -0.23092590 0.18676494 -0.00023467
v -0.23341294 0.18676494 0.00063590
v -0.24321033 0.18676494 -0.02422740
v -0.05080451 0.30368991 -0.02504975
v -0.05080451 0.30209342 -0.02476582
v -0.05080451 0.29971094 -0.02412294
v -0.05080451 0.29826183 -0.02341309
v -0.19810462 0.24485287 0.00106180
v -0.20952234 0.23711600 0.00089573
v -0.21357320 0.23330896 0.00096001
v -0.22150532 0.22567035 0.00111002
v -0.22553733 0.22181420 0.00117698
v -0.22600835 0.21826506 0.00148771
v -0.11119040 0.29613725 -0.01837454
v -0.11484558 0.29473725 -0.01827275
v -0.11759639 0.29377937 -0.01333063
v -0.11940514 0.29301797 -0.01328509
v -0.11976312 0.29294428 -0.00879030
v -0.12006458 0.29279691 -0.00584378
v -0.12044140 0.29256355 -0.00315173
v -0.12616911 0.28994777 -0.00455534
v -0.12901413 0.28854775 -0.00455802
v -0.12871266 0.28832672 -0.00208562
v -0.12213710 0.29136004 -0.00164096
v -0.12648941 0.28914953 -0.00153382
v -0.14046954 0.28124072 -0.00056414
v -0.13415776 0.28533021 -0.00159810
v -0.13643754 0.28443371 -0.00209098
v -0.13775642 0.28342668 -0.00158203
v -0.15925416 0.27222664 -0.00281421
v -0.17142555 0.26520206 -0.00230527
v -0.17080380 0.26464944 -0.00089362
v -0.13807671 0.28232143 -0.00042753
v -0.13474183 0.28372143 -0.00023467
v -0.18205196 0.25620028 0.00045107
v -0.18962610 0.25182832 0.00040285
v -0.19390303 0.24838973 0.00076983
v -0.05080451 0.30612150 -0.02488635
v -0.06109178 0.30421801 -0.02518636
v -0.06491654 0.30434081 -0.02513279
v -0.06876013 0.30434081 -0.02503100
v -0.08064889 0.30041096 -0.02545691
v -0.12786482 0.28461792 -0.02541941
v -0.13153883 0.28421265 -0.02522922
v -0.12356903 0.28825303 -0.02498011
v -0.11716304 0.29314077 -0.02319076
v -0.12628215 0.28897759 -0.02350417
v -0.13029533 0.28686531 -0.02386043
v -0.13491141 0.28347580 -0.02489171
v -0.11925441 0.29256355 -0.02191037
v -0.11931093 0.29285830 -0.01810399
v -0.05080451 0.29700920 0.00096537
v -0.22996500 0.21439662 0.00143949
v -0.23742610 0.20609484 0.00133503
v -0.24111896 0.20158780 0.00109663
v -0.24324801 0.19617199 0.00124931
v -0.24324801 0.18805442 -0.02432652
v -0.05080451 0.29813903 -0.02334077
v -0.05080451 0.29711973 -0.02182465
v -0.05080451 0.29568286 -0.01767809
v -0.05080451 0.29531446 -0.01442352
v -0.05080451 0.29515479 -0.01283775
v -0.05080451 0.29504426 -0.00851708
v -0.05080451 0.29509341 -0.00745633
v -0.05080451 0.29526532 -0.00452856
v -0.05080451 0.29580569 -0.00167578
v -0.05080451 0.29595303 -0.00089897
v -0.06896738 0.30043553 -0.02542477
v -0.05314082 0.30382501 -0.02511672
v -0.20537729 0.24064057 0.00074572
v -0.21249925 0.23626863 0.00000909
v -0.21662547 0.23244932 0.00010820
v -0.22065747 0.22870369 0.00012159
v -0.22463296 0.22490893 0.00016713
v -0.22849539 0.22091770 0.00020731
v -0.22939976 0.21787207 0.00110198
v -0.12223131 0.29160567 -0.01801828
v -0.12230668 0.29175304 -0.01325027
v -0.12228783 0.29181443 -0.00881441
v -0.12618796 0.29004600 -0.00881441
v -0.12196753 0.29190041 -0.00452052
v -0.12899528 0.28869512 -0.00878226
v -0.13089825 0.28774950 -0.00875548
v -0.13385629 0.28627582 -0.00869923
v -0.13383746 0.28612845 -0.00454463
v -0.16858053 0.26553364 -0.00059093
v -0.17351692 0.26256170 -0.00046235
v -0.13687089 0.28455651 -0.00454195
v -0.14389862 0.28049159 -0.00246331
v -0.17155744 0.26549680 -0.00463302
v -0.15149161 0.27647578 -0.00288118
v -0.15168002 0.27661088 -0.00494375
v -0.17858518 0.26095292 -0.00246599
v -0.19043626 0.25261429 -0.00059896
v -0.17304588 0.26380206 -0.00165971
v -0.18874057 0.25340026 -0.00039003
v -0.18504771 0.25530379 -0.00016234
v -0.19239575 0.25089501 -0.00020252
v -0.19695531 0.24759148 0.00004927
v -0.20126994 0.24406690 0.00045107
v -0.05717282 0.30402149 -0.02518101
v -0.07284866 0.30047237 -0.02549977
v -0.07676762 0.30046010 -0.02551316
v -0.08854334 0.29595303 -0.02555602
v -0.13174609 0.28023369 -0.02564709
v -0.13551432 0.28040563 -0.02552656
v -0.13903761 0.28017230 -0.02528280
v -0.12841121 0.28819162 -0.02318541
v -0.12223131 0.29128636 -0.02185411
v -0.13398819 0.28523195 -0.02366489
v -0.14235365 0.27959509 -0.02483010
v -0.13809556 0.28278808 -0.02402383
v -0.23669129 0.20961940 0.00082072
v -0.23307379 0.21391767 0.00094126
v -0.24324801 0.20109657 0.00009481
v -0.24324801 0.19920533 0.00065733
v -0.24053489 0.20517378 0.00027963
v -0.24324801 0.19171409 -0.02414705
v -0.24121317 0.19355620 -0.02431580
v -0.23288537 0.20566501 -0.02457027
v -0.21758636 0.22156857 -0.02506851
v -0.21366740 0.22562122 -0.02516226
v -0.19019134 0.24460726 -0.02555602
v -0.08460554 0.29594076 -0.02556941
v -0.08068658 0.29603902 -0.02549173
v -0.20829767 0.23974408 -0.00009538
v -0.21494860 0.23465985 -0.00035788
v -0.21087891 0.23815986 -0.00043824
v -0.21905598 0.23086510 -0.00032306
v -0.22305031 0.22715632 -0.00034449
v -0.22691274 0.22327559 -0.00028824
v -0.23056792 0.21932120 -0.00025878
v -0.23218825 0.21690189 0.00012159
v -0.12603722 0.28960392 -0.02177108
v -0.12605606 0.28988636 -0.01794863
v -0.12615028 0.29000916 -0.01321276
v -0.12893876 0.28869512 -0.01318062
v -0.13084172 0.28778635 -0.01315919
v -0.13379978 0.28632494 -0.01312973
v -0.13692740 0.28466704 -0.00865905
v -0.14425661 0.28077406 -0.00888941
v -0.14150580 0.28207580 -0.00467052
v -0.17148208 0.26564417 -0.00866976
v -0.17362997 0.26437924 -0.00865369
v -0.17372416 0.26419506 -0.00461695
v -0.15171770 0.27674595 -0.00890280
v -0.17677644 0.26229153 -0.00449909
v -0.18062004 0.25988451 -0.00436516
v -0.18817533 0.25509500 -0.00433569
v -0.19122759 0.25315466 -0.00435444
v -0.19806693 0.24850025 -0.00236420
v -0.19085078 0.25285992 -0.00155257
v -0.19755823 0.24823008 -0.00111862
v -0.20208009 0.24488972 -0.00069004
v -0.19514655 0.24932307 -0.00041146
v -0.20042208 0.24576164 -0.00038199
v -0.20394536 0.24317041 -0.00029895
v -0.12778944 0.27987756 -0.02565513
v -0.13532590 0.27613192 -0.02567656
v -0.16684715 0.26119855 -0.02552388
v -0.17067190 0.26133362 -0.02528548
v -0.16662106 0.26485820 -0.02514083
v -0.16251369 0.26822314 -0.02484886
v -0.13638101 0.28422495 -0.02330863
v -0.13359252 0.28605476 -0.02174161
v -0.13065331 0.28747933 -0.02172554
v -0.14152465 0.28127756 -0.02372918
v -0.15009737 0.27568981 -0.02456492
v -0.14551897 0.27888280 -0.02396758
v -0.23571155 0.21266503 -0.00003377
v -0.23868845 0.20879660 -0.00009002
v -0.24324801 0.20130534 0.00001445
v -0.24240016 0.20346675 -0.00034717
v -0.24324801 0.19494393 -0.02354703
v -0.24104359 0.19704392 -0.02390597
v -0.23637099 0.20525974 -0.02391400
v -0.23245202 0.20992643 -0.02425151
v -0.23695506 0.20104744 -0.02436670
v -0.22872148 0.21401591 -0.02447652
v -0.22502861 0.21776155 -0.02467742
v -0.22131691 0.22167910 -0.02485153
v -0.21754869 0.22564578 -0.02498814
v -0.21359203 0.22940368 -0.02507922
v -0.20971077 0.22929317 -0.02523994
v -0.19816113 0.24124232 -0.02542744
v -0.19420450 0.24475462 -0.02541941
v -0.20656429 0.24157391 -0.00055343
v -0.21315869 0.23683354 -0.00104898
v -0.21734144 0.23306335 -0.00090701
v -0.22142996 0.22930544 -0.00091237
v -0.22915483 0.22145805 -0.00094183
v -0.22529239 0.22547385 -0.00099808
v -0.23294190 0.21752822 -0.00167311
v -0.23401584 0.21534224 -0.00035521
v -0.12890108 0.28856005 -0.01792720
v -0.13078519 0.28767582 -0.01793256
v -0.13364904 0.28627582 -0.01796470
v -0.14129856 0.28229686 -0.01819507
v -0.14146812 0.28229686 -0.01329848
v -0.14425661 0.28081090 -0.01338420
v -0.17142555 0.26566874 -0.01316723
v -0.17685180 0.26238976 -0.00852511
v -0.17351692 0.26440381 -0.01316455
v -0.17862287 0.26128450 -0.01136449
v -0.15162351 0.27674595 -0.01327169
v -0.15375255 0.27556701 -0.01323151
v -0.15921648 0.27250912 -0.01318866
v -0.18062004 0.26003188 -0.00839118
v -0.18418100 0.25778450 -0.00838314
v -0.18821301 0.25521783 -0.00841261
v -0.19120876 0.25327746 -0.00845815
v -0.19601324 0.24996167 -0.00441069
v -0.20008293 0.24723533 -0.00441069
v -0.20285259 0.24534410 -0.00434909
v -0.20443524 0.24373532 -0.00153649
v -0.20249461 0.24511076 -0.00156060
v -0.19972495 0.24706340 -0.00167846
v -0.19614513 0.24943360 -0.00166507
v -0.17425172 0.26096522 -0.02488635
v -0.16991826 0.26436697 -0.02457563
v -0.15814254 0.27158805 -0.02427830
v -0.14372907 0.28034422 -0.02337024
v -0.14122319 0.28211264 -0.02186751
v -0.13673899 0.28443371 -0.02178179
v -0.15331920 0.27480561 -0.02379346
v -0.14924951 0.27716352 -0.02361667
v -0.23767102 0.21073696 -0.00047039
v -0.24324801 0.20317203 -0.00170257
v -0.24143926 0.20603344 -0.00163025
v -0.24270162 0.20408080 -0.00167578
v -0.24324801 0.19689657 -0.02295236
v -0.23863193 0.20489132 -0.02283986
v -0.23573039 0.20905449 -0.02303808
v -0.23203753 0.21370890 -0.02326309
v -0.22823161 0.21749138 -0.02379346
v -0.22455760 0.22126155 -0.02413633
v -0.22084589 0.22516683 -0.02432920
v -0.21698345 0.22893703 -0.02444973
v -0.20963540 0.23317388 -0.02510333
v -0.20573527 0.23711600 -0.02508458
v -0.20183517 0.24091075 -0.02502297
v -0.19778432 0.24444760 -0.02492386
v -0.20701647 0.24181952 -0.00153649
v -0.21355437 0.23701776 -0.00214991
v -0.21777478 0.23339494 -0.00216062
v -0.22184447 0.22951421 -0.00206419
v -0.22939976 0.22164225 -0.00218741
v -0.23069981 0.22002120 -0.00161150
v -0.22555618 0.22567035 -0.00206687
v -0.23311147 0.21777382 -0.00470803
v -0.23458108 0.21600539 -0.00468660
v -0.23437382 0.21574751 -0.00165703
v -0.23638983 0.21316855 -0.00164364
v -0.14421892 0.28073722 -0.01825668
v -0.16886315 0.26695821 -0.01802363
v -0.17129366 0.26557048 -0.01804506
v -0.17338503 0.26433013 -0.01810667
v -0.15915997 0.27241086 -0.01803167
v -0.17711557 0.26202136 -0.01842811
v -0.17720978 0.26213189 -0.01304133
v -0.18604629 0.25660556 -0.01309758
v -0.15369603 0.27545648 -0.01809596
v -0.18825069 0.25520553 -0.01315383
v -0.19111455 0.25331430 -0.01322884
v -0.19309288 0.25200026 -0.01329312
v -0.19316824 0.25195115 -0.00851708
v -0.19801041 0.24865990 -0.00695542
v -0.20272069 0.24538094 -0.00865637
v -0.20479322 0.24391953 -0.00427676
v -0.19793504 0.24872131 -0.01003855
v -0.18180703 0.25667924 -0.02456760
v -0.16567900 0.26752312 -0.02404526
v -0.17764313 0.26030205 -0.02403722
v -0.17295169 0.26356873 -0.02380686
v -0.16901387 0.26603714 -0.02362203
v -0.15130321 0.27625472 -0.02328988
v -0.15895271 0.27212842 -0.02301130
v -0.14406820 0.28054070 -0.02191840
v -0.14602768 0.27946002 -0.02193715
v -0.17095452 0.26517751 -0.02333005
v -0.15727585 0.27291439 -0.02334613
v -0.23787827 0.21114223 -0.00163560
v -0.23978124 0.20848957 -0.00162489
v -0.24324801 0.20335623 -0.00234545
v -0.24292771 0.20440010 -0.00464642
v -0.24324801 0.19738779 -0.02277557
v -0.23776524 0.20715098 -0.02249164
v -0.23407237 0.21223521 -0.02270861
v -0.23036066 0.21707382 -0.02275414
v -0.22755334 0.22029137 -0.02291219
v -0.22386047 0.22424578 -0.02309969
v -0.22007340 0.22811422 -0.02325237
v -0.21607907 0.23195808 -0.02333809
v -0.21298913 0.23274405 -0.02446849
v -0.20897597 0.23651424 -0.02445777
v -0.20500048 0.24022302 -0.02428901
v -0.20115688 0.24398093 -0.02376132
v -0.19678573 0.24741954 -0.02361131
v -0.20728026 0.24199145 -0.00423122
v -0.21359203 0.23701776 -0.00349995
v -0.21779361 0.23344405 -0.00445355
v -0.22191983 0.22960018 -0.00437587
v -0.23120852 0.21980014 -0.00460356
v -0.22380394 0.22763526 -0.00434373
v -0.23299843 0.21774926 -0.00916799
v -0.23452455 0.21596855 -0.00920013
v -0.23648404 0.21347557 -0.00920817
v -0.23657824 0.21343872 -0.00464642
v -0.23804785 0.21144924 -0.00461427
v -0.15360182 0.27528457 -0.02189162
v -0.15706859 0.27336877 -0.02182197
v -0.16447316 0.26916875 -0.02181661
v -0.16875010 0.26671261 -0.02190233
v -0.17110525 0.26534943 -0.02195323
v -0.17323430 0.26410907 -0.02199073
v -0.17845330 0.26106345 -0.02102641
v -0.17845330 0.26110029 -0.02045050
v -0.18597091 0.25650730 -0.01817364
v -0.18817533 0.25510730 -0.01819507
v -0.19100150 0.25325289 -0.01821382
v -0.19297983 0.25193885 -0.01820310
v -0.19590020 0.25008447 -0.01338420
v -0.19639007 0.24976518 -0.00851976
v -0.20258880 0.24534410 -0.01355028
v -0.20468018 0.24393182 -0.00860012
v -0.19785968 0.24872131 -0.01344045
v -0.20008293 0.24713708 -0.01350206
v -0.20718605 0.24200374 -0.00856529
v -0.18090266 0.25866869 -0.02363542
v -0.18502886 0.25578274 -0.02366757
v -0.17617352 0.26186169 -0.02352292
v -0.17832141 0.26085469 -0.02248628
v -0.17702137 0.26182485 -0.02185947
v -0.24013922 0.20848957 -0.00458481
v -0.24324801 0.20387203 -0.00467052
v -0.24155231 0.20629134 -0.00919210
v -0.24287118 0.20430185 -0.00920013
v -0.24324801 0.20368781 -0.00921085
v -0.23996965 0.20864923 -0.00919478
v -0.24324801 0.19840709 -0.02208448
v -0.24268277 0.19888603 -0.02249699
v -0.24042184 0.20444922 -0.02081747
v -0.23819859 0.20786326 -0.02107998
v -0.23678550 0.21001240 -0.02112016
v -0.23456224 0.21324222 -0.02111748
v -0.23299843 0.21467908 -0.02190769
v -0.22947513 0.21878084 -0.02242199
v -0.22597067 0.22268612 -0.02258807
v -0.22235318 0.22652999 -0.02268986
v -0.21856611 0.23030018 -0.02283718
v -0.21438336 0.23426686 -0.02284254
v -0.21206591 0.23570372 -0.02331130
v -0.20415262 0.24243356 -0.02317469
v -0.20790201 0.23933881 -0.02323362
v -0.19963075 0.24594586 -0.02315594
v -0.19505236 0.24945814 -0.02301933
v -0.21523121 0.23559319 -0.00464106
v -0.20899480 0.24040724 -0.01354224
v -0.21136878 0.23846688 -0.01356635
v -0.21762405 0.23334581 -0.00972247
v -0.22182562 0.22958790 -0.00726882
v -0.21330941 0.23683354 -0.01357706
v -0.21540079 0.23506512 -0.01360117
v -0.23066211 0.22025453 -0.00849565
v -0.22546197 0.22568262 -0.00999570
v -0.23075633 0.21982471 -0.01363331
v -0.23279117 0.21761417 -0.01372975
v -0.23433616 0.21583346 -0.01375385
v -0.23627679 0.21332820 -0.01375385
v -0.23799133 0.21144924 -0.00920549
v -0.18572597 0.25634766 -0.02179251
v -0.18815648 0.25478799 -0.02172018
v -0.19073773 0.25309325 -0.02165589
v -0.19273489 0.25174236 -0.02163179
v -0.19576832 0.25001078 -0.01819239
v -0.20241924 0.24523357 -0.01828614
v -0.20452945 0.24390725 -0.01354224
v -0.19774663 0.24861078 -0.01819239
v -0.20002642 0.24697744 -0.01823793
v -0.20705417 0.24195461 -0.01354224
v -0.18847680 0.25395290 -0.02316130
v -0.18333316 0.25736695 -0.02322559
v -0.24138273 0.20604571 -0.01371367
v -0.24272046 0.20401938 -0.01365742
v -0.24324801 0.20317203 -0.01364403
v -0.23778408 0.21127731 -0.01375385
v -0.23955515 0.20874747 -0.01374314
v -0.24324801 0.19986850 -0.02066479
v -0.24209869 0.20277903 -0.01963619
v -0.23723767 0.21077380 -0.01900402
v -0.23354481 0.21529311 -0.02032460
v -0.22983311 0.21918612 -0.02121392
v -0.22843886 0.22083173 -0.02121124
v -0.22642287 0.22311595 -0.02120052
v -0.22474600 0.22495806 -0.02120320
v -0.22284305 0.22695982 -0.02125677
v -0.22094008 0.22890019 -0.02132374
v -0.21907481 0.23069317 -0.02140142
v -0.21688924 0.23276861 -0.02146839
v -0.21481672 0.23468440 -0.02149518
v -0.21285724 0.23644056 -0.02151125
v -0.21042673 0.23775460 -0.02282111
v -0.20620631 0.24130374 -0.02274611
v -0.20187284 0.24480375 -0.02258539
v -0.19041743 0.25293360 -0.02279968
v -0.20884408 0.24030900 -0.01832900
v -0.21118037 0.23838091 -0.01832632
v -0.21747331 0.23325985 -0.01363331
v -0.22169374 0.22953878 -0.01048857
v -0.21315869 0.23671073 -0.01831025
v -0.22531123 0.22557211 -0.01349670
v -0.22683738 0.22345981 -0.01798077
v -0.22885337 0.22131068 -0.01796470
v -0.22506630 0.22533876 -0.01799953
v -0.23037950 0.21965277 -0.01795667
v -0.23243319 0.21730716 -0.01794060
v -0.23394048 0.21555101 -0.01790309
v -0.23612606 0.21267731 -0.01773970
v -0.23753914 0.21106854 -0.01627983
v -0.19548570 0.24978972 -0.02161036
v -0.20219315 0.24504936 -0.02114159
v -0.20432219 0.24380900 -0.01831561
v -0.20690343 0.24183181 -0.01833436
v -0.19748286 0.24836515 -0.02160500
v -0.24108127 0.20545624 -0.01754415
v -0.23865077 0.20912817 -0.01762987
v -0.24324801 0.20241061 -0.01606821
v -0.24324801 0.20153867 -0.01831025
v -0.22318218 0.22727912 -0.01805310
v -0.22127923 0.22921948 -0.01810935
v -0.21941396 0.23103702 -0.01816292
v -0.21726607 0.23308792 -0.01821650
v -0.21517470 0.23495459 -0.01826203
v -0.21087891 0.23814758 -0.02151393
v -0.20856146 0.24005110 -0.02152196
v -0.20360623 0.24379672 -0.02173893
v -0.20034672 0.24620376 -0.02176304
v -0.20660198 0.24158619 -0.02154071
v -0.21964005 0.23123352 -0.01357974
v -0.22154300 0.22942826 -0.01352349
v -0.22342712 0.22751246 -0.01351010
v -0.24240016 0.20335623 -0.01741826
v -0.24324801 0.20199307 -0.01735665
f 1 2 7
f 1 7 13
f 1 13 32
f 1 32 60
f 1 60 88
f 1 88 120
f 1 120 150
f 1 150 188
f 1 188 242
f 1 242 308
f 1 308 323
f 1 323 322
f 1 322 321
f 1 321 320
f 1 320 319
f 1 319 318
f 1 318 317
f 1 317 316
f 1 316 315
f 1 315 314
f 1 314 263
f 1 263 262
f 1 262 261
f 1 261 260
f 1 260 294
f 1 294 229
f 1 229 176
f 1 176 142
f 1 142 109
f 1 109 108
f 1 108 80
f 1 80 52
f 1 52 25
f 1 25 11
f 1 11 3
f 1 3 4
f 1 4 5
f 1 5 6
f 1 6 2
f 2 6 8
f 2 8 9
f 2 9 10
f 2 10 7
f 3 11 4
f 4 11 12
f 4 12 5
f 5 12 6
f 6 12 8
f 7 10 13
f 8 12 14
f 8 14 15
f 8 15 16
f 8 16 17
f 8 17 18
f 8 18 9
f 9 18 10
f 10 19 13
f 10 18 17
f 10 17 20
f 10 20 21
f 10 21 22
f 10 22 23
f 10 23 24
f 10 24 19
f 11 25 26
f 11 26 12
f 12 27 28
f 12 28 14
f 12 26 29
f 12 29 30
f 12 30 31
f 12 31 27
f 13 19 33
f 13 33 34
f 13 34 35
f 13 35 32
f 14 28 15
f 15 28 16
f 16 20 17
f 16 28 36
f 16 36 37
f 16 37 38
f 16 38 21
f 16 21 20
f 19 24 39
f 19 39 40
f 19 40 33
f 21 38 22
f 22 38 41
f 22 41 42
f 22 42 43
f 22 43 44
f 22 44 45
f 22 45 23
f 23 45 46
f 23 46 47
f 23 47 48
f 23 48 24
f 24 48 49
f 24 49 50
f 24 50 51
f 24 51 39
f 25 52 29
f 25 29 26
f 27 31 53
f 27 53 28
f 28 53 54
f 28 54 55
f 28 55 36
f 29 52 56
f 29 56 30
f 30 57 31
f 30 56 57
f 31 57 58
f 31 58 53
f 32 59 60
f 32 35 61
f 32 61 62
f 32 62 59
f 33 40 63
f 33 63 34
f 34 63 64
f 34 64 65
f 34 65 66
f 34 66 35
f 35 66 61
f 36 55 37
f 37 55 67
f 37 67 68
f 37 68 69
f 37 69 41
f 37 41 38
f 39 51 40
f 40 51 63
f 41 69 70
f 41 70 42
f 42 44 43
f 42 70 71
f 42 71 72
f 42 72 73
f 42 73 44
f 44 73 45
f 45 47 46
f 45 73 74
f 45 74 47
f 47 74 75
f 47 75 48
f 48 75 76
f 48 76 49
f 49 76 77
f 49 77 78
f 49 78 50
f 50 78 79
f 50 79 65
f 50 65 64
f 50 64 51
f 51 64 63
f 52 80 81
f 52 81 82
f 52 82 56
f 53 58 83
f 53 83 54
f 54 84 85
f 54 85 55
f 54 83 84
f 55 85 86
f 55 86 67
f 56 82 83
f 56 83 57
f 57 83 58
f 59 62 61
f 59 61 66
f 59 66 60
f 60 87 88
f 60 66 89
f 60 89 90
f 60 90 87
f 65 79 91
f 65 91 66
f 66 91 92
f 66 92 89
f 67 86 93
f 67 93 68
f 68 93 94
f 68 94 95
f 68 95 69
f 69 95 70
f 70 95 96
f 70 96 71
f 71 96 97
f 71 97 72
f 72 97 98
f 72 98 99
f 72 99 73
f 73 99 100
f 73 100 101
f 73 101 74
f 74 101 102
f 74 102 103
f 74 103 75
f 75 103 104
f 75 104 105
f 75 105 76
f 76 105 106
f 76 106 77
f 77 79 78
f 77 106 107
f 77 107 79
f 79 107 91
f 80 108 83
f 80 83 81
f 81 83 82
f 83 108 109
f 83 109 110
f 83 110 111
f 83 111 112
f 83 112 84
f 84 113 114
f 84 114 85
f 84 112 115
f 84 115 113
f 85 114 116
f 85 116 86
f 86 116 117
f 86 117 118
f 86 118 119
f 86 119 93
f 87 90 88
f 88 90 121
f 88 121 122
f 88 122 120
f 89 92 90
f 90 92 123
f 90 123 124
f 90 124 121
f 91 107 125
f 91 125 126
f 91 126 92
f 92 126 123
f 93 119 127
f 93 127 94
f 94 127 128
f 94 128 96
f 94 96 95
f 96 128 97
f 97 128 129
f 97 129 98
f 98 129 130
f 98 130 131
f 98 131 99
f 99 131 132
f 99 132 100
f 100 132 133
f 100 133 134
f 100 134 101
f 101 134 135
f 101 135 136
f 101 136 137
f 101 137 102
f 102 137 103
f 103 137 136
f 103 136 138
f 103 138 104
f 104 138 139
f 104 139 140
f 104 140 105
f 105 107 106
f 105 140 107
f 107 140 141
f 107 141 125
f 109 142 143
f 109 143 115
f 109 115 110
f 110 115 111
f 111 115 112
f 113 115 144
f 113 144 145
f 113 145 146
f 113 146 147
f 113 147 114
f 114 147 116
f 115 143 144
f 116 147 148
f 116 148 117
f 117 148 149
f 117 149 127
f 117 127 119
f 117 119 118
f 120 122 151
f 120 151 152
f 120 152 153
f 120 153 154
f 120 154 150
f 121 124 155
f 121 155 122
f 122 155 151
f 123 126 156
f 123 156 157
f 123 157 124
f 124 157 158
f 124 158 155
f 125 141 159
f 125 159 126
f 126 159 156
f 127 149 160
f 127 160 161
f 127 161 128
f 128 161 129
f 129 161 162
f 129 162 130
f 130 162 163
f 130 163 131
f 131 163 164
f 131 164 165
f 131 165 132
f 132 165 133
f 133 165 166
f 133 166 134
f 134 166 135
f 135 166 167
f 135 167 168
f 135 168 136
f 136 168 169
f 136 169 138
f 138 169 170
f 138 170 171
f 138 171 172
f 138 172 173
f 138 173 139
f 139 173 174
f 139 174 140
f 140 174 175
f 140 175 141
f 141 175 159
f 142 176 177
f 142 177 143
f 143 177 144
f 144 178 179
f 144 179 145
f 144 177 178
f 145 180 181
f 145 181 147
f 145 147 146
f 145 179 180
f 147 181 182
f 147 182 148
f 148 182 183
f 148 183 184
f 148 184 149
f 149 184 185
f 149 185 186
f 149 186 187
f 149 187 160
f 150 154 188
f 151 155 158
f 151 158 189
f 151 189 190
f 151 190 152
f 152 190 191
f 152 191 192
f 152 192 153
f 153 191 193
f 153 193 194
f 153 194 154
f 153 192 191
f 154 194 195
f 154 195 196
f 154 196 197
f 154 197 188
f 156 159 198
f 156 198 157
f 157 199 200
f 157 200 201
f 157 201 202
f 157 202 203
f 157 203 204
f 157 204 158
f 157 198 199
f 158 204 205
f 158 205 206
f 158 206 189
f 159 175 198
f 160 207 208
f 160 208 162
f 160 162 209
f 160 209 161
f 160 187 207
f 161 209 162
f 162 208 207
f 162 207 210
f 162 210 211
f 162 211 164
f 162 164 163
f 164 211 165
f 165 211 212
f 165 212 166
f 166 212 167
f 167 212 213
f 167 213 214
f 167 214 168
f 168 170 169
f 168 214 215
f 168 215 216
f 168 216 170
f 170 216 171
f 171 217 172
f 171 216 217
f 172 217 218
f 172 218 219
f 172 219 220
f 172 220 173
f 173 220 221
f 173 221 222
f 173 222 223
f 173 223 224
f 173 224 174
f 174 224 225
f 174 225 226
f 174 226 175
f 175 226 227
f 175 227 228
f 175 228 199
f 175 199 198
f 176 229 230
f 176 230 231
f 176 231 179
f 176 179 178
f 176 178 177
f 179 231 232
f 179 232 180
f 180 232 233
f 180 233 234
f 180 234 181
f 181 234 235
f 181 235 182
f 182 235 236
f 182 236 183
f 183 236 185
f 183 185 184
f 185 236 186
f 186 237 187
f 186 236 238
f 186 238 239
f 186 239 240
f 186 240 237
f 187 237 241
f 187 241 210
f 187 210 207
f 188 197 243
f 188 243 242
f 189 206 244
f 189 244 190
f 190 244 191
f 191 244 245
f 191 245 193
f 193 246 247
f 193 247 248
f 193 248 194
f 193 245 246
f 194 248 312
f 194 312 372
f 194 372 371
f 194 371 428
f 194 428 484
f 194 484 540
f 194 540 591
f 194 591 594
f 194 594 641
f 194 641 683
f 194 683 699
f 194 699 684
f 194 684 644
f 194 644 596
f 194 596 542
f 194 542 487
f 194 487 430
f 194 430 374
f 194 374 313
f 194 313 249
f 194 249 195
f 195 249 196
f 196 250 251
f 196 251 252
f 196 252 253
f 196 253 254
f 196 254 255
f 196 255 256
f 196 256 257
f 196 257 258
f 196 258 243
f 196 243 197
f 196 249 259
f 196 259 260
f 196 260 261
f 196 261 262
f 196 262 263
f 196 263 250
f 199 228 227
f 199 227 264
f 199 264 200
f 200 264 265
f 200 265 201
f 201 265 266
f 201 266 267
f 201 267 268
f 201 268 202
f 202 268 203
f 203 206 205
f 203 205 204
f 203 268 269
f 203 269 244
f 203 244 206
f 210 241 270
f 210 270 211
f 211 270 212
f 212 270 271
f 212 271 213
f 213 271 272
f 213 272 214
f 214 272 273
f 214 273 274
f 214 274 215
f 215 274 275
f 215 275 276
f 215 276 216
f 216 276 277
f 216 277 278
f 216 278 279
f 216 279 280
f 216 280 217
f 217 280 281
f 217 281 218
f 218 281 219
f 219 282 221
f 219 221 220
f 219 281 279
f 219 279 283
f 219 283 284
f 219 284 285
f 219 285 286
f 219 286 287
f 219 287 288
f 219 288 282
f 221 223 222
f 221 282 289
f 221 289 223
f 223 289 290
f 223 290 224
f 224 290 225
f 225 290 289
f 225 289 291
f 225 291 226
f 226 291 292
f 226 292 293
f 226 293 264
f 226 264 227
f 229 294 295
f 229 295 296
f 229 296 297
f 229 297 230
f 230 297 231
f 231 297 298
f 231 298 232
f 232 298 299
f 232 299 233
f 233 299 300
f 233 300 301
f 233 301 234
f 234 301 235
f 235 301 238
f 235 238 236
f 237 302 241
f 237 240 303
f 237 303 302
f 238 301 239
f 239 304 240
f 239 301 300
f 239 300 305
f 239 305 304
f 240 304 303
f 241 302 306
f 241 306 307
f 241 307 271
f 241 271 270
f 242 243 308
f 243 258 308
f 244 269 245
f 245 269 309
f 245 309 246
f 246 310 247
f 246 309 310
f 247 311 312
f 247 312 248
f 247 310 311
f 249 313 259
f 250 263 314
f 250 314 251
f 251 314 315
f 251 315 252
f 252 315 253
f 253 315 316
f 253 316 254
f 254 316 255
f 255 316 317
f 255 317 318
f 255 318 256
f 256 319 320
f 256 320 321
f 256 321 257
f 256 318 319
f 257 321 322
f 257 322 323
f 257 323 308
f 257 308 258
f 259 313 260
f 260 324 325
f 260 325 294
f 260 313 324
f 264 326 265
f 264 293 326
f 265 327 328
f 265 328 266
f 265 326 327
f 266 328 268
f 266 268 267
f 268 328 329
f 268 329 330
f 268 330 331
f 268 331 332
f 268 332 309
f 268 309 269
f 271 307 273
f 271 273 272
f 273 307 333
f 273 333 334
f 273 334 274
f 274 334 335
f 274 335 275
f 275 335 336
f 275 336 337
f 275 337 276
f 276 337 277
f 277 337 336
f 277 336 338
f 277 338 278
f 278 338 339
f 278 339 340
f 278 340 341
f 278 341 279
f 279 341 284
f 279 284 283
f 279 281 280
f 282 288 342
f 282 342 343
f 282 343 291
f 282 291 289
f 284 344 345
f 284 345 286
f 284 286 285
f 284 341 344
f 286 346 287
f 286 345 347
f 286 347 348
f 286 348 346
f 287 346 349
f 287 349 350
f 287 350 351
f 287 351 288
f 288 351 350
f 288 350 352
f 288 352 343
f 288 343 342
f 291 343 292
f 292 343 353
f 292 353 352
f 292 352 354
f 292 354 355
f 292 355 293
f 293 355 356
f 293 356 326
f 294 325 357
f 294 357 295
f 295 357 358
f 295 358 359
f 295 359 296
f 296 359 298
f 296 298 297
f 298 359 360
f 298 360 361
f 298 361 299
f 299 361 362
f 299 362 300
f 300 362 363
f 300 363 305
f 302 303 364
f 302 364 365
f 302 365 306
f 303 304 364
f 304 366 364
f 304 305 366
f 305 363 367
f 305 367 368
f 305 368 366
f 306 365 307
f 307 365 333
f 309 332 310
f 310 369 311
f 310 332 370
f 310 370 369
f 311 371 372
f 311 372 312
f 311 369 373
f 311 373 371
f 313 374 375
f 313 375 376
f 313 376 377
f 313 377 378
f 313 378 379
f 313 379 380
f 313 380 381
f 313 381 324
f 324 381 380
f 324 380 358
f 324 358 325
f 325 358 357
f 326 356 382
f 326 382 327
f 327 383 328
f 327 382 384
f 327 384 383
f 328 383 385
f 328 385 329
f 329 385 386
f 329 386 330
f 330 386 387
f 330 387 331
f 331 387 388
f 331 388 389
f 331 389 332
f 332 389 370
f 333 365 390
f 333 390 391
f 333 391 334
f 334 391 392
f 334 392 336
f 334 336 335
f 336 392 393
f 336 393 394
f 336 394 338
f 338 394 395
f 338 395 339
f 339 395 340
f 340 395 396
f 340 396 344
f 340 344 341
f 343 352 353
f 344 396 397
f 344 397 398
f 344 398 347
f 344 347 345
f 346 399 400
f 346 400 401
f 346 401 349
f 346 348 402
f 346 402 399
f 347 398 348
f 348 398 397
f 348 397 402
f 349 401 403
f 349 403 404
f 349 404 405
f 349 405 406
f 349 406 407
f 349 407 408
f 349 408 350
f 350 408 409
f 350 409 410
f 350 410 411
f 350 411 354
f 350 354 352
f 354 411 355
f 355 411 412
f 355 412 356
f 356 412 413
f 356 413 382
f 358 380 359
f 359 380 360
f 360 380 361
f 361 380 414
f 361 414 415
f 361 415 379
f 361 379 416
f 361 416 362
f 362 416 417
f 362 417 418
f 362 418 363
f 363 418 419
f 363 419 367
f 364 366 420
f 364 420 421
f 364 421 422
f 364 422 390
f 364 390 365
f 366 368 423
f 366 423 420
f 367 424 425
f 367 425 368
f 367 419 424
f 368 425 423
f 369 426 427
f 369 427 373
f 369 370 389
f 369 389 426
f 371 373 428
f 373 427 429
f 373 429 428
f 374 430 431
f 374 431 432
f 374 432 433
f 374 433 434
f 374 434 375
f 375 434 376
f 376 434 435
f 376 435 436
f 376 436 437
f 376 437 438
f 376 438 377
f 377 438 378
f 378 439 440
f 378 440 379
f 378 438 439
f 379 440 441
f 379 441 442
f 379 442 416
f 379 415 380
f 380 415 414
f 382 443 384
f 382 413 443
f 383 384 444
f 383 444 445
f 383 445 385
f 384 443 444
f 385 445 446
f 385 446 386
f 386 446 387
f 387 447 388
f 387 446 448
f 387 448 447
f 388 449 450
f 388 450 389
f 388 447 449
f 389 450 426
f 390 422 391
f 391 422 451
f 391 451 392
f 392 451 452
f 392 452 393
f 393 452 394
f 394 453 395
f 394 452 453
f 395 453 454
f 395 454 455
f 395 455 396
f 396 455 397
f 397 455 456
f 397 456 402
f 399 457 400
f 399 402 457
f 400 458 401
f 400 457 459
f 400 459 460
f 400 460 458
f 401 458 403
f 402 456 461
f 402 461 462
f 402 462 463
f 402 463 457
f 403 458 464
f 403 464 404
f 404 464 465
f 404 465 405
f 405 465 406
f 406 465 466
f 406 466 467
f 406 467 468
f 406 468 407
f 407 468 469
f 407 469 470
f 407 470 471
f 407 471 472
f 407 472 473
f 407 473 409
f 407 409 474
f 407 474 408
f 408 474 409
f 409 473 472
f 409 472 410
f 410 412 411
f 410 472 471
f 410 471 443
f 410 443 412
f 412 443 413
f 416 442 417
f 417 442 418
f 418 442 475
f 418 475 419
f 419 475 476
f 419 476 477
f 419 477 424
f 420 423 478
f 420 478 479
f 420 479 480
f 420 480 421
f 421 453 452
f 421 452 422
f 421 480 453
f 422 452 451
f 423 425 481
f 423 481 482
f 423 482 478
f 424 477 481
f 424 481 425
f 426 483 427
f 426 450 483
f 427 483 429
f 428 429 484
f 429 485 486
f 429 486 484
f 429 483 485
f 430 487 432
f 430 432 431
f 432 487 488
f 432 488 489
f 432 489 433
f 433 490 491
f 433 491 492
f 433 492 435
f 433 435 434
f 433 489 490
f 435 492 493
f 435 493 437
f 435 437 436
f 437 493 438
f 438 493 494
f 438 494 439
f 439 495 441
f 439 441 440
f 439 494 496
f 439 496 495
f 441 496 442
f 441 495 496
f 442 496 497
f 442 497 498
f 442 498 475
f 443 499 444
f 443 471 499
f 444 499 500
f 444 500 501
f 444 501 445
f 445 501 446
f 446 502 448
f 446 501 502
f 447 503 504
f 447 504 449
f 447 448 502
f 447 502 505
f 447 505 503
f 449 506 507
f 449 507 508
f 449 508 450
f 449 504 503
f 449 503 506
f 450 508 509
f 450 509 483
f 453 480 479
f 453 479 454
f 454 479 510
f 454 510 456
f 454 456 455
f 456 510 461
f 457 511 512
f 457 512 513
f 457 513 459
f 457 463 514
f 457 514 511
f 458 460 464
f 459 513 515
f 459 515 516
f 459 516 460
f 460 516 517
f 460 517 464
f 461 510 462
f 462 510 518
f 462 518 514
f 462 514 463
f 464 517 465
f 465 517 519
f 465 519 466
f 466 519 467
f 467 519 520
f 467 520 521
f 467 521 522
f 467 522 523
f 467 523 469
f 467 469 468
f 469 523 470
f 470 524 525
f 470 525 471
f 470 523 526
f 470 526 524
f 471 525 499
f 475 527 476
f 475 498 527
f 476 528 477
f 476 527 529
f 476 529 530
f 476 530 528
f 477 528 531
f 477 531 481
f 478 482 532
f 478 532 479
f 479 532 533
f 479 533 534
f 479 534 535
f 479 535 510
f 481 531 536
f 481 536 537
f 481 537 532
f 481 532 482
f 483 509 538
f 483 538 539
f 483 539 485
f 484 486 540
f 485 541 486
f 485 539 541
f 486 541 540
f 487 542 488
f 488 543 489
f 488 542 543
f 489 544 490
f 489 543 544
f 490 545 491
f 490 544 545
f 491 545 546
f 491 546 492
f 492 547 493
f 492 546 547
f 493 547 548
f 493 548 494
f 494 548 549
f 494 549 550
f 494 550 496
f 496 550 551
f 496 551 497
f 497 551 552
f 497 552 498
f 498 552 553
f 498 553 554
f 498 554 527
f 499 525 500
f 500 525 555
f 500 555 556
f 500 556 557
f 500 557 501
f 501 557 558
f 501 558 502
f 502 558 505
f 503 559 506
f 503 505 560
f 503 560 559
f 505 558 560
f 506 559 561
f 506 561 562
f 506 562 507
f 507 562 563
f 507 563 564
f 507 564 509
f 507 509 508
f 509 564 565
f 509 565 538
f 510 535 566
f 510 566 567
f 510 567 514
f 510 514 518
f 511 568 512
f 511 514 567
f 511 567 568
f 512 568 569
f 512 569 570
f 512 570 571
f 512 571 513
f 513 571 572
f 513 572 573
f 513 573 515
f 515 573 574
f 515 574 516
f 516 574 517
f 517 574 519
f 519 574 575
f 519 575 576
f 519 576 520
f 520 576 521
f 521 576 577
f 521 577 578
f 521 578 526
f 521 526 522
f 522 526 579
f 522 579 523
f 523 579 526
f 524 580 581
f 524 581 525
f 524 526 582
f 524 582 583
f 524 583 580
f 525 581 584
f 525 584 555
f 526 578 582
f 527 585 529
f 527 554 586
f 527 586 585
f 528 530 531
f 529 585 587
f 529 587 530
f 530 587 536
f 530 536 531
f 532 537 533
f 533 567 566
f 533 566 535
f 533 535 534
f 533 537 536
f 533 536 569
f 533 569 568
f 533 568 567
f 536 587 588
f 536 588 589
f 536 589 571
f 536 571 570
f 536 570 569
f 538 565 539
f 539 565 590
f 539 590 541
f 540 541 591
f 541 592 593
f 541 593 594
f 541 594 591
f 541 590 595
f 541 595 592
f 542 596 597
f 542 597 543
f 543 598 599
f 543 599 600
f 543 600 601
f 543 601 602
f 543 602 544
f 543 597 596
f 543 596 598
f 544 602 603
f 544 603 545
f 545 603 546
f 546 604 547
f 546 603 604
f 547 605 548
f 547 604 605
f 548 606 549
f 548 605 606
f 549 607 608
f 549 608 551
f 549 551 550
f 549 606 607
f 551 608 552
f 552 609 553
f 552 608 610
f 552 610 609
f 553 609 611
f 553 611 554
f 554 611 612
f 554 612 586
f 555 584 556
f 556 613 557
f 556 584 614
f 556 614 615
f 556 615 613
f 557 616 617
f 557 617 558
f 557 613 618
f 557 618 619
f 557 619 616
f 558 617 560
f 559 620 561
f 559 560 620
f 560 617 621
f 560 621 620
f 561 622 623
f 561 623 624
f 561 624 562
f 561 620 621
f 561 621 622
f 562 624 563
f 563 624 625
f 563 625 626
f 563 626 564
f 564 626 565
f 565 626 590
f 571 589 572
f 572 589 627
f 572 627 575
f 572 575 574
f 572 574 573
f 575 627 628
f 575 628 576
f 576 629 577
f 576 628 629
f 577 629 630
f 577 630 631
f 577 631 578
f 578 631 582
f 580 632 633
f 580 633 581
f 580 583 634
f 580 634 635
f 580 635 632
f 581 633 584
f 582 631 634
f 582 634 583
f 584 636 614
f 584 633 636
f 585 586 637
f 585 637 638
f 585 638 587
f 586 612 637
f 587 638 627
f 587 627 588
f 588 627 589
f 590 626 595
f 592 639 593
f 592 595 639
f 593 640 641
f 593 641 594
f 593 639 640
f 595 626 642
f 595 642 643
f 595 643 639
f 596 644 598
f 598 644 645
f 598 645 599
f 599 645 646
f 599 646 600
f 600 646 647
f 600 647 601
f 601 647 602
f 602 647 603
f 603 648 649
f 603 649 604
f 603 647 648
f 604 649 650
f 604 650 651
f 604 651 605
f 605 651 652
f 605 652 653
f 605 653 606
f 606 653 654
f 606 654 655
f 606 655 607
f 607 655 656
f 607 656 657
f 607 657 658
f 607 658 608
f 608 658 610
f 609 610 659
f 609 659 611
f 610 658 659
f 611 659 660
f 611 660 612
f 612 660 661
f 612 661 637
f 613 615 618
f 614 636 662
f 614 662 615
f 615 662 663
f 615 663 618
f 616 619 664
f 616 664 665
f 616 665 617
f 617 665 621
f 618 666 619
f 618 663 666
f 619 666 664
f 621 665 667
f 621 667 622
f 622 668 669
f 622 669 623
f 622 667 670
f 622 670 668
f 623 669 671
f 623 671 672
f 623 672 624
f 624 672 673
f 624 673 625
f 625 673 674
f 625 674 675
f 625 675 642
f 625 642 626
f 627 661 628
f 627 638 661
f 628 661 629
f 629 661 630
f 630 661 676
f 630 676 634
f 630 634 631
f 632 677 678
f 632 678 633
f 632 635 677
f 633 678 679
f 633 679 636
f 634 676 680
f 634 680 635
f 635 680 677
f 636 679 662
f 637 661 638
f 639 681 640
f 639 643 682
f 639 682 681
f 640 681 641
f 641 681 683
f 642 675 643
f 643 675 682
f 644 684 645
f 645 684 681
f 645 681 646
f 646 681 682
f 646 682 675
f 646 675 674
f 646 674 647
f 647 673 672
f 647 672 671
f 647 671 649
f 647 649 648
f 647 674 673
f 649 671 650
f 650 671 651
f 651 670 652
f 651 671 669
f 651 669 668
f 651 668 670
f 652 670 685
f 652 685 653
f 653 686 687
f 653 687 654
f 653 685 686
f 654 687 688
f 654 688 655
f 655 688 656
f 656 688 657
f 657 688 689
f 657 689 666
f 657 666 690
f 657 690 658
f 658 690 659
f 659 690 691
f 659 691 660
f 660 692 677
f 660 677 693
f 660 693 680
f 660 680 661
f 660 691 694
f 660 694 692
f 661 680 676
f 662 679 691
f 662 691 690
f 662 690 663
f 663 690 666
f 664 688 695
f 664 695 665
f 664 666 689
f 664 689 688
f 665 696 697
f 665 697 667
f 665 695 696
f 667 697 685
f 667 685 670
f 677 680 693
f 677 692 694
f 677 694 679
f 677 679 678
f 679 694 691
f 681 684 698
f 681 698 683
f 683 698 699
f 684 699 698
f 685 697 686
f 686 697 696
f 686 696 687
f 687 696 688
f 688 696 695

