# https://github.com/mikedh/trimesh
v 0.15100321 -0.25477966 -0.00964346
v 0.15100321 -0.25482097 -0.00679957
v 0.15100321 -0.25482921 -0.01054511
v -0.03429634 -0.29740391 -0.01399859
v -0.03429634 -0.29737086 -0.01307993
v -0.03429634 -0.29727999 -0.00954422
v -0.03429634 -0.29727999 -0.00924367
v 0.15100321 -0.25484575 -0.00574481
v 0.15100321 -0.25501096 -0.01368670
v -0.03429634 -0.29777564 -0.01781218
v -0.03429634 -0.29738737 -0.00526564
v 0.15100321 -0.25502749 -0.00316179
v 0.15100321 -0.25507705 -0.01414887
v -0.03429634 -0.29847777 -0.02000109
v 0.15100321 -0.25555615 -0.01738403
v -0.03429634 -0.29792430 -0.00164486
v 0.15100321 -0.25512661 -0.00214956
v 0.15100321 -0.25509356 -0.00241892
v -0.03429634 -0.29870907 -0.02069859
v 0.15100321 -0.25558093 -0.01745492
v -0.03429634 -0.29855210 -0.00033775
v 0.15100321 -0.25571309 -0.00041714
v -0.03429634 -0.29990684 -0.02199436
v 0.15100321 -0.25669610 -0.02030731
v 0.15100321 -0.25705956 -0.02082335
v 0.15100321 -0.25801779 -0.02208225
v -0.03429634 -0.29868429 -0.00008540
v 0.15100321 -0.25773691 0.00017261
v -0.03429634 -0.30085681 -0.02224670
v 0.15100321 -0.25866210 -0.02248488
v 0.15100321 -0.25952120 -0.02296405
v -0.03429634 -0.30035290 0.00026335
v 0.04670873 -0.33916077 0.00441150
v 0.15100321 -0.25842257 0.00020947
v -0.03429634 -0.30090636 0.00036259
v -0.03429634 -0.33413841 0.00386711
v -0.03429634 -0.30151762 -0.02237713
v 0.15100321 -0.26206544 -0.02350561
v 0.04331689 -0.33916077 0.00415915
v 0.04928435 -0.33916077 0.00414214
v 0.15100321 -0.27295279 0.00004219
v 0.15100321 -0.26896297 0.00015277
v 0.15100321 -0.26759172 0.00018963
v 0.15100321 -0.26249499 0.00026618
v -0.03429634 -0.33436967 0.00386995
v -0.03429634 -0.33623656 0.00374235
v -0.03429634 -0.33630266 0.00373101
v -0.03429634 -0.33728564 0.00261387
v -0.03429634 -0.33738478 0.00243241
v -0.03429634 -0.30534224 -0.02271738
v 0.15100321 -0.26283367 -0.02355948
v -0.03429634 -0.33810345 -0.00045400
v -0.03429634 -0.33820256 -0.00095303
v -0.03429634 -0.33880558 -0.00493957
v 0.03916325 -0.33916077 0.00352403
v 0.05258550 -0.33916077 0.00363744
v 0.15100321 -0.27523269 -0.00026403
v -0.00230061 -0.32629915 -0.02455470
v -0.00574686 -0.32609266 -0.02444696
v -0.03429634 -0.31003423 -0.02288750
v 0.15100321 -0.26769083 -0.02349710
v -0.03429634 -0.33897079 -0.00864257
v 0.03896373 -0.33916077 0.00341912
v 0.05305709 -0.33916077 0.00352970
v 0.15100321 -0.27539789 -0.00033208
v -0.03429634 -0.33365103 -0.02340070
v 0.04736170 -0.33916077 -0.02363604
v 0.15100321 -0.27211847 -0.02319939
v 0.03439291 -0.33916077 -0.00480914
v 0.03441105 -0.33916077 -0.00472124
v 0.03519099 -0.33916077 -0.00165620
v 0.03533610 -0.33916077 -0.00125358
v 0.03724060 -0.33916077 0.00203262
v 0.03747640 -0.33916077 0.00237854
v -0.03429634 -0.33849995 -0.01262911
v 0.04498560 -0.33916077 -0.02347159
v 0.04411497 -0.33916077 -0.02305762
v 0.04262764 -0.33916077 -0.02171365
v 0.04079569 -0.33916077 -0.01941416
v 0.03918139 -0.33916077 -0.01726495
v 0.03698667 -0.33916077 -0.01395606
v 0.03633370 -0.33916077 -0.01273402
v 0.03471940 -0.33916077 -0.00849513
v 0.05447187 -0.33916077 0.00303918
v 0.15100321 -0.27615788 -0.00097004
v 0.05523367 -0.33916077 0.00260253
v 0.05648520 -0.33916077 0.00187951
v -0.03429634 -0.33525355 -0.02306896
v 0.15100321 -0.27228367 -0.02317954
v 0.04893972 -0.33916077 -0.02338369
v 0.04587437 -0.33916077 -0.02356232
v -0.03429634 -0.33754998 -0.01760236
v -0.03429634 -0.33743434 -0.01804184
v -0.03429634 -0.33628612 -0.02156054
v 0.15100321 -0.27638915 -0.00136132
v 0.05873434 -0.33916077 0.00042780
v 0.05900641 -0.33916077 0.00024634
v 0.05936917 -0.33916077 -0.00006272
v 0.06089278 -0.33916077 -0.00182065
v -0.03429634 -0.33622005 -0.02166829
v 0.15100321 -0.27482792 -0.02247353
v 0.05200508 -0.33916077 -0.02276841
v 0.15100321 -0.27679392 -0.00212687
v 0.06201735 -0.33916077 -0.00358426
v 0.15100321 -0.27505922 -0.02237146
v 0.05213204 -0.33916077 -0.02272021
v 0.15100321 -0.27737216 -0.00513521
v 0.06223500 -0.33916077 -0.00396987
v 0.06274287 -0.33916077 -0.00527698
v 0.06286984 -0.33916077 -0.00564841
v 0.15100321 -0.27594309 -0.02173917
v 0.05327475 -0.33916077 -0.02200570
v 0.15100321 -0.27749608 -0.00954989
v 0.06272474 -0.33916077 -0.00687329
v 0.15100321 -0.27714913 -0.01831971
v 0.15100321 -0.27728129 -0.01631793
v 0.15100321 -0.27741348 -0.01424244
v 0.15100321 -0.27746303 -0.01191459
v 0.15100321 -0.27605874 -0.02158606
v 0.05463511 -0.33916077 -0.02086304
v 0.06250708 -0.33916077 -0.00846394
v 0.15100321 -0.27688479 -0.01962115
v 0.15100321 -0.27652960 -0.02078365
v 0.05690238 -0.33916077 -0.01852102
v 0.06178155 -0.33916077 -0.01033812
v 0.06134623 -0.33916077 -0.01124544
v 0.06047560 -0.33916077 -0.01290981
v 0.05857109 -0.33916077 -0.01615632
v 0.05848040 -0.33916077 -0.01630092
f 1 2 8
f 1 8 12
f 1 12 18
f 1 18 17
f 1 17 22
f 1 22 28
f 1 28 34
f 1 34 44
f 1 44 43
f 1 43 42
f 1 42 41
f 1 41 57
f 1 57 65
f 1 65 85
f 1 85 95
f 1 95 103
f 1 103 107
f 1 107 113
f 1 113 118
f 1 118 117
f 1 117 116
f 1 116 115
f 1 115 122
f 1 122 123
f 1 123 119
f 1 119 111
f 1 111 105
f 1 105 101
f 1 101 89
f 1 89 68
f 1 68 61
f 1 61 51
f 1 51 38
f 1 38 31
f 1 31 30
f 1 30 26
f 1 26 25
f 1 25 24
f 1 24 20
f 1 20 15
f 1 15 13
f 1 13 9
f 1 9 3
f 1 3 4
f 1 4 5
f 1 5 6
f 1 6 7
f 1 7 2
f 2 7 8
f 3 9 4
f 4 10 14
f 4 14 19
f 4 19 23
f 4 23 29
f 4 29 37
f 4 37 50
f 4 50 60
f 4 60 66
f 4 66 88
f 4 88 100
f 4 100 94
f 4 94 93
f 4 93 92
f 4 92 75
f 4 75 62
f 4 62 54
f 4 54 53
f 4 53 52
f 4 52 49
f 4 49 48
f 4 48 47
f 4 47 46
f 4 46 45
f 4 45 36
f 4 36 35
f 4 35 32
f 4 32 27
f 4 27 21
f 4 21 16
f 4 16 11
f 4 11 7
f 4 7 6
f 4 6 5
f 4 9 10
f 7 11 8
f 8 11 12
f 9 13 10
f 10 13 15
f 10 15 14
f 11 16 17
f 11 17 18
f 11 18 12
f 14 15 19
f 15 20 19
f 16 21 22
f 16 22 17
f 19 20 24
f 19 24 25
f 19 25 26
f 19 26 23
f 21 27 22
f 22 27 28
f 23 26 30
f 23 30 31
f 23 31 29
f 27 32 28
f 28 33 34
f 28 32 35
f 28 35 36
f 28 36 33
f 29 31 38
f 29 38 37
f 33 39 55
f 33 55 63
f 33 63 74
f 33 74 73
f 33 73 72
f 33 72 71
f 33 71 70
f 33 70 69
f 33 69 83
f 33 83 82
f 33 82 81
f 33 81 80
f 33 80 79
f 33 79 78
f 33 78 77
f 33 77 76
f 33 76 91
f 33 91 67
f 33 67 90
f 33 90 102
f 33 102 106
f 33 106 112
f 33 112 120
f 33 120 124
f 33 124 129
f 33 129 128
f 33 128 127
f 33 127 126
f 33 126 125
f 33 125 121
f 33 121 114
f 33 114 110
f 33 110 109
f 33 109 108
f 33 108 104
f 33 104 99
f 33 99 98
f 33 98 97
f 33 97 96
f 33 96 87
f 33 87 86
f 33 86 84
f 33 84 64
f 33 64 56
f 33 56 40
f 33 40 41
f 33 41 42
f 33 42 43
f 33 43 44
f 33 44 34
f 33 36 45
f 33 45 46
f 33 46 47
f 33 47 48
f 33 48 49
f 33 49 39
f 37 38 50
f 38 51 50
f 39 49 52
f 39 52 53
f 39 53 54
f 39 54 55
f 40 56 57
f 40 57 41
f 50 58 59
f 50 59 60
f 50 51 58
f 51 61 58
f 54 62 55
f 55 62 63
f 56 64 57
f 57 64 65
f 58 66 59
f 58 61 67
f 58 67 66
f 59 66 60
f 61 68 67
f 62 69 70
f 62 70 71
f 62 71 72
f 62 72 73
f 62 73 74
f 62 74 63
f 62 75 76
f 62 76 77
f 62 77 78
f 62 78 79
f 62 79 80
f 62 80 81
f 62 81 82
f 62 82 83
f 62 83 69
f 64 84 65
f 65 84 86
f 65 86 87
f 65 87 85
f 66 67 88
f 67 68 89
f 67 89 90
f 67 91 88
f 75 92 76
f 76 92 93
f 76 93 94
f 76 94 91
f 85 87 96
f 85 96 97
f 85 97 98
f 85 98 99
f 85 99 95
f 88 91 100
f 89 101 90
f 90 101 102
f 91 94 100
f 95 99 103
f 99 104 103
f 101 105 102
f 102 105 106
f 103 104 108
f 103 108 109
f 103 109 110
f 103 110 107
f 105 111 106
f 106 111 112
f 107 110 113
f 110 114 115
f 110 115 116
f 110 116 117
f 110 117 118
f 110 118 113
f 111 119 120
f 111 120 112
f 114 121 115
f 115 121 122
f 119 123 124
f 119 124 120
f 121 125 122
f 122 125 123
f 123 125 126
f 123 126 127
f 123 127 128
f 123 128 129
f 123 129 124

