# https://github.com/mikedh/trimesh
v 0.27916920 0.11097279 -0.01366021
v 0.27916920 0.11097279 -0.01322754
v 0.27916920 0.11266247 -0.01786909
v 0.29875083 0.00524896 -0.01444312
v 0.27916920 0.11108333 -0.00900100
v 0.27916920 0.11378367 -0.01921417
v 0.29944090 0.00524896 -0.01830470
v 0.29880686 0.00524896 -0.01212382
v 0.27916920 0.11215715 -0.00465378
v 0.29886992 0.00524896 -0.00955433
v 0.27916920 0.11427321 -0.01967038
v 0.30082109 0.00524896 -0.02104783
v 0.27916920 0.11634188 -0.02050921
v 0.27916920 0.11376788 -0.00188121
v 0.29924824 0.00524896 -0.00442715
v 0.30291586 0.00524896 -0.02259894
v 0.27916920 0.11946859 -0.02147461
v 0.27916920 0.12291113 -0.02237231
v 0.27916920 0.12297430 -0.02238702
v 0.27916920 0.12460083 -0.02268724
v 0.27916920 0.11469958 -0.00124252
v 0.29994884 0.00524896 -0.00089521
v 0.30464983 0.00524896 -0.02339068
v 0.27916920 0.12682742 -0.02300805
v 0.27916920 0.13096477 -0.02356728
v 0.27916920 0.15828400 -0.02684020
v 0.27916920 0.11533123 -0.00088344
v 0.30087712 0.00524896 0.00080894
v 0.27916920 0.11733674 0.00004663
v 0.30474791 0.00524896 -0.02343188
v 0.27916920 0.15848928 -0.02683431
v 0.29835498 0.14669308 -0.02593661
v 0.29432657 0.14678782 -0.02614264
v 0.30719649 0.00524896 -0.02371738
v 0.30308401 0.00524896 0.00183320
v 0.27916920 0.12665371 0.00224232
v 0.27916920 0.12494823 0.00202746
v 0.27916920 0.12376387 0.00184792
v 0.27916920 0.12008446 0.00084132
v 0.27916920 0.16223186 -0.02658708
v 0.31007243 0.14253992 -0.02510367
v 0.31017402 0.00524896 -0.02347898
v 0.30357091 0.00524896 0.00192739
v 0.27916920 0.13121745 0.00247189
v 0.27916920 0.12725379 0.00227469
v 0.27916920 0.16313198 -0.02627509
v 0.31495558 0.14132398 -0.02450912
v 0.31495558 0.13909738 -0.02450618
v 0.31071347 0.00524896 -0.02330827
v 0.30710191 0.00524896 0.00256314
v 0.27916920 0.13159644 0.00248661
v 0.27916920 0.16390577 -0.02581594
v 0.31495558 0.14186089 -0.02430309
v 0.31495558 0.13871838 -0.02437373
v 0.31488901 0.00524896 -0.00413282
v 0.31487501 0.00524896 -0.00819748
v 0.31487150 0.00524896 -0.00882735
v 0.31482248 0.00524896 -0.01320694
v 0.31481194 0.00524896 -0.01396042
v 0.31453171 0.00524896 -0.01847246
v 0.31340727 0.00524896 -0.02155996
v 0.31192549 0.00524896 -0.02288738
v 0.31186946 0.00524896 -0.02293741
v 0.31181691 0.00524896 -0.02295507
v 0.31119687 0.00524896 0.00231590
v 0.30718948 0.02190895 0.00276916
v 0.30367249 0.03785833 0.00288101
v 0.30355340 0.03386309 0.00281920
v 0.28176141 0.12943300 0.00265732
v 0.27916920 0.13503898 0.00248072
v 0.27916920 0.16638502 -0.02261071
v 0.31495558 0.14266625 -0.02254596
v 0.31495558 0.13753402 -0.02304632
v 0.31475241 0.00524896 -0.00059206
v 0.31495558 0.13710765 -0.02207798
v 0.31495558 0.13349141 -0.00890976
v 0.31495558 0.13289134 -0.00609598
v 0.31495558 0.13270185 -0.00477740
v 0.31495558 0.13290713 -0.00319980
v 0.31495558 0.13325455 -0.00129844
v 0.31495558 0.13342825 -0.00094525
v 0.31495558 0.13557588 0.00145941
v 0.31495558 0.13844993 0.00322832
v 0.31195704 0.00524896 0.00205395
v 0.29708690 0.08512217 0.00286924
v 0.29812730 0.14669308 0.00244540
v 0.27916920 0.13543376 0.00246306
v 0.27916920 0.16657452 -0.02211624
v 0.31495558 0.14277680 -0.02222808
v 0.31384164 0.00524896 0.00139760
v 0.31495558 0.14092918 0.00273385
v 0.29353489 0.15049881 0.00193327
v 0.27916920 0.13947638 0.00193327
v 0.31495558 0.14388220 -0.00366189
v 0.31495558 0.14282417 -0.02143634
v 0.27916920 0.16627448 -0.01739817
v 0.31495558 0.14386639 -0.00298788
v 0.31495558 0.14173456 0.00201569
v 0.29082009 0.15528364 0.00001132
v 0.29327567 0.15299386 0.00083249
v 0.28953801 0.15424138 0.00084426
v 0.28642385 0.15436772 0.00065295
v 0.28946094 0.15081465 0.00147118
v 0.28451823 0.15454142 0.00016436
v 0.27916920 0.14345583 0.00108561
v 0.27916920 0.16611657 -0.01693607
v 0.29157672 0.15572578 -0.00176642
v 0.31495558 0.14364532 -0.00096880
v 0.31495558 0.14317158 0.00040866
v 0.27916920 0.16523226 -0.01449610
v 0.28830495 0.15550471 0.00029976
v 0.31495558 0.14321895 0.00032330
v 0.28712445 0.15561525 0.00028798
v 0.27938987 0.15733652 -0.00207841
v 0.27916920 0.15755759 -0.00344998
f 1 2 5
f 1 5 9
f 1 9 14
f 1 14 21
f 1 21 27
f 1 27 29
f 1 29 39
f 1 39 38
f 1 38 37
f 1 37 36
f 1 36 45
f 1 45 44
f 1 44 51
f 1 51 70
f 1 70 87
f 1 87 93
f 1 93 105
f 1 105 115
f 1 115 110
f 1 110 106
f 1 106 96
f 1 96 88
f 1 88 71
f 1 71 52
f 1 52 46
f 1 46 40
f 1 40 31
f 1 31 26
f 1 26 25
f 1 25 24
f 1 24 20
f 1 20 19
f 1 19 18
f 1 18 17
f 1 17 13
f 1 13 11
f 1 11 6
f 1 6 3
f 1 3 4
f 1 4 2
f 2 4 5
f 3 6 4
f 4 7 12
f 4 12 16
f 4 16 23
f 4 23 30
f 4 30 34
f 4 34 42
f 4 42 49
f 4 49 64
f 4 64 63
f 4 63 62
f 4 62 61
f 4 61 60
f 4 60 59
f 4 59 58
f 4 58 57
f 4 57 56
f 4 56 55
f 4 55 74
f 4 74 90
f 4 90 84
f 4 84 65
f 4 65 50
f 4 50 43
f 4 43 35
f 4 35 28
f 4 28 22
f 4 22 15
f 4 15 10
f 4 10 8
f 4 8 5
f 4 6 7
f 5 8 10
f 5 10 9
f 6 11 7
f 7 11 13
f 7 13 12
f 9 10 15
f 9 15 14
f 12 13 17
f 12 17 18
f 12 18 19
f 12 19 20
f 12 20 16
f 14 15 22
f 14 22 21
f 16 20 24
f 16 24 25
f 16 25 26
f 16 26 23
f 21 22 27
f 22 28 29
f 22 29 27
f 23 26 30
f 26 31 32
f 26 32 33
f 26 33 34
f 26 34 30
f 28 35 36
f 28 36 37
f 28 37 38
f 28 38 39
f 28 39 29
f 31 40 32
f 32 40 41
f 32 41 34
f 32 34 33
f 34 41 42
f 35 43 44
f 35 44 45
f 35 45 36
f 40 46 47
f 40 47 41
f 41 47 48
f 41 48 42
f 42 48 49
f 43 50 44
f 44 50 51
f 46 52 53
f 46 53 47
f 47 53 72
f 47 72 89
f 47 89 95
f 47 95 94
f 47 94 97
f 47 97 108
f 47 108 112
f 47 112 109
f 47 109 98
f 47 98 91
f 47 91 83
f 47 83 82
f 47 82 81
f 47 81 80
f 47 80 79
f 47 79 78
f 47 78 77
f 47 77 76
f 47 76 75
f 47 75 73
f 47 73 54
f 47 54 48
f 48 54 55
f 48 55 56
f 48 56 57
f 48 57 58
f 48 58 59
f 48 59 60
f 48 60 61
f 48 61 62
f 48 62 63
f 48 63 64
f 48 64 49
f 50 65 66
f 50 66 67
f 50 67 68
f 50 68 51
f 51 69 70
f 51 68 69
f 52 71 53
f 53 71 72
f 54 73 55
f 55 73 75
f 55 75 76
f 55 76 77
f 55 77 78
f 55 78 79
f 55 79 80
f 55 80 81
f 55 81 82
f 55 82 83
f 55 83 74
f 65 84 83
f 65 83 66
f 66 83 67
f 67 85 69
f 67 69 68
f 67 83 85
f 69 83 70
f 69 85 83
f 70 83 86
f 70 86 87
f 71 88 72
f 72 88 89
f 74 83 90
f 83 91 92
f 83 92 86
f 83 84 90
f 86 92 87
f 87 92 93
f 88 94 95
f 88 95 89
f 88 96 97
f 88 97 94
f 91 98 99
f 91 99 100
f 91 100 92
f 92 100 101
f 92 101 102
f 92 102 103
f 92 103 93
f 93 103 102
f 93 102 104
f 93 104 105
f 96 106 107
f 96 107 108
f 96 108 97
f 98 109 99
f 99 107 110
f 99 110 111
f 99 111 101
f 99 101 100
f 99 109 112
f 99 112 107
f 101 111 113
f 101 113 102
f 102 113 114
f 102 114 104
f 104 114 105
f 105 114 115
f 106 110 107
f 107 112 108
f 110 115 114
f 110 114 113
f 110 113 111

