# https://github.com/mikedh/trimesh
v -0.45510436 0.19464274 -0.00148998
v -0.45509983 0.19459539 -0.00646365
v -0.45509983 0.19085576 -0.00145129
v -0.45435733 0.19085576 0.00257289
v -0.45431204 0.19465851 0.00250146
v -0.45463803 0.19859540 -0.00171321
v -0.45466519 0.19857962 -0.00648150
v -0.45471952 0.19454806 -0.01085095
v -0.45472858 0.19086364 -0.01089560
v -0.45508170 0.19085576 -0.00652020
v -0.45480553 0.18672951 -0.00148700
v -0.45303531 0.19087153 0.00484095
v -0.45297192 0.19472163 0.00481119
v -0.45405399 0.18674530 0.00254313
v -0.45289494 0.18676107 0.00465046
v -0.45258708 0.19868218 0.00452545
v -0.45376875 0.19860328 0.00230799
v -0.45361482 0.20273742 -0.00215373
v -0.45375516 0.20275319 -0.00665116
v -0.45422149 0.19850862 -0.01080630
v -0.45365104 0.19446128 -0.01443461
v -0.45371893 0.19074530 -0.01438699
v -0.45441618 0.18683996 -0.01086583
v -0.45476931 0.18676897 -0.00652317
v -0.45427131 0.18258750 -0.00642197
v -0.45428488 0.18251649 -0.00153165
v -0.45095719 0.19088730 0.00639169
v -0.45083948 0.19484786 0.00640360
v -0.45098889 0.18665852 0.00614167
v -0.45062216 0.19883208 0.00607321
v -0.45294023 0.17870584 0.00188533
v -0.45328882 0.18223248 0.00273064
v -0.45266859 0.18338435 0.00433198
v -0.45125149 0.18211412 0.00530528
v -0.45059047 0.20280842 0.00510586
v -0.45216150 0.20141986 0.00417125
v -0.45261877 0.20271374 0.00202225
v -0.45212981 0.20504905 0.00048639
v -0.45240145 0.20540408 -0.00253769
v -0.45246483 0.20556977 -0.00688630
v -0.45216150 0.20535674 -0.01094917
v -0.45327526 0.20269797 -0.01083607
v -0.45230184 0.20262696 -0.01403576
v -0.45282702 0.19869008 -0.01481262
v -0.45240145 0.19437450 -0.01675922
v -0.45215697 0.19740408 -0.01659254
v -0.45246030 0.19058750 -0.01670862
v -0.45230184 0.18658751 -0.01647348
v -0.45339750 0.18673741 -0.01435424
v -0.45390456 0.18270584 -0.01074677
v -0.45316658 0.17887941 -0.01063962
v -0.45353331 0.17875319 -0.00625529
v -0.45352880 0.17867428 -0.00151379
v -0.45265499 0.17630742 0.00120074
v -0.44805055 0.18197212 0.00681732
v -0.44808678 0.18641393 0.00691555
v -0.44806415 0.19082420 0.00698698
v -0.44798717 0.19494254 0.00706437
v -0.44786493 0.19896621 0.00698401
v -0.45067196 0.17844548 0.00515348
v -0.44776081 0.17378276 0.00620120
v -0.44793738 0.17778277 0.00661195
v -0.44774722 0.20296621 0.00658814
v -0.45223395 0.17873740 0.00345988
v -0.45243314 0.18068612 0.00394504
v -0.44956726 0.20556977 0.00451652
v -0.45170423 0.20402341 0.00324259
v -0.45104321 0.20562499 0.00172162
v -0.45150048 0.20631926 -0.00268056
v -0.45167707 0.20640606 -0.00700834
v -0.45182194 0.20500961 -0.01343452
v -0.45142806 0.20612993 -0.01102954
v -0.45147332 0.20257963 -0.01577104
v -0.45180384 0.20025220 -0.01625025
v -0.45071724 0.19436659 -0.01812244
v -0.45078969 0.19057961 -0.01812840
v -0.45061763 0.19861118 -0.01747357
v -0.45066745 0.18660328 -0.01789623
v -0.45211621 0.18380249 -0.01624430
v -0.45272291 0.18257962 -0.01455367
v -0.45243767 0.17883997 -0.01356548
v -0.45216603 0.17666244 -0.01296424
v -0.45245127 0.17616540 -0.01059497
v -0.45274101 0.17569993 -0.00610349
v -0.45221129 0.17349873 -0.00137092
v -0.45279533 0.17578671 -0.00144533
v -0.45118358 0.17012201 -0.00123103
v -0.44937710 0.16690307 0.00167102
v -0.45007888 0.16985376 0.00250443
v -0.45177668 0.17472162 0.00225441
v -0.44455084 0.16903325 0.00634704
v -0.40885633 0.13365651 0.00526064
v -0.45006528 0.17440603 0.00476059
v -0.44779251 0.16951451 0.00509395
v -0.44691870 0.16591688 0.00469808
v -0.44430183 0.16529360 0.00603749
v -0.40885633 0.13395630 0.00520706
v -0.44497642 0.20299777 0.00552554
v -0.44561931 0.20564866 0.00465939
v -0.44770649 0.20561710 0.00531124
v -0.44943145 0.17103719 0.00426352
v -0.44901038 0.20645339 0.00388253
v -0.44957632 0.20669796 0.00163828
v -0.45022828 0.20692677 -0.00262996
v -0.45032336 0.20691887 -0.00707084
v -0.44987966 0.20679264 -0.01121705
v -0.45067196 0.20550665 -0.01454771
v -0.44889267 0.20661118 -0.01468761
v -0.44936354 0.20218514 -0.01751822
v -0.44879759 0.20549876 -0.01669970
v -0.44853954 0.19831927 -0.01888144
v -0.44896059 0.19442183 -0.01919099
v -0.44904207 0.19065851 -0.01924755
v -0.44889267 0.18669006 -0.01918802
v -0.44820449 0.20051256 -0.01862844
v -0.44859387 0.18257962 -0.01902431
v -0.44834485 0.17985772 -0.01886061
v -0.45067649 0.18249282 -0.01728308
v -0.44806868 0.17743563 -0.01870583
v -0.44950840 0.17865062 -0.01764026
v -0.44923223 0.17483996 -0.01709854
v -0.45188986 0.18111216 -0.01586926
v -0.45165441 0.17870584 -0.01529183
v -0.45116545 0.17502142 -0.01419352
v -0.44970310 0.17066639 -0.01433341
v -0.45069912 0.17043760 -0.01043424
v -0.45179478 0.17390110 -0.01054437
v -0.45211171 0.17339618 -0.00595765
v -0.45113376 0.17022457 -0.00571358
v -0.44963065 0.16631925 -0.00543379
v -0.44953103 0.16587743 -0.00111197
v -0.44883835 0.16444153 0.00009945
v -0.44714961 0.16237447 0.00212345
v -0.44850332 0.16586954 0.00248657
v -0.44882475 0.16822852 0.00364442
v -0.43666854 0.15375119 0.00563269
v -0.43291075 0.14965651 0.00551363
v -0.41301257 0.13413777 0.00515646
v -0.40885633 0.13070580 0.00439151
v -0.44587285 0.16222456 0.00402540
v -0.44388531 0.16171964 0.00531421
v -0.44025427 0.15760129 0.00562079
v -0.40885633 0.13647307 0.00422185
v -0.44387625 0.20568022 0.00211749
v -0.44641614 0.20639817 0.00395992
v -0.44267648 0.20510427 0.00102811
v -0.44772006 0.20644551 0.00401945
v -0.44782873 0.20679264 0.00179306
v -0.44786042 0.20718713 -0.00249602
v -0.44764764 0.20735280 -0.00713633
v -0.44732164 0.20730547 -0.01143434
v -0.44699568 0.20700567 -0.01493168
v -0.44812754 0.20645339 -0.01632466
v -0.44677836 0.20547509 -0.01757180
v -0.44685078 0.20321867 -0.01832187
v -0.44716771 0.19834294 -0.01909872
v -0.44735334 0.19444549 -0.01951840
v -0.44738956 0.19064273 -0.01967318
v -0.44731258 0.18661907 -0.01970592
v -0.44713602 0.18246127 -0.01961365
v -0.44697755 0.20110428 -0.01868202
v -0.44707716 0.17853228 -0.01929219
v -0.44613546 0.17472951 -0.01922671
v -0.44767480 0.17487941 -0.01844985
v -0.44855311 0.17080839 -0.01650920
v -0.44815923 0.16865455 -0.01606571
v -0.44858480 0.16778670 -0.01428876
v -0.44828147 0.16508847 -0.01133611
v -0.44909189 0.16633502 -0.01000861
v -0.44860290 0.16464665 -0.00820190
v -0.44794644 0.16256381 -0.00529687
v -0.44887910 0.16426007 -0.00229065
v -0.44818186 0.16280051 -0.00110006
v -0.44609471 0.15862693 -0.00118043
v -0.44474100 0.15643364 0.00042984
v -0.44542465 0.15872161 0.00166209
v -0.44520733 0.16014961 0.00351941
v -0.43619314 0.15016933 0.00503145
v -0.43237650 0.14626400 0.00499871
v -0.42900355 0.14579852 0.00537672
v -0.42066849 0.13828767 0.00496894
v -0.41670697 0.13421667 0.00426352
v -0.41238777 0.13151843 0.00402540
v -0.42475677 0.14199575 0.00523682
v -0.40885633 0.13064269 0.00435877
v -0.44345521 0.15838236 0.00418613
v -0.43981513 0.15414567 0.00472190
v -0.40885633 0.13771962 0.00290923
v -0.44326505 0.20640606 -0.00232636
v -0.44595434 0.20663485 0.00189426
v -0.44248632 0.20550665 -0.00208527
v -0.44283041 0.20679264 -0.00524330
v -0.40885633 0.13806676 0.00243002
v -0.44510319 0.20695043 -0.00243947
v -0.44422034 0.20701355 -0.00693393
v -0.44452368 0.20699776 -0.01149982
v -0.44435615 0.20671375 -0.01495549
v -0.44513488 0.20650863 -0.01696758
v -0.44681005 0.20654807 -0.01673541
v -0.44424297 0.20549087 -0.01737535
v -0.44557405 0.20125417 -0.01874452
v -0.44551520 0.19839816 -0.01905408
v -0.40885633 0.13760916 -0.02334316
v -0.41639457 0.14205099 -0.02322410
v -0.42112122 0.14504901 -0.02300682
v -0.42269225 0.14528570 -0.02289966
v -0.43564079 0.15847703 -0.02083995
v -0.44524355 0.17070584 -0.01894097
v -0.43902733 0.16234290 -0.02012263
v -0.44462329 0.16806284 -0.01869988
v -0.44697302 0.17080839 -0.01781884
v -0.44398490 0.16559340 -0.01845581
v -0.44609924 0.16713975 -0.01724439
v -0.44500358 0.16323443 -0.01667291
v -0.44432899 0.16079657 -0.01608059
v -0.44655198 0.16319498 -0.01412208
v -0.44779704 0.16600366 -0.01422923
v -0.44401659 0.15720682 -0.01235704
v -0.44555592 0.15910820 -0.01006219
v -0.44771099 0.16329755 -0.00987765
v -0.44606755 0.15884784 -0.00533557
v -0.44463232 0.15631529 -0.00538617
v -0.44476363 0.15629952 -0.00126079
v -0.44438331 0.15749872 0.00233477
v -0.44365440 0.15443758 -0.00128758
v -0.44163063 0.15140010 -0.00134116
v -0.44133180 0.15207861 0.00159364
v -0.44329221 0.15493463 0.00145076
v -0.44174834 0.15443758 0.00345095
v -0.43916317 0.15106085 0.00351643
v -0.43760570 0.14848097 0.00310568
v -0.43541894 0.14696618 0.00370097
v -0.43136235 0.14302139 0.00356703
v -0.42838329 0.14240601 0.00464748
v -0.42017046 0.13548688 0.00382598
v -0.41525365 0.13229160 0.00356703
v -0.40991124 0.12948292 0.00318009
v -0.40885633 0.12923047 0.00335272
v -0.40885633 0.13872949 -0.00085302
v -0.44276702 0.20680053 -0.00832691
v -0.40885633 0.13963678 -0.01813733
v -0.44283494 0.20667430 -0.01151172
v -0.44295265 0.20654807 -0.01380062
v -0.44331031 0.20606681 -0.01604487
v -0.44294359 0.20504117 -0.01712235
v -0.40885633 0.13773539 -0.02331042
v -0.40885633 0.13493460 -0.02328958
v -0.41233795 0.13892672 -0.02327470
v -0.41577884 0.13916340 -0.02316159
v -0.41902048 0.14240601 -0.02309313
v -0.42244777 0.14429950 -0.02288181
v -0.43216371 0.15453226 -0.02134297
v -0.43513824 0.15505297 -0.02039051
v -0.44285757 0.16654805 -0.01921183
v -0.43883267 0.15882417 -0.01950054
v -0.44153556 0.16286362 -0.01908384
v -0.44072513 0.16013384 -0.01880703
v -0.44333297 0.16311609 -0.01805101
v -0.43998262 0.15766441 -0.01844390
v -0.44468214 0.15934488 -0.01370240
v -0.44083831 0.15552634 -0.01625025
v -0.44014109 0.15347506 -0.01551209
v -0.44359101 0.15809833 -0.01455962
v -0.44425657 0.15682812 -0.01007409
v -0.44260403 0.15578669 -0.01359525
v -0.44056213 0.15284389 -0.01381253
v -0.44113261 0.15198392 -0.01005921
v -0.44312015 0.15494252 -0.01006814
v -0.44348237 0.15442969 -0.00538617
v -0.44102847 0.15270187 0.00293304
v -0.44017278 0.14942772 -0.00138878
v -0.43992377 0.15015355 0.00154899
v -0.44148573 0.15151844 -0.00539510
v -0.43797243 0.14774724 0.00150136
v -0.43624746 0.14588530 0.00148351
v -0.43379359 0.14465454 0.00318009
v -0.42972793 0.14092278 0.00297471
v -0.42781281 0.14005493 0.00343011
v -0.42412294 0.13843757 0.00402838
v -0.42262436 0.13637840 0.00335868
v -0.41767583 0.13305690 0.00302829
v -0.41610480 0.13143165 0.00197165
v -0.41238324 0.12971961 0.00207285
v -0.41125588 0.12856774 0.00130492
v -0.40885633 0.12800758 0.00189723
v -0.40885633 0.12847307 0.00248062
v -0.40885633 0.13918708 -0.02184302
v -0.40885633 0.13915552 -0.02198291
v -0.40885633 0.13340404 -0.02282228
v -0.41183089 0.13601548 -0.02320326
v -0.41423044 0.13680443 -0.02305742
v -0.41869904 0.14079655 -0.02302765
v -0.42358869 0.14336855 -0.02180433
v -0.42784451 0.14710029 -0.02118225
v -0.43157967 0.15095828 -0.02080423
v -0.43748800 0.15532121 -0.01911360
v -0.43667757 0.15326203 -0.01873559
v -0.43917673 0.15544744 -0.01781587
v -0.43782302 0.15201548 -0.01664017
v -0.43660515 0.14918313 -0.01555971
v -0.43896394 0.15079261 -0.01378574
v -0.43961137 0.14997998 -0.01004135
v -0.43998716 0.14953027 -0.00541891
v -0.43653723 0.14519892 -0.00340682
v -0.43655083 0.14519103 -0.00303476
v -0.43788641 0.14674527 -0.00173107
v -0.43655986 0.14527781 -0.00086492
v -0.43427802 0.14393659 0.00148053
v -0.43204600 0.14190897 0.00149244
v -0.43020783 0.14035473 0.00151029
v -0.42735101 0.13821666 0.00164424
v -0.42500125 0.13724625 0.00268302
v -0.41872620 0.13226005 0.00110252
v -0.41379127 0.12912790 0.00040007
v -0.40885633 0.12699771 -0.00049882
v -0.40885633 0.13312791 -0.02248296
v -0.40920949 0.13350660 -0.02277168
v -0.41681562 0.13792476 -0.02241152
v -0.41559321 0.13600759 -0.02111081
v -0.42710200 0.14395237 -0.01956900
v -0.42946082 0.14545139 -0.01896776
v -0.43094584 0.14766045 -0.01944399
v -0.43312353 0.14916736 -0.01891121
v -0.43455419 0.15158945 -0.01928624
v -0.43543254 0.15057170 -0.01783968
v -0.43423276 0.14789714 -0.01670565
v -0.43302845 0.14533305 -0.01550018
v -0.43535556 0.14654803 -0.01376788
v -0.43709411 0.14849675 -0.01376788
v -0.43769175 0.14765257 -0.01005028
v -0.43632898 0.14539615 -0.00658866
v -0.43774154 0.14683205 -0.00516591
v -0.43488925 0.14381035 -0.00523139
v -0.43252137 0.14153816 -0.00557964
v -0.43258475 0.14139615 -0.00157332
v -0.43499790 0.14371568 -0.00179953
v -0.43068323 0.13977090 -0.00155546
v -0.42586600 0.13653619 0.00080785
v -0.42355700 0.13566834 0.00172162
v -0.42113935 0.13308846 -0.00048393
v -0.41541212 0.12977484 -0.00090957
v -0.41402671 0.12900167 -0.00174000
v -0.41225193 0.12823638 -0.00091255
v -0.40885633 0.12675314 -0.00122507
v -0.40885633 0.13218905 -0.02115546
v -0.41088013 0.13269397 -0.02037562
v -0.41838664 0.13683599 -0.01981605
v -0.42345288 0.14096223 -0.01981307
v -0.42545855 0.14177484 -0.01888739
v -0.43182868 0.14666638 -0.01788433
v -0.43101372 0.14258748 -0.01394945
v -0.43353551 0.14467820 -0.01375598
v -0.42904881 0.14175118 -0.01507455
v -0.43603014 0.14573540 -0.01008005
v -0.43415578 0.14385768 -0.01007707
v -0.43027575 0.14029161 -0.00998182
v -0.43059268 0.13988925 -0.00553797
v -0.43219993 0.14196419 -0.01005921
v -0.42810258 0.13785375 -0.00547248
v -0.42811162 0.13770385 -0.00149593
v -0.42617840 0.13629951 -0.00140961
v -0.42286431 0.13408254 -0.00146319
v -0.42131591 0.13301745 -0.00257341
v -0.41963171 0.13207071 -0.00142450
v -0.41400859 0.12900956 -0.00430571
v -0.40885633 0.12677682 -0.00243649
v -0.40885633 0.12787346 -0.01067236
v -0.41020554 0.12874132 -0.01174389
v -0.41831419 0.13270187 -0.01214273
v -0.42542686 0.13725414 -0.01235109
v -0.42975963 0.14092278 -0.01304758
v -0.42775396 0.13825611 -0.00988658
v -0.42584790 0.13684388 -0.00983002
v -0.42617840 0.13643362 -0.00540105
v -0.42269225 0.13411410 -0.00573441
v -0.42125253 0.13308057 -0.00437417
v -0.41961358 0.13218116 -0.00571953
v -0.41535326 0.12979062 -0.00574037
v -0.41370072 0.12915157 -0.00774352
v -0.41221571 0.12829161 -0.00582073
v -0.40885633 0.12687939 -0.00560940
v -0.40885633 0.12761311 -0.00981812
v -0.41107026 0.12848885 -0.00980919
v -0.41298991 0.12932514 -0.00978240
v -0.41559774 0.13051647 -0.00976454
v -0.41890730 0.13231528 -0.00971989
v -0.42073640 0.13344348 -0.00970204
v -0.42297296 0.13486359 -0.00975264
v -0.42105333 0.13325413 -0.00759768
v -0.40885633 0.12710028 -0.00694881
f 1 2 3
f 1 3 4
f 1 4 5
f 1 5 6
f 1 6 7
f 1 7 2
f 2 8 9
f 2 9 10
f 2 10 3
f 2 7 8
f 3 10 11
f 3 11 4
f 4 12 13
f 4 13 5
f 4 11 14
f 4 14 15
f 4 15 12
f 5 13 16
f 5 16 17
f 5 17 6
f 6 17 18
f 6 18 19
f 6 19 7
f 7 20 8
f 7 19 20
f 8 21 22
f 8 22 9
f 8 20 21
f 9 22 23
f 9 23 24
f 9 24 10
f 10 24 11
f 11 24 25
f 11 25 26
f 11 26 14
f 12 27 28
f 12 28 13
f 12 15 29
f 12 29 27
f 13 28 30
f 13 30 16
f 14 26 31
f 14 31 32
f 14 32 33
f 14 33 15
f 15 33 34
f 15 34 29
f 16 30 35
f 16 35 36
f 16 36 17
f 17 36 37
f 17 37 18
f 18 37 38
f 18 38 39
f 18 39 19
f 19 39 40
f 19 40 41
f 19 41 42
f 19 42 20
f 20 42 43
f 20 43 44
f 20 44 21
f 21 45 22
f 21 44 46
f 21 46 45
f 22 45 47
f 22 47 48
f 22 48 49
f 22 49 23
f 23 49 50
f 23 50 25
f 23 25 24
f 25 51 52
f 25 52 26
f 25 50 51
f 26 52 53
f 26 53 54
f 26 54 31
f 27 29 55
f 27 55 56
f 27 56 57
f 27 57 58
f 27 58 28
f 28 58 59
f 28 59 30
f 29 34 60
f 29 60 61
f 29 61 62
f 29 62 55
f 30 59 63
f 30 63 35
f 31 64 65
f 31 65 32
f 31 54 64
f 32 65 33
f 33 65 60
f 33 60 34
f 35 63 66
f 35 66 67
f 35 67 36
f 36 67 37
f 37 67 38
f 38 67 68
f 38 68 69
f 38 69 39
f 39 69 70
f 39 70 40
f 40 70 41
f 41 71 42
f 41 70 72
f 41 72 71
f 42 71 43
f 43 73 74
f 43 74 44
f 43 71 73
f 44 74 46
f 45 75 76
f 45 76 47
f 45 46 75
f 46 74 77
f 46 77 75
f 47 76 78
f 47 78 48
f 48 78 79
f 48 79 49
f 49 79 80
f 49 80 50
f 50 80 81
f 50 81 82
f 50 82 51
f 51 82 83
f 51 83 84
f 51 84 52
f 52 84 85
f 52 85 86
f 52 86 53
f 53 86 54
f 54 86 85
f 54 85 87
f 54 87 88
f 54 88 89
f 54 89 90
f 54 90 64
f 55 62 91
f 55 91 92
f 55 92 56
f 56 58 57
f 56 92 58
f 58 92 59
f 59 92 63
f 60 65 93
f 60 93 61
f 61 93 94
f 61 94 95
f 61 95 96
f 61 96 62
f 62 96 91
f 63 92 97
f 63 97 98
f 63 98 99
f 63 99 100
f 63 100 66
f 64 90 101
f 64 101 93
f 64 93 65
f 66 100 102
f 66 102 68
f 66 68 67
f 68 102 103
f 68 103 69
f 69 103 104
f 69 104 70
f 70 104 105
f 70 105 106
f 70 106 72
f 71 72 107
f 71 107 73
f 72 106 108
f 72 108 107
f 73 109 74
f 73 107 110
f 73 110 109
f 74 109 77
f 75 77 111
f 75 111 112
f 75 112 113
f 75 113 76
f 76 113 114
f 76 114 78
f 77 109 115
f 77 115 111
f 78 114 116
f 78 116 117
f 78 117 118
f 78 118 79
f 79 118 119
f 79 119 120
f 79 120 121
f 79 121 122
f 79 122 80
f 80 122 81
f 81 122 123
f 81 123 82
f 82 124 125
f 82 125 126
f 82 126 127
f 82 127 83
f 82 123 124
f 83 127 128
f 83 128 84
f 84 128 85
f 85 128 87
f 87 128 129
f 87 129 130
f 87 130 131
f 87 131 132
f 87 132 88
f 88 132 133
f 88 133 134
f 88 134 135
f 88 135 89
f 89 135 101
f 89 101 90
f 91 96 136
f 91 136 137
f 91 137 92
f 92 137 138
f 92 138 139
f 92 139 185
f 92 185 238
f 92 238 286
f 92 286 285
f 92 285 315
f 92 315 344
f 92 344 366
f 92 366 381
f 92 381 390
f 92 390 382
f 92 382 367
f 92 367 345
f 92 345 316
f 92 316 289
f 92 289 247
f 92 247 203
f 92 203 246
f 92 246 288
f 92 288 287
f 92 287 241
f 92 241 239
f 92 239 193
f 92 193 188
f 92 188 143
f 92 143 97
f 93 101 94
f 94 101 95
f 95 101 135
f 95 135 140
f 95 140 141
f 95 141 96
f 96 141 142
f 96 142 136
f 97 143 98
f 98 143 99
f 99 144 145
f 99 145 100
f 99 143 146
f 99 146 144
f 100 145 147
f 100 147 102
f 102 147 148
f 102 148 103
f 103 148 149
f 103 149 104
f 104 149 150
f 104 150 105
f 105 150 151
f 105 151 106
f 106 151 152
f 106 152 108
f 107 108 153
f 107 153 110
f 108 152 153
f 109 110 115
f 110 153 154
f 110 154 155
f 110 155 115
f 111 115 156
f 111 156 157
f 111 157 112
f 112 157 158
f 112 158 113
f 113 158 159
f 113 159 114
f 114 159 160
f 114 160 116
f 115 155 161
f 115 161 156
f 116 160 162
f 116 162 117
f 117 162 119
f 117 119 118
f 119 162 163
f 119 163 164
f 119 164 121
f 119 121 120
f 121 164 165
f 121 165 123
f 121 123 122
f 123 165 166
f 123 166 124
f 124 166 125
f 125 166 167
f 125 167 126
f 126 129 127
f 126 167 168
f 126 168 169
f 126 169 130
f 126 130 129
f 127 129 128
f 130 169 170
f 130 170 171
f 130 171 172
f 130 172 131
f 131 172 173
f 131 173 132
f 132 173 174
f 132 174 175
f 132 175 133
f 133 176 177
f 133 177 140
f 133 140 134
f 133 175 176
f 134 140 135
f 136 142 178
f 136 178 179
f 136 179 137
f 137 179 180
f 137 180 138
f 138 181 182
f 138 182 183
f 138 183 139
f 138 180 184
f 138 184 181
f 139 183 185
f 140 177 186
f 140 186 141
f 141 186 187
f 141 187 142
f 142 187 178
f 143 188 146
f 144 189 145
f 144 146 189
f 145 189 190
f 145 190 148
f 145 148 147
f 146 191 192
f 146 192 189
f 146 188 193
f 146 193 191
f 148 190 149
f 149 190 194
f 149 194 150
f 150 194 195
f 150 195 151
f 151 195 196
f 151 196 152
f 152 196 197
f 152 197 198
f 152 198 199
f 152 199 153
f 153 199 154
f 154 199 198
f 154 198 200
f 154 200 155
f 155 200 201
f 155 201 161
f 156 202 157
f 156 161 201
f 156 201 202
f 157 202 203
f 157 203 204
f 157 204 205
f 157 205 158
f 158 205 206
f 158 206 159
f 159 206 160
f 160 207 162
f 160 206 207
f 162 207 163
f 163 208 164
f 163 207 209
f 163 209 208
f 164 208 210
f 164 210 211
f 164 211 165
f 165 211 212
f 165 212 213
f 165 213 166
f 166 213 214
f 166 214 215
f 166 215 216
f 166 216 217
f 166 217 167
f 167 217 168
f 168 217 216
f 168 216 218
f 168 218 219
f 168 219 220
f 168 220 169
f 169 220 170
f 170 220 171
f 171 220 221
f 171 221 174
f 171 174 172
f 172 174 173
f 174 221 222
f 174 222 223
f 174 223 175
f 175 224 176
f 175 223 225
f 175 225 226
f 175 226 227
f 175 227 228
f 175 228 224
f 176 224 177
f 177 224 229
f 177 229 186
f 178 187 230
f 178 230 231
f 178 231 232
f 178 232 179
f 179 232 233
f 179 233 234
f 179 234 181
f 179 181 184
f 179 184 180
f 181 234 182
f 182 235 236
f 182 236 183
f 182 234 235
f 183 237 238
f 183 238 185
f 183 236 237
f 186 229 187
f 187 229 230
f 189 192 190
f 190 192 194
f 191 193 239
f 191 239 192
f 192 240 195
f 192 195 194
f 192 239 241
f 192 241 240
f 195 240 196
f 196 240 242
f 196 242 243
f 196 243 197
f 197 243 198
f 198 243 244
f 198 244 245
f 198 245 200
f 200 245 201
f 201 245 203
f 201 203 202
f 203 247 248
f 203 248 204
f 203 245 246
f 204 248 247
f 204 247 249
f 204 249 250
f 204 250 205
f 205 250 206
f 206 250 251
f 206 251 207
f 207 251 252
f 207 252 253
f 207 253 209
f 208 209 254
f 208 254 210
f 209 253 255
f 209 255 256
f 209 256 254
f 210 254 256
f 210 256 212
f 210 212 211
f 212 256 257
f 212 257 258
f 212 258 214
f 212 214 213
f 214 258 259
f 214 259 215
f 215 260 216
f 215 259 261
f 215 261 262
f 215 262 263
f 215 263 260
f 216 260 218
f 218 264 219
f 218 260 263
f 218 263 265
f 218 265 266
f 218 266 267
f 218 267 268
f 218 268 264
f 219 221 220
f 219 264 222
f 219 222 221
f 222 264 268
f 222 268 269
f 222 269 225
f 222 225 223
f 224 228 270
f 224 270 229
f 225 269 226
f 226 271 272
f 226 272 227
f 226 269 273
f 226 273 271
f 227 272 270
f 227 270 228
f 229 270 230
f 230 270 231
f 231 274 275
f 231 275 276
f 231 276 232
f 231 270 272
f 231 272 274
f 232 276 233
f 233 276 277
f 233 277 278
f 233 278 234
f 234 278 279
f 234 279 235
f 235 280 281
f 235 281 236
f 235 279 280
f 236 281 282
f 236 282 283
f 236 283 237
f 237 283 284
f 237 284 285
f 237 285 286
f 237 286 238
f 240 241 242
f 241 287 242
f 242 287 243
f 243 245 244
f 243 287 288
f 243 288 245
f 245 288 246
f 247 289 290
f 247 290 249
f 249 290 291
f 249 291 292
f 249 292 250
f 250 292 251
f 251 292 293
f 251 293 294
f 251 294 295
f 251 295 253
f 251 253 252
f 253 295 296
f 253 296 255
f 255 257 256
f 255 296 259
f 255 259 257
f 257 259 258
f 259 296 297
f 259 297 298
f 259 298 261
f 261 298 262
f 262 297 299
f 262 299 300
f 262 300 301
f 262 301 266
f 262 266 265
f 262 265 263
f 262 298 297
f 266 301 302
f 266 302 267
f 267 302 303
f 267 303 273
f 267 273 269
f 267 269 268
f 271 273 303
f 271 303 304
f 271 304 305
f 271 305 306
f 271 306 307
f 271 307 274
f 271 274 272
f 274 307 275
f 275 307 308
f 275 308 276
f 276 308 309
f 276 309 277
f 277 309 310
f 277 310 311
f 277 311 312
f 277 312 278
f 278 312 280
f 278 280 279
f 280 312 281
f 281 313 282
f 281 312 313
f 282 314 284
f 282 284 283
f 282 313 314
f 284 314 315
f 284 315 285
f 289 316 317
f 289 317 291
f 289 291 290
f 291 318 292
f 291 317 319
f 291 319 318
f 292 318 293
f 293 320 321
f 293 321 322
f 293 322 323
f 293 323 294
f 293 318 320
f 294 323 324
f 294 324 295
f 295 324 297
f 295 297 296
f 297 324 323
f 297 323 325
f 297 325 299
f 299 325 300
f 300 323 326
f 300 326 327
f 300 327 328
f 300 328 329
f 300 329 301
f 300 325 323
f 301 329 302
f 302 329 330
f 302 330 303
f 303 330 331
f 303 331 332
f 303 332 304
f 304 332 331
f 304 331 333
f 304 333 334
f 304 334 305
f 305 334 335
f 305 335 336
f 305 336 307
f 305 307 306
f 307 336 335
f 307 335 308
f 308 335 309
f 309 335 337
f 309 337 310
f 310 337 338
f 310 338 311
f 311 338 312
f 312 338 339
f 312 339 313
f 313 339 338
f 313 338 340
f 313 340 314
f 314 341 342
f 314 342 343
f 314 343 344
f 314 344 315
f 314 340 341
f 316 345 317
f 317 345 346
f 317 346 319
f 318 319 347
f 318 347 348
f 318 348 320
f 319 346 347
f 320 348 349
f 320 349 321
f 321 327 350
f 321 350 323
f 321 323 322
f 321 349 327
f 323 350 326
f 326 350 327
f 327 351 352
f 327 352 328
f 327 349 353
f 327 353 351
f 328 352 354
f 328 354 329
f 329 354 330
f 330 354 331
f 331 354 355
f 331 355 334
f 331 334 333
f 334 356 357
f 334 357 337
f 334 337 335
f 334 355 358
f 334 358 356
f 337 357 359
f 337 359 360
f 337 360 338
f 338 360 361
f 338 361 340
f 340 361 362
f 340 362 363
f 340 363 364
f 340 364 341
f 341 364 342
f 342 364 365
f 342 365 344
f 342 344 343
f 344 365 366
f 345 367 368
f 345 368 346
f 346 368 369
f 346 369 347
f 347 370 371
f 347 371 353
f 347 353 349
f 347 349 348
f 347 369 370
f 351 353 371
f 351 371 352
f 352 371 358
f 352 358 355
f 352 355 354
f 356 358 371
f 356 371 372
f 356 372 359
f 356 359 357
f 359 372 373
f 359 373 374
f 359 374 360
f 360 374 361
f 361 374 363
f 361 363 362
f 363 374 375
f 363 375 376
f 363 376 377
f 363 377 378
f 363 378 365
f 363 365 364
f 365 379 380
f 365 380 366
f 365 378 379
f 366 380 381
f 367 382 383
f 367 383 368
f 368 383 384
f 368 384 385
f 368 385 369
f 369 385 386
f 369 386 387
f 369 387 388
f 369 388 370
f 370 388 373
f 370 373 372
f 370 372 371
f 373 388 374
f 374 388 389
f 374 389 375
f 375 389 376
f 376 389 377
f 377 389 386
f 377 386 378
f 378 386 379
f 379 385 384
f 379 384 383
f 379 383 382
f 379 382 390
f 379 390 381
f 379 381 380
f 379 386 385
f 386 389 387
f 387 389 388

