# https://github.com/mikedh/trimesh
v -0.45581971 -0.19410787 -0.00616850
v -0.45557967 -0.18953461 -0.00146353
v -0.45570568 -0.18927447 -0.00619554
v -0.45538763 -0.19400717 -0.00994870
v -0.45535161 -0.19710356 -0.01001360
v -0.45575968 -0.19715391 -0.00611713
v -0.45562767 -0.19425052 -0.00142838
v -0.45456549 -0.18648017 0.00303323
v -0.45546564 -0.18621165 -0.00150950
v -0.45559765 -0.18605221 -0.00615228
v -0.45460151 -0.18993739 0.00315761
v -0.45421143 -0.19401556 -0.01362615
v -0.45522560 -0.18929126 -0.00981350
v -0.45416943 -0.19735531 -0.01369105
v -0.45320925 -0.20164326 -0.01406690
v -0.45235713 -0.20386695 -0.01540539
v -0.45446347 -0.20061951 -0.01001360
v -0.45547765 -0.19725461 -0.00146624
v -0.45487754 -0.20052722 -0.00600085
v -0.45457150 -0.19435120 0.00319817
v -0.45310726 -0.18673191 0.00552903
v -0.45285522 -0.18336700 0.00528837
v -0.45412741 -0.18338379 0.00289803
v -0.45492556 -0.18335021 -0.00155277
v -0.45511758 -0.18605221 -0.00961611
v -0.45502156 -0.18328309 -0.00607657
v -0.45311927 -0.19031500 0.00568315
v -0.45400741 -0.18954300 -0.01348284
v -0.45310126 -0.18971922 -0.01585696
v -0.45322126 -0.19404912 -0.01608409
v -0.45314325 -0.19763222 -0.01602731
v -0.45278921 -0.20069504 -0.01571094
v -0.44876855 -0.20478160 -0.01805261
v -0.44989673 -0.20537739 -0.01687366
v -0.45197308 -0.20520956 -0.01489974
v -0.45245916 -0.20509208 -0.01330167
v -0.45190107 -0.19777486 -0.01755778
v -0.45148100 -0.20216351 -0.01671953
v -0.45305923 -0.20494104 -0.01001360
v -0.45432546 -0.19727138 0.00313868
v -0.45456549 -0.20055239 -0.00153384
v -0.45346130 -0.20046846 0.00299808
v -0.45326929 -0.20493264 -0.00589540
v -0.45287323 -0.19733852 0.00565611
v -0.45307124 -0.19445190 0.00572912
v -0.45086888 -0.18683261 0.00636727
v -0.45068885 -0.18320756 0.00615906
v -0.45242914 -0.18000209 0.00500445
v -0.44788041 -0.17484143 0.00636997
v -0.44686022 -0.17061222 0.00628885
v -0.45004074 -0.17506799 0.00542627
v -0.45201507 -0.17719100 0.00472323
v -0.45291522 -0.17878535 0.00323332
v -0.45247116 -0.17613370 0.00228422
v -0.45380936 -0.17893639 -0.00156899
v -0.45449949 -0.18318239 -0.00947009
v -0.45331128 -0.18318239 -0.01319892
v -0.45285522 -0.18449143 -0.01546217
v -0.45386936 -0.18606900 -0.01326922
v -0.45380336 -0.17871821 -0.00605223
v -0.45269919 -0.17576447 -0.00843987
v -0.45060483 -0.19077651 0.00655114
v -0.45089890 -0.19462813 0.00652680
v -0.45296324 -0.18604383 -0.01561900
v -0.45215308 -0.18976956 -0.01747395
v -0.45200306 -0.18584243 -0.01731171
v -0.45215909 -0.19407429 -0.01766864
v -0.44941665 -0.20196213 -0.01839602
v -0.44774837 -0.20472287 -0.01806072
v -0.44691425 -0.20534381 -0.01783358
v -0.44699827 -0.20729900 -0.01656000
v -0.44913459 -0.20704726 -0.01614899
v -0.45199706 -0.20661090 -0.01266623
v -0.45011875 -0.19788395 -0.01880162
v -0.45049083 -0.19412464 -0.01899901
v -0.45215308 -0.20677034 -0.01004064
v -0.45201507 -0.20276770 0.00505042
v -0.45238114 -0.20041813 0.00534245
v -0.45276520 -0.20515083 -0.00164470
v -0.45238715 -0.20369913 0.00289262
v -0.45218310 -0.20690460 -0.00587647
v -0.45204509 -0.20686265 -0.00327251
v -0.45056884 -0.20106425 0.00604279
v -0.45081488 -0.19783360 0.00642676
v -0.44938063 -0.18961852 0.00674583
v -0.44929662 -0.18682421 0.00665660
v -0.44908059 -0.18306491 0.00653491
v -0.44891857 -0.18087478 0.00647002
v -0.44595407 -0.17145135 0.00660522
v -0.44929662 -0.17114926 0.00511261
v -0.44400376 -0.16618161 0.00652951
v -0.44303160 -0.16253139 0.00625640
v -0.44691425 -0.16683612 0.00533434
v -0.44861252 -0.16820391 0.00465022
v -0.45067687 -0.17090592 0.00274390
v -0.45181705 -0.17486661 0.00322251
v -0.45214111 -0.17327226 -0.00151491
v -0.45277120 -0.17537848 -0.00154736
v -0.45320328 -0.17841613 -0.00942953
v -0.45244715 -0.17667913 -0.01041109
v -0.45097691 -0.17422048 -0.01318269
v -0.44882855 -0.17228208 -0.01879621
v -0.45250715 -0.18189012 -0.01471316
v -0.44930262 -0.17507639 -0.01900442
v -0.45182903 -0.18268730 -0.01681688
v -0.45280719 -0.17535330 -0.00604682
v -0.45217710 -0.17327226 -0.00600356
v -0.45116295 -0.17033531 -0.00585213
v -0.45063485 -0.17032691 -0.00924837
v -0.45200306 -0.17430439 -0.00940520
v -0.44803643 -0.19459457 0.00677287
v -0.44802442 -0.19828673 0.00670256
v -0.45018479 -0.18188174 -0.01908013
v -0.45044281 -0.18555713 -0.01906661
v -0.44974671 -0.17810564 -0.01906120
v -0.45055684 -0.18977796 -0.01904768
v -0.44771838 -0.19789234 -0.01880703
v -0.44718428 -0.20211316 -0.01836627
v -0.44600810 -0.20367395 -0.01811210
v -0.44562402 -0.20695495 -0.01639235
v -0.44695024 -0.20838986 -0.01403986
v -0.45019677 -0.20730738 -0.01380462
v -0.45000475 -0.20776052 -0.01014880
v -0.44799441 -0.19414143 -0.01900442
v -0.44793440 -0.17774482 -0.01944788
v -0.44812645 -0.18157125 -0.01938028
v -0.44433381 -0.16905982 -0.01976965
v -0.45148700 -0.20554521 0.00283043
v -0.44896059 -0.20661930 0.00532082
v -0.45030479 -0.20432008 0.00546683
v -0.45180505 -0.20651860 -0.00012775
v -0.45008276 -0.20785282 -0.00587377
v -0.45037680 -0.20745003 -0.00151491
v -0.44762836 -0.20499978 0.00624829
v -0.44788641 -0.20186982 0.00649976
v -0.44909860 -0.18958494 0.00675124
v -0.39761021 -0.13228913 0.00733530
v -0.44214946 -0.16341248 0.00660522
v -0.43980909 -0.15792456 0.00619151
v -0.43928700 -0.15469392 0.00567775
v -0.44579205 -0.16318591 0.00488818
v -0.44804843 -0.16561100 0.00379846
v -0.45122895 -0.17054508 -0.00143920
v -0.44902659 -0.16693682 0.00275742
v -0.44846851 -0.16491452 0.00177046
v -0.44907459 -0.17114926 -0.01653296
v -0.44835448 -0.17000804 -0.01748477
v -0.44696225 -0.16641657 -0.01718192
v -0.44511996 -0.16360548 -0.01899631
v -0.44590608 -0.16608931 -0.01918288
v -0.44690225 -0.16978986 -0.01931538
v -0.44785039 -0.17354917 -0.01930456
v -0.44973470 -0.16688647 -0.00137430
v -0.44870855 -0.16455369 -0.00493007
v -0.44944066 -0.16629908 -0.00596570
v -0.44863654 -0.16472152 -0.00731500
v -0.44850450 -0.16883326 -0.01512958
v -0.39451971 -0.13199545 0.00738938
v -0.44582807 -0.20073699 -0.01839872
v -0.39451971 -0.12955357 -0.02023474
v -0.39451971 -0.13016614 -0.02017796
v -0.39451971 -0.13201222 -0.01982644
v -0.44543201 -0.20752556 -0.01427241
v -0.39451971 -0.13223039 -0.01951548
v -0.39451971 -0.13291849 -0.01800934
v -0.44700427 -0.20864160 -0.01029211
v -0.44537200 -0.20795352 -0.01045706
v -0.44393175 -0.16540961 -0.01969935
v -0.44046320 -0.16111326 -0.01979669
v -0.44959068 -0.20715635 0.00298726
v -0.44721429 -0.20799546 0.00325225
v -0.44735831 -0.20695495 0.00564530
v -0.44708228 -0.20871712 -0.00589269
v -0.44715429 -0.20849895 -0.00119854
v -0.44588807 -0.20697174 0.00558851
v -0.44567805 -0.20530186 0.00588055
v -0.39737017 -0.13082904 0.00722173
v -0.40107276 -0.13159265 0.00712980
v -0.40119879 -0.13234787 0.00717036
v -0.40317312 -0.13191991 0.00704056
v -0.43260791 -0.14984374 0.00618339
v -0.43640652 -0.15399743 0.00618610
v -0.44165738 -0.15523096 0.00425273
v -0.44289359 -0.15850356 0.00486114
v -0.43570441 -0.15060735 0.00566152
v -0.43865690 -0.15141292 0.00429059
v -0.44479591 -0.16007273 0.00418243
v -0.44392575 -0.15727004 0.00298456
v -0.44747234 -0.16349639 0.00257625
v -0.44510795 -0.15881404 0.00215172
v -0.44422582 -0.15668265 0.00110798
v -0.44578007 -0.15885601 -0.00159603
v -0.44770637 -0.16256495 -0.00146083
v -0.44867853 -0.16457887 -0.00137701
v -0.44516796 -0.16248944 -0.01693045
v -0.44423779 -0.16115521 -0.01797419
v -0.44102729 -0.15621274 -0.01876647
v -0.44189742 -0.15828538 -0.01901524
v -0.44348169 -0.16197757 -0.01929645
v -0.44786840 -0.16296773 -0.00594948
v -0.44537798 -0.15820147 -0.00597652
v -0.44432781 -0.15649804 -0.00736097
v -0.44415978 -0.15688405 -0.00896715
v -0.39451971 -0.13228074 0.00725418
v -0.39451971 -0.12995635 0.00721362
v -0.42105601 -0.14156991 -0.01982373
v -0.39746019 -0.12966265 -0.02014281
v -0.39451971 -0.12712009 -0.01969394
v -0.39451971 -0.13395900 0.00381739
v -0.44534799 -0.20816330 -0.00599274
v -0.43996512 -0.15778191 -0.01955333
v -0.43658655 -0.15381282 -0.01960200
v -0.44543201 -0.20760108 0.00335500
v -0.44536000 -0.20806260 -0.00117691
v -0.39451971 -0.13327931 0.00655384
v -0.39451971 -0.12847109 0.00696485
v -0.39489176 -0.12855500 0.00695944
v -0.39704012 -0.12915078 0.00689725
v -0.40069471 -0.12995635 0.00669986
v -0.40416926 -0.13074513 0.00641864
v -0.41219858 -0.13416879 0.00615906
v -0.42422455 -0.14209857 0.00605631
v -0.42860526 -0.14591662 0.00615095
v -0.43188780 -0.14647043 0.00554255
v -0.44072125 -0.15299887 0.00366056
v -0.43479826 -0.14716692 0.00423381
v -0.43719266 -0.14886195 0.00362000
v -0.44321764 -0.15549948 0.00191107
v -0.44117131 -0.15236952 0.00170556
v -0.44333765 -0.15471909 -0.00171230
v -0.44438784 -0.15641413 -0.00167445
v -0.44441783 -0.15635539 -0.00496522
v -0.44367971 -0.15779030 -0.01284740
v -0.44320564 -0.15883083 -0.01686285
v -0.44126733 -0.15563373 -0.01698182
v -0.44007912 -0.15391352 -0.01693585
v -0.43799679 -0.15221847 -0.01872320
v -0.43936501 -0.15468553 -0.01900172
v -0.44349970 -0.15503795 -0.00595759
v -0.44142335 -0.15197513 -0.00567637
v -0.44113529 -0.15234435 -0.00902664
v -0.44283359 -0.15480300 -0.00899960
v -0.44169340 -0.15462678 -0.01301775
v -0.43283594 -0.14965075 -0.01957226
v -0.42882729 -0.14581592 -0.01955333
v -0.41696934 -0.13778543 -0.01979940
v -0.40912609 -0.13375760 -0.01977777
v -0.40492539 -0.13058569 -0.01943165
v -0.39710012 -0.12750610 -0.01951548
v -0.39451971 -0.12610475 -0.01828786
v -0.39451971 -0.13340518 0.00616987
v -0.43587244 -0.15045630 -0.01898549
v -0.39451971 -0.12817739 0.00679720
v -0.39451971 -0.12764034 0.00645920
v -0.39998660 -0.12731308 0.00517480
v -0.40368919 -0.12805992 0.00483410
v -0.40794989 -0.13044305 0.00527215
v -0.41156248 -0.13147517 0.00488547
v -0.41592518 -0.13427788 0.00504230
v -0.42001785 -0.13842318 0.00585351
v -0.42775311 -0.14261044 0.00527755
v -0.43077760 -0.14324817 0.00406616
v -0.43956305 -0.15038078 0.00167852
v -0.43323801 -0.14486770 0.00361729
v -0.43560239 -0.14616835 0.00170286
v -0.43767274 -0.14829975 0.00168663
v -0.44145934 -0.15198353 -0.00177990
v -0.43989311 -0.15001157 -0.00183398
v -0.44040917 -0.15335969 -0.01466719
v -0.43833885 -0.15163109 -0.01685744
v -0.43658055 -0.14949131 -0.01680065
v -0.43433020 -0.14798926 -0.01868264
v -0.43983308 -0.14996960 -0.00571153
v -0.43952103 -0.15029686 -0.00902393
v -0.43198382 -0.14642847 -0.01895304
v -0.42457259 -0.14201466 -0.01951007
v -0.42030591 -0.13807913 -0.01926130
v -0.41636326 -0.13523448 -0.01912339
v -0.41248661 -0.13384153 -0.01931268
v -0.40857998 -0.13142482 -0.01909636
v -0.39984856 -0.12800118 -0.01918018
v -0.39451971 -0.12568517 -0.01757400
v -0.39451971 -0.12675926 0.00587784
v -0.39451971 -0.12481248 0.00439875
v -0.39543183 -0.12493836 0.00429870
v -0.40647364 -0.12870605 0.00444472
v -0.39753220 -0.12530756 0.00384984
v -0.41450296 -0.13231430 0.00434467
v -0.41938175 -0.13550300 0.00455018
v -0.42368445 -0.13864974 0.00467456
v -0.42706901 -0.14015179 0.00397692
v -0.42906132 -0.14115036 0.00346317
v -0.43797278 -0.14788017 -0.00188536
v -0.43374209 -0.14436421 0.00172990
v -0.43144371 -0.14234192 0.00176234
v -0.43412615 -0.14390269 -0.00196648
v -0.43599845 -0.14575718 -0.00194214
v -0.43793679 -0.14784661 -0.00577372
v -0.43888493 -0.15093461 -0.01317458
v -0.43691060 -0.14901300 -0.01475643
v -0.43469624 -0.14742704 -0.01676009
v -0.43269793 -0.14542152 -0.01672765
v -0.43030353 -0.14423835 -0.01866912
v -0.43766674 -0.14811513 -0.00903205
v -0.43731267 -0.14850952 -0.01171172
v -0.42769911 -0.14263560 -0.01889896
v -0.42400850 -0.13975739 -0.01889355
v -0.41870363 -0.13604844 -0.01886111
v -0.41072834 -0.13195348 -0.01883407
v -0.40232697 -0.12852984 -0.01868535
v -0.39671606 -0.12620544 -0.01745773
v -0.39451971 -0.12503065 -0.01604624
v -0.39451971 -0.12446005 0.00360377
v -0.39451971 -0.12399014 0.00232748
v -0.40904208 -0.12925148 0.00355240
v -0.40343114 -0.12665018 0.00230044
v -0.39633798 -0.12450201 0.00244646
v -0.39982457 -0.12559287 0.00250595
v -0.41696934 -0.13309470 0.00359836
v -0.42232824 -0.13660227 0.00396881
v -0.42470463 -0.13757566 0.00319276
v -0.42950540 -0.14075596 0.00178127
v -0.43597447 -0.14572360 -0.00585754
v -0.43195380 -0.14192235 -0.00197459
v -0.42994946 -0.14027765 -0.00196918
v -0.43192979 -0.14183844 -0.00597111
v -0.43407815 -0.14380201 -0.00591703
v -0.43519432 -0.14669699 -0.01318810
v -0.43305197 -0.14489287 -0.01462123
v -0.43071160 -0.14362578 -0.01671953
v -0.42829921 -0.14159509 -0.01673576
v -0.42586880 -0.14055457 -0.01860963
v -0.43572843 -0.14602570 -0.00906990
v -0.41975980 -0.13567083 -0.01678713
v -0.41569715 -0.13343875 -0.01675198
v -0.41315873 -0.13264156 -0.01793363
v -0.42115804 -0.13701344 -0.01797149
v -0.41180252 -0.13155070 -0.01680877
v -0.40818392 -0.13010740 -0.01702238
v -0.40340115 -0.12800957 -0.01638965
v -0.40064668 -0.12745575 -0.01747936
v -0.39472973 -0.12498030 -0.01580017
v -0.39451971 -0.12496353 -0.01585966
v -0.39451971 -0.12315939 -0.00188266
v -0.39612796 -0.12352022 -0.00190699
v -0.40764985 -0.12826132 0.00243023
v -0.40986421 -0.12880675 0.00141082
v -0.41120241 -0.12976335 0.00244646
v -0.39875039 -0.12495513 0.00145138
v -0.40116277 -0.12540826 0.00022647
v -0.41548112 -0.13186117 0.00250054
v -0.41770746 -0.13268353 0.00151628
v -0.41906370 -0.13374922 0.00234100
v -0.42522669 -0.13714770 0.00110798
v -0.42666095 -0.13860779 0.00199759
v -0.42327038 -0.13620787 0.00211387
v -0.43381410 -0.14403696 -0.00910776
v -0.42991347 -0.14017696 -0.00599274
v -0.42746507 -0.13832248 -0.00190158
v -0.42555075 -0.13666939 -0.00586566
v -0.42746507 -0.13820501 -0.00593866
v -0.43165376 -0.14207340 -0.00916454
v -0.42538872 -0.13672813 -0.00834252
v -0.42964342 -0.14036156 -0.00921321
v -0.43348405 -0.14443974 -0.01166575
v -0.43120368 -0.14273630 -0.01291500
v -0.42885730 -0.14101609 -0.01413991
v -0.42635490 -0.14005948 -0.01676550
v -0.42352242 -0.13804557 -0.01675198
v -0.42205818 -0.13651834 -0.01551896
v -0.41410690 -0.13211292 -0.01546488
v -0.41161048 -0.13022487 -0.01296908
v -0.40587353 -0.12852984 -0.01516743
v -0.40412727 -0.12744736 -0.01358018
v -0.39968653 -0.12581105 -0.01329626
v -0.39638601 -0.12523205 -0.01501601
v -0.39619997 -0.12454396 -0.01278521
v -0.39451971 -0.12432578 -0.01343146
v -0.39451971 -0.12487122 -0.01555681
v -0.39451971 -0.12299157 -0.00603060
v -0.39612796 -0.12334401 -0.00606305
v -0.40149283 -0.12524044 -0.00269115
v -0.40311309 -0.12586978 -0.00132022
v -0.39967453 -0.12472018 -0.00151491
v -0.40752981 -0.12744736 -0.00136619
v -0.41012823 -0.12854661 -0.00125262
v -0.41194654 -0.12931860 -0.00126073
v -0.41516908 -0.13082904 -0.00133104
v -0.42011387 -0.13348908 -0.00149328
v -0.42306636 -0.13521769 -0.00166093
v -0.41809755 -0.13237304 -0.00141757
v -0.42552676 -0.13682883 -0.00182046
v -0.42320437 -0.13517574 -0.00573857
v -0.42934338 -0.14062170 -0.01124392
v -0.41771947 -0.13227236 -0.00852640
v -0.42361244 -0.13582188 -0.00922673
v -0.42509468 -0.13695470 -0.01022722
v -0.42685296 -0.13812109 -0.00926189
v -0.42741107 -0.13945531 -0.01273383
v -0.42454860 -0.13729035 -0.01279873
v -0.42268230 -0.13613235 -0.01281225
v -0.41951977 -0.13426109 -0.01279602
v -0.41675932 -0.13272548 -0.01278250
v -0.41477899 -0.13171852 -0.01283117
v -0.41116042 -0.12915918 -0.00906990
v -0.40925210 -0.12853822 -0.01009202
v -0.40799788 -0.12886548 -0.01343958
v -0.41567914 -0.13135770 -0.00938627
v -0.40673169 -0.12807670 -0.01227415
v -0.39813828 -0.12490479 -0.01181717
v -0.39612796 -0.12374679 -0.00964045
v -0.39451971 -0.12337757 -0.00959177
v -0.40120480 -0.12521526 -0.00788825
v -0.39928447 -0.12440131 -0.00597111
v -0.40357518 -0.12591175 -0.00574938
v -0.40998422 -0.12836200 -0.00551684
v -0.40755383 -0.12737183 -0.00559525
v -0.41179652 -0.12913401 -0.00551143
v -0.41519906 -0.13071995 -0.00552765
v -0.41804953 -0.13222201 -0.00556010
v -0.42011987 -0.13338840 -0.00560337
v -0.41731140 -0.13243179 -0.01049762
v -0.41924374 -0.13329610 -0.00936464
v -0.40971416 -0.12834521 -0.00789907
v -0.40778786 -0.12781657 -0.00916725
v -0.40299909 -0.12605440 -0.00916725
v -0.40058668 -0.12539988 -0.01015150
v -0.39929047 -0.12477052 -0.00928352
f 1 2 3
f 1 3 4
f 1 4 5
f 1 5 6
f 1 6 7
f 1 7 2
f 2 8 9
f 2 9 10
f 2 10 3
f 2 7 11
f 2 11 8
f 3 10 4
f 4 12 5
f 4 10 13
f 4 13 12
f 5 14 15
f 5 15 16
f 5 16 17
f 5 17 6
f 5 12 14
f 6 18 7
f 6 17 19
f 6 19 18
f 7 18 20
f 7 20 11
f 8 11 21
f 8 21 22
f 8 22 23
f 8 23 9
f 9 23 24
f 9 24 10
f 10 25 13
f 10 24 26
f 10 26 25
f 11 27 21
f 11 20 27
f 12 13 25
f 12 25 28
f 12 28 29
f 12 29 30
f 12 30 14
f 14 31 32
f 14 32 16
f 14 16 15
f 14 30 31
f 16 33 34
f 16 34 35
f 16 35 36
f 16 36 17
f 16 32 37
f 16 37 38
f 16 38 33
f 17 36 39
f 17 39 19
f 18 40 20
f 18 19 41
f 18 41 42
f 18 42 40
f 19 39 43
f 19 43 41
f 20 40 44
f 20 44 45
f 20 45 27
f 21 27 46
f 21 46 47
f 21 47 22
f 22 48 23
f 22 47 49
f 22 49 50
f 22 50 51
f 22 51 48
f 23 48 52
f 23 52 53
f 23 53 54
f 23 54 24
f 24 55 26
f 24 54 55
f 25 26 56
f 25 56 57
f 25 57 58
f 25 58 59
f 25 59 28
f 26 55 60
f 26 60 61
f 26 61 56
f 27 62 46
f 27 45 63
f 27 63 62
f 28 59 64
f 28 64 29
f 29 65 30
f 29 64 66
f 29 66 65
f 30 65 67
f 30 67 31
f 31 37 32
f 31 67 37
f 33 38 68
f 33 68 69
f 33 69 70
f 33 70 71
f 33 71 72
f 33 72 34
f 34 72 35
f 35 72 73
f 35 73 36
f 36 73 39
f 37 74 68
f 37 68 38
f 37 67 75
f 37 75 74
f 39 73 76
f 39 76 43
f 40 42 77
f 40 77 78
f 40 78 44
f 41 43 79
f 41 79 80
f 41 80 42
f 42 80 77
f 43 76 81
f 43 81 82
f 43 82 79
f 44 78 83
f 44 83 84
f 44 84 45
f 45 84 63
f 46 62 85
f 46 85 86
f 46 86 87
f 46 87 88
f 46 88 49
f 46 49 47
f 48 51 52
f 49 89 50
f 49 88 89
f 50 90 51
f 50 89 91
f 50 91 92
f 50 92 93
f 50 93 90
f 51 90 52
f 52 90 94
f 52 94 95
f 52 95 96
f 52 96 54
f 52 54 53
f 54 96 95
f 54 95 97
f 54 97 98
f 54 98 55
f 55 98 60
f 56 61 99
f 56 99 100
f 56 100 101
f 56 101 102
f 56 102 57
f 57 102 103
f 57 103 58
f 58 103 102
f 58 102 104
f 58 104 105
f 58 105 66
f 58 66 64
f 58 64 59
f 60 98 106
f 60 106 61
f 61 100 99
f 61 106 107
f 61 107 108
f 61 108 109
f 61 109 110
f 61 110 101
f 61 101 100
f 62 63 85
f 63 111 85
f 63 84 112
f 63 112 111
f 65 66 113
f 65 113 114
f 65 114 67
f 66 105 115
f 66 115 113
f 67 114 116
f 67 116 75
f 68 74 117
f 68 117 118
f 68 118 69
f 69 118 119
f 69 119 70
f 70 120 71
f 70 119 120
f 71 120 121
f 71 121 72
f 72 121 122
f 72 122 73
f 73 122 123
f 73 123 76
f 74 75 124
f 74 124 117
f 75 116 125
f 75 125 126
f 75 126 127
f 75 127 124
f 76 123 81
f 77 83 78
f 77 80 128
f 77 128 129
f 77 129 130
f 77 130 83
f 79 82 131
f 79 131 80
f 80 131 128
f 81 123 132
f 81 132 82
f 82 132 133
f 82 133 131
f 83 130 134
f 83 134 84
f 84 134 135
f 84 135 112
f 85 111 136
f 85 136 137
f 85 137 138
f 85 138 89
f 85 89 86
f 86 89 87
f 87 89 88
f 89 138 91
f 90 93 94
f 91 138 92
f 92 138 139
f 92 139 140
f 92 140 141
f 92 141 93
f 93 141 94
f 94 141 142
f 94 142 95
f 95 143 97
f 95 142 144
f 95 144 145
f 95 145 143
f 97 107 106
f 97 106 98
f 97 143 107
f 101 110 146
f 101 146 102
f 102 146 147
f 102 147 148
f 102 148 149
f 102 149 150
f 102 150 151
f 102 151 104
f 104 151 152
f 104 152 115
f 104 115 105
f 107 143 108
f 108 143 153
f 108 153 154
f 108 154 155
f 108 155 156
f 108 156 109
f 109 148 157
f 109 157 146
f 109 146 110
f 109 156 148
f 111 112 158
f 111 158 136
f 112 135 158
f 113 115 125
f 113 125 114
f 114 125 116
f 115 152 125
f 117 159 118
f 117 124 160
f 117 160 159
f 118 159 119
f 119 159 161
f 119 161 162
f 119 162 120
f 120 163 121
f 120 162 164
f 120 164 165
f 120 165 163
f 121 166 123
f 121 123 122
f 121 163 167
f 121 167 166
f 123 166 132
f 124 127 160
f 125 152 127
f 125 127 126
f 127 152 168
f 127 168 169
f 127 169 160
f 128 131 170
f 128 170 129
f 129 134 130
f 129 170 171
f 129 171 172
f 129 172 134
f 131 133 170
f 132 166 173
f 132 173 174
f 132 174 133
f 133 174 171
f 133 171 170
f 134 172 175
f 134 175 176
f 134 176 158
f 134 158 135
f 136 158 137
f 137 158 177
f 137 177 178
f 137 178 179
f 137 179 138
f 138 179 180
f 138 180 181
f 138 181 182
f 138 182 139
f 139 182 140
f 140 183 184
f 140 184 141
f 140 182 185
f 140 185 186
f 140 186 183
f 141 184 187
f 141 187 142
f 142 187 188
f 142 188 189
f 142 189 145
f 142 145 144
f 143 145 153
f 145 189 190
f 145 190 191
f 145 191 192
f 145 192 193
f 145 193 194
f 145 194 153
f 146 157 147
f 147 157 148
f 148 156 195
f 148 195 149
f 149 195 196
f 149 196 197
f 149 197 198
f 149 198 199
f 149 199 150
f 150 199 168
f 150 168 151
f 151 168 152
f 153 194 154
f 154 194 193
f 154 193 192
f 154 192 200
f 154 200 156
f 154 156 155
f 156 200 201
f 156 201 202
f 156 202 203
f 156 203 196
f 156 196 195
f 158 204 215
f 158 215 251
f 158 251 209
f 158 209 165
f 158 165 164
f 158 164 162
f 158 162 161
f 158 161 160
f 158 160 208
f 158 208 250
f 158 250 282
f 158 282 312
f 158 312 343
f 158 343 379
f 158 379 378
f 158 378 412
f 158 412 380
f 158 380 344
f 158 344 314
f 158 314 313
f 158 313 284
f 158 284 283
f 158 283 254
f 158 254 253
f 158 253 216
f 158 216 205
f 158 205 177
f 158 176 175
f 158 175 204
f 159 160 161
f 160 206 207
f 160 207 208
f 160 169 206
f 163 165 167
f 165 209 210
f 165 210 167
f 166 167 210
f 166 210 173
f 168 199 211
f 168 211 169
f 169 211 212
f 169 212 206
f 171 174 213
f 171 213 175
f 171 175 172
f 173 210 214
f 173 214 174
f 174 214 213
f 175 213 215
f 175 215 204
f 177 205 216
f 177 216 217
f 177 217 178
f 178 180 179
f 178 217 180
f 180 217 218
f 180 218 219
f 180 219 220
f 180 220 221
f 180 221 222
f 180 222 223
f 180 223 181
f 181 223 224
f 181 224 185
f 181 185 182
f 183 187 184
f 183 186 225
f 183 225 187
f 185 224 226
f 185 226 186
f 186 226 227
f 186 227 225
f 187 225 188
f 188 228 191
f 188 191 190
f 188 190 189
f 188 225 228
f 191 228 229
f 191 229 230
f 191 230 231
f 191 231 192
f 192 231 232
f 192 232 201
f 192 201 200
f 196 203 233
f 196 233 234
f 196 234 235
f 196 235 197
f 197 235 236
f 197 236 237
f 197 237 238
f 197 238 198
f 198 238 211
f 198 211 199
f 201 232 202
f 202 232 239
f 202 239 240
f 202 240 241
f 202 241 242
f 202 242 243
f 202 243 203
f 203 243 235
f 203 235 233
f 206 212 244
f 206 244 245
f 206 245 246
f 206 246 207
f 207 247 248
f 207 248 249
f 207 249 208
f 207 246 247
f 208 249 250
f 209 251 213
f 209 213 214
f 209 214 210
f 211 238 212
f 212 252 244
f 212 238 252
f 213 251 215
f 216 253 217
f 217 253 219
f 217 219 218
f 219 253 254
f 219 254 255
f 219 255 256
f 219 256 220
f 220 256 257
f 220 257 258
f 220 258 221
f 221 258 259
f 221 259 260
f 221 260 222
f 222 260 261
f 222 261 224
f 222 224 223
f 224 261 262
f 224 262 226
f 225 227 263
f 225 263 229
f 225 229 228
f 226 262 264
f 226 264 227
f 227 264 265
f 227 265 266
f 227 266 263
f 229 267 230
f 229 263 268
f 229 268 267
f 230 232 231
f 230 267 240
f 230 240 232
f 232 240 239
f 233 235 234
f 235 243 269
f 235 269 236
f 236 269 270
f 236 270 237
f 237 270 271
f 237 271 272
f 237 272 252
f 237 252 238
f 240 267 273
f 240 273 274
f 240 274 241
f 241 274 269
f 241 269 242
f 242 269 243
f 244 252 275
f 244 275 245
f 245 275 276
f 245 276 246
f 246 276 277
f 246 277 278
f 246 278 279
f 246 279 247
f 247 279 248
f 248 279 280
f 248 280 249
f 249 280 281
f 249 281 250
f 250 281 282
f 252 272 275
f 254 283 255
f 255 283 284
f 255 284 285
f 255 285 256
f 256 286 257
f 256 285 287
f 256 287 286
f 257 286 258
f 258 288 259
f 258 286 288
f 259 289 260
f 259 288 289
f 260 290 261
f 260 289 290
f 261 290 291
f 261 291 262
f 262 291 292
f 262 292 264
f 263 266 293
f 263 293 268
f 264 294 265
f 264 292 295
f 264 295 294
f 265 294 296
f 265 296 297
f 265 297 266
f 266 297 293
f 267 268 273
f 268 293 298
f 268 298 273
f 269 274 299
f 269 299 300
f 269 300 270
f 270 300 271
f 271 300 301
f 271 301 272
f 272 301 302
f 272 302 303
f 272 303 275
f 273 298 304
f 273 304 274
f 274 304 305
f 274 305 300
f 274 300 299
f 275 303 306
f 275 306 276
f 276 306 307
f 276 307 277
f 277 307 308
f 277 308 278
f 278 308 309
f 278 309 280
f 278 280 279
f 280 309 281
f 281 310 311
f 281 311 282
f 281 309 310
f 282 311 312
f 284 313 285
f 285 313 314
f 285 314 287
f 286 315 288
f 286 287 316
f 286 316 315
f 287 314 317
f 287 317 318
f 287 318 316
f 288 319 320
f 288 320 289
f 288 315 319
f 289 320 290
f 290 320 291
f 291 320 321
f 291 321 292
f 292 322 295
f 292 321 322
f 293 297 323
f 293 323 298
f 294 295 324
f 294 324 296
f 295 322 325
f 295 325 324
f 296 324 326
f 296 326 327
f 296 327 297
f 297 327 323
f 298 323 304
f 300 305 328
f 300 328 329
f 300 329 301
f 301 329 302
f 302 329 330
f 302 330 303
f 303 330 331
f 303 331 332
f 303 332 306
f 304 323 333
f 304 333 305
f 305 333 328
f 306 332 307
f 307 332 308
f 308 334 335
f 308 335 336
f 308 336 309
f 308 332 337
f 308 337 334
f 309 336 338
f 309 338 339
f 309 339 310
f 310 339 340
f 310 340 341
f 310 341 311
f 311 342 312
f 311 341 342
f 312 342 343
f 314 344 345
f 314 345 317
f 315 316 346
f 315 346 347
f 315 347 348
f 315 348 319
f 316 318 349
f 316 349 350
f 316 350 347
f 316 347 346
f 317 345 349
f 317 349 318
f 319 348 351
f 319 351 352
f 319 352 353
f 319 353 321
f 319 321 320
f 321 354 355
f 321 355 322
f 321 353 356
f 321 356 354
f 322 355 354
f 322 354 325
f 323 327 357
f 323 357 333
f 324 325 358
f 324 358 326
f 325 354 359
f 325 359 360
f 325 360 361
f 325 361 358
f 326 362 357
f 326 357 327
f 326 358 363
f 326 363 364
f 326 364 362
f 328 333 365
f 328 365 329
f 329 365 366
f 329 366 367
f 329 367 330
f 330 367 331
f 331 367 368
f 331 368 332
f 332 368 369
f 332 369 337
f 333 357 365
f 334 337 370
f 334 370 371
f 334 371 335
f 335 371 336
f 336 371 338
f 337 369 370
f 338 371 372
f 338 372 373
f 338 373 339
f 339 373 340
f 340 373 374
f 340 374 375
f 340 375 376
f 340 376 341
f 341 376 342
f 342 376 377
f 342 377 378
f 342 378 379
f 342 379 343
f 344 380 381
f 344 381 345
f 345 381 382
f 345 382 383
f 345 383 384
f 345 384 350
f 345 350 349
f 347 350 385
f 347 385 386
f 347 386 387
f 347 387 388
f 347 388 352
f 347 352 351
f 347 351 348
f 350 383 385
f 350 384 383
f 352 389 390
f 352 390 354
f 352 354 356
f 352 356 353
f 352 388 391
f 352 391 389
f 354 392 359
f 354 390 392
f 357 362 365
f 358 361 363
f 359 392 360
f 360 390 393
f 360 393 363
f 360 363 361
f 360 392 390
f 362 364 394
f 362 394 366
f 362 366 365
f 363 393 395
f 363 395 396
f 363 396 397
f 363 397 398
f 363 398 364
f 364 398 394
f 366 394 367
f 367 394 399
f 367 399 400
f 367 400 368
f 368 400 370
f 368 370 369
f 370 401 402
f 370 402 403
f 370 403 371
f 370 400 401
f 371 404 372
f 371 403 404
f 372 405 406
f 372 406 407
f 372 407 373
f 372 404 408
f 372 408 405
f 373 407 374
f 374 407 409
f 374 409 410
f 374 410 375
f 375 410 377
f 375 377 376
f 377 410 411
f 377 411 378
f 378 411 412
f 380 412 381
f 381 412 411
f 381 411 413
f 381 413 414
f 381 414 382
f 382 415 385
f 382 385 383
f 382 414 415
f 385 416 386
f 385 415 417
f 385 417 416
f 386 416 387
f 387 418 419
f 387 419 388
f 387 416 418
f 388 419 420
f 388 420 391
f 389 391 420
f 389 420 421
f 389 421 393
f 389 393 390
f 393 421 395
f 394 398 397
f 394 397 399
f 395 422 423
f 395 423 396
f 395 421 420
f 395 420 419
f 395 419 408
f 395 408 422
f 396 402 401
f 396 401 397
f 396 423 402
f 397 400 399
f 397 401 400
f 402 423 422
f 402 422 403
f 403 422 404
f 404 422 408
f 405 408 419
f 405 419 424
f 405 424 406
f 406 424 425
f 406 425 426
f 406 426 409
f 406 409 407
f 409 426 427
f 409 427 410
f 410 427 411
f 411 427 428
f 411 428 413
f 413 415 414
f 413 428 426
f 413 426 424
f 413 424 415
f 415 424 417
f 416 417 424
f 416 424 418
f 418 424 419
f 424 426 425
f 426 428 427

