# https://github.com/mikedh/trimesh
v 0.40944416 0.12831752 -0.00126311
v 0.40944416 0.12867677 0.00030600
v 0.40944416 0.12856743 -0.00448343
v 0.41225524 0.12982484 -0.00448039
v 0.41263218 0.12976237 -0.00124182
v 0.41032971 0.12925472 0.00108447
v 0.40944416 0.12902822 0.00146459
v 0.40944416 0.12887202 -0.00623195
v 0.40990737 0.12916099 -0.00670025
v 0.41536611 0.13135560 -0.00450775
v 0.41527073 0.13103538 -0.00127527
v 0.41822716 0.13315190 0.00096892
v 0.41562495 0.13226937 0.00212446
v 0.41150594 0.13027783 0.00218832
v 0.40944416 0.12991075 0.00351720
v 0.40944416 0.12973113 0.00310059
v 0.40944416 0.12905165 -0.00703475
v 0.40944416 0.13169143 -0.01758365
v 0.41344054 0.13378451 -0.01922574
v 0.41788655 0.13340183 -0.00743615
v 0.41839063 0.13301913 -0.00448647
v 0.41867222 0.13285512 -0.00127831
v 0.42070673 0.13399538 -0.00125702
v 0.42561597 0.13740054 0.00045805
v 0.42342703 0.13655705 0.00169874
v 0.41957593 0.13439369 0.00205452
v 0.41720080 0.13372984 0.00355673
v 0.41466671 0.13296445 0.00437169
v 0.40944416 0.13009039 0.00380913
v 0.40944416 0.13209756 -0.01912539
v 0.41849057 0.13702565 -0.02010760
v 0.42111091 0.13801752 -0.01796072
v 0.41088829 0.13305818 -0.02031134
v 0.42039792 0.13419844 -0.00447734
v 0.42324538 0.13558081 -0.00125702
v 0.42579307 0.13727558 -0.00126615
v 0.42770954 0.13865795 -0.00126615
v 0.43027994 0.14068854 -0.00126311
v 0.42991210 0.14096189 0.00107231
v 0.42739164 0.13943113 0.00195417
v 0.42478489 0.13793161 0.00285732
v 0.42239614 0.13708033 0.00396421
v 0.41171484 0.13209756 0.00495555
v 0.41981664 0.13614313 0.00460888
v 0.41624257 0.13484667 0.00524747
v 0.40944416 0.13144151 0.00523227
v 0.40944416 0.13271454 -0.02074011
v 0.41552958 0.13610408 -0.02101075
v 0.41683750 0.13780666 -0.02204466
v 0.42006186 0.13918121 -0.02119625
v 0.42355872 0.14068073 -0.02014105
v 0.42559779 0.14160231 -0.01939603
v 0.42520723 0.13772856 -0.00635358
v 0.42285935 0.13678354 -0.00864339
v 0.40944416 0.13360488 -0.02181963
v 0.42362231 0.13630714 -0.00475711
v 0.42563866 0.13739273 -0.00352858
v 0.42992573 0.14103999 -0.00452600
v 0.43220548 0.14231302 -0.00126919
v 0.43384037 0.14470288 0.00156494
v 0.43113371 0.14248485 0.00198458
v 0.42915368 0.14154764 0.00343509
v 0.42682849 0.14040738 0.00420444
v 0.42389025 0.13901721 0.00481871
v 0.41256861 0.13468266 0.00648816
v 0.42048420 0.13871261 0.00614150
v 0.40944416 0.13214441 0.00572186
v 0.41438515 0.13669764 -0.02237916
v 0.42164681 0.14136801 -0.02228185
v 0.42433074 0.14282067 -0.02168583
v 0.43185127 0.14267228 -0.00450167
v 0.42710552 0.13882976 -0.00478144
v 0.42723723 0.14360167 -0.02005591
v 0.42967139 0.14515586 -0.01942036
v 0.40944416 0.13379233 -0.02203250
v 0.43399933 0.14457012 -0.00449255
v 0.43429905 0.14421867 -0.00130872
v 0.43623821 0.14609306 -0.00135433
v 0.43582950 0.14670223 0.00152845
v 0.43326816 0.14532767 0.00362363
v 0.43127449 0.14420304 0.00430479
v 0.42819091 0.14263323 0.00511976
v 0.40944416 0.13438587 0.00675880
v 0.42463955 0.14227397 0.00642735
v 0.40944416 0.13394853 -0.02217846
v 0.41227343 0.13604159 -0.02252513
v 0.41603366 0.13883757 -0.02264372
v 0.41909003 0.14040738 -0.02257378
v 0.42350875 0.14355481 -0.02244606
v 0.42615637 0.14473411 -0.02210244
v 0.42840434 0.14631955 -0.02166151
v 0.43134718 0.14742076 -0.01998293
v 0.43360877 0.14905305 -0.01924399
v 0.43597481 0.14659290 -0.00452904
v 0.44134727 0.15214580 -0.00371104
v 0.43791397 0.14790498 -0.00141515
v 0.43752797 0.14852196 0.00150412
v 0.43710561 0.14916239 0.00340164
v 0.43494391 0.14761600 0.00412842
v 0.43190577 0.14677253 0.00585870
v 0.40944416 0.13472171 0.00672536
v 0.42872681 0.14605401 0.00649729
v 0.44434910 0.16561023 0.00725143
v 0.44828193 0.17777820 0.00770453
v 0.44966703 0.18304214 0.00787482
v 0.44953082 0.18625985 0.00797213
v 0.44931282 0.19022734 0.00806031
v 0.44850899 0.19435883 0.00808464
v 0.44844542 0.19833411 0.00805119
v 0.44686048 0.19856841 0.00778359
v 0.44677420 0.20247340 0.00738219
v 0.40944416 0.13504972 -0.02264068
v 0.41705093 0.14203186 -0.02298126
v 0.42049329 0.14233645 -0.02271062
v 0.40944416 0.13568235 -0.02272886
v 0.43496663 0.15543382 -0.02227881
v 0.43126543 0.15069314 -0.02221191
v 0.42768682 0.14694434 -0.02225144
v 0.43216008 0.15008397 -0.02150946
v 0.43518463 0.15137262 -0.01977919
v 0.43729635 0.15309081 -0.01912539
v 0.44087496 0.15746441 -0.01781172
v 0.44458069 0.15747222 -0.00498822
v 0.44597036 0.15963559 -0.00507336
v 0.44339996 0.15486368 -0.00158544
v 0.44144261 0.15200523 -0.00154895
v 0.43991672 0.15018550 -0.00149117
v 0.44118830 0.15238010 0.00070740
v 0.43968966 0.15115393 0.00175043
v 0.44070693 0.15312205 0.00315837
v 0.43812287 0.15099773 0.00407977
v 0.43578862 0.15052132 0.00566712
v 0.44009838 0.15777681 0.00668886
v 0.43644258 0.15371561 0.00656419
v 0.40944416 0.13749425 0.00532350
v 0.44692860 0.20432437 0.00702640
v 0.44527553 0.20266085 0.00631787
v 0.44378598 0.16229879 0.00652466
v 0.44771881 0.17025718 0.00684091
v 0.44805030 0.17404503 0.00747038
v 0.45000765 0.18314368 0.00783833
v 0.45033009 0.18645510 0.00788394
v 0.45067524 0.19032105 0.00791131
v 0.45079783 0.19384336 0.00790219
v 0.45051174 0.19795922 0.00777143
v 0.44994859 0.20191109 0.00746429
v 0.44825921 0.20223130 0.00767108
v 0.40944416 0.13728339 -0.02293261
v 0.41861316 0.14382817 -0.02296910
v 0.42121084 0.14529644 -0.02286267
v 0.43384037 0.15685522 -0.02255249
v 0.43515282 0.15709734 -0.02242477
v 0.43591578 0.15446537 -0.02139087
v 0.43850890 0.15979179 -0.02211156
v 0.43829090 0.15509017 -0.01972749
v 0.44192854 0.15995580 -0.01952375
v 0.44438542 0.16300169 -0.01716401
v 0.44778690 0.16299389 -0.00527710
v 0.44609752 0.15930757 -0.00160065
v 0.44482594 0.15717544 -0.00158544
v 0.44436726 0.15785491 0.00187207
v 0.44224644 0.15460596 0.00188727
v 0.44171964 0.15556658 0.00428351
v 0.44517562 0.16072117 0.00426526
v 0.43970329 0.15420765 0.00510759
v 0.40944416 0.13928275 0.00284212
v 0.44549353 0.20583170 0.00274481
v 0.44815477 0.20436342 0.00709634
v 0.44815477 0.20557398 0.00584349
v 0.44707847 0.20652678 0.00416491
v 0.44637908 0.20530844 0.00548771
v 0.44598399 0.16304855 0.00497683
v 0.44746447 0.16683640 0.00562455
v 0.44323193 0.15885459 0.00504982
v 0.44981691 0.17096008 0.00518362
v 0.45065252 0.17504470 0.00569449
v 0.45110664 0.18222990 0.00689869
v 0.45178332 0.18665816 0.00699599
v 0.45206035 0.19038354 0.00712675
v 0.45215116 0.19365593 0.00705073
v 0.45190594 0.19774836 0.00668582
v 0.45154716 0.20203605 0.00566104
v 0.44948538 0.20402759 0.00708418
v 0.40944416 0.13750988 -0.02291740
v 0.44872698 0.19010238 -0.02114455
v 0.44858620 0.18593184 -0.02135742
v 0.44494856 0.17705968 -0.02168888
v 0.44472150 0.17314688 -0.02175578
v 0.43790034 0.16066651 -0.02226665
v 0.43864061 0.16082271 -0.02217238
v 0.43970329 0.15869839 -0.02070362
v 0.44440813 0.16944495 -0.02141215
v 0.44419470 0.16596949 -0.02041169
v 0.44302756 0.16268148 -0.02006503
v 0.44500306 0.16512601 -0.01884563
v 0.44967613 0.16797666 -0.00813860
v 0.44818202 0.16318914 -0.00159761
v 0.44997584 0.16729719 -0.00559944
v 0.44737819 0.16322038 0.00216400
v 0.44563430 0.16001828 0.00199370
v 0.44921291 0.16843745 0.00465450
v 0.40944416 0.13950142 0.00244072
v 0.44699216 0.20694853 0.00224002
v 0.44686501 0.20751086 -0.00221795
v 0.44541178 0.20616754 -0.00198380
v 0.40944416 0.14074322 -0.00083434
v 0.44957622 0.20647993 0.00431696
v 0.44821833 0.20651117 0.00439298
v 0.44837730 0.20723751 0.00196330
v 0.45107486 0.17092884 0.00233733
v 0.45270974 0.17778602 0.00377568
v 0.45298677 0.18021492 0.00452374
v 0.45329105 0.18289375 0.00488865
v 0.45147451 0.17880913 0.00577659
v 0.45364982 0.18684560 0.00524139
v 0.45381785 0.19042259 0.00544209
v 0.45369070 0.19348410 0.00546034
v 0.45320024 0.19763901 0.00520186
v 0.45267343 0.20100513 0.00475789
v 0.45224653 0.20353557 0.00338036
v 0.45010300 0.20495699 0.00543601
v 0.40944416 0.13890786 -0.02196864
v 0.44685138 0.20421503 -0.01877873
v 0.44656529 0.20212195 -0.01921966
v 0.44632461 0.19827162 -0.01987345
v 0.44875876 0.19417137 -0.02074315
v 0.45107486 0.19421824 -0.02018667
v 0.45105217 0.19030544 -0.02046947
v 0.45075243 0.18629110 -0.02053637
v 0.44836821 0.18181597 -0.02136350
v 0.44808212 0.17794222 -0.02101075
v 0.44653351 0.17019471 -0.02007111
v 0.44783234 0.17455268 -0.02035696
v 0.44569790 0.16736748 -0.01956632
v 0.44785959 0.17053053 -0.01711535
v 0.45322292 0.17739552 -0.00777065
v 0.45132010 0.17053834 -0.00575453
v 0.45010300 0.16700042 -0.00157632
v 0.44967613 0.16768769 0.00232516
v 0.45171519 0.17074922 -0.00162193
v 0.44874970 0.16589921 0.00228867
v 0.44854533 0.20792478 -0.00237000
v 0.44671060 0.20766706 -0.00706820
v 0.44531187 0.20622220 -0.00709252
v 0.40944416 0.14079008 -0.00334005
v 0.44514837 0.20605818 -0.01122208
v 0.45018021 0.20701882 0.00169874
v 0.45165616 0.20521471 0.00182950
v 0.45310939 0.17677071 0.00116354
v 0.45241912 0.17529463 0.00241639
v 0.45339095 0.17907466 0.00234645
v 0.45428107 0.18287033 0.00222785
v 0.45492593 0.18687685 0.00230388
v 0.45524840 0.19044601 0.00240423
v 0.45508490 0.19335914 0.00248329
v 0.45429922 0.19765464 0.00248633
v 0.45300496 0.20241092 0.00218528
v 0.45258259 0.20449619 0.00053103
v 0.40944416 0.13900158 -0.02183484
v 0.44525737 0.20571455 -0.01477081
v 0.44627917 0.20519909 -0.01748026
v 0.44682869 0.20647993 -0.01644939
v 0.44791409 0.20417598 -0.01870271
v 0.44876786 0.20237187 -0.01909498
v 0.44868158 0.19820134 -0.02010152
v 0.45079330 0.19817791 -0.01965451
v 0.45199675 0.19825601 -0.01720962
v 0.45238731 0.19426510 -0.01730997
v 0.45241003 0.19043039 -0.01737079
v 0.45209669 0.18640825 -0.01741944
v 0.45025287 0.18227677 -0.02040561
v 0.44961710 0.17846548 -0.01998293
v 0.44925832 0.17656766 -0.01967275
v 0.45358170 0.17973851 -0.00871637
v 0.45465800 0.18258135 -0.00649955
v 0.45377245 0.17877008 -0.00641136
v 0.45335008 0.17651298 -0.00503383
v 0.45271431 0.17494318 -0.00615593
v 0.45275971 0.17411532 -0.00171316
v 0.44859073 0.20809660 -0.00694656
v 0.45112029 0.20715160 -0.00274403
v 0.45112483 0.20735466 -0.00666984
v 0.44654714 0.20747961 -0.01109740
v 0.40944416 0.14080569 -0.00427360
v 0.40944416 0.13992317 -0.01822224
v 0.45198313 0.20592542 -0.00137258
v 0.45404947 0.17910590 -0.00196860
v 0.45485328 0.18273755 -0.00208111
v 0.45549361 0.18681436 -0.00207503
v 0.45583423 0.19049288 -0.00198076
v 0.45570705 0.19334353 -0.00189866
v 0.45500315 0.19775616 -0.00196251
v 0.45386779 0.20252807 -0.00217538
v 0.45272337 0.20516785 -0.00260719
v 0.40944416 0.13968106 -0.01974270
v 0.44660161 0.20694853 -0.01449713
v 0.44838636 0.20704226 -0.01412614
v 0.44833643 0.20638621 -0.01609361
v 0.44864523 0.20498821 -0.01766271
v 0.44980328 0.20379329 -0.01849592
v 0.45035734 0.20134876 -0.01905545
v 0.45435828 0.19810761 -0.00976852
v 0.45501678 0.19382774 -0.00970162
v 0.45092045 0.20247340 -0.01732517
v 0.45330920 0.20259836 -0.00990840
v 0.45503040 0.19057097 -0.00969554
v 0.45457625 0.18660350 -0.00967121
v 0.45143817 0.18237829 -0.01744073
v 0.45387688 0.18258916 -0.00958607
v 0.45531196 0.18669721 -0.00669112
v 0.44850445 0.20781544 -0.01077506
v 0.45221928 0.20621438 -0.00433442
v 0.45222837 0.20623001 -0.00650259
v 0.45218297 0.20623001 -0.00837579
v 0.45106123 0.20694853 -0.00984454
v 0.45572523 0.19051630 -0.00671849
v 0.45568436 0.19349973 -0.00667288
v 0.45508034 0.19788112 -0.00669417
v 0.45412213 0.20256712 -0.00670633
v 0.45297315 0.20523814 -0.00658773
v 0.45003490 0.20663613 -0.01365480
v 0.44963525 0.20626906 -0.01558274
v 0.45014843 0.20512880 -0.01624869
v 0.45112483 0.20533186 -0.01332334
v 0.45261440 0.20532405 -0.00895964
f 1 2 7
f 1 7 16
f 1 16 15
f 1 15 29
f 1 29 46
f 1 46 67
f 1 67 83
f 1 83 101
f 1 101 135
f 1 135 166
f 1 166 202
f 1 202 206
f 1 206 245
f 1 245 284
f 1 284 285
f 1 285 295
f 1 295 259
f 1 259 222
f 1 222 184
f 1 184 148
f 1 148 115
f 1 115 112
f 1 112 85
f 1 85 75
f 1 75 55
f 1 55 47
f 1 47 30
f 1 30 18
f 1 18 17
f 1 17 8
f 1 8 3
f 1 3 4
f 1 4 5
f 1 5 6
f 1 6 2
f 2 6 7
f 3 8 4
f 4 8 9
f 4 9 10
f 4 10 11
f 4 11 5
f 5 11 6
f 6 11 12
f 6 12 13
f 6 13 14
f 6 14 15
f 6 15 16
f 6 16 7
f 8 17 9
f 9 17 18
f 9 18 19
f 9 19 10
f 10 20 21
f 10 21 22
f 10 22 11
f 10 19 20
f 11 22 12
f 12 22 23
f 12 23 24
f 12 24 25
f 12 25 26
f 12 26 27
f 12 27 13
f 13 27 14
f 14 27 15
f 15 28 29
f 15 27 28
f 18 30 19
f 19 31 32
f 19 32 20
f 19 30 33
f 19 33 31
f 20 34 21
f 20 32 34
f 21 34 23
f 21 23 22
f 23 34 35
f 23 35 24
f 24 35 36
f 24 36 37
f 24 37 38
f 24 38 39
f 24 39 40
f 24 40 41
f 24 41 25
f 25 41 26
f 26 41 27
f 27 41 42
f 27 42 28
f 28 43 29
f 28 42 44
f 28 44 45
f 28 45 43
f 29 43 46
f 30 47 33
f 31 33 48
f 31 48 49
f 31 49 50
f 31 50 51
f 31 51 52
f 31 52 32
f 32 52 53
f 32 53 54
f 32 54 34
f 33 47 55
f 33 55 48
f 34 54 56
f 34 56 57
f 34 57 35
f 35 57 36
f 36 57 37
f 37 57 38
f 38 58 59
f 38 59 39
f 38 57 58
f 39 59 60
f 39 60 61
f 39 61 62
f 39 62 40
f 40 62 41
f 41 62 63
f 41 63 42
f 42 63 64
f 42 64 44
f 43 45 65
f 43 65 46
f 44 64 66
f 44 66 45
f 45 66 65
f 46 65 67
f 48 55 68
f 48 68 49
f 49 69 50
f 49 68 69
f 50 69 51
f 51 69 70
f 51 70 52
f 52 71 58
f 52 58 72
f 52 72 53
f 52 70 73
f 52 73 74
f 52 74 71
f 53 57 56
f 53 56 54
f 53 72 57
f 55 75 68
f 57 72 58
f 58 71 59
f 59 71 76
f 59 76 77
f 59 77 60
f 60 77 78
f 60 78 79
f 60 79 80
f 60 80 61
f 61 80 62
f 62 80 81
f 62 81 63
f 63 81 82
f 63 82 64
f 64 82 66
f 65 83 67
f 65 66 84
f 65 84 83
f 66 82 84
f 68 75 85
f 68 85 86
f 68 86 87
f 68 87 88
f 68 88 69
f 69 88 89
f 69 89 90
f 69 90 70
f 70 90 73
f 71 74 76
f 73 90 91
f 73 91 74
f 74 91 92
f 74 92 93
f 74 93 76
f 76 93 94
f 76 94 78
f 76 78 77
f 78 94 95
f 78 95 96
f 78 96 97
f 78 97 79
f 79 97 98
f 79 98 80
f 80 98 99
f 80 99 81
f 81 99 100
f 81 100 82
f 82 100 84
f 83 84 102
f 83 102 103
f 83 103 104
f 83 104 105
f 83 105 106
f 83 106 107
f 83 107 108
f 83 108 109
f 83 109 110
f 83 110 111
f 83 111 101
f 84 100 102
f 85 112 86
f 86 112 87
f 87 113 114
f 87 114 88
f 87 112 115
f 87 115 113
f 88 114 89
f 89 116 117
f 89 117 118
f 89 118 90
f 89 114 116
f 90 118 117
f 90 117 119
f 90 119 91
f 91 119 92
f 92 119 120
f 92 120 93
f 93 120 121
f 93 121 95
f 93 95 94
f 95 121 122
f 95 122 123
f 95 123 124
f 95 124 125
f 95 125 126
f 95 126 127
f 95 127 96
f 96 127 128
f 96 128 97
f 97 128 129
f 97 129 130
f 97 130 98
f 98 130 131
f 98 131 99
f 99 131 132
f 99 132 100
f 100 132 133
f 100 133 134
f 100 134 102
f 101 111 136
f 101 136 137
f 101 137 135
f 102 134 133
f 102 133 103
f 103 138 139
f 103 139 140
f 103 140 104
f 103 133 138
f 104 140 141
f 104 141 105
f 105 141 106
f 106 141 142
f 106 142 143
f 106 143 107
f 107 143 144
f 107 144 109
f 107 109 108
f 109 144 145
f 109 145 146
f 109 146 147
f 109 147 110
f 110 147 111
f 111 147 136
f 113 115 148
f 113 148 149
f 113 149 150
f 113 150 114
f 114 150 151
f 114 151 152
f 114 152 116
f 116 153 119
f 116 119 117
f 116 152 154
f 116 154 153
f 119 153 120
f 120 153 155
f 120 155 121
f 121 155 156
f 121 156 122
f 122 156 124
f 122 124 123
f 124 156 157
f 124 157 158
f 124 158 159
f 124 159 160
f 124 160 125
f 125 160 161
f 125 161 128
f 125 128 126
f 126 128 127
f 128 161 162
f 128 162 130
f 128 130 129
f 130 163 131
f 130 162 164
f 130 164 163
f 131 163 165
f 131 165 132
f 132 165 133
f 133 165 138
f 135 137 167
f 135 167 166
f 136 147 168
f 136 168 169
f 136 169 170
f 136 170 171
f 136 171 137
f 137 171 167
f 138 172 173
f 138 173 139
f 138 165 174
f 138 174 172
f 139 175 176
f 139 176 140
f 139 173 175
f 140 176 177
f 140 177 141
f 141 178 179
f 141 179 142
f 141 177 178
f 142 179 143
f 143 179 144
f 144 179 180
f 144 180 145
f 145 180 181
f 145 181 146
f 146 182 183
f 146 183 147
f 146 181 182
f 147 183 168
f 148 184 149
f 149 151 150
f 149 184 185
f 149 185 186
f 149 186 151
f 151 186 187
f 151 187 188
f 151 188 189
f 151 189 152
f 152 189 190
f 152 190 154
f 153 191 155
f 153 154 191
f 154 190 188
f 154 188 192
f 154 192 193
f 154 193 194
f 154 194 191
f 155 191 156
f 156 194 195
f 156 195 157
f 156 191 194
f 157 195 196
f 157 196 158
f 158 197 159
f 158 196 198
f 158 198 197
f 159 197 199
f 159 199 200
f 159 200 160
f 160 200 161
f 161 200 164
f 161 164 162
f 163 174 165
f 163 164 174
f 164 200 199
f 164 199 201
f 164 201 172
f 164 172 174
f 166 167 202
f 167 171 170
f 167 170 203
f 167 203 204
f 167 204 205
f 167 205 206
f 167 206 202
f 168 183 169
f 169 207 208
f 169 208 170
f 169 183 207
f 170 208 209
f 170 209 203
f 172 201 173
f 173 201 175
f 175 201 210
f 175 210 211
f 175 211 212
f 175 212 176
f 176 212 213
f 176 213 214
f 176 214 177
f 177 214 213
f 177 213 215
f 177 215 178
f 178 215 179
f 179 215 216
f 179 216 180
f 180 217 181
f 180 216 217
f 181 218 219
f 181 219 182
f 181 217 218
f 182 219 220
f 182 220 221
f 182 221 183
f 183 221 207
f 184 222 223
f 184 223 224
f 184 224 225
f 184 225 226
f 184 226 185
f 185 226 227
f 185 227 228
f 185 228 186
f 186 228 229
f 186 229 230
f 186 230 188
f 186 188 187
f 188 230 231
f 188 231 192
f 188 190 189
f 192 232 193
f 192 231 233
f 192 233 232
f 193 232 194
f 194 232 234
f 194 234 195
f 195 234 235
f 195 235 196
f 196 235 236
f 196 236 237
f 196 237 198
f 197 198 238
f 197 238 239
f 197 239 199
f 198 237 240
f 198 240 238
f 199 239 241
f 199 241 201
f 201 241 239
f 201 239 210
f 203 209 242
f 203 242 204
f 204 242 243
f 204 243 205
f 205 243 244
f 205 244 206
f 206 244 246
f 206 246 245
f 207 247 209
f 207 209 208
f 207 221 220
f 207 220 248
f 207 248 247
f 209 247 242
f 210 240 249
f 210 249 250
f 210 250 211
f 210 239 238
f 210 238 240
f 211 251 252
f 211 252 212
f 211 250 249
f 211 249 251
f 212 252 253
f 212 253 213
f 213 253 215
f 215 253 254
f 215 254 216
f 216 254 217
f 217 254 255
f 217 255 218
f 218 255 256
f 218 256 219
f 219 257 220
f 219 256 257
f 220 257 258
f 220 258 248
f 222 259 260
f 222 260 261
f 222 261 223
f 223 261 262
f 223 262 263
f 223 263 264
f 223 264 265
f 223 265 224
f 224 265 225
f 225 265 226
f 226 265 266
f 226 266 227
f 227 266 267
f 227 267 268
f 227 268 228
f 228 268 269
f 228 269 229
f 229 269 270
f 229 270 271
f 229 271 230
f 230 271 231
f 231 271 272
f 231 272 233
f 232 233 273
f 232 273 234
f 233 272 273
f 234 273 235
f 235 273 236
f 236 274 275
f 236 275 276
f 236 276 277
f 236 277 278
f 236 278 237
f 236 273 274
f 237 278 277
f 237 277 240
f 240 277 279
f 240 279 249
f 242 280 243
f 242 247 281
f 242 281 282
f 242 282 280
f 243 280 283
f 243 283 246
f 243 246 244
f 245 246 284
f 246 283 260
f 246 260 285
f 246 285 284
f 247 248 286
f 247 286 281
f 248 258 286
f 249 279 287
f 249 287 288
f 249 288 252
f 249 252 251
f 252 288 253
f 253 288 289
f 253 289 290
f 253 290 254
f 254 290 291
f 254 291 255
f 255 291 292
f 255 292 256
f 256 292 293
f 256 293 257
f 257 293 258
f 258 293 294
f 258 294 286
f 259 295 260
f 260 283 296
f 260 296 262
f 260 262 261
f 260 295 285
f 262 296 297
f 262 297 298
f 262 298 299
f 262 299 263
f 263 300 264
f 263 299 300
f 264 300 301
f 264 301 265
f 265 301 266
f 266 301 267
f 267 302 303
f 267 303 268
f 267 301 304
f 267 304 305
f 267 305 302
f 268 303 269
f 269 303 306
f 269 306 270
f 270 306 307
f 270 307 308
f 270 308 271
f 271 308 272
f 272 308 273
f 273 308 274
f 274 308 309
f 274 309 275
f 275 287 277
f 275 277 276
f 275 309 307
f 275 307 310
f 275 310 288
f 275 288 287
f 277 287 279
f 280 282 311
f 280 311 283
f 281 286 312
f 281 312 282
f 282 312 313
f 282 313 314
f 282 314 315
f 282 315 311
f 283 311 296
f 286 294 312
f 288 310 289
f 289 310 316
f 289 316 290
f 290 316 317
f 290 317 291
f 291 317 318
f 291 318 292
f 292 318 319
f 292 319 293
f 293 319 320
f 293 320 294
f 294 320 312
f 296 311 297
f 297 311 321
f 297 321 322
f 297 322 298
f 298 322 299
f 299 322 300
f 300 304 301
f 300 322 323
f 300 323 304
f 302 318 303
f 302 305 319
f 302 319 318
f 303 317 316
f 303 316 306
f 303 318 317
f 304 323 324
f 304 324 325
f 304 325 305
f 305 325 319
f 306 316 310
f 306 310 307
f 307 309 308
f 311 315 321
f 312 320 313
f 313 320 314
f 314 320 325
f 314 325 324
f 314 324 321
f 314 321 315
f 319 325 320
f 321 324 322
f 322 324 323

