# https://github.com/mikedh/trimesh
v -0.00191665 0.05478067 0.00341982
v 0.00199422 0.05364128 0.00433111
v 0.00181752 0.05473703 0.00339759
v 0.00185286 0.05471764 0.00063160
v -0.00175173 0.05475158 0.00063160
v -0.00572149 0.05458189 0.00338277
v -0.00616912 0.05357341 0.00430641
v -0.00209334 0.05366553 0.00435087
v 0.01051094 0.05076131 0.00454844
v 0.01443358 0.05068374 0.00453115
v 0.00596398 0.05352492 0.00424714
v 0.00551635 0.05448492 0.00331856
v 0.00194710 0.05439764 -0.00311235
v -0.00158681 0.05443643 -0.00311482
v 0.00545745 0.05444128 0.00063901
v 0.00437372 0.05408249 -0.00476700
v -0.00549767 0.05454309 0.00063901
v -0.00957345 0.05420370 0.00324447
v -0.01016244 0.05338917 0.00415329
v -0.01872628 0.05049949 0.00442742
v -0.01481542 0.05072252 0.00451633
v -0.01075142 0.05076616 0.00456078
v -0.00653429 0.05077101 0.00458054
v -0.00221114 0.05077586 0.00458054
v 0.00218269 0.05077586 0.00457313
v 0.00645872 0.05077101 0.00456078
v 0.02289141 0.04682923 0.00454103
v 0.02656667 0.04654801 0.00449410
v 0.01816775 0.05037343 0.00446200
v 0.00969814 0.05333583 0.00404463
v 0.00907382 0.05408249 0.00313581
v 0.00199422 0.05420855 -0.00478676
v -0.00152791 0.05423764 -0.00478429
v -0.00528564 0.05404371 -0.00472008
v -0.00533276 0.05421340 -0.00309506
v 0.00670610 0.05389825 -0.00437186
v 0.00893246 0.05399038 0.00073533
v 0.00899136 0.05369947 -0.00318644
v 0.01309069 0.05251645 -0.00503372
v 0.05780644 0.03697719 -0.01623349
v 0.05780644 0.03672507 -0.01650761
v 0.05780644 0.03484387 -0.01833514
v -0.00731175 0.05389341 -0.00466822
v -0.00940853 0.05414068 0.00064642
v -0.01245948 0.05380129 0.00300739
v -0.01401440 0.05319523 0.00359763
v -0.01758365 0.05257463 0.00351860
v -0.02218951 0.04996617 0.00422985
v -0.02665402 0.04666437 0.00444718
v -0.03102429 0.04290683 0.00450645
v -0.04292179 0.03120269 0.00452374
v -0.05076707 0.01935309 0.00450398
v 0.04685132 0.02316882 0.00458301
v 0.04682776 0.02707182 0.00456819
v 0.02715566 0.04294562 0.00454844
v 0.03897070 0.03510569 0.00455337
v 0.03098406 0.04284380 0.00453609
v 0.03857019 0.03869838 0.00438544
v 0.03443551 0.04229108 0.00431629
v 0.02986499 0.04582075 0.00420516
v 0.02171344 0.04981101 0.00422985
v 0.01697800 0.05232736 0.00358528
v 0.01311425 0.05315159 0.00357540
v 0.01130018 0.05376249 0.00293577
v 0.01130018 0.05373825 0.00220229
v -0.06253499 0.04003170 -0.01874757
v -0.06253499 0.04106927 -0.01775972
v -0.06253499 0.04207775 -0.01670765
v -0.06253499 0.04358562 -0.01500114
v -0.06253499 0.04375531 -0.01474677
v 0.01280798 0.05308371 -0.00302344
v 0.01670706 0.05158070 -0.00500656
v 0.05780644 0.03869838 -0.01356629
v 0.05780644 0.03838808 -0.01428495
v 0.05780644 0.03352994 -0.01907109
v -0.01000930 0.05367038 -0.00375939
v -0.06253499 0.04436622 -0.01327981
v -0.01143464 0.05366068 -0.00163798
v -0.01220032 0.05372371 0.00064395
v -0.06253499 0.04446318 -0.01222528
v -0.06253499 0.04448743 -0.01148933
v -0.02102332 0.05145464 0.00334573
v -0.06253499 0.04389107 -0.00948152
v -0.06253499 0.04376016 -0.00920986
v -0.02522867 0.04930678 0.00362232
v -0.02997589 0.04605832 0.00424961
v -0.03460532 0.04250441 0.00437062
v -0.03879889 0.03877111 0.00441755
v -0.04276865 0.03493599 0.00443977
v -0.04684442 0.02725121 0.00450398
v -0.05076707 0.01526586 0.00449657
v -0.05071995 0.02319791 0.00445953
v -0.05454835 0.01517858 0.00441508
v -0.05464259 0.01097983 0.00446200
v -0.05466615 0.00673744 0.00445706
v 0.05077396 0.00524897 0.00446200
v 0.05077396 0.01054832 0.00449657
v 0.05076218 0.01495556 0.00452127
v 0.05072684 0.01909613 0.00451633
v -0.05467793 0.00524897 0.00445212
v 0.04653327 0.03074694 0.00431135
v 0.04256351 0.03488266 0.00437062
v 0.05058548 0.02285852 0.00442001
v 0.04173893 0.03789354 0.00368653
v 0.03745112 0.04134079 0.00364949
v 0.02859278 0.04732376 0.00345933
v 0.02489396 0.04910314 0.00364208
v 0.03282170 0.04461833 0.00359022
v 0.02058259 0.05112495 0.00337042
v 0.05780644 0.03879535 -0.01244508
v 0.01654215 0.05243402 0.00085634
v 0.01264307 0.05339402 0.00081930
v -0.06253499 0.03732627 -0.01973295
v 0.05780644 0.03262328 -0.01943659
v 0.01657749 0.05202191 -0.00295429
v -0.01281287 0.05334068 -0.00281847
v -0.06253499 0.04161714 -0.00677234
v -0.02860945 0.04778437 0.00346674
v -0.03314464 0.04500621 0.00365443
v -0.03779762 0.04160745 0.00370135
v -0.06253499 0.03922202 -0.00486332
v -0.04210899 0.03791293 0.00370876
v -0.04600807 0.03409236 0.00367172
v -0.04664417 0.03094087 0.00441261
v -0.05041368 0.02676152 0.00422985
v -0.05427742 0.01895552 0.00422244
v -0.05696319 0.01450950 0.00362232
v -0.05736370 0.01019438 0.00372358
v -0.05776421 0.00524897 0.00371123
v -0.05572632 0.00524897 0.00426196
v 0.05461414 0.00524897 0.00434593
v 0.05460236 0.00589381 0.00434099
v 0.05447279 0.01023317 0.00425702
v 0.05024387 0.02634455 0.00401253
v 0.04964311 0.02938937 0.00330621
v 0.04579115 0.03398570 0.00357787
v 0.05423719 0.01457738 0.00403228
v 0.05328304 0.02202459 0.00340500
v 0.04403597 0.03639053 0.00327658
v 0.04000731 0.03983292 0.00334079
v 0.05780644 0.03830566 -0.00986431
v 0.02282073 0.05027646 0.00310617
v 0.05780644 0.03696264 -0.00797752
v 0.05780644 0.03864990 -0.01084723
v -0.06253499 0.03582326 -0.02018242
v 0.05780644 0.02921483 -0.02049359
v -0.06253499 0.03914444 -0.00480899
v -0.06253499 0.03704022 -0.00396437
v -0.05624463 0.01821371 0.00336548
v -0.06253499 0.03335540 -0.00340130
v -0.05834141 0.00524897 0.00333585
v 0.05503821 0.00524897 0.00423479
v 0.05727635 0.00538473 0.00359516
v 0.05681695 0.00963196 0.00347168
v 0.05215219 0.02547668 0.00303949
v 0.04802929 0.03216268 0.00312593
v 0.05780644 0.03048997 -0.00417923
v 0.05780644 0.03383055 -0.00586105
v 0.05608661 0.01407314 0.00318767
v 0.05552118 0.01685130 0.00288885
v 0.05780644 0.03684628 -0.00786639
v -0.06253499 0.03315661 -0.02045902
v 0.05780644 0.02848271 -0.02055533
v -0.06253499 0.03097966 -0.00325312
v -0.06253499 0.02865726 -0.00363838
v -0.06253499 0.02585971 -0.00411008
v -0.06253499 0.02515183 -0.00440150
v -0.05857701 0.00524897 0.00202201
v 0.05727635 0.00524897 0.00359516
v 0.05729991 0.00524897 0.00350378
v 0.05780644 0.03000513 -0.00404093
v -0.06253499 0.03177481 -0.02052076
v 0.05780644 0.02564637 -0.02064671
v -0.06253499 0.02387184 -0.00544862
v -0.05847099 0.00524897 0.00116011
v -0.06253499 0.02129732 -0.00764659
v -0.06253499 0.02042945 -0.00953585
v -0.06253499 0.02005612 -0.01069411
v -0.06253499 0.02035187 -0.01401576
v 0.05762974 0.00524897 0.00099464
v 0.05780644 0.02819181 -0.00380632
v -0.05997879 0.02901604 -0.02042691
v -0.06253499 0.02887544 -0.01993052
v 0.05780644 0.02473971 -0.02043926
v 0.05686406 0.02465729 -0.02060720
v 0.05311812 0.02073975 -0.02045161
v -0.05763463 0.00524897 -0.00199361
v -0.06253499 0.02160277 -0.01564818
v -0.05732836 0.00524897 -0.00289255
v 0.05780644 0.01546464 -0.01052617
v 0.05780644 0.01572646 -0.00992852
v 0.05780644 0.01716160 -0.00741938
v 0.05780644 0.02032763 -0.00516214
v 0.05780644 0.02061854 -0.00495963
v 0.05780644 0.02443426 -0.00396190
v 0.05780644 0.02536516 -0.00373717
v 0.05700542 0.00524897 -0.00122062
v 0.05780644 0.01547434 -0.01381572
v -0.03762092 0.00526352 -0.01899700
v -0.03983551 0.00524897 -0.01891056
v 0.04936039 0.01691918 -0.02023428
v -0.06014371 0.02501123 -0.01951068
v -0.06253499 0.02597607 -0.01914024
v -0.04301602 0.00743077 -0.01880684
v -0.05174478 0.01507192 -0.01888340
v 0.05780644 0.02126823 -0.01926372
v 0.05675805 0.02075914 -0.01945635
v 0.05296498 0.01699675 -0.01937238
v 0.04911302 0.01309860 -0.01918469
v 0.04374148 0.00706714 -0.01871793
v -0.06253499 0.02226701 -0.01644587
v -0.05691607 0.00524897 -0.00352478
v 0.05686406 0.00524897 -0.00171207
v 0.05780644 0.01568282 -0.01407750
v 0.04871251 0.00524897 -0.01436151
v -0.03763270 0.00524897 -0.01899453
v -0.03362760 0.00524897 -0.01899453
v -0.04167314 0.00524897 -0.01855987
v 0.04029002 0.00524897 -0.01887105
v 0.03782807 0.00524897 -0.01896489
v -0.06253499 0.02553486 -0.01895748
v -0.04526595 0.00524897 -0.01711267
v -0.04560756 0.00525867 -0.01697684
v -0.05397114 0.01610949 -0.01839441
v 0.05780644 0.01937734 -0.01820919
v 0.05561542 0.01826704 -0.01884882
v 0.05176345 0.01461617 -0.01886117
v 0.04785259 0.01066953 -0.01872534
v 0.04242215 0.00524897 -0.01848826
v -0.06253499 0.02421124 -0.01812275
v -0.05196860 0.01024287 -0.01612235
v -0.05564386 0.00524897 -0.00516708
v 0.05780644 0.01763190 -0.01651008
v 0.04808819 0.00524897 -0.01523822
v -0.06148660 0.02374094 -0.01856234
v -0.04561934 0.00524897 -0.01696696
v 0.05780644 0.01918340 -0.01804125
v 0.04833556 0.00644169 -0.01598652
v 0.04612098 0.00524897 -0.01680891
v 0.04601496 0.00524897 -0.01687065
v -0.04796350 0.00631563 -0.01621126
v -0.04757477 0.00524897 -0.01557656
f 1 2 3
f 1 3 4
f 1 4 5
f 1 5 6
f 1 6 7
f 1 7 8
f 1 8 2
f 2 9 10
f 2 10 11
f 2 11 3
f 2 8 9
f 3 11 12
f 3 12 4
f 4 13 14
f 4 14 5
f 4 12 15
f 4 15 16
f 4 16 13
f 5 14 17
f 5 17 6
f 6 17 18
f 6 18 19
f 6 19 7
f 7 19 20
f 7 20 21
f 7 21 8
f 8 21 22
f 8 22 23
f 8 23 24
f 8 24 25
f 8 25 26
f 8 26 9
f 9 26 27
f 9 27 10
f 10 27 28
f 10 28 29
f 10 29 11
f 11 29 30
f 11 30 12
f 12 30 31
f 12 31 15
f 13 32 14
f 13 16 32
f 14 33 34
f 14 34 35
f 14 35 17
f 14 32 33
f 15 36 16
f 15 31 37
f 15 37 38
f 15 38 36
f 16 36 39
f 16 39 40
f 16 40 41
f 16 41 42
f 16 42 32
f 17 35 43
f 17 43 44
f 17 44 18
f 18 44 45
f 18 45 46
f 18 46 19
f 19 46 47
f 19 47 48
f 19 48 20
f 20 48 49
f 20 49 21
f 21 49 50
f 21 50 22
f 22 50 51
f 22 51 23
f 23 51 52
f 23 52 53
f 23 53 24
f 24 53 25
f 25 53 54
f 25 54 55
f 25 55 27
f 25 27 26
f 27 55 56
f 27 56 57
f 27 57 28
f 28 57 58
f 28 58 59
f 28 59 60
f 28 60 61
f 28 61 29
f 29 61 62
f 29 62 30
f 30 63 31
f 30 62 63
f 31 63 64
f 31 64 65
f 31 65 37
f 32 42 66
f 32 66 67
f 32 67 33
f 33 67 68
f 33 68 69
f 33 69 70
f 33 70 34
f 34 70 43
f 34 43 35
f 36 38 71
f 36 71 39
f 37 65 38
f 38 65 71
f 39 71 72
f 39 72 73
f 39 73 74
f 39 74 40
f 40 74 73
f 40 73 110
f 40 110 144
f 40 144 141
f 40 141 143
f 40 143 161
f 40 161 158
f 40 158 157
f 40 157 171
f 40 171 181
f 40 181 196
f 40 196 195
f 40 195 194
f 40 194 193
f 40 193 192
f 40 192 191
f 40 191 190
f 40 190 198
f 40 198 214
f 40 214 233
f 40 233 237
f 40 237 225
f 40 225 206
f 40 206 184
f 40 184 173
f 40 173 163
f 40 163 146
f 40 146 114
f 40 114 75
f 40 75 42
f 40 42 41
f 42 75 66
f 43 76 44
f 43 70 77
f 43 77 76
f 44 76 78
f 44 78 79
f 44 79 45
f 45 47 46
f 45 79 80
f 45 80 81
f 45 81 47
f 47 82 48
f 47 81 83
f 47 83 84
f 47 84 82
f 48 82 85
f 48 85 86
f 48 86 49
f 49 86 87
f 49 87 50
f 50 87 88
f 50 88 89
f 50 89 51
f 51 89 90
f 51 90 52
f 52 91 53
f 52 90 92
f 52 92 93
f 52 93 94
f 52 94 95
f 52 95 91
f 53 96 97
f 53 97 98
f 53 98 99
f 53 99 54
f 53 91 100
f 53 100 96
f 54 101 102
f 54 102 58
f 54 58 56
f 54 56 55
f 54 99 103
f 54 103 101
f 56 58 57
f 58 102 104
f 58 104 59
f 59 104 105
f 59 105 60
f 60 106 107
f 60 107 61
f 60 105 108
f 60 108 106
f 61 109 62
f 61 107 109
f 62 109 110
f 62 110 111
f 62 111 64
f 62 64 63
f 64 112 65
f 64 111 112
f 65 112 71
f 66 113 145
f 66 145 162
f 66 162 172
f 66 172 183
f 66 183 203
f 66 203 221
f 66 221 230
f 66 230 211
f 66 211 188
f 66 188 179
f 66 179 178
f 66 178 177
f 66 177 176
f 66 176 174
f 66 174 167
f 66 167 166
f 66 166 165
f 66 165 164
f 66 164 150
f 66 150 148
f 66 148 147
f 66 147 121
f 66 121 117
f 66 117 84
f 66 84 83
f 66 83 81
f 66 81 80
f 66 80 77
f 66 77 70
f 66 70 69
f 66 69 68
f 66 68 67
f 66 75 114
f 66 114 113
f 71 112 111
f 71 111 115
f 71 115 73
f 71 73 72
f 73 115 111
f 73 111 110
f 76 116 78
f 76 77 116
f 77 80 116
f 78 116 79
f 79 116 80
f 82 84 117
f 82 117 85
f 85 118 86
f 85 117 118
f 86 119 120
f 86 120 87
f 86 118 117
f 86 117 121
f 86 121 119
f 87 120 122
f 87 122 88
f 88 122 89
f 89 122 123
f 89 123 124
f 89 124 90
f 90 124 92
f 91 95 100
f 92 124 125
f 92 125 126
f 92 126 93
f 93 126 127
f 93 127 128
f 93 128 129
f 93 129 94
f 94 129 130
f 94 130 95
f 95 130 100
f 96 131 97
f 96 100 130
f 96 130 129
f 96 129 151
f 96 151 168
f 96 168 175
f 96 175 187
f 96 187 189
f 96 189 212
f 96 212 232
f 96 232 242
f 96 242 236
f 96 236 222
f 96 222 218
f 96 218 200
f 96 200 216
f 96 216 217
f 96 217 220
f 96 220 219
f 96 219 229
f 96 229 240
f 96 240 239
f 96 239 234
f 96 234 215
f 96 215 213
f 96 213 197
f 96 197 180
f 96 180 170
f 96 170 169
f 96 169 152
f 96 152 131
f 97 131 98
f 98 131 99
f 99 131 132
f 99 132 133
f 99 133 103
f 101 103 134
f 101 134 135
f 101 135 136
f 101 136 102
f 102 136 104
f 103 133 137
f 103 137 138
f 103 138 134
f 104 136 139
f 104 139 140
f 104 140 105
f 105 140 108
f 106 108 141
f 106 141 107
f 107 141 142
f 107 142 109
f 108 140 143
f 108 143 141
f 109 142 144
f 109 144 110
f 113 114 146
f 113 146 145
f 119 121 147
f 119 147 120
f 120 147 122
f 122 147 148
f 122 148 123
f 123 125 124
f 123 148 125
f 125 148 126
f 126 148 149
f 126 149 127
f 127 149 148
f 127 148 150
f 127 150 128
f 128 150 151
f 128 151 129
f 131 152 132
f 132 152 153
f 132 153 133
f 133 153 154
f 133 154 137
f 134 138 155
f 134 155 135
f 135 156 136
f 135 155 157
f 135 157 158
f 135 158 156
f 136 156 139
f 137 154 159
f 137 159 138
f 138 159 160
f 138 160 157
f 138 157 155
f 139 156 161
f 139 161 140
f 140 161 143
f 141 144 142
f 145 146 162
f 146 163 162
f 150 164 151
f 151 164 165
f 151 165 166
f 151 166 167
f 151 167 168
f 152 169 153
f 153 169 170
f 153 170 171
f 153 171 154
f 154 171 157
f 154 157 159
f 156 158 161
f 157 160 159
f 162 163 172
f 163 173 172
f 167 174 168
f 168 174 176
f 168 176 177
f 168 177 178
f 168 178 179
f 168 179 175
f 170 180 171
f 171 180 181
f 172 182 183
f 172 173 182
f 173 184 185
f 173 185 186
f 173 186 182
f 175 179 187
f 179 188 189
f 179 189 187
f 180 190 191
f 180 191 192
f 180 192 193
f 180 193 194
f 180 194 195
f 180 195 196
f 180 196 181
f 180 197 198
f 180 198 190
f 182 199 200
f 182 200 183
f 182 186 201
f 182 201 199
f 183 202 203
f 183 200 204
f 183 204 205
f 183 205 202
f 184 206 207
f 184 207 208
f 184 208 186
f 184 186 185
f 186 208 209
f 186 209 210
f 186 210 201
f 188 211 212
f 188 212 189
f 197 213 198
f 198 213 215
f 198 215 214
f 199 216 200
f 199 201 217
f 199 217 216
f 200 218 204
f 201 210 219
f 201 219 220
f 201 220 217
f 202 205 203
f 203 205 221
f 204 218 205
f 205 218 222
f 205 222 223
f 205 223 224
f 205 224 221
f 206 225 226
f 206 226 227
f 206 227 208
f 206 208 207
f 208 227 228
f 208 228 229
f 208 229 209
f 209 229 210
f 210 229 219
f 211 230 231
f 211 231 212
f 212 231 232
f 214 215 233
f 215 234 233
f 221 224 235
f 221 235 230
f 222 236 223
f 223 236 224
f 224 236 235
f 225 237 234
f 225 234 238
f 225 238 239
f 225 239 226
f 226 239 240
f 226 240 227
f 227 240 228
f 228 240 229
f 230 235 231
f 231 241 242
f 231 242 232
f 231 235 241
f 233 234 237
f 234 239 238
f 235 236 241
f 236 242 241

