# https://github.com/mikedh/trimesh
v -0.34603548 -0.12984679 -0.02177447
v -0.34978847 -0.12961685 -0.02177161
v -0.36158700 -0.12622746 -0.02121457
v -0.35405753 -0.12675684 -0.02117458
v -0.35037490 -0.12708020 -0.02112887
v -0.34221209 -0.13007675 -0.02160593
v -0.32959261 -0.13389490 -0.02154023
v -0.31465093 -0.14105451 -0.02149738
v -0.31465093 -0.14199827 -0.02150595
v -0.39451968 -0.13016537 -0.02017761
v -0.39451968 -0.12955457 -0.02023474
v -0.37351845 -0.12591847 -0.02105460
v -0.36952307 -0.12599272 -0.02118314
v -0.36548857 -0.12611009 -0.02122885
v -0.36992963 -0.12418186 -0.02022331
v -0.35800601 -0.12615799 -0.02097747
v -0.35965578 -0.12497231 -0.02021474
v -0.34656714 -0.12743710 -0.02098889
v -0.34273596 -0.12786586 -0.02076893
v -0.33411185 -0.13072828 -0.02093747
v -0.33021028 -0.13135345 -0.02068609
v -0.32601941 -0.13382782 -0.02099175
v -0.32207093 -0.13509015 -0.02084892
v -0.31465093 -0.13932509 -0.02090034
v -0.31464310 -0.13472367 -0.00487170
v -0.31465093 -0.14356961 -0.02092319
v -0.39451968 -0.13200498 -0.01982624
v -0.39451968 -0.12711853 -0.01969483
v -0.39318266 -0.12691732 -0.01978625
v -0.37736529 -0.12594003 -0.02080607
v -0.37736529 -0.12393994 -0.01997193
v -0.37382341 -0.12393514 -0.02015761
v -0.37408922 -0.12282850 -0.01765519
v -0.37015640 -0.12311355 -0.01771518
v -0.36206396 -0.12384650 -0.01785515
v -0.35829531 -0.12432558 -0.01822652
v -0.35438594 -0.12436391 -0.01720670
v -0.35700522 -0.12516394 -0.01993193
v -0.35425301 -0.12530287 -0.01944059
v -0.34669226 -0.12588972 -0.01831222
v -0.33970228 -0.12823714 -0.02050898
v -0.32770827 -0.13177024 -0.02038900
v -0.31918581 -0.13585427 -0.02052326
v -0.31465093 -0.13891789 -0.02064610
v -0.31465093 -0.13523867 -0.00135518
v -0.31465093 -0.13532489 -0.00119235
v -0.31465093 -0.13618961 0.00010743
v -0.31465093 -0.13635969 0.00021027
v -0.31465093 -0.13864722 0.00128436
v -0.31465093 -0.13927000 0.00142148
v -0.31465093 -0.14152639 0.00188997
v -0.31465093 -0.14187612 0.00185569
v -0.31465093 -0.14322947 0.00133293
v -0.31465093 -0.14377082 0.00103869
v -0.31465093 -0.14423072 -0.00000398
v -0.31465093 -0.14437204 -0.00075528
v -0.31465093 -0.14429538 -0.00436322
v -0.31465093 -0.14397442 -0.01870643
v -0.31465093 -0.14379477 -0.02004334
v -0.31465093 -0.13715972 -0.01853218
v -0.31465093 -0.13680282 -0.01778659
v -0.31465093 -0.13614890 -0.01636970
v -0.31465093 -0.13536562 -0.01394441
v -0.31465093 -0.13530814 -0.01356733
v -0.31465093 -0.13479793 -0.00976228
v -0.31465093 -0.13479315 -0.00951661
v -0.32072611 -0.13159538 -0.00786832
v -0.31851339 -0.13270920 -0.00478601
v -0.32062447 -0.13181097 -0.00184652
v -0.39451968 -0.13291041 -0.01800941
v -0.39451968 -0.13222535 -0.01951486
v -0.39451968 -0.12609811 -0.01828651
v -0.38885107 -0.12495794 -0.01891783
v -0.38692765 -0.12470164 -0.01920635
v -0.38438655 -0.12445013 -0.01942345
v -0.38107920 -0.12417228 -0.01969483
v -0.37734966 -0.12288599 -0.01760377
v -0.37430033 -0.12170749 -0.01403296
v -0.36813914 -0.12107991 -0.01096493
v -0.36608279 -0.12195660 -0.01336737
v -0.36209524 -0.12227997 -0.01347877
v -0.35819367 -0.12264885 -0.01360732
v -0.35438594 -0.12314228 -0.01379586
v -0.35161808 -0.12456272 -0.01668393
v -0.34672351 -0.12492201 -0.01541558
v -0.34284543 -0.12653406 -0.01827794
v -0.33689534 -0.12857727 -0.02002906
v -0.33050738 -0.12990189 -0.01822652
v -0.32662146 -0.13122650 -0.01781230
v -0.32521408 -0.13219901 -0.01895496
v -0.31665254 -0.13660161 -0.01977196
v -0.31494023 -0.13507818 -0.00134661
v -0.32109360 -0.13212475 -0.00027251
v -0.31504187 -0.13605069 0.00019313
v -0.32376762 -0.13137740 0.00062448
v -0.31478385 -0.13863285 0.00132436
v -0.32581613 -0.13281939 0.00243274
v -0.31852905 -0.13841726 0.00222134
v -0.32345486 -0.13548059 0.00277553
v -0.31945165 -0.13972511 0.00246130
v -0.31938909 -0.13998860 0.00245273
v -0.38780337 -0.13123608 0.00740901
v -0.39386289 -0.13192594 0.00740044
v -0.39451968 -0.13198822 0.00738901
v -0.39451968 -0.13227565 0.00725475
v -0.39451968 -0.13327450 0.00655487
v -0.39451968 -0.13339666 0.00616923
v -0.39451968 -0.13395718 0.00381821
v -0.31549534 -0.13591654 -0.01694960
v -0.31853685 -0.13341344 -0.01397297
v -0.32088249 -0.13162174 -0.01109062
v -0.31906071 -0.13249603 -0.00952518
v -0.32250098 -0.13083368 -0.00953661
v -0.32289972 -0.13051748 -0.00482314
v -0.32056974 -0.13164807 -0.00480315
v -0.32870908 -0.12787065 -0.00327198
v -0.32881073 -0.12795689 -0.00177796
v -0.32734861 -0.12877130 -0.00100952
v -0.32265736 -0.13100853 -0.00112093
v -0.31920926 -0.13280024 -0.00115807
v -0.39451968 -0.12568373 -0.01757520
v -0.39317486 -0.12536515 -0.01764662
v -0.38888235 -0.12433756 -0.01715813
v -0.39451968 -0.12503220 -0.01604690
v -0.39451968 -0.12496034 -0.01585836
v -0.39204895 -0.12471840 -0.01654967
v -0.38536389 -0.12396627 -0.01780945
v -0.38091503 -0.12325725 -0.01754092
v -0.37724019 -0.12179372 -0.01397012
v -0.37437069 -0.12097452 -0.01161339
v -0.37441763 -0.12028706 -0.00915667
v -0.36992183 -0.12061762 -0.00955089
v -0.36602806 -0.12111105 -0.01062784
v -0.36197794 -0.12114698 -0.00931093
v -0.35809985 -0.12159252 -0.00935664
v -0.35425301 -0.12216499 -0.00946805
v -0.34390878 -0.12457948 -0.01259036
v -0.34277504 -0.12519508 -0.01406724
v -0.33887346 -0.12604542 -0.01419294
v -0.33855291 -0.12759998 -0.01855217
v -0.33573815 -0.12796167 -0.01747522
v -0.33440115 -0.12879046 -0.01856932
v -0.33049175 -0.12858685 -0.01439861
v -0.33298594 -0.12829463 -0.01603261
v -0.33173493 -0.12768860 -0.01309884
v -0.32678567 -0.12988032 -0.01407867
v -0.32380669 -0.13110195 -0.01400725
v -0.32169565 -0.13198822 -0.01397583
v -0.32286844 -0.13282179 -0.01776088
v -0.31815374 -0.13514046 -0.01823223
v -0.32917821 -0.12820361 0.00002458
v -0.32722351 -0.13076182 0.00153289
v -0.32857616 -0.13181097 0.00280981
v -0.33171931 -0.12763352 0.00085015
v -0.33066375 -0.13132951 0.00303834
v -0.32669965 -0.13402185 0.00297264
v -0.34572273 -0.12963601 0.00491802
v -0.34966338 -0.12949948 0.00539222
v -0.35352587 -0.12936055 0.00577215
v -0.35736488 -0.12925276 0.00608067
v -0.37056296 -0.12741555 0.00719762
v -0.37382341 -0.12768622 0.00731760
v -0.37772495 -0.12806707 0.00740044
v -0.38172816 -0.12851739 0.00740615
v -0.39004734 -0.13148280 0.00740615
v -0.38980495 -0.12963361 0.00734616
v -0.39451968 -0.13171993 0.00736616
v -0.32682474 -0.12896292 -0.00962802
v -0.32885763 -0.12790659 -0.00642858
v -0.32716095 -0.12858685 -0.00484599
v -0.33046830 -0.12721912 -0.00486028
v -0.33480772 -0.12576517 -0.00107522
v -0.33062468 -0.12735566 -0.00096381
v -0.38893708 -0.12320696 -0.01335594
v -0.39451968 -0.12486932 -0.01555555
v -0.38494949 -0.12252909 -0.01322739
v -0.37714638 -0.12110147 -0.01151626
v -0.37710727 -0.12049785 -0.00912239
v -0.37444108 -0.11990381 -0.00548874
v -0.37028932 -0.12006430 -0.00538590
v -0.36596553 -0.12066791 -0.00881102
v -0.36322895 -0.12073020 -0.00805686
v -0.35795910 -0.12110147 -0.00508595
v -0.35408881 -0.12165000 -0.00504882
v -0.35014816 -0.12231111 -0.00506024
v -0.35032799 -0.12287881 -0.00961659
v -0.34636386 -0.12361656 -0.00971943
v -0.34137548 -0.12482141 -0.01130772
v -0.33472170 -0.12615321 -0.00960802
v -0.33453407 -0.12726463 -0.01440718
v -0.33110163 -0.12731734 -0.00961373
v -0.32910782 -0.12805509 -0.00963373
v -0.33462789 -0.12850063 0.00266412
v -0.33665295 -0.12794491 0.00294979
v -0.33932697 -0.12735087 0.00328116
v -0.34235284 -0.12681671 0.00367823
v -0.34034341 -0.12459865 0.00084158
v -0.33477644 -0.12697960 0.00143577
v -0.34616840 -0.12631849 0.00417529
v -0.35401062 -0.12572684 0.00523796
v -0.34189934 -0.12974620 0.00436954
v -0.35790437 -0.12567893 0.00581215
v -0.36181377 -0.12563582 0.00625207
v -0.37057859 -0.12703709 0.00716620
v -0.37382341 -0.12683108 0.00723761
v -0.37759985 -0.12670413 0.00725761
v -0.38148580 -0.12682868 0.00722047
v -0.38562973 -0.12710895 0.00716048
v -0.38949220 -0.12753292 0.00707478
v -0.39372217 -0.12971026 0.00720905
v -0.39451968 -0.12995458 0.00721190
v -0.33471390 -0.12575319 -0.00490884
v -0.33780231 -0.12495076 -0.00101238
v -0.38898399 -0.12226081 -0.00932807
v -0.39317486 -0.12415072 -0.01395012
v -0.39286211 -0.12299618 -0.00953946
v -0.39451968 -0.12432318 -0.01343307
v -0.38518406 -0.12166198 -0.00927665
v -0.37709944 -0.12015292 -0.00557730
v -0.38390960 -0.12130268 -0.00823683
v -0.37713072 -0.12037329 -0.00143230
v -0.37433944 -0.12018406 -0.00126091
v -0.37018765 -0.12028946 -0.00110093
v -0.36584823 -0.12043557 -0.00099238
v -0.36589517 -0.12027508 -0.00527735
v -0.36264255 -0.12055294 -0.00518594
v -0.36068003 -0.12077810 -0.00513737
v -0.35792002 -0.12108231 -0.00086098
v -0.35404190 -0.12157574 -0.00086383
v -0.35013250 -0.12221290 -0.00090954
v -0.34618403 -0.12304169 -0.00507453
v -0.34252485 -0.12436629 -0.00972514
v -0.34031213 -0.12461780 -0.00809971
v -0.33894385 -0.12512322 -0.00966515
v -0.33967883 -0.12447888 -0.00501454
v -0.33773975 -0.12495794 -0.00496883
v -0.34246228 -0.12529807 0.00245845
v -0.34625439 -0.12473757 0.00310976
v -0.35179791 -0.12402616 0.00400103
v -0.34239975 -0.12379621 -0.00099524
v -0.34620748 -0.12295545 -0.00096381
v -0.34245449 -0.12426569 0.00122437
v -0.35408098 -0.12373153 0.00428384
v -0.35799821 -0.12332673 0.00471234
v -0.36189975 -0.12307042 0.00502371
v -0.36572314 -0.12561425 0.00655202
v -0.36945271 -0.12582744 0.00679483
v -0.37383903 -0.12525017 0.00678912
v -0.37745913 -0.12516394 0.00677198
v -0.38123558 -0.12532442 0.00668057
v -0.38535609 -0.12560947 0.00654059
v -0.38920293 -0.12599991 0.00633777
v -0.39234607 -0.12798084 0.00700337
v -0.39451968 -0.12846708 0.00696623
v -0.38899961 -0.12191827 -0.00585153
v -0.38675565 -0.12150868 -0.00575726
v -0.39287773 -0.12263448 -0.00599437
v -0.39451968 -0.12376028 -0.01114775
v -0.39451968 -0.12337702 -0.00959088
v -0.39451968 -0.12299378 -0.00602865
v -0.38593466 -0.12155419 -0.00167512
v -0.37716201 -0.12083559 0.00148147
v -0.38282279 -0.12135059 0.00068733
v -0.37422997 -0.12063678 0.00144434
v -0.37010946 -0.12062240 0.00135007
v -0.36583260 -0.12068948 0.00127579
v -0.36372153 -0.12074936 0.00119009
v -0.36303349 -0.12061762 -0.00092097
v -0.36106317 -0.12078528 -0.00088383
v -0.35798255 -0.12190630 0.00267555
v -0.35408098 -0.12253388 0.00257557
v -0.34625439 -0.12371238 0.00179856
v -0.34238410 -0.12382255 -0.00505453
v -0.35035924 -0.12336984 0.00261270
v -0.36584043 -0.12128112 0.00285266
v -0.36581698 -0.12291474 0.00521225
v -0.36990618 -0.12284526 0.00531795
v -0.37396413 -0.12284766 0.00533509
v -0.37731838 -0.12296503 0.00526653
v -0.38089937 -0.12323092 0.00516940
v -0.38506679 -0.12359261 0.00505799
v -0.38892925 -0.12403813 0.00488088
v -0.39267445 -0.12453397 0.00460093
v -0.39322959 -0.12687421 0.00623493
v -0.39451968 -0.12817486 0.00679769
v -0.38895271 -0.12205242 -0.00176368
v -0.39279954 -0.12276622 -0.00186080
v -0.39451968 -0.12315666 -0.00188365
v -0.37721674 -0.12137693 0.00310405
v -0.38451947 -0.12192067 0.00198424
v -0.38062573 -0.12164042 0.00268698
v -0.38889017 -0.12271592 0.00225562
v -0.37413613 -0.12121644 0.00306977
v -0.37004693 -0.12119489 0.00295550
v -0.36222033 -0.12135298 0.00242417
v -0.39451968 -0.12480464 0.00439811
v -0.39451968 -0.12675204 0.00587785
v -0.39451968 -0.12764071 0.00646060
v -0.39269008 -0.12348481 0.00220420
v -0.39451968 -0.12399023 0.00232704
v -0.39451968 -0.12445493 0.00360396
f 1 2 3
f 1 3 4
f 1 4 5
f 1 5 6
f 1 6 7
f 1 7 8
f 1 8 9
f 1 9 2
f 2 9 10
f 2 10 11
f 2 11 12
f 2 12 13
f 2 13 14
f 2 14 3
f 3 14 15
f 3 15 16
f 3 16 4
f 4 16 17
f 4 17 5
f 5 18 6
f 5 17 18
f 6 18 19
f 6 19 20
f 6 20 7
f 7 21 22
f 7 22 23
f 7 23 8
f 7 20 21
f 8 24 25
f 8 25 9
f 8 23 24
f 9 25 26
f 9 26 27
f 9 27 10
f 10 27 71
f 10 71 70
f 10 70 108
f 10 108 107
f 10 107 106
f 10 106 105
f 10 105 104
f 10 104 167
f 10 167 211
f 10 211 254
f 10 254 285
f 10 285 298
f 10 298 297
f 10 297 296
f 10 296 301
f 10 301 300
f 10 300 288
f 10 288 260
f 10 260 259
f 10 259 258
f 10 258 217
f 10 217 175
f 10 175 125
f 10 125 124
f 10 124 121
f 10 121 72
f 10 72 28
f 10 28 11
f 11 28 29
f 11 29 30
f 11 30 12
f 12 30 31
f 12 31 32
f 12 32 13
f 13 32 14
f 14 32 15
f 15 32 33
f 15 33 34
f 15 34 17
f 15 17 16
f 17 35 36
f 17 36 37
f 17 37 38
f 17 38 18
f 17 34 35
f 18 38 19
f 19 38 39
f 19 39 40
f 19 40 41
f 19 41 21
f 19 21 20
f 21 42 23
f 21 23 22
f 21 41 42
f 23 42 43
f 23 43 24
f 24 44 25
f 24 43 44
f 25 45 46
f 25 46 47
f 25 47 48
f 25 48 49
f 25 49 50
f 25 50 51
f 25 51 52
f 25 52 53
f 25 53 54
f 25 54 55
f 25 55 56
f 25 56 57
f 25 57 58
f 25 58 59
f 25 59 26
f 25 44 60
f 25 60 61
f 25 61 62
f 25 62 63
f 25 63 64
f 25 64 65
f 25 65 66
f 25 66 67
f 25 67 68
f 25 68 69
f 25 69 45
f 26 59 70
f 26 70 71
f 26 71 27
f 28 72 73
f 28 73 74
f 28 74 29
f 29 74 75
f 29 75 76
f 29 76 31
f 29 31 30
f 31 77 32
f 31 76 77
f 32 77 33
f 33 77 78
f 33 78 79
f 33 79 80
f 33 80 34
f 34 80 81
f 34 81 82
f 34 82 35
f 35 82 36
f 36 82 37
f 37 83 84
f 37 84 40
f 37 40 39
f 37 39 38
f 37 82 83
f 40 85 86
f 40 86 41
f 40 84 83
f 40 83 85
f 41 86 87
f 41 87 42
f 42 87 88
f 42 88 89
f 42 89 90
f 42 90 91
f 42 91 43
f 43 91 44
f 44 91 60
f 45 69 92
f 45 92 93
f 45 93 46
f 46 93 47
f 47 94 48
f 47 93 95
f 47 95 94
f 48 96 49
f 48 94 97
f 48 97 96
f 49 96 50
f 50 96 51
f 51 96 98
f 51 98 99
f 51 99 100
f 51 100 101
f 51 101 52
f 52 101 102
f 52 102 103
f 52 103 53
f 53 103 104
f 53 104 105
f 53 105 54
f 54 105 106
f 54 106 55
f 55 106 107
f 55 107 108
f 55 108 56
f 56 108 57
f 57 108 58
f 58 108 70
f 58 70 59
f 60 91 61
f 61 91 109
f 61 109 62
f 62 109 110
f 62 110 63
f 63 110 111
f 63 111 64
f 64 111 65
f 65 111 112
f 65 112 67
f 65 67 66
f 67 111 113
f 67 113 114
f 67 114 115
f 67 115 68
f 67 112 111
f 68 115 69
f 69 114 116
f 69 116 117
f 69 117 118
f 69 118 119
f 69 119 93
f 69 93 120
f 69 120 92
f 69 115 114
f 72 121 122
f 72 122 73
f 73 123 74
f 73 122 124
f 73 124 125
f 73 125 126
f 73 126 123
f 74 123 127
f 74 127 128
f 74 128 75
f 75 128 76
f 76 128 77
f 77 129 130
f 77 130 78
f 77 128 129
f 78 130 79
f 79 130 131
f 79 131 132
f 79 132 133
f 79 133 80
f 80 133 81
f 81 133 82
f 82 133 134
f 82 134 135
f 82 135 83
f 83 136 137
f 83 137 138
f 83 138 85
f 83 135 136
f 85 138 86
f 86 138 139
f 86 139 140
f 86 140 87
f 87 140 141
f 87 141 142
f 87 142 88
f 88 143 89
f 88 142 144
f 88 144 145
f 88 145 143
f 89 143 146
f 89 146 90
f 90 146 147
f 90 147 148
f 90 148 149
f 90 149 150
f 90 150 91
f 91 150 109
f 92 120 93
f 93 119 151
f 93 151 95
f 94 95 97
f 95 152 153
f 95 153 97
f 95 151 154
f 95 154 152
f 96 97 99
f 96 99 98
f 97 153 99
f 99 153 155
f 99 155 156
f 99 156 157
f 99 157 158
f 99 158 100
f 100 159 101
f 100 158 159
f 101 159 160
f 101 160 161
f 101 161 162
f 101 162 102
f 102 162 163
f 102 163 164
f 102 164 165
f 102 165 103
f 103 165 164
f 103 164 166
f 103 166 104
f 104 166 167
f 109 150 110
f 110 150 149
f 110 149 148
f 110 148 111
f 111 168 113
f 111 148 147
f 111 147 146
f 111 146 145
f 111 145 168
f 113 168 169
f 113 169 170
f 113 170 114
f 114 170 116
f 116 170 169
f 116 169 171
f 116 171 172
f 116 172 117
f 117 151 118
f 117 172 173
f 117 173 151
f 118 151 119
f 121 124 122
f 123 174 127
f 123 126 174
f 125 175 126
f 126 175 174
f 127 174 176
f 127 176 128
f 128 176 129
f 129 177 131
f 129 131 130
f 129 176 177
f 131 177 178
f 131 178 179
f 131 179 180
f 131 180 181
f 131 181 132
f 132 181 133
f 133 181 134
f 134 181 182
f 134 182 135
f 135 182 183
f 135 183 184
f 135 184 136
f 136 184 185
f 136 185 186
f 136 186 137
f 137 186 187
f 137 187 188
f 137 188 139
f 137 139 138
f 139 188 189
f 139 189 145
f 139 145 190
f 139 190 141
f 139 141 140
f 141 190 144
f 141 144 142
f 143 145 146
f 144 190 145
f 145 189 191
f 145 191 192
f 145 192 168
f 151 173 172
f 151 172 154
f 152 154 193
f 152 193 153
f 153 193 194
f 153 194 195
f 153 195 196
f 153 196 155
f 154 172 197
f 154 197 198
f 154 198 194
f 154 194 193
f 155 196 199
f 155 199 200
f 155 200 201
f 155 201 157
f 155 157 156
f 157 201 202
f 157 202 158
f 158 202 203
f 158 203 159
f 159 161 160
f 159 203 161
f 161 203 204
f 161 204 162
f 162 204 205
f 162 205 163
f 163 205 206
f 163 206 164
f 164 207 208
f 164 208 166
f 164 206 207
f 166 208 209
f 166 209 210
f 166 210 211
f 166 211 167
f 168 192 169
f 169 192 191
f 169 191 171
f 171 191 212
f 171 212 172
f 172 212 213
f 172 213 197
f 174 214 176
f 174 175 215
f 174 215 216
f 174 216 214
f 175 217 215
f 176 214 218
f 176 218 178
f 176 178 177
f 178 219 179
f 178 218 220
f 178 220 219
f 179 219 221
f 179 221 222
f 179 222 223
f 179 223 224
f 179 224 180
f 180 224 225
f 180 225 181
f 181 225 182
f 182 226 227
f 182 227 183
f 182 225 226
f 183 227 228
f 183 228 229
f 183 229 184
f 184 229 230
f 184 230 185
f 185 230 231
f 185 231 187
f 185 187 186
f 187 231 232
f 187 232 188
f 188 233 234
f 188 234 189
f 188 232 233
f 189 212 191
f 189 234 233
f 189 233 235
f 189 235 236
f 189 236 212
f 194 198 237
f 194 237 195
f 195 237 238
f 195 238 196
f 196 238 239
f 196 239 199
f 197 213 240
f 197 240 241
f 197 241 242
f 197 242 237
f 197 237 198
f 199 239 243
f 199 243 200
f 200 243 244
f 200 244 202
f 200 202 201
f 202 244 203
f 203 244 245
f 203 245 246
f 203 246 204
f 204 246 247
f 204 247 205
f 205 247 248
f 205 248 206
f 206 248 249
f 206 249 207
f 207 249 208
f 208 249 250
f 208 250 251
f 208 251 209
f 209 251 252
f 209 252 253
f 209 253 211
f 209 211 210
f 211 253 254
f 212 236 213
f 213 236 240
f 214 255 256
f 214 256 220
f 214 220 218
f 214 216 257
f 214 257 255
f 215 217 258
f 215 258 259
f 215 259 216
f 216 259 260
f 216 260 257
f 219 220 256
f 219 256 261
f 219 261 221
f 221 262 222
f 221 261 263
f 221 263 262
f 222 262 264
f 222 264 265
f 222 265 266
f 222 266 223
f 223 266 224
f 224 266 267
f 224 267 268
f 224 268 225
f 225 268 269
f 225 269 226
f 226 269 228
f 226 228 227
f 228 269 267
f 228 267 229
f 229 267 270
f 229 270 230
f 230 270 271
f 230 271 272
f 230 272 242
f 230 242 241
f 230 241 231
f 231 241 273
f 231 273 233
f 231 233 232
f 233 273 235
f 235 273 240
f 235 240 236
f 237 242 238
f 238 242 272
f 238 272 239
f 239 274 271
f 239 271 243
f 239 272 274
f 240 273 241
f 243 271 244
f 244 270 245
f 244 271 270
f 245 275 276
f 245 276 246
f 245 270 275
f 246 276 248
f 246 248 247
f 248 276 277
f 248 277 249
f 249 277 278
f 249 278 279
f 249 279 250
f 250 280 251
f 250 279 280
f 251 280 281
f 251 281 252
f 252 282 283
f 252 283 284
f 252 284 285
f 252 285 254
f 252 254 253
f 252 281 282
f 255 286 256
f 255 257 286
f 256 286 261
f 257 260 287
f 257 287 286
f 260 288 287
f 261 286 263
f 262 289 264
f 262 263 290
f 262 290 291
f 262 291 289
f 263 286 292
f 263 292 290
f 264 289 293
f 264 293 265
f 265 293 294
f 265 294 266
f 266 275 267
f 266 294 275
f 267 295 270
f 267 269 268
f 267 275 295
f 270 295 275
f 271 274 272
f 275 294 276
f 276 294 277
f 277 294 293
f 277 293 278
f 278 293 289
f 278 289 279
f 279 289 280
f 280 289 281
f 281 289 282
f 282 289 291
f 282 291 292
f 282 292 283
f 283 296 297
f 283 297 284
f 283 292 296
f 284 297 298
f 284 298 285
f 286 287 292
f 287 288 299
f 287 299 292
f 288 300 299
f 290 292 291
f 292 299 301
f 292 301 296
f 299 300 301

