# https://github.com/mikedh/trimesh
v 0.32130770 -0.13818773 -0.02521459
v 0.31507432 -0.14093407 -0.02505619
v 0.31781184 -0.13877043 -0.02512452
v 0.34194064 -0.13044307 -0.02497544
v 0.34550124 -0.13013500 -0.02507793
v 0.34906181 -0.12990337 -0.02502202
v 0.40940696 -0.13601455 -0.02307154
v 0.31507432 -0.14157169 -0.02489158
v 0.31507432 -0.13922417 -0.02464000
v 0.40954568 -0.13606469 -0.02305912
v 0.31859793 -0.13690293 -0.02402815
v 0.32234350 -0.13582589 -0.02430146
v 0.33058373 -0.13244193 -0.02414928
v 0.33443101 -0.13152011 -0.02444123
v 0.32959415 -0.13446467 -0.02498165
v 0.33821358 -0.13058875 -0.02456236
v 0.34259725 -0.12889079 -0.02437600
v 0.34616712 -0.12834630 -0.02456546
v 0.34971845 -0.12784480 -0.02463379
v 0.35337154 -0.12741016 -0.02458410
v 0.38092220 -0.12624476 -0.02390702
v 0.38089448 -0.12866392 -0.02400019
v 0.38490822 -0.12884065 -0.02386354
v 0.38484348 -0.12644775 -0.02378900
v 0.40954568 -0.13469870 -0.02300942
v 0.40954568 -0.13596201 -0.02306222
v 0.31507432 -0.14226186 -0.02304359
v 0.40954568 -0.13828327 -0.02197206
v 0.40954568 -0.13849819 -0.02183540
v 0.40954568 -0.13947970 -0.02106204
v 0.31507432 -0.13886835 -0.02435426
v 0.31641534 -0.13753577 -0.02369892
v 0.32745780 -0.13318703 -0.02371756
v 0.33990602 -0.12929678 -0.02415238
v 0.34997741 -0.12690150 -0.02250627
v 0.35371372 -0.12632118 -0.02248453
v 0.35764425 -0.12581729 -0.02236961
v 0.35722806 -0.12704478 -0.02443812
v 0.37685295 -0.12583162 -0.02387906
v 0.36578274 -0.12524891 -0.02303116
v 0.36988898 -0.12500055 -0.02331069
v 0.37289467 -0.12479996 -0.02344735
v 0.37530849 -0.12467099 -0.02347841
v 0.37557669 -0.12466145 -0.02347841
v 0.38864453 -0.12670568 -0.02362438
v 0.39246409 -0.12714987 -0.02338834
v 0.39467442 -0.12749375 -0.02322062
v 0.40328458 -0.13115951 -0.02295662
v 0.40597584 -0.13204550 -0.02257770
v 0.40954568 -0.13338523 -0.02195653
v 0.31507432 -0.14244814 -0.02249074
v 0.40954568 -0.14003852 -0.01883203
v 0.31507432 -0.13801817 -0.02263361
v 0.31743264 -0.13244670 -0.00961380
v 0.32022563 -0.13178281 -0.01192768
v 0.32500702 -0.13368374 -0.02279512
v 0.31507432 -0.13364793 -0.00954858
v 0.33733497 -0.12964067 -0.02321751
v 0.34034993 -0.12501488 -0.01154876
v 0.34275448 -0.12377545 -0.00928148
v 0.34652778 -0.12307573 -0.00932806
v 0.35020862 -0.12253124 -0.00935912
v 0.35802342 -0.12095748 -0.00748007
v 0.36163951 -0.12068045 -0.00788073
v 0.36555153 -0.12047746 -0.00800186
v 0.37331086 -0.11914251 -0.00472516
v 0.37645527 -0.11921893 -0.00491773
v 0.37787952 -0.12472115 -0.02331069
v 0.39233461 -0.12640239 -0.02190684
v 0.38090372 -0.12487877 -0.02278890
v 0.38847806 -0.12565491 -0.02188820
v 0.39607092 -0.12738390 -0.02184161
v 0.39855872 -0.12785197 -0.02095955
v 0.40726137 -0.13132429 -0.02081668
v 0.40444986 -0.13070337 -0.02170496
v 0.40954568 -0.13308194 -0.02161178
v 0.31507432 -0.14353712 -0.00036142
v 0.40954568 -0.14024391 -0.01400550
v 0.31678527 -0.13214580 -0.00622841
v 0.31955051 -0.13140071 -0.00969145
v 0.31507432 -0.13348553 -0.00868515
v 0.32272267 -0.13004903 -0.00975046
v 0.32906699 -0.12821735 -0.01135309
v 0.33788988 -0.12540176 -0.01066359
v 0.33910142 -0.12467578 -0.00929390
v 0.34282846 -0.12298738 -0.00488356
v 0.33666909 -0.12502444 -0.00796148
v 0.33905516 -0.12392830 -0.00505439
v 0.34660179 -0.12226855 -0.00476865
v 0.35560962 -0.12113897 -0.00705457
v 0.36165799 -0.11991148 -0.00451707
v 0.36553305 -0.11953416 -0.00450465
v 0.36991673 -0.11928579 -0.00457608
v 0.36976877 -0.11943386 -0.00105092
v 0.37326463 -0.11933355 -0.00127144
v 0.37651077 -0.11946968 -0.00150127
v 0.38033033 -0.11953654 -0.00506370
v 0.38427010 -0.12060164 -0.00754529
v 0.40202683 -0.12455159 -0.00743969
v 0.39046646 -0.12131569 -0.00698934
v 0.38796017 -0.12098374 -0.00726266
v 0.40821392 -0.12727405 -0.00932806
v 0.40954568 -0.12761555 -0.00890567
v 0.40954568 -0.12817436 -0.01023187
v 0.31507432 -0.14330547 0.00168846
v 0.40954568 -0.14025346 -0.01369802
v 0.40954568 -0.14022480 -0.00982500
v 0.40954568 -0.14012688 -0.00074965
v 0.40954568 -0.14010300 -0.00016575
v 0.40954568 -0.13992867 0.00311405
v 0.31658181 -0.13214580 -0.00327162
v 0.31843146 -0.13131474 -0.00506992
v 0.32287063 -0.12938036 -0.00560102
v 0.31507432 -0.13296971 -0.00487735
v 0.31507432 -0.13296254 -0.00469411
v 0.32829939 -0.12774450 -0.00885908
v 0.32686590 -0.12857079 -0.00997098
v 0.33072245 -0.12725732 -0.00978773
v 0.34286545 -0.12296350 -0.00110372
v 0.34662951 -0.12220169 -0.00095774
v 0.33118487 -0.12630925 -0.00548921
v 0.33409807 -0.12542086 -0.00529043
v 0.33907367 -0.12392830 -0.00129628
v 0.33405184 -0.12542326 -0.00147953
v 0.35510097 -0.12074971 -0.00179322
v 0.35023637 -0.12167869 -0.00469721
v 0.35803269 -0.12045120 -0.00456677
v 0.36163024 -0.12000462 -0.00079935
v 0.36549603 -0.11967745 -0.00088010
v 0.36553305 -0.12019089 0.00115114
v 0.36972251 -0.12005715 0.00124742
v 0.37332010 -0.11999745 0.00117599
v 0.37664025 -0.12006909 0.00092441
v 0.38038580 -0.12025776 0.00054239
v 0.38301232 -0.12043687 0.00022559
v 0.38033957 -0.11980401 -0.00168762
v 0.38419612 -0.12000462 -0.00514446
v 0.39555300 -0.12242139 -0.00529975
v 0.39962225 -0.12361784 -0.00536187
v 0.40428340 -0.12513430 -0.00548921
v 0.40782551 -0.12640715 -0.00562276
v 0.40954568 -0.12730509 -0.00736515
v 0.38791391 -0.12062791 -0.00520347
v 0.39085487 -0.12124166 -0.00523453
v 0.39271378 -0.12168824 -0.00525316
v 0.31507432 -0.14287083 0.00198662
v 0.40954568 -0.13950836 0.00425701
v 0.40954568 -0.13816385 0.00537823
v 0.31507432 -0.13330404 -0.00129318
v 0.31666503 -0.13222699 -0.00239887
v 0.32309260 -0.12945201 -0.00160687
v 0.32771676 -0.12758927 -0.00166278
v 0.32570988 -0.12828661 -0.00566003
v 0.32779074 -0.12749375 -0.00565382
v 0.34659252 -0.12320230 0.00207669
v 0.33656736 -0.12507459 0.00072874
v 0.33907367 -0.12465906 0.00136545
v 0.35020862 -0.12250020 0.00218229
v 0.35021786 -0.12158555 -0.00085525
v 0.33129584 -0.12626864 -0.00158824
v 0.35383396 -0.12104822 -0.00076829
v 0.35720034 -0.12070195 0.00032809
v 0.35831936 -0.12042731 -0.00074965
v 0.35984534 -0.12047030 0.00081260
v 0.36163951 -0.12036761 0.00094615
v 0.36558852 -0.12086672 0.00272582
v 0.36971327 -0.12074493 0.00288111
v 0.37334785 -0.12068045 0.00285316
v 0.37670499 -0.12072105 0.00262643
v 0.38039504 -0.12086911 0.00226615
v 0.38419612 -0.12105778 0.00152695
v 0.38794166 -0.12172645 0.00172573
v 0.38541687 -0.12068523 -0.00020923
v 0.38419612 -0.12030791 -0.00156650
v 0.38788616 -0.12077598 -0.00255727
v 0.39556227 -0.12251691 -0.00189261
v 0.40211005 -0.12448710 -0.00248273
v 0.40771451 -0.12651224 -0.00152612
v 0.40954568 -0.12714030 -0.00564140
v 0.39054968 -0.12120345 -0.00320639
v 0.31507432 -0.14152155 0.00280657
v 0.40954568 -0.13776982 0.00551799
v 0.31507432 -0.13337090 -0.00117826
v 0.31700721 -0.13249686 -0.00025271
v 0.31524082 -0.13321091 -0.00129007
v 0.31855170 -0.13151773 -0.00142673
v 0.32834565 -0.12803586 0.00108281
v 0.34268974 -0.12417426 0.00220403
v 0.34132100 -0.12511996 0.00330972
v 0.33529110 -0.12592954 0.00171020
v 0.33907367 -0.12543759 0.00283142
v 0.35018087 -0.12388052 0.00415141
v 0.35393569 -0.12187690 0.00225062
v 0.34380880 -0.12476891 0.00357993
v 0.34654629 -0.12437725 0.00383461
v 0.36168574 -0.12104106 0.00247114
v 0.35827313 -0.12118195 0.00199904
v 0.36173200 -0.12285363 0.00479433
v 0.36562551 -0.12262677 0.00487197
v 0.36966704 -0.12244766 0.00488750
v 0.37337560 -0.12234019 0.00485334
v 0.37681596 -0.12234019 0.00477569
v 0.38049680 -0.12244289 0.00464525
v 0.38429785 -0.12266736 0.00446200
v 0.38810813 -0.12303275 0.00420421
v 0.38788616 -0.12100763 -0.00072791
v 0.39200167 -0.12357008 0.00385635
v 0.39181669 -0.12251453 0.00170399
v 0.39175195 -0.12159511 -0.00196715
v 0.39888239 -0.12403815 0.00074427
v 0.40143493 -0.12457069 -0.00003841
v 0.39989048 -0.12386859 -0.00150127
v 0.40349731 -0.12504354 -0.00138014
v 0.40954568 -0.12757972 0.00024423
v 0.40954568 -0.12729793 -0.00148574
v 0.40954568 -0.12722867 -0.00329336
v 0.31507432 -0.14090302 0.00301777
v 0.40954568 -0.13433332 0.00604289
v 0.40503252 -0.13382226 0.00625098
v 0.40109275 -0.13378166 0.00630999
v 0.33772341 -0.13441451 0.00519498
v 0.31507432 -0.13518348 0.00167914
v 0.31808928 -0.13313209 0.00159217
v 0.32016089 -0.13194282 0.00162013
v 0.32327758 -0.13050278 0.00165119
v 0.32714337 -0.12903170 0.00191208
v 0.32958491 -0.12872841 0.00304572
v 0.33109238 -0.12746509 0.00192140
v 0.33220216 -0.12819824 0.00351160
v 0.33516163 -0.12771584 0.00387188
v 0.35391718 -0.12346021 0.00443094
v 0.33887945 -0.12724539 0.00421974
v 0.34634283 -0.12665314 0.00501174
v 0.35786622 -0.12312589 0.00464835
v 0.35766273 -0.12623043 0.00594971
v 0.36153778 -0.12609910 0.00611432
v 0.36945431 -0.12585311 0.00629757
v 0.36543132 -0.12596535 0.00622924
v 0.37328311 -0.12575998 0.00632552
v 0.37689921 -0.12569310 0.00629446
v 0.38068175 -0.12564534 0.00619507
v 0.38456604 -0.12562863 0.00601493
v 0.38839484 -0.12566922 0.00571677
v 0.39225136 -0.12577192 0.00526331
v 0.39997370 -0.12659343 0.00448374
v 0.39419350 -0.12394023 0.00362031
v 0.39553452 -0.12351515 0.00180648
v 0.40001069 -0.12481667 0.00186239
v 0.40359904 -0.12586983 0.00184375
v 0.39681078 -0.12438203 0.00304883
v 0.40954568 -0.12786390 0.00135923
v 0.31507432 -0.14027734 0.00316685
v 0.40954568 -0.13388196 0.00598698
v 0.40900928 -0.13387241 0.00605220
v 0.39272302 -0.13004186 0.00644355
v 0.38883875 -0.13000605 0.00651187
v 0.39669981 -0.13004426 0.00628825
v 0.38494521 -0.12994156 0.00651498
v 0.38092220 -0.12988187 0.00646529
v 0.34947800 -0.13048129 0.00593729
v 0.34577868 -0.13070577 0.00583169
v 0.34206085 -0.13091831 0.00564844
v 0.33426454 -0.13440257 0.00502416
v 0.31507432 -0.13685755 0.00294323
v 0.31656330 -0.13589515 0.00319480
v 0.32121521 -0.13239894 0.00308920
v 0.32325907 -0.13183773 0.00341532
v 0.32717112 -0.13095890 0.00386257
v 0.33480094 -0.13084905 0.00494030
v 0.35000516 -0.12645253 0.00538755
v 0.35375071 -0.12632835 0.00570745
v 0.35326054 -0.13031411 0.00600562
v 0.40051010 -0.13004903 0.00600251
v 0.40432039 -0.13006098 0.00549004
v 0.40381174 -0.12728836 0.00407376
v 0.40657698 -0.12787823 0.00368553
v 0.40779776 -0.12742928 0.00196799
v 0.40954568 -0.12839884 0.00248977
v 0.40926824 -0.12850631 0.00296497
v 0.31812627 -0.13789399 0.00358614
v 0.31507432 -0.13858416 0.00325381
v 0.33046349 -0.13423540 0.00480675
v 0.32649597 -0.13409212 0.00454275
v 0.40954568 -0.13022337 0.00442783
v 0.33838004 -0.13098278 0.00535960
v 0.31507432 -0.13817818 0.00321655
v 0.31939328 -0.13440018 0.00338116
v 0.32273191 -0.13411361 0.00402096
v 0.40824167 -0.12986992 0.00454275
v 0.40954568 -0.12874035 0.00308299
v 0.40954568 -0.12857557 0.00285626
f 1 2 3
f 1 3 4
f 1 4 5
f 1 5 6
f 1 6 7
f 1 7 2
f 2 8 27
f 2 27 51
f 2 51 77
f 2 77 105
f 2 105 146
f 2 146 181
f 2 181 217
f 2 217 252
f 2 252 281
f 2 281 286
f 2 286 264
f 2 264 222
f 2 222 183
f 2 183 149
f 2 149 115
f 2 115 114
f 2 114 81
f 2 81 57
f 2 57 53
f 2 53 31
f 2 31 9
f 2 9 3
f 2 7 10
f 2 10 8
f 3 11 12
f 3 12 13
f 3 13 14
f 3 14 15
f 3 15 4
f 3 9 11
f 4 16 17
f 4 17 18
f 4 18 19
f 4 19 5
f 4 15 16
f 5 19 20
f 5 20 6
f 6 20 21
f 6 21 22
f 6 22 7
f 7 22 23
f 7 23 24
f 7 24 25
f 7 25 26
f 7 26 10
f 8 10 28
f 8 28 29
f 8 29 30
f 8 30 27
f 9 31 11
f 10 26 25
f 10 25 50
f 10 50 76
f 10 76 104
f 10 104 103
f 10 103 142
f 10 142 179
f 10 179 216
f 10 216 215
f 10 215 214
f 10 214 251
f 10 251 278
f 10 278 291
f 10 291 290
f 10 290 284
f 10 284 253
f 10 253 218
f 10 218 182
f 10 182 148
f 10 148 147
f 10 147 110
f 10 110 109
f 10 109 108
f 10 108 107
f 10 107 106
f 10 106 78
f 10 78 52
f 10 52 30
f 10 30 29
f 10 29 28
f 11 31 32
f 11 32 33
f 11 33 13
f 11 13 12
f 13 33 34
f 13 34 14
f 14 34 17
f 14 17 16
f 14 16 15
f 17 34 35
f 17 35 18
f 18 35 36
f 18 36 19
f 19 36 37
f 19 37 20
f 20 38 39
f 20 39 21
f 20 37 40
f 20 40 41
f 20 41 42
f 20 42 43
f 20 43 44
f 20 44 38
f 21 39 44
f 21 44 24
f 21 24 22
f 22 24 23
f 24 45 25
f 24 44 45
f 25 46 47
f 25 47 48
f 25 48 49
f 25 49 50
f 25 45 46
f 27 30 51
f 30 52 51
f 31 53 32
f 32 54 55
f 32 55 56
f 32 56 33
f 32 53 57
f 32 57 54
f 33 56 58
f 33 58 34
f 34 58 59
f 34 59 60
f 34 60 61
f 34 61 35
f 35 61 36
f 36 61 62
f 36 62 63
f 36 63 37
f 37 63 64
f 37 64 40
f 38 44 39
f 40 64 41
f 41 64 42
f 42 64 65
f 42 65 43
f 43 65 66
f 43 66 44
f 44 66 67
f 44 67 68
f 44 68 45
f 45 68 46
f 46 69 47
f 46 68 70
f 46 70 71
f 46 71 69
f 47 69 72
f 47 72 73
f 47 73 74
f 47 74 75
f 47 75 49
f 47 49 48
f 49 75 74
f 49 74 76
f 49 76 50
f 51 52 77
f 52 78 77
f 54 79 80
f 54 80 55
f 54 57 81
f 54 81 79
f 55 80 82
f 55 82 56
f 56 82 83
f 56 83 58
f 58 84 59
f 58 83 84
f 59 84 85
f 59 85 60
f 60 86 61
f 60 85 87
f 60 87 88
f 60 88 86
f 61 86 89
f 61 89 90
f 61 90 62
f 62 90 63
f 63 91 64
f 63 90 91
f 64 91 92
f 64 92 93
f 64 93 65
f 65 93 66
f 66 93 94
f 66 94 95
f 66 95 67
f 67 95 96
f 67 96 97
f 67 97 68
f 68 97 98
f 68 98 70
f 69 99 72
f 69 71 100
f 69 100 99
f 70 98 101
f 70 101 71
f 71 101 100
f 72 99 73
f 73 99 102
f 73 102 103
f 73 103 74
f 74 103 104
f 74 104 76
f 77 78 106
f 77 106 107
f 77 107 108
f 77 108 109
f 77 109 110
f 77 110 105
f 79 111 112
f 79 112 113
f 79 113 80
f 79 81 114
f 79 114 115
f 79 115 111
f 80 113 82
f 82 113 116
f 82 116 117
f 82 117 83
f 83 117 116
f 83 116 118
f 83 118 84
f 84 118 85
f 85 118 87
f 86 119 120
f 86 120 89
f 86 88 119
f 87 118 116
f 87 116 121
f 87 121 122
f 87 122 88
f 88 123 119
f 88 122 124
f 88 124 123
f 89 120 125
f 89 125 126
f 89 126 90
f 90 126 127
f 90 127 91
f 91 127 125
f 91 125 128
f 91 128 92
f 92 129 93
f 92 128 129
f 93 129 94
f 94 129 130
f 94 130 131
f 94 131 95
f 95 132 133
f 95 133 96
f 95 131 132
f 96 133 134
f 96 134 135
f 96 135 136
f 96 136 97
f 97 136 137
f 97 137 98
f 98 137 101
f 99 138 139
f 99 139 140
f 99 140 141
f 99 141 142
f 99 142 103
f 99 103 102
f 99 100 138
f 100 101 137
f 100 137 143
f 100 143 144
f 100 144 145
f 100 145 138
f 105 110 147
f 105 147 148
f 105 148 146
f 111 115 149
f 111 149 150
f 111 150 151
f 111 151 113
f 111 113 112
f 113 151 152
f 113 152 153
f 113 153 116
f 116 153 154
f 116 154 121
f 119 155 120
f 119 123 156
f 119 156 157
f 119 157 155
f 120 155 158
f 120 158 159
f 120 159 125
f 121 160 124
f 121 124 122
f 121 154 160
f 123 124 156
f 124 160 156
f 125 159 161
f 125 161 162
f 125 162 163
f 125 163 128
f 125 127 126
f 128 163 162
f 128 162 164
f 128 164 129
f 129 164 165
f 129 165 130
f 130 166 167
f 130 167 131
f 130 165 166
f 131 167 168
f 131 168 132
f 132 168 169
f 132 169 133
f 133 169 170
f 133 170 134
f 134 170 135
f 135 171 172
f 135 172 173
f 135 173 174
f 135 174 136
f 135 170 171
f 136 174 137
f 137 174 175
f 137 175 143
f 138 145 176
f 138 176 139
f 139 176 177
f 139 177 140
f 140 178 141
f 140 177 178
f 141 178 179
f 141 179 142
f 143 175 180
f 143 180 144
f 144 180 145
f 145 180 176
f 146 148 181
f 148 182 181
f 149 183 184
f 149 184 185
f 149 185 150
f 150 184 186
f 150 186 151
f 150 185 184
f 151 187 152
f 151 186 184
f 151 184 187
f 152 154 153
f 152 187 160
f 152 160 154
f 155 157 188
f 155 188 189
f 155 189 158
f 156 190 157
f 156 160 187
f 156 187 190
f 157 190 191
f 157 191 188
f 158 192 193
f 158 193 162
f 158 162 159
f 158 189 194
f 158 194 195
f 158 195 192
f 159 162 161
f 162 193 164
f 164 196 165
f 164 193 197
f 164 197 196
f 165 196 166
f 166 196 198
f 166 198 199
f 166 199 167
f 167 199 200
f 167 200 201
f 167 201 168
f 168 201 202
f 168 202 203
f 168 203 169
f 169 203 204
f 169 204 170
f 170 204 205
f 170 205 171
f 171 205 172
f 172 206 173
f 172 205 207
f 172 207 208
f 172 208 206
f 173 206 174
f 174 206 175
f 175 206 180
f 176 180 209
f 176 209 208
f 176 208 210
f 176 210 211
f 176 211 212
f 176 212 177
f 177 212 213
f 177 213 178
f 178 214 215
f 178 215 216
f 178 216 179
f 178 213 211
f 178 211 214
f 180 206 209
f 181 182 217
f 182 218 219
f 182 219 220
f 182 220 221
f 182 221 217
f 183 222 184
f 184 223 224
f 184 224 225
f 184 225 187
f 184 222 223
f 187 225 226
f 187 226 227
f 187 227 228
f 187 228 190
f 188 191 189
f 189 191 229
f 189 229 230
f 189 230 194
f 190 228 227
f 190 227 191
f 191 227 229
f 192 231 193
f 192 195 232
f 192 232 233
f 192 233 231
f 193 231 196
f 193 196 197
f 194 230 195
f 195 230 232
f 196 231 234
f 196 234 198
f 198 234 235
f 198 235 236
f 198 236 199
f 199 237 200
f 199 236 238
f 199 238 237
f 200 237 239
f 200 239 201
f 201 239 240
f 201 240 241
f 201 241 202
f 202 241 242
f 202 242 203
f 203 242 204
f 204 242 243
f 204 243 205
f 205 243 244
f 205 244 245
f 205 245 207
f 206 208 209
f 207 245 246
f 207 246 208
f 208 246 247
f 208 247 210
f 210 248 249
f 210 249 211
f 210 247 250
f 210 250 248
f 211 249 251
f 211 251 214
f 211 213 212
f 217 221 252
f 218 253 254
f 218 254 219
f 219 255 256
f 219 256 220
f 219 254 257
f 219 257 255
f 220 256 258
f 220 258 259
f 220 259 260
f 220 260 221
f 221 260 261
f 221 261 262
f 221 262 263
f 221 263 252
f 222 264 265
f 222 265 266
f 222 266 223
f 223 266 224
f 224 266 225
f 225 227 226
f 225 266 227
f 227 266 267
f 227 267 229
f 229 267 268
f 229 268 230
f 230 268 269
f 230 269 232
f 231 233 270
f 231 270 271
f 231 271 234
f 232 269 233
f 233 269 270
f 234 271 235
f 235 271 262
f 235 262 261
f 235 261 236
f 236 261 260
f 236 260 238
f 237 238 272
f 237 272 259
f 237 259 258
f 237 258 239
f 238 260 272
f 239 258 256
f 239 256 240
f 240 256 255
f 240 255 241
f 241 255 257
f 241 257 242
f 242 257 273
f 242 273 243
f 243 273 244
f 244 273 274
f 244 274 245
f 245 275 246
f 245 274 275
f 246 250 247
f 246 275 276
f 246 276 250
f 248 250 249
f 249 250 276
f 249 276 277
f 249 277 251
f 251 277 279
f 251 279 278
f 252 280 281
f 252 263 282
f 252 282 283
f 252 283 280
f 253 284 274
f 253 274 273
f 253 273 254
f 254 273 257
f 259 272 260
f 262 285 283
f 262 283 282
f 262 282 263
f 262 271 285
f 264 286 265
f 265 287 266
f 265 286 288
f 265 288 287
f 266 287 267
f 267 288 268
f 267 287 288
f 268 288 269
f 269 288 283
f 269 283 285
f 269 285 270
f 270 285 271
f 274 284 289
f 274 289 275
f 275 289 284
f 275 284 276
f 276 284 290
f 276 290 279
f 276 279 277
f 278 279 291
f 279 290 291
f 280 283 281
f 281 283 288
f 281 288 286

