# https://github.com/mikedh/trimesh
v 0.40955495 -0.14026173 -0.01369602
v 0.40955495 -0.14023011 -0.00982492
v 0.40955495 -0.14004038 -0.01882988
v 0.44338236 -0.20493708 -0.01442168
v 0.44341838 -0.20517425 -0.01039916
v 0.44298621 -0.20442321 -0.00462250
v 0.40955495 -0.14013524 -0.00074854
v 0.40955495 -0.13948699 -0.02106397
v 0.44319779 -0.20405166 -0.01685861
v 0.44537673 -0.20670792 -0.01426740
v 0.44540374 -0.20702415 -0.01015632
v 0.44342288 -0.20507148 -0.00597667
v 0.44304024 -0.20424140 -0.00078568
v 0.40955495 -0.13992970 0.00311399
v 0.40955495 -0.14011152 -0.00016573
v 0.40955495 -0.13850669 -0.02183534
v 0.44489951 -0.20451018 -0.01729001
v 0.44597548 -0.20617035 -0.01664149
v 0.40955495 -0.13829324 -0.02197247
v 0.40955495 -0.13607179 -0.02305809
v 0.44849657 -0.20726131 -0.01374745
v 0.44855057 -0.20782261 -0.00975921
v 0.44860910 -0.20790166 -0.00532815
v 0.44550727 -0.20696881 -0.00552814
v 0.44385058 -0.20503194 -0.00089996
v 0.44317078 -0.20396469 0.00170268
v 0.40955495 -0.13951070 0.00425675
v 0.44719100 -0.19897629 -0.01906985
v 0.44868114 -0.20421768 -0.01755855
v 0.44851007 -0.20617825 -0.01625581
v 0.40955495 -0.13596901 -0.02306380
v 0.41561003 -0.13913914 -0.02292667
v 0.44701991 -0.19716591 -0.01923841
v 0.45010373 -0.20574345 -0.01549873
v 0.45052692 -0.20617825 -0.01329320
v 0.45134176 -0.20641542 -0.00883929
v 0.45130574 -0.20680280 -0.00495104
v 0.44857308 -0.20733247 -0.00127421
v 0.44579992 -0.20645495 -0.00110851
v 0.45131925 -0.20636799 -0.00158276
v 0.44639868 -0.20575135 0.00262261
v 0.44441782 -0.20442321 0.00279402
v 0.44613304 -0.20442321 0.00490813
v 0.40955495 -0.13816676 0.00537952
v 0.44869464 -0.19704734 -0.01912128
v 0.44723152 -0.19896839 -0.01906700
v 0.44858659 -0.20052579 -0.01856704
v 0.45094561 -0.19579035 -0.01901272
v 0.45157589 -0.20077876 -0.01668434
v 0.45076552 -0.20414652 -0.01602154
v 0.40955495 -0.13470413 -0.02300952
v 0.41165284 -0.13517055 -0.02293524
v 0.41593417 -0.13913914 -0.02291239
v 0.44906831 -0.19370329 -0.01932698
v 0.44677231 -0.19369538 -0.01942411
v 0.45192251 -0.20422558 -0.01309607
v 0.45224665 -0.20515843 -0.00989634
v 0.45248077 -0.20564859 -0.00692231
v 0.45253927 -0.20571183 -0.00477963
v 0.45255728 -0.20571973 -0.00277408
v 0.45004523 -0.20585412 0.00207694
v 0.44834799 -0.20619406 0.00231977
v 0.44685335 -0.20536398 0.00436246
v 0.44816342 -0.20432835 0.00502812
v 0.44828496 -0.20193297 0.00581662
v 0.44552528 -0.20215432 0.00547665
v 0.40955495 -0.13777148 0.00551950
v 0.44964455 -0.19809087 -0.01884702
v 0.45338566 -0.19628049 -0.01572728
v 0.45202156 -0.19711057 -0.01727001
v 0.45107615 -0.19372699 -0.01910128
v 0.45227817 -0.19375863 -0.01777568
v 0.45269235 -0.20077086 -0.01463309
v 0.45305701 -0.19832804 -0.01529017
v 0.40955495 -0.13339179 -0.02195533
v 0.40955495 -0.13309139 -0.02161250
v 0.41289087 -0.13455392 -0.02160964
v 0.41593867 -0.13530494 -0.02078114
v 0.42125543 -0.13864109 -0.02087256
v 0.42153004 -0.14117878 -0.02202389
v 0.41592066 -0.13904427 -0.02290667
v 0.42548273 -0.14513156 -0.02170963
v 0.44896025 -0.18597956 -0.01942697
v 0.44905480 -0.19003511 -0.01939840
v 0.45273738 -0.20344293 -0.01176190
v 0.45283640 -0.20439951 -0.00866502
v 0.45313352 -0.20454180 -0.00483677
v 0.45442108 -0.20073132 -0.00495961
v 0.45404741 -0.20069180 -0.00112851
v 0.45284540 -0.20436789 -0.00148848
v 0.45214312 -0.20507148 -0.00066283
v 0.45144532 -0.20402795 0.00207408
v 0.44935193 -0.20538770 0.00396249
v 0.44816342 -0.20541932 0.00420533
v 0.44991466 -0.20402795 0.00441103
v 0.45108966 -0.20086572 0.00493384
v 0.45126973 -0.19789323 0.00557664
v 0.44844704 -0.19862844 0.00603660
v 0.40955495 -0.13434047 0.00604232
v 0.45397541 -0.19712639 -0.01362746
v 0.45355221 -0.19381397 -0.01598440
v 0.45456516 -0.19390092 -0.01324463
v 0.45119772 -0.19022484 -0.01914413
v 0.45238172 -0.19018532 -0.01793281
v 0.45334514 -0.20065227 -0.01258754
v 0.40955495 -0.12817414 -0.01023060
v 0.41071644 -0.12791325 -0.00853646
v 0.41584412 -0.13046675 -0.00909641
v 0.41832018 -0.13218225 -0.01039630
v 0.42350640 -0.13947117 -0.02026118
v 0.42491999 -0.14157405 -0.02081257
v 0.42910677 -0.14548730 -0.02058116
v 0.43277134 -0.14952703 -0.02045831
v 0.43655747 -0.15356678 -0.02014691
v 0.43701214 -0.15698198 -0.02029261
v 0.44875768 -0.18189239 -0.01934698
v 0.45110317 -0.18642227 -0.01910699
v 0.45520443 -0.19692084 -0.00922497
v 0.45411495 -0.20060483 -0.00911641
v 0.45541151 -0.19702362 -0.00512246
v 0.45510538 -0.19698410 -0.00102280
v 0.45257979 -0.20327691 0.00089704
v 0.45410595 -0.19693666 0.00257118
v 0.45203056 -0.20179067 0.00337397
v 0.45252577 -0.19895258 0.00444531
v 0.45289043 -0.19711849 0.00470814
v 0.45315604 -0.19424877 0.00486527
v 0.45141380 -0.19456499 0.00575377
v 0.44848306 -0.19474682 0.00611660
v 0.41701912 -0.13774777 0.00584805
v 0.40955495 -0.13388985 0.00598518
v 0.44836150 -0.18688869 0.00612231
v 0.44459338 -0.16941742 0.00602518
v 0.44423325 -0.16543302 0.00594804
v 0.45355672 -0.19014578 -0.01610439
v 0.45547004 -0.19410647 -0.00938210
v 0.45456065 -0.19012998 -0.01315035
v 0.45229167 -0.18651713 -0.01782710
v 0.40955495 -0.12762074 -0.00890214
v 0.40955495 -0.12730452 -0.00736513
v 0.41109458 -0.12779467 -0.00565670
v 0.41305743 -0.12866428 -0.00564527
v 0.41567303 -0.12988174 -0.00568812
v 0.42120140 -0.13294118 -0.00782223
v 0.41936011 -0.13219807 -0.00881643
v 0.42054411 -0.13312301 -0.00947352
v 0.42274106 -0.13418236 -0.00871073
v 0.42579336 -0.13698092 -0.01067056
v 0.42641012 -0.13660146 -0.00876215
v 0.42835947 -0.13800074 -0.00871930
v 0.42994865 -0.14030917 -0.01116481
v 0.43310448 -0.14476790 -0.01481878
v 0.43003417 -0.14455445 -0.01931269
v 0.42772469 -0.14323421 -0.02019262
v 0.43228064 -0.14719490 -0.01970409
v 0.43558054 -0.15038875 -0.01941840
v 0.43896149 -0.15417551 -0.01917556
v 0.44031205 -0.15732192 -0.01936126
v 0.44338236 -0.16183599 -0.01902129
v 0.44063619 -0.16107705 -0.01984408
v 0.45068448 -0.18242996 -0.01895272
v 0.45554208 -0.19427249 -0.00537672
v 0.45530345 -0.19425667 -0.00101709
v 0.45443909 -0.19416181 0.00266832
v 0.45299848 -0.20047835 0.00229977
v 0.45319656 -0.19075451 0.00487384
v 0.45140029 -0.19081777 0.00577948
v 0.44843804 -0.19077033 0.00611945
v 0.42473092 -0.14165310 0.00543665
v 0.42065217 -0.13793750 0.00529095
v 0.41280983 -0.13393729 0.00558807
v 0.44017250 -0.15772511 0.00571663
v 0.40955495 -0.13022958 0.00442817
v 0.45128773 -0.18711006 0.00576520
v 0.44826695 -0.18295174 0.00609088
v 0.44813191 -0.17879341 0.00601661
v 0.44790232 -0.17447698 0.00592233
v 0.44756467 -0.17029494 0.00569378
v 0.44372001 -0.16185971 0.00565949
v 0.45338566 -0.18663572 -0.01599011
v 0.45537999 -0.19012998 -0.00944495
v 0.45545653 -0.19027227 -0.00561384
v 0.45439407 -0.18667524 -0.01299608
v 0.45524045 -0.18667524 -0.00932782
v 0.45006321 -0.17825584 -0.01870989
v 0.44971209 -0.17596323 -0.01856704
v 0.45207109 -0.18269085 -0.01695575
v 0.45312002 -0.18420080 -0.01569585
v 0.40955495 -0.12713851 -0.00563956
v 0.40955495 -0.12729662 -0.00148562
v 0.41292236 -0.12873543 -0.00143134
v 0.41572256 -0.13003985 -0.00148848
v 0.41936461 -0.13184231 -0.00573955
v 0.42126443 -0.13293328 -0.00575669
v 0.42314174 -0.13401634 -0.00572812
v 0.42671626 -0.13633267 -0.00567670
v 0.42870612 -0.13777148 -0.00564813
v 0.43274882 -0.14126574 -0.00735655
v 0.43096157 -0.14010362 -0.00850789
v 0.43233917 -0.14156615 -0.00936781
v 0.43374376 -0.14422241 -0.01243898
v 0.43560756 -0.14600116 -0.01238756
v 0.43706167 -0.14881554 -0.01503591
v 0.43463063 -0.14721862 -0.01643293
v 0.43394633 -0.14822262 -0.01920413
v 0.43185294 -0.14556636 -0.01812993
v 0.43790352 -0.15223865 -0.01896129
v 0.44109990 -0.15626258 -0.01852990
v 0.44217585 -0.15880816 -0.01882702
v 0.44561082 -0.16421556 -0.01850133
v 0.44635815 -0.16669791 -0.01865560
v 0.44462039 -0.16526701 -0.01906985
v 0.44714148 -0.16979688 -0.01880131
v 0.45522691 -0.19053316 -0.00114565
v 0.45437155 -0.18712586 0.00254547
v 0.45444809 -0.19069917 0.00264260
v 0.45312002 -0.18715748 0.00482813
v 0.43604426 -0.15019110 0.00511382
v 0.43228964 -0.14605650 0.00494241
v 0.42834596 -0.14208000 0.00464815
v 0.42429422 -0.13808769 0.00415962
v 0.42018398 -0.13506777 0.00402249
v 0.41658242 -0.13381079 0.00449959
v 0.41222458 -0.13094899 0.00420247
v 0.43966830 -0.15440476 0.00524524
v 0.40955495 -0.12874333 0.00308257
v 0.45110317 -0.18331538 0.00564235
v 0.44732154 -0.16620777 0.00483099
v 0.45089609 -0.17919659 0.00527667
v 0.45073851 -0.17536240 0.00477100
v 0.44959503 -0.17074555 0.00461958
v 0.44618256 -0.16268979 0.00448816
v 0.44340037 -0.15829430 0.00463672
v 0.45533497 -0.18675430 -0.00572241
v 0.45358823 -0.18313355 -0.01327606
v 0.45457416 -0.18346559 -0.00923068
v 0.45469570 -0.18349721 -0.00571098
v 0.44910883 -0.17319628 -0.01819850
v 0.45010373 -0.17446116 -0.01707002
v 0.45270586 -0.18157616 -0.01506162
v 0.40955495 -0.12758122 0.00024566
v 0.41040581 -0.12807926 0.00106274
v 0.41862181 -0.13209529 0.00119701
v 0.42099432 -0.13300443 -0.00082853
v 0.41959423 -0.13210319 -0.00195415
v 0.42129595 -0.13294909 -0.00363973
v 0.42287163 -0.13402424 -0.00206271
v 0.42646415 -0.13638801 -0.00183131
v 0.42845849 -0.13785054 -0.00188273
v 0.43284337 -0.14121040 -0.00359973
v 0.43084904 -0.13954232 -0.00554242
v 0.43282086 -0.14121040 -0.00543386
v 0.43468016 -0.14298124 -0.00521673
v 0.43672402 -0.14494973 -0.00497104
v 0.43657097 -0.14510784 -0.00755368
v 0.43629186 -0.14543987 -0.00974493
v 0.43763791 -0.14813566 -0.01232185
v 0.43953323 -0.15035712 -0.01229614
v 0.44065870 -0.15311616 -0.01501305
v 0.43856981 -0.15141647 -0.01641579
v 0.43612527 -0.14964563 -0.01797566
v 0.44030307 -0.15461821 -0.01790424
v 0.44146907 -0.15491864 -0.01596726
v 0.44311225 -0.15829430 -0.01699860
v 0.44489951 -0.16233405 -0.01799566
v 0.44584942 -0.16255540 -0.01633866
v 0.44893324 -0.16842922 -0.01537588
v 0.44950048 -0.17088785 -0.01611582
v 0.44853259 -0.16976526 -0.01707002
v 0.45510088 -0.18696775 -0.00131992
v 0.45385835 -0.18349721 0.00247690
v 0.45278240 -0.18345768 0.00469672
v 0.43901552 -0.15089471 0.00411962
v 0.43522489 -0.14664941 0.00396821
v 0.42781474 -0.13969253 0.00353681
v 0.43128120 -0.14270455 0.00367966
v 0.42291215 -0.13607179 0.00350824
v 0.41514632 -0.13170791 0.00370537
v 0.44204981 -0.15495026 0.00415391
v 0.40955495 -0.12857732 0.00285687
v 0.44885670 -0.16763866 0.00417390
v 0.45198104 -0.17715695 0.00417105
v 0.45226016 -0.17933099 0.00438531
v 0.44521915 -0.15982799 0.00399392
v 0.44827145 -0.16510098 0.00346253
v 0.45449762 -0.18350511 -0.00139991
v 0.45232319 -0.17875388 -0.01413027
v 0.45253927 -0.17631897 -0.01095340
v 0.45266084 -0.17579720 -0.00910212
v 0.45274188 -0.17529916 -0.00537101
v 0.45363326 -0.17903058 -0.00554242
v 0.45215213 -0.17335439 -0.00110565
v 0.45264733 -0.17544145 -0.00115422
v 0.45351169 -0.17913334 -0.00128849
v 0.40955495 -0.12786581 0.00135985
v 0.41184641 -0.12912280 0.00198552
v 0.41611423 -0.13117825 0.00205694
v 0.41765389 -0.13251428 0.00306542
v 0.41991837 -0.13327322 0.00200266
v 0.42373599 -0.13558165 0.00189695
v 0.42599597 -0.13663308 0.00097989
v 0.43258677 -0.14133688 -0.00095138
v 0.43118215 -0.14001666 -0.00212557
v 0.43468466 -0.14317887 -0.00158561
v 0.43670151 -0.14498925 -0.00208843
v 0.44043361 -0.14925035 -0.00230555
v 0.43865536 -0.14720280 -0.00475677
v 0.44035707 -0.14938474 -0.00675375
v 0.44012748 -0.14970887 -0.00913641
v 0.44114493 -0.15242048 -0.01232185
v 0.44321580 -0.15545621 -0.01214758
v 0.44416121 -0.15774882 -0.01364460
v 0.44503908 -0.16028651 -0.01553872
v 0.44851458 -0.16624729 -0.01341319
v 0.44922136 -0.16726712 -0.01223900
v 0.44992367 -0.16993919 -0.01358746
v 0.45164339 -0.17464299 -0.01275610
v 0.45294896 -0.17927565 0.00251404
v 0.44100535 -0.15255487 0.00367680
v 0.43756140 -0.14827005 0.00357110
v 0.43365821 -0.14436471 0.00342825
v 0.42522612 -0.13705998 0.00287687
v 0.42970102 -0.14062539 0.00311971
v 0.44438180 -0.15727449 0.00319970
v 0.45078803 -0.17069022 0.00241977
v 0.45227366 -0.17640593 0.00256547
v 0.45177846 -0.17428725 0.00252833
v 0.44921686 -0.16646865 0.00246262
v 0.44867213 -0.16434996 0.00159412
v 0.44778075 -0.16310879 0.00237120
v 0.45208910 -0.17370223 -0.00911355
v 0.45222414 -0.17322000 -0.00528530
v 0.45135077 -0.17048467 -0.00103423
v 0.42745008 -0.13817467 0.00180267
v 0.43016924 -0.14023801 0.00165697
v 0.43194749 -0.14174798 0.00169411
v 0.43651244 -0.14517898 0.00031994
v 0.43848880 -0.14720280 -0.00102852
v 0.44207683 -0.15147972 -0.00451965
v 0.44042461 -0.14928197 -0.00456250
v 0.44027156 -0.14940846 -0.00005431
v 0.44166264 -0.15108444 -0.00108851
v 0.44400813 -0.15445220 -0.00094281
v 0.44407116 -0.15434153 -0.00447394
v 0.44148708 -0.15123463 -0.00805935
v 0.44385058 -0.15472889 -0.00824505
v 0.44457987 -0.15687921 -0.01041915
v 0.44523716 -0.15903742 -0.01233328
v 0.44703342 -0.16273723 -0.01283324
v 0.44867213 -0.16481639 -0.01011918
v 0.44943297 -0.16616033 -0.00889071
v 0.45101312 -0.17030284 -0.00904784
v 0.44148708 -0.15194614 0.00200266
v 0.43988438 -0.14981164 0.00198266
v 0.44366598 -0.15534554 0.00217407
v 0.43800708 -0.14763762 0.00190838
v 0.43608025 -0.14558218 0.00185124
v 0.43423896 -0.14383504 0.00177696
v 0.44564684 -0.15885559 0.00223978
v 0.44480049 -0.15667366 0.00137985
v 0.44996869 -0.16653189 -0.00090281
v 0.44890172 -0.16392306 -0.00081996
v 0.44814992 -0.16219965 -0.00085139
v 0.45135527 -0.17032655 -0.00510817
v 0.44503008 -0.15627839 -0.00092281
v 0.44506159 -0.15614400 -0.00447108
v 0.44480949 -0.15649184 -0.00827362
v 0.44612403 -0.15900581 -0.00836504
v 0.44805086 -0.16298230 -0.00866216
v 0.44886570 -0.16430252 -0.00753654
v 0.44995068 -0.16640540 -0.00479391
v 0.44662376 -0.15920344 -0.00089996
v 0.44896025 -0.16394677 -0.00458822
v 0.44818593 -0.16220755 -0.00453394
v 0.44665078 -0.15911648 -0.00449394
f 1 2 7
f 1 7 15
f 1 15 14
f 1 14 27
f 1 27 44
f 1 44 67
f 1 67 99
f 1 99 131
f 1 131 173
f 1 173 226
f 1 226 280
f 1 280 295
f 1 295 241
f 1 241 190
f 1 190 189
f 1 189 140
f 1 140 139
f 1 139 106
f 1 106 76
f 1 76 75
f 1 75 51
f 1 51 31
f 1 31 20
f 1 20 19
f 1 19 16
f 1 16 8
f 1 8 3
f 1 3 4
f 1 4 5
f 1 5 6
f 1 6 2
f 2 6 7
f 3 8 9
f 3 9 4
f 4 9 10
f 4 10 11
f 4 11 5
f 5 12 6
f 5 11 12
f 6 12 13
f 6 13 14
f 6 14 15
f 6 15 7
f 8 16 9
f 9 17 18
f 9 18 10
f 9 16 19
f 9 19 20
f 9 20 17
f 10 18 21
f 10 21 22
f 10 22 11
f 11 22 23
f 11 23 24
f 11 24 12
f 12 24 25
f 12 25 13
f 13 25 26
f 13 26 14
f 14 26 27
f 17 20 28
f 17 28 29
f 17 29 18
f 18 29 30
f 18 30 21
f 20 31 32
f 20 32 33
f 20 33 28
f 21 30 34
f 21 34 35
f 21 35 36
f 21 36 22
f 22 36 37
f 22 37 23
f 23 38 39
f 23 39 24
f 23 37 40
f 23 40 38
f 24 39 25
f 25 39 26
f 26 39 41
f 26 41 42
f 26 42 43
f 26 43 44
f 26 44 27
f 28 33 45
f 28 45 46
f 28 46 47
f 28 47 29
f 29 47 48
f 29 48 49
f 29 49 50
f 29 50 34
f 29 34 30
f 31 51 52
f 31 52 53
f 31 53 32
f 32 53 54
f 32 54 55
f 32 55 33
f 33 55 54
f 33 54 45
f 34 56 35
f 34 50 56
f 35 56 57
f 35 57 36
f 36 57 58
f 36 58 37
f 37 58 59
f 37 59 60
f 37 60 40
f 38 40 61
f 38 61 62
f 38 62 63
f 38 63 41
f 38 41 39
f 40 60 61
f 41 63 42
f 42 63 43
f 43 63 64
f 43 64 65
f 43 65 66
f 43 66 44
f 44 66 67
f 45 54 48
f 45 48 46
f 46 48 68
f 46 68 47
f 47 68 48
f 48 69 70
f 48 70 49
f 48 54 71
f 48 71 72
f 48 72 69
f 49 73 50
f 49 70 69
f 49 69 74
f 49 74 73
f 50 73 56
f 51 75 52
f 52 75 76
f 52 76 77
f 52 77 78
f 52 78 79
f 52 79 80
f 52 80 81
f 52 81 53
f 53 81 82
f 53 82 83
f 53 83 84
f 53 84 54
f 54 84 71
f 56 73 85
f 56 85 57
f 57 85 86
f 57 86 58
f 58 86 87
f 58 87 59
f 59 87 60
f 60 87 88
f 60 88 89
f 60 89 90
f 60 90 91
f 60 91 61
f 61 91 92
f 61 92 93
f 61 93 62
f 62 93 94
f 62 94 63
f 63 94 64
f 64 94 93
f 64 93 95
f 64 95 65
f 65 96 97
f 65 97 98
f 65 98 99
f 65 99 66
f 65 95 96
f 66 99 67
f 69 100 74
f 69 72 101
f 69 101 102
f 69 102 100
f 71 84 103
f 71 103 104
f 71 104 72
f 72 104 101
f 73 105 85
f 73 74 100
f 73 100 105
f 76 78 77
f 76 106 78
f 78 106 107
f 78 107 108
f 78 108 109
f 78 109 110
f 78 110 79
f 79 110 111
f 79 111 80
f 80 111 112
f 80 112 113
f 80 113 82
f 80 82 81
f 82 113 114
f 82 114 115
f 82 115 116
f 82 116 83
f 83 116 117
f 83 117 103
f 83 103 84
f 85 105 118
f 85 118 119
f 85 119 86
f 86 119 87
f 87 119 88
f 88 119 118
f 88 118 120
f 88 120 121
f 88 121 89
f 89 122 90
f 89 121 123
f 89 123 122
f 90 122 91
f 91 122 92
f 92 122 124
f 92 124 93
f 93 124 95
f 95 124 96
f 96 124 125
f 96 125 126
f 96 126 97
f 97 126 127
f 97 127 128
f 97 128 98
f 98 128 129
f 98 129 99
f 99 130 131
f 99 129 132
f 99 132 133
f 99 133 134
f 99 134 130
f 100 102 118
f 100 118 105
f 101 104 135
f 101 135 102
f 102 136 118
f 102 135 137
f 102 137 136
f 103 117 104
f 104 117 138
f 104 138 135
f 106 139 107
f 107 139 140
f 107 140 141
f 107 141 142
f 107 142 143
f 107 143 108
f 108 143 144
f 108 144 145
f 108 145 109
f 109 145 146
f 109 146 110
f 110 146 147
f 110 147 148
f 110 148 149
f 110 149 150
f 110 150 151
f 110 151 152
f 110 152 153
f 110 153 154
f 110 154 111
f 111 154 112
f 112 154 155
f 112 155 156
f 112 156 113
f 113 156 114
f 114 156 157
f 114 157 158
f 114 158 159
f 114 159 160
f 114 160 115
f 115 160 116
f 116 160 161
f 116 161 117
f 117 161 138
f 118 136 120
f 120 136 162
f 120 162 163
f 120 163 121
f 121 163 164
f 121 164 123
f 122 123 165
f 122 165 124
f 123 164 126
f 123 126 125
f 123 125 165
f 124 165 125
f 126 164 127
f 127 164 166
f 127 166 128
f 128 166 167
f 128 167 129
f 129 167 168
f 129 168 132
f 130 169 170
f 130 170 171
f 130 171 131
f 130 134 172
f 130 172 169
f 131 171 173
f 132 168 167
f 132 167 174
f 132 174 175
f 132 175 133
f 133 175 176
f 133 176 177
f 133 177 134
f 134 177 178
f 134 178 179
f 134 179 172
f 135 138 180
f 135 180 137
f 136 137 181
f 136 181 182
f 136 182 162
f 137 180 183
f 137 183 184
f 137 184 181
f 138 161 185
f 138 185 186
f 138 186 187
f 138 187 188
f 138 188 180
f 140 189 141
f 141 189 190
f 141 190 191
f 141 191 142
f 142 191 143
f 143 192 193
f 143 193 144
f 143 191 192
f 144 146 145
f 144 193 194
f 144 194 195
f 144 195 196
f 144 196 149
f 144 149 147
f 144 147 146
f 147 149 148
f 149 196 150
f 150 197 198
f 150 198 199
f 150 199 200
f 150 200 151
f 150 196 197
f 151 200 152
f 152 201 202
f 152 202 203
f 152 203 204
f 152 204 205
f 152 205 206
f 152 206 153
f 152 200 201
f 153 206 205
f 153 205 154
f 154 205 155
f 155 205 156
f 156 207 157
f 156 205 207
f 157 207 208
f 157 208 209
f 157 209 158
f 158 209 159
f 159 210 211
f 159 211 212
f 159 212 160
f 159 209 210
f 160 212 213
f 160 213 161
f 161 213 185
f 162 182 214
f 162 214 163
f 163 214 215
f 163 215 216
f 163 216 164
f 164 216 166
f 166 216 217
f 166 217 174
f 166 174 167
f 169 172 218
f 169 218 219
f 169 219 170
f 170 219 220
f 170 220 221
f 170 221 222
f 170 222 223
f 170 223 171
f 171 223 224
f 171 224 173
f 172 225 218
f 172 179 225
f 173 224 226
f 174 217 227
f 174 227 177
f 174 177 176
f 174 176 175
f 177 227 178
f 178 228 179
f 178 227 229
f 178 229 230
f 178 230 231
f 178 231 228
f 179 228 232
f 179 232 233
f 179 233 225
f 180 188 183
f 181 184 234
f 181 234 182
f 182 234 214
f 183 188 235
f 183 235 184
f 184 235 236
f 184 236 237
f 184 237 234
f 185 213 186
f 186 213 211
f 186 211 238
f 186 238 239
f 186 239 188
f 186 188 187
f 188 239 240
f 188 240 235
f 190 241 191
f 191 241 242
f 191 242 192
f 192 243 244
f 192 244 245
f 192 245 246
f 192 246 193
f 192 242 243
f 193 246 194
f 194 246 195
f 195 246 247
f 195 247 196
f 196 248 197
f 196 247 248
f 197 249 250
f 197 250 251
f 197 251 198
f 197 248 249
f 198 200 199
f 198 251 252
f 198 252 253
f 198 253 254
f 198 254 255
f 198 255 256
f 198 256 200
f 200 256 201
f 201 256 202
f 202 256 203
f 203 256 257
f 203 257 258
f 203 258 259
f 203 259 260
f 203 260 207
f 203 207 261
f 203 261 204
f 204 261 205
f 205 261 207
f 207 259 262
f 207 262 208
f 207 260 259
f 208 262 263
f 208 263 264
f 208 264 265
f 208 265 210
f 208 210 209
f 210 265 266
f 210 266 267
f 210 267 268
f 210 268 269
f 210 269 238
f 210 238 211
f 211 213 212
f 214 234 270
f 214 270 215
f 215 217 216
f 215 270 271
f 215 271 272
f 215 272 217
f 217 272 227
f 218 225 273
f 218 273 274
f 218 274 219
f 219 274 220
f 220 275 221
f 220 274 276
f 220 276 275
f 221 275 277
f 221 277 222
f 222 277 278
f 222 278 223
f 223 278 224
f 224 278 226
f 225 233 279
f 225 279 273
f 226 278 280
f 227 272 229
f 228 231 281
f 228 281 232
f 229 272 230
f 230 282 231
f 230 272 283
f 230 283 282
f 231 282 281
f 232 284 233
f 232 281 285
f 232 285 284
f 233 284 279
f 234 237 286
f 234 286 270
f 235 240 287
f 235 287 288
f 235 288 236
f 236 288 289
f 236 289 290
f 236 290 291
f 236 291 237
f 237 291 292
f 237 292 293
f 237 293 294
f 237 294 286
f 238 268 239
f 238 269 268
f 239 268 287
f 239 287 240
f 241 295 242
f 242 295 280
f 242 280 296
f 242 296 297
f 242 297 243
f 243 297 298
f 243 298 299
f 243 299 300
f 243 300 301
f 243 301 244
f 244 248 247
f 244 247 246
f 244 246 245
f 244 301 248
f 248 301 249
f 249 301 302
f 249 302 303
f 249 303 250
f 250 254 253
f 250 253 252
f 250 252 251
f 250 303 302
f 250 302 304
f 250 304 305
f 250 305 254
f 254 306 307
f 254 307 308
f 254 308 255
f 254 305 306
f 255 308 309
f 255 309 256
f 256 309 258
f 256 258 257
f 258 309 310
f 258 310 259
f 259 310 311
f 259 311 312
f 259 312 263
f 259 263 262
f 263 312 313
f 263 313 264
f 264 313 265
f 265 313 266
f 266 313 267
f 267 313 314
f 267 314 315
f 267 315 316
f 267 316 268
f 268 317 287
f 268 316 317
f 270 286 271
f 271 286 318
f 271 318 282
f 271 282 283
f 271 283 272
f 273 279 319
f 273 319 320
f 273 320 274
f 274 320 321
f 274 321 276
f 275 322 277
f 275 276 323
f 275 323 322
f 276 321 323
f 277 298 278
f 277 322 298
f 278 297 296
f 278 296 280
f 278 298 297
f 279 284 324
f 279 324 319
f 281 282 325
f 281 325 285
f 282 326 327
f 282 327 325
f 282 318 326
f 284 285 324
f 285 325 328
f 285 328 329
f 285 329 330
f 285 330 324
f 286 294 318
f 287 317 288
f 288 317 331
f 288 331 289
f 289 331 332
f 289 332 290
f 290 332 292
f 290 292 291
f 292 332 333
f 292 333 327
f 292 327 326
f 292 326 293
f 293 326 318
f 293 318 294
f 298 322 299
f 299 322 300
f 300 322 301
f 301 322 334
f 301 334 335
f 301 335 302
f 302 336 337
f 302 337 304
f 302 335 336
f 304 337 305
f 305 337 338
f 305 338 306
f 306 339 340
f 306 340 307
f 306 338 341
f 306 341 342
f 306 342 343
f 306 343 339
f 307 340 308
f 308 340 339
f 308 339 344
f 308 344 345
f 308 345 309
f 309 345 310
f 310 345 346
f 310 346 311
f 311 346 347
f 311 347 312
f 312 347 313
f 313 348 349
f 313 349 314
f 313 347 348
f 314 350 315
f 314 349 350
f 315 350 351
f 315 351 352
f 315 352 316
f 316 352 317
f 317 352 331
f 319 353 354
f 319 354 320
f 319 324 355
f 319 355 353
f 320 356 357
f 320 357 321
f 320 354 356
f 321 357 358
f 321 358 323
f 322 323 334
f 323 336 335
f 323 335 334
f 323 358 336
f 324 359 360
f 324 360 355
f 324 330 359
f 325 327 333
f 325 333 361
f 325 361 329
f 325 329 328
f 329 361 362
f 329 362 363
f 329 363 360
f 329 360 359
f 329 359 330
f 331 352 364
f 331 364 332
f 332 364 333
f 333 364 361
f 336 358 337
f 337 358 357
f 337 357 356
f 337 356 354
f 337 354 341
f 337 341 338
f 339 343 344
f 341 354 353
f 341 353 343
f 341 343 342
f 343 360 365
f 343 365 344
f 343 353 360
f 344 366 346
f 344 346 345
f 344 365 366
f 346 366 367
f 346 367 347
f 347 368 349
f 347 349 348
f 347 367 368
f 349 368 350
f 350 368 369
f 350 369 370
f 350 370 351
f 351 370 352
f 352 370 371
f 352 371 364
f 353 355 360
f 360 363 372
f 360 372 365
f 361 371 373
f 361 373 362
f 361 364 371
f 362 373 363
f 363 373 374
f 363 374 375
f 363 375 372
f 365 372 366
f 366 375 367
f 366 372 375
f 367 375 368
f 368 375 370
f 368 370 369
f 370 375 374
f 370 374 373
f 370 373 371

