# https://github.com/mikedh/trimesh
v -0.06452953 -0.02223969 -0.01080657
v -0.06452953 -0.02263344 -0.00974874
v -0.06452953 -0.02233812 -0.01385479
v -0.23879734 -0.17340715 -0.01376432
v -0.23879734 -0.17339075 -0.01246523
v -0.23879734 -0.17345637 -0.00913167
v -0.23879734 -0.17373528 -0.00794161
v -0.23879734 -0.17593371 -0.00046952
v -0.06452953 -0.02486469 -0.00703225
v -0.06452953 -0.02438891 -0.01685430
v -0.06473424 -0.02455297 -0.01685662
v -0.23879734 -0.17501496 -0.02011362
v -0.23879734 -0.17435871 -0.01883773
v -0.23879734 -0.17399779 -0.01788429
v -0.23879734 -0.17767278 0.00028673
v -0.06452953 -0.02896626 -0.00438071
v -0.06452953 -0.02712876 -0.00521816
v -0.06452953 -0.02594750 -0.00613912
v -0.06452953 -0.02448735 -0.01697493
v -0.23879734 -0.17796810 -0.02153102
v -0.06592832 -0.02734204 -0.01861967
v -0.06452953 -0.02648891 -0.01882845
v -0.23879734 -0.17847669 0.00062078
v -0.06452953 -0.03267408 -0.00362910
v -0.23879734 -0.17941185 -0.02215505
v -0.06452953 -0.02939282 -0.02003475
v -0.23879734 -0.18226654 0.00086900
v -0.06452953 -0.03295298 -0.00357574
v -0.23879734 -0.18042903 -0.02247518
v -0.06452953 -0.02967173 -0.02013914
v -0.23879734 -0.18982984 0.00067646
v -0.23646036 -0.18982984 0.00069502
v -0.23601683 -0.18525249 0.00079013
v -0.06452953 -0.03680846 -0.00390979
v -0.23192283 -0.18982984 0.00032385
v -0.23879734 -0.18282435 -0.02279067
v -0.06812884 -0.03342877 -0.02032704
v -0.07977967 -0.04502801 -0.02079564
v -0.14274193 -0.09974295 -0.02167949
v -0.14535186 -0.10510781 -0.02218520
v -0.06452953 -0.03285455 -0.02073533
v -0.06458071 -0.03326471 -0.02080956
v -0.23879734 -0.18982984 -0.02267700
v -0.06452953 -0.03731706 -0.00397475
v -0.23108698 -0.18982984 0.00021018
v -0.23683564 -0.18313607 -0.02283011
v -0.23879734 -0.18610562 -0.02275820
v -0.08363485 -0.04889989 -0.02095107
v -0.06843589 -0.03718580 -0.02088843
v -0.14451601 -0.10510781 -0.02217361
v -0.14832001 -0.10889766 -0.02220840
v -0.14920704 -0.10891406 -0.02222000
v -0.06452953 -0.03326471 -0.02080724
v -0.23789325 -0.18982984 -0.02253086
v -0.23647741 -0.18587591 -0.02272804
v -0.14832001 -0.10976719 -0.02219680
v -0.15186813 -0.11388516 -0.02218057
v -0.15079347 -0.11495158 -0.02184883
v -0.06452953 -0.03798972 -0.00414177
v -0.23033641 -0.18982984 -0.00003804
v -0.06519481 -0.03944987 -0.00438535
v -0.14453306 -0.10589531 -0.02216433
v -0.06452953 -0.03674284 -0.02059150
v -0.20201961 -0.16164385 -0.02149390
v -0.20558480 -0.16569620 -0.02115289
v -0.23593155 -0.18982984 -0.02185347
v -0.06478541 -0.03698893 -0.02059150
v -0.06452953 -0.03698893 -0.02051959
v -0.06500717 -0.04064753 -0.01940144
v -0.06452953 -0.04041784 -0.01932257
v -0.14724533 -0.11450860 -0.02077940
v -0.19780620 -0.15806728 -0.02144519
v -0.20157610 -0.16126650 -0.02148926
v -0.06452953 -0.04017175 -0.00515553
v -0.23052406 -0.18982984 -0.00200291
v -0.21827619 -0.18067513 -0.01402646
v -0.20949115 -0.17429309 -0.01410765
v -0.20471483 -0.17074933 -0.01401486
v -0.19988731 -0.16715635 -0.01214509
v -0.19565685 -0.16343214 -0.01049339
v -0.19309810 -0.16126650 -0.01045164
v -0.18963526 -0.15831337 -0.01041684
v -0.19183579 -0.15942900 -0.00825014
v -0.18787825 -0.15583603 -0.00797409
v -0.17310575 -0.14335085 -0.00945412
v -0.16904586 -0.13949537 -0.00909687
v -0.16502011 -0.13567271 -0.00874890
v -0.16077259 -0.13175161 -0.00863291
v -0.14879764 -0.12066096 -0.00829422
v -0.14449894 -0.11673986 -0.00830814
v -0.06673006 -0.04620926 -0.00919430
v -0.06452953 -0.04322332 -0.00773979
v -0.06452953 -0.04064753 -0.00542462
v -0.18617241 -0.14963444 -0.02062630
v -0.19381455 -0.15783759 -0.01999067
v -0.19794266 -0.16166025 -0.01984684
v -0.20207078 -0.16540089 -0.01974477
v -0.23361161 -0.18982984 -0.02056366
v -0.20353780 -0.16758293 -0.01906971
v -0.06452953 -0.04222254 -0.01812091
v -0.06637184 -0.04301004 -0.01881685
v -0.14385073 -0.11393439 -0.01919498
v -0.14789355 -0.11777346 -0.01912770
v -0.15127110 -0.11834768 -0.02068429
v -0.23164990 -0.18982984 -0.01332587
v -0.22194373 -0.18256186 -0.01729506
v -0.21878793 -0.18028138 -0.01731362
v -0.21411395 -0.17763997 -0.01411461
v -0.23170108 -0.18982984 -0.01374808
v -0.23258812 -0.18982984 -0.01810699
v -0.21179402 -0.17539231 -0.01651792
v -0.20010906 -0.16710715 -0.01521419
v -0.20201961 -0.16873135 -0.01389423
v -0.19806208 -0.16566339 -0.01372720
v -0.19558861 -0.16364541 -0.01363441
v -0.19367808 -0.16202119 -0.01356481
v -0.19279106 -0.16126650 -0.01355554
v -0.19142639 -0.16006885 -0.01353698
v -0.17283281 -0.14359695 -0.01177625
v -0.18740062 -0.15632821 -0.01036581
v -0.17902498 -0.14886336 -0.01035653
v -0.15045231 -0.12310550 -0.01068130
v -0.06452953 -0.04484754 -0.01032173
v -0.06452953 -0.04469988 -0.01001784
v -0.15524568 -0.12217034 -0.02056134
v -0.19106815 -0.15652510 -0.01933417
v -0.19922204 -0.16394073 -0.01909291
v -0.20793884 -0.17114309 -0.01894908
v -0.21244224 -0.17483449 -0.01871942
v -0.21943615 -0.17985482 -0.01924137
v -0.21684329 -0.17883763 -0.01732290
v -0.19260341 -0.15896962 -0.01839929
v -0.19669741 -0.16275948 -0.01796548
v -0.20091081 -0.16654933 -0.01747136
v -0.06452953 -0.04304285 -0.01723010
v -0.14536892 -0.11616564 -0.01860807
v -0.15556979 -0.12481174 -0.01906971
v -0.16014142 -0.12879848 -0.01917642
v -0.21034407 -0.17386653 -0.01745513
v -0.20532891 -0.17019153 -0.01720227
v -0.19840324 -0.16497433 -0.01658288
v -0.19594684 -0.16339933 -0.01569207
v -0.20215608 -0.16797666 -0.01668727
v -0.19188696 -0.15970791 -0.01607020
v -0.18953291 -0.15839541 -0.01355554
v -0.17093934 -0.14182506 -0.01367385
v -0.15446101 -0.12696097 -0.01388727
v -0.15234577 -0.12504144 -0.01383855
v -0.06452953 -0.04519207 -0.01360193
v -0.06637184 -0.04671786 -0.01145611
v -0.16418424 -0.13257192 -0.01908827
v -0.18852647 -0.15514696 -0.01861735
v -0.19507687 -0.16026571 -0.01915090
v -0.16162549 -0.13121020 -0.01823226
v -0.16976232 -0.13892116 -0.01763607
v -0.16085787 -0.13189926 -0.01607716
v -0.16899469 -0.13959381 -0.01540210
v -0.06452953 -0.04386316 -0.01626739
v -0.14473775 -0.11678907 -0.01684966
v -0.15301104 -0.12436878 -0.01682414
v -0.15362514 -0.12377816 -0.01848976
v -0.17308868 -0.14338366 -0.01506573
v -0.06452953 -0.04519207 -0.01365993
v -0.15690034 -0.12822425 -0.01625347
v -0.06681535 -0.04657020 -0.01532555
f 1 2 9
f 1 9 18
f 1 18 17
f 1 17 16
f 1 16 24
f 1 24 28
f 1 28 34
f 1 34 44
f 1 44 59
f 1 59 74
f 1 74 93
f 1 93 92
f 1 92 124
f 1 124 123
f 1 123 149
f 1 149 163
f 1 163 158
f 1 158 135
f 1 135 100
f 1 100 70
f 1 70 68
f 1 68 63
f 1 63 53
f 1 53 41
f 1 41 30
f 1 30 26
f 1 26 22
f 1 22 19
f 1 19 10
f 1 10 3
f 1 3 4
f 1 4 5
f 1 5 6
f 1 6 7
f 1 7 8
f 1 8 2
f 2 8 9
f 3 10 11
f 3 11 12
f 3 12 13
f 3 13 14
f 3 14 4
f 4 14 13
f 4 13 12
f 4 12 20
f 4 20 25
f 4 25 29
f 4 29 36
f 4 36 47
f 4 47 43
f 4 43 31
f 4 31 27
f 4 27 23
f 4 23 15
f 4 15 8
f 4 8 7
f 4 7 6
f 4 6 5
f 8 15 16
f 8 16 17
f 8 17 18
f 8 18 9
f 10 19 11
f 11 19 12
f 12 19 21
f 12 21 22
f 12 22 20
f 15 23 16
f 16 23 24
f 19 22 21
f 20 22 25
f 22 26 25
f 23 27 28
f 23 28 24
f 25 26 30
f 25 30 29
f 27 31 32
f 27 32 33
f 27 33 28
f 28 33 32
f 28 32 35
f 28 35 34
f 29 30 37
f 29 37 38
f 29 38 39
f 29 39 40
f 29 40 36
f 30 41 42
f 30 42 37
f 31 43 54
f 31 54 66
f 31 66 98
f 31 98 110
f 31 110 109
f 31 109 105
f 31 105 75
f 31 75 60
f 31 60 45
f 31 45 35
f 31 35 32
f 34 35 45
f 34 45 44
f 36 46 47
f 36 40 46
f 37 42 38
f 38 42 48
f 38 48 39
f 39 48 40
f 40 48 42
f 40 42 49
f 40 49 50
f 40 50 51
f 40 51 52
f 40 52 46
f 41 53 42
f 42 53 49
f 43 47 46
f 43 46 55
f 43 55 56
f 43 56 57
f 43 57 58
f 43 58 54
f 44 45 59
f 45 60 61
f 45 61 59
f 46 52 51
f 46 51 56
f 46 56 55
f 49 56 62
f 49 62 50
f 49 53 63
f 49 63 56
f 50 62 51
f 51 62 56
f 54 64 65
f 54 65 66
f 54 58 64
f 56 63 57
f 57 63 58
f 58 63 67
f 58 67 68
f 58 68 69
f 58 69 70
f 58 70 71
f 58 71 72
f 58 72 73
f 58 73 64
f 59 61 74
f 60 75 76
f 60 76 77
f 60 77 78
f 60 78 79
f 60 79 80
f 60 80 81
f 60 81 82
f 60 82 83
f 60 83 84
f 60 84 85
f 60 85 86
f 60 86 87
f 60 87 88
f 60 88 89
f 60 89 90
f 60 90 91
f 60 91 92
f 60 92 93
f 60 93 61
f 61 93 74
f 63 68 67
f 64 73 65
f 65 73 72
f 65 72 94
f 65 94 95
f 65 95 96
f 65 96 97
f 65 97 66
f 66 97 99
f 66 99 98
f 68 70 69
f 70 100 101
f 70 101 71
f 71 101 102
f 71 102 103
f 71 103 104
f 71 104 72
f 72 104 94
f 75 105 76
f 76 106 107
f 76 107 108
f 76 108 77
f 76 105 109
f 76 109 110
f 76 110 106
f 77 111 112
f 77 112 78
f 77 108 107
f 77 107 111
f 78 113 79
f 78 112 113
f 79 113 114
f 79 114 115
f 79 115 81
f 79 81 80
f 81 116 117
f 81 117 82
f 81 115 116
f 82 117 118
f 82 118 119
f 82 119 120
f 82 120 83
f 83 120 84
f 84 120 85
f 85 120 121
f 85 121 119
f 85 119 122
f 85 122 123
f 85 123 86
f 86 123 87
f 87 123 88
f 88 123 124
f 88 124 89
f 89 124 91
f 89 91 90
f 91 124 92
f 94 104 125
f 94 125 95
f 95 125 126
f 95 126 96
f 96 126 97
f 97 127 99
f 97 126 127
f 98 99 128
f 98 128 129
f 98 129 130
f 98 130 131
f 98 131 107
f 98 107 106
f 98 106 110
f 99 127 132
f 99 132 133
f 99 133 134
f 99 134 128
f 100 135 136
f 100 136 101
f 101 136 103
f 101 103 102
f 103 136 137
f 103 137 138
f 103 138 125
f 103 125 104
f 107 131 111
f 111 139 140
f 111 140 112
f 111 131 139
f 112 134 141
f 112 141 142
f 112 142 117
f 112 117 115
f 112 115 114
f 112 114 113
f 112 140 143
f 112 143 134
f 115 117 116
f 117 144 145
f 117 145 118
f 117 142 144
f 118 145 119
f 119 121 120
f 119 145 146
f 119 146 147
f 119 147 148
f 119 148 149
f 119 149 150
f 119 150 122
f 122 150 123
f 123 150 149
f 125 138 126
f 126 138 151
f 126 151 152
f 126 152 153
f 126 153 127
f 127 153 132
f 128 134 129
f 129 131 130
f 129 134 140
f 129 140 139
f 129 139 131
f 132 152 154
f 132 154 155
f 132 155 156
f 132 156 157
f 132 157 144
f 132 144 133
f 132 153 152
f 133 142 141
f 133 141 134
f 133 144 142
f 134 143 140
f 135 158 136
f 136 158 159
f 136 159 160
f 136 160 161
f 136 161 137
f 137 161 151
f 137 151 138
f 144 157 162
f 144 162 145
f 145 162 146
f 146 162 147
f 147 162 157
f 147 157 163
f 147 163 148
f 148 163 149
f 151 161 152
f 152 161 154
f 154 161 160
f 154 160 155
f 155 160 156
f 156 160 164
f 156 164 157
f 157 164 163
f 158 163 165
f 158 165 160
f 158 160 159
f 160 165 164
f 163 164 165

