# https://github.com/mikedh/trimesh
v 0.15145123 0.25529537 -0.00917075
v 0.15145123 0.25539274 -0.00648929
v 0.15145123 0.25544145 -0.01362859
v 0.27915669 0.11099223 -0.01365927
v 0.27915669 0.11099223 -0.01322668
v 0.27915669 0.11110586 -0.00900508
v 0.15145123 0.25545769 -0.00490312
v 0.15145123 0.25555509 -0.01444469
v 0.27915669 0.11268036 -0.01787168
v 0.15145123 0.25620437 -0.01781952
v 0.15145123 0.25631799 -0.01811712
v 0.27915669 0.11217717 -0.00465461
v 0.15145123 0.25583103 -0.00189339
v 0.15145123 0.25571738 -0.00271255
v 0.27915669 0.11381661 -0.01921547
v 0.15145123 0.25795744 -0.02116367
v 0.15145123 0.25813597 -0.02137536
v 0.27915669 0.11378415 -0.00188418
v 0.15145123 0.25665888 -0.00017529
v 0.15145123 0.25591219 -0.00164795
v 0.27915669 0.11428735 -0.01966954
v 0.15145123 0.25920730 -0.02261485
v 0.27915669 0.11470938 -0.00124297
v 0.15145123 0.25850932 0.00068682
v 0.27915669 0.11535866 -0.00088401
v 0.27915669 0.11636505 -0.02051018
v 0.15145123 0.26084675 -0.02365184
v 0.15145123 0.25949948 0.00080648
v 0.27915669 0.11735520 0.00004560
v 0.27915669 0.12009842 0.00083716
v 0.27915669 0.12378310 0.00184960
v 0.27915669 0.12496805 0.00202755
v 0.27915669 0.12667242 0.00223924
v 0.27915669 0.11948161 -0.02147354
v 0.15145123 0.26477489 -0.02494655
v 0.15145123 0.26381721 0.00091386
v 0.24872741 0.17913447 0.00332533
v 0.27915669 0.12727300 0.00227606
v 0.27915669 0.12293904 -0.02237247
v 0.15145123 0.26483984 -0.02495575
v 0.27693138 0.15972091 -0.02776300
v 0.27915669 0.12461093 -0.02268848
v 0.27915669 0.12300397 -0.02238781
v 0.15145123 0.26855699 0.00073284
v 0.26246687 0.22755476 0.00349100
v 0.27818156 0.13227247 0.00249082
v 0.27811906 0.13394438 0.00256139
v 0.27915669 0.13162319 0.00248775
v 0.15145123 0.26897900 -0.02502938
v 0.15548928 0.26483984 -0.02517358
v 0.27608126 0.16238297 -0.02785197
v 0.27813157 0.15959107 -0.02765868
v 0.27915669 0.12686720 -0.02300755
v 0.15145123 0.27170599 0.00035241
v 0.27915669 0.13506441 0.00247855
v 0.27915669 0.13545396 0.00246321
v 0.26365452 0.22755476 0.00305841
v 0.15145123 0.27470891 -0.00078890
v 0.15145123 0.27256629 0.00013151
v 0.15145123 0.26902770 -0.02502632
v 0.15151373 0.26897900 -0.02502938
v 0.15933983 0.26482359 -0.02510608
v 0.26680496 0.18419889 -0.02717700
v 0.27178065 0.17106713 -0.02769243
v 0.27805656 0.16218819 -0.02767709
v 0.27915669 0.15850351 -0.02683645
v 0.27915669 0.15830872 -0.02683952
v 0.27915669 0.13099015 -0.02356593
v 0.27915669 0.13951198 0.00193244
v 0.26432961 0.22755476 0.00275467
v 0.15145123 0.27540690 -0.00184430
v 0.15532676 0.26883293 -0.02479928
v 0.25987898 0.22755476 -0.02480849
v 0.15145123 0.27250138 -0.02427465
v 0.26679245 0.18671485 -0.02704815
v 0.26350450 0.22755476 -0.02454464
v 0.27198070 0.17510893 -0.02739790
v 0.27915669 0.16225312 -0.02658794
v 0.26485468 0.22755476 -0.02356593
v 0.27915669 0.14347262 0.00108567
v 0.26594233 0.22755476 0.00108260
v 0.26490470 0.22755476 0.00219936
v 0.15145123 0.27574778 -0.00240268
v 0.15145123 0.27271240 -0.02417647
v 0.15145123 0.27500110 -0.02271916
v 0.27915669 0.16314588 -0.02627500
v 0.26718001 0.22755476 -0.01042557
v 0.27915669 0.16640853 -0.02261178
v 0.27915669 0.16392503 -0.02581480
v 0.15145123 0.27566662 -0.02153183
v 0.15145123 0.27587764 -0.02109004
v 0.15145123 0.27655938 -0.01763544
v 0.27915669 0.15757828 -0.00345195
v 0.26713001 0.22755476 -0.00208054
v 0.15145123 0.27649447 -0.00533265
v 0.26738006 0.22755476 -0.00917075
v 0.27915669 0.16658708 -0.02211783
v 0.15145123 0.27678665 -0.01324509
v 0.27915669 0.16525606 -0.01449685
v 0.26756757 0.22755476 -0.00552287
v 0.26726753 0.22755476 -0.00314514
v 0.15145123 0.27677040 -0.00901121
v 0.15145123 0.27652692 -0.00565172
v 0.26751757 0.22755476 -0.00662429
v 0.27915669 0.16629490 -0.01739920
v 0.27915669 0.16614882 -0.01693593
f 1 2 7
f 1 7 14
f 1 14 13
f 1 13 20
f 1 20 19
f 1 19 24
f 1 24 28
f 1 28 36
f 1 36 44
f 1 44 54
f 1 54 59
f 1 59 58
f 1 58 71
f 1 71 83
f 1 83 95
f 1 95 103
f 1 103 102
f 1 102 98
f 1 98 92
f 1 92 91
f 1 91 90
f 1 90 85
f 1 85 84
f 1 84 74
f 1 74 60
f 1 60 49
f 1 49 40
f 1 40 35
f 1 35 27
f 1 27 22
f 1 22 17
f 1 17 16
f 1 16 11
f 1 11 10
f 1 10 8
f 1 8 3
f 1 3 4
f 1 4 5
f 1 5 6
f 1 6 2
f 2 6 7
f 3 8 4
f 4 9 15
f 4 15 21
f 4 21 26
f 4 26 34
f 4 34 39
f 4 39 43
f 4 43 42
f 4 42 53
f 4 53 68
f 4 68 67
f 4 67 66
f 4 66 78
f 4 78 86
f 4 86 89
f 4 89 88
f 4 88 97
f 4 97 105
f 4 105 106
f 4 106 99
f 4 99 93
f 4 93 80
f 4 80 69
f 4 69 56
f 4 56 55
f 4 55 48
f 4 48 38
f 4 38 33
f 4 33 32
f 4 32 31
f 4 31 30
f 4 30 29
f 4 29 25
f 4 25 23
f 4 23 18
f 4 18 12
f 4 12 6
f 4 6 5
f 4 8 10
f 4 10 11
f 4 11 9
f 6 12 13
f 6 13 14
f 6 14 7
f 9 11 16
f 9 16 17
f 9 17 15
f 12 18 19
f 12 19 20
f 12 20 13
f 15 17 22
f 15 22 21
f 18 23 19
f 19 23 25
f 19 25 24
f 21 22 27
f 21 27 26
f 24 25 29
f 24 29 30
f 24 30 31
f 24 31 32
f 24 32 33
f 24 33 28
f 26 27 35
f 26 35 34
f 28 33 37
f 28 37 36
f 33 38 37
f 34 35 39
f 35 40 41
f 35 41 42
f 35 42 43
f 35 43 39
f 36 37 45
f 36 45 44
f 37 38 46
f 37 46 47
f 37 47 45
f 38 48 46
f 40 49 50
f 40 50 51
f 40 51 41
f 41 51 52
f 41 52 53
f 41 53 42
f 44 45 54
f 45 47 55
f 45 55 56
f 45 56 57
f 45 57 58
f 45 58 59
f 45 59 54
f 46 48 47
f 47 48 55
f 49 60 61
f 49 61 50
f 50 61 62
f 50 62 63
f 50 63 64
f 50 64 51
f 51 64 65
f 51 65 52
f 52 65 66
f 52 66 67
f 52 67 68
f 52 68 53
f 56 69 70
f 56 70 57
f 57 70 58
f 58 70 71
f 60 72 73
f 60 73 61
f 60 74 72
f 61 73 62
f 62 73 75
f 62 75 63
f 63 75 64
f 64 75 76
f 64 76 77
f 64 77 65
f 65 78 66
f 65 77 76
f 65 76 79
f 65 79 78
f 69 80 81
f 69 81 82
f 69 82 70
f 70 82 83
f 70 83 71
f 72 74 76
f 72 76 73
f 73 76 75
f 74 84 76
f 76 84 85
f 76 85 79
f 78 79 86
f 79 87 88
f 79 88 89
f 79 89 86
f 79 85 90
f 79 90 91
f 79 91 92
f 79 92 87
f 80 93 81
f 81 93 94
f 81 94 95
f 81 95 83
f 81 83 82
f 87 96 88
f 87 92 96
f 88 96 97
f 92 98 96
f 93 99 100
f 93 100 101
f 93 101 94
f 94 101 102
f 94 102 103
f 94 103 95
f 96 104 97
f 96 98 104
f 97 104 100
f 97 100 105
f 98 100 104
f 98 102 100
f 99 106 100
f 100 106 105
f 100 102 101

