# https://github.com/mikedh/trimesh
v -0.32999096 0.13486792 -0.02530913
v -0.31839922 0.13899049 -0.02530010
v -0.32642568 0.13525372 -0.02522482
v -0.33827606 0.13131071 -0.02499597
v -0.35765412 0.12723909 -0.02491768
v -0.36147803 0.12723909 -0.02497791
v -0.36533885 0.12721240 -0.02496887
v -0.36942137 0.12716387 -0.02491166
v -0.40885180 0.13760497 -0.02334287
v -0.31450141 0.14152857 -0.02507125
v -0.31450141 0.13965777 -0.02503512
v -0.32714612 0.13287820 -0.02440880
v -0.33503404 0.12944233 -0.02419803
v -0.33873786 0.12886241 -0.02444193
v -0.33457224 0.13159460 -0.02485445
v -0.31450141 0.13946608 -0.02496887
v -0.31927668 0.13652034 -0.02462561
v -0.34256178 0.12831402 -0.02454129
v -0.34636718 0.12783600 -0.02460152
v -0.35479082 0.12576623 -0.02440579
v -0.35774649 0.12560607 -0.02446903
v -0.36162581 0.12528579 -0.02449312
v -0.36549587 0.12497034 -0.02451720
v -0.36949526 0.12471556 -0.02450516
v -0.37347616 0.12460637 -0.02443289
v -0.37351313 0.12711535 -0.02480025
v -0.37751251 0.12708623 -0.02466776
v -0.38135488 0.12706923 -0.02451419
v -0.40433517 0.13447483 -0.02352353
v -0.40885180 0.13493100 -0.02328867
v -0.40885180 0.13773115 -0.02330975
v -0.31450141 0.14172754 -0.02496887
v -0.32417200 0.13357947 -0.02410769
v -0.33297432 0.12978932 -0.02399327
v -0.33871941 0.12772196 -0.02265332
v -0.34254330 0.12695762 -0.02270451
v -0.35231547 0.12581475 -0.02407156
v -0.31450141 0.13786946 -0.02264730
v -0.31662582 0.13735505 -0.02436063
v -0.36951374 0.12350961 -0.02217154
v -0.37348540 0.12332762 -0.02215046
v -0.37732777 0.12343924 -0.02215649
v -0.37735549 0.12467189 -0.02432449
v -0.38114241 0.12488299 -0.02417695
v -0.38512335 0.12711535 -0.02428535
v -0.39242938 0.12792336 -0.02378550
v -0.40377173 0.13195857 -0.02333383
v -0.40657961 0.13269865 -0.02314413
v -0.40885180 0.13339262 -0.02282194
v -0.40885180 0.13914578 -0.02198485
v -0.31450141 0.14218615 -0.02302369
v -0.32160425 0.13417394 -0.02356268
v -0.33215230 0.12941078 -0.02240039
v -0.33500635 0.12860520 -0.02255395
v -0.32731238 0.13112144 -0.02215950
v -0.33018492 0.13004409 -0.02229199
v -0.34267260 0.12271615 -0.00960613
v -0.33565290 0.12509895 -0.01202406
v -0.34655192 0.12200520 -0.00966636
v -0.34633949 0.12629763 -0.02272860
v -0.35646261 0.12102976 -0.01188856
v -0.31450141 0.13758314 -0.02207820
v -0.31589614 0.13665865 -0.02204507
v -0.31952604 0.13465438 -0.02220165
v -0.32059749 0.13440446 -0.02290625
v -0.36211534 0.11975829 -0.00947365
v -0.36569909 0.11947439 -0.00935019
v -0.36957839 0.11934822 -0.00923878
v -0.37337458 0.11930211 -0.00919060
v -0.38112396 0.12380806 -0.02215950
v -0.37693983 0.11948895 -0.00922974
v -0.38489243 0.12528093 -0.02395714
v -0.38873480 0.12703285 -0.02396918
v -0.38731238 0.12560850 -0.02379454
v -0.39598542 0.12862461 -0.02352052
v -0.39831299 0.12904196 -0.02331878
v -0.40081606 0.12956850 -0.02289722
v -0.40885180 0.13311843 -0.02248470
v -0.40885180 0.13917732 -0.02184333
v -0.31450141 0.14224924 -0.02269849
v -0.32085609 0.13360857 -0.02111163
v -0.32308208 0.13298012 -0.02222273
v -0.32059749 0.13380754 -0.02131939
v -0.33321447 0.12542895 -0.01068713
v -0.32486472 0.12858335 -0.01095211
v -0.33860856 0.12364549 -0.00953989
v -0.34277421 0.12202461 -0.00525506
v -0.35166890 0.12069248 -0.00805541
v -0.35035733 0.12134762 -0.00961517
v -0.35441213 0.12114623 -0.01125924
v -0.35447678 0.12051049 -0.00898584
v -0.35808823 0.12034549 -0.01002769
v -0.31450141 0.13453548 -0.01324357
v -0.31693062 0.13273989 -0.01202708
v -0.35862395 0.11933851 -0.00495696
v -0.36223540 0.11899395 -0.00489975
v -0.36579144 0.11879255 -0.00484555
v -0.36966152 0.11868093 -0.00480942
v -0.37343923 0.11864697 -0.00482447
v -0.37691214 0.11880954 -0.00489975
v -0.38068985 0.11994755 -0.00930201
v -0.38330375 0.12101277 -0.01152121
v -0.38455067 0.12062454 -0.00952785
v -0.38492937 0.12447778 -0.02218961
v -0.38062520 0.11920991 -0.00500815
v -0.38862395 0.12530762 -0.02233113
v -0.38979697 0.12596520 -0.02327060
v -0.39957839 0.12858335 -0.02209626
v -0.40229390 0.12897887 -0.02110862
v -0.40361471 0.13007806 -0.02176805
v -0.40773419 0.13191005 -0.02158136
v -0.40885180 0.13218424 -0.02115679
v -0.40885180 0.13963108 -0.01813363
v -0.31450141 0.14343336 -0.00101541
v -0.32059749 0.13363769 -0.02078643
v -0.33109010 0.12591182 -0.00948569
v -0.33449835 0.12481263 -0.00942246
v -0.32310980 0.12914386 -0.00963926
v -0.32443061 0.12831645 -0.00823306
v -0.32635179 0.12771710 -0.00962420
v -0.31903652 0.13114085 -0.00960915
v -0.33863628 0.12304615 -0.00528518
v -0.34285734 0.12196152 -0.00131050
v -0.34681053 0.12116322 -0.00124425
v -0.34669971 0.12124329 -0.00521291
v -0.35129020 0.12040130 -0.00509849
v -0.35459687 0.11986262 -0.00502321
v -0.31450141 0.13354549 -0.00939234
v -0.35860550 0.11937491 -0.00101541
v -0.36226312 0.11900851 -0.00100035
v -0.35168738 0.12025328 -0.00197595
v -0.36582840 0.11878770 -0.00099433
v -0.36968924 0.11867608 -0.00099734
v -0.37346692 0.11868336 -0.00103950
v -0.37696755 0.11886777 -0.00112381
v -0.38072678 0.11926814 -0.00122016
v -0.38455067 0.11979954 -0.00510150
v -0.38834686 0.12104674 -0.00810660
v -0.38587148 0.12133064 -0.01101835
v -0.38464304 0.11982866 -0.00130749
v -0.39090535 0.12555997 -0.02154222
v -0.39955991 0.12450447 -0.00971152
v -0.40355929 0.12580990 -0.00988316
v -0.40777112 0.12718814 -0.00982595
v -0.40885180 0.12787483 -0.01067207
v -0.40885180 0.13872357 -0.00085582
v -0.31450141 0.14329504 0.00092677
v -0.33258641 0.12520086 -0.00802831
v -0.32435672 0.12827762 -0.00648962
v -0.32607471 0.12749387 -0.00509548
v -0.33050820 0.12574197 -0.00534540
v -0.31890722 0.13090792 -0.00526711
v -0.32059749 0.13007078 -0.00518581
v -0.33863628 0.12310439 -0.00134362
v -0.33459993 0.12432976 -0.00530324
v -0.33565290 0.12472042 0.00089364
v -0.33853467 0.12415019 0.00142360
v -0.35286964 0.12036490 0.00028540
v -0.35048663 0.12057843 -0.00099734
v -0.31450141 0.13352607 -0.00908220
v -0.35440289 0.11996211 -0.00090701
v -0.35559439 0.12018050 0.00090870
v -0.35850389 0.12002277 0.00127003
v -0.36219847 0.11987961 0.00156813
v -0.36577296 0.11979711 0.00173676
v -0.36955991 0.11976799 0.00180902
v -0.37705068 0.11990387 0.00162836
v -0.37338382 0.11978498 0.00176988
v -0.38091153 0.12014895 0.00136940
v -0.38480006 0.12048137 0.00101108
v -0.38778345 0.12080167 0.00062565
v -0.39087766 0.12107343 -0.00204220
v -0.38829145 0.12058086 -0.00516473
v -0.39027728 0.12133549 -0.00740199
v -0.39015719 0.12109042 0.00018904
v -0.38868860 0.12064395 -0.00108767
v -0.39563441 0.12328394 -0.00943149
v -0.40213687 0.12497763 -0.00866064
v -0.40775264 0.12641653 -0.00554413
v -0.40885180 0.12761277 -0.00982294
v -0.40885180 0.13805872 0.00242932
v -0.31450141 0.14168630 0.00246846
v -0.40885180 0.13771416 0.00290507
v -0.40885180 0.13646454 0.00422093
v -0.32290661 0.12893034 -0.00507139
v -0.32435672 0.12829218 -0.00331590
v -0.33265106 0.12502372 -0.00304189
v -0.31450141 0.13328100 -0.00512258
v -0.31450141 0.13330041 -0.00491180
v -0.31660734 0.13240990 -0.00236439
v -0.33449835 0.12453358 -0.00165075
v -0.33319599 0.12521298 -0.00063902
v -0.33836841 0.12587785 0.00306165
v -0.32680438 0.12757151 -0.00123823
v -0.32769108 0.12819026 0.00122487
v -0.33062827 0.12764432 0.00183914
v -0.34168429 0.12525181 0.00347417
v -0.34304206 0.12370130 0.00224564
v -0.34677360 0.12265549 0.00204088
v -0.35054207 0.12189358 0.00205895
v -0.35429206 0.12118991 0.00197464
v -0.35843923 0.12117292 0.00276054
v -0.36215230 0.12108071 0.00307369
v -0.36572678 0.12103461 0.00326038
v -0.36946754 0.12102490 0.00335373
v -0.37332838 0.12105402 0.00334470
v -0.37713381 0.12115593 0.00323328
v -0.38109624 0.12135976 0.00298336
v -0.38501250 0.12162182 0.00259794
v -0.38891951 0.12174314 0.00169159
v -0.39219846 0.12242741 0.00167352
v -0.39202296 0.12141071 -0.00116897
v -0.39560672 0.12222844 -0.00158150
v -0.39254944 0.12163638 -0.00524603
v -0.39077604 0.12119476 -0.00520689
v -0.39556052 0.12240071 -0.00533938
v -0.39591153 0.12331064 0.00156813
v -0.40247864 0.12483203 0.00086955
v -0.39934747 0.12352417 -0.00545681
v -0.40270956 0.12467675 -0.00551703
v -0.40484317 0.12541196 -0.00555317
v -0.39938443 0.12332277 -0.00161161
v -0.40293123 0.12455056 -0.00150321
v -0.40505561 0.12530519 -0.00140384
v -0.40774340 0.12627336 -0.00132856
v -0.40885180 0.12687512 -0.00561339
v -0.40885180 0.12710078 -0.00695334
v -0.31450141 0.14158438 0.00256180
v -0.40885180 0.13394828 0.00520256
v -0.31598848 0.14057982 0.00302251
v -0.32253715 0.12963887 -0.00125931
v -0.33102544 0.12580020 -0.00161161
v -0.31450141 0.13397982 -0.00132254
v -0.31869478 0.13165284 -0.00126834
v -0.32059749 0.13065557 -0.00126232
v -0.33054513 0.12959762 0.00346815
v -0.33251252 0.12918269 0.00379335
v -0.33493246 0.12858094 0.00406134
v -0.32627790 0.13049298 0.00243534
v -0.31739243 0.13284424 -0.00016326
v -0.31979392 0.13212600 0.00089364
v -0.32060673 0.13190762 0.00109539
v -0.32255560 0.13138836 0.00158018
v -0.34669971 0.12437343 0.00386261
v -0.34457530 0.12473013 0.00368796
v -0.33811904 0.12794762 0.00429922
v -0.35044046 0.12385417 0.00413662
v -0.35434748 0.12348777 0.00434138
v -0.35832838 0.12322329 0.00447989
v -0.36209686 0.12307285 0.00455818
v -0.36568985 0.12298792 0.00460937
v -0.36943061 0.12295880 0.00465152
v -0.37333762 0.12299763 0.00466959
v -0.37726312 0.12311167 0.00464249
v -0.38132716 0.12330093 0.00454613
v -0.38532654 0.12354115 0.00435643
v -0.38900264 0.12382505 0.00410651
v -0.39259564 0.12422057 0.00379636
v -0.39629022 0.12477623 0.00338986
v -0.39847001 0.12516446 0.00311585
v -0.39952298 0.12445835 0.00167352
v -0.40083454 0.12564733 0.00274247
v -0.40389182 0.12602587 0.00181505
v -0.40819599 0.12786027 0.00205293
v -0.40885180 0.12801071 0.00189635
v -0.40885180 0.12699645 -0.00050051
v -0.40885180 0.12675623 -0.00122317
v -0.40885180 0.12677321 -0.00243967
v -0.31599772 0.14054101 0.00302853
v -0.31450141 0.13945637 0.00271236
v -0.40885180 0.13364983 0.00525977
v -0.32551126 0.13702019 0.00376625
v -0.31450141 0.13426129 -0.00084980
v -0.32481855 0.13303836 0.00363075
v -0.32757102 0.13209688 0.00398004
v -0.33033270 0.13142718 0.00421491
v -0.31450141 0.13575357 0.00116766
v -0.31504637 0.13559100 0.00128810
v -0.33364858 0.13057791 0.00439257
v -0.33764797 0.13083512 0.00480208
v -0.35008948 0.12654998 0.00500985
v -0.34637642 0.12673681 0.00472981
v -0.35397802 0.12639468 0.00518148
v -0.35797740 0.12626365 0.00526579
v -0.38165044 0.12628549 0.00545248
v -0.38572369 0.12640439 0.00541033
v -0.38949220 0.12660093 0.00530192
v -0.39316830 0.12684843 0.00511222
v -0.39685364 0.12706439 0.00471777
v -0.40018800 0.12700616 0.00403123
v -0.40416891 0.12814659 0.00395595
v -0.40724463 0.12885270 0.00360967
v -0.40885180 0.12922879 0.00335373
v -0.40885180 0.12847173 0.00247749
v -0.32059749 0.13657130 0.00353741
v -0.32021879 0.13671203 0.00350127
v -0.32962150 0.13460100 0.00419985
v -0.32195525 0.13709541 0.00360666
v -0.32220462 0.13596710 0.00368495
v -0.31450141 0.13908754 0.00259794
v -0.40885180 0.13070167 0.00438955
v -0.40482469 0.13072350 0.00521761
v -0.40126865 0.13061188 0.00541033
v -0.33339922 0.13364740 0.00441967
v -0.32595461 0.13441902 0.00398305
v -0.40873171 0.13060946 0.00437149
v -0.40885180 0.13063615 0.00435643
f 1 2 3
f 1 3 4
f 1 4 5
f 1 5 6
f 1 6 7
f 1 7 8
f 1 8 9
f 1 9 2
f 2 10 11
f 2 11 3
f 2 9 10
f 3 12 13
f 3 13 14
f 3 14 15
f 3 15 4
f 3 11 16
f 3 16 17
f 3 17 12
f 4 15 18
f 4 18 19
f 4 19 5
f 5 20 21
f 5 21 22
f 5 22 23
f 5 23 6
f 5 19 20
f 6 23 24
f 6 24 7
f 7 24 8
f 8 24 25
f 8 25 26
f 8 26 9
f 9 26 27
f 9 27 28
f 9 28 29
f 9 29 30
f 9 30 49
f 9 49 78
f 9 78 112
f 9 112 145
f 9 145 180
f 9 180 227
f 9 227 226
f 9 226 268
f 9 268 267
f 9 267 266
f 9 266 265
f 9 265 294
f 9 294 293
f 9 293 307
f 9 307 301
f 9 301 271
f 9 271 229
f 9 229 184
f 9 184 183
f 9 183 181
f 9 181 146
f 9 146 113
f 9 113 79
f 9 79 50
f 9 50 31
f 9 31 10
f 10 32 51
f 10 51 80
f 10 80 114
f 10 114 147
f 10 147 182
f 10 182 228
f 10 228 270
f 10 270 300
f 10 300 277
f 10 277 273
f 10 273 233
f 10 233 189
f 10 189 188
f 10 188 160
f 10 160 128
f 10 128 93
f 10 93 62
f 10 62 38
f 10 38 16
f 10 16 11
f 10 31 32
f 12 33 34
f 12 34 13
f 12 17 33
f 13 34 35
f 13 35 36
f 13 36 37
f 13 37 14
f 14 18 15
f 14 37 20
f 14 20 18
f 16 38 39
f 16 39 17
f 17 39 33
f 18 20 19
f 20 37 40
f 20 40 23
f 20 23 22
f 20 22 21
f 23 40 24
f 24 40 41
f 24 41 25
f 25 41 42
f 25 42 43
f 25 43 26
f 26 43 27
f 27 43 28
f 28 43 44
f 28 44 45
f 28 45 30
f 28 30 29
f 30 46 47
f 30 47 48
f 30 48 49
f 30 45 46
f 31 50 32
f 32 50 51
f 33 52 34
f 33 39 52
f 34 53 54
f 34 54 35
f 34 52 55
f 34 55 56
f 34 56 53
f 35 57 36
f 35 54 58
f 35 58 57
f 36 57 59
f 36 59 60
f 36 60 37
f 37 61 40
f 37 60 61
f 38 62 63
f 38 63 39
f 39 63 64
f 39 64 65
f 39 65 52
f 40 61 66
f 40 66 67
f 40 67 41
f 41 67 68
f 41 68 69
f 41 69 42
f 42 70 44
f 42 44 43
f 42 69 71
f 42 71 70
f 44 70 72
f 44 72 45
f 45 72 73
f 45 73 46
f 46 73 74
f 46 74 75
f 46 75 47
f 47 75 76
f 47 76 48
f 48 76 77
f 48 77 49
f 49 77 78
f 50 79 51
f 51 79 80
f 52 81 82
f 52 82 55
f 52 65 83
f 52 83 81
f 53 84 58
f 53 58 54
f 53 56 84
f 55 85 56
f 55 82 85
f 56 85 84
f 57 58 86
f 57 86 87
f 57 87 88
f 57 88 59
f 58 84 86
f 59 88 89
f 59 89 90
f 59 90 60
f 60 90 61
f 61 90 91
f 61 91 92
f 61 92 66
f 62 93 63
f 63 94 64
f 63 93 94
f 64 94 83
f 64 83 65
f 66 92 91
f 66 91 95
f 66 95 96
f 66 96 67
f 67 96 97
f 67 97 68
f 68 98 69
f 68 97 98
f 69 98 99
f 69 99 100
f 69 100 71
f 70 71 101
f 70 101 102
f 70 102 103
f 70 103 104
f 70 104 74
f 70 74 72
f 71 100 105
f 71 105 101
f 72 74 73
f 74 106 107
f 74 107 76
f 74 76 75
f 74 104 106
f 76 107 77
f 77 107 108
f 77 108 109
f 77 109 110
f 77 110 111
f 77 111 78
f 78 111 112
f 79 113 80
f 80 113 114
f 81 85 82
f 81 83 115
f 81 115 94
f 81 94 85
f 83 94 115
f 84 85 116
f 84 116 117
f 84 117 86
f 85 118 119
f 85 119 120
f 85 120 116
f 85 94 121
f 85 121 118
f 86 122 87
f 86 117 122
f 87 122 123
f 87 123 124
f 87 124 125
f 87 125 88
f 88 125 126
f 88 126 127
f 88 127 95
f 88 95 91
f 88 91 90
f 88 90 89
f 93 128 94
f 94 128 121
f 95 129 130
f 95 130 96
f 95 127 131
f 95 131 129
f 96 130 132
f 96 132 97
f 97 132 133
f 97 133 98
f 98 133 99
f 99 134 100
f 99 133 134
f 100 134 135
f 100 135 136
f 100 136 105
f 101 105 137
f 101 137 103
f 101 103 102
f 103 137 138
f 103 138 139
f 103 139 104
f 104 139 106
f 105 136 140
f 105 140 137
f 106 139 141
f 106 141 107
f 107 141 109
f 107 109 108
f 109 141 142
f 109 142 143
f 109 143 144
f 109 144 145
f 109 145 112
f 109 112 111
f 109 111 110
f 113 146 114
f 114 146 147
f 116 148 117
f 116 120 148
f 117 148 122
f 118 121 119
f 119 149 150
f 119 150 151
f 119 151 148
f 119 148 120
f 119 121 152
f 119 152 153
f 119 153 149
f 121 128 152
f 122 154 123
f 122 148 155
f 122 155 154
f 123 154 156
f 123 156 157
f 123 157 158
f 123 158 124
f 124 158 159
f 124 159 131
f 124 131 125
f 125 131 126
f 126 131 127
f 128 160 152
f 129 131 161
f 129 161 158
f 129 158 162
f 129 162 130
f 130 162 163
f 130 163 164
f 130 164 132
f 131 159 158
f 131 158 161
f 132 164 165
f 132 165 133
f 133 165 166
f 133 166 134
f 134 167 135
f 134 166 168
f 134 168 167
f 135 167 169
f 135 169 136
f 136 169 170
f 136 170 171
f 136 171 140
f 137 140 172
f 137 172 173
f 137 173 174
f 137 174 138
f 138 174 141
f 138 141 139
f 140 171 175
f 140 175 176
f 140 176 172
f 141 174 177
f 141 177 142
f 142 178 143
f 142 177 178
f 143 178 144
f 144 178 179
f 144 179 180
f 144 180 145
f 146 181 147
f 147 181 183
f 147 183 184
f 147 184 182
f 148 151 155
f 149 153 185
f 149 185 150
f 150 185 186
f 150 186 187
f 150 187 151
f 151 187 155
f 152 160 188
f 152 188 189
f 152 189 190
f 152 190 186
f 152 186 153
f 153 186 185
f 154 155 187
f 154 187 191
f 154 191 192
f 154 192 156
f 156 193 157
f 156 192 194
f 156 194 195
f 156 195 196
f 156 196 193
f 157 193 197
f 157 197 198
f 157 198 199
f 157 199 158
f 158 199 200
f 158 200 162
f 162 200 201
f 162 201 163
f 163 202 164
f 163 201 202
f 164 202 203
f 164 203 165
f 165 203 204
f 165 204 166
f 166 205 206
f 166 206 168
f 166 204 205
f 167 168 207
f 167 207 208
f 167 208 169
f 168 206 207
f 169 208 209
f 169 209 170
f 170 209 210
f 170 210 171
f 171 210 211
f 171 211 175
f 172 212 213
f 172 213 214
f 172 214 215
f 172 215 173
f 172 176 212
f 173 215 174
f 174 215 214
f 174 214 216
f 174 216 177
f 175 211 217
f 175 217 218
f 175 218 213
f 175 213 212
f 175 212 176
f 177 216 178
f 178 216 219
f 178 219 220
f 178 220 221
f 178 221 179
f 179 221 222
f 179 222 223
f 179 223 224
f 179 224 225
f 179 225 226
f 179 226 227
f 179 227 180
f 182 184 228
f 184 229 230
f 184 230 228
f 186 190 231
f 186 231 194
f 186 194 232
f 186 232 187
f 187 232 191
f 189 233 190
f 190 233 234
f 190 234 235
f 190 235 231
f 191 232 192
f 192 232 194
f 193 196 236
f 193 236 237
f 193 237 238
f 193 238 197
f 194 231 195
f 195 239 236
f 195 236 196
f 195 231 240
f 195 240 241
f 195 241 242
f 195 242 243
f 195 243 239
f 197 244 245
f 197 245 198
f 197 238 246
f 197 246 244
f 198 245 244
f 198 244 199
f 199 244 247
f 199 247 200
f 200 247 202
f 200 202 201
f 202 247 248
f 202 248 203
f 203 248 249
f 203 249 204
f 204 249 250
f 204 250 251
f 204 251 205
f 205 252 253
f 205 253 206
f 205 251 252
f 206 253 254
f 206 254 207
f 207 254 255
f 207 255 256
f 207 256 208
f 208 256 257
f 208 257 209
f 209 257 258
f 209 258 211
f 209 211 210
f 211 258 259
f 211 259 217
f 213 218 222
f 213 222 216
f 213 216 214
f 216 222 219
f 217 259 260
f 217 260 261
f 217 261 218
f 218 261 262
f 218 262 263
f 218 263 264
f 218 264 265
f 218 265 266
f 218 266 267
f 218 267 225
f 218 225 224
f 218 224 223
f 218 223 222
f 219 222 220
f 220 222 221
f 225 267 268
f 225 268 226
f 228 230 269
f 228 269 270
f 229 271 230
f 230 272 269
f 230 271 272
f 231 235 240
f 233 273 240
f 233 240 234
f 234 240 235
f 236 239 274
f 236 274 275
f 236 275 237
f 237 275 238
f 238 275 276
f 238 276 246
f 239 243 274
f 240 273 277
f 240 277 241
f 241 277 242
f 242 277 243
f 243 277 278
f 243 278 274
f 244 246 247
f 246 276 279
f 246 279 280
f 246 280 281
f 246 281 282
f 246 282 247
f 247 282 281
f 247 281 248
f 248 281 283
f 248 283 249
f 249 283 250
f 250 283 284
f 250 284 251
f 251 284 252
f 252 285 253
f 252 284 285
f 253 285 254
f 254 285 286
f 254 286 255
f 255 286 287
f 255 287 256
f 256 287 288
f 256 288 257
f 257 288 289
f 257 289 258
f 258 289 290
f 258 290 291
f 258 291 259
f 259 291 260
f 260 262 261
f 260 291 292
f 260 292 262
f 262 292 293
f 262 293 294
f 262 294 264
f 262 264 263
f 264 294 265
f 269 295 296
f 269 296 270
f 269 272 297
f 269 297 298
f 269 298 299
f 269 299 295
f 270 296 300
f 271 301 302
f 271 302 303
f 271 303 280
f 271 280 304
f 271 304 272
f 272 304 297
f 274 278 277
f 274 277 300
f 274 300 296
f 274 296 275
f 275 296 295
f 275 295 299
f 275 299 305
f 275 305 276
f 276 305 280
f 276 280 279
f 280 283 281
f 280 305 297
f 280 297 304
f 280 303 284
f 280 284 283
f 284 303 285
f 285 303 286
f 286 303 287
f 287 303 302
f 287 302 288
f 288 302 289
f 289 302 291
f 289 291 290
f 291 302 306
f 291 306 292
f 292 306 307
f 292 307 293
f 297 305 299
f 297 299 298
f 301 307 306
f 301 306 302

