# https://github.com/mikedh/trimesh
v 0.31826658 0.13890536 -0.02470635
v 0.32656262 0.13501445 -0.02439843
v 0.31496482 0.13910817 -0.02450526
v 0.31496482 0.14133423 -0.02450840
v 0.38136078 0.12995392 -0.02440471
v 0.37764283 0.12999165 -0.02446127
v 0.35721258 0.13068021 -0.02458695
v 0.35336515 0.13071323 -0.02460580
v 0.34968420 0.13075803 -0.02457124
v 0.35377210 0.12811458 -0.02440157
v 0.35006340 0.12819004 -0.02427903
v 0.32286316 0.13507341 -0.02406537
v 0.31898798 0.13635858 -0.02410936
v 0.34642867 0.12837869 -0.02409993
v 0.34274771 0.12869232 -0.02387057
v 0.31496482 0.13872850 -0.02437329
v 0.31496482 0.14186245 -0.02430417
v 0.40943038 0.13750699 -0.02291538
v 0.38873193 0.13009304 -0.02411879
v 0.37751335 0.12748260 -0.02442357
v 0.40943038 0.13727590 -0.02293109
v 0.37380465 0.12756277 -0.02447384
v 0.35762877 0.12804148 -0.02446127
v 0.36998494 0.12582013 -0.02379201
v 0.36778379 0.12586256 -0.02373232
v 0.32705279 0.13264926 -0.02365376
v 0.31631511 0.13716036 -0.02392712
v 0.32440767 0.13318455 -0.02347153
v 0.35010039 0.12689070 -0.02244722
v 0.34643794 0.12722320 -0.02235610
v 0.34274771 0.12769483 -0.02223356
v 0.33900202 0.12906962 -0.02357207
v 0.31496482 0.13754472 -0.02304735
v 0.31496482 0.14266658 -0.02254777
v 0.40943038 0.13899498 -0.02183766
v 0.40943038 0.13890300 -0.02196649
v 0.38463479 0.12759344 -0.02408108
v 0.39252389 0.13030056 -0.02387999
v 0.38115729 0.12716426 -0.02415649
v 0.37747633 0.12582483 -0.02383286
v 0.37384164 0.12578474 -0.02385800
v 0.40943038 0.13567945 -0.02273000
v 0.37385088 0.12514805 -0.02213930
v 0.37003120 0.12527775 -0.02216758
v 0.36596181 0.12077136 -0.00797183
v 0.36199414 0.12090106 -0.00781158
v 0.35808195 0.12109915 -0.00745653
v 0.33654188 0.12933608 -0.02334270
v 0.32176258 0.13375757 -0.02257290
v 0.31944116 0.13457584 -0.02180310
v 0.31565847 0.13670051 -0.02206389
v 0.31496482 0.13710848 -0.02207960
v 0.33394302 0.12966623 -0.02286197
v 0.32715452 0.13130511 -0.02182510
v 0.35559409 0.12125714 -0.00718632
v 0.34284944 0.12400200 -0.00987276
v 0.33900202 0.12825842 -0.02210160
v 0.31496482 0.14278448 -0.02222728
v 0.40943038 0.13967411 -0.01974192
v 0.38832498 0.12790706 -0.02384543
v 0.37995498 0.12590265 -0.02375117
v 0.40943038 0.13504747 -0.02264203
v 0.40009850 0.13130748 -0.02313533
v 0.39655626 0.13036187 -0.02339612
v 0.39211694 0.12840463 -0.02355008
v 0.37744861 0.12517399 -0.02212987
v 0.37002193 0.12068647 -0.00791527
v 0.36580458 0.11989179 -0.00451558
v 0.36985546 0.11979982 -0.00448730
v 0.36189238 0.12012524 -0.00455957
v 0.33521933 0.12898237 -0.02202933
v 0.32102267 0.13335198 -0.02068139
v 0.32310364 0.13282139 -0.02169627
v 0.31619490 0.13242052 -0.00757593
v 0.31496482 0.13349817 -0.00890501
v 0.33267597 0.12922054 -0.02114956
v 0.33125167 0.13003410 -0.02192564
v 0.32446317 0.12833153 -0.00681556
v 0.35804496 0.12053320 -0.00465069
v 0.35475244 0.12095766 -0.00476066
v 0.35030385 0.12156841 -0.00491776
v 0.34662289 0.12210136 -0.00505915
v 0.34282172 0.12270975 -0.00518169
v 0.33909451 0.12474481 -0.00998902
v 0.31496482 0.14388808 -0.00366409
v 0.40943038 0.14079894 -0.00427364
v 0.40943038 0.13991936 -0.01822117
v 0.38231339 0.12603235 -0.02354379
v 0.38108331 0.12550414 -0.02236553
v 0.40943038 0.13394622 -0.02217700
v 0.40644305 0.13292280 -0.02248807
v 0.40398294 0.13230025 -0.02275828
v 0.39519673 0.12890455 -0.02322330
v 0.39214469 0.12727980 -0.02210160
v 0.38456081 0.12616912 -0.02304107
v 0.37702316 0.12078080 -0.00740940
v 0.37361967 0.12066053 -0.00771104
v 0.36174442 0.12012052 -0.00097764
v 0.36962425 0.11992008 -0.00077026
v 0.37346244 0.11983048 -0.00445902
v 0.35796174 0.12039171 -0.00140810
v 0.35475244 0.12069119 -0.00197053
v 0.31845155 0.13176496 -0.00928206
v 0.31868276 0.13074152 -0.00487692
v 0.31588044 0.13219649 -0.00482664
v 0.31496482 0.13290394 -0.00609603
v 0.33079849 0.12690250 -0.00962454
v 0.32749673 0.12797544 -0.00947687
v 0.33619043 0.12495940 -0.00843999
v 0.33344361 0.12527538 -0.00612745
v 0.33110371 0.12574701 -0.00482978
v 0.32611869 0.12748260 -0.00530738
v 0.32392674 0.12818532 -0.00405056
v 0.32260420 0.12893284 -0.00520997
v 0.34660441 0.12186318 -0.00118187
v 0.34277546 0.12246450 -0.00130441
v 0.33892804 0.12350680 -0.00527595
v 0.31496482 0.14386687 -0.00298541
v 0.40943038 0.14073999 -0.00083625
v 0.40943038 0.14078715 -0.00334046
v 0.38461628 0.12564562 -0.02158002
v 0.40943038 0.13378822 -0.02203247
v 0.40912516 0.13371748 -0.02213930
v 0.39967307 0.12978413 -0.02255719
v 0.39771237 0.12932430 -0.02289653
v 0.39625107 0.12840227 -0.02218643
v 0.39959909 0.12898472 -0.02158002
v 0.39600135 0.12711473 -0.01833743
v 0.38680822 0.12578003 -0.02105529
v 0.38815851 0.12641909 -0.02203875
v 0.37686593 0.12007336 -0.00443703
v 0.38073186 0.12105434 -0.00698208
v 0.36576759 0.12005921 -0.00048748
v 0.36167044 0.12050019 0.00051797
v 0.35790624 0.12070062 0.00012836
v 0.37324971 0.11996253 -0.00082682
v 0.36950401 0.12036812 0.00072535
v 0.36716411 0.12037049 0.00071906
v 0.35367961 0.12097889 -0.00093365
v 0.35029461 0.12136797 -0.00102477
v 0.32221576 0.12924175 -0.00123843
v 0.31896947 0.13092311 -0.00131384
v 0.31496482 0.13271057 -0.00477637
v 0.33483089 0.12463162 -0.00493661
v 0.33278694 0.12502071 -0.00320535
v 0.32408397 0.12839047 -0.00121958
v 0.33277770 0.12502308 -0.00274033
v 0.33112219 0.12563382 -0.00144580
v 0.32666435 0.12724208 -0.00124471
v 0.34265522 0.12378034 0.00217069
v 0.35022987 0.12283945 0.00272683
v 0.33868756 0.12426611 0.00157684
v 0.33882631 0.12328984 -0.00138925
v 0.31496482 0.14365699 -0.00096821
v 0.40943038 0.13949490 0.00244090
v 0.31496482 0.14322546 0.00032317
v 0.38331224 0.12127837 -0.00665845
v 0.40943038 0.13359958 -0.02181881
v 0.40762688 0.13228610 -0.02127838
v 0.40207771 0.12943277 -0.02096732
v 0.40357600 0.13059533 -0.02149518
v 0.39623256 0.12473303 -0.00902127
v 0.39204296 0.12252581 -0.00450615
v 0.38588335 0.12151890 -0.00594521
v 0.38062089 0.12054263 -0.00442760
v 0.38690995 0.12128308 -0.00221560
v 0.38444981 0.12097889 -0.00176001
v 0.38052840 0.12056621 -0.00123843
v 0.36445428 0.12041293 0.00066565
v 0.36163342 0.12166274 0.00285565
v 0.35787849 0.12194808 0.00284308
v 0.35401255 0.12235131 0.00279910
v 0.37315722 0.12042944 0.00065622
v 0.37679195 0.12029031 -0.00067600
v 0.37559888 0.12054263 0.00053054
v 0.37305549 0.12148588 0.00279281
v 0.36939304 0.12144344 0.00285565
v 0.36565659 0.12127601 0.00242519
v 0.32462040 0.12875599 0.00067822
v 0.31711050 0.13271292 0.00015350
v 0.31639836 0.13237807 -0.00132012
v 0.31496482 0.13292044 -0.00319906
v 0.33459968 0.12453729 -0.00152121
v 0.33311064 0.12515748 -0.00042464
v 0.33566327 0.12473303 0.00097671
v 0.34646566 0.12364593 0.00300647
v 0.34764025 0.12472360 0.00493254
v 0.34512463 0.12502071 0.00466547
v 0.34254425 0.12534850 0.00431042
v 0.35016513 0.12448306 0.00515877
v 0.33852109 0.12590736 0.00365373
v 0.40943038 0.13927559 0.00283994
v 0.31496482 0.14318536 0.00040800
v 0.40943038 0.13271057 -0.02074109
v 0.40173550 0.12575174 -0.00624685
v 0.39919214 0.12525181 -0.00771104
v 0.40943038 0.13209038 -0.01912608
v 0.40756214 0.13084764 -0.01759276
v 0.40485231 0.12977470 -0.01784727
v 0.40375170 0.12707936 -0.00851540
v 0.39580713 0.12347143 -0.00450930
v 0.39577938 0.12328749 -0.00152436
v 0.39199670 0.12238668 -0.00145523
v 0.38697469 0.12133496 -0.00326505
v 0.38834349 0.12177829 -0.00456585
v 0.38453306 0.12111566 -0.00453129
v 0.38819550 0.12168632 -0.00140810
v 0.38439431 0.12127601 -0.00052204
v 0.38050989 0.12092701 0.00004981
v 0.36543462 0.12365300 0.00592857
v 0.36164269 0.12374733 0.00583431
v 0.35787849 0.12392418 0.00567721
v 0.35400331 0.12417650 0.00545098
v 0.37802200 0.12072892 0.00032631
v 0.38050065 0.12198345 0.00242833
v 0.37673645 0.12145522 0.00217069
v 0.37295376 0.12364593 0.00590343
v 0.38060238 0.12397606 0.00557352
v 0.37669022 0.12375911 0.00577147
v 0.36925429 0.12361999 0.00595371
v 0.32683082 0.12828673 0.00139460
v 0.32314063 0.13090660 0.00218326
v 0.31911746 0.13210689 0.00098299
v 0.31496482 0.13557569 0.00145744
v 0.31496482 0.13344159 -0.00094622
v 0.31496482 0.13326000 -0.00129813
v 0.33441470 0.12631297 0.00235607
v 0.33085399 0.12780094 0.00259486
v 0.34239626 0.12752032 0.00562065
v 0.33834538 0.12802497 0.00523418
v 0.33446093 0.12862865 0.00472517
v 0.35003565 0.12695438 0.00634332
v 0.33219504 0.12905311 0.00439211
v 0.32958691 0.12955774 0.00396794
v 0.40943038 0.13749285 0.00532216
v 0.31496482 0.14173983 0.00201358
v 0.40943038 0.12886682 -0.00623428
v 0.40771937 0.12778680 -0.00450615
v 0.40356676 0.12619035 -0.00481407
v 0.40012625 0.12493110 -0.00481407
v 0.40943038 0.13168949 -0.01758334
v 0.40943038 0.12904839 -0.00703550
v 0.40772864 0.12864044 -0.00826090
v 0.39963608 0.12448541 -0.00150865
v 0.39607536 0.12460568 0.00212356
v 0.40186498 0.12554657 0.00015035
v 0.39967307 0.12514570 0.00092644
v 0.39206144 0.12355632 0.00190676
v 0.38819550 0.12293848 0.00207643
v 0.38436659 0.12241970 0.00226495
v 0.36918031 0.12661010 0.00738648
v 0.36536988 0.12662188 0.00732364
v 0.36160570 0.12667139 0.00719482
v 0.35779524 0.12677045 0.00700315
v 0.35389234 0.12687184 0.00672351
v 0.38446832 0.12427318 0.00532844
v 0.37694918 0.12670206 0.00730164
v 0.37300926 0.12663131 0.00738648
v 0.38868570 0.12721377 0.00664810
v 0.38487527 0.12700154 0.00692146
v 0.38097234 0.12682468 0.00713197
v 0.32682158 0.13004353 0.00320756
v 0.32157760 0.13332604 0.00369458
v 0.31496482 0.13846439 0.00322641
v 0.31678680 0.13709197 0.00382340
v 0.33792919 0.13103865 0.00601341
v 0.33416499 0.13104573 0.00544470
v 0.32673833 0.13191117 0.00449580
v 0.32416722 0.13246296 0.00417217
v 0.40943038 0.13471970 0.00672665
v 0.31496482 0.14093571 0.00273311
v 0.40943038 0.12856262 -0.00448416
v 0.40943038 0.12847537 -0.00336873
v 0.40759916 0.12748260 -0.00129499
v 0.40415865 0.12611724 -0.00138296
v 0.40208695 0.12549941 -0.00377406
v 0.39500251 0.12536736 0.00425386
v 0.39973781 0.12607243 0.00305046
v 0.39756438 0.12574937 0.00375113
v 0.40331704 0.12666904 0.00169624
v 0.40943038 0.12867346 0.00030746
v 0.40943038 0.12902482 0.00146687
v 0.40771937 0.12858856 0.00220211
v 0.39218168 0.12502308 0.00461520
v 0.38828799 0.12462691 0.00501109
v 0.39712044 0.13091367 0.00714454
v 0.39323602 0.13075568 0.00713826
v 0.34577203 0.13080048 0.00652242
v 0.34194309 0.13094905 0.00636846
v 0.39255161 0.12742600 0.00627105
v 0.40077365 0.13101036 0.00700944
v 0.31670358 0.13736315 0.00380769
v 0.31876601 0.13626898 0.00402763
v 0.32628516 0.13441314 0.00483514
v 0.31842380 0.13752822 0.00398050
v 0.32261344 0.13454282 0.00436069
v 0.40893095 0.13432824 0.00680206
v 0.40943038 0.13437777 0.00675807
v 0.31785966 0.13911523 0.00350920
v 0.32199379 0.13720279 0.00424444
v 0.40943038 0.12831973 -0.00126357
v 0.40364998 0.12868052 0.00493883
v 0.40004303 0.12802732 0.00531587
v 0.40657256 0.12930307 0.00443924
v 0.40918066 0.12986667 0.00367887
v 0.40943038 0.12972754 0.00310073
v 0.40428813 0.13112355 0.00659468
v 0.40943038 0.13214226 0.00572119
v 0.40809857 0.13105751 0.00539128
v 0.40943038 0.13009068 0.00381083
v 0.40943038 0.13144189 0.00523104
v 0.40943038 0.12991147 0.00351548
f 1 2 3
f 1 3 4
f 1 4 5
f 1 5 6
f 1 6 7
f 1 7 8
f 1 8 9
f 1 9 10
f 1 10 11
f 1 11 2
f 2 12 13
f 2 13 3
f 2 11 14
f 2 14 15
f 2 15 12
f 3 16 33
f 3 33 52
f 3 52 75
f 3 75 106
f 3 106 143
f 3 143 182
f 3 182 226
f 3 226 225
f 3 225 224
f 3 224 264
f 3 264 271
f 3 271 236
f 3 236 193
f 3 193 156
f 3 156 154
f 3 154 118
f 3 118 85
f 3 85 58
f 3 58 34
f 3 34 17
f 3 17 4
f 3 13 16
f 4 17 18
f 4 18 5
f 5 19 20
f 5 20 6
f 5 18 21
f 5 21 19
f 6 20 22
f 6 22 7
f 7 22 8
f 8 23 9
f 8 22 23
f 9 23 10
f 10 23 24
f 10 24 25
f 10 25 11
f 11 25 14
f 12 15 26
f 12 26 13
f 13 27 16
f 13 26 28
f 13 28 27
f 14 25 29
f 14 29 30
f 14 30 15
f 15 30 31
f 15 31 32
f 15 32 26
f 16 27 33
f 17 34 35
f 17 35 36
f 17 36 18
f 18 36 35
f 18 35 59
f 18 59 87
f 18 87 86
f 18 86 120
f 18 120 119
f 18 119 155
f 18 155 192
f 18 192 235
f 18 235 270
f 18 270 298
f 18 298 308
f 18 308 311
f 18 311 310
f 18 310 312
f 18 312 306
f 18 306 282
f 18 282 281
f 18 281 301
f 18 301 273
f 18 273 272
f 18 272 237
f 18 237 242
f 18 242 241
f 18 241 197
f 18 197 194
f 18 194 158
f 18 158 122
f 18 122 90
f 18 90 62
f 18 62 42
f 18 42 21
f 19 37 20
f 19 21 38
f 19 38 37
f 20 37 39
f 20 39 40
f 20 40 41
f 20 41 22
f 21 42 38
f 22 41 23
f 23 41 24
f 24 41 43
f 24 43 25
f 25 43 44
f 25 44 45
f 25 45 46
f 25 46 47
f 25 47 29
f 26 32 48
f 26 48 28
f 27 28 49
f 27 49 50
f 27 50 51
f 27 51 52
f 27 52 33
f 28 48 53
f 28 53 54
f 28 54 49
f 29 47 30
f 30 47 55
f 30 55 31
f 31 56 57
f 31 57 48
f 31 48 32
f 31 55 56
f 34 58 35
f 35 58 59
f 37 38 60
f 37 60 61
f 37 61 39
f 38 42 62
f 38 62 63
f 38 63 64
f 38 64 65
f 38 65 60
f 39 61 40
f 40 61 66
f 40 66 41
f 41 66 43
f 43 67 45
f 43 45 44
f 43 66 67
f 45 68 46
f 45 67 69
f 45 69 68
f 46 68 70
f 46 70 47
f 47 70 55
f 48 57 71
f 48 71 53
f 49 72 50
f 49 54 73
f 49 73 72
f 50 72 51
f 51 72 74
f 51 74 75
f 51 75 52
f 53 76 77
f 53 77 54
f 53 71 76
f 54 78 73
f 54 77 76
f 54 76 78
f 55 70 79
f 55 79 80
f 55 80 81
f 55 81 82
f 55 82 83
f 55 83 56
f 56 83 84
f 56 84 57
f 57 84 76
f 57 76 71
f 58 85 86
f 58 86 87
f 58 87 59
f 60 88 61
f 60 65 88
f 61 88 89
f 61 89 66
f 62 90 91
f 62 91 92
f 62 92 63
f 63 93 65
f 63 65 64
f 63 92 93
f 65 93 94
f 65 94 95
f 65 95 88
f 66 89 96
f 66 96 97
f 66 97 67
f 67 97 69
f 68 98 70
f 68 69 99
f 68 99 98
f 69 97 100
f 69 100 99
f 70 98 101
f 70 101 102
f 70 102 79
f 72 103 74
f 72 73 78
f 72 78 103
f 74 103 78
f 74 78 104
f 74 104 105
f 74 105 106
f 74 106 75
f 76 107 108
f 76 108 78
f 76 84 109
f 76 109 107
f 78 108 107
f 78 107 110
f 78 110 111
f 78 111 112
f 78 112 113
f 78 113 114
f 78 114 104
f 79 102 80
f 80 102 81
f 81 102 82
f 82 115 116
f 82 116 83
f 82 102 115
f 83 116 117
f 83 117 84
f 84 117 109
f 85 118 119
f 85 119 120
f 85 120 86
f 88 95 121
f 88 121 89
f 89 121 96
f 90 122 123
f 90 123 91
f 91 123 124
f 91 124 125
f 91 125 92
f 92 125 93
f 93 126 94
f 93 125 126
f 94 126 127
f 94 127 128
f 94 128 129
f 94 129 130
f 94 130 95
f 95 130 129
f 95 129 121
f 96 131 100
f 96 100 97
f 96 121 132
f 96 132 131
f 98 99 133
f 98 133 134
f 98 134 135
f 98 135 101
f 99 100 136
f 99 136 137
f 99 137 138
f 99 138 133
f 100 131 136
f 101 135 139
f 101 139 140
f 101 140 102
f 102 140 115
f 104 114 113
f 104 113 141
f 104 141 105
f 105 141 142
f 105 142 143
f 105 143 106
f 107 109 110
f 109 117 110
f 110 117 144
f 110 144 111
f 111 144 145
f 111 145 112
f 112 145 113
f 113 146 141
f 113 145 147
f 113 147 148
f 113 148 149
f 113 149 146
f 115 150 116
f 115 140 151
f 115 151 150
f 116 150 152
f 116 152 153
f 116 153 117
f 117 153 145
f 117 145 144
f 118 154 119
f 119 154 156
f 119 156 155
f 121 129 157
f 121 157 132
f 122 158 123
f 123 159 160
f 123 160 161
f 123 161 124
f 123 158 159
f 124 160 127
f 124 127 125
f 124 161 160
f 125 127 126
f 127 160 128
f 128 160 162
f 128 162 163
f 128 163 164
f 128 164 129
f 129 164 157
f 131 132 157
f 131 157 165
f 131 165 166
f 131 166 167
f 131 167 168
f 131 168 136
f 133 138 169
f 133 169 134
f 134 170 171
f 134 171 135
f 134 169 170
f 135 171 172
f 135 172 151
f 135 151 140
f 135 140 139
f 136 173 137
f 136 168 174
f 136 174 175
f 136 175 173
f 137 173 176
f 137 176 177
f 137 177 138
f 138 177 178
f 138 178 169
f 141 146 179
f 141 179 142
f 142 180 181
f 142 181 182
f 142 182 143
f 142 179 180
f 145 153 147
f 146 149 179
f 147 153 183
f 147 183 148
f 148 183 184
f 148 184 149
f 149 184 185
f 149 185 179
f 150 151 186
f 150 186 187
f 150 187 188
f 150 188 189
f 150 189 152
f 151 172 190
f 151 190 187
f 151 187 186
f 152 191 185
f 152 185 153
f 152 189 191
f 153 185 184
f 153 184 183
f 155 156 193
f 155 193 192
f 157 164 165
f 158 194 159
f 159 194 160
f 160 195 196
f 160 196 162
f 160 194 197
f 160 197 198
f 160 198 199
f 160 199 200
f 160 200 195
f 162 201 163
f 162 196 201
f 163 201 202
f 163 202 203
f 163 203 204
f 163 204 205
f 163 205 164
f 164 205 204
f 164 204 206
f 164 206 165
f 165 206 204
f 165 204 166
f 166 207 167
f 166 204 203
f 166 203 207
f 167 207 208
f 167 208 168
f 168 208 209
f 168 209 174
f 169 178 170
f 170 178 177
f 170 177 210
f 170 210 211
f 170 211 212
f 170 212 171
f 171 212 213
f 171 213 172
f 172 213 190
f 173 175 176
f 174 209 214
f 174 214 175
f 175 214 215
f 175 215 216
f 175 216 176
f 176 217 177
f 176 216 215
f 176 215 218
f 176 218 219
f 176 219 217
f 177 220 210
f 177 217 220
f 179 221 222
f 179 222 223
f 179 223 180
f 179 185 221
f 180 223 224
f 180 224 225
f 180 225 181
f 181 225 226
f 181 226 182
f 185 191 227
f 185 227 228
f 185 228 221
f 187 229 230
f 187 230 188
f 187 190 229
f 188 230 189
f 189 230 231
f 189 231 191
f 190 213 232
f 190 232 229
f 191 231 233
f 191 233 234
f 191 234 228
f 191 228 227
f 192 193 235
f 193 236 235
f 195 200 237
f 195 237 238
f 195 238 239
f 195 239 240
f 195 240 201
f 195 201 196
f 197 241 198
f 198 241 242
f 198 242 199
f 199 242 243
f 199 243 200
f 200 243 242
f 200 242 237
f 201 240 244
f 201 244 202
f 202 245 203
f 202 244 246
f 202 246 247
f 202 247 245
f 203 245 248
f 203 248 207
f 207 248 208
f 208 248 249
f 208 249 250
f 208 250 209
f 209 215 214
f 209 250 215
f 210 220 251
f 210 251 252
f 210 252 211
f 211 253 254
f 211 254 212
f 211 252 253
f 212 254 255
f 212 255 213
f 213 255 232
f 215 250 256
f 215 256 218
f 217 219 257
f 217 257 258
f 217 258 220
f 218 256 259
f 218 259 260
f 218 260 219
f 219 260 261
f 219 261 257
f 220 258 251
f 221 228 234
f 221 234 262
f 221 262 222
f 222 262 263
f 222 263 223
f 223 263 224
f 224 263 265
f 224 265 264
f 229 266 230
f 229 232 266
f 230 266 267
f 230 267 268
f 230 268 231
f 231 268 269
f 231 269 233
f 232 255 266
f 233 269 234
f 234 269 262
f 235 236 271
f 235 271 270
f 237 272 238
f 238 272 273
f 238 273 274
f 238 274 275
f 238 275 276
f 238 276 239
f 239 276 240
f 240 276 244
f 244 276 275
f 244 275 246
f 245 277 248
f 245 247 278
f 245 278 279
f 245 279 277
f 246 280 247
f 246 275 274
f 246 274 281
f 246 281 282
f 246 282 283
f 246 283 280
f 247 280 278
f 248 277 284
f 248 284 249
f 249 284 250
f 250 284 285
f 250 285 256
f 251 258 286
f 251 286 287
f 251 287 288
f 251 288 252
f 252 288 253
f 253 288 289
f 253 289 254
f 254 289 255
f 255 289 266
f 256 285 290
f 256 290 259
f 257 261 291
f 257 291 286
f 257 286 258
f 259 290 291
f 259 291 260
f 260 291 261
f 262 269 263
f 263 269 265
f 264 265 292
f 264 292 271
f 265 269 293
f 265 293 294
f 265 294 295
f 265 295 292
f 266 294 296
f 266 296 268
f 266 268 267
f 266 289 294
f 268 296 269
f 269 296 293
f 270 297 298
f 270 271 299
f 270 299 300
f 270 300 288
f 270 288 297
f 271 292 295
f 271 295 299
f 273 301 274
f 274 301 281
f 277 279 302
f 277 302 303
f 277 303 284
f 278 280 304
f 278 304 279
f 279 304 302
f 280 283 305
f 280 305 304
f 282 306 283
f 283 306 305
f 284 303 290
f 284 290 285
f 286 291 297
f 286 297 287
f 287 297 288
f 288 300 289
f 289 300 295
f 289 295 294
f 290 303 307
f 290 307 291
f 291 307 298
f 291 298 297
f 293 296 294
f 295 300 299
f 298 307 308
f 302 304 309
f 302 309 307
f 302 307 303
f 304 305 310
f 304 310 311
f 304 311 309
f 305 306 312
f 305 312 310
f 307 309 308
f 308 309 311

